<?xml version="1.0" encoding="UTF-8" standalone="no"?>
<!-- Created with Inkscape (http://www.inkscape.org/) -->

<svg
   xmlns:dc="http://purl.org/dc/elements/1.1/"
   xmlns:cc="http://creativecommons.org/ns#"
   xmlns:rdf="http://www.w3.org/1999/02/22-rdf-syntax-ns#"
   xmlns:svg="http://www.w3.org/2000/svg"
   xmlns="http://www.w3.org/2000/svg"
   xmlns:sodipodi="http://sodipodi.sourceforge.net/DTD/sodipodi-0.dtd"
   xmlns:inkscape="http://www.inkscape.org/namespaces/inkscape"
   width="324.43701"
   height="186.65625"
   id="svg2"
   version="1.1"
   inkscape:version="0.48.4 r9939"
   sodipodi:docname="MabuchiUndJohnsonAdapter 4x3.svg">
  <sodipodi:namedview
     id="base"
     pagecolor="#ffffff"
     bordercolor="#666666"
     borderopacity="1.0"
     inkscape:pageopacity="0.0"
     inkscape:pageshadow="2"
     inkscape:zoom="2.8284271"
     inkscape:cx="155.34263"
     inkscape:cy="102.51205"
     inkscape:document-units="mm"
     inkscape:current-layer="layer1"
     showgrid="false"
     inkscape:window-width="1600"
     inkscape:window-height="1138"
     inkscape:window-x="-8"
     inkscape:window-y="-8"
     inkscape:window-maximized="1"
     inkscape:snap-object-midpoints="false"
     inkscape:object-paths="false"
     inkscape:snap-midpoints="false"
     inkscape:object-nodes="true"
     inkscape:snap-smooth-nodes="false"
     inkscape:snap-intersection-paths="false"
     inkscape:snap-center="true"
     units="mm"
     fit-margin-top="0"
     fit-margin-left="0"
     fit-margin-right="0"
     fit-margin-bottom="0" />
  <defs
     id="defs4" />
  <metadata
     id="metadata7">
    <rdf:RDF>
      <cc:Work
         rdf:about="">
        <dc:format>image/svg+xml</dc:format>
        <dc:type
           rdf:resource="http://purl.org/dc/dcmitype/StillImage" />
        <dc:title />
        <dc:creator>
          <cc:Agent>
            <dc:title>Nicco </dc:title>
          </cc:Agent>
        </dc:creator>
        <dc:rights>
          <cc:Agent>
            <dc:title>Kunzmann</dc:title>
          </cc:Agent>
        </dc:rights>
        <cc:license
           rdf:resource="http://creativecommons.org/licenses/by/3.0/" />
      </cc:Work>
      <cc:License
         rdf:about="http://creativecommons.org/licenses/by/3.0/">
        <cc:permits
           rdf:resource="http://creativecommons.org/ns#Reproduction" />
        <cc:permits
           rdf:resource="http://creativecommons.org/ns#Distribution" />
        <cc:requires
           rdf:resource="http://creativecommons.org/ns#Notice" />
        <cc:requires
           rdf:resource="http://creativecommons.org/ns#Attribution" />
        <cc:permits
           rdf:resource="http://creativecommons.org/ns#DerivativeWorks" />
      </cc:License>
    </rdf:RDF>
  </metadata>
  <g
     style="display:none"
     inkscape:label="lego"
     id="layer2"
     inkscape:groupmode="layer"
     transform="translate(-170.03125,-682.61579)">
    <g
       style="opacity:0.5"
       transform="matrix(0.6222696,0,0,0.6222696,47.3424,52.7391)"
       id="g3261">
      <rect
         id="rect3028"
         height="10.205"
         width="27.212999"
         y="256.56512"
         x="223.2825"
         style="fill:#808183;stroke:#231f20;stroke-width:0.28349999" />
      <rect
         id="rect3030"
         height="10.205"
         width="27.212999"
         y="256.56512"
         x="268.63651"
         style="fill:#808183;stroke:#231f20;stroke-width:0.28349999" />
      <rect
         id="rect3032"
         height="10.205"
         width="27.212999"
         y="256.56512"
         x="313.99152"
         style="fill:#808183;stroke:#231f20;stroke-width:0.28349999" />
      <rect
         id="rect3034"
         height="10.205"
         width="27.212999"
         y="256.56512"
         x="359.34549"
         style="fill:#808183;stroke:#231f20;stroke-width:0.28349999" />
      <path
         id="path3036"
         d="m 395.0615,321.19513 h -180.283 v -54.425 h 180.283 v 54.425 z m -135.496,-46.488 c -7.515,0 -13.606,6.092 -13.606,13.605 0,7.516 6.092,13.607 13.606,13.607 7.514,0 13.606,-6.092 13.606,-13.607 0.001,-7.513 -6.091,-13.605 -13.606,-13.605 z m 45.355,0 c -7.515,0 -13.606,6.092 -13.606,13.605 0,7.516 6.092,13.607 13.606,13.607 7.514,0 13.606,-6.092 13.606,-13.607 0,-7.513 -6.092,-13.605 -13.606,-13.605 z m 45.354,0 c -7.515,0 -13.606,6.092 -13.606,13.605 0,7.516 6.092,13.607 13.606,13.607 7.514,0 13.606,-6.092 13.606,-13.607 0.001,-7.513 -6.091,-13.605 -13.606,-13.605 z"
         inkscape:connector-curvature="0"
         style="fill:#808183;stroke:#231f20;stroke-width:0.28349999" />
      <circle
         id="circle3038"
         r="17.007999"
         cy="47.995998"
         cx="71.179001"
         sodipodi:cx="71.179001"
         sodipodi:cy="47.995998"
         sodipodi:rx="17.007999"
         sodipodi:ry="17.007999"
         style="fill:none;stroke:#231f20;stroke-width:0.28349999"
         d="m 88.187,47.995998 c 0,9.393259 -7.61474,17.008 -17.007999,17.008 -9.393259,0 -17.008,-7.614741 -17.008,-17.008 0,-9.393258 7.614741,-17.007999 17.008,-17.007999 9.393259,0 17.007999,7.614741 17.007999,17.007999 z"
         transform="translate(188.3865,240.31913)" />
      <circle
         id="circle3040"
         r="17.007999"
         cy="47.995998"
         cx="116.534"
         sodipodi:cx="116.534"
         sodipodi:cy="47.995998"
         sodipodi:rx="17.007999"
         sodipodi:ry="17.007999"
         style="fill:none;stroke:#231f20;stroke-width:0.28349999"
         d="m 133.542,47.995998 c 0,9.393259 -7.61474,17.008 -17.008,17.008 -9.39326,0 -17.008003,-7.614741 -17.008003,-17.008 0,-9.393258 7.614743,-17.007999 17.008003,-17.007999 9.39326,0 17.008,7.614741 17.008,17.007999 z"
         transform="translate(188.3865,240.31913)" />
      <circle
         id="circle3042"
         r="17.007999"
         cy="47.995998"
         cx="161.888"
         sodipodi:cx="161.888"
         sodipodi:cy="47.995998"
         sodipodi:rx="17.007999"
         sodipodi:ry="17.007999"
         style="fill:none;stroke:#231f20;stroke-width:0.28349999"
         d="m 178.896,47.995998 c 0,9.393259 -7.61474,17.008 -17.008,17.008 -9.39326,0 -17.008,-7.614741 -17.008,-17.008 0,-9.393258 7.61474,-17.007999 17.008,-17.007999 9.39326,0 17.008,7.614741 17.008,17.007999 z"
         transform="translate(188.3865,240.31913)" />
    </g>
    <g
       style="opacity:0.5"
       id="g3277"
       transform="matrix(0.6222696,0,0,0.6222696,47.3424,86.606126)">
      <rect
         style="fill:#808183;stroke:#231f20;stroke-width:0.28349999"
         x="223.2825"
         y="256.56512"
         width="27.212999"
         height="10.205"
         id="rect3279" />
      <rect
         style="fill:#808183;stroke:#231f20;stroke-width:0.28349999"
         x="268.63651"
         y="256.56512"
         width="27.212999"
         height="10.205"
         id="rect3281" />
      <rect
         style="fill:#808183;stroke:#231f20;stroke-width:0.28349999"
         x="313.99152"
         y="256.56512"
         width="27.212999"
         height="10.205"
         id="rect3283" />
      <rect
         style="fill:#808183;stroke:#231f20;stroke-width:0.28349999"
         x="359.34549"
         y="256.56512"
         width="27.212999"
         height="10.205"
         id="rect3285" />
      <path
         style="fill:#808183;stroke:#231f20;stroke-width:0.28349999"
         inkscape:connector-curvature="0"
         d="m 395.0615,321.19513 h -180.283 v -54.425 h 180.283 v 54.425 z m -135.496,-46.488 c -7.515,0 -13.606,6.092 -13.606,13.605 0,7.516 6.092,13.607 13.606,13.607 7.514,0 13.606,-6.092 13.606,-13.607 0.001,-7.513 -6.091,-13.605 -13.606,-13.605 z m 45.355,0 c -7.515,0 -13.606,6.092 -13.606,13.605 0,7.516 6.092,13.607 13.606,13.607 7.514,0 13.606,-6.092 13.606,-13.607 0,-7.513 -6.092,-13.605 -13.606,-13.605 z m 45.354,0 c -7.515,0 -13.606,6.092 -13.606,13.605 0,7.516 6.092,13.607 13.606,13.607 7.514,0 13.606,-6.092 13.606,-13.607 0.001,-7.513 -6.091,-13.605 -13.606,-13.605 z"
         id="path3287" />
      <circle
         transform="translate(188.3865,240.31913)"
         d="m 88.187,47.995998 c 0,9.393259 -7.61474,17.008 -17.007999,17.008 -9.393259,0 -17.008,-7.614741 -17.008,-17.008 0,-9.393258 7.614741,-17.007999 17.008,-17.007999 9.393259,0 17.007999,7.614741 17.007999,17.007999 z"
         style="fill:none;stroke:#231f20;stroke-width:0.28349999"
         sodipodi:ry="17.007999"
         sodipodi:rx="17.007999"
         sodipodi:cy="47.995998"
         sodipodi:cx="71.179001"
         cx="71.179001"
         cy="47.995998"
         r="17.007999"
         id="circle3289" />
      <circle
         transform="translate(188.3865,240.31913)"
         d="m 133.542,47.995998 c 0,9.393259 -7.61474,17.008 -17.008,17.008 -9.39326,0 -17.008003,-7.614741 -17.008003,-17.008 0,-9.393258 7.614743,-17.007999 17.008003,-17.007999 9.39326,0 17.008,7.614741 17.008,17.007999 z"
         style="fill:none;stroke:#231f20;stroke-width:0.28349999"
         sodipodi:ry="17.007999"
         sodipodi:rx="17.007999"
         sodipodi:cy="47.995998"
         sodipodi:cx="116.534"
         cx="116.534"
         cy="47.995998"
         r="17.007999"
         id="circle3291" />
      <circle
         transform="translate(188.3865,240.31913)"
         d="m 178.896,47.995998 c 0,9.393259 -7.61474,17.008 -17.008,17.008 -9.39326,0 -17.008,-7.614741 -17.008,-17.008 0,-9.393258 7.61474,-17.007999 17.008,-17.007999 9.39326,0 17.008,7.614741 17.008,17.007999 z"
         style="fill:none;stroke:#231f20;stroke-width:0.28349999"
         sodipodi:ry="17.007999"
         sodipodi:rx="17.007999"
         sodipodi:cy="47.995998"
         sodipodi:cx="161.888"
         cx="161.888"
         cy="47.995998"
         r="17.007999"
         id="circle3293" />
    </g>
    <g
       style="opacity:0.5"
       transform="matrix(0.6222696,0,0,0.6222696,47.3424,120.47315)"
       id="g3295">
      <rect
         id="rect3297"
         height="10.205"
         width="27.212999"
         y="256.56512"
         x="223.2825"
         style="fill:#808183;stroke:#231f20;stroke-width:0.28349999" />
      <rect
         id="rect3299"
         height="10.205"
         width="27.212999"
         y="256.56512"
         x="268.63651"
         style="fill:#808183;stroke:#231f20;stroke-width:0.28349999" />
      <rect
         id="rect3301"
         height="10.205"
         width="27.212999"
         y="256.56512"
         x="313.99152"
         style="fill:#808183;stroke:#231f20;stroke-width:0.28349999" />
      <rect
         id="rect3303"
         height="10.205"
         width="27.212999"
         y="256.56512"
         x="359.34549"
         style="fill:#808183;stroke:#231f20;stroke-width:0.28349999" />
      <path
         id="path3305"
         d="m 395.0615,321.19513 h -180.283 v -54.425 h 180.283 v 54.425 z m -135.496,-46.488 c -7.515,0 -13.606,6.092 -13.606,13.605 0,7.516 6.092,13.607 13.606,13.607 7.514,0 13.606,-6.092 13.606,-13.607 0.001,-7.513 -6.091,-13.605 -13.606,-13.605 z m 45.355,0 c -7.515,0 -13.606,6.092 -13.606,13.605 0,7.516 6.092,13.607 13.606,13.607 7.514,0 13.606,-6.092 13.606,-13.607 0,-7.513 -6.092,-13.605 -13.606,-13.605 z m 45.354,0 c -7.515,0 -13.606,6.092 -13.606,13.605 0,7.516 6.092,13.607 13.606,13.607 7.514,0 13.606,-6.092 13.606,-13.607 0.001,-7.513 -6.091,-13.605 -13.606,-13.605 z"
         inkscape:connector-curvature="0"
         style="fill:#808183;stroke:#231f20;stroke-width:0.28349999" />
      <circle
         id="circle3307"
         r="17.007999"
         cy="47.995998"
         cx="71.179001"
         sodipodi:cx="71.179001"
         sodipodi:cy="47.995998"
         sodipodi:rx="17.007999"
         sodipodi:ry="17.007999"
         style="fill:none;stroke:#231f20;stroke-width:0.28349999"
         d="m 88.187,47.995998 c 0,9.393259 -7.61474,17.008 -17.007999,17.008 -9.393259,0 -17.008,-7.614741 -17.008,-17.008 0,-9.393258 7.614741,-17.007999 17.008,-17.007999 9.393259,0 17.007999,7.614741 17.007999,17.007999 z"
         transform="translate(188.3865,240.31913)" />
      <circle
         id="circle3309"
         r="17.007999"
         cy="47.995998"
         cx="116.534"
         sodipodi:cx="116.534"
         sodipodi:cy="47.995998"
         sodipodi:rx="17.007999"
         sodipodi:ry="17.007999"
         style="fill:none;stroke:#231f20;stroke-width:0.28349999"
         d="m 133.542,47.995998 c 0,9.393259 -7.61474,17.008 -17.008,17.008 -9.39326,0 -17.008003,-7.614741 -17.008003,-17.008 0,-9.393258 7.614743,-17.007999 17.008003,-17.007999 9.39326,0 17.008,7.614741 17.008,17.007999 z"
         transform="translate(188.3865,240.31913)" />
      <circle
         id="circle3311"
         r="17.007999"
         cy="47.995998"
         cx="161.888"
         sodipodi:cx="161.888"
         sodipodi:cy="47.995998"
         sodipodi:rx="17.007999"
         sodipodi:ry="17.007999"
         style="fill:none;stroke:#231f20;stroke-width:0.28349999"
         d="m 178.896,47.995998 c 0,9.393259 -7.61474,17.008 -17.008,17.008 -9.39326,0 -17.008,-7.614741 -17.008,-17.008 0,-9.393258 7.61474,-17.007999 17.008,-17.007999 9.39326,0 17.008,7.614741 17.008,17.007999 z"
         transform="translate(188.3865,240.31913)" />
    </g>
    <g
       id="g4092"
       transform="matrix(0.6222696,0,0,0.6222696,47.3424,154.34017)"
       style="opacity:0.5">
      <rect
         style="fill:#808183;stroke:#231f20;stroke-width:0.28349999"
         x="223.2825"
         y="256.56512"
         width="27.212999"
         height="10.205"
         id="rect4094" />
      <rect
         style="fill:#808183;stroke:#231f20;stroke-width:0.28349999"
         x="268.63651"
         y="256.56512"
         width="27.212999"
         height="10.205"
         id="rect4096" />
      <rect
         style="fill:#808183;stroke:#231f20;stroke-width:0.28349999"
         x="313.99152"
         y="256.56512"
         width="27.212999"
         height="10.205"
         id="rect4098" />
      <rect
         style="fill:#808183;stroke:#231f20;stroke-width:0.28349999"
         x="359.34549"
         y="256.56512"
         width="27.212999"
         height="10.205"
         id="rect4100" />
      <path
         style="fill:#808183;stroke:#231f20;stroke-width:0.28349999"
         inkscape:connector-curvature="0"
         d="m 395.0615,321.19513 h -180.283 v -54.425 h 180.283 v 54.425 z m -135.496,-46.488 c -7.515,0 -13.606,6.092 -13.606,13.605 0,7.516 6.092,13.607 13.606,13.607 7.514,0 13.606,-6.092 13.606,-13.607 0.001,-7.513 -6.091,-13.605 -13.606,-13.605 z m 45.355,0 c -7.515,0 -13.606,6.092 -13.606,13.605 0,7.516 6.092,13.607 13.606,13.607 7.514,0 13.606,-6.092 13.606,-13.607 0,-7.513 -6.092,-13.605 -13.606,-13.605 z m 45.354,0 c -7.515,0 -13.606,6.092 -13.606,13.605 0,7.516 6.092,13.607 13.606,13.607 7.514,0 13.606,-6.092 13.606,-13.607 0.001,-7.513 -6.091,-13.605 -13.606,-13.605 z"
         id="path4102" />
      <circle
         transform="translate(188.3865,240.31913)"
         d="m 88.187,47.995998 c 0,9.393259 -7.61474,17.008 -17.007999,17.008 -9.393259,0 -17.008,-7.614741 -17.008,-17.008 0,-9.393258 7.614741,-17.007999 17.008,-17.007999 9.393259,0 17.007999,7.614741 17.007999,17.007999 z"
         style="fill:none;stroke:#231f20;stroke-width:0.28349999"
         sodipodi:ry="17.007999"
         sodipodi:rx="17.007999"
         sodipodi:cy="47.995998"
         sodipodi:cx="71.179001"
         cx="71.179001"
         cy="47.995998"
         r="17.007999"
         id="circle4104" />
      <circle
         transform="translate(188.3865,240.31913)"
         d="m 133.542,47.995998 c 0,9.393259 -7.61474,17.008 -17.008,17.008 -9.39326,0 -17.008003,-7.614741 -17.008003,-17.008 0,-9.393258 7.614743,-17.007999 17.008003,-17.007999 9.39326,0 17.008,7.614741 17.008,17.007999 z"
         style="fill:none;stroke:#231f20;stroke-width:0.28349999"
         sodipodi:ry="17.007999"
         sodipodi:rx="17.007999"
         sodipodi:cy="47.995998"
         sodipodi:cx="116.534"
         cx="116.534"
         cy="47.995998"
         r="17.007999"
         id="circle4106" />
      <circle
         transform="translate(188.3865,240.31913)"
         d="m 178.896,47.995998 c 0,9.393259 -7.61474,17.008 -17.008,17.008 -9.39326,0 -17.008,-7.614741 -17.008,-17.008 0,-9.393258 7.61474,-17.007999 17.008,-17.007999 9.39326,0 17.008,7.614741 17.008,17.007999 z"
         style="fill:none;stroke:#231f20;stroke-width:0.28349999"
         sodipodi:ry="17.007999"
         sodipodi:rx="17.007999"
         sodipodi:cy="47.995998"
         sodipodi:cx="161.888"
         cx="161.888"
         cy="47.995998"
         r="17.007999"
         id="circle4108" />
    </g>
    <g
       id="g4319"
       transform="matrix(0.6222696,0,0,0.6222696,220.8361,52.7391)"
       style="opacity:0.5">
      <rect
         style="fill:#808183;stroke:#231f20;stroke-width:0.28349999"
         x="223.2825"
         y="256.56512"
         width="27.212999"
         height="10.205"
         id="rect4321" />
      <rect
         style="fill:#808183;stroke:#231f20;stroke-width:0.28349999"
         x="268.63651"
         y="256.56512"
         width="27.212999"
         height="10.205"
         id="rect4323" />
      <rect
         style="fill:#808183;stroke:#231f20;stroke-width:0.28349999"
         x="313.99152"
         y="256.56512"
         width="27.212999"
         height="10.205"
         id="rect4325" />
      <rect
         style="fill:#808183;stroke:#231f20;stroke-width:0.28349999"
         x="359.34549"
         y="256.56512"
         width="27.212999"
         height="10.205"
         id="rect4327" />
      <path
         style="fill:#808183;stroke:#231f20;stroke-width:0.28349999"
         inkscape:connector-curvature="0"
         d="m 395.0615,321.19513 h -180.283 v -54.425 h 180.283 v 54.425 z m -135.496,-46.488 c -7.515,0 -13.606,6.092 -13.606,13.605 0,7.516 6.092,13.607 13.606,13.607 7.514,0 13.606,-6.092 13.606,-13.607 0.001,-7.513 -6.091,-13.605 -13.606,-13.605 z m 45.355,0 c -7.515,0 -13.606,6.092 -13.606,13.605 0,7.516 6.092,13.607 13.606,13.607 7.514,0 13.606,-6.092 13.606,-13.607 0,-7.513 -6.092,-13.605 -13.606,-13.605 z m 45.354,0 c -7.515,0 -13.606,6.092 -13.606,13.605 0,7.516 6.092,13.607 13.606,13.607 7.514,0 13.606,-6.092 13.606,-13.607 0.001,-7.513 -6.091,-13.605 -13.606,-13.605 z"
         id="path4329" />
      <circle
         transform="translate(188.3865,240.31913)"
         d="m 88.187,47.995998 c 0,9.393259 -7.61474,17.008 -17.007999,17.008 -9.393259,0 -17.008,-7.614741 -17.008,-17.008 0,-9.393258 7.614741,-17.007999 17.008,-17.007999 9.393259,0 17.007999,7.614741 17.007999,17.007999 z"
         style="fill:none;stroke:#231f20;stroke-width:0.28349999"
         sodipodi:ry="17.007999"
         sodipodi:rx="17.007999"
         sodipodi:cy="47.995998"
         sodipodi:cx="71.179001"
         cx="71.179001"
         cy="47.995998"
         r="17.007999"
         id="circle4331" />
      <circle
         transform="translate(188.3865,240.31913)"
         d="m 133.542,47.995998 c 0,9.393259 -7.61474,17.008 -17.008,17.008 -9.39326,0 -17.008003,-7.614741 -17.008003,-17.008 0,-9.393258 7.614743,-17.007999 17.008003,-17.007999 9.39326,0 17.008,7.614741 17.008,17.007999 z"
         style="fill:none;stroke:#231f20;stroke-width:0.28349999"
         sodipodi:ry="17.007999"
         sodipodi:rx="17.007999"
         sodipodi:cy="47.995998"
         sodipodi:cx="116.534"
         cx="116.534"
         cy="47.995998"
         r="17.007999"
         id="circle4333" />
      <circle
         transform="translate(188.3865,240.31913)"
         d="m 178.896,47.995998 c 0,9.393259 -7.61474,17.008 -17.008,17.008 -9.39326,0 -17.008,-7.614741 -17.008,-17.008 0,-9.393258 7.61474,-17.007999 17.008,-17.007999 9.39326,0 17.008,7.614741 17.008,17.007999 z"
         style="fill:none;stroke:#231f20;stroke-width:0.28349999"
         sodipodi:ry="17.007999"
         sodipodi:rx="17.007999"
         sodipodi:cy="47.995998"
         sodipodi:cx="161.888"
         cx="161.888"
         cy="47.995998"
         r="17.007999"
         id="circle4335" />
    </g>
    <g
       transform="matrix(0.6222696,0,0,0.6222696,220.8361,86.606126)"
       id="g4337"
       style="opacity:0.5">
      <rect
         id="rect4339"
         height="10.205"
         width="27.212999"
         y="256.56512"
         x="223.2825"
         style="fill:#808183;stroke:#231f20;stroke-width:0.28349999" />
      <rect
         id="rect4341"
         height="10.205"
         width="27.212999"
         y="256.56512"
         x="268.63651"
         style="fill:#808183;stroke:#231f20;stroke-width:0.28349999" />
      <rect
         id="rect4343"
         height="10.205"
         width="27.212999"
         y="256.56512"
         x="313.99152"
         style="fill:#808183;stroke:#231f20;stroke-width:0.28349999" />
      <rect
         id="rect4345"
         height="10.205"
         width="27.212999"
         y="256.56512"
         x="359.34549"
         style="fill:#808183;stroke:#231f20;stroke-width:0.28349999" />
      <path
         id="path4347"
         d="m 395.0615,321.19513 h -180.283 v -54.425 h 180.283 v 54.425 z m -135.496,-46.488 c -7.515,0 -13.606,6.092 -13.606,13.605 0,7.516 6.092,13.607 13.606,13.607 7.514,0 13.606,-6.092 13.606,-13.607 0.001,-7.513 -6.091,-13.605 -13.606,-13.605 z m 45.355,0 c -7.515,0 -13.606,6.092 -13.606,13.605 0,7.516 6.092,13.607 13.606,13.607 7.514,0 13.606,-6.092 13.606,-13.607 0,-7.513 -6.092,-13.605 -13.606,-13.605 z m 45.354,0 c -7.515,0 -13.606,6.092 -13.606,13.605 0,7.516 6.092,13.607 13.606,13.607 7.514,0 13.606,-6.092 13.606,-13.607 0.001,-7.513 -6.091,-13.605 -13.606,-13.605 z"
         inkscape:connector-curvature="0"
         style="fill:#808183;stroke:#231f20;stroke-width:0.28349999" />
      <circle
         id="circle4349"
         r="17.007999"
         cy="47.995998"
         cx="71.179001"
         sodipodi:cx="71.179001"
         sodipodi:cy="47.995998"
         sodipodi:rx="17.007999"
         sodipodi:ry="17.007999"
         style="fill:none;stroke:#231f20;stroke-width:0.28349999"
         d="m 88.187,47.995998 c 0,9.393259 -7.61474,17.008 -17.007999,17.008 -9.393259,0 -17.008,-7.614741 -17.008,-17.008 0,-9.393258 7.614741,-17.007999 17.008,-17.007999 9.393259,0 17.007999,7.614741 17.007999,17.007999 z"
         transform="translate(188.3865,240.31913)" />
      <circle
         id="circle4351"
         r="17.007999"
         cy="47.995998"
         cx="116.534"
         sodipodi:cx="116.534"
         sodipodi:cy="47.995998"
         sodipodi:rx="17.007999"
         sodipodi:ry="17.007999"
         style="fill:none;stroke:#231f20;stroke-width:0.28349999"
         d="m 133.542,47.995998 c 0,9.393259 -7.61474,17.008 -17.008,17.008 -9.39326,0 -17.008003,-7.614741 -17.008003,-17.008 0,-9.393258 7.614743,-17.007999 17.008003,-17.007999 9.39326,0 17.008,7.614741 17.008,17.007999 z"
         transform="translate(188.3865,240.31913)" />
      <circle
         id="circle4353"
         r="17.007999"
         cy="47.995998"
         cx="161.888"
         sodipodi:cx="161.888"
         sodipodi:cy="47.995998"
         sodipodi:rx="17.007999"
         sodipodi:ry="17.007999"
         style="fill:none;stroke:#231f20;stroke-width:0.28349999"
         d="m 178.896,47.995998 c 0,9.393259 -7.61474,17.008 -17.008,17.008 -9.39326,0 -17.008,-7.614741 -17.008,-17.008 0,-9.393258 7.61474,-17.007999 17.008,-17.007999 9.39326,0 17.008,7.614741 17.008,17.007999 z"
         transform="translate(188.3865,240.31913)" />
    </g>
    <g
       id="g4355"
       transform="matrix(0.6222696,0,0,0.6222696,220.8361,120.47315)"
       style="opacity:0.5">
      <rect
         style="fill:#808183;stroke:#231f20;stroke-width:0.28349999"
         x="223.2825"
         y="256.56512"
         width="27.212999"
         height="10.205"
         id="rect4357" />
      <rect
         style="fill:#808183;stroke:#231f20;stroke-width:0.28349999"
         x="268.63651"
         y="256.56512"
         width="27.212999"
         height="10.205"
         id="rect4359" />
      <rect
         style="fill:#808183;stroke:#231f20;stroke-width:0.28349999"
         x="313.99152"
         y="256.56512"
         width="27.212999"
         height="10.205"
         id="rect4361" />
      <rect
         style="fill:#808183;stroke:#231f20;stroke-width:0.28349999"
         x="359.34549"
         y="256.56512"
         width="27.212999"
         height="10.205"
         id="rect4363" />
      <path
         style="fill:#808183;stroke:#231f20;stroke-width:0.28349999"
         inkscape:connector-curvature="0"
         d="m 395.0615,321.19513 h -180.283 v -54.425 h 180.283 v 54.425 z m -135.496,-46.488 c -7.515,0 -13.606,6.092 -13.606,13.605 0,7.516 6.092,13.607 13.606,13.607 7.514,0 13.606,-6.092 13.606,-13.607 0.001,-7.513 -6.091,-13.605 -13.606,-13.605 z m 45.355,0 c -7.515,0 -13.606,6.092 -13.606,13.605 0,7.516 6.092,13.607 13.606,13.607 7.514,0 13.606,-6.092 13.606,-13.607 0,-7.513 -6.092,-13.605 -13.606,-13.605 z m 45.354,0 c -7.515,0 -13.606,6.092 -13.606,13.605 0,7.516 6.092,13.607 13.606,13.607 7.514,0 13.606,-6.092 13.606,-13.607 0.001,-7.513 -6.091,-13.605 -13.606,-13.605 z"
         id="path4365" />
      <circle
         transform="translate(188.3865,240.31913)"
         d="m 88.187,47.995998 c 0,9.393259 -7.61474,17.008 -17.007999,17.008 -9.393259,0 -17.008,-7.614741 -17.008,-17.008 0,-9.393258 7.614741,-17.007999 17.008,-17.007999 9.393259,0 17.007999,7.614741 17.007999,17.007999 z"
         style="fill:none;stroke:#231f20;stroke-width:0.28349999"
         sodipodi:ry="17.007999"
         sodipodi:rx="17.007999"
         sodipodi:cy="47.995998"
         sodipodi:cx="71.179001"
         cx="71.179001"
         cy="47.995998"
         r="17.007999"
         id="circle4367" />
      <circle
         transform="translate(188.3865,240.31913)"
         d="m 133.542,47.995998 c 0,9.393259 -7.61474,17.008 -17.008,17.008 -9.39326,0 -17.008003,-7.614741 -17.008003,-17.008 0,-9.393258 7.614743,-17.007999 17.008003,-17.007999 9.39326,0 17.008,7.614741 17.008,17.007999 z"
         style="fill:none;stroke:#231f20;stroke-width:0.28349999"
         sodipodi:ry="17.007999"
         sodipodi:rx="17.007999"
         sodipodi:cy="47.995998"
         sodipodi:cx="116.534"
         cx="116.534"
         cy="47.995998"
         r="17.007999"
         id="circle4369" />
      <circle
         transform="translate(188.3865,240.31913)"
         d="m 178.896,47.995998 c 0,9.393259 -7.61474,17.008 -17.008,17.008 -9.39326,0 -17.008,-7.614741 -17.008,-17.008 0,-9.393258 7.61474,-17.007999 17.008,-17.007999 9.39326,0 17.008,7.614741 17.008,17.007999 z"
         style="fill:none;stroke:#231f20;stroke-width:0.28349999"
         sodipodi:ry="17.007999"
         sodipodi:rx="17.007999"
         sodipodi:cy="47.995998"
         sodipodi:cx="161.888"
         cx="161.888"
         cy="47.995998"
         r="17.007999"
         id="circle4371" />
    </g>
    <g
       style="opacity:0.5"
       transform="matrix(0.6222696,0,0,0.6222696,220.8361,154.34017)"
       id="g4373">
      <rect
         id="rect4375"
         height="10.205"
         width="27.212999"
         y="256.56512"
         x="223.2825"
         style="fill:#808183;stroke:#231f20;stroke-width:0.28349999" />
      <rect
         id="rect4377"
         height="10.205"
         width="27.212999"
         y="256.56512"
         x="268.63651"
         style="fill:#808183;stroke:#231f20;stroke-width:0.28349999" />
      <rect
         id="rect4379"
         height="10.205"
         width="27.212999"
         y="256.56512"
         x="313.99152"
         style="fill:#808183;stroke:#231f20;stroke-width:0.28349999" />
      <rect
         id="rect4381"
         height="10.205"
         width="27.212999"
         y="256.56512"
         x="359.34549"
         style="fill:#808183;stroke:#231f20;stroke-width:0.28349999" />
      <path
         id="path4383"
         d="m 395.0615,321.19513 h -180.283 v -54.425 h 180.283 v 54.425 z m -135.496,-46.488 c -7.515,0 -13.606,6.092 -13.606,13.605 0,7.516 6.092,13.607 13.606,13.607 7.514,0 13.606,-6.092 13.606,-13.607 0.001,-7.513 -6.091,-13.605 -13.606,-13.605 z m 45.355,0 c -7.515,0 -13.606,6.092 -13.606,13.605 0,7.516 6.092,13.607 13.606,13.607 7.514,0 13.606,-6.092 13.606,-13.607 0,-7.513 -6.092,-13.605 -13.606,-13.605 z m 45.354,0 c -7.515,0 -13.606,6.092 -13.606,13.605 0,7.516 6.092,13.607 13.606,13.607 7.514,0 13.606,-6.092 13.606,-13.607 0.001,-7.513 -6.091,-13.605 -13.606,-13.605 z"
         inkscape:connector-curvature="0"
         style="fill:#808183;stroke:#231f20;stroke-width:0.28349999" />
      <circle
         id="circle4385"
         r="17.007999"
         cy="47.995998"
         cx="71.179001"
         sodipodi:cx="71.179001"
         sodipodi:cy="47.995998"
         sodipodi:rx="17.007999"
         sodipodi:ry="17.007999"
         style="fill:none;stroke:#231f20;stroke-width:0.28349999"
         d="m 88.187,47.995998 c 0,9.393259 -7.61474,17.008 -17.007999,17.008 -9.393259,0 -17.008,-7.614741 -17.008,-17.008 0,-9.393258 7.614741,-17.007999 17.008,-17.007999 9.393259,0 17.007999,7.614741 17.007999,17.007999 z"
         transform="translate(188.3865,240.31913)" />
      <circle
         id="circle4387"
         r="17.007999"
         cy="47.995998"
         cx="116.534"
         sodipodi:cx="116.534"
         sodipodi:cy="47.995998"
         sodipodi:rx="17.007999"
         sodipodi:ry="17.007999"
         style="fill:none;stroke:#231f20;stroke-width:0.28349999"
         d="m 133.542,47.995998 c 0,9.393259 -7.61474,17.008 -17.008,17.008 -9.39326,0 -17.008003,-7.614741 -17.008003,-17.008 0,-9.393258 7.614743,-17.007999 17.008003,-17.007999 9.39326,0 17.008,7.614741 17.008,17.007999 z"
         transform="translate(188.3865,240.31913)" />
      <circle
         id="circle4389"
         r="17.007999"
         cy="47.995998"
         cx="161.888"
         sodipodi:cx="161.888"
         sodipodi:cy="47.995998"
         sodipodi:rx="17.007999"
         sodipodi:ry="17.007999"
         style="fill:none;stroke:#231f20;stroke-width:0.28349999"
         d="m 178.896,47.995998 c 0,9.393259 -7.61474,17.008 -17.008,17.008 -9.39326,0 -17.008,-7.614741 -17.008,-17.008 0,-9.393258 7.61474,-17.007999 17.008,-17.007999 9.39326,0 17.008,7.614741 17.008,17.007999 z"
         transform="translate(188.3865,240.31913)" />
    </g>
  </g>
  <g
     inkscape:groupmode="layer"
     id="layer3"
     inkscape:label="Purgatory"
     style="display:none"
     transform="translate(-170.03125,-682.61579)">
    <path
       inkscape:connector-curvature="0"
       id="rect4634"
       d="m 321.38911,393.7277 0,10.625 -10.625,0 0,10.625 10.625,0 0,48.46875 -10.625,0 0,10.625 10.625,0 0,10.625 15.5625,0 0,10.625 4.3125,0 0,-10.625 24.03125,0 0,10.625 4.3125,0 0,-10.625 24.03125,0 0,10.625 4.3125,0 0,-10.625 15.5625,0 0,-10.625 10.625,0 0,-10.625 -10.625,0 0,-48.46875 10.625,0 0,-10.625 -10.625,0 0,-10.625 -92.125,0 z m 17.8125,4.90625 c 4.69659,0 8.53125,3.80341 8.53125,8.5 0,4.69659 -3.83466,8.5 -8.53125,8.5 -4.69659,0 -8.5,-3.80341 -8.5,-8.5 0,-4.69659 3.80341,-8.5 8.5,-8.5 z m 56.46875,0 c 4.69659,0 8.5,3.80341 8.5,8.5 0,4.69659 -3.80341,8.5 -8.5,8.5 -4.69659,0 -8.5,-3.80341 -8.5,-8.5 0,-4.69659 3.80341,-8.5 8.5,-8.5 z m -28.21875,0.0312 c 4.69659,0 8.5,3.80341 8.5,8.5 0,4.69659 -3.80341,8.5 -8.5,8.5 -4.69659,0 -8.53125,-3.80341 -8.53125,-8.5 0,-4.69659 3.83466,-8.5 8.53125,-8.5 z m -28.25,33.8125 c 4.69659,0 8.53125,3.83466 8.53125,8.53125 0,4.69659 -3.83466,8.5 -8.53125,8.5 -4.69659,0 -8.5,-3.80341 -8.5,-8.5 0,-4.69659 3.80341,-8.53125 8.5,-8.53125 z m 28.25,0 c 4.69659,0 8.5,3.83466 8.5,8.53125 0,4.69659 -3.80341,8.5 -8.5,8.5 -4.69659,0 -8.53125,-3.80341 -8.53125,-8.5 0,-4.69659 3.83466,-8.53125 8.53125,-8.53125 z m 28.21875,0 c 4.69659,0 8.5,3.83466 8.5,8.53125 0,4.69659 -3.80341,8.5 -8.5,8.5 -4.69659,0 -8.5,-3.80341 -8.5,-8.5 0,-4.69659 3.80341,-8.53125 8.5,-8.53125 z"
       style="opacity:0.57579878;color:#000000;fill:#000000;fill-opacity:0.20392157;fill-rule:nonzero;stroke:none;stroke-width:0.77952754;marker:none;visibility:visible;display:inline;overflow:visible;enable-background:accumulate" />
    <path
       id="rect4458"
       d="m 184.1875,376.21875 0,10.625 -3.5625,0 0,15.9375 10.65625,0 0,3.5625 -10.65625,0 0,24.78125 10.65625,0 0,3.5625 -10.65625,0 0,24.78125 10.65625,0 0,3.5625 -10.65625,0 0,15.9375 3.5625,0 0,10.625 23.03125,0 0,-10.625 3.53125,0 0,10.625 24.8125,0 0,-10.625 3.53125,0 0,10.625 24.8125,0 0,-10.625 3.53125,0 0,10.625 23.03125,0 0,-10.625 3.5625,0 0,-15.9375 -10.625,0 0,-3.5625 10.625,0 0,-24.78125 -10.625,0 0,-3.5625 10.625,0 0,-24.78125 -10.625,0 0,-3.5625 10.625,0 0,-15.9375 -3.5625,0 0,-10.625 -23.03125,0 0,10.625 -3.53125,0 0,-10.625 -24.8125,0 0,10.625 -3.53125,0 0,-10.625 -24.8125,0 0,10.625 -3.53125,0 0,-10.625 -23.03125,0 z m 10.625,5.875 c 4.57918,0 8.3125,3.70207 8.3125,8.28125 0,4.57918 -3.73332,8.28125 -8.3125,8.28125 -4.57918,0 -8.28125,-3.70207 -8.28125,-8.28125 0,-4.57918 3.70207,-8.28125 8.28125,-8.28125 z m 28.34375,0 c 4.57918,0 8.3125,3.70207 8.3125,8.28125 0,4.57918 -3.73332,8.28125 -8.3125,8.28125 -4.57918,0 -8.28125,-3.70207 -8.28125,-8.28125 0,-4.57918 3.70207,-8.28125 8.28125,-8.28125 z m 28.375,0 c 4.57918,0 8.28125,3.70207 8.28125,8.28125 0,4.57918 -3.70207,8.28125 -8.28125,8.28125 -4.57918,0 -8.3125,-3.70207 -8.3125,-8.28125 0,-4.57918 3.73332,-8.28125 8.3125,-8.28125 z m 28.34375,0 c 4.57918,0 8.28125,3.70207 8.28125,8.28125 0,4.57918 -3.70207,8.28125 -8.28125,8.28125 -4.57918,0 -8.3125,-3.70207 -8.3125,-8.28125 0,-4.57918 3.73332,-8.28125 8.3125,-8.28125 z m -85.0625,28.34375 c 4.57918,0 8.3125,3.70207 8.3125,8.28125 0,4.57918 -3.73332,8.3125 -8.3125,8.3125 -4.57918,0 -8.28125,-3.73332 -8.28125,-8.3125 0,-4.57918 3.70207,-8.28125 8.28125,-8.28125 z m 28.34375,0 c 4.57918,0 8.3125,3.70207 8.3125,8.28125 0,4.57918 -3.73332,8.3125 -8.3125,8.3125 -4.57918,0 -8.28125,-3.73332 -8.28125,-8.3125 0,-4.57918 3.70207,-8.28125 8.28125,-8.28125 z m 28.375,0 c 4.57918,0 8.28125,3.70207 8.28125,8.28125 0,4.57918 -3.70207,8.3125 -8.28125,8.3125 -4.57918,0 -8.3125,-3.73332 -8.3125,-8.3125 0,-4.57918 3.73332,-8.28125 8.3125,-8.28125 z m 28.34375,0 c 4.57918,0 8.28125,3.70207 8.28125,8.28125 0,4.57918 -3.70207,8.3125 -8.28125,8.3125 -4.57918,0 -8.3125,-3.73332 -8.3125,-8.3125 0,-4.57918 3.73332,-8.28125 8.3125,-8.28125 z m -85.0625,28.34375 c 4.57918,0 8.3125,3.70207 8.3125,8.28125 0,4.57918 -3.73332,8.3125 -8.3125,8.3125 -4.57918,0 -8.28125,-3.73332 -8.28125,-8.3125 0,-4.57918 3.70207,-8.28125 8.28125,-8.28125 z m 28.34375,0 c 4.57918,0 8.3125,3.70207 8.3125,8.28125 0,4.57918 -3.73332,8.3125 -8.3125,8.3125 -4.57918,0 -8.28125,-3.73332 -8.28125,-8.3125 0,-4.57918 3.70207,-8.28125 8.28125,-8.28125 z m 28.375,0 c 4.57918,0 8.28125,3.70207 8.28125,8.28125 0,4.57918 -3.70207,8.3125 -8.28125,8.3125 -4.57918,0 -8.3125,-3.73332 -8.3125,-8.3125 0,-4.57918 3.73332,-8.28125 8.3125,-8.28125 z m 28.34375,0 c 4.57918,0 8.28125,3.70207 8.28125,8.28125 0,4.57918 -3.70207,8.3125 -8.28125,8.3125 -4.57918,0 -8.3125,-3.73332 -8.3125,-8.3125 0,-4.57918 3.73332,-8.28125 8.3125,-8.28125 z M 194.8125,467.125 c 4.57918,0 8.3125,3.73332 8.3125,8.3125 0,4.57918 -3.73332,8.28125 -8.3125,8.28125 -4.57918,0 -8.28125,-3.70207 -8.28125,-8.28125 0,-4.57918 3.70207,-8.3125 8.28125,-8.3125 z m 28.34375,0 c 4.57918,0 8.3125,3.73332 8.3125,8.3125 0,4.57918 -3.73332,8.28125 -8.3125,8.28125 -4.57918,0 -8.28125,-3.70207 -8.28125,-8.28125 0,-4.57918 3.70207,-8.3125 8.28125,-8.3125 z m 28.375,0 c 4.57918,0 8.28125,3.73332 8.28125,8.3125 0,4.57918 -3.70207,8.28125 -8.28125,8.28125 -4.57918,0 -8.3125,-3.70207 -8.3125,-8.28125 0,-4.57918 3.73332,-8.3125 8.3125,-8.3125 z m 28.34375,0 c 4.57918,0 8.28125,3.73332 8.28125,8.3125 0,4.57918 -3.70207,8.28125 -8.28125,8.28125 -4.57918,0 -8.3125,-3.70207 -8.3125,-8.28125 0,-4.57918 3.73332,-8.3125 8.3125,-8.3125 z"
       style="opacity:0.57579878;color:#000000;fill:#000000;fill-opacity:0.20392157;fill-rule:nonzero;stroke:none;stroke-width:0.77952754;marker:none;visibility:visible;display:inline;overflow:visible;enable-background:accumulate"
       inkscape:connector-curvature="0" />
    <path
       inkscape:connector-curvature="0"
       id="rect4112"
       d="m 178.65625,263.25 0,10.625 10.625,0 0,10.625 -10.625,0 0,48.46875 10.625,0 0,10.625 -10.625,0 0,10.625 0,10.625 3.9375,0 0,-10.625 10.5625,0 11.6875,0 0,10.625 4.3125,0 0,-10.625 24.03125,0 0,10.625 4.3125,0 0,-10.625 24.03125,0 0,10.625 4.3125,0 0,-10.625 17.65625,0 4.59375,0 0,10.625 3.9375,0 0,-10.625 0,-10.625 -10.625,0 0,-10.625 10.625,0 0,-48.46875 -10.625,0 0,-10.625 10.625,0 0,-10.625 -29.625,0 0,14.5 c 9.43027,7.79897 15.4375,19.58796 15.4375,32.78125 0,13.19329 -6.00723,24.98228 -15.4375,32.78125 l 0,1.78125 -1.78125,0 0,-1.78125 -50.59375,0 0,1.78125 -1.78125,0 0,-1.78125 c -8.14295,-6.73433 -13.71913,-16.44915 -15.09375,-27.46875 l 0,-10.625 c 1.37462,-11.0196 6.9508,-20.73442 15.09375,-27.46875 l 0,-14.5 -29.59375,0 z"
       style="opacity:0.57579878;color:#000000;fill:#000000;fill-opacity:0.20392157;fill-rule:nonzero;stroke:none;stroke-width:0.77952754;marker:none;visibility:visible;display:inline;overflow:visible;enable-background:accumulate" />
    <g
       id="g4887"
       transform="translate(236.776,308.7465)"
       inkscape:label="Gear8">
      <path
         id="path4889"
         d="m 10.924,-2.343 2.763,-0.592 0.924,0.029 3.983,1.899 0,2.014 -3.983,1.899 -0.924,0.029 -2.763,-0.592 -1.543,3.725 2.373,1.535 0.632,0.673 1.474,4.16 -1.424,1.424 -4.16,-1.474 -0.673,-0.632 -1.535,-2.373 -3.725,1.543 0.592,2.763 -0.029,0.924 -1.899,3.983 -2.014,0 -1.899,-3.983 -0.029,-0.924 0.592,-2.763 -3.725,-1.543 -1.535,2.373 -0.673,0.632 -4.16,1.474 -1.424,-1.424 1.474,-4.16 0.632,-0.673 2.373,-1.535 -1.543,-3.725 -2.763,0.592 -0.924,-0.029 -3.983,-1.899 0,-2.014 3.983,-1.899 0.924,-0.029 2.763,0.592 1.543,-3.725 -2.373,-1.535 -0.632,-0.673 -1.474,-4.16 1.424,-1.424 4.16,1.474 0.673,0.632 1.535,2.373 3.725,-1.543 -0.592,-2.763 0.029,-0.924 1.899,-3.983 2.014,0 1.899,3.983 0.029,0.924 -0.592,2.763 3.725,1.543 1.535,-2.373 0.673,-0.632 4.16,-1.474 1.424,1.424 -1.474,4.16 -0.632,0.673 -2.373,1.535 z"
         style="fill:none;stroke:#000000"
         inkscape:connector-curvature="0" />
    </g>
    <g
       inkscape:label="Gear16"
       transform="translate(236.776,308.7465)"
       id="g5055">
      <path
         style="fill:none;stroke:#000000"
         d="m 25.903,-2.942 1.915,-0.217 1.832,0.239 3.845,1.681 0,2.478 -3.845,1.681 -1.832,0.239 -1.915,-0.217 -0.846,4.253 1.853,0.532 1.601,0.922 2.909,3.024 -0.949,2.29 -4.195,0.082 -1.784,-0.481 -1.686,-0.934 -2.41,3.606 1.508,1.201 1.127,1.464 1.53,3.907 -1.753,1.753 -3.907,-1.53 -1.464,-1.127 -1.201,-1.508 -3.606,2.41 0.934,1.686 0.481,1.784 -0.082,4.195 -2.29,0.949 L 8.649,28.511 7.727,26.91 7.195,25.057 2.942,25.903 3.159,27.818 2.92,29.65 l -1.681,3.845 -2.478,0 -1.681,-3.845 -0.239,-1.832 0.217,-1.915 -4.253,-0.846 -0.532,1.853 -0.922,1.601 -3.024,2.909 -2.29,-0.949 -0.082,-4.195 0.481,-1.784 0.934,-1.686 -3.606,-2.41 -1.201,1.508 -1.464,1.127 -3.907,1.53 -1.753,-1.753 1.53,-3.907 1.127,-1.464 1.508,-1.201 -2.41,-3.606 -1.686,0.934 -1.784,0.481 -4.195,-0.082 -0.949,-2.29 2.909,-3.024 1.601,-0.922 1.853,-0.532 -0.846,-4.253 -1.915,0.217 -1.832,-0.239 -3.845,-1.681 0,-2.478 3.845,-1.681 1.832,-0.239 1.915,0.217 0.846,-4.253 -1.853,-0.532 -1.601,-0.922 -2.909,-3.024 0.949,-2.29 4.195,-0.082 1.784,0.481 1.686,0.934 2.41,-3.606 -1.508,-1.201 -1.127,-1.464 -1.53,-3.907 1.753,-1.753 3.907,1.53 1.464,1.127 1.201,1.508 3.606,-2.41 -0.934,-1.686 -0.481,-1.784 0.082,-4.195 2.29,-0.949 3.024,2.909 0.922,1.601 0.532,1.853 4.253,-0.846 -0.217,-1.915 0.239,-1.832 1.681,-3.845 2.478,0 1.681,3.845 0.239,1.832 -0.217,1.915 4.253,0.846 0.532,-1.853 0.922,-1.601 3.024,-2.909 2.29,0.949 0.082,4.195 -0.481,1.784 -0.934,1.686 3.606,2.41 1.201,-1.508 1.464,-1.127 3.907,-1.53 1.753,1.753 -1.53,3.907 -1.127,1.464 -1.508,1.201 2.41,3.606 1.686,-0.934 1.784,-0.481 4.195,0.082 0.949,2.29 -2.909,3.024 -1.601,0.922 -1.853,0.532 z"
         id="path5057"
         inkscape:connector-curvature="0" />
    </g>
    <path
       style="opacity:0.24556215;color:#000000;fill:#000000;fill-opacity:1;fill-rule:nonzero;stroke:none;stroke-width:0.99921262;marker:none;visibility:visible;display:inline;overflow:visible;enable-background:accumulate"
       d="m 236.776,305.54716 c -1.76122,0 -3.1875,1.42628 -3.1875,3.1875 0,0.51706 0.12532,1.00561 0.34375,1.4375 l 5.65625,0 c 0.22129,-0.43411 0.375,-0.91683 0.375,-1.4375 0,-1.76122 -1.42628,-3.1875 -3.1875,-3.1875 z"
       id="path3961"
       inkscape:connector-curvature="0"
       inkscape:transform-center-y="-0.88684295" />
    <g
       id="g5227"
       transform="translate(236.776,308.7465)"
       inkscape:label="Gear24">
      <path
         id="path5229"
         d="m 40.834,-3.288 1.026,-0.083 2.735,0.448 3.802,1.591 0,2.664 -3.802,1.591 -2.735,0.448 -1.026,-0.083 -0.54,4.104 1.012,0.186 2.526,1.141 3.26,2.52 -0.689,2.574 -4.084,0.552 -2.758,-0.275 -0.969,-0.345 -1.584,3.824 0.929,0.442 2.145,1.755 2.497,3.279 -1.332,2.307 -4.088,-0.523 -2.593,-0.98 -0.847,-0.584 -2.52,3.284 0.784,0.667 1.617,2.251 1.564,3.813 -1.884,1.884 -3.813,-1.564 -2.251,-1.617 -0.667,-0.784 -3.284,2.52 0.584,0.847 0.98,2.593 0.523,4.088 -2.307,1.332 -3.279,-2.497 -1.755,-2.145 -0.442,-0.929 -3.824,1.584 0.345,0.969 0.275,2.758 -0.552,4.084 -2.574,0.689 -2.52,-3.26 -1.141,-2.526 -0.186,-1.012 -4.104,0.54 0.083,1.026 -0.448,2.735 -1.591,3.802 -2.664,0 -1.591,-3.802 -0.448,-2.735 0.083,-1.026 -4.104,-0.54 -0.186,1.012 -1.141,2.526 -2.52,3.26 -2.574,-0.689 -0.552,-4.084 0.275,-2.758 0.345,-0.969 -3.824,-1.584 -0.442,0.929 -1.755,2.145 -3.279,2.497 -2.307,-1.332 0.523,-4.088 0.98,-2.593 0.584,-0.847 -3.284,-2.52 -0.667,0.784 -2.251,1.617 -3.813,1.564 -1.884,-1.884 1.564,-3.813 1.617,-2.251 0.784,-0.667 -2.52,-3.284 -0.847,0.584 -2.593,0.98 -4.088,0.523 -1.332,-2.307 2.497,-3.279 2.145,-1.755 0.929,-0.442 -1.584,-3.824 -0.969,0.345 -2.758,0.275 -4.084,-0.552 -0.689,-2.574 3.26,-2.52 2.526,-1.141 1.012,-0.186 -0.54,-4.104 -1.026,0.083 -2.735,-0.448 -3.802,-1.591 0,-2.664 3.802,-1.591 2.735,-0.448 1.026,0.083 0.54,-4.104 -1.012,-0.186 -2.526,-1.141 -3.26,-2.52 0.689,-2.574 4.084,-0.552 2.758,0.275 0.969,0.345 1.584,-3.824 -0.929,-0.442 -2.145,-1.755 -2.497,-3.279 1.332,-2.307 4.088,0.523 2.593,0.98 0.847,0.584 2.52,-3.284 -0.784,-0.667 -1.617,-2.251 -1.564,-3.813 1.884,-1.884 3.813,1.564 2.251,1.617 0.667,0.784 3.284,-2.52 -0.584,-0.847 -0.98,-2.593 -0.523,-4.088 2.307,-1.332 3.279,2.497 1.755,2.145 0.442,0.929 3.824,-1.584 -0.345,-0.969 -0.275,-2.758 0.552,-4.084 2.574,-0.689 2.52,3.26 1.141,2.526 0.186,1.012 4.104,-0.54 -0.083,-1.026 0.448,-2.735 1.591,-3.802 2.664,0 1.591,3.802 0.448,2.735 -0.083,1.026 4.104,0.54 0.186,-1.012 1.141,-2.526 2.52,-3.26 2.574,0.689 0.552,4.084 -0.275,2.758 -0.345,0.969 3.824,1.584 0.442,-0.929 1.755,-2.145 3.279,-2.497 2.307,1.332 -0.523,4.088 -0.98,2.593 -0.584,0.847 3.284,2.52 0.667,-0.784 2.251,-1.617 3.813,-1.564 1.884,1.884 -1.564,3.813 -1.617,2.251 -0.784,0.667 2.52,3.284 0.847,-0.584 2.593,-0.98 4.088,-0.523 1.332,2.307 -2.497,3.279 -2.145,1.755 -0.929,0.442 1.584,3.824 0.969,-0.345 2.758,-0.275 4.084,0.552 0.689,2.574 -3.26,2.52 -2.526,1.141 -1.012,0.186 z"
         style="fill:none;stroke:#000000"
         inkscape:connector-curvature="0" />
    </g>
  </g>
  <g
     id="layer1"
     inkscape:groupmode="layer"
     inkscape:label="Ebene 1"
     transform="translate(-170.03125,-682.61579)">
    <path
       style="opacity:0.57579878;color:#000000;fill:#000000;fill-opacity:0.20392157;fill-rule:nonzero;stroke:none;stroke-width:0.77952754;marker:none;visibility:visible;display:inline;overflow:visible;enable-background:accumulate"
       d="m 236.25,101.59375 0,10.625 -10.625,0 0,15.5625 -10.625,0 0,4.3125 10.625,0 0,12.03125 0,12.03125 -10.625,0 0,4.3125 10.625,0 0,15.5625 10.625,0 0,10.625 10.625,0 0,-10.625 48.46875,0 0,10.625 10.625,0 0,-10.625 10.625,0 0,-31.90625 0,-31.90625 -10.625,0 0,-10.625 -10.625,0 0,10.625 -48.46875,0 0,-10.625 -10.625,0 z m 33.0625,19.9375 c 4.69659,0 8.53125,3.8034 8.53125,8.5 0,4.69659 -3.83466,8.53125 -8.53125,8.53125 -4.69659,0 -8.5,-3.83466 -8.5,-8.53125 0,-4.6966 3.80341,-8.5 8.5,-8.5 z m 33.875,0 c 4.69659,0 8.5,3.8034 8.5,8.5 0,4.69659 -3.80341,8.53125 -8.5,8.53125 -4.69659,0 -8.5,-3.83466 -8.5,-8.53125 0,-4.6966 3.80341,-8.5 8.5,-8.5 z m -33.875,28.15625 c 4.69659,0 8.53125,3.83466 8.53125,8.53125 0,4.6966 -3.83466,8.5 -8.53125,8.5 -4.69659,0 -8.5,-3.8034 -8.5,-8.5 0,-4.69659 3.80341,-8.53125 8.5,-8.53125 z m 33.875,0 c 4.69659,0 8.5,3.83466 8.5,8.53125 0,4.6966 -3.80341,8.5 -8.5,8.5 -4.69659,0 -8.5,-3.8034 -8.5,-8.5 0,-4.69659 3.80341,-8.53125 8.5,-8.53125 z"
       transform="translate(170.03125,682.61579)"
       id="path5334"
       inkscape:connector-curvature="0" />
    <path
       style="opacity:0.57579878;color:#000000;fill:#000000;fill-opacity:0.20392157;fill-rule:nonzero;stroke:none;stroke-width:0.77952754;marker:none;visibility:visible;display:inline;overflow:visible;enable-background:accumulate"
       d="m 3.2084646,101.59375 0,10.625 -3.2084646,0 0,16.29173 10.65625,0 0,2.85236 -10.65625,0 0,12.76216 0,12.76048 10.65625,0 0,2.85236 -10.65625,0 0,16.29341 3.2084646,0 0,10.625 23.7401574,0 0,-10.625 2.822343,0 0,10.625 25.521407,0 0,-10.625 2.822343,0 0,10.625 25.521407,0 0,-10.625 2.822343,0 0,10.625 23.740155,0 0,-10.625 3.20763,0 0,-16.29341 -10.625,0 0,-2.85236 10.625,0 0,-12.76048 0,-12.76216 -10.625,0 0,-2.85236 10.625,0 0,-16.29173 -3.20763,0 0,-10.625 -23.740155,0 0,10.625 -2.822343,0 0,-10.625 -25.521407,0 0,10.625 -2.822343,0 0,-10.625 -25.521407,0 0,10.625 -2.822343,0 0,-10.625 z m 10.9790354,5.875 c 4.57918,0 8.3125,3.70207 8.3125,8.28125 0,4.57918 -3.73332,8.28125 -8.3125,8.28125 -4.57918,0 -8.28125,-3.70207 -8.28125,-8.28125 0,-4.57918 3.70207,-8.28125 8.28125,-8.28125 z m 28.34375,0 c 4.57918,0 8.3125,3.70207 8.3125,8.28125 0,4.57918 -3.73332,8.28125 -8.3125,8.28125 -4.57918,0 -8.28125,-3.70207 -8.28125,-8.28125 0,-4.57918 3.70207,-8.28125 8.28125,-8.28125 z m 28.375,0 c 4.57918,0 8.28125,3.70207 8.28125,8.28125 0,4.57918 -3.70207,8.28125 -8.28125,8.28125 -4.57918,0 -8.3125,-3.70207 -8.3125,-8.28125 0,-4.57918 3.73332,-8.28125 8.3125,-8.28125 z m 28.34375,0 c 4.57918,0 8.28125,3.70207 8.28125,8.28125 0,4.57918 -3.70207,8.28125 -8.28125,8.28125 -4.57918,0 -8.3125,-3.70207 -8.3125,-8.28125 0,-4.57918 3.73332,-8.28125 8.3125,-8.28125 z M 14.1875,135.8125 c 4.57918,0 8.3125,3.70207 8.3125,8.28125 0,0.0106 4e-5,0.0207 0,0.0312 4e-5,0.0105 0,0.0206 0,0.0312 0,4.57918 -3.73332,8.28125 -8.3125,8.28125 -4.57918,0 -8.28125,-3.70207 -8.28125,-8.28125 0,-0.0105 -4e-5,-0.0206 0,-0.0312 -3.95e-5,-0.0106 0,-0.0207 0,-0.0312 0,-4.57918 3.70207,-8.28125 8.28125,-8.28125 z m 28.34375,0 c 4.57918,0 8.3125,3.70207 8.3125,8.28125 0,0.0106 4e-5,0.0207 0,0.0312 4e-5,0.0105 0,0.0206 0,0.0312 0,4.57918 -3.73332,8.28125 -8.3125,8.28125 -4.57918,0 -8.28125,-3.70207 -8.28125,-8.28125 0,-0.0105 -4e-5,-0.0206 0,-0.0312 -4e-5,-0.0106 0,-0.0207 0,-0.0312 0,-4.57918 3.70207,-8.28125 8.28125,-8.28125 z m 28.375,0 c 4.57918,0 8.28125,3.70207 8.28125,8.28125 0,0.0106 4e-5,0.0207 0,0.0312 4e-5,0.0105 0,0.0206 0,0.0312 0,4.57918 -3.70207,8.28125 -8.28125,8.28125 -4.57918,0 -8.3125,-3.70207 -8.3125,-8.28125 0,-0.0105 -4e-5,-0.0206 0,-0.0312 -4e-5,-0.0106 0,-0.0207 0,-0.0312 0,-4.57918 3.73332,-8.28125 8.3125,-8.28125 z m 28.34375,0 c 4.57918,0 8.28125,3.70207 8.28125,8.28125 0,0.0106 4e-5,0.0207 0,0.0312 4e-5,0.0105 0,0.0206 0,0.0312 0,4.57918 -3.70207,8.28125 -8.28125,8.28125 -4.57918,0 -8.3125,-3.70207 -8.3125,-8.28125 0,-0.0105 -4e-5,-0.0206 0,-0.0312 -4e-5,-0.0106 0,-0.0207 0,-0.0312 0,-4.57918 3.73332,-8.28125 8.3125,-8.28125 z m -85.0625,28.40625 c 4.57918,0 8.3125,3.70207 8.3125,8.28125 0,4.57918 -3.73332,8.28125 -8.3125,8.28125 -4.57918,0 -8.28125,-3.70207 -8.28125,-8.28125 0,-4.57918 3.70207,-8.28125 8.28125,-8.28125 z m 28.34375,0 c 4.57918,0 8.3125,3.70207 8.3125,8.28125 0,4.57918 -3.73332,8.28125 -8.3125,8.28125 -4.57918,0 -8.28125,-3.70207 -8.28125,-8.28125 0,-4.57918 3.70207,-8.28125 8.28125,-8.28125 z m 28.375,0 c 4.57918,0 8.28125,3.70207 8.28125,8.28125 0,4.57918 -3.70207,8.28125 -8.28125,8.28125 -4.57918,0 -8.3125,-3.70207 -8.3125,-8.28125 0,-4.57918 3.73332,-8.28125 8.3125,-8.28125 z m 28.34375,0 c 4.57918,0 8.28125,3.70207 8.28125,8.28125 0,4.57918 -3.70207,8.28125 -8.28125,8.28125 -4.57918,0 -8.3125,-3.70207 -8.3125,-8.28125 0,-4.57918 3.73332,-8.28125 8.3125,-8.28125 z"
       transform="translate(170.03125,682.61579)"
       id="path5336"
       inkscape:connector-curvature="0"
       sodipodi:nodetypes="cccccccccccccccccccccccccccccccccccccccccccccccccccccccsssssssssssssssssssssscssscsssscssscsssscssscsssscssscssssssssssssssssssssss" />
    <path
       style="opacity:0.57579878;color:#000000;fill:#000000;fill-opacity:0.20392157;fill-rule:nonzero;stroke:none;stroke-width:0.77952754;marker:none;visibility:visible;display:inline;overflow:visible;enable-background:accumulate"
       d="m 170.03125,682.625 0,10.625 10.625,0 0,10.625 -10.625,0 0,48.46875 10.625,0 0,10.625 -10.625,0 0,10.625 0,10.625 3.9375,0 0,-10.625 10.5625,0 11.6875,0 0,10.625 4.3125,0 0,-10.625 24.03125,0 0,10.625 4.3125,0 0,-10.625 24.03125,0 0,10.625 4.3125,0 0,-10.625 17.65625,0 4.59375,0 0,10.625 3.9375,0 0,-10.625 0,-10.625 -10.625,0 0,-10.625 10.625,0 0,-48.46875 -10.625,0 0,-10.625 10.625,0 0,-10.625 -29.625,0 0,14.5 c 9.43027,7.79897 15.4375,19.58796 15.4375,32.78125 0,13.19329 -6.00723,24.98228 -15.4375,32.78125 l 0,1.78125 -1.78125,0 0,-1.78125 -50.59375,0 0,1.78125 -1.78125,0 0,-1.78125 c -8.14295,-6.73433 -13.71913,-16.44915 -15.09375,-27.46875 l 0,-10.625 c 1.37462,-11.0196 6.9508,-20.73442 15.09375,-27.46875 l 0,-14.5 -29.59375,0 z"
       id="path5338"
       inkscape:connector-curvature="0" />
    <g
       id="g5405"
       transform="translate(0,-2)">
      <g
         id="g5340"
         transform="translate(426.85825,724.51166)"
         inkscape:label="Gear8">
        <path
           id="path5342"
           d="m 10.924,-2.343 2.763,-0.592 0.924,0.029 3.983,1.899 0,2.014 -3.983,1.899 -0.924,0.029 -2.763,-0.592 -1.543,3.725 2.373,1.535 0.632,0.673 1.474,4.16 -1.424,1.424 -4.16,-1.474 -0.673,-0.632 -1.535,-2.373 -3.725,1.543 0.592,2.763 -0.029,0.924 -1.899,3.983 -2.014,0 -1.899,-3.983 -0.029,-0.924 0.592,-2.763 -3.725,-1.543 -1.535,2.373 -0.673,0.632 -4.16,1.474 -1.424,-1.424 1.474,-4.16 0.632,-0.673 2.373,-1.535 -1.543,-3.725 -2.763,0.592 -0.924,-0.029 -3.983,-1.899 0,-2.014 3.983,-1.899 0.924,-0.029 2.763,0.592 1.543,-3.725 -2.373,-1.535 -0.632,-0.673 -1.474,-4.16 1.424,-1.424 4.16,1.474 0.673,0.632 1.535,2.373 3.725,-1.543 -0.592,-2.763 0.029,-0.924 1.899,-3.983 2.014,0 1.899,3.983 0.029,0.924 -0.592,2.763 3.725,1.543 1.535,-2.373 0.673,-0.632 4.16,-1.474 1.424,1.424 -1.474,4.16 -0.632,0.673 -2.373,1.535 z"
           style="fill:none;stroke:#000000"
           inkscape:connector-curvature="0" />
      </g>
      <path
         style="opacity:0.24556215;color:#000000;fill:#000000;fill-opacity:1;fill-rule:nonzero;stroke:none;stroke-width:0.99921262;marker:none;visibility:visible;display:inline;overflow:visible;enable-background:accumulate"
         d="m 426.85825,721.31232 c -1.76122,0 -3.1875,1.42628 -3.1875,3.1875 0,0.51706 0.12532,1.00561 0.34375,1.4375 l 5.65625,0 c 0.22129,-0.43411 0.375,-0.91683 0.375,-1.4375 0,-1.76122 -1.42628,-3.1875 -3.1875,-3.1875 z"
         id="path5352"
         inkscape:connector-curvature="0"
         inkscape:transform-center-y="-0.88684295" />
    </g>
    <path
       inkscape:connector-curvature="0"
       id="path5365"
       d="m 283.40625,682.625 0,10.625 10.625,0 0,10.625 -10.625,0 0,48.46875 10.625,0 0,10.625 -10.625,0 0,10.625 0,10.625 3.9375,0 0,-10.625 10.5625,0 11.6875,0 0,10.625 4.3125,0 0,-10.625 24.03125,0 0,10.625 4.3125,0 0,-10.625 24.03125,0 0,10.625 4.3125,0 0,-10.625 17.65625,0 4.59375,0 0,10.625 3.9375,0 0,-10.625 0,-10.625 -10.625,0 0,-10.625 10.625,0 0,-48.46875 -10.625,0 0,-10.625 10.625,0 0,-10.625 -29.625,0 0,14.5 c 9.43027,7.79897 15.4375,19.58796 15.4375,32.78125 0,13.19329 -6.00723,24.98228 -15.4375,32.78125 l 0,1.78125 -1.78125,0 0,-1.78125 -50.59375,0 0,1.78125 -1.78125,0 0,-1.78125 c -8.14295,-6.73433 -13.71913,-16.44915 -15.09375,-27.46875 l 0,-10.625 C 299.28087,713.57415 304.85705,703.85933 313,697.125 l 0,-14.5 -29.59375,0 z"
       style="opacity:0.57579878;color:#000000;fill:#000000;fill-opacity:0.20392157;fill-rule:nonzero;stroke:none;stroke-width:0.77952754;marker:none;visibility:visible;display:inline;overflow:visible;enable-background:accumulate" />
    <path
       style="opacity:0.57579878;color:#000000;fill:#000000;fill-opacity:0.20392157;fill-rule:nonzero;stroke:none;stroke-width:0.77952754;marker:none;visibility:visible;display:inline;overflow:visible;enable-background:accumulate"
       d="m 134.65625,101.59375 0,10.625 -10.625,0 0,15.5625 -10.625,0 0,4.3125 10.625,0 0,12.03125 0,12.03125 -10.625,0 0,4.3125 10.625,0 0,15.5625 10.625,0 0,10.625 10.625,0 0,-10.625 48.46875,0 0,10.625 10.625,0 0,-10.625 10.625,0 0,-31.90625 0,-31.90625 -10.625,0 0,-10.625 -10.625,0 0,10.625 -48.46875,0 0,-10.625 -10.625,0 z m 33.0625,19.9375 c 4.69659,0 8.53125,3.8034 8.53125,8.5 0,4.69659 -3.83466,8.53125 -8.53125,8.53125 -4.69659,0 -8.5,-3.83466 -8.5,-8.53125 0,-4.6966 3.80341,-8.5 8.5,-8.5 z m 33.875,0 c 4.69659,0 8.5,3.8034 8.5,8.5 0,4.69659 -3.80341,8.53125 -8.5,8.53125 -4.69659,0 -8.5,-3.83466 -8.5,-8.53125 0,-4.6966 3.80341,-8.5 8.5,-8.5 z m -33.875,28.15625 c 4.69659,0 8.53125,3.83466 8.53125,8.53125 0,4.6966 -3.83466,8.5 -8.53125,8.5 -4.69659,0 -8.5,-3.8034 -8.5,-8.5 0,-4.69659 3.80341,-8.53125 8.5,-8.53125 z m 33.875,0 c 4.69659,0 8.5,3.83466 8.5,8.53125 0,4.6966 -3.80341,8.5 -8.5,8.5 -4.69659,0 -8.5,-3.8034 -8.5,-8.5 0,-4.69659 3.80341,-8.53125 8.5,-8.53125 z"
       transform="translate(170.03125,682.61579)"
       id="path5367"
       inkscape:connector-curvature="0" />
    <g
       id="g5410">
      <g
         inkscape:label="Gear16"
         transform="translate(340.09375,721.686)"
         id="g5344">
        <path
           style="fill:none;stroke:#000000"
           d="m 25.903,-2.942 1.915,-0.217 1.832,0.239 3.845,1.681 0,2.478 -3.845,1.681 -1.832,0.239 -1.915,-0.217 -0.846,4.253 1.853,0.532 1.601,0.922 2.909,3.024 -0.949,2.29 -4.195,0.082 -1.784,-0.481 -1.686,-0.934 -2.41,3.606 1.508,1.201 1.127,1.464 1.53,3.907 -1.753,1.753 -3.907,-1.53 -1.464,-1.127 -1.201,-1.508 -3.606,2.41 0.934,1.686 0.481,1.784 -0.082,4.195 -2.29,0.949 L 8.649,28.511 7.727,26.91 7.195,25.057 2.942,25.903 3.159,27.818 2.92,29.65 l -1.681,3.845 -2.478,0 -1.681,-3.845 -0.239,-1.832 0.217,-1.915 -4.253,-0.846 -0.532,1.853 -0.922,1.601 -3.024,2.909 -2.29,-0.949 -0.082,-4.195 0.481,-1.784 0.934,-1.686 -3.606,-2.41 -1.201,1.508 -1.464,1.127 -3.907,1.53 -1.753,-1.753 1.53,-3.907 1.127,-1.464 1.508,-1.201 -2.41,-3.606 -1.686,0.934 -1.784,0.481 -4.195,-0.082 -0.949,-2.29 2.909,-3.024 1.601,-0.922 1.853,-0.532 -0.846,-4.253 -1.915,0.217 -1.832,-0.239 -3.845,-1.681 0,-2.478 3.845,-1.681 1.832,-0.239 1.915,0.217 0.846,-4.253 -1.853,-0.532 -1.601,-0.922 -2.909,-3.024 0.949,-2.29 4.195,-0.082 1.784,0.481 1.686,0.934 2.41,-3.606 -1.508,-1.201 -1.127,-1.464 -1.53,-3.907 1.753,-1.753 3.907,1.53 1.464,1.127 1.201,1.508 3.606,-2.41 -0.934,-1.686 -0.481,-1.784 0.082,-4.195 2.29,-0.949 3.024,2.909 0.922,1.601 0.532,1.853 4.253,-0.846 -0.217,-1.915 0.239,-1.832 1.681,-3.845 2.478,0 1.681,3.845 0.239,1.832 -0.217,1.915 4.253,0.846 0.532,-1.853 0.922,-1.601 3.024,-2.909 2.29,0.949 0.082,4.195 -0.481,1.784 -0.934,1.686 3.606,2.41 1.201,-1.508 1.464,-1.127 3.907,-1.53 1.753,1.753 -1.53,3.907 -1.127,1.464 -1.508,1.201 2.41,3.606 1.686,-0.934 1.784,-0.481 4.195,0.082 0.949,2.29 -2.909,3.024 -1.601,0.922 -1.853,0.532 z"
           id="path5346"
           inkscape:connector-curvature="0" />
      </g>
      <path
         inkscape:transform-center-y="-0.88684295"
         inkscape:connector-curvature="0"
         id="path5376"
         d="m 340.09375,718.48666 c -1.76122,0 -3.1875,1.42628 -3.1875,3.1875 0,0.51706 0.12532,1.00561 0.34375,1.4375 l 5.65625,0 c 0.22129,-0.43411 0.375,-0.91683 0.375,-1.4375 0,-1.76122 -1.42628,-3.1875 -3.1875,-3.1875 z"
         style="opacity:0.24556215;color:#000000;fill:#000000;fill-opacity:1;fill-rule:nonzero;stroke:none;stroke-width:0.99921262;marker:none;visibility:visible;display:inline;overflow:visible;enable-background:accumulate" />
    </g>
    <g
       id="g5371"
       transform="matrix(-1,0,0,-1,897.124,1469.3378)">
      <g
         id="g5348"
         transform="translate(451.562,737.81576)"
         inkscape:label="Gear24">
        <path
           id="path5350"
           d="m 40.834,-3.288 1.026,-0.083 2.735,0.448 3.802,1.591 0,2.664 -3.802,1.591 -2.735,0.448 -1.026,-0.083 -0.54,4.104 1.012,0.186 2.526,1.141 3.26,2.52 -0.689,2.574 -4.084,0.552 -2.758,-0.275 -0.969,-0.345 -1.584,3.824 0.929,0.442 2.145,1.755 2.497,3.279 -1.332,2.307 -4.088,-0.523 -2.593,-0.98 -0.847,-0.584 -2.52,3.284 0.784,0.667 1.617,2.251 1.564,3.813 -1.884,1.884 -3.813,-1.564 -2.251,-1.617 -0.667,-0.784 -3.284,2.52 0.584,0.847 0.98,2.593 0.523,4.088 -2.307,1.332 -3.279,-2.497 -1.755,-2.145 -0.442,-0.929 -3.824,1.584 0.345,0.969 0.275,2.758 -0.552,4.084 -2.574,0.689 -2.52,-3.26 -1.141,-2.526 -0.186,-1.012 -4.104,0.54 0.083,1.026 -0.448,2.735 -1.591,3.802 -2.664,0 -1.591,-3.802 -0.448,-2.735 0.083,-1.026 -4.104,-0.54 -0.186,1.012 -1.141,2.526 -2.52,3.26 -2.574,-0.689 -0.552,-4.084 0.275,-2.758 0.345,-0.969 -3.824,-1.584 -0.442,0.929 -1.755,2.145 -3.279,2.497 -2.307,-1.332 0.523,-4.088 0.98,-2.593 0.584,-0.847 -3.284,-2.52 -0.667,0.784 -2.251,1.617 -3.813,1.564 -1.884,-1.884 1.564,-3.813 1.617,-2.251 0.784,-0.667 -2.52,-3.284 -0.847,0.584 -2.593,0.98 -4.088,0.523 -1.332,-2.307 2.497,-3.279 2.145,-1.755 0.929,-0.442 -1.584,-3.824 -0.969,0.345 -2.758,0.275 -4.084,-0.552 -0.689,-2.574 3.26,-2.52 2.526,-1.141 1.012,-0.186 -0.54,-4.104 -1.026,0.083 -2.735,-0.448 -3.802,-1.591 0,-2.664 3.802,-1.591 2.735,-0.448 1.026,0.083 0.54,-4.104 -1.012,-0.186 -2.526,-1.141 -3.26,-2.52 0.689,-2.574 4.084,-0.552 2.758,0.275 0.969,0.345 1.584,-3.824 -0.929,-0.442 -2.145,-1.755 -2.497,-3.279 1.332,-2.307 4.088,0.523 2.593,0.98 0.847,0.584 2.52,-3.284 -0.784,-0.667 -1.617,-2.251 -1.564,-3.813 1.884,-1.884 3.813,1.564 2.251,1.617 0.667,0.784 3.284,-2.52 -0.584,-0.847 -0.98,-2.593 -0.523,-4.088 2.307,-1.332 3.279,2.497 1.755,2.145 0.442,0.929 3.824,-1.584 -0.345,-0.969 -0.275,-2.758 0.552,-4.084 2.574,-0.689 2.52,3.26 1.141,2.526 0.186,1.012 4.104,-0.54 -0.083,-1.026 0.448,-2.735 1.591,-3.802 2.664,0 1.591,3.802 0.448,2.735 -0.083,1.026 4.104,0.54 0.186,-1.012 1.141,-2.526 2.52,-3.26 2.574,0.689 0.552,4.084 -0.275,2.758 -0.345,0.969 3.824,1.584 0.442,-0.929 1.755,-2.145 3.279,-2.497 2.307,1.332 -0.523,4.088 -0.98,2.593 -0.584,0.847 3.284,2.52 0.667,-0.784 2.251,-1.617 3.813,-1.564 1.884,1.884 -1.564,3.813 -1.617,2.251 -0.784,0.667 2.52,3.284 0.847,-0.584 2.593,-0.98 4.088,-0.523 1.332,2.307 -2.497,3.279 -2.145,1.755 -0.929,0.442 1.584,3.824 0.969,-0.345 2.758,-0.275 4.084,0.552 0.689,2.574 -3.26,2.52 -2.526,1.141 -1.012,0.186 z"
           style="fill:none;stroke:#000000"
           inkscape:connector-curvature="0" />
      </g>
      <path
         inkscape:transform-center-y="-0.88684295"
         inkscape:connector-curvature="0"
         id="path5369"
         d="m 451.562,734.61642 c -1.76122,0 -3.1875,1.42628 -3.1875,3.1875 0,0.51706 0.12532,1.00561 0.34375,1.4375 l 5.65625,0 c 0.22129,-0.43411 0.375,-0.91683 0.375,-1.4375 0,-1.76122 -1.42628,-3.1875 -3.1875,-3.1875 z"
         style="opacity:0.24556215;color:#000000;fill:#000000;fill-opacity:1;fill-rule:nonzero;stroke:none;stroke-width:0.99921262;marker:none;visibility:visible;display:inline;overflow:visible;enable-background:accumulate" />
    </g>
    <g
       id="g5400"
       transform="translate(0,2)">
      <g
         inkscape:label="Gear8"
         transform="matrix(-1,0,0,-1,464.26575,738.53234)"
         id="g5378">
        <path
           inkscape:connector-curvature="0"
           style="fill:none;stroke:#000000"
           d="m 10.924,-2.343 2.763,-0.592 0.924,0.029 3.983,1.899 0,2.014 -3.983,1.899 -0.924,0.029 -2.763,-0.592 -1.543,3.725 2.373,1.535 0.632,0.673 1.474,4.16 -1.424,1.424 -4.16,-1.474 -0.673,-0.632 -1.535,-2.373 -3.725,1.543 0.592,2.763 -0.029,0.924 -1.899,3.983 -2.014,0 -1.899,-3.983 -0.029,-0.924 0.592,-2.763 -3.725,-1.543 -1.535,2.373 -0.673,0.632 -4.16,1.474 -1.424,-1.424 1.474,-4.16 0.632,-0.673 2.373,-1.535 -1.543,-3.725 -2.763,0.592 -0.924,-0.029 -3.983,-1.899 0,-2.014 3.983,-1.899 0.924,-0.029 2.763,0.592 1.543,-3.725 -2.373,-1.535 -0.632,-0.673 -1.474,-4.16 1.424,-1.424 4.16,1.474 0.673,0.632 1.535,2.373 3.725,-1.543 -0.592,-2.763 0.029,-0.924 1.899,-3.983 2.014,0 1.899,3.983 0.029,0.924 -0.592,2.763 3.725,1.543 1.535,-2.373 0.673,-0.632 4.16,-1.474 1.424,1.424 -1.474,4.16 -0.632,0.673 -2.373,1.535 z"
           id="path5380" />
      </g>
      <path
         inkscape:transform-center-y="-0.88684295"
         inkscape:connector-curvature="0"
         id="path5382"
         d="m 464.26575,741.73168 c 1.76122,0 3.1875,-1.42628 3.1875,-3.1875 0,-0.51706 -0.12532,-1.00561 -0.34375,-1.4375 l -5.65625,0 c -0.22129,0.43411 -0.375,0.91683 -0.375,1.4375 0,1.76122 1.42628,3.1875 3.1875,3.1875 z"
         style="opacity:0.24556215;color:#000000;fill:#000000;fill-opacity:1;fill-rule:nonzero;stroke:none;stroke-width:0.99921262;marker:none;visibility:visible;display:inline;overflow:visible;enable-background:accumulate" />
    </g>
    <g
       id="g5415"
       transform="translate(-113.375,0)">
      <g
         id="g5417"
         transform="translate(340.09375,721.686)"
         inkscape:label="Gear16">
        <path
           inkscape:connector-curvature="0"
           id="path5419"
           d="m 25.903,-2.942 1.915,-0.217 1.832,0.239 3.845,1.681 0,2.478 -3.845,1.681 -1.832,0.239 -1.915,-0.217 -0.846,4.253 1.853,0.532 1.601,0.922 2.909,3.024 -0.949,2.29 -4.195,0.082 -1.784,-0.481 -1.686,-0.934 -2.41,3.606 1.508,1.201 1.127,1.464 1.53,3.907 -1.753,1.753 -3.907,-1.53 -1.464,-1.127 -1.201,-1.508 -3.606,2.41 0.934,1.686 0.481,1.784 -0.082,4.195 -2.29,0.949 L 8.649,28.511 7.727,26.91 7.195,25.057 2.942,25.903 3.159,27.818 2.92,29.65 l -1.681,3.845 -2.478,0 -1.681,-3.845 -0.239,-1.832 0.217,-1.915 -4.253,-0.846 -0.532,1.853 -0.922,1.601 -3.024,2.909 -2.29,-0.949 -0.082,-4.195 0.481,-1.784 0.934,-1.686 -3.606,-2.41 -1.201,1.508 -1.464,1.127 -3.907,1.53 -1.753,-1.753 1.53,-3.907 1.127,-1.464 1.508,-1.201 -2.41,-3.606 -1.686,0.934 -1.784,0.481 -4.195,-0.082 -0.949,-2.29 2.909,-3.024 1.601,-0.922 1.853,-0.532 -0.846,-4.253 -1.915,0.217 -1.832,-0.239 -3.845,-1.681 0,-2.478 3.845,-1.681 1.832,-0.239 1.915,0.217 0.846,-4.253 -1.853,-0.532 -1.601,-0.922 -2.909,-3.024 0.949,-2.29 4.195,-0.082 1.784,0.481 1.686,0.934 2.41,-3.606 -1.508,-1.201 -1.127,-1.464 -1.53,-3.907 1.753,-1.753 3.907,1.53 1.464,1.127 1.201,1.508 3.606,-2.41 -0.934,-1.686 -0.481,-1.784 0.082,-4.195 2.29,-0.949 3.024,2.909 0.922,1.601 0.532,1.853 4.253,-0.846 -0.217,-1.915 0.239,-1.832 1.681,-3.845 2.478,0 1.681,3.845 0.239,1.832 -0.217,1.915 4.253,0.846 0.532,-1.853 0.922,-1.601 3.024,-2.909 2.29,0.949 0.082,4.195 -0.481,1.784 -0.934,1.686 3.606,2.41 1.201,-1.508 1.464,-1.127 3.907,-1.53 1.753,1.753 -1.53,3.907 -1.127,1.464 -1.508,1.201 2.41,3.606 1.686,-0.934 1.784,-0.481 4.195,0.082 0.949,2.29 -2.909,3.024 -1.601,0.922 -1.853,0.532 z"
           style="fill:none;stroke:#000000" />
      </g>
      <path
         style="opacity:0.24556215;color:#000000;fill:#000000;fill-opacity:1;fill-rule:nonzero;stroke:none;stroke-width:0.99921262;marker:none;visibility:visible;display:inline;overflow:visible;enable-background:accumulate"
         d="m 340.09375,718.48666 c -1.76122,0 -3.1875,1.42628 -3.1875,3.1875 0,0.51706 0.12532,1.00561 0.34375,1.4375 l 5.65625,0 c 0.22129,-0.43411 0.375,-0.91683 0.375,-1.4375 0,-1.76122 -1.42628,-3.1875 -3.1875,-3.1875 z"
         id="path5421"
         inkscape:connector-curvature="0"
         inkscape:transform-center-y="-0.88684295" />
    </g>
  </g>
</svg>
