<?xml version="1.0" encoding="UTF-8" standalone="no"?>
<!-- Created with Inkscape (http://www.inkscape.org/) -->

<svg
   xmlns:dc="http://purl.org/dc/elements/1.1/"
   xmlns:cc="http://creativecommons.org/ns#"
   xmlns:rdf="http://www.w3.org/1999/02/22-rdf-syntax-ns#"
   xmlns:svg="http://www.w3.org/2000/svg"
   xmlns="http://www.w3.org/2000/svg"
   xmlns:sodipodi="http://sodipodi.sourceforge.net/DTD/sodipodi-0.dtd"
   xmlns:inkscape="http://www.inkscape.org/namespaces/inkscape"
   width="102.624"
   height="51.312599"
   id="svg4838"
   version="1.1"
   inkscape:version="0.48.5 r10040"
   sodipodi:docname="Modelcraft RS-2 zu Achse Adapter.svg">
  <defs
     id="defs4840" />
  <sodipodi:namedview
     id="base"
     pagecolor="#ffffff"
     bordercolor="#666666"
     borderopacity="1.0"
     inkscape:pageopacity="0.0"
     inkscape:pageshadow="2"
     inkscape:zoom="7.9195959"
     inkscape:cx="69.216605"
     inkscape:cy="14.596439"
     inkscape:document-units="mm"
     inkscape:current-layer="layer1"
     showgrid="false"
     inkscape:snap-midpoints="true"
     inkscape:snap-object-midpoints="true"
     inkscape:window-width="1920"
     inkscape:window-height="1005"
     inkscape:window-x="-9"
     inkscape:window-y="-9"
     inkscape:window-maximized="1"
     inkscape:object-nodes="true"
     fit-margin-top="0"
     fit-margin-left="0"
     fit-margin-right="0"
     fit-margin-bottom="0" />
  <metadata
     id="metadata4843">
    <rdf:RDF>
      <cc:Work
         rdf:about="">
        <dc:format>image/svg+xml</dc:format>
        <dc:type
           rdf:resource="http://purl.org/dc/dcmitype/StillImage" />
        <dc:title></dc:title>
      </cc:Work>
    </rdf:RDF>
  </metadata>
  <g
     inkscape:label="Ebene 1"
     inkscape:groupmode="layer"
     id="layer1"
     transform="translate(-377.1257,-272.22176)">
    <g
       id="g5443"
       transform="matrix(1,0,0,-1,0,595.75612)">
      <g
         transform="translate(0,0.37841)"
         id="g4941">
        <path
           inkscape:connector-curvature="0"
           style="opacity:0.75739644;color:#000000;fill:#000000;fill-opacity:0.26666667;fill-rule:nonzero;stroke:none;stroke-width:0.77952754;marker:none;visibility:visible;display:inline;overflow:visible;enable-background:accumulate"
           d="m 448.78125,271.84375 c -1.86702,0.38437 -3.64494,0.96001 -5.34375,1.71875 l 0,6 c -0.22122,0.13146 -0.44042,0.267 -0.65625,0.40625 -0.0954,0.062 -0.18692,0.12396 -0.28125,0.1875 -0.0193,0.0129 -0.0433,0.0183 -0.0625,0.0312 -0.19312,0.12997 -0.37406,0.2701 -0.5625,0.40625 -0.19709,0.14337 -0.40194,0.28749 -0.59375,0.4375 -0.0872,0.0678 -0.16397,0.14963 -0.25,0.21875 -0.0176,0.0142 -0.0449,0.017 -0.0625,0.0312 -0.1032,0.0836 -0.21094,0.16454 -0.3125,0.25 -0.0954,0.0806 -0.1873,0.16769 -0.28125,0.25 -0.31111,0.27117 -0.61184,0.55492 -0.90625,0.84375 -0.0315,0.031 -0.0625,0.0625 -0.0937,0.0937 l -0.0312,0.0312 c -0.89547,0.89342 -1.71595,1.8632 -2.4375,2.90625 -0.0422,0.061 -0.0834,0.12599 -0.125,0.1875 -0.013,0.0192 -0.0183,0.0433 -0.0312,0.0625 -0.0339,0.0506 -0.0602,0.10534 -0.0937,0.15625 -0.17738,0.26938 -0.36625,0.53459 -0.53125,0.8125 l -5.96875,0 c -0.74502,1.6802 -1.3392,3.46851 -1.71875,5.3125 l 5.46875,0 4.625,0 0,10.625 -4.625,0 -5.46875,0 c 0.38442,1.85681 0.99511,3.65356 1.75,5.34375 l 5.96875,0 c 0.078,0.13043 0.16923,0.24643 0.25,0.375 0.0765,0.12259 0.13985,0.25414 0.21875,0.375 0.0417,0.0634 0.0826,0.12462 0.125,0.1875 0.013,0.0193 0.0183,0.0432 0.0312,0.0625 0.0289,0.043 0.0645,0.0822 0.0937,0.125 0.0583,0.085 0.12795,0.16594 0.1875,0.25 0.0437,0.0618 0.0807,0.12616 0.125,0.1875 0.14337,0.19709 0.28749,0.40194 0.4375,0.59375 0.009,0.0116 0.0222,0.0197 0.0312,0.0312 0.0501,0.0638 0.1054,0.12428 0.15625,0.1875 0.009,0.0114 0.0222,0.0199 0.0312,0.0312 0.10674,0.13273 0.2026,0.27622 0.3125,0.40625 0.0714,0.0841 0.14606,0.16703 0.21875,0.25 0.0436,0.0501 0.0809,0.1066 0.125,0.15625 0.26031,0.29149 0.53646,0.56723 0.8125,0.84375 0.0104,0.0105 0.0208,0.0208 0.0312,0.0312 0.0262,0.0262 0.0362,0.0677 0.0625,0.0937 0.0369,0.0365 0.0879,0.0577 0.125,0.0937 0.4111,0.40172 0.83827,0.78945 1.28125,1.15625 0.48782,0.40393 1.00757,0.76625 1.53125,1.125 0.024,0.0164 0.0385,0.0462 0.0625,0.0625 0.0119,0.008 0.0193,0.0233 0.0312,0.0312 0.0192,0.013 0.0433,0.0183 0.0625,0.0312 0.26491,0.17768 0.53919,0.33432 0.8125,0.5 0.0519,0.0315 0.10404,0.0627 0.15625,0.0937 0.005,0.003 -0.005,0.0285 0,0.0312 l 0,5.96875 c 1.6877,0.75055 3.45924,1.33724 5.3125,1.71875 l 0,-5.46875 0,-4.625 10.625,0 0,4.625 0,5.46875 c 1.86356,-0.38358 3.64772,-0.99339 5.34375,-1.75 l 0,-5.96875 c 0.1296,-0.0772 0.24723,-0.17005 0.375,-0.25 0.0315,-0.0197 0.0623,-0.0427 0.0937,-0.0625 0.0393,-0.0248 0.0859,-0.0375 0.125,-0.0625 0.0513,-0.033 0.10527,-0.0605 0.15625,-0.0937 0.0628,-0.041 0.1252,-0.0834 0.1875,-0.125 0.0194,-0.013 0.0432,-0.0183 0.0625,-0.0312 0.008,-0.005 0.0233,0.005 0.0312,0 0.18266,-0.12372 0.35278,-0.27696 0.53125,-0.40625 0.1584,-0.11444 0.31374,-0.22504 0.46875,-0.34375 0.0527,-0.0406 0.10393,-0.0839 0.15625,-0.125 0.0519,-0.0406 0.10478,-0.084 0.15625,-0.125 0.14972,-0.11927 0.29118,-0.25176 0.4375,-0.375 0.0288,-0.0242 0.0652,-0.0381 0.0937,-0.0625 0.0623,-0.0531 0.12586,-0.10245 0.1875,-0.15625 0.0501,-0.0439 0.1066,-0.0807 0.15625,-0.125 0.2809,-0.24956 0.54552,-0.51712 0.8125,-0.78125 0.0208,-0.0205 0.0418,-0.0419 0.0625,-0.0625 0.46997,-0.46886 0.92013,-0.95714 1.34375,-1.46875 0.33204,-0.401 0.63581,-0.82459 0.9375,-1.25 0.0653,-0.0921 0.12365,-0.18805 0.1875,-0.28125 0.0373,-0.0546 0.0882,-0.10125 0.125,-0.15625 0.10182,-0.1518 0.18335,-0.31417 0.28125,-0.46875 0.0528,-0.0833 0.10461,-0.16585 0.15625,-0.25 0.0516,-0.0842 0.10578,-0.16507 0.15625,-0.25 0.003,-0.005 0.0285,0.005 0.0312,0 l 5.96875,0 c 0.74757,-1.68012 1.33685,-3.46813 1.71875,-5.3125 l -5.46875,0 -4.625,0 0,-10.625 4.625,0 5.46875,0 c -0.38185,-1.85505 -0.96717,-3.65461 -1.71875,-5.34375 l -6,0 c -0.0502,-0.0845 -0.10489,-0.16628 -0.15625,-0.25 -0.0836,-0.1351 -0.16347,-0.27321 -0.25,-0.40625 -0.061,-0.0945 -0.12505,-0.1878 -0.1875,-0.28125 -0.013,-0.0194 -0.0183,-0.0432 -0.0312,-0.0625 -0.029,-0.0427 -0.0645,-0.0825 -0.0937,-0.125 -0.21254,-0.3108 -0.42775,-0.60788 -0.65625,-0.90625 -0.0317,-0.0411 -0.0618,-0.0841 -0.0937,-0.125 -0.009,-0.0114 -0.0224,-0.0199 -0.0312,-0.0312 -0.0646,-0.0827 -0.12172,-0.16835 -0.1875,-0.25 -0.009,-0.0112 -0.0222,-0.0202 -0.0312,-0.0312 -0.0839,-0.10321 -0.16416,-0.21094 -0.25,-0.3125 -0.0804,-0.0956 -0.16796,-0.18712 -0.25,-0.28125 -0.0439,-0.0501 -0.0807,-0.1066 -0.125,-0.15625 -0.22999,-0.25887 -0.47637,-0.50293 -0.71875,-0.75 -0.0206,-0.021 -0.0418,-0.0416 -0.0625,-0.0625 -0.0208,-0.0209 -0.0416,-0.0417 -0.0625,-0.0625 -0.4687,-0.46978 -0.95734,-0.92029 -1.46875,-1.34375 -0.38322,-0.31732 -0.78195,-0.61662 -1.1875,-0.90625 -0.13934,-0.0992 -0.2644,-0.21667 -0.40625,-0.3125 -0.0261,-0.0177 -0.0675,-0.0138 -0.0937,-0.0312 -0.0311,-0.0208 -0.0627,-0.0418 -0.0937,-0.0625 -0.12549,-0.0832 -0.24763,-0.16947 -0.375,-0.25 -0.16566,-0.10481 -0.33122,-0.21229 -0.5,-0.3125 l 0,-6 c -1.685,-0.74856 -3.46257,-1.3067 -5.3125,-1.6875 l 0,5.46875 0,4.625 -10.625,0 0,-4.625 0,-5.46875 z"
           id="path4870" />
        <path
           style="opacity:0.26315792;fill:#000000;fill-opacity:1;stroke:none;display:inline"
           d="m 443.85541,298.20832 c 0.028,0.4084 0.0792,0.8042 0.15361,1.1981 l 1.53605,0.3687 -1.13669,1.0752 c 0.12982,0.3742 0.25969,0.7529 0.4301,1.106 l 0.0307,0 1.56677,-0.031 -0.82947,1.3517 c 0.21593,0.3168 0.45751,0.6316 0.70659,0.9216 l 1.53605,-0.4301 -0.46083,1.5054 c 0.29764,0.2573 0.62636,0.4843 0.95236,0.7065 l 1.35172,-0.8294 -0.0614,1.5975 c 0.35517,0.1717 0.72947,0.2994 1.10596,0.4301 l 1.07529,-1.1367 0.39937,1.5668 c 0.37135,0.069 0.75246,0.095 1.13668,0.1228 l 0.76803,-1.3517 0.76802,1.3517 c 0.387,-0.029 0.76281,-0.052 1.13668,-0.1228 l 0.39938,-1.5361 1.07523,1.106 c 0.38008,-0.1331 0.74776,-0.2859 1.10596,-0.4609 l -0.0307,-1.536 1.32101,0.7987 c 0.33129,-0.2259 0.61967,-0.4752 0.92163,-0.7373 l -0.39938,-1.4746 1.47461,0.4301 0.0307,0 c 0.25708,-0.2996 0.48491,-0.6242 0.70658,-0.9523 l -0.79875,-1.321 1.53606,0.031 c 0.1732,-0.3582 0.32944,-0.7261 0.46081,-1.106 l -1.10596,-1.0752 1.47461,-0.338 c 0.0755,-0.3936 0.12441,-0.7899 0.15361,-1.1981 l -1.35173,-0.768 1.35173,-0.7373 c -0.0297,-0.3989 -0.0796,-0.8132 -0.15361,-1.1981 l -1.47461,-0.3379 1.10596,-1.0753 c -0.13216,-0.3811 -0.28654,-0.7467 -0.46081,-1.1059 l -1.53606,0.031 0.76803,-1.321 c -0.22222,-0.326 -0.44928,-0.6548 -0.70658,-0.9524 l -1.47462,0.4301 0.39938,-1.4439 c -0.31417,-0.2729 -0.60645,-0.5343 -0.95235,-0.768 l -1.29029,0.7987 0.0307,-1.5053 c -0.35933,-0.1755 -0.72461,-0.3582 -1.10596,-0.4915 l -1.07523,1.1059 -0.39938,-1.5053 c -0.38407,-0.072 -0.7695,-0.1251 -1.1674,-0.1536 l -0.7373,1.3824 -0.73731,-1.3824 c -0.39478,0.027 -0.78615,0.083 -1.1674,0.1536 l -0.39937,1.5361 -1.07524,-1.1367 c -0.37757,0.1308 -0.74982,0.2886 -1.10595,0.4608 l 0.0614,1.5668 -1.321,-0.8295 c -0.33381,0.2255 -0.64803,0.4752 -0.95236,0.7373 l 0.4301,1.4746 -1.50533,-0.4301 c -0.25351,0.293 -0.51777,0.6011 -0.73731,0.9216 l 0.82945,1.3518 -1.56672,-0.031 c -0.17378,0.3576 -0.32879,0.7265 -0.46082,1.1059 l 1.13668,1.0753 -1.53604,0.3686 c -0.0729,0.3855 -0.12503,0.7987 -0.15362,1.1981 l 1.38245,0.7066 -1.38245,0.7373 z"
           id="path4002"
           inkscape:connector-curvature="0" />
      </g>
      <g
         transform="translate(-0.25869,-5e-5)"
         id="g4937">
        <path
           id="path4915"
           d="m 397.72794,272.22256 c -1.86702,0.38437 -3.64494,0.96001 -5.34375,1.71875 l 0,6 c -0.22122,0.13146 -0.44042,0.267 -0.65625,0.40625 -0.0954,0.062 -0.18692,0.12396 -0.28125,0.1875 -0.0193,0.0129 -0.0433,0.0183 -0.0625,0.0312 -0.19312,0.12997 -0.37406,0.2701 -0.5625,0.40625 -0.19709,0.14337 -0.40194,0.28749 -0.59375,0.4375 -0.0872,0.0678 -0.16397,0.14963 -0.25,0.21875 -0.0176,0.0142 -0.0449,0.0171 -0.0625,0.0312 -0.1032,0.0836 -0.21094,0.16454 -0.3125,0.25 -0.0954,0.0806 -0.1873,0.16769 -0.28125,0.25 -0.31111,0.27117 -0.61184,0.55492 -0.90625,0.84375 -0.0315,0.031 -0.0625,0.0625 -0.0937,0.0937 l -0.0312,0.0312 c -0.89547,0.89342 -1.71595,1.8632 -2.4375,2.90625 -0.0422,0.061 -0.0834,0.12599 -0.125,0.1875 -0.013,0.0192 -0.0183,0.0433 -0.0312,0.0625 -0.0339,0.0506 -0.0602,0.10534 -0.0937,0.15625 -0.17738,0.26938 -0.36625,0.53459 -0.53125,0.8125 l -5.96875,0 c -0.74502,1.6802 -1.3392,3.46851 -1.71875,5.3125 l 5.46875,0 4.625,0 0,10.625 -4.625,0 -5.46875,0 c 0.38442,1.85681 0.99511,3.65356 1.75,5.34375 l 5.96875,0 c 0.078,0.13043 0.16923,0.24643 0.25,0.375 0.0765,0.12259 0.13985,0.25414 0.21875,0.375 0.0417,0.0634 0.0826,0.12462 0.125,0.1875 0.013,0.0193 0.0183,0.0432 0.0312,0.0625 0.0289,0.043 0.0645,0.0822 0.0937,0.125 0.0583,0.085 0.12795,0.16594 0.1875,0.25 0.0437,0.0618 0.0807,0.12616 0.125,0.1875 0.14337,0.19709 0.28749,0.40194 0.4375,0.59375 0.009,0.0116 0.0222,0.0197 0.0312,0.0312 0.0501,0.0638 0.1054,0.12428 0.15625,0.1875 0.009,0.0114 0.0222,0.0199 0.0312,0.0312 0.10674,0.13273 0.2026,0.27622 0.3125,0.40625 0.0714,0.0841 0.14606,0.16703 0.21875,0.25 0.0436,0.0501 0.0809,0.1066 0.125,0.15625 0.26031,0.29149 0.53646,0.56723 0.8125,0.84375 0.0104,0.0105 0.0208,0.0208 0.0312,0.0312 0.0262,0.0262 0.0362,0.0677 0.0625,0.0937 0.0369,0.0365 0.0879,0.0577 0.125,0.0937 0.4111,0.40172 0.83827,0.78945 1.28125,1.15625 0.48782,0.40393 1.00757,0.76625 1.53125,1.125 0.024,0.0164 0.0385,0.0462 0.0625,0.0625 0.0119,0.008 0.0194,0.0233 0.0312,0.0312 0.0192,0.013 0.0433,0.0183 0.0625,0.0312 0.26491,0.17768 0.53919,0.33432 0.8125,0.5 0.0519,0.0315 0.10404,0.0627 0.15625,0.0937 0.005,0.003 -0.005,0.0285 0,0.0312 l 0,5.96875 c 1.6877,0.75055 3.45924,1.33724 5.3125,1.71875 l 0,-5.46875 0,-4.625 10.625,0 0,4.625 0,5.46875 c 1.86356,-0.38358 3.64772,-0.99339 5.34375,-1.75 l 0,-5.96875 c 0.1296,-0.0772 0.24723,-0.17005 0.375,-0.25 0.0315,-0.0197 0.0624,-0.0427 0.0937,-0.0625 0.0393,-0.0248 0.0859,-0.0375 0.125,-0.0625 0.0513,-0.033 0.10527,-0.0605 0.15625,-0.0937 0.0628,-0.041 0.1252,-0.0834 0.1875,-0.125 0.0194,-0.013 0.0432,-0.0182 0.0625,-0.0312 0.008,-0.005 0.0233,0.005 0.0312,0 0.18266,-0.12372 0.35278,-0.27696 0.53125,-0.40625 0.1584,-0.11444 0.31374,-0.22504 0.46875,-0.34375 0.0527,-0.0406 0.10393,-0.0839 0.15625,-0.125 0.0519,-0.0406 0.10478,-0.084 0.15625,-0.125 0.14972,-0.11927 0.29118,-0.25176 0.4375,-0.375 0.0288,-0.0242 0.0652,-0.0381 0.0937,-0.0625 0.0623,-0.0531 0.12586,-0.10245 0.1875,-0.15625 0.0501,-0.0439 0.1066,-0.0807 0.15625,-0.125 0.2809,-0.24956 0.54552,-0.51712 0.8125,-0.78125 0.0208,-0.0205 0.0418,-0.0419 0.0625,-0.0625 0.46997,-0.46886 0.92013,-0.95714 1.34375,-1.46875 0.33204,-0.401 0.63581,-0.82459 0.9375,-1.25 0.0653,-0.0921 0.12365,-0.18805 0.1875,-0.28125 0.0373,-0.0546 0.0882,-0.10125 0.125,-0.15625 0.10182,-0.1518 0.18335,-0.31417 0.28125,-0.46875 0.0528,-0.0833 0.10461,-0.16585 0.15625,-0.25 0.0516,-0.0842 0.10578,-0.16507 0.15625,-0.25 0.003,-0.005 0.0285,0.005 0.0312,0 l 5.96875,0 c 0.74757,-1.68012 1.33685,-3.46813 1.71875,-5.3125 l -5.46875,0 -4.625,0 0,-10.625 4.625,0 5.46875,0 c -0.38185,-1.85505 -0.96717,-3.65461 -1.71875,-5.34375 l -6,0 c -0.0502,-0.0845 -0.10489,-0.16628 -0.15625,-0.25 -0.0836,-0.1351 -0.16347,-0.27321 -0.25,-0.40625 -0.061,-0.0945 -0.12505,-0.1878 -0.1875,-0.28125 -0.013,-0.0194 -0.0182,-0.0432 -0.0312,-0.0625 -0.029,-0.0427 -0.0645,-0.0825 -0.0937,-0.125 -0.21254,-0.3108 -0.42775,-0.60788 -0.65625,-0.90625 -0.0317,-0.0411 -0.0618,-0.0841 -0.0937,-0.125 -0.009,-0.0114 -0.0224,-0.0199 -0.0312,-0.0312 -0.0646,-0.0827 -0.12172,-0.16835 -0.1875,-0.25 -0.009,-0.0112 -0.0222,-0.0202 -0.0312,-0.0312 -0.0839,-0.10321 -0.16416,-0.21094 -0.25,-0.3125 -0.0804,-0.0956 -0.16796,-0.18712 -0.25,-0.28125 -0.0439,-0.0501 -0.0807,-0.1066 -0.125,-0.15625 -0.22999,-0.25887 -0.47637,-0.50293 -0.71875,-0.75 -0.0206,-0.021 -0.0418,-0.0416 -0.0625,-0.0625 -0.0208,-0.0209 -0.0416,-0.0417 -0.0625,-0.0625 -0.4687,-0.46978 -0.95734,-0.92029 -1.46875,-1.34375 -0.38322,-0.31732 -0.78195,-0.61662 -1.1875,-0.90625 -0.13934,-0.0992 -0.2644,-0.21667 -0.40625,-0.3125 -0.0261,-0.0177 -0.0675,-0.0137 -0.0937,-0.0312 -0.0311,-0.0208 -0.0626,-0.0418 -0.0937,-0.0625 -0.12549,-0.0832 -0.24763,-0.16947 -0.375,-0.25 -0.16566,-0.10481 -0.33122,-0.21229 -0.5,-0.3125 l 0,-6 c -1.685,-0.74856 -3.46257,-1.3067 -5.3125,-1.6875 l 0,5.46875 0,4.625 -10.625,0 0,-4.625 0,-5.46875 z"
           style="opacity:0.75739644;color:#000000;fill:#000000;fill-opacity:0.26666667;fill-rule:nonzero;stroke:none;stroke-width:0.77952754;marker:none;visibility:visible;display:inline;overflow:visible;enable-background:accumulate"
           inkscape:connector-curvature="0" />
        <path
           style="color:#000000;fill:#000000;fill-opacity:0.24313725;fill-rule:nonzero;stroke:none;stroke-width:0.99921262;marker:none;visibility:visible;display:inline;overflow:visible;enable-background:accumulate"
           d="m 394.88656,294.25436 3.62393,3.62392 -3.62393,3.62393 4.50781,4.5078 3.62392,-3.62392 3.64602,3.64602 4.50781,-4.50781 -3.64602,-3.64602 3.64602,-3.64601 -4.50781,-4.50781 -3.64602,3.64602 -3.62392,-3.62392 -4.50781,4.5078 z"
           id="rect4051"
           inkscape:connector-curvature="0" />
      </g>
    </g>
    <rect
       style="opacity:0.75739644;color:#000000;fill:#000000;fill-opacity:0.26666667;fill-rule:nonzero;stroke:none;stroke-width:0.77952754;marker:none;visibility:visible;display:inline;overflow:visible;enable-background:accumulate"
       id="rect4945"
       width="21.259842"
       height="10.629921"
       x="417.80777"
       y="272.4827" />
    <rect
       y="-323.27344"
       x="417.80777"
       height="10.629921"
       width="21.259842"
       id="rect5451"
       style="opacity:0.75739644;color:#000000;fill:#000000;fill-opacity:0.26666667;fill-rule:nonzero;stroke:none;stroke-width:0.77952754;marker:none;visibility:visible;display:inline;overflow:visible;enable-background:accumulate"
       transform="scale(1,-1)" />
  </g>
</svg>
