<?xml version="1.0" encoding="UTF-8" standalone="no"?>
<!-- Created with Inkscape (http://www.inkscape.org/) -->

<svg
   xmlns:dc="http://purl.org/dc/elements/1.1/"
   xmlns:cc="http://creativecommons.org/ns#"
   xmlns:rdf="http://www.w3.org/1999/02/22-rdf-syntax-ns#"
   xmlns:svg="http://www.w3.org/2000/svg"
   xmlns="http://www.w3.org/2000/svg"
   xmlns:sodipodi="http://sodipodi.sourceforge.net/DTD/sodipodi-0.dtd"
   xmlns:inkscape="http://www.inkscape.org/namespaces/inkscape"
   width="744.09448"
   height="1052.3622"
   id="svg2"
   version="1.1"
   inkscape:version="0.48.5 r10040"
   sodipodi:docname="Zahnräder.svg">
  <sodipodi:namedview
     id="base"
     pagecolor="#ffffff"
     bordercolor="#666666"
     borderopacity="1.0"
     inkscape:pageopacity="0.0"
     inkscape:pageshadow="2"
     inkscape:zoom="2.8284271"
     inkscape:cx="129.08917"
     inkscape:cy="882.30625"
     inkscape:document-units="mm"
     inkscape:current-layer="layer1"
     showgrid="false"
     inkscape:window-width="1920"
     inkscape:window-height="1005"
     inkscape:window-x="-9"
     inkscape:window-y="-9"
     inkscape:window-maximized="1"
     units="mm"
     inkscape:snap-smooth-nodes="false"
     inkscape:snap-midpoints="false"
     inkscape:object-nodes="false"
     inkscape:snap-object-midpoints="false"
     inkscape:snap-center="true" />
  <defs
     id="defs4" />
  <metadata
     id="metadata7">
    <rdf:RDF>
      <cc:Work
         rdf:about="">
        <dc:format>image/svg+xml</dc:format>
        <dc:type
           rdf:resource="http://purl.org/dc/dcmitype/StillImage" />
        <dc:title />
      </cc:Work>
    </rdf:RDF>
  </metadata>
  <g
     inkscape:label="Ebene 1"
     inkscape:groupmode="layer"
     id="layer1"
     transform="translate(0,-2.5390623e-6)">
    <g
       style="fill:#000000;fill-opacity:0.24313725;stroke:none"
       id="g4056"
       transform="translate(146.93127,194.12633)"
       inkscape:label="Gear16">
      <path
         inkscape:connector-curvature="0"
         id="path4058"
         d="m 24.132,-2.741 1.784,-0.202 1.707,0.222 3.582,1.566 0,2.31 -3.582,1.566 -1.707,0.222 -1.784,-0.202 -0.788,3.962 1.726,0.496 1.491,0.858 2.71,2.818 -0.883,2.133 -3.909,0.076 -1.662,-0.447 -1.571,-0.87 -2.244,3.359 1.405,1.118 1.049,1.365 1.426,3.64 -1.633,1.633 -3.64,-1.426 -1.365,-1.049 -1.118,-1.405 -3.359,2.244 0.87,1.571 0.447,1.662 -0.076,3.909 -2.133,0.883 -2.818,-2.71 -0.858,-1.491 -0.496,-1.726 -3.962,0.788 0.202,1.784 -0.222,1.707 -1.566,3.582 -2.31,0 -1.566,-3.582 -0.222,-1.707 0.202,-1.784 -3.962,-0.788 -0.496,1.726 -0.858,1.491 -2.818,2.71 -2.133,-0.883 -0.076,-3.909 0.447,-1.662 0.87,-1.571 -3.359,-2.244 -1.118,1.405 -1.365,1.049 -3.64,1.426 -1.633,-1.633 1.426,-3.64 1.049,-1.365 1.405,-1.118 -2.244,-3.359 -1.571,0.87 -1.662,0.447 -3.909,-0.076 -0.883,-2.133 2.71,-2.818 1.491,-0.858 1.726,-0.496 -0.788,-3.962 -1.784,0.202 -1.707,-0.222 -3.582,-1.566 0,-2.31 3.582,-1.566 1.707,-0.222 1.784,0.202 0.788,-3.962 -1.726,-0.496 -1.491,-0.858 -2.71,-2.818 0.883,-2.133 3.909,-0.076 1.662,0.447 1.571,0.87 2.244,-3.359 -1.405,-1.118 -1.049,-1.365 -1.426,-3.64 1.633,-1.633 3.64,1.426 1.365,1.049 1.118,1.405 3.359,-2.244 -0.87,-1.571 -0.447,-1.662 0.076,-3.909 2.133,-0.883 2.818,2.71 0.858,1.491 0.496,1.726 3.962,-0.788 -0.202,-1.784 0.222,-1.707 1.566,-3.582 2.31,0 1.566,3.582 0.222,1.707 -0.202,1.784 3.962,0.788 0.496,-1.726 0.858,-1.491 2.818,-2.71 2.133,0.883 0.076,3.909 -0.447,1.662 -0.87,1.571 3.359,2.244 1.118,-1.405 1.365,-1.049 3.64,-1.426 1.633,1.633 -1.426,3.64 -1.049,1.365 -1.405,1.118 2.244,3.359 1.571,-0.87 1.662,-0.447 3.909,0.076 0.883,2.133 -2.71,2.818 -1.491,0.858 -1.726,0.496 z"
         style="fill:#000000;fill-opacity:0.24313725;stroke:none" />
    </g>
    <g
       id="g4027"
       transform="translate(51.913784,154.17479)"
       inkscape:label="Gear24"
       style="fill:#000000;fill-opacity:0.24313725;stroke:none">
      <path
         id="path4029"
         d="m 38.042,-3.063 0.956,-0.077 2.548,0.417 3.541,1.482 0,2.482 -3.541,1.482 -2.548,0.417 -0.956,-0.077 -0.503,3.824 0.943,0.173 2.353,1.063 3.037,2.348 -0.642,2.397 -3.805,0.515 -2.569,-0.256 -0.903,-0.322 -1.476,3.563 0.866,0.411 1.998,1.636 2.326,3.054 -1.241,2.15 -3.808,-0.488 -2.415,-0.912 -0.789,-0.545 -2.348,3.06 0.73,0.621 1.507,2.097 1.456,3.552 -1.755,1.755 -3.552,-1.456 -2.097,-1.507 -0.621,-0.73 -3.06,2.348 0.545,0.789 0.912,2.415 0.488,3.808 -2.15,1.241 -3.054,-2.326 -1.636,-1.998 -0.411,-0.866 -3.563,1.476 0.322,0.903 0.256,2.569 -0.515,3.805 -2.397,0.642 -2.348,-3.037 -1.063,-2.353 -0.173,-0.943 -3.824,0.503 0.077,0.956 -0.417,2.548 -1.482,3.541 -2.482,0 -1.482,-3.541 -0.417,-2.548 0.077,-0.956 -3.824,-0.503 -0.173,0.943 -1.063,2.353 -2.348,3.037 -2.397,-0.642 -0.515,-3.805 0.256,-2.569 0.322,-0.903 -3.563,-1.476 -0.411,0.866 -1.636,1.998 -3.054,2.326 -2.15,-1.241 0.488,-3.808 0.912,-2.415 0.545,-0.789 -3.06,-2.348 -0.621,0.73 -2.097,1.507 -3.552,1.456 -1.755,-1.755 1.456,-3.552 1.507,-2.097 0.73,-0.621 -2.348,-3.06 -0.789,0.545 -2.415,0.912 -3.808,0.488 -1.241,-2.15 2.326,-3.054 1.998,-1.636 0.866,-0.411 -1.476,-3.563 -0.903,0.322 -2.569,0.256 -3.805,-0.515 -0.642,-2.397 3.037,-2.348 2.353,-1.063 0.943,-0.173 -0.503,-3.824 -0.956,0.077 -2.548,-0.417 -3.541,-1.482 0,-2.482 3.541,-1.482 2.548,-0.417 0.956,0.077 0.503,-3.824 -0.943,-0.173 -2.353,-1.063 -3.037,-2.348 0.642,-2.397 3.805,-0.515 2.569,0.256 0.903,0.322 1.476,-3.563 -0.866,-0.411 -1.998,-1.636 -2.326,-3.054 1.241,-2.15 3.808,0.488 2.415,0.912 0.789,0.545 2.348,-3.06 -0.73,-0.621 -1.507,-2.097 -1.456,-3.552 1.755,-1.755 3.552,1.456 2.097,1.507 0.621,0.73 3.06,-2.348 -0.545,-0.789 -0.912,-2.415 -0.488,-3.808 2.15,-1.241 3.054,2.326 1.636,1.998 0.411,0.866 3.563,-1.476 -0.322,-0.903 -0.256,-2.569 0.515,-3.805 2.397,-0.642 2.348,3.037 1.063,2.353 0.173,0.943 3.824,-0.503 -0.077,-0.956 0.417,-2.548 1.482,-3.541 2.482,0 1.482,3.541 0.417,2.548 -0.077,0.956 3.824,0.503 0.173,-0.943 1.063,-2.353 2.348,-3.037 2.397,0.642 0.515,3.805 -0.256,2.569 -0.322,0.903 3.563,1.476 0.411,-0.866 1.636,-1.998 3.054,-2.326 2.15,1.241 -0.488,3.808 -0.912,2.415 -0.545,0.789 3.06,2.348 0.621,-0.73 2.097,-1.507 3.552,-1.456 1.755,1.755 -1.456,3.552 -1.507,2.097 -0.73,0.621 2.348,3.06 0.789,-0.545 2.415,-0.912 3.808,-0.488 1.241,2.15 -2.326,3.054 -1.998,1.636 -0.866,0.411 1.476,3.563 0.903,-0.322 2.569,-0.256 3.805,0.515 0.642,2.397 -3.037,2.348 -2.353,1.063 -0.943,0.173 z"
         style="fill:#000000;fill-opacity:0.24313725;stroke:none"
         inkscape:connector-curvature="0" />
    </g>
    <g
       inkscape:label="Gear16"
       transform="translate(51.913784,154.17479)"
       id="g3985"
       style="fill:#000000;fill-opacity:0.24313725;stroke:none">
      <path
         style="fill:#000000;fill-opacity:0.24313725;stroke:none"
         d="m 24.132,-2.741 1.784,-0.202 1.707,0.222 3.582,1.566 0,2.31 -3.582,1.566 -1.707,0.222 -1.784,-0.202 -0.788,3.962 1.726,0.496 1.491,0.858 2.71,2.818 -0.883,2.133 -3.909,0.076 -1.662,-0.447 -1.571,-0.87 -2.244,3.359 1.405,1.118 1.049,1.365 1.426,3.64 -1.633,1.633 -3.64,-1.426 -1.365,-1.049 -1.118,-1.405 -3.359,2.244 0.87,1.571 0.447,1.662 -0.076,3.909 -2.133,0.883 -2.818,-2.71 -0.858,-1.491 -0.496,-1.726 -3.962,0.788 0.202,1.784 -0.222,1.707 -1.566,3.582 -2.31,0 -1.566,-3.582 -0.222,-1.707 0.202,-1.784 -3.962,-0.788 -0.496,1.726 -0.858,1.491 -2.818,2.71 -2.133,-0.883 -0.076,-3.909 0.447,-1.662 0.87,-1.571 -3.359,-2.244 -1.118,1.405 -1.365,1.049 -3.64,1.426 -1.633,-1.633 1.426,-3.64 1.049,-1.365 1.405,-1.118 -2.244,-3.359 -1.571,0.87 -1.662,0.447 -3.909,-0.076 -0.883,-2.133 2.71,-2.818 1.491,-0.858 1.726,-0.496 -0.788,-3.962 -1.784,0.202 -1.707,-0.222 -3.582,-1.566 0,-2.31 3.582,-1.566 1.707,-0.222 1.784,0.202 0.788,-3.962 -1.726,-0.496 -1.491,-0.858 -2.71,-2.818 0.883,-2.133 3.909,-0.076 1.662,0.447 1.571,0.87 2.244,-3.359 -1.405,-1.118 -1.049,-1.365 -1.426,-3.64 1.633,-1.633 3.64,1.426 1.365,1.049 1.118,1.405 3.359,-2.244 -0.87,-1.571 -0.447,-1.662 0.076,-3.909 2.133,-0.883 2.818,2.71 0.858,1.491 0.496,1.726 3.962,-0.788 -0.202,-1.784 0.222,-1.707 1.566,-3.582 2.31,0 1.566,3.582 0.222,1.707 -0.202,1.784 3.962,0.788 0.496,-1.726 0.858,-1.491 2.818,-2.71 2.133,0.883 0.076,3.909 -0.447,1.662 -0.87,1.571 3.359,2.244 1.118,-1.405 1.365,-1.049 3.64,-1.426 1.633,1.633 -1.426,3.64 -1.049,1.365 -1.405,1.118 2.244,3.359 1.571,-0.87 1.662,-0.447 3.909,0.076 0.883,2.133 -2.71,2.818 -1.491,0.858 -1.726,0.496 z"
         id="path3987"
         inkscape:connector-curvature="0" />
    </g>
    <g
       style="opacity:0.24556215;fill:#000000;fill-opacity:1;stroke:none"
       inkscape:label="Gear8"
       transform="translate(51.913784,154.17479)"
       id="g3935">
      <path
         inkscape:connector-curvature="0"
         style="fill:#000000;fill-opacity:1;stroke:none"
         d="m 10.199,-2.187 2.58,-0.553 0.862,0.027 3.719,1.772 0,1.882 -3.719,1.772 -0.862,0.027 -2.58,-0.553 -1.44,3.478 2.215,1.433 0.59,0.629 1.376,3.883 -1.33,1.33 -3.883,-1.376 -0.629,-0.59 -1.433,-2.215 -3.478,1.44 0.553,2.58 -0.027,0.862 -1.772,3.719 -1.882,0 -1.772,-3.719 -0.027,-0.862 0.553,-2.58 -3.478,-1.44 -1.433,2.215 -0.629,0.59 -3.883,1.376 -1.33,-1.33 1.376,-3.883 0.59,-0.629 2.215,-1.433 -1.44,-3.478 -2.58,0.553 -0.862,-0.027 -3.719,-1.772 0,-1.882 3.719,-1.772 0.862,-0.027 2.58,0.553 1.44,-3.478 -2.215,-1.433 -0.59,-0.629 -1.376,-3.883 1.33,-1.33 3.883,1.376 0.629,0.59 1.433,2.215 3.478,-1.44 -0.553,-2.58 0.027,-0.862 1.772,-3.719 1.882,0 1.772,3.719 0.027,0.862 -0.553,2.58 3.478,1.44 1.433,-2.215 0.629,-0.59 3.883,-1.376 1.33,1.33 -1.376,3.883 -0.59,0.629 -2.215,1.433 z"
         id="path3937" />
    </g>
    <path
       style="opacity:0.24556215;color:#000000;fill:#000000;fill-opacity:1;fill-rule:nonzero;stroke:none;stroke-width:0.99921262;marker:none;visibility:visible;display:inline;overflow:visible;enable-background:accumulate"
       d="m 51.913784,150.97545 c -1.761223,0 -3.1875,1.42628 -3.1875,3.1875 0,0.51706 0.125324,1.00561 0.34375,1.4375 l 5.65625,0 c 0.22129,-0.43411 0.375,-0.91683 0.375,-1.4375 0,-1.76122 -1.426277,-3.1875 -3.1875,-3.1875 z"
       id="path3961"
       inkscape:connector-curvature="0"
       inkscape:transform-center-y="-0.88684295" />
    <path
       sodipodi:type="arc"
       style="opacity:0.24556213;color:#000000;fill:#000000;fill-opacity:0.29804131000000000;fill-rule:nonzero;stroke:none;stroke-width:0.99921262000000000;marker:none;visibility:visible;display:inline;overflow:visible;enable-background:accumulate"
       id="path2985"
       sodipodi:cx="110.6117"
       sodipodi:cy="95.242645"
       sodipodi:rx="19.697975"
       sodipodi:ry="19.697975"
       d="m 130.30968,95.242645 c 0,10.878895 -8.81909,19.697975 -19.69798,19.697975 -10.878889,0 -19.697973,-8.81908 -19.697973,-19.697975 0,-10.878891 8.819084,-19.697975 19.697973,-19.697975 10.87889,0 19.69798,8.819084 19.69798,19.697975 z"
       transform="matrix(0.87692374,0,0,0.87692374,11.837853,14.439261)" />
    <path
       transform="matrix(0.51086429,0,0,0.51086429,52.328311,49.303731)"
       d="m 130.30968,95.242645 c 0,10.878895 -8.81909,19.697975 -19.69798,19.697975 -10.878889,0 -19.697973,-8.81908 -19.697973,-19.697975 0,-10.878891 8.819084,-19.697975 19.697973,-19.697975 10.87889,0 19.69798,8.819084 19.69798,19.697975 z"
       sodipodi:ry="19.697975"
       sodipodi:rx="19.697975"
       sodipodi:cy="95.242645"
       sodipodi:cx="110.6117"
       id="path2987"
       style="opacity:0.24556213;color:#000000;fill:#000000;fill-opacity:0.29804131000000000;fill-rule:nonzero;stroke:none;stroke-width:0.99921262000000000;marker:none;visibility:visible;display:inline;overflow:visible;enable-background:accumulate"
       sodipodi:type="arc" />
    <rect
       style="opacity:0.24556213;color:#000000;fill:#000000;fill-opacity:0.29804131000000000;fill-rule:nonzero;stroke:none;stroke-width:0.99921262000000000;marker:none;visibility:visible;display:inline;overflow:visible;enable-background:accumulate"
       id="rect2989"
       width="7.2106271"
       height="44.155643"
       x="118.25034"
       y="97.667" />
    <g
       id="g3099"
       transform="translate(108.83588,97.959797)"
       inkscape:label="Gear8"
       style="fill:#000000;fill-opacity:1;stroke:none;opacity:0.24556213">
      <path
         id="path3101"
         d="m 10.199,-2.187 2.58,-0.553 0.862,0.027 3.719,1.772 0,1.882 -3.719,1.772 -0.862,0.027 -2.58,-0.553 -1.44,3.478 2.215,1.433 0.59,0.629 1.376,3.883 -1.33,1.33 -3.883,-1.376 -0.629,-0.59 -1.433,-2.215 -3.478,1.44 0.553,2.58 -0.027,0.862 -1.772,3.719 -1.882,0 -1.772,-3.719 -0.027,-0.862 0.553,-2.58 -3.478,-1.44 -1.433,2.215 -0.629,0.59 -3.883,1.376 -1.33,-1.33 1.376,-3.883 0.59,-0.629 2.215,-1.433 -1.44,-3.478 -2.58,0.553 -0.862,-0.027 -3.719,-1.772 0,-1.882 3.719,-1.772 0.862,-0.027 2.58,0.553 1.44,-3.478 -2.215,-1.433 -0.59,-0.629 -1.376,-3.883 1.33,-1.33 3.883,1.376 0.629,0.59 1.433,2.215 3.478,-1.44 -0.553,-2.58 0.027,-0.862 1.772,-3.719 1.882,0 1.772,3.719 0.027,0.862 -0.553,2.58 3.478,1.44 1.433,-2.215 0.629,-0.59 3.883,-1.376 1.33,1.33 -1.376,3.883 -0.59,0.629 -2.215,1.433 z"
         style="fill:#000000;stroke:none;fill-opacity:1"
         inkscape:connector-curvature="0" />
    </g>
    <text
       xml:space="preserve"
       style="font-size:8px;font-style:normal;font-variant:normal;font-weight:normal;font-stretch:normal;line-height:125%;letter-spacing:0px;word-spacing:0px;fill:#000000;fill-opacity:1;stroke:none;font-family:Aleo;-inkscape-font-specification:Aleo;opacity:0.24556213"
       x="135.32256"
       y="88.222092"
       id="text3881"
       sodipodi:linespacing="125%"
       transform="translate(0,2.5390623e-6)"><tspan
         sodipodi:role="line"
         id="tspan3883"
         x="135.32256"
         y="88.222092">&gt;&gt;&gt; px_per_mm = 7.211 / 2</tspan><tspan
         sodipodi:role="line"
         x="135.32256"
         y="98.222092"
         id="tspan3885">&gt;&gt;&gt; pi * 2 * (9.750 + 5.68)/2 * px_per_mm / 16</tspan><tspan
         sodipodi:role="line"
         x="135.32256"
         y="108.22209"
         id="tspan3887">10.92 = Kreisteilung</tspan><tspan
         sodipodi:role="line"
         x="135.32256"
         y="118.22209"
         id="tspan3889" /></text>
    <path
       style="color:#000000;fill:#000000;fill-opacity:0.24313725;fill-rule:nonzero;stroke:none;stroke-width:0.99921262;marker:none;visibility:visible;display:inline;overflow:visible;enable-background:accumulate"
       d="m 143.72814,185.79821 0,5.125 -5.125,0 0,6.375 5.125,0 0,5.15625 6.375,0 0,-5.15625 5.15625,0 0,-6.375 -5.15625,0 0,-5.125 -6.375,0 z"
       id="rect4051"
       inkscape:connector-curvature="0" />
  </g>
</svg>
