<?xml version="1.0" encoding="UTF-8" standalone="no"?>
<!-- Created with Inkscape (http://www.inkscape.org/) -->

<svg
   xmlns:dc="http://purl.org/dc/elements/1.1/"
   xmlns:cc="http://creativecommons.org/ns#"
   xmlns:rdf="http://www.w3.org/1999/02/22-rdf-syntax-ns#"
   xmlns:svg="http://www.w3.org/2000/svg"
   xmlns="http://www.w3.org/2000/svg"
   xmlns:sodipodi="http://sodipodi.sourceforge.net/DTD/sodipodi-0.dtd"
   xmlns:inkscape="http://www.inkscape.org/namespaces/inkscape"
   width="744.09448"
   height="1052.3622"
   id="svg3752"
   version="1.1"
   inkscape:version="0.48.5 r10040"
   sodipodi:docname="johanna.svg">
  <defs
     id="defs3754" />
  <sodipodi:namedview
     id="base"
     pagecolor="#ffffff"
     bordercolor="#666666"
     borderopacity="1.0"
     inkscape:pageopacity="0.0"
     inkscape:pageshadow="2"
     inkscape:zoom="1.979899"
     inkscape:cx="588.51049"
     inkscape:cy="424.67469"
     inkscape:document-units="mm"
     inkscape:current-layer="layer1"
     showgrid="false"
     units="mm"
     inkscape:window-width="1680"
     inkscape:window-height="1023"
     inkscape:window-x="73"
     inkscape:window-y="-9"
     inkscape:window-maximized="1"
     inkscape:object-nodes="true"
     inkscape:snap-object-midpoints="true"
     inkscape:snap-smooth-nodes="false"
     inkscape:snap-midpoints="true"
     showguides="true"
     inkscape:guide-bbox="true">
    <sodipodi:guide
       orientation="0,1"
       position="556.70798,409.99531"
       id="guide4624" />
  </sodipodi:namedview>
  <metadata
     id="metadata3757">
    <rdf:RDF>
      <cc:Work
         rdf:about="">
        <dc:format>image/svg+xml</dc:format>
        <dc:type
           rdf:resource="http://purl.org/dc/dcmitype/StillImage" />
        <dc:title></dc:title>
      </cc:Work>
    </rdf:RDF>
  </metadata>
  <g
     inkscape:label="Ebene 1"
     inkscape:groupmode="layer"
     id="layer1"
     transform="translate(0,-2.5390623e-6)">
    <path
       inkscape:connector-curvature="0"
       style="opacity:0.75739644;color:#000000;fill:#d45500;fill-opacity:0.2750809;fill-rule:nonzero;stroke:none;stroke-width:0.99921262;marker:none;visibility:visible;display:inline;overflow:visible;enable-background:accumulate"
       d="m 607.38051,519.0763 -2.94326,13.8469 -22.52796,-4.78846 -22.10361,103.9893 13.87747,2.94975 -1.83871,8.65049 13.87747,2.94975 -2.76134,12.99102 -5.22698,-1.11102 -8.4724,39.85951 5.22698,1.11103 -2.76133,12.99102 6.90817,1.46838 2.76134,-12.99102 5.19641,1.10453 8.4724,-39.85952 -5.19641,-1.10453 2.76133,-12.99102 13.87746,2.94975 1.83872,-8.6505 13.84691,2.94325 22.10361,-103.9893 -22.52796,-4.78847 2.94324,-13.8469 -17.33155,-3.68394 z"
       id="path3817" />
    <path
       style="opacity:0.31666667;color:#000000;fill:#000000;fill-opacity:1;fill-rule:nonzero;stroke:none;stroke-width:10;marker:none;visibility:visible;display:inline;overflow:visible;enable-background:accumulate"
       d="m 480.91834,521.31679 0,85.34375 c 0,15.21586 -10.65625,13.60356 -10.65625,20.75 l 0,11.9375 c 0,7.9243 -8.95547,20.7316 -12.84375,22.25 -8.13997,2.33906 -14.09375,9.82655 -14.09375,18.71875 0,10.76303 8.73697,19.5 19.5,19.5 10.76303,0 19.46875,-8.73697 19.46875,-19.5 0,-1.31195 -0.25142,-3.19286 -0.375,-3.8125 -1.3466,-8.56372 19.40016,-23.46875 25.03125,-23.46875 l 5.84375,0 0,-10.625 0,-30.53125 0,-13.15625 0,-4.5625 0,-72.84375 -31.875,0 z m 10.625,10.625 10.625,0 0,10.625 0,10.625 0,10.625 0,12.34375 0,14.46875 0,39.4375 0,12.34375 -10.625,0 -10.65625,0 0,-12.71875 10.65625,0 0,-49.71875 0,-3.8125 0,-12.5625 0,-2.25 0,-8.15625 0,-2.3125 0,-18.9375 z m -28.71875,140.9375 c 4.10952,0 7.4375,3.32798 7.4375,7.4375 0,4.10952 -3.32798,7.4375 -7.4375,7.4375 -4.10952,0 -7.46875,-3.32798 -7.46875,-7.4375 0,-4.10952 3.35923,-7.4375 7.46875,-7.4375 z"
       id="path4601"
       inkscape:connector-curvature="0" />
    <g
       style="display:inline"
       id="g8952"
       transform="translate(408.69504,-378.50237)">
      <g
         id="g8954"
         transform="matrix(0,1,-1,0,854.96656,776.38976)"
         style="display:inline">
        <g
           style="fill:#000000;fill-opacity:0.26537218;stroke:none"
           inkscape:label="Gear30"
           transform="translate(141.0785,458.26436)"
           id="g8956">
          <path
             style="font-size:medium;font-style:normal;font-variant:normal;font-weight:normal;font-stretch:normal;text-indent:0;text-align:start;text-decoration:none;line-height:normal;letter-spacing:normal;word-spacing:normal;text-transform:none;direction:ltr;block-progression:tb;writing-mode:lr-tb;text-anchor:start;baseline-shift:baseline;color:#000000;fill:#000000;fill-opacity:0.26537218;stroke:none;stroke-width:0.77952754;marker:none;visibility:visible;display:inline;overflow:visible;enable-background:accumulate;font-family:Sans;-inkscape-font-specification:Sans"
             d="m 24.53125,-24.96875 -0.28125,0.03125 -1.3125,0.125 -0.25,0.03125 -0.0625,0.25 -0.5625,1.875 0,0.0625 0,0.03125 -0.125,1.53125 -1.1875,0.25 L 20.0625,-22.125 20.03125,-22.1875 20,-22.21875 l -1.25,-1.46875 -0.1875,-0.21875 -0.25,0.09375 -1.25,0.40625 -0.25,0.0625 0,0.28125 -0.15625,1.9375 0,0.0625 0,0.03125 0.21875,1.53125 -1.09375,0.5 -1,-1.1875 L 14.75,-20.21875 14.71875,-20.25 13.1875,-21.46875 12.96875,-21.625 12.75,-21.5 l -1.15625,0.6875 -0.21875,0.125 0.03125,0.25 0.28125,1.9375 0,0.03125 0,0.0625 0.53125,1.46875 L 11.25,-16.25 10.03125,-17.21875 10,-17.25 l -0.03125,0 -1.75,-0.84375 -0.25,-0.125 -0.1875,0.1875 -0.96875,0.875 L 6.59375,-17 l 0.09375,0.25 0.65625,1.84375 0.03125,0.03125 0,0.0625 0.8125,1.3125 -0.78125,0.875 -1.375,-0.6875 -0.0625,0 -0.03125,-0.03125 -1.90625,-0.4375 -0.25,-0.0625 -0.15625,0.1875 -0.78125,1.0625 -0.15625,0.21875 0.15625,0.21875 1.03125,1.6875 0.03125,0.03125 0,0.03125 L 5,-9.3125 l -0.59375,1.03125 -1.5,-0.375 -0.0625,0 -0.03125,0 -1.96875,-0.0625 -0.25,0 -0.09375,0.25 -0.53125,1.1875 -0.125,0.25 0.1875,0.1875 1.34375,1.40625 0.03125,0.03125 0.03125,0.03125 1.28125,0.84375 -0.375,1.15625 -1.53125,-0.0625 -0.03125,0 -0.0625,0 -1.90625,0.34375 -0.28125,0.0625 L -1.5,-2.78125 -1.78125,-1.5 -1.84375,-1.25 -1.625,-1.09375 0,0 0.03125,0.03125 0.0625,0.0625 1.5,0.65625 l -0.125,1.1875 -1.53125,0.25 -0.03125,0 -0.03125,0.03125 -1.8125,0.71875 -0.25,0.125 0,0.25 0,1.3125 0,0.25 0.25,0.125 1.8125,0.71875 0.03125,0.03125 0.03125,0 1.53125,0.25 L 1.5,7.09375 0.0625,7.6875 0.03125,7.71875 0,7.75 -1.625,8.84375 -1.84375,9 l 0.0625,0.25 0.28125,1.28125 0.03125,0.25 0.28125,0.0625 1.90625,0.34375 0.0625,0 0.03125,0 1.53125,-0.0625 0.375,1.15625 L 1.4375,13.125 1.40625,13.15625 1.375,13.1875 l -1.34375,1.40625 -0.1875,0.1875 0.125,0.25 0.53125,1.1875 0.09375,0.25 0.25,0 1.96875,-0.0625 0.03125,0 0.0625,0 1.5,-0.375 c 0.822377,1.114187 0.399688,1.225312 -0.5,2.125 l 0,0.03125 -0.03125,0.03125 -1.03125,1.6875 -0.15625,0.21875 0.15625,0.21875 0.78125,1.0625 0.15625,0.1875 0.25,-0.0625 1.90625,-0.4375 0.03125,-0.03125 0.0625,0 1.375,-0.6875 0.78125,0.875 -0.8125,1.3125 0,0.0625 L 7.34375,22.65625 6.6875,24.5 l -0.09375,0.25 0.21875,0.15625 0.96875,0.875 0.1875,0.1875 0.25,-0.125 L 9.96875,25 10,25 10.03125,24.96875 11.25,24 l 0.96875,0.6875 -0.53125,1.46875 0,0.0625 0,0.03125 -0.28125,1.9375 -0.03125,0.25 0.21875,0.125 L 12.75,29.25 12.96875,29.375 13.1875,29.21875 14.71875,28 14.75,27.96875 l 0.03125,-0.03125 1,-1.1875 1.09375,0.5 -0.21875,1.53125 0,0.03125 0,0.0625 0.15625,1.9375 0,0.28125 0.25,0.0625 1.25,0.40625 0.25,0.09375 L 18.75,31.4375 20,29.96875 20.03125,29.9375 20.0625,29.875 20.75,28.53125 l 1.1875,0.25 0.125,1.53125 0,0.03125 0,0.0625 0.5625,1.875 0.0625,0.25 0.25,0.03125 1.3125,0.125 0.28125,0.03125 0.125,-0.21875 0.90625,-1.75 0.03125,-0.03125 0,-0.03125 0.4375,-1.5 1.1875,0 0.4375,1.5 0,0.03125 0.03125,0.03125 0.90625,1.75 0.125,0.21875 L 29,32.6875 l 1.3125,-0.125 0.25,-0.03125 0.0625,-0.25 0.5625,-1.875 0,-0.0625 0,-0.03125 0.125,-1.53125 1.1875,-0.25 0.6875,1.34375 0.03125,0.0625 0.03125,0.03125 1.25,1.46875 0.1875,0.21875 0.25,-0.09375 1.25,-0.40625 0.25,-0.0625 0,-0.28125 0.15625,-1.9375 0,-0.0625 0,-0.03125 L 36.375,27.25 l 1.09375,-0.5 1,1.1875 L 38.5,27.96875 38.53125,28 40.0625,29.21875 40.28125,29.375 40.5,29.25 l 1.15625,-0.6875 0.21875,-0.125 -0.03125,-0.25 -0.28125,-1.9375 0,-0.03125 0,-0.0625 L 41.03125,24.6875 42,24 43.21875,24.96875 43.25,25 l 0.03125,0 1.75,0.84375 0.25,0.125 0.1875,-0.1875 0.96875,-0.875 L 46.65625,24.75 46.5625,24.5 45.90625,22.65625 45.875,22.625 l 0,-0.0625 -0.8125,-1.3125 0.78125,-0.875 1.375,0.6875 0.0625,0 0.03125,0.03125 1.90625,0.4375 0.25,0.0625 0.15625,-0.1875 0.78125,-1.0625 0.15625,-0.21875 -0.15625,-0.21875 -1.03125,-1.6875 -0.03125,-0.03125 0,-0.03125 -1.09375,-1.09375 0.59375,-1.03125 1.5,0.375 0.0625,0 0.03125,0 1.96875,0.0625 0.25,0 0.09375,-0.25 0.53125,-1.1875 0.125,-0.25 -0.1875,-0.1875 L 51.875,13.1875 51.84375,13.15625 51.8125,13.125 l -1.28125,-0.84375 0.375,-1.15625 1.53125,0.0625 0.03125,0 0.0625,0 1.90625,-0.34375 0.28125,-0.0625 0.03125,-0.25 L 55.03125,9.25 55.09375,9 54.875,8.84375 53.25,7.75 53.21875,7.71875 53.1875,7.6875 51.75,7.09375 l 0.125,-1.1875 1.53125,-0.25 0.03125,0 0.03125,-0.03125 1.8125,-0.71875 0.25,-0.125 0,-0.25 0,-1.3125 0,-0.25 -0.25,-0.125 -1.8125,-0.71875 -0.03125,-0.03125 -0.03125,0 L 51.875,1.84375 51.75,0.65625 53.1875,0.0625 53.21875,0.03125 53.25,0 54.875,-1.09375 55.09375,-1.25 55.03125,-1.5 54.75,-2.78125 l -0.03125,-0.25 -0.28125,-0.0625 -1.90625,-0.34375 -0.0625,0 -0.03125,0 -1.53125,0.0625 -0.375,-1.15625 1.28125,-0.84375 0.03125,-0.03125 0.03125,-0.03125 1.34375,-1.40625 0.1875,-0.1875 -0.125,-0.25 -0.53125,-1.1875 -0.09375,-0.25 -0.25,0 -1.96875,0.0625 -0.03125,0 -0.0625,0 -1.5,0.375 -0.59375,-1.03125 1.09375,-1.09375 0,-0.03125 0.03125,-0.03125 1.03125,-1.6875 0.15625,-0.21875 -0.15625,-0.21875 -0.78125,-1.0625 -0.15625,-0.1875 -0.25,0.0625 -1.90625,0.4375 -0.03125,0.03125 -0.0625,0 -1.375,0.6875 -0.78125,-0.875 0.8125,-1.3125 0,-0.0625 0.03125,-0.03125 0.65625,-1.84375 0.09375,-0.25 -0.21875,-0.15625 -0.96875,-0.875 -0.1875,-0.1875 -0.25,0.125 -1.75,0.84375 -0.03125,0 -0.03125,0.03125 L 42,-16.25 l -0.96875,-0.6875 0.53125,-1.46875 0,-0.0625 0,-0.03125 0.28125,-1.9375 0.03125,-0.25 -0.21875,-0.125 L 40.5,-21.5 40.28125,-21.625 40.0625,-21.46875 38.53125,-20.25 38.5,-20.21875 l -0.03125,0.03125 -1,1.1875 -1.09375,-0.5 0.21875,-1.53125 0,-0.03125 0,-0.0625 -0.15625,-1.9375 0,-0.28125 -0.25,-0.0625 -1.25,-0.40625 -0.25,-0.09375 -0.1875,0.21875 -1.25,1.46875 -0.03125,0.03125 -0.03125,0.0625 -0.6875,1.34375 -1.1875,-0.25 -0.125,-1.53125 0,-0.03125 0,-0.0625 -0.5625,-1.875 -0.0625,-0.25 -0.25,-0.03125 -1.3125,-0.125 -0.28125,-0.03125 -0.125,0.21875 -0.90625,1.75 -0.03125,0.03125 0,0.03125 -0.4375,1.5 -1.1875,0 -0.4375,-1.5 0,-0.03125 L 25.5625,-23 24.65625,-24.75 z"
             id="path8958"
             inkscape:connector-curvature="0"
             sodipodi:nodetypes="cccccccccccccccccccccccccccccccccccccccccccccccccccccccccccccccccccccccccccccccccccccccccccccccccccccccccccccccccccccccccccccccccccccccccccccccccccccccccccccccccccccccccccccccccccccccccccccccccccccccccccccccccccccccccccccccccccccccccccccccccccccccccccccccccccccccccccccccccccccccccccccccccccccccccccccccccccccccccccccccccccccccccccccccccccccccccccccccccccccccccccccccccccccccccccccccccccccccccccccccccccccccccccccccccccc" />
        </g>
      </g>
      <path
         inkscape:connector-curvature="0"
         id="path8960"
         d="m 389.62407,935.76513 0,5.125 -5.125,0 0,6.375 5.125,0 0,5.15625 6.375,0 0,-5.15625 5.15625,0 0,-6.375 -5.15625,0 0,-5.125 -6.375,0 z"
         style="color:#000000;fill:#000000;fill-opacity:0.24313725;fill-rule:nonzero;stroke:none;stroke-width:0.99921262;marker:none;visibility:visible;display:inline;overflow:visible;enable-background:accumulate" />
      <path
         style="opacity:0.75739644;color:#000000;fill:#00ff00;fill-opacity:0.20392157;fill-rule:nonzero;stroke:none;stroke-width:0.77952754;marker:none;visibility:visible;display:inline;overflow:visible;enable-background:accumulate"
         d="m 392.83539,923.93751 -2.58632,5.8125 2.58632,0 2.56993,0 -2.56993,-5.8125 z"
         id="path8962"
         inkscape:connector-curvature="0" />
    </g>
    <path
       style="opacity:0.75739644;color:#000000;fill:#000000;fill-opacity:0.2750809;fill-rule:nonzero;stroke:none;stroke-width:0.99921262;marker:none;visibility:visible;display:inline;overflow:visible;enable-background:accumulate"
       d="m 658.04683,531.95811 -10.625,0 0,-13.375 -17.71875,0 0,-16.65625 17.71875,0 0,-5.65625 -90.71875,0 0,5.65625 17.71875,0 0,16.65625 -17.71875,0 0,13.375 -10.625,0 0,34.78125 0,13.25 -0.0312,0 0,10.625 0.0312,0 0,24.5 0,14.125 6.8125,1.4375 -2.21875,10.375 10.40625,2.21875 2.21875,-10.40625 -3.46875,-0.71875 22.09375,-104 12.125,2.5625 2.21875,-10.375 10.375,2.21875 0.0312,0 0.71875,-3.46875 17.34375,3.6875 -0.75,3.4375 10.40625,2.21875 -2.21875,10.40625 12.125,2.5625 -22.09375,104 -3.4375,-0.71875 -2.2187,10.375 10.40625,2.21875 0.46875,-2.21875 1.71875,-8.1875 10.40625,2.21875 7.875,0 0,-6.75 10.625,0 0,-27.21875 0,-24.5 0,-10.625 0,-13.25 0,-34.78125 z"
       id="path8102"
       inkscape:connector-curvature="0" />
    <path
       style="opacity:0.75739644;color:#000000;fill:#000000;fill-opacity:0.26666667;fill-rule:nonzero;stroke:none;stroke-width:0.77952754;marker:none;visibility:visible;display:inline;overflow:visible;enable-background:accumulate"
       d="m 876.59706,568.40835 c -1.0146,-12.81328 7.046,-20.21012 7.8795,-32.76644 l 0.5583,-0.0685 c -0.1819,-1.48235 -0.5147,-4.44958 -0.719,-6.11421 l -0.031,0.004 -0.5749,-4.6836 21.1228,-2.59255 0.5748,4.68359 -10.5458,1.29439 1.2943,10.54586 5.273,-0.64719 5.2729,-0.6472 0.065,0.52731 c 13.3209,0.87615 24.5658,11.09455 26.2517,24.83062 1.1873,9.67355 -2.6458,18.79983 -9.4586,24.7743 l 1.8921,15.41592 c 0.6622,5.39512 -3.0539,11.07921 -9.2515,11.83989 l -10.5458,1.29438 c -4.8408,0.59415 -11.1109,-3.3088 -11.8402,-9.25116 -2.0794,-16.94187 -15.1444,-21.54985 -17.0612,-37.16747 -0.052,-0.42492 -0.1234,-0.85837 -0.1561,-1.27171 z m 10.702,-0.0227 c 1.192,9.71169 10.0298,16.5892 19.7415,15.39721 9.7117,-1.192 16.624,-10.00263 15.432,-19.71432 -1.192,-9.7117 -10.0336,-16.62021 -19.7453,-15.42823 -9.7117,1.192 -16.6202,10.03365 -15.4282,19.74534 z m 15.7668,26.62128 1.2943,10.54585 10.5459,-1.29437 -1.2944,-10.54586 -5.2729,0.64719 z"
       id="path8228"
       inkscape:connector-curvature="0"
       sodipodi:nodetypes="cccccccccccccscccccscssssscccccc" />
    <path
       inkscape:connector-curvature="0"
       style="opacity:0.75739644;color:#000000;fill:#000000;fill-opacity:0.26666667;fill-rule:nonzero;stroke:none;stroke-width:0.77952754;marker:none;visibility:visible;display:inline;overflow:visible;enable-background:accumulate"
       d="m 341.95318,496.30186 0,0.0312 0,6.6875 0.0312,0 4.03125,0 2,0 0,14.65625 -2,0 -4.03125,0 -0.0312,0 0,13.6875 0.0312,0 4.03125,0 2,0 0,14.65625 -2,0 -4.03125,0 -0.0312,0 0,13.6875 0.0312,0 4.03125,0 2,0 0,14.65625 -2,0 -4.03125,0 -0.0312,0 0,13.6875 0.0312,0 4.03125,0 2,0 0,14.65625 -2,0 -4.03125,0 -0.0312,0 0,13.625 0.0312,0 4.03125,0 2,0 0,14.65625 -2,0 -4.03125,0 -0.0312,0 0,13.75 0.0312,0 4.03125,0 2,0 0,14.65625 -2,0 -4.03125,0 -0.0312,0 0,13.6875 0.0312,0 4.03125,0 2,0 0,14.6875 -6.03125,0 0,-0.0312 -0.0312,0 0,13.6875 0.0312,0 4.03125,0 2,0 0,14.6875 -6.03125,0 0,-0.0312 -0.0312,0 0,6.65625 20.3125,0 25.40625,0 0,-0.0625 17.21875,0 0,0.0625 7.875,0 0.0937,-0.0625 6.625,0 0.0312,0.0625 2.71875,0 0,-0.0625 16.65625,0 0,0.0625 5.125,0 0,-0.0625 0,-14.125 0,-198.0625 0,-14.1875 -102.0625,0 z m 17.375,19.90625 6.375,0 0,5.15625 5.15625,0 0,6.375 -5.15625,0 0,5.125 -6.375,0 0,-5.125 -5.125,0 0,-6.375 5.125,0 0,-5.15625 z m 34,0 6.375,0 0,5.15625 5.15625,0 0,6.375 -5.15625,0 0,5.125 -6.375,0 0,-1.375 -2.46875,-2.4375 -3.625,3.625 -4.5,-4.5 3.625,-3.625 -3.625,-3.625 4.5,-4.53125 3.625,3.625 2.46875,-2.4375 0,-1.375 z m 34.03125,0 6.375,0 0,5.15625 5.15625,0 0,6.375 -5.15625,0 0,5.125 -6.375,0 0,-4.65625 -4.46875,4.46875 -3.65625,-3.625 -3.625,3.625 -4.5,-4.53125 3.625,-3.625 -3.625,-3.625 4.5,-4.5 3.625,3.625 3.65625,-3.65625 4.46875,4.5 0,-4.65625 z m -68.03125,28.34375 6.375,0 0,5.15625 5.15625,0 0,6.375 -1.375,0 -2.46875,2.46875 3.65625,3.65625 -4.5,4.5 -3.65625,-3.65625 -3.625,3.625 -4.5,-4.5 3.625,-3.625 -2.46875,-2.46875 -1.34375,0 0,-6.375 5.125,0 0,-5.15625 z m 68.03125,0 6.375,0 0,5.15625 5.15625,0 0,6.375 -5.15625,0 0,5.125 -6.375,0 0,-3.65625 -3.75,2.1875 2.5625,4.4375 -5.53125,3.1875 -2.5625,-4.4375 -4.4375,2.5625 -3.1875,-5.53125 4.4375,-2.5625 -2.5625,-4.46875 5.5,-3.1875 2.59375,4.46875 1.8125,-1.03125 0,-3.46875 5.125,0 0,-5.15625 z m -35.96875,1.65625 10.625,0 0,10.625 0,10.625 0,10.625 0,12.34375 0,3.8125 0,0.0312 0,10.625 0,39.4375 0,12.34375 -10.625,0 -10.65625,0 0,-12.71875 10.65625,0 0,-49.71875 0,-3.8125 0,-12.5625 0,-2.25 0,-8.15625 0,-2.3125 0,-18.9375 z m -32.0625,26.6875 6.375,0 0,5.15625 5.15625,0 0,6.375 -4.65625,0 4.46875,4.5 -3.65625,3.625 3.65625,3.65625 -4.5,4.5 -3.65625,-3.625 -3.625,3.625 -4.5,-4.53125 3.625,-3.625 -3.625,-3.625 4.5,-4.5 -4.6875,0 0,-6.375 5.125,0 0,-5.15625 z m 68.03125,0 6.375,0 0,5.15625 5.15625,0 0,6.375 -5.15625,0 0,5.125 -6.375,0 0,-5.125 -5.125,0 0,-6.375 5.125,0 0,-5.15625 z m -9.03125,10.78125 6.15625,1.65625 -1.34375,4.96875 4.96875,1.34375 -1.625,6.15625 -5,-1.3125 -1.3125,4.9375 -6.15625,-1.65625 1.3125,-4.9375 -4.9375,-1.34375 1.65625,-6.15625 4.9375,1.34375 1.34375,-5 z m -59,17.5625 6.375,0 0,5.15625 5.15625,0 0,6.375 -5.15625,0 0,5.125 -6.375,0 0,-5.125 -5.125,0 0,-6.375 5.125,0 0,-5.15625 z m 68.03125,0 6.375,0 0,5.15625 5.15625,0 0,6.375 -5.15625,0 0,5.125 -6.375,0 0,-5.125 -5.125,0 0,-6.375 5.125,0 0,-5.15625 z m -7.1875,16.46875 1.34375,4.96875 4.96875,-1.3125 1.65625,6.15625 -5,1.3125 1.34375,4.96875 -6.15625,1.65625 -1.34375,-4.96875 -4.9375,1.34375 -1.65625,-6.15625 4.96875,-1.34375 -1.34375,-4.96875 6.15625,-1.65625 z m -60.84375,0.53125 6.375,0 0,5.15625 5.15625,0 0,6.375 -5.15625,0 0,4.9375 5.15625,0 0,6.375 -5.15625,0 0,5.125 -6.375,0 0,-5.125 -5.125,0 0,-6.375 5.125,0 0,-4.9375 -5.125,0 0,-6.375 5.125,0 0,-5.15625 z m 68.03125,11.3125 6.375,0 0,5.15625 5.15625,0 0,6.375 -5.15625,0 0,5.125 -6.375,0 0,-5.125 -5.125,0 0,-6.375 5.125,0 0,-5.15625 z m -6.6875,22.25 5.53125,3.1875 -2.5625,4.4375 3.71875,2.15625 0,-3.65625 6.375,0 0,5.15625 5.15625,0 0,6.375 -5.15625,0 0,5.125 -6.375,0 0,-5.125 -5.125,0 0,-3.46875 -1.78125,-1.03125 -2.59375,4.4375 -5.53125,-3.1875 2.59375,-4.4375 -4.46875,-2.59375 3.1875,-5.53125 4.46875,2.59375 2.5625,-4.4375 z m -61.78125,0.625 3.625,3.65625 3.625,-3.625 4.5,4.5 -3.625,3.625 2.46875,2.46875 1.34375,0 0,6.375 -5.125,0 0,5.15625 -6.375,0 0,-5.15625 -5.15625,0 0,-6.375 1.375,0 2.46875,-2.46875 -3.65625,-3.65625 4.53125,-4.5 z m 34.4375,5.53125 6.375,0 0,5.125 5.15625,0 0,6.375 -5.15625,0 0,5.15625 -6.375,0 0,-5.15625 -5.125,0 0,-6.375 5.125,0 0,-5.125 z m -30.65625,28.125 c 4.69659,0 8.5,3.8034 8.5,8.5 0,4.6966 -3.80341,8.5 -8.5,8.5 -4.69659,0 -8.5,-3.8034 -8.5,-8.5 0,-4.6966 3.80341,-8.5 8.5,-8.5 z m 30.6875,0.1875 6.375,0 0,5.15625 5.15625,0 0,6.375 -5.15625,0 0,5.125 -6.375,0 0,-1.3125 -2.5,-2.5 -3.625,3.625 -4.5,-4.5 3.625,-3.625 -3.625,-3.625 4.5,-4.5 3.625,3.625 2.5,-2.5 0,-1.34375 z m 34,0 6.375,0 0,5.15625 5.15625,0 0,6.375 -5.15625,0 0,5.125 -6.375,0 0,-4.625 -4.46875,4.46875 -3.65625,-3.65625 -3.625,3.625 -4.5,-4.5 3.625,-3.625 -3.625,-3.625 4.5,-4.5 3.625,3.625 3.65625,-3.65625 4.46875,4.46875 0,-4.65625 z"
       id="path8901" />
    <path
       inkscape:connector-curvature="0"
       id="path8918"
       d="m 867.56943,639.30721 c -0.19171,-3.78207 -1.48334,-7.27846 -3.53125,-10.1875 l 0,-8.28125 0,-10.625 -10.625,0 0,10.625 -10.625,0 0,-10.625 -10.625,0 0,10.625 0,8.21875 c -2.2509,3.1736 -3.5625,7.06139 -3.5625,11.25 0,4.18661 1.31356,8.04022 3.5625,11.21875 l 0,8.28125 0,10.625 10.625,0 0,-10.625 5.3125,0 5.3125,0 0,10.625 10.625,0 0,-10.625 0,-8.375 c 2.20534,-3.16192 3.53125,-6.97718 3.53125,-11.125 0,-0.33634 0.0168,-0.66784 0,-1 z m -10.625,1 c 0,4.89229 -3.95146,8.875 -8.84375,8.875 -4.89229,0 -8.875,-3.98271 -8.875,-8.875 0,-4.89229 3.98271,-8.84375 8.875,-8.84375 4.89229,0 8.84375,3.95146 8.84375,8.84375 z"
       style="opacity:0.75739644;color:#000000;fill:#000000;fill-opacity:0.26666667;fill-rule:nonzero;stroke:none;stroke-width:0.77952754;marker:none;visibility:visible;display:inline;overflow:visible;enable-background:accumulate" />
    <g
       transform="translate(236.37588,-250.2919)"
       style="display:inline"
       id="g8945">
      <g
         style="display:inline"
         transform="matrix(0,1,-1,0,854.96656,776.38976)"
         id="g8921">
        <g
           id="g8923"
           transform="translate(141.0785,458.26436)"
           inkscape:label="Gear30"
           style="fill:#000000;fill-opacity:0.26537218;stroke:none">
          <path
             sodipodi:nodetypes="cccccccccccccccccccccccccccccccccccccccccccccccccccccccccccccccccccccccccccccccccccccccccccccccccccccccccccccccccccccccccccccccccccccccccccccccccccccccccccccccccccccccccccccccccccccccccccccccccccccccccccccccccccccccccccccccccccccccccccccccccccccccccccccccccccccccccccccccccccccccccccccccccccccccccccccccccccccccccccccccccccccccccccccccccccccccccccccccccccccccccccccccccccccccccccccccccccccccccccccccccccccccccccccccccccc"
             inkscape:connector-curvature="0"
             id="path8925"
             d="m 24.53125,-24.96875 -0.28125,0.03125 -1.3125,0.125 -0.25,0.03125 -0.0625,0.25 -0.5625,1.875 0,0.0625 0,0.03125 -0.125,1.53125 -1.1875,0.25 L 20.0625,-22.125 20.03125,-22.1875 20,-22.21875 l -1.25,-1.46875 -0.1875,-0.21875 -0.25,0.09375 -1.25,0.40625 -0.25,0.0625 0,0.28125 -0.15625,1.9375 0,0.0625 0,0.03125 0.21875,1.53125 -1.09375,0.5 -1,-1.1875 L 14.75,-20.21875 14.71875,-20.25 13.1875,-21.46875 12.96875,-21.625 12.75,-21.5 l -1.15625,0.6875 -0.21875,0.125 0.03125,0.25 0.28125,1.9375 0,0.03125 0,0.0625 0.53125,1.46875 L 11.25,-16.25 10.03125,-17.21875 10,-17.25 l -0.03125,0 -1.75,-0.84375 -0.25,-0.125 -0.1875,0.1875 -0.96875,0.875 L 6.59375,-17 l 0.09375,0.25 0.65625,1.84375 0.03125,0.03125 0,0.0625 0.8125,1.3125 -0.78125,0.875 -1.375,-0.6875 -0.0625,0 -0.03125,-0.03125 -1.90625,-0.4375 -0.25,-0.0625 -0.15625,0.1875 -0.78125,1.0625 -0.15625,0.21875 0.15625,0.21875 1.03125,1.6875 0.03125,0.03125 0,0.03125 L 5,-9.3125 l -0.59375,1.03125 -1.5,-0.375 -0.0625,0 -0.03125,0 -1.96875,-0.0625 -0.25,0 -0.09375,0.25 -0.53125,1.1875 -0.125,0.25 0.1875,0.1875 1.34375,1.40625 0.03125,0.03125 0.03125,0.03125 1.28125,0.84375 -0.375,1.15625 -1.53125,-0.0625 -0.03125,0 -0.0625,0 -1.90625,0.34375 -0.28125,0.0625 L -1.5,-2.78125 -1.78125,-1.5 -1.84375,-1.25 -1.625,-1.09375 0,0 0.03125,0.03125 0.0625,0.0625 1.5,0.65625 l -0.125,1.1875 -1.53125,0.25 -0.03125,0 -0.03125,0.03125 -1.8125,0.71875 -0.25,0.125 0,0.25 0,1.3125 0,0.25 0.25,0.125 1.8125,0.71875 0.03125,0.03125 0.03125,0 1.53125,0.25 L 1.5,7.09375 0.0625,7.6875 0.03125,7.71875 0,7.75 -1.625,8.84375 -1.84375,9 l 0.0625,0.25 0.28125,1.28125 0.03125,0.25 0.28125,0.0625 1.90625,0.34375 0.0625,0 0.03125,0 1.53125,-0.0625 0.375,1.15625 L 1.4375,13.125 1.40625,13.15625 1.375,13.1875 l -1.34375,1.40625 -0.1875,0.1875 0.125,0.25 0.53125,1.1875 0.09375,0.25 0.25,0 1.96875,-0.0625 0.03125,0 0.0625,0 1.5,-0.375 c 0.822377,1.114187 0.399688,1.225312 -0.5,2.125 l 0,0.03125 -0.03125,0.03125 -1.03125,1.6875 -0.15625,0.21875 0.15625,0.21875 0.78125,1.0625 0.15625,0.1875 0.25,-0.0625 1.90625,-0.4375 0.03125,-0.03125 0.0625,0 1.375,-0.6875 0.78125,0.875 -0.8125,1.3125 0,0.0625 L 7.34375,22.65625 6.6875,24.5 l -0.09375,0.25 0.21875,0.15625 0.96875,0.875 0.1875,0.1875 0.25,-0.125 L 9.96875,25 10,25 10.03125,24.96875 11.25,24 l 0.96875,0.6875 -0.53125,1.46875 0,0.0625 0,0.03125 -0.28125,1.9375 -0.03125,0.25 0.21875,0.125 L 12.75,29.25 12.96875,29.375 13.1875,29.21875 14.71875,28 14.75,27.96875 l 0.03125,-0.03125 1,-1.1875 1.09375,0.5 -0.21875,1.53125 0,0.03125 0,0.0625 0.15625,1.9375 0,0.28125 0.25,0.0625 1.25,0.40625 0.25,0.09375 L 18.75,31.4375 20,29.96875 20.03125,29.9375 20.0625,29.875 20.75,28.53125 l 1.1875,0.25 0.125,1.53125 0,0.03125 0,0.0625 0.5625,1.875 0.0625,0.25 0.25,0.03125 1.3125,0.125 0.28125,0.03125 0.125,-0.21875 0.90625,-1.75 0.03125,-0.03125 0,-0.03125 0.4375,-1.5 1.1875,0 0.4375,1.5 0,0.03125 0.03125,0.03125 0.90625,1.75 0.125,0.21875 L 29,32.6875 l 1.3125,-0.125 0.25,-0.03125 0.0625,-0.25 0.5625,-1.875 0,-0.0625 0,-0.03125 0.125,-1.53125 1.1875,-0.25 0.6875,1.34375 0.03125,0.0625 0.03125,0.03125 1.25,1.46875 0.1875,0.21875 0.25,-0.09375 1.25,-0.40625 0.25,-0.0625 0,-0.28125 0.15625,-1.9375 0,-0.0625 0,-0.03125 L 36.375,27.25 l 1.09375,-0.5 1,1.1875 L 38.5,27.96875 38.53125,28 40.0625,29.21875 40.28125,29.375 40.5,29.25 l 1.15625,-0.6875 0.21875,-0.125 -0.03125,-0.25 -0.28125,-1.9375 0,-0.03125 0,-0.0625 L 41.03125,24.6875 42,24 43.21875,24.96875 43.25,25 l 0.03125,0 1.75,0.84375 0.25,0.125 0.1875,-0.1875 0.96875,-0.875 L 46.65625,24.75 46.5625,24.5 45.90625,22.65625 45.875,22.625 l 0,-0.0625 -0.8125,-1.3125 0.78125,-0.875 1.375,0.6875 0.0625,0 0.03125,0.03125 1.90625,0.4375 0.25,0.0625 0.15625,-0.1875 0.78125,-1.0625 0.15625,-0.21875 -0.15625,-0.21875 -1.03125,-1.6875 -0.03125,-0.03125 0,-0.03125 -1.09375,-1.09375 0.59375,-1.03125 1.5,0.375 0.0625,0 0.03125,0 1.96875,0.0625 0.25,0 0.09375,-0.25 0.53125,-1.1875 0.125,-0.25 -0.1875,-0.1875 L 51.875,13.1875 51.84375,13.15625 51.8125,13.125 l -1.28125,-0.84375 0.375,-1.15625 1.53125,0.0625 0.03125,0 0.0625,0 1.90625,-0.34375 0.28125,-0.0625 0.03125,-0.25 L 55.03125,9.25 55.09375,9 54.875,8.84375 53.25,7.75 53.21875,7.71875 53.1875,7.6875 51.75,7.09375 l 0.125,-1.1875 1.53125,-0.25 0.03125,0 0.03125,-0.03125 1.8125,-0.71875 0.25,-0.125 0,-0.25 0,-1.3125 0,-0.25 -0.25,-0.125 -1.8125,-0.71875 -0.03125,-0.03125 -0.03125,0 L 51.875,1.84375 51.75,0.65625 53.1875,0.0625 53.21875,0.03125 53.25,0 54.875,-1.09375 55.09375,-1.25 55.03125,-1.5 54.75,-2.78125 l -0.03125,-0.25 -0.28125,-0.0625 -1.90625,-0.34375 -0.0625,0 -0.03125,0 -1.53125,0.0625 -0.375,-1.15625 1.28125,-0.84375 0.03125,-0.03125 0.03125,-0.03125 1.34375,-1.40625 0.1875,-0.1875 -0.125,-0.25 -0.53125,-1.1875 -0.09375,-0.25 -0.25,0 -1.96875,0.0625 -0.03125,0 -0.0625,0 -1.5,0.375 -0.59375,-1.03125 1.09375,-1.09375 0,-0.03125 0.03125,-0.03125 1.03125,-1.6875 0.15625,-0.21875 -0.15625,-0.21875 -0.78125,-1.0625 -0.15625,-0.1875 -0.25,0.0625 -1.90625,0.4375 -0.03125,0.03125 -0.0625,0 -1.375,0.6875 -0.78125,-0.875 0.8125,-1.3125 0,-0.0625 0.03125,-0.03125 0.65625,-1.84375 0.09375,-0.25 -0.21875,-0.15625 -0.96875,-0.875 -0.1875,-0.1875 -0.25,0.125 -1.75,0.84375 -0.03125,0 -0.03125,0.03125 L 42,-16.25 l -0.96875,-0.6875 0.53125,-1.46875 0,-0.0625 0,-0.03125 0.28125,-1.9375 0.03125,-0.25 -0.21875,-0.125 L 40.5,-21.5 40.28125,-21.625 40.0625,-21.46875 38.53125,-20.25 38.5,-20.21875 l -0.03125,0.03125 -1,1.1875 -1.09375,-0.5 0.21875,-1.53125 0,-0.03125 0,-0.0625 -0.15625,-1.9375 0,-0.28125 -0.25,-0.0625 -1.25,-0.40625 -0.25,-0.09375 -0.1875,0.21875 -1.25,1.46875 -0.03125,0.03125 -0.03125,0.0625 -0.6875,1.34375 -1.1875,-0.25 -0.125,-1.53125 0,-0.03125 0,-0.0625 -0.5625,-1.875 -0.0625,-0.25 -0.25,-0.03125 -1.3125,-0.125 -0.28125,-0.03125 -0.125,0.21875 -0.90625,1.75 -0.03125,0.03125 0,0.03125 -0.4375,1.5 -1.1875,0 -0.4375,-1.5 0,-0.03125 L 25.5625,-23 24.65625,-24.75 z"
             style="font-size:medium;font-style:normal;font-variant:normal;font-weight:normal;font-stretch:normal;text-indent:0;text-align:start;text-decoration:none;line-height:normal;letter-spacing:normal;word-spacing:normal;text-transform:none;direction:ltr;block-progression:tb;writing-mode:lr-tb;text-anchor:start;baseline-shift:baseline;color:#000000;fill:#000000;fill-opacity:0.26537218;stroke:none;stroke-width:0.77952754;marker:none;visibility:visible;display:inline;overflow:visible;enable-background:accumulate;font-family:Sans;-inkscape-font-specification:Sans" />
        </g>
      </g>
      <path
         style="color:#000000;fill:#000000;fill-opacity:0.24313725;fill-rule:nonzero;stroke:none;stroke-width:0.99921262;marker:none;visibility:visible;display:inline;overflow:visible;enable-background:accumulate"
         d="m 389.62407,935.76513 0,5.125 -5.125,0 0,6.375 5.125,0 0,5.15625 6.375,0 0,-5.15625 5.15625,0 0,-6.375 -5.15625,0 0,-5.125 -6.375,0 z"
         id="path8932"
         inkscape:connector-curvature="0" />
      <path
         inkscape:connector-curvature="0"
         id="rect8939"
         d="m 392.83539,923.93751 -2.58632,5.8125 2.58632,0 2.56993,0 -2.56993,-5.8125 z"
         style="opacity:0.75739644;color:#000000;fill:#00ff00;fill-opacity:0.20392157;fill-rule:nonzero;stroke:none;stroke-width:0.77952754;marker:none;visibility:visible;display:inline;overflow:visible;enable-background:accumulate" />
    </g>
    <rect
       style="opacity:0.31666667;color:#000000;fill:#000000;fill-opacity:1;fill-rule:nonzero;stroke:none;stroke-width:10;marker:none;visibility:visible;display:inline;overflow:visible;enable-background:accumulate"
       id="rect3799"
       width="111.96877"
       height="13.37498"
       x="546.07806"
       y="518.58313" />
    <path
       sodipodi:type="arc"
       style="opacity:0.31666667;color:#000000;fill:#000000;fill-opacity:1;fill-rule:nonzero;stroke:none;stroke-width:10;marker:none;visibility:visible;display:inline;overflow:visible;enable-background:accumulate"
       id="path4569"
       sodipodi:cx="702.85712"
       sodipodi:cy="624.50507"
       sodipodi:rx="7.1428571"
       sodipodi:ry="7.1428571"
       d="m 709.99997,624.50507 a 7.1428571,7.1428571 0 1 1 -14.28571,0 7.1428571,7.1428571 0 1 1 14.28571,0 z"
       transform="matrix(0.58951043,0,0,0.58951043,48.46742,312.17348)" />
    <rect
       style="opacity:0.75739644;color:#000000;fill:#000000;fill-opacity:0.26666667;fill-rule:nonzero;stroke:none;stroke-width:0.77952754;marker:none;visibility:visible;display:inline;overflow:visible;enable-background:accumulate"
       id="rect3247"
       width="8.85917"
       height="43.543449"
       x="577.73358"
       y="658.55402" />
    <rect
       style="opacity:0.31666667;color:#000000;fill:#000000;fill-opacity:1;fill-rule:nonzero;stroke:none;stroke-width:10;marker:none;visibility:visible;display:inline;overflow:visible;enable-background:accumulate"
       id="rect4618"
       width="10.629921"
       height="247.56749"
       x="647.42181"
       y="518.58313" />
    <rect
       y="518.58313"
       x="546.07806"
       height="247.56749"
       width="10.629921"
       id="rect4620"
       style="opacity:0.31666667;color:#000000;fill:#000000;fill-opacity:1;fill-rule:nonzero;stroke:none;stroke-width:10;marker:none;visibility:visible;display:inline;overflow:visible;enable-background:accumulate" />
    <rect
       style="opacity:0.31666667;color:#000000;fill:#000000;fill-opacity:1;fill-rule:nonzero;stroke:none;stroke-width:10;marker:none;visibility:visible;display:inline;overflow:visible;enable-background:accumulate"
       id="rect4622"
       width="10.629921"
       height="247.56749"
       x="-685.64069"
       y="462.80902"
       transform="matrix(0,-1,1,0,0,0)" />
  </g>
</svg>
