<?xml version="1.0" encoding="UTF-8" standalone="no"?>
<!-- Created with Inkscape (http://www.inkscape.org/) -->

<svg
   xmlns:dc="http://purl.org/dc/elements/1.1/"
   xmlns:cc="http://creativecommons.org/ns#"
   xmlns:rdf="http://www.w3.org/1999/02/22-rdf-syntax-ns#"
   xmlns:svg="http://www.w3.org/2000/svg"
   xmlns="http://www.w3.org/2000/svg"
   xmlns:sodipodi="http://sodipodi.sourceforge.net/DTD/sodipodi-0.dtd"
   xmlns:inkscape="http://www.inkscape.org/namespaces/inkscape"
   width="744.09448"
   height="1052.3622"
   id="svg5275"
   version="1.1"
   inkscape:version="0.48.5 r10040"
   sodipodi:docname="roedel.svg">
  <defs
     id="defs5277" />
  <sodipodi:namedview
     id="base"
     pagecolor="#ffffff"
     bordercolor="#666666"
     borderopacity="1.0"
     inkscape:pageopacity="0.0"
     inkscape:pageshadow="2"
     inkscape:zoom="4"
     inkscape:cx="575.26375"
     inkscape:cy="945.0858"
     inkscape:document-units="mm"
     inkscape:current-layer="layer1"
     showgrid="false"
     inkscape:window-width="1900"
     inkscape:window-height="985"
     inkscape:window-x="1"
     inkscape:window-y="1"
     inkscape:window-maximized="1"
     units="mm"
     inkscape:object-paths="false"
     inkscape:object-nodes="true"
     inkscape:snap-object-midpoints="true"
     inkscape:snap-midpoints="true"
     inkscape:snap-smooth-nodes="true"
     showguides="true"
     inkscape:guide-bbox="true" />
  <metadata
     id="metadata5280">
    <rdf:RDF>
      <cc:Work
         rdf:about="">
        <dc:format>image/svg+xml</dc:format>
        <dc:type
           rdf:resource="http://purl.org/dc/dcmitype/StillImage" />
        <dc:title></dc:title>
      </cc:Work>
    </rdf:RDF>
  </metadata>
  <g
     inkscape:label="Ebene 1"
     inkscape:groupmode="layer"
     id="layer1"
     transform="translate(0,-2.5390623e-6)">
    <path
       style="opacity:0.75739644;color:#000000;fill:#000000;fill-opacity:0.39215686;fill-rule:nonzero;stroke:none;stroke-width:0.99921262;marker:none;visibility:visible;display:inline;overflow:visible;enable-background:accumulate"
       d="m 559.625,253.75 0,46.0625 10.625,0 0,-15.9375 21.28125,0 12.75,0 0,-1.78125 10.625,0 0,1.78125 3.53125,0 c 3.91383,0 7.09375,-3.17992 7.09375,-7.09375 0,-3.91383 -3.17992,-7.09375 -7.09375,-7.09375 l -3.53125,0 0,1.78125 -10.625,0 0,-1.75 -12.75,0 -21.28125,0 0,-15.96875 -10.625,0 z"
       id="path5728"
       inkscape:connector-curvature="0" />
    <path
       style="opacity:0.75739644;color:#000000;fill:#000000;fill-opacity:0.39215686;fill-rule:nonzero;stroke:none;stroke-width:0.99921262;marker:none;visibility:visible;display:inline;overflow:visible;enable-background:accumulate"
       d="m 522.9375,376.65625 c -21.52606,0 -38.96875,17.44269 -38.96875,38.96875 0,21.52606 17.44269,39 38.96875,39 21.52606,0 38.96875,-17.47394 38.96875,-39 0,-21.52606 -17.44269,-38.96875 -38.96875,-38.96875 z m -5.3125,33.65625 10.625,0 0,10.65625 -10.625,0 0,-10.65625 z"
       id="path5673"
       inkscape:connector-curvature="0" />
    <g
       style="display:inline"
       id="g9194"
       transform="matrix(0,1,1,0,660.23376,-298.02031)">
      <rect
         ry="0"
         y="-620.68115"
         x="358.80359"
         height="70.866135"
         width="141.73228"
         id="rect9196"
         style="opacity:0.75739644;color:#000000;fill:#473737;fill-opacity:0.75686275;fill-rule:nonzero;stroke:none;stroke-width:1;marker:none;visibility:visible;display:inline;overflow:visible;enable-background:accumulate" />
      <rect
         y="-587.90552"
         x="500.53589"
         height="5.3149605"
         width="14.173228"
         id="rect9198"
         style="opacity:0.75739644;color:#000000;fill:#483737;fill-opacity:1;fill-rule:nonzero;stroke:none;stroke-width:1;marker:none;visibility:visible;display:inline;overflow:visible;enable-background:accumulate" />
      <path
         transform="matrix(2.0842983,0,0,1.5405683,-2109.0056,-812.26956)"
         d="m 1218,147.36218 c 0,12.70255 -7.6112,23 -17,23 -9.3888,0 -17,-10.29745 -17,-23 0,-12.70255 7.6112,-23 17,-23 9.3888,0 17,10.29745 17,23 z"
         sodipodi:ry="23"
         sodipodi:rx="17"
         sodipodi:cy="147.36218"
         sodipodi:cx="1201"
         id="path9200"
         style="opacity:0.75739644;color:#000000;fill:#473737;fill-opacity:0.75686275;fill-rule:nonzero;stroke:none;stroke-width:1;marker:none;visibility:visible;display:inline;overflow:visible;enable-background:accumulate"
         sodipodi:type="arc" />
      <rect
         style="opacity:0.75739644;color:#000000;fill:#483737;fill-opacity:1;fill-rule:nonzero;stroke:none;stroke-width:1;marker:none;visibility:visible;display:inline;overflow:visible;enable-background:accumulate"
         id="rect9202"
         width="14.173228"
         height="5.3149605"
         x="344.63037"
         y="-587.90552" />
      <g
         transform="translate(-847.2996,-930.66421)"
         id="g9204">
        <path
           sodipodi:type="arc"
           style="opacity:0.75739644;color:#000000;fill:#483636;fill-opacity:0.57255111;fill-rule:nonzero;stroke:none;stroke-width:1;marker:none;visibility:visible;display:inline;overflow:visible;enable-background:accumulate"
           id="path9206"
           sodipodi:cx="1467.9537"
           sodipodi:cy="313.43561"
           sodipodi:rx="8.485281"
           sodipodi:ry="8.485281"
           d="m 1476.439,313.43561 c 0,4.68629 -3.799,8.48528 -8.4853,8.48528 -4.6863,0 -8.4852,-3.79899 -8.4852,-8.48528 0,-4.68629 3.7989,-8.48528 8.4852,-8.48528 4.6863,0 8.4853,3.79899 8.4853,8.48528 z"
           transform="matrix(1.0439569,0,0,1.0439569,-168.70051,0.48676624)" />
        <path
           transform="matrix(1.0439569,0,0,1.0439569,-168.70051,35.918996)"
           d="m 1476.439,313.43561 c 0,4.68629 -3.799,8.48528 -8.4853,8.48528 -4.6863,0 -8.4852,-3.79899 -8.4852,-8.48528 0,-4.68629 3.7989,-8.48528 8.4852,-8.48528 4.6863,0 8.4853,3.79899 8.4853,8.48528 z"
           sodipodi:ry="8.485281"
           sodipodi:rx="8.485281"
           sodipodi:cy="313.43561"
           sodipodi:cx="1467.9537"
           id="path9208"
           style="opacity:0.75739644;color:#000000;fill:#483636;fill-opacity:0.57255111;fill-rule:nonzero;stroke:none;stroke-width:1;marker:none;visibility:visible;display:inline;overflow:visible;enable-background:accumulate"
           sodipodi:type="arc" />
      </g>
      <g
         transform="translate(-848.71338,-961.76371)"
         id="g9210">
        <path
           transform="matrix(1.0439569,0,0,1.0439569,-340.90878,31.586267)"
           d="m 1476.439,313.43561 c 0,4.68629 -3.799,8.48528 -8.4853,8.48528 -4.6863,0 -8.4852,-3.79899 -8.4852,-8.48528 0,-4.68629 3.7989,-8.48528 8.4852,-8.48528 4.6863,0 8.4853,3.79899 8.4853,8.48528 z"
           sodipodi:ry="8.485281"
           sodipodi:rx="8.485281"
           sodipodi:cy="313.43561"
           sodipodi:cx="1467.9537"
           id="path9212"
           style="opacity:0.75739644;color:#000000;fill:#483636;fill-opacity:0.57255111;fill-rule:nonzero;stroke:none;stroke-width:1;marker:none;visibility:visible;display:inline;overflow:visible;enable-background:accumulate"
           sodipodi:type="arc" />
        <path
           sodipodi:type="arc"
           style="opacity:0.75739644;color:#000000;fill:#483636;fill-opacity:0.57255111;fill-rule:nonzero;stroke:none;stroke-width:1;marker:none;visibility:visible;display:inline;overflow:visible;enable-background:accumulate"
           id="path9214"
           sodipodi:cx="1467.9537"
           sodipodi:cy="313.43561"
           sodipodi:rx="8.485281"
           sodipodi:ry="8.485281"
           d="m 1476.439,313.43561 c 0,4.68629 -3.799,8.48528 -8.4853,8.48528 -4.6863,0 -8.4852,-3.79899 -8.4852,-8.48528 0,-4.68629 3.7989,-8.48528 8.4852,-8.48528 4.6863,0 8.4853,3.79899 8.4853,8.48528 z"
           transform="matrix(1.0439569,0,0,1.0439569,-340.90878,67.018497)" />
      </g>
    </g>
    <path
       inkscape:connector-curvature="0"
       d="m 273.62101,90.231969 c 0,0 0,12.755631 0,12.755631"
       style="fill:none;stroke:#2b2b2a;stroke-width:0.27000001;stroke-linecap:butt;stroke-linejoin:bevel;stroke-miterlimit:22.92558479;stroke-opacity:1;stroke-dasharray:none"
       id="path4135" />
    <path
       inkscape:connector-curvature="0"
       d="m 273.62101,133.45997 c 0,0 -81.49613,0 -81.49613,0"
       style="fill:none;stroke:#2b2b2a;stroke-width:0.27000001;stroke-linecap:butt;stroke-linejoin:bevel;stroke-miterlimit:22.92558479;stroke-opacity:1;stroke-dasharray:none"
       id="path4137" />
    <path
       inkscape:connector-curvature="0"
       d="m 192.12488,133.45997 c 0,0 0,-43.228001 0,-43.228001"
       style="fill:none;stroke:#2b2b2a;stroke-width:0.27000001;stroke-linecap:butt;stroke-linejoin:bevel;stroke-miterlimit:22.92558479;stroke-opacity:1;stroke-dasharray:none"
       id="path4139" />
    <path
       inkscape:connector-curvature="0"
       d="m 192.12488,90.231969 c 0,0 81.49613,0 81.49613,0"
       style="fill:none;stroke:#2b2b2a;stroke-width:0.27000001;stroke-linecap:butt;stroke-linejoin:bevel;stroke-miterlimit:22.92558479;stroke-opacity:1;stroke-dasharray:none"
       id="path4141" />
    <path
       inkscape:connector-curvature="0"
       d="m 208.06976,156.13722 c 0,0 49.60637,0 49.60637,0"
       style="fill:none;stroke:#2b2b2a;stroke-width:0.27000001;stroke-linecap:butt;stroke-linejoin:bevel;stroke-miterlimit:22.92558479;stroke-opacity:1;stroke-dasharray:none"
       id="path4143" />
    <path
       inkscape:connector-curvature="0"
       d="m 208.06976,67.554469 c -15.82363,0 -30.4455,8.44163 -38.35738,22.14575 -7.9115,13.703751 -7.9115,30.587251 0,44.291251 7.91188,13.70375 22.53375,22.14575 38.35738,22.14575"
       style="fill:none;stroke:#2b2b2a;stroke-width:0.27000001;stroke-linecap:butt;stroke-linejoin:bevel;stroke-miterlimit:22.92558479;stroke-opacity:1;stroke-dasharray:none"
       id="path4145" />
    <path
       inkscape:connector-curvature="0"
       d="m 257.67613,67.554469 c 0,0 -49.60637,0 -49.60637,0"
       style="fill:none;stroke:#2b2b2a;stroke-width:0.27000001;stroke-linecap:butt;stroke-linejoin:bevel;stroke-miterlimit:22.92558479;stroke-opacity:1;stroke-dasharray:none"
       id="path4147" />
    <path
       inkscape:connector-curvature="0"
       d="m 257.67613,156.13722 c 24.46151,0 44.29126,-19.83012 44.29126,-44.29137 3.7e-4,-24.461631 -19.82938,-44.291381 -44.29101,-44.291381"
       style="fill:none;stroke:#2b2b2a;stroke-width:0.27000001;stroke-linecap:butt;stroke-linejoin:bevel;stroke-miterlimit:22.92558479;stroke-opacity:1;stroke-dasharray:none"
       id="path4149" />
    <path
       inkscape:connector-curvature="0"
       d="m 237.69188,145.50722 c 0,-2.66162 -2.15725,-4.81887 -4.81862,-4.81887 -2.66175,-3.8e-4 -4.81888,2.15725 -4.81888,4.81862 -3.7e-4,2.66163 2.15713,4.81888 4.8185,4.81925 2.66175,0 4.819,-2.15762 4.819,-4.819 z"
       style="fill:none;stroke:#e31f25;stroke-width:0.27000001;stroke-linecap:butt;stroke-linejoin:bevel;stroke-miterlimit:22.92558479;stroke-opacity:1;stroke-dasharray:none"
       id="path4151" />
    <path
       inkscape:connector-curvature="0"
       d="m 237.69188,78.184849 c 0,-2.66213 -2.15725,-4.81925 -4.81862,-4.81925 -2.66175,0 -4.81888,2.15712 -4.81888,4.8185 -3.7e-4,2.66175 2.15713,4.81887 4.8185,4.81925 2.66175,0 4.819,-2.1575 4.819,-4.8185 z"
       style="fill:none;stroke:#e31f25;stroke-width:0.27000001;stroke-linecap:butt;stroke-linejoin:bevel;stroke-miterlimit:22.92558479;stroke-opacity:1;stroke-dasharray:none"
       id="path4153" />
    <path
       inkscape:connector-curvature="0"
       d="m 273.62101,120.7041 c 0,0 0,12.75587 0,12.75587"
       style="fill:none;stroke:#2b2b2a;stroke-width:0.27000001;stroke-linecap:butt;stroke-linejoin:bevel;stroke-miterlimit:22.92558479;stroke-opacity:1;stroke-dasharray:none"
       id="path4155" />
    <path
       inkscape:connector-curvature="0"
       d="m 280.70789,102.9876 c 0,0 0,17.7165 0,17.7165"
       style="fill:none;stroke:#2b2b2a;stroke-width:0.27000001;stroke-linecap:butt;stroke-linejoin:bevel;stroke-miterlimit:22.92558479;stroke-opacity:1;stroke-dasharray:none"
       id="path4157" />
    <path
       inkscape:connector-curvature="0"
       d="m 280.70789,120.7041 c 0,0 -7.08688,0 -7.08688,0"
       style="fill:none;stroke:#2b2b2a;stroke-width:0.27000001;stroke-linecap:butt;stroke-linejoin:bevel;stroke-miterlimit:22.92558479;stroke-opacity:1;stroke-dasharray:none"
       id="path4159" />
    <path
       inkscape:connector-curvature="0"
       d="m 273.62101,102.9876 c 0,0 7.08688,0 7.08688,0"
       style="fill:none;stroke:#2b2b2a;stroke-width:0.27000001;stroke-linecap:butt;stroke-linejoin:bevel;stroke-miterlimit:22.92558479;stroke-opacity:1;stroke-dasharray:none"
       id="path4161" />
    <path
       style="opacity:0.75739644;color:#000000;fill:#000000;fill-opacity:0.39215686;fill-rule:nonzero;stroke:none;stroke-width:0.99921262;marker:none;visibility:visible;display:inline;overflow:visible;enable-background:accumulate"
       d="m 192.12295,90.241224 0,43.218746 81.5,0 0,-12.75 7.09375,0 0,-17.71875 -7.09375,0 0,-12.749996 -81.5,0 z"
       id="rect5375"
       inkscape:connector-curvature="0" />
    <path
       style="opacity:0.75739644;color:#000000;fill:#000000;fill-opacity:0.39215686;fill-rule:nonzero;stroke:none;stroke-width:0.99921262;marker:none;visibility:visible;display:inline;overflow:visible;enable-background:accumulate"
       d="m 474.96131,156.65509 c -10.2738,0 -18.59375,8.31995 -18.59375,18.59375 0,10.2738 8.31995,18.59375 18.59375,18.59375 8.42705,0 15.55697,-5.597 17.84375,-13.28125 l 60.46875,0 -0.46875,-2.53125 1.96875,0.1875 -0.25,-2.59375 1.9375,0.34375 0,-2.625 1.90625,0.5 0.21875,-2.5625 1.84375,0.6875 0.34375,-2.03125 -1.9375,-0.875 -4.8125,0.875 -61.21875,0 c -2.28678,-7.68425 -9.4167,-13.28125 -17.84375,-13.28125 z m 0,10.625 c 4.40306,0 7.96875,3.56569 7.96875,7.96875 0,4.40306 -3.56569,7.96875 -7.96875,7.96875 -4.40306,0 -7.96875,-3.56569 -7.96875,-7.96875 0,-4.40306 3.56569,-7.96875 7.96875,-7.96875 z"
       id="rect5495"
       inkscape:connector-curvature="0" />
    <path
       style="opacity:0.75739644;color:#000000;fill:#000000;fill-opacity:0.39215686;fill-rule:nonzero;stroke:none;stroke-width:0.99921262;marker:none;visibility:visible;display:inline;overflow:visible;enable-background:accumulate"
       d="m 580.11756,162.56134 -5.125,5.125 -3.625,-3.625 -3.59375,6.21875 -4.46875,-2.59375 -1.875,7 -4.96875,-1.34375 0,7.21875 -5.15625,0 1.875,6.9375 -4.96875,1.34375 3.59375,6.25 -4.4375,2.5625 5.09375,5.09375 -3.65625,3.65625 6.25,3.59375 -2.5625,4.4375 6.96875,1.875 -1.34375,5 7.21875,0 0,5.15625 6.9375,-1.875 1.3125,4.96875 6.28125,-3.625 2.5625,4.46875 5.09375,-5.09375 3.65625,3.65625 3.59375,-6.25 4.4375,2.5625 1.875,-6.96875 5,1.34375 0,-7.21875 5.15625,0 -1.875,-6.96875 4.9375,-1.3125 -3.59375,-6.25 4.46875,-2.5625 -5.09375,-5.125 3.625,-3.625 -6.21875,-3.59375 2.59375,-4.46875 -7,-1.875 1.34375,-4.96875 -7.21875,0 0,-5.15625 -6.96875,1.875 -1.34375,-4.96875 -6.21875,3.59375 -2.5625,-4.46875 z m -4.15625,28.59375 10.625,0 0,10.65625 -10.625,0 0,-10.65625 z"
       id="path5381"
       inkscape:connector-curvature="0" />
    <g
       id="g5651"
       transform="translate(137.85714,-103.57143)">
      <rect
         style="opacity:0.75739644;color:#000000;fill:#000000;fill-opacity:0.39215686;fill-rule:nonzero;stroke:none;stroke-width:0.99921262;marker:none;visibility:visible;display:inline;overflow:visible;enable-background:accumulate"
         id="rect5581"
         width="70.866142"
         height="10.629921"
         x="708.42401"
         y="298.38818" />
      <rect
         y="287.75827"
         x="708.42401"
         height="10.629921"
         width="70.866142"
         id="rect5583"
         style="opacity:0.75739644;color:#000000;fill:#000000;fill-opacity:0.39215686;fill-rule:nonzero;stroke:none;stroke-width:0.99921262;marker:none;visibility:visible;display:inline;overflow:visible;enable-background:accumulate" />
      <rect
         style="opacity:0.75739644;color:#000000;fill:#000000;fill-opacity:0.39215686;fill-rule:nonzero;stroke:none;stroke-width:0.99921262;marker:none;visibility:visible;display:inline;overflow:visible;enable-background:accumulate"
         id="rect5585"
         width="81.496063"
         height="10.629921"
         x="708.42401"
         y="277.12836"
         inkscape:transform-center-x="65.551179"
         inkscape:transform-center-y="-21.259813" />
      <path
         transform="matrix(0.82677164,0,0,0.82677164,356.45551,-28.367957)"
         d="m 597.14285,401.64789 c 0,23.66934 -19.1878,42.85714 -42.85714,42.85714 -23.66935,0 -42.85715,-19.1878 -42.85715,-42.85714 0,-23.66935 19.1878,-42.85715 42.85715,-42.85715 23.66934,0 42.85714,19.1878 42.85714,42.85715 z"
         sodipodi:ry="42.857143"
         sodipodi:rx="42.857143"
         sodipodi:cy="401.64789"
         sodipodi:cx="554.28571"
         id="path5587"
         style="opacity:0.75739644;color:#000000;fill:#000000;fill-opacity:0.39215686;fill-rule:nonzero;stroke:none;stroke-width:0.99921262;marker:none;visibility:visible;display:inline;overflow:visible;enable-background:accumulate"
         sodipodi:type="arc" />
      <path
         inkscape:connector-curvature="0"
         style="opacity:0.75739644;color:#000000;fill:#000000;fill-opacity:0.39215686;fill-rule:nonzero;stroke:none;stroke-width:0.99921262;marker:none;visibility:visible;display:inline;overflow:visible;enable-background:accumulate"
         d="m 813.56697,269.78125 -5.125,5.125 -3.625,-3.625 -3.59375,6.21875 -4.46875,-2.59375 -1.875,7 -4.96875,-1.34375 0,7.21875 -5.15625,0 1.875,6.9375 -4.96875,1.34375 3.59375,6.25 -4.4375,2.5625 5.09375,5.09375 -3.65625,3.65625 6.25,3.59375 -2.5625,4.4375 6.96875,1.875 -1.34375,5 7.21875,0 0,5.15625 6.9375,-1.875 1.3125,4.96875 6.28125,-3.625 2.5625,4.46875 5.09375,-5.09375 3.65625,3.65625 3.59375,-6.25 4.4375,2.5625 1.875,-6.96875 5,1.34375 0,-7.21875 5.15625,0 -1.875,-6.96875 4.9375,-1.3125 -3.59375,-6.25 4.46875,-2.5625 -5.09375,-5.125 3.625,-3.625 -6.21875,-3.59375 2.59375,-4.46875 -7,-1.875 1.34375,-4.96875 -7.21875,0 0,-5.15625 -6.96875,1.875 -1.34375,-4.96875 -6.21875,3.59375 -2.5625,-4.46875 z"
         id="path5589" />
      <rect
         style="opacity:0.75739644;color:#000000;fill:#000000;fill-opacity:0.39215686;fill-rule:nonzero;stroke:none;stroke-width:0.99921262;marker:none;visibility:visible;display:inline;overflow:visible;enable-background:accumulate"
         id="rect5591"
         width="10.629921"
         height="10.629921"
         x="809.40833"
         y="298.38815" />
    </g>
    <path
       style="opacity:0.75739644;color:#000000;fill:#000000;fill-opacity:0.39215686;fill-rule:nonzero;stroke:none;stroke-width:0.99921262;marker:none;visibility:visible;display:inline;overflow:visible;enable-background:accumulate"
       d="m 507,346.09375 0,15.9375 0,10.625 0,3.125 c 3.4756,0 3.53125,10.15352 3.53125,16.8125 -25.83333,0 -42.97428,0 -68.80761,0 -10.71396,0 -12.96337,-7.96875 -19.78663,-7.96875 l -10.62284,0 c -5.91656,0 -8.01276,10.625 -20.78292,10.625 -36.90625,0 -61.125,0 -98.03125,0 l 0,-10.625 -10.625,0 0,10.625 -10.625,0 0,-10.625 -10.625,0 0,10.625 0,10.625 0,-0.003 c 205.31773,0 213.45012,17.72212 244.5,17.72212 2.27572,7.69657 9.37521,13.3125 17.8125,13.3125 10.2738,0 18.59375,-8.31995 18.59375,-18.59375 0,-5.50164 -2.39339,-10.43196 -6.1875,-13.84375 0,-8.66969 0.11596,-28.6875 3.53125,-28.6875 l 0,-3.125 0,-10.625 0,-15.9375 -10.625,0 0,15.9375 0,3.53125 -10.625,0 0,-3.53125 0,-15.9375 z m -95.68583,45.625 10.62284,0 4.9e-4,10.625 -10.625,0 z M 522.9375,410.3125 c 4.40306,0 7.96875,3.59694 7.96875,8 0,4.40306 -3.56569,7.96875 -7.96875,7.96875 -4.40306,0 -7.96875,-3.56569 -7.96875,-7.96875 0,-4.40306 3.56569,-8 7.96875,-8 z"
       id="path5631"
       inkscape:connector-curvature="0"
       sodipodi:nodetypes="ccccccccccccccccccccsscccccccccccccccccsssss" />
    <path
       style="opacity:0.75739644;color:#000000;fill:#000000;fill-opacity:0.39215686;fill-rule:nonzero;stroke:none;stroke-width:0.99921262;marker:none;visibility:visible;display:inline;overflow:visible;enable-background:accumulate"
       d="m 522.9375,243.13291 c -18.59069,0 -33.65625,15.06556 -33.65625,33.65625 0,18.59069 15.06556,33.65625 33.65625,33.65625 18.59069,0 33.65625,-15.06556 33.65625,-33.65625 0,-18.59069 -15.06556,-33.65625 -33.65625,-33.65625 z m -15.9375,10.625 10.625,0 0,10.625 -10.625,0 z m 21.25,0 10.65625,0 0,10.625 -10.65625,0 z m -10.625,15.94875 10.625,0 0,14.16614 -10.625,0 z M 507,289.19541 l 10.625,0 0,10.625 -10.625,0 z m 21.25,0 10.65625,0 0,10.625 -10.65625,0 z"
       id="path5679"
       inkscape:connector-curvature="0"
       sodipodi:nodetypes="sssssccccccccccccccccccccccccc" />
    <path
       style="opacity:0.75739644;color:#000000;fill:#000000;fill-opacity:0.39215686;fill-rule:nonzero;stroke:none;stroke-width:0.99921262;marker:none;visibility:visible;display:inline;overflow:visible;enable-background:accumulate"
       d="m 639.98437,264.38326 c -6.8492,0 -12.40625,5.55705 -12.40625,12.40625 0,6.8492 5.55705,12.40625 12.40625,12.40625 6.8492,0 12.40625,-5.55705 12.40625,-12.40625 0,-6.8492 -5.55705,-12.40625 -12.40625,-12.40625 z m -5.3125,5.32206 10.625,0 0,14.16968 -10.625,0 z"
       id="path5705"
       inkscape:connector-curvature="0"
       sodipodi:nodetypes="sssssccccc" />
    <path
       style="opacity:0.75739644;color:#000000;fill:#000000;fill-opacity:0.39215686;fill-rule:nonzero;stroke:none;stroke-width:0.99921262;marker:none;visibility:visible;display:inline;overflow:visible;enable-background:accumulate"
       d="m 400.6875,360.625 10.625,0 0,10.625 10.625,0 0,-10.625 10.625,0 0,-10.625 -10.625,0 0,-24.8125 -10.625,0 0,24.8125 -10.625,0 0,10.625 z"
       id="rect5710"
       inkscape:connector-curvature="0" />
    <path
       style="opacity:0.75739644;color:#000000;fill:#000000;fill-opacity:0.39215686;fill-rule:nonzero;stroke:none;stroke-width:0.99921262;marker:none;visibility:visible;display:inline;overflow:visible;enable-background:accumulate"
       d="m 671.77952,258.32439 c -9.78457,0 -17.71875,7.93418 -17.71875,17.71875 0,7.93972 5.20824,14.68519 12.40625,16.9375 l 0,-11.625 0,-5.3125 0,-5.3125 10.625,0 0,5.3125 0,5.3125 0,11.625 c 7.19801,-2.25231 12.40625,-8.99778 12.40625,-16.9375 0,-9.78457 -7.93418,-17.71875 -17.71875,-17.71875 z"
       id="path5736"
       inkscape:connector-curvature="0" />
    <rect
       style="opacity:0.75739644;color:#000000;fill:#000000;fill-opacity:0.39215686;fill-rule:nonzero;stroke:none;stroke-width:0.99921262;marker:none;visibility:visible;display:inline;overflow:visible;enable-background:accumulate"
       id="rect5746"
       width="10.621647"
       height="31.889763"
       x="517.625"
       y="333.67273" />
    <path
       sodipodi:type="arc"
       style="opacity:0.75739644;color:#000000;fill:#000000;fill-opacity:0.39215686;fill-rule:nonzero;stroke:none;stroke-width:0.99921262;marker:none;visibility:visible;display:inline;overflow:visible;enable-background:accumulate"
       id="path5748"
       sodipodi:cx="257.5889"
       sodipodi:cy="264.44321"
       sodipodi:rx="29.294424"
       sodipodi:ry="29.294424"
       d="m 286.88332,264.44321 a 29.294424,29.294424 0 1 1 -58.58885,0 29.294424,29.294424 0 1 1 58.58885,0 z"
       transform="translate(0,2.5390623e-6)" />
    <g
       id="g5771"
       transform="translate(136.66573,271.61105)">
      <path
         inkscape:connector-curvature="0"
         id="rect5752"
         d="m 510.37356,43.552329 0,51.625 -15.9375,0 0,12.156251 15.9375,0 0,17.71875 81.5,0 0,-17.71875 15.9375,0 0,-12.156251 -15.9375,0 0,-51.625 -81.5,0 z"
         style="opacity:0.75739644;color:#000000;fill:#000000;fill-opacity:0.39215686;fill-rule:nonzero;stroke:none;stroke-width:0.99921262;marker:none;visibility:visible;display:inline;overflow:visible;enable-background:accumulate" />
      <rect
         y="125.05233"
         x="510.37357"
         height="14.173228"
         width="53.149605"
         id="rect5761"
         style="opacity:0.75739644;color:#000000;fill:#000000;fill-opacity:0.39215686;fill-rule:nonzero;stroke:none;stroke-width:0.99921262;marker:none;visibility:visible;display:inline;overflow:visible;enable-background:accumulate" />
      <rect
         style="opacity:0.75739644;color:#000000;fill:#000000;fill-opacity:0.39215686;fill-rule:nonzero;stroke:none;stroke-width:0.99921262;marker:none;visibility:visible;display:inline;overflow:visible;enable-background:accumulate"
         id="rect5767"
         width="24.80315"
         height="10.629921"
         x="519.23181"
         y="139.22556" />
      <rect
         y="149.85547"
         x="473.16882"
         height="7.0866141"
         width="116.92913"
         id="rect5769"
         style="opacity:0.75739644;color:#000000;fill:#000000;fill-opacity:0.39215686;fill-rule:nonzero;stroke:none;stroke-width:0.99921262;marker:none;visibility:visible;display:inline;overflow:visible;enable-background:accumulate" />
    </g>
    <rect
       style="opacity:0.75739644;color:#000000;fill:#000000;fill-opacity:0.39215686;fill-rule:nonzero;stroke:none;stroke-width:0.99921262;marker:none;visibility:visible;display:inline;overflow:visible;enable-background:accumulate"
       id="rect5777"
       width="329.30972"
       height="10.629921"
       x="380.24426"
       y="323.04282" />
    <rect
       y="362.02139"
       x="559.67944"
       height="10.629921"
       width="185.89357"
       id="rect5779"
       style="opacity:0.75739644;color:#000000;fill:#000000;fill-opacity:0.39215686;fill-rule:nonzero;stroke:none;stroke-width:0.99921262;marker:none;visibility:visible;display:inline;overflow:visible;enable-background:accumulate" />
    <rect
       style="opacity:0.75739644;color:#000000;fill:#000000;fill-opacity:0.39215686;fill-rule:nonzero;stroke:none;stroke-width:0.99921262;marker:none;visibility:visible;display:inline;overflow:visible;enable-background:accumulate"
       id="rect5786"
       width="349.07083"
       height="10.629921"
       x="396.5022"
       y="372.65131" />
    <path
       style="opacity:0.75739644;color:#000000;fill:#000000;fill-opacity:0.39215686;fill-rule:nonzero;stroke:none;stroke-width:0.99921262;marker:none;visibility:visible;display:inline;overflow:visible;enable-background:accumulate"
       d="M 592.125 405.5 C 583.31888 405.5 576.1875 412.66263 576.1875 421.46875 C 576.1875 430.27487 583.31888 437.40625 592.125 437.40625 C 597.65363 437.40625 602.5147 434.58612 605.375 430.3125 L 725 430.3125 L 725 412.59375 L 605.375 412.59375 C 602.5147 408.32013 597.65363 405.5 592.125 405.5 z M 592.125 413.5 C 596.52806 413.5 600.09375 417.06569 600.09375 421.46875 C 600.09375 425.87181 596.52806 429.46875 592.125 429.46875 C 587.72194 429.46875 584.125 425.87181 584.125 421.46875 C 584.125 417.06569 587.72194 413.5 592.125 413.5 z M 616.9375 419.6875 C 617.91596 419.6875 618.6875 420.49029 618.6875 421.46875 C 618.6875 422.44721 617.91596 423.21875 616.9375 423.21875 C 615.95904 423.21875 615.15625 422.44721 615.15625 421.46875 C 615.15625 420.49029 615.95904 419.6875 616.9375 419.6875 z M 624.03125 419.6875 C 625.00971 419.6875 625.78125 420.49029 625.78125 421.46875 C 625.78125 422.44721 625.00971 423.21875 624.03125 423.21875 C 623.05279 423.21875 622.25 422.44721 622.25 421.46875 C 622.25 420.49029 623.05279 419.6875 624.03125 419.6875 z M 631.09375 419.6875 C 632.07221 419.6875 632.875 420.49029 632.875 421.46875 C 632.875 422.44721 632.07221 423.21875 631.09375 423.21875 C 630.11529 423.21875 629.34375 422.44721 629.34375 421.46875 C 629.34375 420.49029 630.11529 419.6875 631.09375 419.6875 z M 638.1875 419.6875 C 639.16596 419.6875 639.96875 420.49029 639.96875 421.46875 C 639.96875 422.44721 639.16596 423.21875 638.1875 423.21875 C 637.20904 423.21875 636.40625 422.44721 636.40625 421.46875 C 636.40625 420.49029 637.20904 419.6875 638.1875 419.6875 z M 645.28125 419.6875 C 646.25971 419.6875 647.0625 420.49029 647.0625 421.46875 C 647.0625 422.44721 646.25971 423.21875 645.28125 423.21875 C 644.30279 423.21875 643.5 422.44721 643.5 421.46875 C 643.5 420.49029 644.30279 419.6875 645.28125 419.6875 z M 652.375 419.6875 C 653.35346 419.6875 654.125 420.49029 654.125 421.46875 C 654.125 422.44721 653.35346 423.21875 652.375 423.21875 C 651.39654 423.21875 650.59375 422.44721 650.59375 421.46875 C 650.59375 420.49029 651.39654 419.6875 652.375 419.6875 z M 684.25 419.6875 C 685.22846 419.6875 686.03125 420.49029 686.03125 421.46875 C 686.03125 422.44721 685.22846 423.21875 684.25 423.21875 C 683.27154 423.21875 682.46875 422.44721 682.46875 421.46875 C 682.46875 420.49029 683.27154 419.6875 684.25 419.6875 z M 691.34375 419.6875 C 692.32221 419.6875 693.125 420.49029 693.125 421.46875 C 693.125 422.44721 692.32221 423.21875 691.34375 423.21875 C 690.36529 423.21875 689.5625 422.44721 689.5625 421.46875 C 689.5625 420.49029 690.36529 419.6875 691.34375 419.6875 z M 698.4375 419.6875 C 699.41596 419.6875 700.1875 420.49029 700.1875 421.46875 C 700.1875 422.44721 699.41596 423.21875 698.4375 423.21875 C 697.45904 423.21875 696.65625 422.44721 696.65625 421.46875 C 696.65625 420.49029 697.45904 419.6875 698.4375 419.6875 z M 705.5 419.6875 C 706.47846 419.6875 707.28125 420.49029 707.28125 421.46875 C 707.28125 422.44721 706.47846 423.21875 705.5 423.21875 C 704.52154 423.21875 703.75 422.44721 703.75 421.46875 C 703.75 420.49029 704.52154 419.6875 705.5 419.6875 z M 712.59375 419.6875 C 713.57221 419.6875 714.375 420.49029 714.375 421.46875 C 714.375 422.44721 713.57221 423.21875 712.59375 423.21875 C 711.61529 423.21875 710.84375 422.44721 710.84375 421.46875 C 710.84375 420.49029 711.61529 419.6875 712.59375 419.6875 z M 719.6875 419.6875 C 720.66596 419.6875 721.46875 420.49029 721.46875 421.46875 C 721.46875 422.44721 720.66596 423.21875 719.6875 423.21875 C 718.70904 423.21875 717.90625 422.44721 717.90625 421.46875 C 717.90625 420.49029 718.70904 419.6875 719.6875 419.6875 z "
       id="rect5788"
       transform="translate(0,2.5390623e-6)" />
    <rect
       style="opacity:0.75739644;color:#000000;fill:#000000;fill-opacity:0.39215686;fill-rule:nonzero;stroke:none;stroke-width:0.99921262;marker:none;visibility:visible;display:inline;overflow:visible;enable-background:accumulate"
       id="rect5962"
       width="31.874977"
       height="3.5312502"
       x="652.36163"
       y="419.7009"
       transform="translate(0,2.5390623e-6)" />
    <rect
       style="opacity:0.75739644;color:#000000;fill:#000000;fill-opacity:0.39215686;fill-rule:nonzero;stroke:none;stroke-width:0.99921262;marker:none;visibility:visible;display:inline;overflow:visible;enable-background:accumulate"
       id="rect5964"
       width="10.625"
       height="10.625"
       x="586.79913"
       y="416.16965" />
    <rect
       style="opacity:0.75739644;color:#000000;fill:#000000;fill-opacity:0.39215686;fill-rule:nonzero;stroke:none;stroke-width:0.99921262;marker:none;visibility:visible;display:inline;overflow:visible;enable-background:accumulate"
       id="rect5971"
       width="54.914295"
       height="10.629914"
       x="592.125"
       y="410.83661" />
    <rect
       style="opacity:0.75739644;color:#000000;fill:#000000;fill-opacity:0.39215686;fill-rule:nonzero;stroke:none;stroke-width:0.99921262;marker:none;visibility:visible;display:inline;overflow:visible;enable-background:accumulate"
       id="rect5975"
       width="37.197327"
       height="37.206936"
       x="649.91113"
       y="323.04282"
       transform="translate(0,2.5390623e-6)" />
    <path
       style="opacity:0.75739644;color:#000000;fill:#000000;fill-opacity:0.39215686;fill-rule:nonzero;stroke:none;stroke-width:0.99921262;marker:none;visibility:visible;display:inline;overflow:visible;enable-background:accumulate"
       d="m 280.38049,415.83458 0,21.25 -28.375,0 0,21.28125 10.65625,0 0,-10.65625 10.65625,0 0,10.65625 24.78125,0 0,-10.65625 10.625,0 0,10.65625 10.65625,0 0,-21.28125 -28.34375,0 0,-21.25 -10.65625,0 z"
       id="rect5993"
       inkscape:connector-curvature="0" />
    <rect
       y="387.28348"
       x="200.38838"
       height="7.9665222"
       width="76.174118"
       id="rect6055"
       style="opacity:0.75739644;color:#000000;fill:#000000;fill-opacity:0.39215686;fill-rule:nonzero;stroke:none;stroke-width:0.99921262;marker:none;visibility:visible;display:inline;overflow:visible;enable-background:accumulate" />
    <rect
       style="opacity:0.75739644;color:#000000;fill:#000000;fill-opacity:0.39215686;fill-rule:nonzero;stroke:none;stroke-width:0.99921262;marker:none;visibility:visible;display:inline;overflow:visible;enable-background:accumulate"
       id="rect6057"
       width="301.18109"
       height="29.687132"
       x="221.57588"
       y="365.56287" />
    <rect
       style="opacity:0.75739644;color:#000000;fill:#000000;fill-opacity:0.39215686;fill-rule:nonzero;stroke:none;stroke-width:0.99921262;marker:none;visibility:visible;display:inline;overflow:visible;enable-background:accumulate"
       id="rect6059"
       width="120.26807"
       height="106.29921"
       x="362.55637"
       y="19.018509" />
    <path
       sodipodi:type="arc"
       style="opacity:0.75739644;color:#000000;fill:#000000;fill-opacity:0.39215686;fill-rule:nonzero;stroke:none;stroke-width:0.99921262;marker:none;visibility:visible;display:inline;overflow:visible;enable-background:accumulate"
       id="path6067"
       sodipodi:cx="227.75"
       sodipodi:cy="172.86218"
       sodipodi:rx="5.25"
       sodipodi:ry="5.25"
       d="m 233,172.86218 a 5.25,5.25 0 1 1 -10.5,0 5.25,5.25 0 1 1 10.5,0 z"
       transform="matrix(1.3498313,0,0,1.3498313,-74.550949,-87.8275)" />
    <path
       transform="matrix(1.3498313,0,0,1.3498313,-74.550949,-155.15031)"
       d="m 233,172.86218 a 5.25,5.25 0 1 1 -10.5,0 5.25,5.25 0 1 1 10.5,0 z"
       sodipodi:ry="5.25"
       sodipodi:rx="5.25"
       sodipodi:cy="172.86218"
       sodipodi:cx="227.75"
       id="path6069"
       style="opacity:0.75739644;color:#000000;fill:#000000;fill-opacity:0.39215686;fill-rule:nonzero;stroke:none;stroke-width:0.99921262;marker:none;visibility:visible;display:inline;overflow:visible;enable-background:accumulate"
       sodipodi:type="arc" />
    <g
       id="g6077"
       transform="translate(-50.249996,2.6417342)">
      <path
         style="opacity:0.75739644;color:#000000;fill:#000000;fill-opacity:0.39215686;fill-rule:nonzero;stroke:none;stroke-width:0.99921262;marker:none;visibility:visible;display:inline;overflow:visible;enable-background:accumulate"
         d="m 428.64352,47.917006 0,43.218749 81.5,0 0,-12.75 7.09375,0 0,-17.71875 -7.09375,0 0,-12.749999 -81.5,0 z"
         id="path6061"
         inkscape:connector-curvature="0" />
      <path
         sodipodi:type="arc"
         style="opacity:0.75739644;color:#000000;fill:#000000;fill-opacity:0.39215686;fill-rule:nonzero;stroke:none;stroke-width:0.99921262;marker:none;visibility:visible;display:inline;overflow:visible;enable-background:accumulate"
         id="path6073"
         sodipodi:cx="227.75"
         sodipodi:cy="172.86218"
         sodipodi:rx="5.25"
         sodipodi:ry="5.25"
         d="m 233,172.86218 c 0,2.8995 -2.35051,5.25 -5.25,5.25 -2.89949,0 -5.25,-2.3505 -5.25,-5.25 0,-2.89949 2.35051,-5.25 5.25,-5.25 2.89949,0 5.25,2.35051 5.25,5.25 z"
         transform="matrix(1.3498313,0,0,1.3498313,161.96963,-130.15172)" />
      <path
         transform="matrix(1.3498313,0,0,1.3498313,161.96963,-197.47453)"
         d="m 233,172.86218 c 0,2.8995 -2.35051,5.25 -5.25,5.25 -2.89949,0 -5.25,-2.3505 -5.25,-5.25 0,-2.89949 2.35051,-5.25 5.25,-5.25 2.89949,0 5.25,2.35051 5.25,5.25 z"
         sodipodi:ry="5.25"
         sodipodi:rx="5.25"
         sodipodi:cy="172.86218"
         sodipodi:cx="227.75"
         id="path6075"
         style="opacity:0.75739644;color:#000000;fill:#000000;fill-opacity:0.39215686;fill-rule:nonzero;stroke:none;stroke-width:0.99921262;marker:none;visibility:visible;display:inline;overflow:visible;enable-background:accumulate"
         sodipodi:type="arc" />
    </g>
    <rect
       y="384.62009"
       x="221.64821"
       height="10.629914"
       width="54.914295"
       id="rect6092"
       style="opacity:0.75739644;color:#000000;fill:#000000;fill-opacity:0.39215686;fill-rule:nonzero;stroke:none;stroke-width:0.99921262;marker:none;visibility:visible;display:inline;overflow:visible;enable-background:accumulate" />
    <rect
       style="opacity:0.75739644;color:#000000;fill:#000000;fill-opacity:0.39215686;fill-rule:nonzero;stroke:none;stroke-width:0.99921262;marker:none;visibility:visible;display:inline;overflow:visible;enable-background:accumulate"
       id="rect6094"
       width="208.5965"
       height="70.866142"
       x="482.82443"
       y="36.735043" />
    <rect
       y="405.5"
       x="592.125"
       height="14.2009"
       width="76.174126"
       id="rect6096"
       style="opacity:0.75739644;color:#000000;fill:#000000;fill-opacity:0.39215686;fill-rule:nonzero;stroke:none;stroke-width:0.99921262;marker:none;visibility:visible;display:inline;overflow:visible;enable-background:accumulate" />
    <rect
       style="opacity:0.75739644;color:#000000;fill:#000000;fill-opacity:0.39215686;fill-rule:nonzero;stroke:none;stroke-width:0.99921262;marker:none;visibility:visible;display:inline;overflow:visible;enable-background:accumulate"
       id="rect6098"
       width="76.174126"
       height="14.2009"
       x="668.29913"
       y="405.5" />
    <path
       style="opacity:0.75739644;color:#000000;fill:#000000;fill-opacity:0.39215686;fill-rule:nonzero;stroke:none;stroke-width:0.99921262;marker:none;visibility:visible;display:inline;overflow:visible;enable-background:accumulate"
       d="m 509.15393,58.871239 c -7.33843,0 -13.28125,5.974071 -13.28125,13.3125 0,7.338429 5.94282,13.28125 13.28125,13.28125 l 77.96875,0 77.9375,0 c 7.33843,0 13.3125,-5.942821 13.3125,-13.28125 0,-7.338429 -5.97407,-13.3125 -13.3125,-13.3125 l -77.9375,0 -77.96875,0 z"
       id="rect6096-2"
       inkscape:connector-curvature="0" />
  </g>
</svg>
