<?xml version="1.0" encoding="UTF-8" standalone="no"?>
<!-- Created with Inkscape (http://www.inkscape.org/) -->

<svg
   xmlns:dc="http://purl.org/dc/elements/1.1/"
   xmlns:cc="http://creativecommons.org/ns#"
   xmlns:rdf="http://www.w3.org/1999/02/22-rdf-syntax-ns#"
   xmlns:svg="http://www.w3.org/2000/svg"
   xmlns="http://www.w3.org/2000/svg"
   xmlns:sodipodi="http://sodipodi.sourceforge.net/DTD/sodipodi-0.dtd"
   xmlns:inkscape="http://www.inkscape.org/namespaces/inkscape"
   width="553.90607"
   height="317.38193"
   id="svg5275"
   version="1.1"
   inkscape:version="0.48.5 r10040"
   sodipodi:docname="roedel.svg">
  <defs
     id="defs5277" />
  <sodipodi:namedview
     id="base"
     pagecolor="#ffffff"
     bordercolor="#666666"
     borderopacity="1.0"
     inkscape:pageopacity="0.0"
     inkscape:pageshadow="2"
     inkscape:zoom="2.8284271"
     inkscape:cx="251.66811"
     inkscape:cy="223.50278"
     inkscape:document-units="mm"
     inkscape:current-layer="layer1"
     showgrid="false"
     inkscape:window-width="1920"
     inkscape:window-height="1005"
     inkscape:window-x="-9"
     inkscape:window-y="-9"
     inkscape:window-maximized="1"
     units="mm"
     inkscape:object-paths="false"
     inkscape:object-nodes="true"
     inkscape:snap-object-midpoints="true"
     inkscape:snap-midpoints="true"
     inkscape:snap-smooth-nodes="true"
     showguides="true"
     inkscape:guide-bbox="true"
     fit-margin-top="1"
     fit-margin-left="1"
     fit-margin-bottom="1"
     fit-margin-right="1" />
  <metadata
     id="metadata5280">
    <rdf:RDF>
      <cc:Work
         rdf:about="">
        <dc:format>image/svg+xml</dc:format>
        <dc:type
           rdf:resource="http://purl.org/dc/dcmitype/StillImage" />
        <dc:title />
      </cc:Work>
    </rdf:RDF>
  </metadata>
  <g
     inkscape:groupmode="layer"
     id="layer3"
     inkscape:label="purgatory"
     style="display:none"
     transform="translate(-305.88932,58.930064)">
    <g
       style="display:inline"
       id="g9194"
       transform="matrix(0,1,1,0,660.23376,-298.02031)">
      <rect
         ry="0"
         y="-620.68115"
         x="358.80359"
         height="70.866135"
         width="141.73228"
         id="rect9196"
         style="opacity:0.75739644;color:#000000;fill:#473737;fill-opacity:0.75686275;fill-rule:nonzero;stroke:none;stroke-width:1;marker:none;visibility:visible;display:inline;overflow:visible;enable-background:accumulate" />
      <rect
         y="-587.90552"
         x="500.53589"
         height="5.3149605"
         width="14.173228"
         id="rect9198"
         style="opacity:0.75739644;color:#000000;fill:#483737;fill-opacity:1;fill-rule:nonzero;stroke:none;stroke-width:1;marker:none;visibility:visible;display:inline;overflow:visible;enable-background:accumulate" />
      <path
         transform="matrix(2.0842983,0,0,1.5405683,-2109.0056,-812.26956)"
         d="m 1218,147.36218 c 0,12.70255 -7.6112,23 -17,23 -9.3888,0 -17,-10.29745 -17,-23 0,-12.70255 7.6112,-23 17,-23 9.3888,0 17,10.29745 17,23 z"
         sodipodi:ry="23"
         sodipodi:rx="17"
         sodipodi:cy="147.36218"
         sodipodi:cx="1201"
         id="path9200"
         style="opacity:0.75739644;color:#000000;fill:#473737;fill-opacity:0.75686275;fill-rule:nonzero;stroke:none;stroke-width:1;marker:none;visibility:visible;display:inline;overflow:visible;enable-background:accumulate"
         sodipodi:type="arc" />
      <rect
         style="opacity:0.75739644;color:#000000;fill:#483737;fill-opacity:1;fill-rule:nonzero;stroke:none;stroke-width:1;marker:none;visibility:visible;display:inline;overflow:visible;enable-background:accumulate"
         id="rect9202"
         width="14.173228"
         height="5.3149605"
         x="344.63037"
         y="-587.90552" />
      <g
         transform="translate(-847.2996,-930.66421)"
         id="g9204">
        <path
           sodipodi:type="arc"
           style="opacity:0.75739644;color:#000000;fill:#483636;fill-opacity:0.57255111;fill-rule:nonzero;stroke:none;stroke-width:1;marker:none;visibility:visible;display:inline;overflow:visible;enable-background:accumulate"
           id="path9206"
           sodipodi:cx="1467.9537"
           sodipodi:cy="313.43561"
           sodipodi:rx="8.485281"
           sodipodi:ry="8.485281"
           d="m 1476.439,313.43561 c 0,4.68629 -3.799,8.48528 -8.4853,8.48528 -4.6863,0 -8.4852,-3.79899 -8.4852,-8.48528 0,-4.68629 3.7989,-8.48528 8.4852,-8.48528 4.6863,0 8.4853,3.79899 8.4853,8.48528 z"
           transform="matrix(1.0439569,0,0,1.0439569,-168.70051,0.48676624)" />
        <path
           transform="matrix(1.0439569,0,0,1.0439569,-168.70051,35.918996)"
           d="m 1476.439,313.43561 c 0,4.68629 -3.799,8.48528 -8.4853,8.48528 -4.6863,0 -8.4852,-3.79899 -8.4852,-8.48528 0,-4.68629 3.7989,-8.48528 8.4852,-8.48528 4.6863,0 8.4853,3.79899 8.4853,8.48528 z"
           sodipodi:ry="8.485281"
           sodipodi:rx="8.485281"
           sodipodi:cy="313.43561"
           sodipodi:cx="1467.9537"
           id="path9208"
           style="opacity:0.75739644;color:#000000;fill:#483636;fill-opacity:0.57255111;fill-rule:nonzero;stroke:none;stroke-width:1;marker:none;visibility:visible;display:inline;overflow:visible;enable-background:accumulate"
           sodipodi:type="arc" />
      </g>
      <g
         transform="translate(-848.71338,-961.76371)"
         id="g9210">
        <path
           transform="matrix(1.0439569,0,0,1.0439569,-340.90878,31.586267)"
           d="m 1476.439,313.43561 c 0,4.68629 -3.799,8.48528 -8.4853,8.48528 -4.6863,0 -8.4852,-3.79899 -8.4852,-8.48528 0,-4.68629 3.7989,-8.48528 8.4852,-8.48528 4.6863,0 8.4853,3.79899 8.4853,8.48528 z"
           sodipodi:ry="8.485281"
           sodipodi:rx="8.485281"
           sodipodi:cy="313.43561"
           sodipodi:cx="1467.9537"
           id="path9212"
           style="opacity:0.75739644;color:#000000;fill:#483636;fill-opacity:0.57255111;fill-rule:nonzero;stroke:none;stroke-width:1;marker:none;visibility:visible;display:inline;overflow:visible;enable-background:accumulate"
           sodipodi:type="arc" />
        <path
           sodipodi:type="arc"
           style="opacity:0.75739644;color:#000000;fill:#483636;fill-opacity:0.57255111;fill-rule:nonzero;stroke:none;stroke-width:1;marker:none;visibility:visible;display:inline;overflow:visible;enable-background:accumulate"
           id="path9214"
           sodipodi:cx="1467.9537"
           sodipodi:cy="313.43561"
           sodipodi:rx="8.485281"
           sodipodi:ry="8.485281"
           d="m 1476.439,313.43561 c 0,4.68629 -3.799,8.48528 -8.4853,8.48528 -4.6863,0 -8.4852,-3.79899 -8.4852,-8.48528 0,-4.68629 3.7989,-8.48528 8.4852,-8.48528 4.6863,0 8.4853,3.79899 8.4853,8.48528 z"
           transform="matrix(1.0439569,0,0,1.0439569,-340.90878,67.018497)" />
      </g>
    </g>
    <path
       transform="translate(0,-2.5390623e-6)"
       style="opacity:0.75739644;color:#000000;fill:#000000;fill-opacity:0.39215686;fill-rule:nonzero;stroke:none;stroke-width:0.99921262;marker:none;visibility:visible;display:inline;overflow:visible;enable-background:accumulate"
       d="m -121.99776,171.94376 0,43.21875 81.500004,0 0,-12.75 7.09375,0 0,-17.71875 -7.09375,0 0,-12.75 -81.500004,0 z"
       id="rect5375"
       inkscape:connector-curvature="0" />
    <g
       id="g5651"
       transform="translate(-842.14286,-7.5714329)">
      <rect
         style="opacity:0.75739644;color:#000000;fill:#000000;fill-opacity:0.39215686;fill-rule:nonzero;stroke:none;stroke-width:0.99921262;marker:none;visibility:visible;display:inline;overflow:visible;enable-background:accumulate"
         id="rect5581"
         width="70.866142"
         height="10.629921"
         x="708.42401"
         y="298.38818" />
      <rect
         y="287.75827"
         x="708.42401"
         height="10.629921"
         width="70.866142"
         id="rect5583"
         style="opacity:0.75739644;color:#000000;fill:#000000;fill-opacity:0.39215686;fill-rule:nonzero;stroke:none;stroke-width:0.99921262;marker:none;visibility:visible;display:inline;overflow:visible;enable-background:accumulate" />
      <rect
         style="opacity:0.75739644;color:#000000;fill:#000000;fill-opacity:0.39215686;fill-rule:nonzero;stroke:none;stroke-width:0.99921262;marker:none;visibility:visible;display:inline;overflow:visible;enable-background:accumulate"
         id="rect5585"
         width="81.496063"
         height="10.629921"
         x="708.42401"
         y="277.12836"
         inkscape:transform-center-x="65.551179"
         inkscape:transform-center-y="-21.259813" />
      <path
         transform="matrix(0.82677164,0,0,0.82677164,356.45551,-28.367957)"
         d="m 597.14285,401.64789 c 0,23.66934 -19.1878,42.85714 -42.85714,42.85714 -23.66935,0 -42.85715,-19.1878 -42.85715,-42.85714 0,-23.66935 19.1878,-42.85715 42.85715,-42.85715 23.66934,0 42.85714,19.1878 42.85714,42.85715 z"
         sodipodi:ry="42.857143"
         sodipodi:rx="42.857143"
         sodipodi:cy="401.64789"
         sodipodi:cx="554.28571"
         id="path5587"
         style="opacity:0.75739644;color:#000000;fill:#000000;fill-opacity:0.39215686;fill-rule:nonzero;stroke:none;stroke-width:0.99921262;marker:none;visibility:visible;display:inline;overflow:visible;enable-background:accumulate"
         sodipodi:type="arc" />
      <path
         inkscape:connector-curvature="0"
         style="opacity:0.75739644;color:#000000;fill:#000000;fill-opacity:0.39215686;fill-rule:nonzero;stroke:none;stroke-width:0.99921262;marker:none;visibility:visible;display:inline;overflow:visible;enable-background:accumulate"
         d="m 813.56697,269.78125 -5.125,5.125 -3.625,-3.625 -3.59375,6.21875 -4.46875,-2.59375 -1.875,7 -4.96875,-1.34375 0,7.21875 -5.15625,0 1.875,6.9375 -4.96875,1.34375 3.59375,6.25 -4.4375,2.5625 5.09375,5.09375 -3.65625,3.65625 6.25,3.59375 -2.5625,4.4375 6.96875,1.875 -1.34375,5 7.21875,0 0,5.15625 6.9375,-1.875 1.3125,4.96875 6.28125,-3.625 2.5625,4.46875 5.09375,-5.09375 3.65625,3.65625 3.59375,-6.25 4.4375,2.5625 1.875,-6.96875 5,1.34375 0,-7.21875 5.15625,0 -1.875,-6.96875 4.9375,-1.3125 -3.59375,-6.25 4.46875,-2.5625 -5.09375,-5.125 3.625,-3.625 -6.21875,-3.59375 2.59375,-4.46875 -7,-1.875 1.34375,-4.96875 -7.21875,0 0,-5.15625 -6.96875,1.875 -1.34375,-4.96875 -6.21875,3.59375 -2.5625,-4.46875 z"
         id="path5589" />
      <rect
         style="opacity:0.75739644;color:#000000;fill:#000000;fill-opacity:0.39215686;fill-rule:nonzero;stroke:none;stroke-width:0.99921262;marker:none;visibility:visible;display:inline;overflow:visible;enable-background:accumulate"
         id="rect5591"
         width="10.629921"
         height="10.629921"
         x="809.40833"
         y="298.38815" />
    </g>
    <path
       sodipodi:type="arc"
       style="opacity:0.75739644;color:#000000;fill:#000000;fill-opacity:0.39215686;fill-rule:nonzero;stroke:none;stroke-width:0.99921262;marker:none;visibility:visible;display:inline;overflow:visible;enable-background:accumulate"
       id="path5748"
       sodipodi:cx="257.5889"
       sodipodi:cy="264.44321"
       sodipodi:rx="29.294424"
       sodipodi:ry="29.294424"
       d="m 286.88332,264.44321 c 0,16.17886 -13.11556,29.29442 -29.29442,29.29442 -16.17887,0 -29.29443,-13.11556 -29.29443,-29.29442 0,-16.17887 13.11556,-29.29443 29.29443,-29.29443 16.17886,0 29.29442,13.11556 29.29442,29.29443 z" />
    <g
       transform="matrix(-1,0,0,1,630.17376,-162.03917)"
       id="g6128">
      <path
         style="opacity:0.75739644;color:#000000;fill:#000000;fill-opacity:0.39215686;fill-rule:nonzero;stroke:none;stroke-width:0.99921262;marker:none;visibility:visible;display:inline;overflow:visible;enable-background:accumulate"
         d="m 510.37356,43.552329 0,51.625 -15.9375,0 0,12.156251 15.9375,0 0,17.71875 81.5,0 0,-17.71875 15.9375,0 0,-12.156251 -15.9375,0 0,-51.625 -81.5,0 z"
         id="path6130"
         inkscape:connector-curvature="0" />
      <rect
         style="opacity:0.75739644;color:#000000;fill:#000000;fill-opacity:0.39215686;fill-rule:nonzero;stroke:none;stroke-width:0.99921262;marker:none;visibility:visible;display:inline;overflow:visible;enable-background:accumulate"
         id="rect6132"
         width="53.149605"
         height="14.173228"
         x="510.37357"
         y="125.05233" />
      <rect
         y="139.22556"
         x="519.23181"
         height="10.629921"
         width="24.80315"
         id="rect6134"
         style="opacity:0.75739644;color:#000000;fill:#000000;fill-opacity:0.39215686;fill-rule:nonzero;stroke:none;stroke-width:0.99921262;marker:none;visibility:visible;display:inline;overflow:visible;enable-background:accumulate" />
      <rect
         style="opacity:0.75739644;color:#000000;fill:#000000;fill-opacity:0.39215686;fill-rule:nonzero;stroke:none;stroke-width:0.99921262;marker:none;visibility:visible;display:inline;overflow:visible;enable-background:accumulate"
         id="rect6136"
         width="116.92913"
         height="7.0866141"
         x="473.16882"
         y="149.85547" />
    </g>
    <rect
       transform="translate(0,-2.5390623e-6)"
       y="148.14679"
       x="655.13385"
       height="22.59338"
       width="319.90625"
       id="rect6184"
       style="opacity:0.75739644;color:#000000;fill:#000000;fill-opacity:0.39215686;fill-rule:nonzero;stroke:none;stroke-width:0.99921262;marker:none;visibility:visible;display:inline;overflow:visible;enable-background:accumulate" />
  </g>
  <g
     inkscape:label="Ebene 1"
     inkscape:groupmode="layer"
     id="layer1"
     transform="translate(-305.88932,58.930061)">
    <path
       style="opacity:0.75739644;color:#000000;fill:#000000;fill-opacity:0.39215686;fill-rule:nonzero;stroke:none;stroke-width:0.99921262;marker:none;visibility:visible;display:inline;overflow:visible;enable-background:accumulate"
       d="m 513.51432,-53.961311 c -13.94775,0 -25.15625,11.239756 -25.15625,25.1875 l 0,0.1875 -11,0 0,0.03125 -10.625,0 0,37.84375 11,0 0,-0.03125 10.625,0 0,0.1875 c 0,13.94774 11.2085,25.1875 25.15625,25.1875 l 69.90625,0 c 13.94774,0 25.1875,-11.23976 25.1875,-25.1875 l 0,-0.15625 11,0 0,-37.84375 -11,0 0,-0.21875 c 0,-13.947744 -11.23976,-25.1875 -25.1875,-25.1875 z m 31.40625,3.53125 c 3.91383,0 7.09375,3.179921 7.09375,7.09375 0,3.91383 -3.17992,7.09375 -7.09375,7.09375 -3.91383,0 -7.0625,-3.17992 -7.0625,-7.09375 0,-3.913829 3.14867,-7.09375 7.0625,-7.09375 z m -40.71875,19.15625 81.5,0 0,12.75 14.17923,0 0,17.71875 -14.17923,0 0,12.75 -81.5,0 z m 40.71875,48.1875 c 3.91383,0 7.09375,3.17992 7.09375,7.09375 0,3.91383 -3.17992,7.0625 -7.09375,7.0625 -3.91383,0 -7.0625,-3.14867 -7.0625,-7.0625 0,-3.91383 3.14867,-7.09375 7.0625,-7.09375 z"
       id="rect3102"
       inkscape:connector-curvature="0"
       sodipodi:nodetypes="ssccccccccssssccccsssssssscccccccccsssss" />
    <path
       style="opacity:0.75739644;color:#000000;fill:#000000;fill-opacity:0.39215686;fill-rule:nonzero;stroke:none;stroke-width:0.99921262;marker:none;visibility:visible;display:inline;overflow:visible;enable-background:accumulate"
       d="M 72.09375,270.90625 C 61.81993,270.90625 53.5,279.2262 53.5,289.5 c 0,10.27379 8.31993,18.59375 18.59375,18.59375 8.42705,0 15.55696,-5.597 17.84375,-13.28125 l 61.21875,0 4.8125,0.875 1.9375,-0.875 -0.34375,-2.03125 -1.84375,0.6875 -0.21875,-2.5625 -1.90625,0.5 0,-2.625 -1.9375,0.34375 0.25,-2.59375 -1.96875,0.1875 0.46875,-2.53125 -60.46875,0 c -2.28679,-7.68426 -9.4167,-13.28125 -17.84375,-13.28125 z m 0,11.0625 c 4.158443,0 7.53125,3.37281 7.53125,7.53125 0,4.15844 -3.372807,7.53125 -7.53125,7.53125 -4.158443,0 -7.53125,-3.37281 -7.53125,-7.53125 0,-4.15844 3.372807,-7.53125 7.53125,-7.53125 z"
       transform="translate(293.23804,-58.918004)"
       id="rect5495"
       inkscape:connector-curvature="0" />
    <path
       style="opacity:0.75739644;color:#000000;fill:#000000;fill-opacity:0.39215686;fill-rule:nonzero;stroke:none;stroke-width:0.99921262;marker:none;visibility:visible;display:inline;overflow:visible;enable-background:accumulate"
       d="m 163.15625,220.75 0,15.9375 0,10.625 0,3.125 c 3.41529,0 3.53125,20.01781 3.53125,28.6875 -3.79412,3.41179 -6.1875,8.34211 -6.1875,13.84375 0,10.2738 8.31994,18.59375 18.59375,18.59375 8.43728,0 15.53678,-5.61593 17.8125,-13.3125 31.04988,0 39.18228,-17.71875 244.5,-17.71875 l 0,-10.625 0,-10.625 -10.625,0 0,10.625 -10.625,0 0,-10.625 -10.625,0 0,10.625 -98.03125,0 c -12.77017,0 -14.86469,-10.625 -20.78125,-10.625 l -10.625,0 c -6.82326,0 -9.06729,7.96875 -19.78125,7.96875 l -68.8125,0 c 0,-6.65898 0.0557,-16.8125 3.53125,-16.8125 l 0,-3.125 0,-10.625 0,-15.9375 -10.625,0 0,15.9375 0,3.53125 -10.625,0 0,-3.53125 0,-15.9375 -10.625,0 z m 116.9375,45.625 10.625,0 0,10.625 -10.625,0 0,-10.625 z m -101,19.0625 c 4.15844,0 7.53125,3.37281 7.53125,7.53125 0,4.15844 -3.37281,7.53125 -7.53125,7.53125 -4.15844,0 -7.53125,-3.37281 -7.53125,-7.53125 0,-4.15844 3.37281,-7.53125 7.53125,-7.53125 z"
       transform="translate(293.23804,-58.918004)"
       id="path5631"
       inkscape:connector-curvature="0" />
    <path
       style="opacity:0.75739644;color:#000000;fill:#000000;fill-opacity:0.39215686;fill-rule:nonzero;stroke:none;stroke-width:0.99921262;marker:none;visibility:visible;display:inline;overflow:visible;enable-background:accumulate"
       d="m 447.80054,-55.386754 c -5.50164,0 -10.43196,2.39339 -13.84375,6.1875 -7.58736,-0.0027 -28.6875,-0.19676 -28.6875,-3.53125 l -3.125,0 -7.09375,0 -21.28125,0 0,10.625 10.65625,0 0,10.625 -10.65625,0 0,10.625 28.375,0 3.125,0 c 0,-3.65248 22.57925,-3.53125 28.6875,-3.53125 3.41179,3.79411 8.34211,6.1875 13.84375,6.1875 1.83651,0 3.60597,-0.2859 5.28125,-0.78125 0.48104,-0.14222 0.97358,-0.32092 1.4375,-0.5 0.37895,-0.14627 0.72727,-0.29892 1.09375,-0.46875 0.15673,-0.07265 0.31443,-0.14185 0.46875,-0.21875 0.36737,-0.18292 0.74071,-0.38781 1.09375,-0.59375 0.34699,-0.20296 0.69909,-0.40064 1.03125,-0.625 0.0548,-0.0369 0.10185,-0.0875 0.15625,-0.125 0.12359,-0.08542 0.25361,-0.1617 0.375,-0.25 0.688,-0.49927 1.32528,-1.03836 1.9375,-1.625 0.2314,-0.22172 0.46782,-0.45416 0.6875,-0.6875 0.27154,-0.28935 0.5285,-0.59994 0.78125,-0.90625 0.27918,-0.33832 0.55743,-0.67344 0.8125,-1.03125 0.17654,-0.24668 0.36671,-0.4945 0.53125,-0.75 0.005,-0.007 -0.005,-0.02425 0,-0.03125 0.008,-0.0118 0.0232,-0.01915 0.0312,-0.03125 0.51997,-0.81403 0.95401,-1.66834 1.34375,-2.5625 0.0276,-0.06329 0.0668,-0.1239 0.0937,-0.1875 0.16549,-0.39184 0.2987,-0.7824 0.4375,-1.1875 0.13769,-0.40186 0.26465,-0.83615 0.375,-1.25 0.0192,-0.07214 0.0441,-0.14625 0.0625,-0.21875 0.031,-0.12302 0.0339,-0.25101 0.0625,-0.375 0.0535,-0.23107 0.11145,-0.45318 0.15625,-0.6875 0.0766,-0.40213 0.1373,-0.80786 0.1875,-1.21875 0.0154,-0.1256 0.0496,-0.24863 0.0625,-0.375 0.0634,-0.62529 0.0937,-1.26414 0.0937,-1.90625 0,-0.52608 -0.0197,-1.04752 -0.0625,-1.5625 -0.01,-0.1154 -0.0196,-0.22897 -0.0312,-0.34375 -0.0129,-0.12745 -0.047,-0.24833 -0.0625,-0.375 -0.0515,-0.42119 -0.1083,-0.83803 -0.1875,-1.25 -0.0341,-0.17754 -0.0547,-0.35555 -0.0937,-0.53125 -0.0659,-0.29582 -0.13895,-0.58469 -0.21875,-0.875 -0.10146,-0.36971 -0.22039,-0.7337 -0.34375,-1.09375 -0.16169,-0.47191 -0.33346,-0.9212 -0.53125,-1.375 -0.33348,-0.76509 -0.72673,-1.51164 -1.15625,-2.21875 -0.08,-0.13171 -0.13555,-0.27672 -0.21875,-0.40625 -0.15224,-0.23757 -0.33741,-0.45749 -0.5,-0.6875 -0.20375,-0.28727 -0.40562,-0.5689 -0.625,-0.84375 -0.15169,-0.19113 -0.3097,-0.3776 -0.4687,-0.5625 -0.12954,-0.14983 -0.27205,-0.29192 -0.40625,-0.4375 -0.26173,-0.28393 -0.53369,-0.57659 -0.8125,-0.84375 -0.33615,-0.32211 -0.67164,-0.64113 -1.03125,-0.9375 -0.0175,-0.0142 -0.045,-0.01695 -0.0625,-0.03125 -0.37818,-0.30938 -0.75404,-0.59564 -1.15625,-0.875 -0.32268,-0.22412 -0.66285,-0.45244 -1,-0.65625 -0.1545,-0.0934 -0.31135,-0.19225 -0.46875,-0.28125 -0.23564,-0.13336 -0.47685,-0.25178 -0.71875,-0.375 -0.25814,-0.13149 -0.51632,-0.25535 -0.78125,-0.375 -0.20442,-0.09234 -0.41671,-0.1649 -0.625,-0.25 -0.32677,-0.13348 -0.66422,-0.25989 -1,-0.375 -0.24833,-0.08514 -0.49704,-0.1752 -0.75,-0.25 -1.67528,-0.49535 -3.44474,-0.78125 -5.28125,-0.78125 z m 0,11.09375 c 4.15844,0 7.53125,3.372807 7.53125,7.53125 0,4.158443 -3.37281,7.5 -7.53125,7.5 -4.15844,0 -7.53125,-3.341557 -7.53125,-7.5 0,-4.158443 3.37281,-7.53125 7.53125,-7.53125 z"
       id="path6208"
       inkscape:connector-curvature="0" />
    <path
       style="opacity:0.75739644;color:#000000;fill:#000000;fill-opacity:0.39215686;fill-rule:nonzero;stroke:none;stroke-width:0.99921262;marker:none;visibility:visible;display:inline;overflow:visible;enable-background:accumulate"
       d="m 94.90625,39.40625 c -1.8365,0 -3.60597,0.2859 -5.28125,0.78125 -0.25296,0.0748 -0.50167,0.16486 -0.75,0.25 -0.33578,0.11511 -0.67323,0.24152 -1,0.375 -0.20829,0.0851 -0.42058,0.15766 -0.625,0.25 -0.26493,0.11965 -0.52311,0.24351 -0.78125,0.375 -0.2419,0.12322 -0.48311,0.24164 -0.71875,0.375 -0.1574,0.089 -0.31425,0.18785 -0.46875,0.28125 -0.33715,0.20381 -0.67732,0.43213 -1,0.65625 -0.40221,0.27936 -0.77807,0.56562 -1.15625,0.875 -0.0175,0.0143 -0.045,0.01705 -0.0625,0.03125 -0.35961,0.29637 -0.6951,0.61539 -1.03125,0.9375 -0.27881,0.26716 -0.55077,0.55982 -0.8125,0.84375 -0.1342,0.14558 -0.27671,0.28767 -0.40625,0.4375 -0.159,0.1849 -0.31701,0.37137 -0.46875,0.5625 -0.21938,0.27485 -0.42125,0.55648 -0.625,0.84375 -0.16259,0.23001 -0.34776,0.44993 -0.5,0.6875 C 79.13555,48.09828 79.08,48.24329 79,48.375 c -0.42952,0.70711 -0.82277,1.45366 -1.15625,2.21875 -0.19779,0.4538 -0.36956,0.90309 -0.53125,1.375 -0.12336,0.36005 -0.24229,0.72403 -0.34375,1.09375 -0.0798,0.29031 -0.15289,0.57918 -0.21875,0.875 -0.0391,0.1757 -0.05965,0.35371 -0.09375,0.53125 -0.0792,0.41197 -0.136,0.82881 -0.1875,1.25 -0.0155,0.12667 -0.0496,0.24755 -0.0625,0.375 -0.0117,0.11478 -0.02175,0.22835 -0.03125,0.34375 -0.0428,0.51498 -0.0625,1.03642 -0.0625,1.5625 0,0.64211 0.03035,1.28096 0.09375,1.90625 0.0129,0.12637 0.0471,0.2494 0.0625,0.375 0.0502,0.41089 0.11093,0.81662 0.1875,1.21875 0.0448,0.23432 0.10272,0.45643 0.15625,0.6875 0.0286,0.12399 0.0315,0.25197 0.0625,0.375 0.0184,0.0725 0.0433,0.14661 0.0625,0.21875 0.11035,0.41385 0.23731,0.84814 0.375,1.25 0.1388,0.4051 0.27201,0.795659 0.4375,1.1875 0.0269,0.0636 0.06615,0.12421 0.09375,0.1875 0.38974,0.89416 0.82378,1.74847 1.34375,2.5625 0.008,0.0121 0.02365,0.01945 0.03125,0.03125 0.005,0.007 -0.005,0.02425 0,0.03125 0.16454,0.25549 0.35471,0.50332 0.53125,0.75 0.25507,0.35781 0.53332,0.69293 0.8125,1.03125 0.25275,0.3063 0.50971,0.61689 0.78125,0.90625 0.21968,0.23333 0.4561,0.46577 0.6875,0.6875 0.61222,0.58664 1.2495,1.12573 1.9375,1.625 0.12139,0.0883 0.25141,0.16458 0.375,0.25 0.0544,0.0375 0.10146,0.0881 0.15625,0.125 0.33216,0.22435 0.68426,0.42203 1.03125,0.625 0.35304,0.20594 0.72638,0.41083 1.09375,0.59375 0.15432,0.0769 0.31202,0.14609 0.46875,0.21875 0.36648,0.16982 0.7148,0.32248 1.09375,0.46875 0.46392,0.17907 0.95646,0.35777 1.4375,0.5 1.67528,0.49535 3.44475,0.78125 5.28125,0.78125 5.50164,0 10.43196,-2.39339 13.84375,-6.1875 6.10825,0 28.6875,-0.12123 28.6875,3.53125 l 3.125,0 28.375,0 0,-10.625 -10.625,0 0,-10.625 10.625,0 0,-10.625 -21.28125,0 -7.09375,0 -3.125,0 c 0,3.334489 -21.10014,3.52859 -28.6875,3.53125 -3.41179,-3.794109 -8.34211,-6.1875 -13.84375,-6.1875 z m 0.03125,11.0625 c 4.158443,0 7.53125,3.372807 7.53125,7.53125 0,4.158443 -3.372807,7.53125 -7.53125,7.53125 -4.158443,0 -7.53125,-3.372807 -7.53125,-7.53125 0,-4.158443 3.372807,-7.53125 7.53125,-7.53125 z"
       transform="translate(293.23804,-58.918004)"
       id="path6368"
       inkscape:connector-curvature="0" />
    <path
       style="opacity:0.75739644;color:#000000;fill:#000000;fill-opacity:0.39215686;fill-rule:nonzero;stroke:none;stroke-width:0.99921262;marker:none;visibility:visible;display:inline;overflow:visible;enable-background:accumulate"
       d="M 534.46875,3.84375 533.5,14.4375 l 10.59375,0.96875 -0.96875,10.5625 -10.59375,-0.9375 -0.9375,10.5625 10.59375,0.96875 -8.84375,97.625 c -1.14856,12.71841 -11.90536,13.85742 -12.4375,19.75 L 519.9375,164.5 c -0.61369,6.7956 7.11987,9.76697 6.15625,20.4375 l -6.1875,68.53125 C 513.27426,252.86983 503.1874,251.89901 503.5,248.4375 l -3.125,-0.28125 -10.59375,-0.96875 -15.84375,-1.4375 -0.96875,10.59375 15.875,1.4375 3.5,0.3125 -0.9375,10.59375 L 487.875,268.375 472,266.9375 471.0625,277.5 l 15.875,1.4375 10.5625,0.96875 3.125,0.28125 c 0.30717,-3.40145 20.24044,-1.71726 28.875,-0.9375 3.05671,4.0856 7.77066,6.91143 13.25,7.40625 10.23216,0.92404 19.26347,-6.61158 20.1875,-16.84375 0.75885,-8.40309 -4.19555,-15.97877 -11.65625,-18.9375 C 554.0739,219.95096 537.15857,210.2356 555.625,5.75 L 545.03125,4.8125 534.46875,3.84375 z m -6.5,150.71875 10.59375,0.96875 -0.96875,10.5625 L 527,165.15625 527.96875,154.5625 z m 16.4375,106.0625 c 4.15844,0 7.53125,3.37281 7.53125,7.53125 0,4.15844 -3.37281,7.53125 -7.53125,7.53125 -4.15844,0 -7.53125,-3.37281 -7.53125,-7.53125 0,-4.15844 3.37281,-7.53125 7.53125,-7.53125 z"
       transform="translate(293.23804,-58.918004)"
       id="path6375"
       inkscape:connector-curvature="0" />
    <path
       style="opacity:0.75739644;color:#000000;fill:#000000;fill-opacity:0.39215686;fill-rule:nonzero;stroke:none;stroke-width:0.99921262;marker:none;visibility:visible;display:inline;overflow:visible;enable-background:accumulate"
       d="m 309.43263,-44.75 0,31.90625 21.44237,0 0,170.0625 -21.44237,0 0,31.90625 53.125,0 0,-31.90625 0.005,0 0,-31.90625 120.25,0 0,-17.71875 93.5,0 115.09375,0 109.15625,0 2.0625,0 8.5625,0 0,-70.84375 -8.5625,0 -2.0625,0 -109.15625,0 -115.09375,0 -93.5,0 0,-17.71875 -120.25,0 0,-31.875 -0.005,0 0,-31.90625 z m 10.625,10.625 10.625,0 0,10.625 -10.4375,0 -0.1875,0 z m 21.25,0 10.625,0 0,10.625 -10.625,0 z m 77.84862,65.53125 c 3.91383,0 7.0625,3.179921 7.0625,7.09375 0,3.913829 -3.14867,7.09375 -7.0625,7.09375 -3.91383,0 -7.09375,-3.179921 -7.09375,-7.09375 0,-3.913829 3.17992,-7.09375 7.09375,-7.09375 z M 795.0625,42.25 l 11,0 0,11 -11,0 z m -454.125,0.03125 11,0 0,11 -11,0 z m 141.87544,0 11,0 0,11 -11,0 z m 59.62456,0 11,0 0,11 -11,0 z m -164.03125,8.28125 81.5,0 c 0,21.957351 0,43.21875 0,43.21875 l -81.5,0 z m 206.5,8.3125 95.6875,0 95.65625,0 c 7.33843,0 13.3125,5.974071 13.3125,13.3125 0,7.338429 -5.97407,13.28125 -13.3125,13.28125 l -95.65625,0 -95.6875,0 c -7.33843,0 -13.28125,-5.942821 -13.28125,-13.28125 0,-7.338429 5.94282,-13.3125 13.28125,-13.3125 z m 210.15625,32.21875 11,0 0,11 -11,0 z m -454.125,0.03125 11,0 0,11 -11,0 z m 141.87544,0 11,0 0,11 -11,0 z m 59.62456,0 11,0 0,11 -11,0 z M 419.15625,98.75 c 3.91383,0 7.0625,3.14867 7.0625,7.0625 0,3.91383 -3.14867,7.09375 -7.0625,7.09375 -3.91383,0 -7.09375,-3.17992 -7.09375,-7.09375 0,-3.91383 3.17992,-7.0625 7.09375,-7.0625 z m -99.09862,69.09375 0.1875,0 10.4375,0 0,10.625 -10.625,0 z m 21.25,0 10.625,0 0,10.625 -10.625,0 z"
       id="rect6227"
       inkscape:connector-curvature="0"
       sodipodi:nodetypes="ccccccccccccccccccccccccccccccccccccccccssssscccccccccccccccccccccccccscssscsssccccccccccccccccccccsssssccccccccccc"
       transform="translate(0,2.5390623e-6)" />
    <path
       style="opacity:0.75739644;color:#000000;fill:#000000;fill-opacity:0.39215686;fill-rule:nonzero;stroke:none;stroke-width:0.99921262;marker:none;visibility:visible;display:inline;overflow:visible;enable-background:accumulate"
       d="m 545.80054,108.52457 -46.0625,0 0,10.625 12.39459,0 0,10.65118 0,12.75 5.32416,0 0,10.625 -5.32416,0 0,3.53125 c 0,3.91383 6.72283,7.09375 10.63666,7.09375 3.91383,0 10.6388,-3.17992 10.6388,-7.09375 l 0,-3.53125 -5.3263,0 0,-10.625 5.29505,0 0,-12.75 0,-10.65118 12.4237,0 z"
       id="path5728"
       inkscape:connector-curvature="0"
       sodipodi:nodetypes="cccccccccssscccccccc" />
    <path
       style="opacity:0.75739644;color:#000000;fill:#000000;fill-opacity:0.39215686;fill-rule:nonzero;stroke:none;stroke-width:0.99921262;marker:none;visibility:visible;display:inline;overflow:visible;enable-background:accumulate"
       d="m 122.1875,205.46875 c -21.52606,0 -38.96875,17.44268 -38.96875,38.96875 0,21.52606 17.44269,39 38.96875,39 21.52606,0 38.96875,-17.47394 38.96875,-39 0,-21.52607 -17.44269,-38.96875 -38.96875,-38.96875 z m 0,31.46875 c 2.06348,0 3.95245,0.84306 5.3125,2.1875 1.3808,1.36494 2.21875,3.24879 2.21875,5.34375 0,2.08733 -0.8468,3.94868 -2.21875,5.3125 -1.3613,1.35322 -3.24139,2.21875 -5.3125,2.21875 -2.07922,0 -3.94992,-0.85617 -5.3125,-2.21875 -1.36258,-1.36258 -2.21875,-3.23328 -2.21875,-5.3125 0,-2.07922 0.85617,-3.94992 2.21875,-5.3125 l 0,-0.0312 0.0312,0 c 1.36005,-1.34444 3.21777,-2.1875 5.28125,-2.1875 z"
       transform="translate(293.23804,-58.918004)"
       id="path5673"
       inkscape:connector-curvature="0" />
    <path
       style="opacity:0.75739644;color:#000000;fill:#000000;fill-opacity:0.39215686;fill-rule:nonzero;stroke:none;stroke-width:0.99921262;marker:none;visibility:visible;display:inline;overflow:visible;enable-background:accumulate"
       d="m 781.57812,-31.406247 -5.125,5.125 -3.625,-3.625 -3.59375,6.21875 -4.46875,-2.59375 -1.875,6.999999 -4.96875,-1.34375 0,7.21875 -5.15625,0 1.875,6.9375003 -4.96875,1.34375 3.59375,6.2500005 -4.4375,2.5625 5.09375,5.0937505 -3.65625,3.6562497 6.25,3.59375 -2.5625,4.4375 6.96875,1.875 -1.34375,5 7.21875,0 0,5.15625 6.9375,-1.875 1.3125,4.96875 6.28125,-3.625 2.5625,4.46875 5.09375,-5.09375 3.65625,3.65625 3.59375,-6.25 4.4375,2.5625 1.875,-6.96875 5,1.34375 0,-7.21875 5.15625,0 -1.875,-6.96875 4.9375,-1.3125 -3.59375,-6.2500002 4.46875,-2.5625 -5.09375,-5.1250005 3.625,-3.625 -6.21875,-3.5937503 2.59375,-4.46875 -7,-1.875 1.34375,-4.968749 -7.21875,0 0,-5.15625 -6.96875,1.875 -1.34375,-4.96875 -6.21875,3.59375 -2.5625,-4.46875 z m -4.15625,28.5937493 10.625,0 0,10.656251 -10.625,0 0,-10.656251 z"
       id="path5381"
       inkscape:connector-curvature="0" />
    <path
       style="opacity:0.75739644;color:#000000;fill:#000000;fill-opacity:0.39215686;fill-rule:nonzero;stroke:none;stroke-width:0.99921262;marker:none;visibility:visible;display:inline;overflow:visible;enable-background:accumulate"
       d="m 653.54687,-31.406247 c -18.59069,0 -33.65625,15.06556 -33.65625,33.65625 0,18.59069 15.06556,33.65625 33.65625,33.65625 18.59069,0 33.65625,-15.06556 33.65625,-33.65625 0,-18.59069 -15.06556,-33.65625 -33.65625,-33.65625 z m -15.9375,10.625 10.625,0 0,10.625 -10.625,0 z m 21.25,0 10.65625,0 0,10.625 -10.65625,0 z m -10.625,12.4043733 10.625,0 0,21.2527557 -10.625,0 z m -10.625,23.0331267 10.625,0 0,10.625 -10.625,0 z m 21.25,0 10.65625,0 0,10.625 -10.65625,0 z"
       id="path5679"
       inkscape:connector-curvature="0"
       sodipodi:nodetypes="sssssccccccccccccccccccccccccc" />
    <path
       style="opacity:0.75739644;color:#000000;fill:#000000;fill-opacity:0.39215686;fill-rule:nonzero;stroke:none;stroke-width:0.99921262;marker:none;visibility:visible;display:inline;overflow:visible;enable-background:accumulate"
       d="m 339.125,210.65625 c -7.34332,0 -13.28125,5.93793 -13.28125,13.28125 0,7.34332 5.93793,13.3125 13.28125,13.3125 7.34332,0 13.3125,-5.96918 13.3125,-13.3125 0,-7.34332 -5.96918,-13.28125 -13.3125,-13.28125 z m -5.3125,2.64458 10.625,0 0,21.27401 -10.625,0 z"
       transform="translate(305.88932,-58.930061)"
       id="path5705"
       inkscape:connector-curvature="0"
       sodipodi:nodetypes="sssssccccc" />
    <path
       style="opacity:0.75739644;color:#000000;fill:#000000;fill-opacity:0.39215686;fill-rule:nonzero;stroke:none;stroke-width:0.99921262;marker:none;visibility:visible;display:inline;overflow:visible;enable-background:accumulate"
       d="m 525.46875,200.86674 0,-10.625 10.625,0 0,-10.625 -10.625,0 0,-10.625 -10.625,0 0,10.625 -24.8125,0 0,10.625 24.8125,0 0,10.625 10.625,0 z"
       id="rect5710"
       inkscape:connector-curvature="0" />
    <path
       style="opacity:0.75739644;color:#000000;fill:#000000;fill-opacity:0.39215686;fill-rule:nonzero;stroke:none;stroke-width:0.99921262;marker:none;visibility:visible;display:inline;overflow:visible;enable-background:accumulate"
       d="m 495.73804,120.207 c -5.52863,0 -10.3897,2.82013 -13.25,7.09375 l -98.375,0 0,8.875 0,8.84375 98.375,0 c 2.8603,4.27362 7.72137,7.09375 13.25,7.09375 8.80612,0 15.9375,-7.13138 15.9375,-15.9375 0,-8.80612 -7.13138,-15.96875 -15.9375,-15.96875 z m 0,8 c 4.40306,0 8,3.56569 8,7.96875 0,4.40306 -3.59694,8 -8,8 -4.40306,0 -7.96875,-3.59694 -7.96875,-8 0,-4.40306 3.56569,-7.96875 7.96875,-7.96875 z m -106.3125,6.1875 c 0.97846,0 1.78125,0.80279 1.78125,1.78125 0,0.97846 -0.80279,1.75 -1.78125,1.75 -0.97846,0 -1.75,-0.77154 -1.75,-1.75 0,-0.97846 0.77154,-1.78125 1.75,-1.78125 z m 7.09375,0 c 0.97846,0 1.78125,0.80279 1.78125,1.78125 0,0.97846 -0.80279,1.75 -1.78125,1.75 -0.97846,0 -1.78125,-0.77154 -1.78125,-1.75 0,-0.97846 0.80279,-1.78125 1.78125,-1.78125 z m 7.09375,0 c 0.97846,0 1.78125,0.80279 1.78125,1.78125 0,0.97846 -0.80279,1.75 -1.78125,1.75 -0.97846,0 -1.78125,-0.77154 -1.78125,-1.75 0,-0.97846 0.80279,-1.78125 1.78125,-1.78125 z m 31.875,0 c 0.97846,0 1.78125,0.80279 1.78125,1.78125 0,0.97846 -0.80279,1.75 -1.78125,1.75 -0.97846,0 -1.75,-0.77154 -1.75,-1.75 0,-0.97846 0.77154,-1.78125 1.75,-1.78125 z m 7.09375,0 c 0.97846,0 1.78125,0.80279 1.78125,1.78125 0,0.97846 -0.80279,1.75 -1.78125,1.75 -0.97846,0 -1.78125,-0.77154 -1.78125,-1.75 0,-0.97846 0.80279,-1.78125 1.78125,-1.78125 z m 7.09375,0 c 0.97846,0 1.78125,0.80279 1.78125,1.78125 0,0.97846 -0.80279,1.75 -1.78125,1.75 -0.97846,0 -1.78125,-0.77154 -1.78125,-1.75 0,-0.97846 0.80279,-1.78125 1.78125,-1.78125 z m 7.09375,0 c 0.97846,0 1.75,0.80279 1.75,1.78125 0,0.97846 -0.77154,1.75 -1.75,1.75 -0.97846,0 -1.78125,-0.77154 -1.78125,-1.75 0,-0.97846 0.80279,-1.78125 1.78125,-1.78125 z m 7.0625,0 c 0.97846,0 1.78125,0.80279 1.78125,1.78125 0,0.97846 -0.80279,1.75 -1.78125,1.75 -0.97846,0 -1.75,-0.77154 -1.75,-1.75 0,-0.97846 0.77154,-1.78125 1.75,-1.78125 z m 7.09375,0 c 0.97846,0 1.78125,0.80279 1.78125,1.78125 0,0.97846 -0.80279,1.75 -1.78125,1.75 -0.97846,0 -1.75,-0.77154 -1.75,-1.75 0,-0.97846 0.77154,-1.78125 1.75,-1.78125 z"
       id="rect5788"
       inkscape:connector-curvature="0" />
    <path
       style="opacity:0.75739644;color:#000000;fill:#000000;fill-opacity:0.39215686;fill-rule:nonzero;stroke:none;stroke-width:0.99921262;marker:none;visibility:visible;display:inline;overflow:visible;enable-background:accumulate"
       d="m 539.61768,-31.020502 0,21.2500003 -28.375,0 0,21.2812497 10.65625,0 0,-10.65624969 10.65625,0 0,10.65624969 24.78125,0 0,-10.65624969 10.625,0 0,10.65624969 10.65625,0 0,-21.2812497 -28.34375,0 0,-21.2500003 -10.65625,0 z"
       id="rect5993"
       inkscape:connector-curvature="0" />
    <path
       style="opacity:0.75739644;color:#000000;fill:#000000;fill-opacity:0.39215686;fill-rule:nonzero;stroke:none;stroke-width:0.99921262;marker:none;visibility:visible;display:inline;overflow:visible;enable-background:accumulate"
       d="m 281.0625,166.6875 c -21.52606,0 -38.96875,17.44268 -38.96875,38.96875 0,21.52606 17.44269,39 38.96875,39 21.52606,0 38.96875,-17.47394 38.96875,-39 0,-21.52607 -17.44269,-38.96875 -38.96875,-38.96875 z m 0,31.4375 c 2.07111,0 3.9512,0.86553 5.3125,2.21875 1.37195,1.36382 2.21875,3.22517 2.21875,5.3125 0,2.08782 -0.84623,3.97986 -2.21875,5.34375 -1.36122,1.35266 -3.24187,2.1875 -5.3125,2.1875 -2.07922,0 -3.94992,-0.82492 -5.3125,-2.1875 -1.36258,-1.36258 -2.21875,-3.26453 -2.21875,-5.34375 0,-2.07922 0.85617,-3.94992 2.21875,-5.3125 1.36258,-1.36258 3.23328,-2.21875 5.3125,-2.21875 z"
       transform="translate(293.23804,-58.918004)"
       id="path6223"
       inkscape:connector-curvature="0" />
    <path
       style="opacity:0.75739644;color:#000000;fill:#000000;fill-opacity:0.39215686;fill-rule:nonzero;stroke:none;stroke-width:0.99921262;marker:none;visibility:visible;display:inline;overflow:visible;enable-background:accumulate"
       d="m 847.03183,233.62741 -24.8125,0 0,-10.625 -10.625,0 c 0,10.51084 -141.71875,10.88516 -141.71875,0 l -10.625,0 0,10.625 -24.8125,0 0,0.0312 0,10.59375 0,0.0312 24.8125,0 0,10.625 10.625,0 c 0,-10.88516 141.71875,-10.51084 141.71875,0 l 10.625,0 0,-10.625 24.8125,0 0,-0.0312 0,-10.59375 z"
       id="rect6262"
       inkscape:connector-curvature="0"
       sodipodi:nodetypes="ccccccccccccccccccccc" />
    <path
       style="opacity:0.75739644;color:#000000;fill:#000000;fill-opacity:0.39215686;fill-rule:nonzero;stroke:none;stroke-width:0.99921262;marker:none;visibility:visible;display:inline;overflow:visible;enable-background:accumulate"
       d="m 751.3125,186.46645 -76.5625,0 0,-42.15625 0,-10.99999 0.1875,0 0,-11 -11,0 0,11 -37.84375,0 0,-11 -11,0 0,11 0.1875,0 0,53.15624 -76.5625,0 0,10.625 0,10.625 8.84375,0 0,-10.625 67.71875,0 10.625,0 38.21875,0 10.625,0 67.71875,0 0,10.625 8.84375,0 0,-10.625 z m -87.1875,-45.69844 0,45.69844 -38.21875,0 0,-45.69844 z"
       id="rect6324"
       inkscape:connector-curvature="0"
       sodipodi:nodetypes="ccccccccccccccccccccccccccccccccc" />
    <path
       inkscape:connector-curvature="0"
       id="path6371"
       d="m 611.26562,-33.406247 76.5625,0 0,42.15625 0,11 -0.1875,0 0,11 11,0 0,-11 37.84375,0 0,11 11,0 0,-11 -0.1875,0 0,-53.15625 76.5625,0 0,-10.625 0,-10.625 -8.84375,0 0,10.625 -67.71875,0 -10.625,0 -38.21875,0 -10.625,0 -67.71875,0 0,-10.625 -8.84375,0 0,10.625 z m 87.1875,45.701027 0,-45.701027 38.21875,0 0,45.701027 z"
       style="opacity:0.75739644;color:#000000;fill:#000000;fill-opacity:0.39215686;fill-rule:nonzero;stroke:none;stroke-width:0.99921262;marker:none;visibility:visible;display:inline;overflow:visible;enable-background:accumulate"
       sodipodi:nodetypes="ccccccccccccccccccccccccccccccccc" />
    <path
       inkscape:connector-curvature="0"
       id="path6373"
       d="m 716.46875,108.10937 c -21.52606,0 -38.96875,17.44268 -38.96875,38.96875 0,21.52606 17.44269,39 38.96875,39 21.52606,0 38.96875,-17.47394 38.96875,-39 0,-21.52607 -17.44269,-38.96875 -38.96875,-38.96875 z m -5.3125,33.65625 10.625,0 0,10.65625 -10.625,0 0,-10.65625 z"
       style="opacity:0.75739644;color:#000000;fill:#000000;fill-opacity:0.39215686;fill-rule:nonzero;stroke:none;stroke-width:0.99921262;marker:none;visibility:visible;display:inline;overflow:visible;enable-background:accumulate" />
    <rect
       style="opacity:0.75739644;color:#000000;fill:#000000;fill-opacity:0.39215686;fill-rule:nonzero;stroke:none;stroke-width:0.99921262;marker:none;visibility:visible;display:inline;overflow:visible;enable-background:accumulate"
       id="rect3080"
       width="193.67441"
       height="10.629921"
       x="581.56036"
       y="66.872543"
       ry="0" />
    <rect
       style="opacity:0.75739644;color:#000000;fill:#000000;fill-opacity:0.39215686;fill-rule:nonzero;stroke:none;stroke-width:0.99921262;marker:none;visibility:visible;display:inline;overflow:visible;enable-background:accumulate"
       id="rect3092"
       width="70.866142"
       height="10.629921"
       x="379.97366"
       y="66.430115" />
    <rect
       y="53.115158"
       x="379.97366"
       height="10.629921"
       width="70.866142"
       id="rect3094"
       style="opacity:0.75739644;color:#000000;fill:#000000;fill-opacity:0.39215686;fill-rule:nonzero;stroke:none;stroke-width:0.99921262;marker:none;visibility:visible;display:inline;overflow:visible;enable-background:accumulate" />
    <rect
       y="79.745079"
       x="379.97366"
       height="10.629921"
       width="70.866142"
       id="rect3096"
       style="opacity:0.75739644;color:#000000;fill:#000000;fill-opacity:0.39215686;fill-rule:nonzero;stroke:none;stroke-width:0.99921262;marker:none;visibility:visible;display:inline;overflow:visible;enable-background:accumulate" />
    <path
       style="opacity:0.75739644;color:#000000;fill:#000000;fill-opacity:0.39215686;fill-rule:nonzero;stroke:none;stroke-width:0.99921262;marker:none;visibility:visible;display:inline;overflow:visible;enable-background:accumulate"
       d="m 785.79557,108.72619 c -15.65532,0 -28.34375,12.68843 -28.34375,28.34375 0,13.84223 9.91143,25.35996 23.03125,27.84375 l 0,-22.78125 0,-10.375 0,-0.25 10.625,0 0,0.25 0,10.375 0,22.78125 c 13.10464,-2.4959 23.03125,-14.01228 23.03125,-27.84375 0,-15.65532 -12.68843,-28.34375 -28.34375,-28.34375 z m -21.25,33.40625 10.625,0 0,10.625 -10.625,0 0,-10.625 z m 31.875,0 10.625,0 0,10.625 -10.625,0 0,-10.625 z"
       id="path3150"
       inkscape:connector-curvature="0" />
    <path
       style="opacity:0.75739644;color:#000000;fill:#000000;fill-opacity:0.39215686;fill-rule:nonzero;stroke:none;stroke-width:0.99921262;marker:none;visibility:visible;display:inline;overflow:visible;enable-background:accumulate"
       d="m 763.92057,163.94494 0,10.28125 0,10.625 10.625,0 10.625,0 10.625,0 10.625,0 0,-10.625 0,-10.28125 -10.625,0 0,10.28125 -10.625,0 -10.625,0 0,-10.28125 -10.625,0 z"
       id="rect3155"
       inkscape:connector-curvature="0" />
  </g>
</svg>
