<?xml version="1.0" encoding="UTF-8" standalone="no"?>
<!-- Created with Inkscape (http://www.inkscape.org/) -->

<svg
   xmlns:dc="http://purl.org/dc/elements/1.1/"
   xmlns:cc="http://creativecommons.org/ns#"
   xmlns:rdf="http://www.w3.org/1999/02/22-rdf-syntax-ns#"
   xmlns:svg="http://www.w3.org/2000/svg"
   xmlns="http://www.w3.org/2000/svg"
   xmlns:sodipodi="http://sodipodi.sourceforge.net/DTD/sodipodi-0.dtd"
   xmlns:inkscape="http://www.inkscape.org/namespaces/inkscape"
   sodipodi:docname="spinne.svg"
   inkscape:version="0.48.5 r10040"
   version="1.1"
   id="svg2"
   height="297mm"
   width="210mm">
  <sodipodi:namedview
     id="base"
     pagecolor="#ffffff"
     bordercolor="#666666"
     borderopacity="1.0"
     inkscape:pageopacity="0.0"
     inkscape:pageshadow="2"
     inkscape:zoom="3.959798"
     inkscape:cx="-56.037049"
     inkscape:cy="531.89306"
     inkscape:document-units="mm"
     inkscape:current-layer="layer1"
     showgrid="false"
     inkscape:window-width="1920"
     inkscape:window-height="1005"
     inkscape:window-x="-9"
     inkscape:window-y="-9"
     inkscape:window-maximized="1"
     inkscape:object-nodes="true"
     inkscape:snap-midpoints="true"
     inkscape:snap-object-midpoints="true"
     inkscape:snap-smooth-nodes="true" />
  <defs
     id="defs4" />
  <metadata
     id="metadata7">
    <rdf:RDF>
      <cc:Work
         rdf:about="">
        <dc:format>image/svg+xml</dc:format>
        <dc:type
           rdf:resource="http://purl.org/dc/dcmitype/StillImage" />
        <dc:title />
        <dc:creator>
          <cc:Agent>
            <dc:title>Nicco Kunzmann</dc:title>
          </cc:Agent>
        </dc:creator>
        <cc:license
           rdf:resource="http://creativecommons.org/licenses/by/4.0/" />
      </cc:Work>
      <cc:License
         rdf:about="http://creativecommons.org/licenses/by/3.0/">
        <cc:permits
           rdf:resource="http://creativecommons.org/ns#Reproduction" />
        <cc:permits
           rdf:resource="http://creativecommons.org/ns#Distribution" />
        <cc:requires
           rdf:resource="http://creativecommons.org/ns#Notice" />
        <cc:requires
           rdf:resource="http://creativecommons.org/ns#Attribution" />
        <cc:permits
           rdf:resource="http://creativecommons.org/ns#DerivativeWorks" />
      </cc:License>
    </rdf:RDF>
  </metadata>
  <g
     inkscape:label="Ebene 1"
     inkscape:groupmode="layer"
     id="layer1">
    <path
       style="opacity:0.3;color:#000000;fill:#000000;fill-opacity:1;fill-rule:nonzero;stroke:none;stroke-width:10;marker:none;visibility:visible;display:inline;overflow:visible;enable-background:accumulate"
       d="m 492.90625,661.875 -3.15625,10.15625 -3.1875,10.125 -3.1875,10.1875 c -1.93237,7.21169 -9.22044,9.09375 -13.53125,9.09375 0,-9.88242 -8.02383,-17.90625 -17.90625,-17.90625 -9.88242,0 -17.875,8.02383 -17.875,17.90625 l 0,26 -258.40625,0 0,0.0312 -8.5625,0 c -5.87074,0 -10.625,4.75426 -10.625,10.625 l 0,10.625 c 0,5.87074 4.75426,10.625 10.625,10.625 l 8.5625,0 2.0625,0 356.3125,0 0,-0.0312 c 5.87074,0 10.625,-4.75426 10.625,-10.625 l 0,-10.625 c 0,-13.72754 4.15606,-19.62481 8.46875,-23.9375 l 3.65625,1.125 11.96875,3.75 2.15625,0.6875 7.78125,2.40625 2.21875,0.71875 18.03125,5.625 13.96875,-9.03125 2.53125,-8.09375 3.15625,-10.125 -10.125,-3.1875 -10.125,-3.15625 -10.125,-3.15625 -10.15625,-3.1875 -15.40625,-4.8125 -0.0312,0 -0.0312,-0.0312 -0.0312,0 -0.0312,0 -10.0625,-3.15625 -37.625,-11.78125 -11.78125,-3.65625 z"
       id="path4105"
       inkscape:connector-curvature="0"
       sodipodi:nodetypes="cccccsscccssssccccscccccccccccccccccccccccc" />
    <rect
       style="opacity:0.31666667;color:#000000;fill:#000000;fill-opacity:1;fill-rule:nonzero;stroke:none;stroke-width:10;marker:none;visibility:visible;display:inline;overflow:visible;enable-background:accumulate"
       id="rect4781"
       width="40.749989"
       height="17.718754"
       x="282.32092"
       y="226.83086" />
    <g
       id="g5820"
       transform="matrix(-0.38268343,0.92387953,-0.92387953,-0.38268343,477.17615,528.05337)"
       inkscape:label="Gear8"
       style="opacity:0.3;fill:#000000;fill-opacity:1;stroke:none">
      <path
         id="path5822"
         d="m 10.924,-2.343 2.763,-0.592 0.924,0.029 3.983,1.899 0,2.014 -3.983,1.899 -0.924,0.029 -2.763,-0.592 -1.543,3.725 2.373,1.535 0.632,0.673 1.474,4.16 -1.424,1.424 -4.16,-1.474 -0.673,-0.632 -1.535,-2.373 -3.725,1.543 0.592,2.763 -0.029,0.924 -1.899,3.983 -2.014,0 -1.899,-3.983 -0.029,-0.924 0.592,-2.763 -3.725,-1.543 -1.535,2.373 -0.673,0.632 -4.16,1.474 -1.424,-1.424 1.474,-4.16 0.632,-0.673 2.373,-1.535 -1.543,-3.725 -2.763,0.592 -0.924,-0.029 -3.983,-1.899 0,-2.014 3.983,-1.899 0.924,-0.029 2.763,0.592 1.543,-3.725 -2.373,-1.535 -0.632,-0.673 -1.474,-4.16 1.424,-1.424 4.16,1.474 0.673,0.632 1.535,2.373 3.725,-1.543 -0.592,-2.763 0.029,-0.924 1.899,-3.983 2.014,0 1.899,3.983 0.029,0.924 -0.592,2.763 3.725,1.543 1.535,-2.373 0.673,-0.632 4.16,-1.474 1.424,1.424 -1.474,4.16 -0.632,0.673 -2.373,1.535 z"
         style="fill:#000000;fill-opacity:1;stroke:none"
         inkscape:connector-curvature="0" />
    </g>
    <rect
       style="opacity:0.3;color:#000000;fill:#000000;fill-opacity:1;fill-rule:nonzero;stroke:none;stroke-width:10;marker:none;visibility:visible;display:inline;overflow:visible;enable-background:accumulate"
       id="rect5824"
       width="9.9212599"
       height="9.9212599"
       x="472.21552"
       y="523.09277" />
    <rect
       y="381.92679"
       x="178.05276"
       height="31.51063"
       width="63.779526"
       id="rect5857"
       style="opacity:0.3;color:#000000;fill:#000000;fill-opacity:1;fill-rule:nonzero;stroke:none;stroke-width:10;marker:none;visibility:visible;display:inline;overflow:visible;enable-background:accumulate" />
    <rect
       y="392.36716"
       x="231.20236"
       height="10.629921"
       width="10.629921"
       id="rect5859"
       style="opacity:0.3;color:#000000;fill:#000000;fill-opacity:1;fill-rule:nonzero;stroke:none;stroke-width:10;marker:none;visibility:visible;display:inline;overflow:visible;enable-background:accumulate" />
    <rect
       style="opacity:0.3;color:#000000;fill:#000000;fill-opacity:1;fill-rule:nonzero;stroke:none;stroke-width:10;marker:none;visibility:visible;display:inline;overflow:visible;enable-background:accumulate"
       id="rect5861"
       width="10.629921"
       height="10.629921"
       x="220.57245"
       y="392.36716" />
    <path
       inkscape:connector-curvature="0"
       style="opacity:0.3;fill:#000000;fill-opacity:1;stroke:none"
       d="m 458.62409,524.76555 1.026,-0.083 2.735,0.448 3.802,1.591 0,2.664 -3.802,1.591 -2.735,0.448 -1.026,-0.083 -0.54,4.104 1.012,0.186 2.526,1.141 3.26,2.52 -0.689,2.574 -4.084,0.552 -2.758,-0.275 -0.969,-0.345 -1.584,3.824 0.929,0.442 2.145,1.755 2.497,3.279 -1.332,2.307 -4.088,-0.523 -2.593,-0.98 -0.847,-0.584 -2.52,3.284 0.784,0.667 1.617,2.251 1.564,3.813 -1.884,1.884 -3.813,-1.564 -2.251,-1.617 -0.667,-0.784 -3.284,2.52 0.584,0.847 0.98,2.593 0.523,4.088 -2.307,1.332 -3.279,-2.497 -1.755,-2.145 -0.442,-0.929 -3.824,1.584 0.345,0.969 0.275,2.758 -0.552,4.084 -2.574,0.689 -2.52,-3.26 -1.141,-2.526 -0.186,-1.012 -4.104,0.54 0.083,1.026 -0.448,2.735 -1.591,3.802 -2.664,0 -1.591,-3.802 -0.448,-2.735 0.083,-1.026 -4.104,-0.54 -0.186,1.012 -1.141,2.526 -2.52,3.26 -2.574,-0.689 -0.552,-4.084 0.275,-2.758 0.345,-0.969 -3.824,-1.584 -0.442,0.929 -1.755,2.145 -3.279,2.497 -2.307,-1.332 0.523,-4.088 0.98,-2.593 0.584,-0.847 -3.284,-2.52 -0.667,0.784 -2.251,1.617 -3.813,1.564 -1.884,-1.884 1.564,-3.813 1.617,-2.251 0.784,-0.667 -2.52,-3.284 -0.847,0.584 -2.593,0.98 -4.088,0.523 -1.332,-2.307 2.497,-3.279 2.145,-1.755 0.929,-0.442 -1.584,-3.824 -0.969,0.345 -2.758,0.275 -4.084,-0.552 -0.689,-2.574 3.26,-2.52 2.526,-1.141 1.012,-0.186 -0.54,-4.104 -1.026,0.083 -2.735,-0.448 -3.802,-1.591 0,-2.664 3.802,-1.591 2.735,-0.448 1.026,0.083 0.54,-4.104 -1.012,-0.186 -2.526,-1.141 -3.26,-2.52 0.689,-2.574 4.084,-0.552 2.758,0.275 0.969,0.345 1.584,-3.824 -0.929,-0.442 -2.145,-1.755 -2.497,-3.279 1.332,-2.307 4.088,0.523 2.593,0.98 0.847,0.584 2.52,-3.284 -0.784,-0.667 -1.617,-2.251 -1.564,-3.813 1.884,-1.884 3.813,1.564 2.251,1.617 0.667,0.784 3.284,-2.52 -0.584,-0.847 -0.98,-2.593 -0.523,-4.088 2.307,-1.332 3.279,2.497 1.755,2.145 0.442,0.929 3.824,-1.584 -0.345,-0.969 -0.275,-2.758 0.552,-4.084 2.574,-0.689 2.52,3.26 1.141,2.526 0.186,1.012 4.104,-0.54 -0.083,-1.026 0.448,-2.735 1.591,-3.802 2.664,0 1.591,3.802 0.448,2.735 -0.083,1.026 4.104,0.54 0.186,-1.012 1.141,-2.526 2.52,-3.26 2.574,0.689 0.552,4.084 -0.275,2.758 -0.345,0.969 3.824,1.584 0.442,-0.929 1.755,-2.145 3.279,-2.497 2.307,1.332 -0.523,4.088 -0.98,2.593 -0.584,0.847 3.284,2.52 0.667,-0.784 2.251,-1.617 3.813,-1.564 1.884,1.884 -1.564,3.813 -1.617,2.251 -0.784,0.667 2.52,3.284 0.847,-0.584 2.593,-0.98 4.088,-0.523 1.332,2.307 -2.497,3.279 -2.145,1.755 -0.929,0.442 1.584,3.824 0.969,-0.345 2.758,-0.275 4.084,0.552 0.689,2.574 -3.26,2.52 -2.526,1.141 -1.012,0.186 z"
       id="path5913" />
    <rect
       transform="scale(-1,1)"
       style="opacity:0.3;color:#000000;fill:#000000;fill-opacity:1;fill-rule:nonzero;stroke:none;stroke-width:10;marker:none;visibility:visible;display:inline;overflow:visible;enable-background:accumulate"
       id="rect5788-7"
       width="9.9212599"
       height="9.9212599"
       x="-422.7507"
       y="523.0929" />
    <g
       style="opacity:0.3;fill:#000000;fill-opacity:1;stroke:none"
       inkscape:label="Gear8"
       transform="matrix(-0.38268343,0.92387953,-0.92387953,-0.38268343,358.40403,528.05373)"
       id="g5990">
      <path
         inkscape:connector-curvature="0"
         style="fill:#000000;fill-opacity:1;stroke:none"
         d="m 10.924,-2.343 2.763,-0.592 0.924,0.029 3.983,1.899 0,2.014 -3.983,1.899 -0.924,0.029 -2.763,-0.592 -1.543,3.725 2.373,1.535 0.632,0.673 1.474,4.16 -1.424,1.424 -4.16,-1.474 -0.673,-0.632 -1.535,-2.373 -3.725,1.543 0.592,2.763 -0.029,0.924 -1.899,3.983 -2.014,0 -1.899,-3.983 -0.029,-0.924 0.592,-2.763 -3.725,-1.543 -1.535,2.373 -0.673,0.632 -4.16,1.474 -1.424,-1.424 1.474,-4.16 0.632,-0.673 2.373,-1.535 -1.543,-3.725 -2.763,0.592 -0.924,-0.029 -3.983,-1.899 0,-2.014 3.983,-1.899 0.924,-0.029 2.763,0.592 1.543,-3.725 -2.373,-1.535 -0.632,-0.673 -1.474,-4.16 1.424,-1.424 4.16,1.474 0.673,0.632 1.535,2.373 3.725,-1.543 -0.592,-2.763 0.029,-0.924 1.899,-3.983 2.014,0 1.899,3.983 0.029,0.924 -0.592,2.763 3.725,1.543 1.535,-2.373 0.673,-0.632 4.16,-1.474 1.424,1.424 -1.474,4.16 -0.632,0.673 -2.373,1.535 z"
         id="path5992" />
    </g>
    <rect
       y="523.09314"
       x="353.44339"
       height="9.9212599"
       width="9.9212599"
       id="rect5994"
       style="opacity:0.3;color:#000000;fill:#000000;fill-opacity:1;fill-rule:nonzero;stroke:none;stroke-width:10;marker:none;visibility:visible;display:inline;overflow:visible;enable-background:accumulate" />
    <path
       id="path5998"
       d="m 339.85197,524.76591 1.026,-0.083 2.735,0.448 3.802,1.591 0,2.664 -3.802,1.591 -2.735,0.448 -1.026,-0.083 -0.54,4.104 1.012,0.186 2.526,1.141 3.26,2.52 -0.689,2.574 -4.084,0.552 -2.758,-0.275 -0.969,-0.345 -1.584,3.824 0.929,0.442 2.145,1.755 2.497,3.279 -1.332,2.307 -4.088,-0.523 -2.593,-0.98 -0.847,-0.584 -2.52,3.284 0.784,0.667 1.617,2.251 1.564,3.813 -1.884,1.884 -3.813,-1.564 -2.251,-1.617 -0.667,-0.784 -3.284,2.52 0.584,0.847 0.98,2.593 0.523,4.088 -2.307,1.332 -3.279,-2.497 -1.755,-2.145 -0.442,-0.929 -3.824,1.584 0.345,0.969 0.275,2.758 -0.552,4.084 -2.574,0.689 -2.52,-3.26 -1.141,-2.526 -0.186,-1.012 -4.104,0.54 0.083,1.026 -0.448,2.735 -1.591,3.802 -2.664,0 -1.591,-3.802 -0.448,-2.735 0.083,-1.026 -4.104,-0.54 -0.186,1.012 -1.141,2.526 -2.52,3.26 -2.574,-0.689 -0.552,-4.084 0.275,-2.758 0.345,-0.969 -3.824,-1.584 -0.442,0.929 -1.755,2.145 -3.279,2.497 -2.307,-1.332 0.523,-4.088 0.98,-2.593 0.584,-0.847 -3.284,-2.52 -0.667,0.784 -2.251,1.617 -3.813,1.564 -1.884,-1.884 1.564,-3.813 1.617,-2.251 0.784,-0.667 -2.52,-3.284 -0.847,0.584 -2.593,0.98 -4.088,0.523 -1.332,-2.307 2.497,-3.279 2.145,-1.755 0.929,-0.442 -1.584,-3.824 -0.969,0.345 -2.758,0.275 -4.084,-0.552 -0.689,-2.574 3.26,-2.52 2.526,-1.141 1.012,-0.186 -0.54,-4.104 -1.026,0.083 -2.735,-0.448 -3.802,-1.591 0,-2.664 3.802,-1.591 2.735,-0.448 1.026,0.083 0.54,-4.104 -1.012,-0.186 -2.526,-1.141 -3.26,-2.52 0.689,-2.574 4.084,-0.552 2.758,0.275 0.969,0.345 1.584,-3.824 -0.929,-0.442 -2.145,-1.755 -2.497,-3.279 1.332,-2.307 4.088,0.523 2.593,0.98 0.847,0.584 2.52,-3.284 -0.784,-0.667 -1.617,-2.251 -1.564,-3.813 1.884,-1.884 3.813,1.564 2.251,1.617 0.667,0.784 3.284,-2.52 -0.584,-0.847 -0.98,-2.593 -0.523,-4.088 2.307,-1.332 3.279,2.497 1.755,2.145 0.442,0.929 3.824,-1.584 -0.345,-0.969 -0.275,-2.758 0.552,-4.084 2.574,-0.689 2.52,3.26 1.141,2.526 0.186,1.012 4.104,-0.54 -0.083,-1.026 0.448,-2.735 1.591,-3.802 2.664,0 1.591,3.802 0.448,2.735 -0.083,1.026 4.104,0.54 0.186,-1.012 1.141,-2.526 2.52,-3.26 2.574,0.689 0.552,4.084 -0.275,2.758 -0.345,0.969 3.824,1.584 0.442,-0.929 1.755,-2.145 3.279,-2.497 2.307,1.332 -0.523,4.088 -0.98,2.593 -0.584,0.847 3.284,2.52 0.667,-0.784 2.251,-1.617 3.813,-1.564 1.884,1.884 -1.564,3.813 -1.617,2.251 -0.784,0.667 2.52,3.284 0.847,-0.584 2.593,-0.98 4.088,-0.523 1.332,2.307 -2.497,3.279 -2.145,1.755 -0.929,0.442 1.584,3.824 0.969,-0.345 2.758,-0.275 4.084,0.552 0.689,2.574 -3.26,2.52 -2.526,1.141 -1.012,0.186 z"
       style="opacity:0.3;fill:#000000;fill-opacity:1;stroke:none"
       inkscape:connector-curvature="0" />
    <rect
       y="523.09326"
       x="-303.97858"
       height="9.9212599"
       width="9.9212599"
       id="rect6000"
       style="opacity:0.3;color:#000000;fill:#000000;fill-opacity:1;fill-rule:nonzero;stroke:none;stroke-width:10;marker:none;visibility:visible;display:inline;overflow:visible;enable-background:accumulate"
       transform="scale(-1,1)" />
    <g
       id="g6004"
       transform="matrix(-0.38268343,0.92387953,-0.92387953,-0.38268343,239.63191,528.0541)"
       inkscape:label="Gear8"
       style="opacity:0.3;fill:#000000;fill-opacity:1;stroke:none">
      <path
         id="path6006"
         d="m 10.924,-2.343 2.763,-0.592 0.924,0.029 3.983,1.899 0,2.014 -3.983,1.899 -0.924,0.029 -2.763,-0.592 -1.543,3.725 2.373,1.535 0.632,0.673 1.474,4.16 -1.424,1.424 -4.16,-1.474 -0.673,-0.632 -1.535,-2.373 -3.725,1.543 0.592,2.763 -0.029,0.924 -1.899,3.983 -2.014,0 -1.899,-3.983 -0.029,-0.924 0.592,-2.763 -3.725,-1.543 -1.535,2.373 -0.673,0.632 -4.16,1.474 -1.424,-1.424 1.474,-4.16 0.632,-0.673 2.373,-1.535 -1.543,-3.725 -2.763,0.592 -0.924,-0.029 -3.983,-1.899 0,-2.014 3.983,-1.899 0.924,-0.029 2.763,0.592 1.543,-3.725 -2.373,-1.535 -0.632,-0.673 -1.474,-4.16 1.424,-1.424 4.16,1.474 0.673,0.632 1.535,2.373 3.725,-1.543 -0.592,-2.763 0.029,-0.924 1.899,-3.983 2.014,0 1.899,3.983 0.029,0.924 -0.592,2.763 3.725,1.543 1.535,-2.373 0.673,-0.632 4.16,-1.474 1.424,1.424 -1.474,4.16 -0.632,0.673 -2.373,1.535 z"
         style="fill:#000000;fill-opacity:1;stroke:none"
         inkscape:connector-curvature="0" />
    </g>
    <rect
       style="opacity:0.3;color:#000000;fill:#000000;fill-opacity:1;fill-rule:nonzero;stroke:none;stroke-width:10;marker:none;visibility:visible;display:inline;overflow:visible;enable-background:accumulate"
       id="rect6008"
       width="9.9212599"
       height="9.9212599"
       x="234.67128"
       y="523.09351" />
    <path
       inkscape:connector-curvature="0"
       style="opacity:0.3;fill:#000000;fill-opacity:1;stroke:none"
       d="m 221.07985,524.76628 1.026,-0.083 2.735,0.448 3.802,1.591 0,2.664 -3.802,1.591 -2.735,0.448 -1.026,-0.083 -0.54,4.104 1.012,0.186 2.526,1.141 3.26,2.52 -0.689,2.574 -4.084,0.552 -2.758,-0.275 -0.969,-0.345 -1.584,3.824 0.929,0.442 2.145,1.755 2.497,3.279 -1.332,2.307 -4.088,-0.523 -2.593,-0.98 -0.847,-0.584 -2.52,3.284 0.784,0.667 1.617,2.251 1.564,3.813 -1.884,1.884 -3.813,-1.564 -2.251,-1.617 -0.667,-0.784 -3.284,2.52 0.584,0.847 0.98,2.593 0.523,4.088 -2.307,1.332 -3.279,-2.497 -1.755,-2.145 -0.442,-0.929 -3.824,1.584 0.345,0.969 0.275,2.758 -0.552,4.084 -2.574,0.689 -2.52,-3.26 -1.141,-2.526 -0.186,-1.012 -4.104,0.54 0.083,1.026 -0.448,2.735 -1.591,3.802 -2.664,0 -1.591,-3.802 -0.448,-2.735 0.083,-1.026 -4.104,-0.54 -0.186,1.012 -1.141,2.526 -2.52,3.26 -2.574,-0.689 -0.552,-4.084 0.275,-2.758 0.345,-0.969 -3.824,-1.584 -0.442,0.929 -1.755,2.145 -3.279,2.497 -2.307,-1.332 0.523,-4.088 0.98,-2.593 0.584,-0.847 -3.284,-2.52 -0.667,0.784 -2.251,1.617 -3.813,1.564 -1.884,-1.884 1.564,-3.813 1.617,-2.251 0.784,-0.667 -2.52,-3.284 -0.847,0.584 -2.593,0.98 -4.088,0.523 -1.332,-2.307 2.497,-3.279 2.145,-1.755 0.929,-0.442 -1.584,-3.824 -0.969,0.345 -2.758,0.275 -4.084,-0.552 -0.689,-2.574 3.26,-2.52 2.526,-1.141 1.012,-0.186 -0.54,-4.104 -1.026,0.083 -2.735,-0.448 -3.802,-1.591 0,-2.664 3.802,-1.591 2.735,-0.448 1.026,0.083 0.54,-4.104 -1.012,-0.186 -2.526,-1.141 -3.26,-2.52 0.689,-2.574 4.084,-0.552 2.758,0.275 0.969,0.345 1.584,-3.824 -0.929,-0.442 -2.145,-1.755 -2.497,-3.279 1.332,-2.307 4.088,0.523 2.593,0.98 0.847,0.584 2.52,-3.284 -0.784,-0.667 -1.617,-2.251 -1.564,-3.813 1.884,-1.884 3.813,1.564 2.251,1.617 0.667,0.784 3.284,-2.52 -0.584,-0.847 -0.98,-2.593 -0.523,-4.088 2.307,-1.332 3.279,2.497 1.755,2.145 0.442,0.929 3.824,-1.584 -0.345,-0.969 -0.275,-2.758 0.552,-4.084 2.574,-0.689 2.52,3.26 1.141,2.526 0.186,1.012 4.104,-0.54 -0.083,-1.026 0.448,-2.735 1.591,-3.802 2.664,0 1.591,3.802 0.448,2.735 -0.083,1.026 4.104,0.54 0.186,-1.012 1.141,-2.526 2.52,-3.26 2.574,0.689 0.552,4.084 -0.275,2.758 -0.345,0.969 3.824,1.584 0.442,-0.929 1.755,-2.145 3.279,-2.497 2.307,1.332 -0.523,4.088 -0.98,2.593 -0.584,0.847 3.284,2.52 0.667,-0.784 2.251,-1.617 3.813,-1.564 1.884,1.884 -1.564,3.813 -1.617,2.251 -0.784,0.667 2.52,3.284 0.847,-0.584 2.593,-0.98 4.088,-0.523 1.332,2.307 -2.497,3.279 -2.145,1.755 -0.929,0.442 1.584,3.824 0.969,-0.345 2.758,-0.275 4.084,0.552 0.689,2.574 -3.26,2.52 -2.526,1.141 -1.012,0.186 z"
       id="path6012" />
    <rect
       transform="scale(-1,1)"
       style="opacity:0.3;color:#000000;fill:#000000;fill-opacity:1;fill-rule:nonzero;stroke:none;stroke-width:10;marker:none;visibility:visible;display:inline;overflow:visible;enable-background:accumulate"
       id="rect6014"
       width="9.9212599"
       height="9.9212599"
       x="-185.20647"
       y="523.09363" />
    <path
       id="path6024"
       d="m 577.39621,524.76518 1.026,-0.083 2.735,0.448 3.802,1.591 0,2.664 -3.802,1.591 -2.735,0.448 -1.026,-0.083 -0.54,4.104 1.012,0.186 2.526,1.141 3.26,2.52 -0.689,2.574 -4.084,0.552 -2.758,-0.275 -0.969,-0.345 -1.584,3.824 0.929,0.442 2.145,1.755 2.497,3.279 -1.332,2.307 -4.088,-0.523 -2.593,-0.98 -0.847,-0.584 -2.52,3.284 0.784,0.667 1.617,2.251 1.564,3.813 -1.884,1.884 -3.813,-1.564 -2.251,-1.617 -0.667,-0.784 -3.284,2.52 0.584,0.847 0.98,2.593 0.523,4.088 -2.307,1.332 -3.279,-2.497 -1.755,-2.145 -0.442,-0.929 -3.824,1.584 0.345,0.969 0.275,2.758 -0.552,4.084 -2.574,0.689 -2.52,-3.26 -1.141,-2.526 -0.186,-1.012 -4.104,0.54 0.083,1.026 -0.448,2.735 -1.591,3.802 -2.664,0 -1.591,-3.802 -0.448,-2.735 0.083,-1.026 -4.104,-0.54 -0.186,1.012 -1.141,2.526 -2.52,3.26 -2.574,-0.689 -0.552,-4.084 0.275,-2.758 0.345,-0.969 -3.824,-1.584 -0.442,0.929 -1.755,2.145 -3.279,2.497 -2.307,-1.332 0.523,-4.088 0.98,-2.593 0.584,-0.847 -3.284,-2.52 -0.667,0.784 -2.251,1.617 -3.813,1.564 -1.884,-1.884 1.564,-3.813 1.617,-2.251 0.784,-0.667 -2.52,-3.284 -0.847,0.584 -2.593,0.98 -4.088,0.523 -1.332,-2.307 2.497,-3.279 2.145,-1.755 0.929,-0.442 -1.584,-3.824 -0.969,0.345 -2.758,0.275 -4.084,-0.552 -0.689,-2.574 3.26,-2.52 2.526,-1.141 1.012,-0.186 -0.54,-4.104 -1.026,0.083 -2.735,-0.448 -3.802,-1.591 0,-2.664 3.802,-1.591 2.735,-0.448 1.026,0.083 0.54,-4.104 -1.012,-0.186 -2.526,-1.141 -3.26,-2.52 0.689,-2.574 4.084,-0.552 2.758,0.275 0.969,0.345 1.584,-3.824 -0.929,-0.442 -2.145,-1.755 -2.497,-3.279 1.332,-2.307 4.088,0.523 2.593,0.98 0.847,0.584 2.52,-3.284 -0.784,-0.667 -1.617,-2.251 -1.564,-3.813 1.884,-1.884 3.813,1.564 2.251,1.617 0.667,0.784 3.284,-2.52 -0.584,-0.847 -0.98,-2.593 -0.523,-4.088 2.307,-1.332 3.279,2.497 1.755,2.145 0.442,0.929 3.824,-1.584 -0.345,-0.969 -0.275,-2.758 0.552,-4.084 2.574,-0.689 2.52,3.26 1.141,2.526 0.186,1.012 4.104,-0.54 -0.083,-1.026 0.448,-2.735 1.591,-3.802 2.664,0 1.591,3.802 0.448,2.735 -0.083,1.026 4.104,0.54 0.186,-1.012 1.141,-2.526 2.52,-3.26 2.574,0.689 0.552,4.084 -0.275,2.758 -0.345,0.969 3.824,1.584 0.442,-0.929 1.755,-2.145 3.279,-2.497 2.307,1.332 -0.523,4.088 -0.98,2.593 -0.584,0.847 3.284,2.52 0.667,-0.784 2.251,-1.617 3.813,-1.564 1.884,1.884 -1.564,3.813 -1.617,2.251 -0.784,0.667 2.52,3.284 0.847,-0.584 2.593,-0.98 4.088,-0.523 1.332,2.307 -2.497,3.279 -2.145,1.755 -0.929,0.442 1.584,3.824 0.969,-0.345 2.758,-0.275 4.084,0.552 0.689,2.574 -3.26,2.52 -2.526,1.141 -1.012,0.186 z"
       style="opacity:0.3;fill:#000000;fill-opacity:1;stroke:none"
       inkscape:connector-curvature="0" />
    <rect
       y="523.09253"
       x="-541.52283"
       height="9.9212599"
       width="9.9212599"
       id="rect6026"
       style="opacity:0.3;color:#000000;fill:#000000;fill-opacity:1;fill-rule:nonzero;stroke:none;stroke-width:10;marker:none;visibility:visible;display:inline;overflow:visible;enable-background:accumulate"
       transform="scale(-1,1)" />
    <path
       inkscape:connector-curvature="0"
       id="rect3005"
       d="m 93.91668,510.49712 13.51118,-4.22463 5.28778,16.91134 23.68184,-7.40475 1.5854,5.07042 2.90968,9.30571 77.78621,-24.32193 -2.90968,-9.30571 -4.23395,-13.541 8.44075,-2.63923 -4.23395,-13.541 12.67605,-3.96351 1.59473,5.10025 38.8931,-12.16096 -1.59473,-5.10025 12.67605,-3.9635 -2.10765,-6.74068 -12.67605,3.96351 -1.5854,-5.07042 -38.8931,12.16096 1.5854,5.07042 -12.67605,3.9635 -4.23396,-13.541 -8.44076,2.63922 -4.22462,-13.51117 -2.90968,-9.30571 -77.78621,24.32192 2.90968,9.30571 1.5854,5.07042 -23.681843,7.40476 5.287783,16.91134 -13.511181,4.22463 5.287781,16.91134 z"
       style="opacity:0.75739644;color:#000000;fill:#000000;fill-opacity:0.2750809;fill-rule:nonzero;stroke:none;stroke-width:0.99921262;marker:none;visibility:visible;display:inline;overflow:visible;enable-background:accumulate" />
    <path
       sodipodi:nodetypes="cccccccccccccccccccccccccccccccccccccccccccccccccccccccccccccccccccccccccccccccccccccccccccccccccccccccccccccccccccccccccccccccccccccccccccccccccccccccccccccccccccccccccccccccccccccccccccccccccccccccccccccccccccccccccccccccccccccccccccccccccccccccccccccccccccccccccccccccccccccccccccccccccccccccccccccccccccccccccccccccccccccccccccccccccccccccccccccccccccccccccccccccccccccccccccccccccccccccccccccccccccccccccccccccccccc"
       inkscape:connector-curvature="0"
       id="path4276"
       d="m 246.41952,459.15678 -0.25911,0.11376 -1.21538,0.51099 -0.22929,0.10444 0.015,0.25725 0.0227,1.95743 0.0187,0.0597 0.009,0.0298 0.33767,1.49878 -1.05878,0.59299 -1.05719,-1.07735 -0.0485,-0.0503 -0.0392,-0.0205 -1.63136,-1.02878 -0.24423,-0.15283 -0.21063,0.16409 -1.07181,0.76077 -0.21995,0.13426 0.0839,0.26843 0.42908,1.89584 0.0187,0.0597 0.009,0.0298 0.66575,1.39619 -0.89469,0.80363 -1.30882,-0.83496 -0.0392,-0.0205 -0.0392,-0.0205 -1.82519,-0.70625 -0.25541,-0.0838 -0.17148,0.18459 -0.89839,1.00123 -0.17148,0.18458 0.10444,0.22929 0.84664,1.76527 0.009,0.0298 0.0187,0.0596 0.94536,1.24328 -0.71943,0.94528 -1.45232,-0.5609 -0.0392,-0.0205 -0.0298,0.009 -1.92205,-0.28305 -0.27591,-0.0447 -0.12301,0.23491 -0.66348,1.12423 -0.16215,0.21441 0.16409,0.21063 1.17657,1.56389 0.0392,0.0205 0.0187,0.0597 1.16717,1.01021 -0.48453,1.06828 -1.51751,-0.24583 -0.0597,0.0186 -0.0392,-0.0205 -1.94994,0.15131 -0.25726,0.015 -0.0932,0.22558 -0.42857,1.24724 -0.0839,0.25541 0.21441,0.16215 1.48786,1.30285 0.0392,0.0205 0.009,0.0298 1.37031,0.7175 -0.25894,1.16145 -1.54355,0.0897 -0.0597,0.0187 -0.0298,0.009 -1.89769,0.52788 -0.23861,0.0746 -0.0149,0.26659 -0.15266,1.29193 -0.0447,0.27591 0.23492,0.123 1.70218,0.94116 0.0392,0.0205 0.0391,0.0205 1.47467,0.42294 -0.0129,1.21547 -1.48012,0.39732 -0.0298,0.009 -0.0597,0.0186 -1.7168,0.89697 -0.24978,0.14358 0.0448,0.24794 0.11393,1.3068 0.0149,0.25726 0.25541,0.0838 1.87736,0.55896 0.0391,0.0205 0.0392,0.0205 1.54919,0.1377 0.23508,1.17069 -1.38687,0.69558 -0.0298,0.009 -0.0205,0.0392 -1.51541,1.2269 -0.20131,0.19391 0.0746,0.23861 0.39169,1.25269 0.0746,0.23861 0.27591,0.0447 1.94441,0.1451 0.0392,0.0205 0.0298,-0.009 1.53608,-0.21837 0.47369,1.09609 -1.19481,0.99568 -0.0205,0.0392 -0.0205,0.0392 -1.22454,1.52885 -0.16216,0.21442 0.13426,0.21995 0.6508,1.13893 0.10443,0.22929 0.28709,-0.0243 1.92197,-0.2408 0.0597,-0.0187 0.0298,-0.009 1.44282,-0.51662 0.70297,0.99166 -0.97107,1.18766 -0.0205,0.0391 -0.0205,0.0392 -0.86285,1.74319 -0.123,0.23491 0.19391,0.2013 0.86142,0.97485 0.16409,0.21063 0.23861,-0.0746 1.86038,-0.64718 0.0298,-0.009 0.0597,-0.0186 1.31974,-0.80555 c 1.11741,0.81799 0.74714,1.0502 0.15694,2.17738 l 0.009,0.0298 -0.0205,0.0392 -0.48066,1.91836 -0.0838,0.25541 0.21441,0.16215 1.06273,0.78094 0.20509,0.13232 0.21995,-0.13426 1.68883,-0.98644 0.0205,-0.0392 0.0597,-0.0187 1.10717,-1.06651 1.00678,0.60198 -0.38379,1.49516 0.0187,0.0596 -0.0205,0.0392 -0.0761,1.95557 -0.0149,0.26659 0.25541,0.0839 1.18573,0.54602 0.23492,0.123 0.2013,-0.19391 1.41846,-1.32755 0.0298,-0.009 0.0205,-0.0392 0.87411,-1.28831 1.12978,0.36707 -0.0687,1.56036 0.0187,0.0597 0.009,0.0298 0.30977,1.93314 0.0448,0.24794 0.24609,0.054 1.30873,0.31111 0.24609,0.054 0.16215,-0.21441 1.09776,-1.62018 0.0205,-0.0391 0.0205,-0.0392 0.60005,-1.43182 1.19313,0.15081 0.24818,1.52676 0.009,0.0298 0.0187,0.0597 0.72734,1.80259 0.0839,0.26843 0.25726,-0.0149 1.31428,0.0147 0.26658,0.0149 0.11368,-0.26474 0.75472,-1.77486 0.0205,-0.0391 0.0112,-0.069 0.25516,-1.48768 1.208,-0.11578 0.57627,1.42417 0.009,0.0298 0.0186,0.0596 1.09642,1.62169 0.13426,0.21996 0.24793,-0.0448 1.29,-0.27239 0.27776,-0.0541 0.054,-0.24609 0.3427,-1.94071 0.0205,-0.0392 -0.009,-0.0298 -0.0301,-1.56221 1.13339,-0.35439 0.8652,1.30109 0.009,0.0298 0.0391,0.0205 1.38721,1.39981 0.18458,0.17148 0.25911,-0.11376 1.21539,-0.51099 0.22928,-0.10444 -0.0149,-0.25726 -0.0227,-1.95742 -0.0186,-0.0596 -0.009,-0.0298 -0.33766,-1.49878 1.05878,-0.59299 1.05718,1.07735 0.0485,0.0503 0.0392,0.0205 1.63136,1.02878 0.24424,0.15283 0.21063,-0.16409 1.0718,-0.76077 0.21996,-0.13426 -0.0839,-0.26843 -0.42907,-1.89584 -0.0187,-0.0597 -0.009,-0.0298 -0.66575,-1.3962 0.8947,-0.80362 1.30881,0.83496 0.0392,0.0205 0.0392,0.0205 1.82518,0.70625 0.25541,0.0839 0.17148,-0.18459 0.89839,-1.00123 0.17148,-0.18458 -0.10443,-0.22929 -0.84664,-1.76528 -0.009,-0.0298 -0.0186,-0.0597 -0.94536,-1.24329 0.71944,-0.94527 1.45231,0.5609 0.0392,0.0205 0.0298,-0.009 1.92206,0.28305 0.27591,0.0447 0.123,-0.23491 0.66348,-1.12423 0.16215,-0.21441 -0.16408,-0.21063 -1.17658,-1.56389 -0.0392,-0.0205 -0.0186,-0.0597 -1.16716,-1.01022 0.48452,-1.06827 1.51752,0.24583 0.0596,-0.0187 0.0392,0.0205 1.94995,-0.15131 0.25726,-0.015 0.0932,-0.22559 0.42857,-1.24723 0.0838,-0.25541 -0.21441,-0.16215 -1.48786,-1.30285 -0.0392,-0.0205 -0.009,-0.0298 -1.37032,-0.7175 0.25894,-1.16145 1.54356,-0.0897 0.0596,-0.0186 0.0298,-0.009 1.89769,-0.52788 0.2386,-0.0746 0.0149,-0.26659 0.15265,-1.29193 0.0447,-0.27591 -0.23491,-0.123 -1.70218,-0.94116 -0.0392,-0.0205 -0.0392,-0.0205 -1.47466,-0.42294 0.0129,-1.21547 1.48013,-0.39732 0.0298,-0.009 0.0597,-0.0187 1.71681,-0.89696 0.24978,-0.14359 -0.0448,-0.24793 -0.11393,-1.3068 -0.015,-0.25726 -0.25541,-0.0839 -1.87736,-0.55896 -0.0392,-0.0205 -0.0392,-0.0205 -1.54919,-0.1377 -0.23508,-1.1707 1.38687,-0.69557 0.0298,-0.009 0.0205,-0.0392 1.51541,-1.2269 0.2013,-0.19391 -0.0746,-0.23861 -0.39169,-1.25269 -0.0746,-0.23861 -0.27591,-0.0447 -1.9444,-0.14509 -0.0392,-0.0205 -0.0298,0.009 -1.53608,0.21836 -0.47369,-1.09608 1.1948,-0.99568 0.0205,-0.0392 0.0205,-0.0392 1.22455,-1.52886 0.16215,-0.21441 -0.13426,-0.21995 -0.65079,-1.13894 -0.10444,-0.22928 -0.28708,0.0243 -1.92197,0.2408 -0.0597,0.0186 -0.0298,0.009 -1.44282,0.51663 -0.70297,-0.99166 0.97106,-1.18766 0.0205,-0.0392 0.0205,-0.0392 0.86286,-1.74319 0.123,-0.23491 -0.19391,-0.2013 -0.86143,-0.97485 -0.16408,-0.21063 -0.23861,0.0746 -1.86039,0.64718 -0.0298,0.009 -0.0597,0.0186 -1.31973,0.80555 -0.87445,-0.80706 0.7175,-1.37032 -0.009,-0.0298 0.0205,-0.0392 0.48066,-1.91836 0.0838,-0.25541 -0.21441,-0.16215 -1.06273,-0.78094 -0.20508,-0.13232 -0.21996,0.13426 -1.68882,0.98644 -0.0205,0.0392 -0.0596,0.0186 -1.10718,1.06651 -1.00677,-0.60198 0.38379,-1.49516 -0.0187,-0.0597 0.0205,-0.0392 0.0761,-1.95557 0.0149,-0.26659 -0.25541,-0.0838 -1.18573,-0.54602 -0.23491,-0.123 -0.20131,0.19391 -1.41845,1.32755 -0.0298,0.009 -0.0205,0.0392 -0.87411,1.28831 -1.12978,-0.36707 0.0687,-1.56036 -0.0186,-0.0596 -0.009,-0.0298 -0.30977,-1.93314 -0.0448,-0.24794 -0.24609,-0.054 -1.30873,-0.31111 -0.24608,-0.054 -0.16216,0.21442 -1.09776,1.62018 -0.0205,0.0392 -0.0205,0.0392 -0.60005,1.43182 -1.19312,-0.15081 -0.24819,-1.52676 -0.009,-0.0298 -0.0187,-0.0596 -0.72733,-1.80259 -0.0839,-0.26843 -0.25725,0.0149 -1.31428,-0.0147 -0.26659,-0.0149 -0.11367,0.26474 -0.75473,1.77486 -0.0205,0.0392 -0.0112,0.069 -0.25516,1.48768 -1.20799,0.11578 -0.57628,-1.42417 -0.009,-0.0298 -0.0187,-0.0596 -1.09642,-1.62169 -0.13426,-0.21996 -0.24794,0.0448 -1.28999,0.27239 -0.27776,0.0541 -0.054,0.24609 -0.3427,1.9407 -0.0205,0.0392 0.009,0.0298 0.0301,1.56221 -1.13338,0.35439 -0.86521,-1.30109 -0.009,-0.0298 -0.0392,-0.0205 -1.3872,-1.39981 z"
       style="font-size:medium;font-style:normal;font-variant:normal;font-weight:normal;font-stretch:normal;text-indent:0;text-align:start;text-decoration:none;line-height:normal;letter-spacing:normal;word-spacing:normal;text-transform:none;direction:ltr;block-progression:tb;writing-mode:lr-tb;text-anchor:start;baseline-shift:baseline;color:#000000;fill:#000000;fill-opacity:0.26537218;stroke:none;stroke-width:0.77952754;marker:none;visibility:visible;display:inline;overflow:visible;enable-background:accumulate;font-family:Sans;-inkscape-font-specification:Sans" />
    <rect
       style="opacity:0.31666667;color:#000000;fill:#000000;fill-opacity:1;fill-rule:nonzero;stroke:none;stroke-width:10;marker:none;visibility:visible;display:inline;overflow:visible;enable-background:accumulate"
       id="rect4774"
       width="10.629921"
       height="10.629921"
       x="94.943985"
       y="535.30133"
       transform="matrix(0.95443199,-0.29842852,0.29842852,0.95443199,0,0)" />
    <path
       id="path6053"
       d="m 255.00988,497.05043 -0.51042,2.77922 -0.38039,0.84257 -3.27868,2.9531 -1.86069,-0.77073 -0.23022,-4.40652 0.32681,-0.86477 1.60429,-2.32613 -2.85097,-2.85104 -2.32627,1.60495 -0.86362,0.32634 -4.40742,-0.23016 -0.77066,-1.86055 2.95376,-3.27926 0.84144,-0.37991 2.77978,-0.51005 -5e-5,-4.03193 -2.77922,-0.51042 -0.84257,-0.38039 -2.9531,-3.27868 0.77073,-1.86069 4.40652,-0.23022 0.86477,0.32681 2.32613,1.60429 2.85104,-2.85097 -1.60495,-2.32627 -0.32634,-0.86362 0.23016,-4.40742 1.86055,-0.77066 3.27926,2.95376 0.37991,0.84144 0.51005,2.77978 4.03193,-5e-5 0.51042,-2.77922 0.38039,-0.84257 3.27868,-2.9531 1.86069,0.77073 0.23022,4.40652 -0.32681,0.86477 -1.60429,2.32613 2.85097,2.85104 2.32627,-1.60495 0.86362,-0.32634 4.40742,0.23016 0.77066,1.86055 -2.95376,3.27926 -0.84144,0.37991 -2.77978,0.51005 5e-5,4.03193 2.77922,0.51042 0.84257,0.38039 2.9531,3.27868 -0.77073,1.86069 -4.40652,0.23022 -0.86477,-0.32681 -2.32613,-1.60429 -2.85104,2.85097 1.60495,2.32627 0.32634,0.86362 -0.23016,4.40742 -1.86055,0.77066 -3.27926,-2.95376 -0.37991,-0.84144 -0.51005,-2.77978 z"
       style="opacity:0.3;fill:#000000;fill-opacity:1;stroke:none"
       inkscape:connector-curvature="0" />
    <rect
       y="481.10074"
       x="252.06503"
       height="9.9212599"
       width="9.9212599"
       id="rect6055"
       style="opacity:0.3;color:#000000;fill:#000000;fill-opacity:1;fill-rule:nonzero;stroke:none;stroke-width:10;marker:none;visibility:visible;display:inline;overflow:visible;enable-background:accumulate" />
    <path
       inkscape:connector-curvature="0"
       style="opacity:0.31666667;color:#000000;fill:#000000;fill-opacity:1;fill-rule:nonzero;stroke:none;stroke-width:10;marker:none;visibility:visible;display:inline;overflow:visible;enable-background:accumulate"
       d="m 106.8525,502.92711 18.04473,-5.64216 2.20713,-0.69012 7.78458,-2.43406 2.14747,-0.67146 11.99005,-3.74901 3.63878,-1.13776 47.45316,-14.83749 3.18013,10.17066 12.13918,-3.79563 -3.18013,-10.17067 -3.1708,-10.14084 -11.78127,3.68373 -37.64041,11.76927 -10.14084,3.1708 -0.0298,0.009 -15.42004,4.82148 -10.14084,3.1708 -10.14084,3.17081 -10.11101,3.16147 3.1708,10.14084 z"
       id="rect3428" />
    <path
       sodipodi:type="arc"
       style="opacity:0.31666667;color:#000000;fill:#000000;fill-opacity:1;fill-rule:nonzero;stroke:none;stroke-width:10;marker:none;visibility:visible;display:inline;overflow:visible;enable-background:accumulate"
       id="path3444"
       sodipodi:cx="-119.50105"
       sodipodi:cy="178.64346"
       sodipodi:rx="9.5459414"
       sodipodi:ry="15.445658"
       d="m -109.95511,178.64346 a 9.5459414,15.445658 0 1 1 -19.09188,0 9.5459414,15.445658 0 1 1 19.09188,0 z"
       transform="matrix(-0.26585302,-0.85024926,0.52548293,-0.1643062,131.38186,413.80792)" />
    <path
       style="opacity:0.3;color:#000000;fill:#000000;fill-opacity:1;fill-rule:nonzero;stroke:none;stroke-width:10;marker:none;visibility:visible;display:inline;overflow:visible;enable-background:accumulate"
       d="M 183.5 512.09375 L 183.5 512.125 L 174.9375 512.125 C 169.06676 512.125 164.3125 516.87926 164.3125 522.75 L 164.3125 533.375 C 164.3125 539.24574 169.06676 544 174.9375 544 L 183.5 544 L 185.5625 544 L 541.875 544 L 541.875 543.96875 C 547.74574 543.96875 552.5 539.21449 552.5 533.34375 L 552.5 522.71875 C 552.5 516.84802 547.74574 512.09375 541.875 512.09375 L 183.5 512.09375 z "
       id="rect6123" />
    <path
       style="opacity:0.75739644;color:#000000;fill:#000000;fill-opacity:0.2750809;fill-rule:nonzero;stroke:none;stroke-width:0.99921262;marker:none;visibility:visible;display:inline;overflow:visible;enable-background:accumulate"
       d="m 622.91199,510.5072 -13.51118,-4.22463 -5.28778,16.91134 -23.68184,-7.40475 -1.5854,5.07042 -2.90968,9.30571 -77.78621,-24.32193 2.90968,-9.30571 4.23395,-13.541 -8.44075,-2.63923 4.23395,-13.541 -12.67605,-3.96351 -1.59473,5.10025 -38.8931,-12.16096 1.59473,-5.10025 -12.67605,-3.9635 2.10765,-6.74068 12.67605,3.96351 1.5854,-5.07042 38.8931,12.16096 -1.5854,5.07042 12.67605,3.9635 4.23396,-13.541 8.44076,2.63922 4.22462,-13.51117 2.90968,-9.30571 77.78621,24.32192 -2.90968,9.30571 -1.5854,5.07042 23.68184,7.40476 -5.28778,16.91134 13.51118,4.22463 -5.28778,16.91134 z"
       id="path6182"
       inkscape:connector-curvature="0" />
    <path
       style="font-size:medium;font-style:normal;font-variant:normal;font-weight:normal;font-stretch:normal;text-indent:0;text-align:start;text-decoration:none;line-height:normal;letter-spacing:normal;word-spacing:normal;text-transform:none;direction:ltr;block-progression:tb;writing-mode:lr-tb;text-anchor:start;baseline-shift:baseline;color:#000000;fill:#000000;fill-opacity:0.26537218;stroke:none;stroke-width:0.77952754;marker:none;visibility:visible;display:inline;overflow:visible;enable-background:accumulate;font-family:Sans;-inkscape-font-specification:Sans"
       d="m 470.40915,459.16686 0.25911,0.11376 1.21538,0.51099 0.22929,0.10444 -0.015,0.25725 -0.0227,1.95743 -0.0187,0.0597 -0.009,0.0298 -0.33767,1.49878 1.05878,0.59299 1.05719,-1.07735 0.0485,-0.0503 0.0391,-0.0205 1.63136,-1.02878 0.24423,-0.15283 0.21063,0.16409 1.07181,0.76077 0.21995,0.13426 -0.0839,0.26843 -0.42908,1.89584 -0.0186,0.0597 -0.009,0.0298 -0.66575,1.39619 0.89469,0.80363 1.30882,-0.83496 0.0392,-0.0205 0.0392,-0.0205 1.82519,-0.70625 0.25541,-0.0838 0.17148,0.18459 0.89839,1.00123 0.17148,0.18458 -0.10444,0.22929 -0.84664,1.76527 -0.009,0.0298 -0.0186,0.0596 -0.94536,1.24328 0.71943,0.94528 1.45232,-0.5609 0.0392,-0.0205 0.0298,0.009 1.92205,-0.28305 0.27591,-0.0447 0.12301,0.23491 0.66348,1.12423 0.16215,0.21441 -0.16409,0.21063 -1.17657,1.56389 -0.0392,0.0205 -0.0187,0.0597 -1.16717,1.01021 0.48453,1.06828 1.51751,-0.24583 0.0596,0.0187 0.0392,-0.0205 1.94994,0.15131 0.25726,0.015 0.0932,0.22558 0.42857,1.24724 0.0838,0.25541 -0.21441,0.16215 -1.48786,1.30285 -0.0392,0.0205 -0.009,0.0298 -1.37031,0.7175 0.25894,1.16145 1.54355,0.0897 0.0597,0.0186 0.0298,0.009 1.89769,0.52788 0.23861,0.0746 0.0149,0.26659 0.15266,1.29193 0.0447,0.27591 -0.23492,0.123 -1.70218,0.94116 -0.0392,0.0205 -0.0392,0.0205 -1.47467,0.42294 0.0129,1.21547 1.48012,0.39732 0.0298,0.009 0.0597,0.0187 1.7168,0.89697 0.24978,0.14358 -0.0448,0.24794 -0.11393,1.3068 -0.0149,0.25726 -0.25541,0.0838 -1.87736,0.55896 -0.0392,0.0205 -0.0392,0.0205 -1.54919,0.1377 -0.23508,1.17069 1.38687,0.69558 0.0298,0.009 0.0205,0.0392 1.51541,1.2269 0.20131,0.19391 -0.0746,0.23861 -0.39169,1.25269 -0.0746,0.23861 -0.27591,0.0447 -1.94441,0.1451 -0.0392,0.0205 -0.0298,-0.009 -1.53608,-0.21837 -0.47369,1.09609 1.19481,0.99568 0.0205,0.0392 0.0205,0.0392 1.22454,1.52885 0.16216,0.21442 -0.13426,0.21995 -0.6508,1.13893 -0.10443,0.22929 -0.28709,-0.0243 -1.92197,-0.2408 -0.0596,-0.0187 -0.0298,-0.009 -1.44282,-0.51662 -0.70297,0.99166 0.97107,1.18766 0.0205,0.0392 0.0205,0.0392 0.86285,1.74319 0.123,0.23491 -0.19391,0.2013 -0.86142,0.97485 -0.16409,0.21063 -0.23861,-0.0746 -1.86038,-0.64718 -0.0298,-0.009 -0.0597,-0.0186 -1.31974,-0.80555 c -1.11741,0.81799 -0.74714,1.0502 -0.15694,2.17738 l -0.009,0.0298 0.0205,0.0392 0.48066,1.91836 0.0838,0.25541 -0.21441,0.16215 -1.06273,0.78094 -0.20509,0.13232 -0.21995,-0.13426 -1.68883,-0.98644 -0.0205,-0.0392 -0.0597,-0.0186 -1.10717,-1.06651 -1.00678,0.60198 0.38379,1.49516 -0.0187,0.0596 0.0205,0.0392 0.0761,1.95557 0.0149,0.26659 -0.25541,0.0839 -1.18573,0.54602 -0.23492,0.123 -0.2013,-0.19391 -1.41846,-1.32755 -0.0298,-0.009 -0.0205,-0.0392 -0.87411,-1.28831 -1.12978,0.36707 0.0687,1.56036 -0.0187,0.0596 -0.009,0.0298 -0.30977,1.93314 -0.0448,0.24794 -0.24609,0.054 -1.30873,0.31111 -0.24609,0.054 -0.16215,-0.21441 -1.09776,-1.62018 -0.0205,-0.0391 -0.0205,-0.0392 -0.60005,-1.43182 -1.19313,0.15081 -0.24818,1.52676 -0.009,0.0298 -0.0187,0.0597 -0.72734,1.80259 -0.0839,0.26843 -0.25726,-0.0149 -1.31428,0.0147 -0.26658,0.0149 -0.11368,-0.26474 -0.75472,-1.77486 -0.0205,-0.0391 -0.0112,-0.069 -0.25516,-1.48768 -1.208,-0.11578 -0.57627,1.42417 -0.009,0.0298 -0.0187,0.0596 -1.09642,1.62169 -0.13426,0.21996 -0.24793,-0.0448 -1.29,-0.27239 -0.27776,-0.0541 -0.054,-0.24609 -0.3427,-1.94071 -0.0205,-0.0392 0.009,-0.0298 0.0301,-1.56221 -1.13339,-0.35439 -0.8652,1.30109 -0.009,0.0298 -0.0392,0.0205 -1.38721,1.39981 -0.18458,0.17148 -0.25911,-0.11376 -1.21539,-0.51099 -0.22928,-0.10444 0.0149,-0.25726 0.0227,-1.95742 0.0186,-0.0597 0.009,-0.0298 0.33766,-1.49878 -1.05878,-0.59299 -1.05718,1.07735 -0.0485,0.0503 -0.0391,0.0205 -1.63136,1.02878 -0.24424,0.15283 -0.21063,-0.16409 -1.0718,-0.76077 -0.21996,-0.13426 0.0839,-0.26843 0.42907,-1.89584 0.0186,-0.0597 0.009,-0.0298 0.66575,-1.3962 -0.8947,-0.80362 -1.30881,0.83496 -0.0392,0.0205 -0.0392,0.0205 -1.82518,0.70625 -0.25541,0.0838 -0.17148,-0.18459 -0.89839,-1.00123 -0.17148,-0.18458 0.10443,-0.22929 0.84664,-1.76528 0.009,-0.0298 0.0186,-0.0596 0.94536,-1.24329 -0.71944,-0.94527 -1.45231,0.5609 -0.0392,0.0205 -0.0298,-0.009 -1.92206,0.28305 -0.27591,0.0447 -0.123,-0.23491 -0.66348,-1.12423 -0.16215,-0.21441 0.16408,-0.21063 1.17658,-1.56389 0.0392,-0.0205 0.0187,-0.0597 1.16716,-1.01022 -0.48452,-1.06827 -1.51752,0.24583 -0.0597,-0.0187 -0.0392,0.0205 -1.94995,-0.15131 -0.25726,-0.015 -0.0932,-0.22559 -0.42857,-1.24723 -0.0838,-0.25541 0.21441,-0.16215 1.48786,-1.30285 0.0392,-0.0205 0.009,-0.0298 1.37032,-0.7175 -0.25894,-1.16145 -1.54356,-0.0897 -0.0596,-0.0187 -0.0298,-0.009 -1.89769,-0.52788 -0.2386,-0.0746 -0.0149,-0.26659 -0.15265,-1.29193 -0.0447,-0.27591 0.23491,-0.123 1.70218,-0.94116 0.0392,-0.0205 0.0392,-0.0205 1.47466,-0.42294 -0.0128,-1.21547 -1.48013,-0.39732 -0.0298,-0.009 -0.0597,-0.0187 -1.71681,-0.89696 -0.24978,-0.14359 0.0448,-0.24793 0.11393,-1.3068 0.015,-0.25726 0.25541,-0.0838 1.87736,-0.55896 0.0392,-0.0205 0.0392,-0.0205 1.54919,-0.1377 0.23508,-1.1707 -1.38687,-0.69557 -0.0298,-0.009 -0.0205,-0.0391 -1.51541,-1.2269 -0.2013,-0.19391 0.0746,-0.23861 0.39169,-1.25269 0.0746,-0.23861 0.27591,-0.0447 1.9444,-0.14509 0.0392,-0.0205 0.0298,0.009 1.53608,0.21836 0.47369,-1.09608 -1.1948,-0.99568 -0.0205,-0.0392 -0.0205,-0.0392 -1.22455,-1.52886 -0.16215,-0.21441 0.13426,-0.21995 0.65079,-1.13894 0.10444,-0.22928 0.28708,0.0243 1.92197,0.2408 0.0597,0.0187 0.0298,0.009 1.44282,0.51663 0.70297,-0.99166 -0.97106,-1.18766 -0.0205,-0.0392 -0.0205,-0.0392 -0.86286,-1.74319 -0.123,-0.23491 0.19391,-0.2013 0.86143,-0.97485 0.16408,-0.21063 0.23861,0.0746 1.86039,0.64718 0.0298,0.009 0.0597,0.0186 1.31973,0.80555 0.87445,-0.80706 -0.7175,-1.37032 0.009,-0.0298 -0.0205,-0.0392 -0.48066,-1.91836 -0.0838,-0.25541 0.21441,-0.16215 1.06273,-0.78094 0.20508,-0.13232 0.21996,0.13426 1.68882,0.98644 0.0205,0.0392 0.0596,0.0187 1.10718,1.06651 1.00677,-0.60198 -0.38379,-1.49516 0.0187,-0.0596 -0.0205,-0.0392 -0.0761,-1.95557 -0.0149,-0.26659 0.25541,-0.0838 1.18573,-0.54602 0.23491,-0.123 0.20131,0.19391 1.41845,1.32755 0.0298,0.009 0.0205,0.0392 0.87411,1.28831 1.12978,-0.36707 -0.0687,-1.56036 0.0186,-0.0597 0.009,-0.0298 0.30977,-1.93314 0.0448,-0.24794 0.24609,-0.054 1.30873,-0.31111 0.24608,-0.054 0.16216,0.21442 1.09776,1.62018 0.0205,0.0392 0.0205,0.0392 0.60005,1.43182 1.19312,-0.15081 0.24819,-1.52676 0.009,-0.0298 0.0187,-0.0596 0.72733,-1.80259 0.0839,-0.26843 0.25725,0.0149 1.31428,-0.0147 0.26659,-0.0149 0.11367,0.26474 0.75473,1.77486 0.0205,0.0391 0.0112,0.069 0.25516,1.48768 1.20799,0.11578 0.57628,-1.42417 0.009,-0.0298 0.0186,-0.0597 1.09642,-1.62169 0.13426,-0.21996 0.24794,0.0448 1.28999,0.27239 0.27776,0.0541 0.054,0.24609 0.3427,1.9407 0.0205,0.0392 -0.009,0.0298 -0.0301,1.56221 1.13338,0.35439 0.86521,-1.30109 0.009,-0.0298 0.0392,-0.0205 1.3872,-1.39981 z"
       id="path6188"
       inkscape:connector-curvature="0"
       sodipodi:nodetypes="cccccccccccccccccccccccccccccccccccccccccccccccccccccccccccccccccccccccccccccccccccccccccccccccccccccccccccccccccccccccccccccccccccccccccccccccccccccccccccccccccccccccccccccccccccccccccccccccccccccccccccccccccccccccccccccccccccccccccccccccccccccccccccccccccccccccccccccccccccccccccccccccccccccccccccccccccccccccccccccccccccccccccccccccccccccccccccccccccccccccccccccccccccccccccccccccccccccccccccccccccccccccccccccccccccc" />
    <rect
       y="321.38882"
       x="-589.22321"
       height="10.629921"
       width="10.629921"
       id="rect6190"
       style="opacity:0.31666667;color:#000000;fill:#000000;fill-opacity:1;fill-rule:nonzero;stroke:none;stroke-width:10;marker:none;visibility:visible;display:inline;overflow:visible;enable-background:accumulate"
       transform="matrix(-0.95443199,-0.29842852,-0.29842852,0.95443199,0,0)" />
    <path
       inkscape:connector-curvature="0"
       style="opacity:0.3;fill:#000000;fill-opacity:1;stroke:none"
       d="m 461.79818,497.05007 0.51042,2.77922 0.38039,0.84257 3.27868,2.9531 1.86069,-0.77073 0.23022,-4.40652 -0.32681,-0.86477 -1.60429,-2.32613 2.85097,-2.85104 2.32627,1.60495 0.86362,0.32634 4.40742,-0.23016 0.77066,-1.86055 -2.95376,-3.27926 -0.84144,-0.37991 -2.77978,-0.51005 5e-5,-4.03193 2.77922,-0.51042 0.84257,-0.38039 2.9531,-3.27868 -0.77073,-1.86069 -4.40652,-0.23022 -0.86477,0.32681 -2.32613,1.60429 -2.85104,-2.85097 1.60495,-2.32627 0.32634,-0.86362 -0.23016,-4.40742 -1.86055,-0.77066 -3.27926,2.95376 -0.37991,0.84144 -0.51005,2.77978 -4.03193,-5e-5 -0.51042,-2.77922 -0.38039,-0.84257 -3.27868,-2.9531 -1.86069,0.77073 -0.23022,4.40652 0.32681,0.86477 1.60429,2.32613 -2.85097,2.85104 -2.32627,-1.60495 -0.86362,-0.32634 -4.40742,0.23016 -0.77066,1.86055 2.95376,3.27926 0.84144,0.37991 2.77978,0.51005 -5e-5,4.03193 -2.77922,0.51042 -0.84257,0.38039 -2.9531,3.27868 0.77073,1.86069 4.40652,0.23022 0.86477,-0.32681 2.32613,-1.60429 2.85104,2.85097 -1.60495,2.32627 -0.32634,0.86362 0.23016,4.40742 1.86055,0.77066 3.27926,-2.95376 0.37991,-0.84144 0.51005,-2.77978 z"
       id="path6196" />
    <rect
       style="opacity:0.3;color:#000000;fill:#000000;fill-opacity:1;fill-rule:nonzero;stroke:none;stroke-width:10;marker:none;visibility:visible;display:inline;overflow:visible;enable-background:accumulate"
       id="rect6198"
       width="9.9212599"
       height="9.9212599"
       x="-464.74304"
       y="481.10037"
       transform="scale(-1,1)" />
    <path
       id="path6202"
       d="m 609.97617,502.93717 -18.04473,-5.64216 -2.20713,-0.69012 -7.78458,-2.43406 -2.14747,-0.67146 -11.99005,-3.74901 -3.63878,-1.13776 -47.45316,-14.83749 -3.18013,10.17066 -12.13918,-3.79563 3.18013,-10.17067 3.1708,-10.14084 11.78127,3.68373 37.64041,11.76927 10.14084,3.1708 0.0298,0.009 15.42004,4.82148 10.14084,3.1708 10.14084,3.17081 10.11101,3.16147 -3.1708,10.14084 z"
       style="opacity:0.31666667;color:#000000;fill:#000000;fill-opacity:1;fill-rule:nonzero;stroke:none;stroke-width:10;marker:none;visibility:visible;display:inline;overflow:visible;enable-background:accumulate"
       inkscape:connector-curvature="0" />
    <path
       transform="matrix(0.26585302,-0.85024926,-0.52548293,-0.1643062,585.44681,413.81798)"
       d="m -109.95511,178.64346 a 9.5459414,15.445658 0 1 1 -19.09188,0 9.5459414,15.445658 0 1 1 19.09188,0 z"
       sodipodi:ry="15.445658"
       sodipodi:rx="9.5459414"
       sodipodi:cy="178.64346"
       sodipodi:cx="-119.50105"
       id="path6204"
       style="opacity:0.31666667;color:#000000;fill:#000000;fill-opacity:1;fill-rule:nonzero;stroke:none;stroke-width:10;marker:none;visibility:visible;display:inline;overflow:visible;enable-background:accumulate"
       sodipodi:type="arc" />
    <path
       style="opacity:0.75739644;color:#000000;fill:#000000;fill-opacity:0.2750809;fill-rule:nonzero;stroke:none;stroke-width:0.99921262;marker:none;visibility:visible;display:inline;overflow:visible;enable-background:accumulate"
       d="M 440.53125 239.0625 L 440.53125 249.6875 L 440.53125 263.0625 L 429.90625 263.0625 L 429.90625 297.84375 L 429.90625 311.09375 L 429.875 311.09375 L 429.875 321.71875 L 429.90625 321.71875 L 429.90625 346.21875 L 429.90625 360.34375 L 436.71875 361.78125 L 434.5 372.15625 L 444.90625 374.375 L 447.125 363.96875 L 443.65625 363.25 L 465.75 259.25 L 477.875 261.8125 L 480.09375 251.4375 L 490.46875 253.65625 L 490.5 253.65625 L 491.21875 250.1875 L 508.5625 253.875 L 507.8125 257.3125 L 518.21875 259.53125 L 516 269.9375 L 528.125 272.5 L 506.03125 376.5 L 502.59375 375.78125 L 500.375 386.15625 L 510.78125 388.375 L 511.25 386.15625 L 512.96875 377.96875 L 523.375 380.1875 L 531.25 380.1875 L 531.25 373.4375 L 541.875 373.4375 L 541.875 346.21875 L 541.875 321.71875 L 541.875 311.09375 L 541.875 297.84375 L 541.875 263.0625 L 531.25 263.0625 L 531.25 249.6875 L 531.25 239.0625 L 440.53125 239.0625 z "
       id="path8102" />
    <path
       style="opacity:0.31666667;color:#000000;fill:#000000;fill-opacity:1;fill-rule:nonzero;stroke:none;stroke-width:10;marker:none;visibility:visible;display:inline;overflow:visible;enable-background:accumulate"
       d="M 206.6875 300.875 L 206.6875 311.53125 L 206.65625 311.53125 L 196.03125 311.53125 L 185.40625 311.53125 L 178.34375 311.53125 L 169.46875 311.53125 L 169.46875 322.15625 L 178.34375 322.15625 L 185.40625 322.15625 L 196.03125 322.15625 L 206.65625 322.15625 L 206.6875 322.15625 L 206.6875 332.78125 C 212.10946 332.78125 212.31133 322.15625 217.3125 322.15625 L 286.75 322.15625 C 291.75117 322.15625 291.95304 332.78125 297.375 332.78125 L 297.375 322.15625 L 308 322.15625 L 318.625 322.15625 L 325.71875 322.15625 L 334.59375 322.15625 L 334.59375 311.53125 L 325.71875 311.53125 L 318.625 311.53125 L 308 311.53125 L 297.375 311.53125 L 297.375 300.875 C 291.95304 300.875 291.75117 311.53125 286.75 311.53125 L 217.3125 311.53125 C 212.31133 311.53125 212.10946 300.875 206.6875 300.875 z M 173 315.0625 L 183.65625 315.0625 L 183.65625 318.625 L 173 318.625 L 173 315.0625 z M 320.40625 315.0625 L 331.0625 315.0625 L 331.0625 318.625 L 320.40625 318.625 L 320.40625 315.0625 z "
       id="rect3963" />
    <rect
       y="738.44989"
       x="464.35837"
       height="9.9212599"
       width="9.9212599"
       id="rect4087"
       style="opacity:0.3;color:#000000;fill:#000000;fill-opacity:1;fill-rule:nonzero;stroke:none;stroke-width:10;marker:none;visibility:visible;display:inline;overflow:visible;enable-background:accumulate" />
    <rect
       y="738.45001"
       x="-414.89355"
       height="9.9212599"
       width="9.9212599"
       id="rect4089"
       style="opacity:0.3;color:#000000;fill:#000000;fill-opacity:1;fill-rule:nonzero;stroke:none;stroke-width:10;marker:none;visibility:visible;display:inline;overflow:visible;enable-background:accumulate"
       transform="scale(-1,1)" />
    <rect
       style="opacity:0.3;color:#000000;fill:#000000;fill-opacity:1;fill-rule:nonzero;stroke:none;stroke-width:10;marker:none;visibility:visible;display:inline;overflow:visible;enable-background:accumulate"
       id="rect4091"
       width="9.9212599"
       height="9.9212599"
       x="345.58624"
       y="738.45026" />
    <rect
       transform="scale(-1,1)"
       style="opacity:0.3;color:#000000;fill:#000000;fill-opacity:1;fill-rule:nonzero;stroke:none;stroke-width:10;marker:none;visibility:visible;display:inline;overflow:visible;enable-background:accumulate"
       id="rect4093"
       width="9.9212599"
       height="9.9212599"
       x="-296.12143"
       y="738.45038" />
    <rect
       y="738.45062"
       x="226.81413"
       height="9.9212599"
       width="9.9212599"
       id="rect4095"
       style="opacity:0.3;color:#000000;fill:#000000;fill-opacity:1;fill-rule:nonzero;stroke:none;stroke-width:10;marker:none;visibility:visible;display:inline;overflow:visible;enable-background:accumulate" />
    <rect
       y="738.45074"
       x="-177.34932"
       height="9.9212599"
       width="9.9212599"
       id="rect4097"
       style="opacity:0.3;color:#000000;fill:#000000;fill-opacity:1;fill-rule:nonzero;stroke:none;stroke-width:10;marker:none;visibility:visible;display:inline;overflow:visible;enable-background:accumulate"
       transform="scale(-1,1)" />
    <rect
       transform="scale(-1,1)"
       style="opacity:0.3;color:#000000;fill:#000000;fill-opacity:1;fill-rule:nonzero;stroke:none;stroke-width:10;marker:none;visibility:visible;display:inline;overflow:visible;enable-background:accumulate"
       id="rect4099"
       width="9.9212599"
       height="9.9212599"
       x="-533.66571"
       y="738.44965" />
    <path
       id="path4101"
       d="m 98.995356,718.28425 18.044734,-5.64216 2.20713,-0.69012 7.78458,-2.43406 2.14747,-0.67146 11.99005,-3.74901 3.63878,-1.13776 47.45316,-14.83749 3.18013,10.17066 12.13918,-3.79563 -3.18013,-10.17067 -3.1708,-10.14084 -11.78127,3.68373 -37.64041,11.76927 -10.14084,3.1708 -0.0298,0.009 -15.42004,4.82148 -10.14084,3.1708 -10.14084,3.17081 -10.111014,3.16147 3.1708,10.14084 z"
       style="opacity:0.31666667;color:#000000;fill:#000000;fill-opacity:1;fill-rule:nonzero;stroke:none;stroke-width:10;marker:none;visibility:visible;display:inline;overflow:visible;enable-background:accumulate"
       inkscape:connector-curvature="0" />
    <path
       inkscape:connector-curvature="0"
       style="opacity:0.31666667;color:#000000;fill:#000000;fill-opacity:1;fill-rule:nonzero;stroke:none;stroke-width:10;marker:none;visibility:visible;display:inline;overflow:visible;enable-background:accumulate"
       d="m 602.11903,718.29431 -18.04473,-5.64216 -2.20713,-0.69012 -7.78458,-2.43406 -2.14747,-0.67146 -11.99005,-3.74901 -3.63878,-1.13776 -47.45316,-14.83749 -3.18013,10.17066 -12.13918,-3.79563 3.18013,-10.17067 3.1708,-10.14084 11.78127,3.68373 37.64041,11.76927 10.14084,3.1708 0.0298,0.009 15.42004,4.82148 10.14084,3.1708 10.14084,3.17081 10.11101,3.16147 -3.1708,10.14084 z"
       id="path4107" />
    <path
       sodipodi:type="arc"
       style="opacity:0.31666667;color:#000000;fill:#000000;fill-opacity:1;fill-rule:nonzero;stroke:none;stroke-width:10;marker:none;visibility:visible;display:inline;overflow:visible;enable-background:accumulate"
       id="path4111"
       sodipodi:cx="-119.50105"
       sodipodi:cy="178.64346"
       sodipodi:rx="9.5459414"
       sodipodi:ry="15.445658"
       d="m -109.95511,178.64346 a 9.5459414,15.445658 0 1 1 -19.09188,0 9.5459414,15.445658 0 1 1 19.09188,0 z"
       transform="matrix(-0.22702212,-0.72606054,0.44873009,-0.14030738,141.87645,639.71851)" />
    <path
       transform="matrix(-0.22702212,-0.72606054,0.44873009,-0.14030738,344.65378,639.72857)"
       d="m -109.95511,178.64346 a 9.5459414,15.445658 0 1 1 -19.09188,0 9.5459414,15.445658 0 1 1 19.09188,0 z"
       sodipodi:ry="15.445658"
       sodipodi:rx="9.5459414"
       sodipodi:cy="178.64346"
       sodipodi:cx="-119.50105"
       id="path4113"
       style="opacity:0.31666667;color:#000000;fill:#000000;fill-opacity:1;fill-rule:nonzero;stroke:none;stroke-width:10;marker:none;visibility:visible;display:inline;overflow:visible;enable-background:accumulate"
       sodipodi:type="arc" />
    <path
       transform="matrix(1.8906552,0,0,1.8906552,-221.13195,-917.86962)"
       d="m 258.21429,856.4693 a 9.4642859,9.4642859 0 1 1 -18.92858,0 9.4642859,9.4642859 0 1 1 18.92858,0 z"
       sodipodi:ry="9.4642859"
       sodipodi:rx="9.4642859"
       sodipodi:cy="856.4693"
       sodipodi:cx="248.75"
       id="path4152"
       style="opacity:0.31666667;color:#000000;fill:#000000;fill-opacity:1;fill-rule:nonzero;stroke:none;stroke-width:10;marker:none;visibility:visible;display:inline;overflow:visible;enable-background:accumulate"
       sodipodi:type="arc" />
    <path
       sodipodi:nodetypes="ccccccccccccccccccccccccccccccccc"
       inkscape:connector-curvature="0"
       id="path4926"
       d="m 208.20258,661.87409 3.15625,10.15625 3.1875,10.125 3.1875,10.1875 3.15625,10.125 -10.15625,3.1875 -12.125,3.78125 -10.15625,3.1875 -3.15625,-10.15625 -37.3125,11.65625 -3.65625,1.125 -11.96875,3.75 -2.15625,0.6875 -7.78125,2.40625 -2.21875,0.71875 -18.03125,5.625 c -13.968752,-9.03125 0,0 -13.968752,-9.03125 l -2.53125,-8.09375 -3.15625,-10.125 10.125,-3.1875 10.125002,-3.15625 10.125,-3.15625 10.15625,-3.1875 15.40625,-4.8125 0.0312,0 0.0312,-0.0312 0.0312,0 0.0312,0 10.0625,-3.15625 37.625,-11.78125 11.78125,-3.65625 10.15625,-3.1875 z"
       style="font-size:medium;font-style:normal;font-variant:normal;font-weight:normal;font-stretch:normal;text-indent:0;text-align:start;text-decoration:none;line-height:normal;letter-spacing:normal;word-spacing:normal;text-transform:none;direction:ltr;block-progression:tb;writing-mode:lr-tb;text-anchor:start;baseline-shift:baseline;opacity:0.31666667;color:#000000;fill:#000000;fill-opacity:1;fill-rule:nonzero;stroke:none;stroke-width:21.25984192;marker:none;visibility:visible;display:inline;overflow:visible;enable-background:accumulate;font-family:Sans;-inkscape-font-specification:Sans" />
    <path
       id="path4940"
       d="m -75.66162,501.90841 1.026,-0.083 2.735,0.448 3.802,1.591 0,2.664 -3.802,1.591 -2.735,0.448 -1.026,-0.083 -0.54,4.104 1.012,0.186 2.526,1.141 3.26,2.52 -0.689,2.574 -4.084,0.552 -2.758,-0.275 -0.969,-0.345 -1.584,3.824 0.929,0.442 2.145,1.755 2.497,3.279 -1.332,2.307 -4.088,-0.523 -2.593,-0.98 -0.847,-0.584 -2.52,3.284 0.784,0.667 1.617,2.251 1.564,3.813 -1.884,1.884 -3.813,-1.564 -2.251,-1.617 -0.667,-0.784 -3.284,2.52 0.584,0.847 0.98,2.593 0.523,4.088 -2.307,1.332 -3.279,-2.497 -1.755,-2.145 -0.442,-0.929 -3.824,1.584 0.345,0.969 0.275,2.758 -0.552,4.084 -2.574,0.689 -2.52,-3.26 -1.141,-2.526 -0.186,-1.012 -4.104,0.54 0.083,1.026 -0.448,2.735 -1.591,3.802 -2.664,0 -1.591,-3.802 -0.448,-2.735 0.083,-1.026 -4.104,-0.54 -0.186,1.012 -1.141,2.526 -2.52,3.26 -2.574,-0.689 -0.552,-4.084 0.275,-2.758 0.345,-0.969 -3.824,-1.584 -0.442,0.929 -1.755,2.145 -3.279,2.497 -2.307,-1.332 0.523,-4.088 0.98,-2.593 0.584,-0.847 -3.284,-2.52 -0.667,0.784 -2.251,1.617 -3.813,1.564 -1.884,-1.884 1.564,-3.813 1.617,-2.251 0.784,-0.667 -2.52,-3.284 -0.847,0.584 -2.593,0.98 -4.088,0.523 -1.332,-2.307 2.497,-3.279 2.145,-1.755 0.929,-0.442 -1.584,-3.824 -0.969,0.345 -2.758,0.275 -4.084,-0.552 -0.689,-2.574 3.26,-2.52 2.526,-1.141 1.012,-0.186 -0.54,-4.104 -1.026,0.083 -2.735,-0.448 -3.802,-1.591 0,-2.664 3.802,-1.591 2.735,-0.448 1.026,0.083 0.54,-4.104 -1.012,-0.186 -2.526,-1.141 -3.26,-2.52 0.689,-2.574 4.084,-0.552 2.758,0.275 0.969,0.345 1.584,-3.824 -0.929,-0.442 -2.145,-1.755 -2.497,-3.279 1.332,-2.307 4.088,0.523 2.593,0.98 0.847,0.584 2.52,-3.284 -0.784,-0.667 -1.617,-2.251 -1.564,-3.813 1.884,-1.884 3.813,1.564 2.251,1.617 0.667,0.784 3.284,-2.52 -0.584,-0.847 -0.98,-2.593 -0.523,-4.088 2.307,-1.332 3.279,2.497 1.755,2.145 0.442,0.929 3.824,-1.584 -0.345,-0.969 -0.275,-2.758 0.552,-4.084 2.574,-0.689 2.52,3.26 1.141,2.526 0.186,1.012 4.104,-0.54 -0.083,-1.026 0.448,-2.735 1.591,-3.802 2.664,0 1.591,3.802 0.448,2.735 -0.083,1.026 4.104,0.54 0.186,-1.012 1.141,-2.526 2.52,-3.26 2.574,0.689 0.552,4.084 -0.275,2.758 -0.345,0.969 3.824,1.584 0.442,-0.929 1.755,-2.145 3.279,-2.497 2.307,1.332 -0.523,4.088 -0.98,2.593 -0.584,0.847 3.284,2.52 0.667,-0.784 2.251,-1.617 3.813,-1.564 1.884,1.884 -1.564,3.813 -1.617,2.251 -0.784,0.667 2.52,3.284 0.847,-0.584 2.593,-0.98 4.088,-0.523 1.332,2.307 -2.497,3.279 -2.145,1.755 -0.929,0.442 1.584,3.824 0.969,-0.345 2.758,-0.275 4.084,0.552 0.689,2.574 -3.26,2.52 -2.526,1.141 -1.012,0.186 z"
       style="opacity:0.3;fill:#000000;fill-opacity:1;stroke:none"
       inkscape:connector-curvature="0" />
    <rect
       y="500.23578"
       x="111.53501"
       height="9.9212599"
       width="9.9212599"
       id="rect4942"
       style="opacity:0.3;color:#000000;fill:#000000;fill-opacity:1;fill-rule:nonzero;stroke:none;stroke-width:10;marker:none;visibility:visible;display:inline;overflow:visible;enable-background:accumulate"
       transform="scale(-1,1)" />
  </g>
</svg>
