<?xml version="1.0" encoding="UTF-8" standalone="no"?>
<!-- Created with Inkscape (http://www.inkscape.org/) -->

<svg
   xmlns:dc="http://purl.org/dc/elements/1.1/"
   xmlns:cc="http://creativecommons.org/ns#"
   xmlns:rdf="http://www.w3.org/1999/02/22-rdf-syntax-ns#"
   xmlns:svg="http://www.w3.org/2000/svg"
   xmlns="http://www.w3.org/2000/svg"
   xmlns:sodipodi="http://sodipodi.sourceforge.net/DTD/sodipodi-0.dtd"
   xmlns:inkscape="http://www.inkscape.org/namespaces/inkscape"
   sodipodi:docname="john.svg"
   inkscape:version="0.48.5 r10040"
   version="1.1"
   id="svg3091"
   height="608.79596"
   width="263.39478"
   style="enable-background:new">
  <sodipodi:namedview
     id="base"
     pagecolor="#ffffff"
     bordercolor="#666666"
     borderopacity="1.0"
     inkscape:pageopacity="0.0"
     inkscape:pageshadow="2"
     inkscape:zoom="2.8284271"
     inkscape:cx="140.78508"
     inkscape:cy="154.1326"
     inkscape:document-units="mm"
     inkscape:current-layer="layer3"
     showgrid="false"
     inkscape:window-width="1920"
     inkscape:window-height="1005"
     inkscape:window-x="-9"
     inkscape:window-y="-9"
     inkscape:window-maximized="1"
     inkscape:object-paths="false"
     inkscape:object-nodes="true"
     inkscape:snap-object-midpoints="true"
     inkscape:snap-nodes="true"
     inkscape:snap-midpoints="true"
     inkscape:snap-intersection-paths="true"
     inkscape:snap-smooth-nodes="true"
     units="mm"
     fit-margin-top="1"
     fit-margin-right="1"
     fit-margin-bottom="1"
     fit-margin-left="1" />
  <defs
     id="defs3093">
    <filter
       inkscape:collect="always"
       id="filter3277"
       color-interpolation-filters="sRGB">
      <feBlend
         inkscape:collect="always"
         mode="screen"
         in2="BackgroundImage"
         id="feBlend3279" />
    </filter>
  </defs>
  <metadata
     id="metadata3096">
    <rdf:RDF>
      <cc:Work
         rdf:about="">
        <dc:format>image/svg+xml</dc:format>
        <dc:type
           rdf:resource="http://purl.org/dc/dcmitype/StillImage" />
        <dc:title />
      </cc:Work>
    </rdf:RDF>
  </metadata>
  <g
     inkscape:groupmode="layer"
     id="layer2"
     inkscape:label="Purgatory"
     style="display:none"
     transform="translate(390.77735,87.879556)">
    <path
       style="opacity:0.75739644;color:#000000;fill:#000000;fill-opacity:0.22745098;fill-rule:nonzero;stroke:none;stroke-width:0.99921262;marker:none;visibility:visible;display:inline;overflow:visible;enable-background:accumulate"
       d="m 652.98337,208.11457 0,10.625 0,31.90625 0,10.625 10.625,0 0,-10.625 10.625,0 50.75,0 2.40625,0 21.25,0 2.40625,0 50.75,0 10.625,0 0,10.625 10.625,0 0,-10.625 0,-31.90625 0,-10.625 -10.625,0 0,10.625 -20.9375,0 -3.09375,5.34375 -5.3125,9.1875 -9.25,-5.3125 5.3125,-9.1875 0.0312,-0.0312 -28.125,0 0,0.0312 -2.375,0 0,10.625 -10.65625,0 0,-10.625 -10.625,0 -2.40625,0 0,-0.0312 -61.375,0 0,-10.625 -10.625,0 z m 37.1875,19.0625 c 4.15844,0 7.53125,3.34156 7.53125,7.5 0,4.15844 -3.37281,7.53125 -7.53125,7.53125 -4.15844,0 -7.53125,-3.37281 -7.53125,-7.53125 0,-4.15844 3.37281,-7.5 7.53125,-7.5 z m -26.5625,2.1875 10.625,0 0,10.65625 -10.625,0 0,-10.65625 z m 138.1875,0 10.625,0 0,10.65625 -10.625,0 0,-10.65625 z"
       id="rect4386"
       inkscape:connector-curvature="0"
       inkscape:transform-center-x="-47.843752" />
    <rect
       style="opacity:0.75739644;color:#000000;fill:#000000;fill-opacity:0.22745098;fill-rule:nonzero;stroke:none;stroke-width:0.99921262;marker:none;visibility:visible;display:inline;overflow:visible;enable-background:accumulate"
       id="rect4388"
       width="10.629921"
       height="10.629921"
       x="666.87024"
       y="139.92952" />
    <rect
       style="opacity:0.75739644;color:#000000;fill:#000000;fill-opacity:0.22745098;fill-rule:nonzero;stroke:none;stroke-width:0.99921262;marker:none;visibility:visible;display:inline;overflow:visible;enable-background:accumulate"
       id="rect4415"
       width="10.625"
       height="10.65625"
       x="698.9834"
       y="254.36456" />
    <rect
       y="229.36456"
       x="684.8584"
       height="10.65625"
       width="10.625"
       id="rect4417"
       style="opacity:0.75739644;color:#000000;fill:#000000;fill-opacity:0.22745098;fill-rule:nonzero;stroke:none;stroke-width:0.99921262;marker:none;visibility:visible;display:inline;overflow:visible;enable-background:accumulate" />
    <rect
       y="240.02081"
       x="695.4834"
       height="10.65625"
       width="10.625"
       id="rect4419"
       style="opacity:0.75739644;color:#000000;fill:#000000;fill-opacity:0.22745098;fill-rule:nonzero;stroke:none;stroke-width:0.99921262;marker:none;visibility:visible;display:inline;overflow:visible;enable-background:accumulate" />
    <rect
       style="opacity:0.75739644;color:#000000;fill:#000000;fill-opacity:0.22745098;fill-rule:nonzero;stroke:none;stroke-width:0.99921262;marker:none;visibility:visible;display:inline;overflow:visible;enable-background:accumulate"
       id="rect4421"
       width="10.629921"
       height="157.40944"
       x="-720.36652"
       y="-220.5403"
       transform="matrix(-0.8660254,-0.5,-0.5,0.8660254,0,0)" />
    <rect
       transform="scale(-1,1)"
       y="155.98796"
       x="-695.48584"
       height="157.40944"
       width="10.629921"
       id="rect4423"
       style="opacity:0.75739644;color:#000000;fill:#000000;fill-opacity:0.22745098;fill-rule:nonzero;stroke:none;stroke-width:0.99921262;marker:none;visibility:visible;display:inline;overflow:visible;enable-background:accumulate" />
    <rect
       style="opacity:0.75739644;color:#000000;fill:#000000;fill-opacity:0.22745098;fill-rule:nonzero;stroke:none;stroke-width:0.99921262;marker:none;visibility:visible;display:inline;overflow:visible;enable-background:accumulate"
       id="rect4425"
       width="10.625"
       height="10.65625"
       x="-730.99152"
       y="-163.32521"
       transform="matrix(-0.8660254,-0.5,-0.5,0.8660254,0,0)" />
    <rect
       transform="matrix(-0.8660254,-0.5,-0.5,0.8660254,0,0)"
       y="-173.98145"
       x="-730.99152"
       height="10.65625"
       width="10.625"
       id="rect4427"
       style="opacity:0.75739644;color:#000000;fill:#000000;fill-opacity:0.22745098;fill-rule:nonzero;stroke:none;stroke-width:0.99921262;marker:none;visibility:visible;display:inline;overflow:visible;enable-background:accumulate" />
    <rect
       style="opacity:0.75739644;color:#000000;fill:#000000;fill-opacity:0.22745098;fill-rule:nonzero;stroke:none;stroke-width:0.99921262;marker:none;visibility:visible;display:inline;overflow:visible;enable-background:accumulate"
       id="rect4431"
       width="10.629921"
       height="157.40944"
       x="-759.26294"
       y="155.9962"
       transform="scale(-1,1)" />
    <rect
       style="opacity:0.75739644;color:#000000;fill:#000000;fill-opacity:0.22745098;fill-rule:nonzero;stroke:none;stroke-width:0.99921262;marker:none;visibility:visible;display:inline;overflow:visible;enable-background:accumulate"
       id="rect4511"
       width="10.629921"
       height="74.409447"
       x="748.633"
       y="176.23636" />
    <path
       inkscape:transform-center-x="-41.433922"
       inkscape:connector-curvature="0"
       id="path4515"
       d="m 644.67648,230.2691 5.3125,9.20152 15.95313,27.63162 5.3125,9.20152 9.20152,-5.3125 -5.3125,-9.20152 9.20152,-5.3125 43.95079,-25.375 2.08387,-1.20312 18.40304,-10.625 2.08388,-1.20313 43.95078,-25.375 9.20152,-5.3125 5.3125,9.20152 9.20152,-5.3125 -5.3125,-9.20152 -15.95312,-27.63162 -5.3125,-9.20152 -9.20152,5.3125 5.3125,9.20152 -18.13241,10.46875 -0.007,6.1747 -0.007,10.61286 -10.66698,0.0242 0.007,-10.61286 0.0114,-0.0426 -24.35697,14.0625 0.0156,0.027 -2.05681,1.1875 5.3125,9.20152 -9.22858,5.32812 -5.3125,-9.20152 -9.20152,5.3125 -2.08388,1.20313 -0.0156,-0.027 -53.1523,30.6875 -5.3125,-9.20152 -9.20152,5.3125 z m 41.73657,-2.08514 c 3.60132,-2.07922 8.19304,-0.87175 10.27226,2.72956 2.07922,3.60132 0.84468,8.20866 -2.75663,10.28788 -3.60132,2.07922 -8.20866,0.84469 -10.28788,-2.75663 -2.07922,-3.60131 -0.82906,-8.18159 2.77225,-10.26081 z m -21.91005,15.17568 9.20152,-5.3125 5.32813,9.22858 -9.20152,5.3125 -5.32813,-9.22858 z m 119.67389,-69.09375 9.20152,-5.3125 5.32812,9.22858 -9.20152,5.3125 -5.32812,-9.22858 z"
       style="opacity:0.75739644;color:#000000;fill:#000000;fill-opacity:0.22745098;fill-rule:nonzero;stroke:none;stroke-width:0.99921262;marker:none;visibility:visible;display:inline;overflow:visible;enable-background:accumulate"
       inkscape:transform-center-y="-23.92189" />
    <rect
       transform="matrix(-0.5,-0.8660254,0.8660254,-0.5,0,0)"
       y="432.54175"
       x="-587.3114"
       height="10.629921"
       width="77.952759"
       id="rect4517"
       style="opacity:0.75739644;color:#000000;fill:#000000;fill-opacity:0.22745098;fill-rule:nonzero;stroke:none;stroke-width:0.99921262;marker:none;visibility:visible;display:inline;overflow:visible;enable-background:accumulate" />
    <rect
       style="opacity:0.75739644;color:#000000;fill:#000000;fill-opacity:0.22745098;fill-rule:nonzero;stroke:none;stroke-width:0.99921262;marker:none;visibility:visible;display:inline;overflow:visible;enable-background:accumulate"
       id="rect4519"
       width="27.226597"
       height="52.335129"
       x="668.24799"
       y="240.02081" />
    <rect
       style="opacity:0.75739644;color:#000000;fill:#000000;fill-opacity:0.22745098;fill-rule:nonzero;stroke:none;stroke-width:0.99921262;marker:none;visibility:visible;display:inline;overflow:visible;enable-background:accumulate"
       id="rect4523"
       width="10.629921"
       height="10.629921"
       x="810.28271"
       y="299.00818" />
    <rect
       y="288.37827"
       x="810.28271"
       height="10.629921"
       width="10.629921"
       id="rect4525"
       style="opacity:0.75739644;color:#000000;fill:#000000;fill-opacity:0.22745098;fill-rule:nonzero;stroke:none;stroke-width:0.99921262;marker:none;visibility:visible;display:inline;overflow:visible;enable-background:accumulate" />
    <path
       style="opacity:0.75739644;color:#000000;fill:#000000;fill-opacity:0.22745098;fill-rule:nonzero;stroke:none;stroke-width:0.99921262;marker:none;visibility:visible;display:inline;overflow:visible;enable-background:accumulate"
       d="m 866.64374,280.44547 0,63.75 99.21875,0 0,-63.75 -99.21875,0 z m 44.75,35.4375 c 0.0694,-2e-5 0.12617,0.005 0.1875,0.0312 0.0613,0.0266 0.1408,0.0471 0.1875,0.0937 0.0466,0.0467 0.0657,0.12488 0.0937,0.1875 0.0281,0.0627 0.0625,0.11823 0.0625,0.1875 3e-5,0.0694 -0.0344,0.12754 -0.0625,0.1875 -0.028,0.0601 -0.0471,0.10967 -0.0937,0.15625 -0.0467,0.0468 -0.12619,0.0985 -0.1875,0.125 -0.0613,0.0267 -0.11814,0.0312 -0.1875,0.0312 -0.0693,-2e-5 -0.12752,-0.005 -0.1875,-0.0312 -0.06,-0.0266 -0.10958,-0.0782 -0.15625,-0.125 -0.0466,-0.0466 -0.0983,-0.0962 -0.125,-0.15625 -0.0267,-0.0599 -0.0313,-0.1181 -0.0312,-0.1875 -2e-5,-0.0693 0.005,-0.12477 0.0312,-0.1875 0.0267,-0.0626 0.0784,-0.14082 0.125,-0.1875 0.0467,-0.0467 0.0962,-0.0671 0.15625,-0.0937 0.06,-0.0267 0.11818,-0.0313 0.1875,-0.0312 z m -23.28125,0.0937 2.40625,0 c 1.02132,10e-6 1.65825,0.29635 1.90625,0.875 0.0774,0.18668 0.12503,0.37585 0.125,0.5625 0,0.18667 -0.0185,0.33809 -0.0625,0.46875 -0.044,0.13067 -0.13076,0.23176 -0.21875,0.34375 -0.18933,0.23467 -0.46051,0.42192 -0.8125,0.53125 0.84532,0.168 1.28125,0.60318 1.28125,1.3125 -10e-6,0.49333 -0.18193,0.89417 -0.53125,1.1875 -0.36,0.30133 -0.83676,0.4375 -1.46875,0.4375 l -2.625,0 0,-0.34375 c 0,-0.0827 0.045,-0.109 0.125,-0.125 l 0.46875,-0.0937 0,-4.5625 c -0.256,-0.0507 -0.42075,-0.0831 -0.46875,-0.0937 -0.08,-0.016 -0.125,-0.0736 -0.125,-0.15625 l 0,-0.34375 z m 10,0.34375 0.34375,0 0,1.40625 1.15625,0 0,0.53125 -1.15625,0 0,2.40625 c 0,0.17067 0.0423,0.32358 0.125,0.40625 0.0827,0.0827 0.18183,0.125 0.3125,0.125 0.0747,0 0.13283,-0.0113 0.1875,-0.0312 0.0547,-0.02 0.11625,-0.0385 0.15625,-0.0625 0.04,-0.024 0.0657,-0.0738 0.0937,-0.0937 0.028,-0.02 0.0724,-0.0312 0.0937,-0.0312 0.0373,0 0.0644,0.0484 0.0937,0.0937 l 0.21875,0.34375 c -0.12267,0.11467 -0.29542,0.18467 -0.46875,0.25 -0.17334,0.0653 -0.34725,0.0937 -0.53125,0.0937 -0.32,0 -0.54675,-0.0713 -0.71875,-0.25 -0.172,-0.17866 -0.28125,-0.44525 -0.28125,-0.78125 l 0,-2.46875 -0.46875,0 c -0.0427,0 -0.0957,-0.0372 -0.125,-0.0625 -0.0293,-0.0253 -0.0312,-0.0404 -0.0312,-0.0937 l 0,-0.28125 0.65625,-0.0937 0.15625,-1.25 c 0.005,-0.04 0.0332,-0.0684 0.0625,-0.0937 0.0293,-0.0254 0.0797,-0.0626 0.125,-0.0625 z m 2.90625,0 0.34375,0 0,1.40625 1.15625,0 0,0.53125 -1.15625,0 0,2.40625 c 0,0.17067 0.0423,0.32358 0.125,0.40625 0.0827,0.0827 0.18183,0.125 0.3125,0.125 0.0747,0 0.13283,-0.0113 0.1875,-0.0312 0.0547,-0.02 0.11625,-0.0385 0.15625,-0.0625 0.04,-0.024 0.0657,-0.0738 0.0937,-0.0937 0.028,-0.02 0.0724,-0.0312 0.0937,-0.0312 0.0373,0 0.0644,0.0484 0.0937,0.0937 l 0.21875,0.34375 c -0.12267,0.11467 -0.29542,0.18467 -0.46875,0.25 -0.17334,0.0653 -0.34725,0.0937 -0.53125,0.0937 -0.32,0 -0.54675,-0.0713 -0.71875,-0.25 -0.172,-0.17866 -0.28125,-0.44525 -0.28125,-0.78125 l 0,-2.46875 -0.46875,0 c -0.0427,0 -0.0957,-0.0372 -0.125,-0.0625 -0.0293,-0.0253 -0.0312,-0.0404 -0.0312,-0.0937 l 0,-0.28125 0.65625,-0.0937 0.15625,-1.25 c 0.005,-0.04 0.0332,-0.0684 0.0625,-0.0937 0.0293,-0.0254 0.0797,-0.0626 0.125,-0.0625 z m -11.5625,0.25 0,1.96875 1.03125,0 c 0.63732,0 1.05608,-0.20709 1.21875,-0.59375 0.0507,-0.12267 0.0625,-0.231 0.0625,-0.375 0,-0.336 -0.10984,-0.59267 -0.3125,-0.75 -0.20267,-0.15735 -0.51084,-0.25001 -0.9375,-0.25 l -1.0625,0 z m 5.40625,1 c 0.22663,4e-5 0.41774,0.0503 0.59375,0.125 0.17598,0.0746 0.34876,0.17914 0.46875,0.3125 0.12004,0.13336 0.18869,0.27944 0.25,0.46875 0.0613,0.18941 0.0937,0.39842 0.0937,0.625 l 0,2.03125 0.21875,0.0312 c 0.0846,0.0168 0.15484,0.0247 0.1875,0.0312 0.0358,0.008 0.0713,0.0353 0.0937,0.0625 0.0224,0.0272 0.0306,0.0575 0.0312,0.0937 l 0,0.34375 -0.53125,0 -0.0625,0 -0.25,0 c -0.0694,1e-5 -0.11362,-0.01 -0.15625,-0.0312 -0.0427,-0.0213 -0.0804,-0.0556 -0.0937,-0.125 l -0.0937,-0.375 c -0.10668,0.096 -0.17991,0.17407 -0.28125,0.25 -0.10137,0.0761 -0.2318,0.13553 -0.34375,0.1875 -0.112,0.052 -0.21708,0.0984 -0.34375,0.125 -0.12671,0.0267 -0.28288,0.0312 -0.4375,0.0312 -0.15736,-3e-5 -0.30023,-0.0184 -0.4375,-0.0625 -0.13735,-0.0442 -0.24242,-0.0992 -0.34375,-0.1875 -0.10132,-0.0883 -0.19004,-0.20861 -0.25,-0.34375 -0.06,-0.1351 -0.0938,-0.31538 -0.0937,-0.5 0,-0.16051 0.037,-0.28892 0.125,-0.4375 0.088,-0.14853 0.24153,-0.29121 0.4375,-0.40625 0.196,-0.11502 0.46389,-0.20762 0.78125,-0.28125 0.3173,-0.0736 0.69759,-0.12499 1.15625,-0.125 l 0,-0.3125 c -2e-5,-0.31658 -0.0841,-0.55639 -0.21875,-0.71875 -0.13464,-0.1624 -0.32976,-0.24998 -0.59375,-0.25 -0.17339,2e-5 -0.31891,0.0497 -0.4375,0.0937 -0.11871,0.044 -0.22587,0.0704 -0.3125,0.125 -0.0867,0.0547 -0.15613,0.11227 -0.21875,0.15625 -0.0627,0.044 -0.12624,0.0625 -0.1875,0.0625 -0.048,-2e-5 -0.089,-0.006 -0.125,-0.0312 -0.036,-0.0253 -0.0724,-0.0564 -0.0937,-0.0937 l -0.125,-0.21875 c 0.22397,-0.21603 0.49134,-0.39336 0.75,-0.5 0.25865,-0.10667 0.52906,-0.15622 0.84375,-0.15625 z m 14.65625,0 c 0.20799,0 0.36858,0.0603 0.53125,0.15625 l -0.0625,0.53125 c -0.0187,0.0667 -0.0743,0.0937 -0.125,0.0937 -0.0507,0 -0.11017,-0.006 -0.1875,-0.0312 -0.0773,-0.0253 -0.17384,-0.0312 -0.3125,-0.0312 -0.464,0 -0.83317,0.28109 -1.0625,0.84375 l 0,2 c 0.0667,0.0133 0.23142,0.0457 0.46875,0.0937 0.08,0.016 0.125,0.0423 0.125,0.125 l 0,0.34375 -1.875,0 0,-0.34375 c 0,-0.0827 0.045,-0.109 0.125,-0.125 l 0.46875,-0.0937 0,-2.90625 c -0.256,-0.0507 -0.42075,-0.0831 -0.46875,-0.0937 -0.08,-0.016 -0.125,-0.0423 -0.125,-0.125 l 0,-0.34375 0.59375,0 0.40625,0 c 0.0773,4e-5 0.12692,0.002 0.15625,0.0312 0.0293,0.0293 0.0518,0.0843 0.0625,0.15625 l 0.0312,0.625 c 0.296,-0.59999 0.72467,-0.90625 1.25,-0.90625 z m -4.625,0.0312 c 0.24267,2e-5 0.45092,0.0125 0.65625,0.0937 0.20533,0.0813 0.38192,0.22167 0.53125,0.375 0.14933,0.15334 0.25975,0.33717 0.34375,0.5625 0.084,0.22534 0.125,0.49326 0.125,0.78125 0,0.11201 -0.007,0.18142 -0.0312,0.21875 -0.024,0.0373 -0.0583,0.0312 -0.125,0.0312 l -2.6875,0 c 0.005,0.256 0.0297,0.49817 0.0937,0.6875 0.064,0.18933 0.138,0.34208 0.25,0.46875 0.112,0.12667 0.25158,0.21858 0.40625,0.28125 0.15466,0.0627 0.33925,0.0937 0.53125,0.0937 0.17866,0 0.33942,-0.0212 0.46875,-0.0625 0.12933,-0.0413 0.21917,-0.077 0.3125,-0.125 0.0933,-0.048 0.18733,-0.0837 0.25,-0.125 0.0627,-0.0413 0.11092,-0.0625 0.15625,-0.0625 0.0587,0 0.093,0.0172 0.125,0.0625 l 0.21875,0.25 c -0.088,0.10667 -0.18984,0.20258 -0.3125,0.28125 -0.12267,0.0787 -0.26626,0.13683 -0.40625,0.1875 -0.14,0.0507 -0.28817,0.0997 -0.4375,0.125 -0.14933,0.0253 -0.29084,0.0312 -0.4375,0.0312 -0.28,0 -0.54525,-0.0616 -0.78125,-0.15625 -0.236,-0.0947 -0.42175,-0.22358 -0.59375,-0.40625 -0.172,-0.18266 -0.31025,-0.41817 -0.40625,-0.6875 -0.096,-0.26933 -0.15625,-0.55692 -0.15625,-0.90625 0,-0.28266 0.0383,-0.56717 0.125,-0.8125 0.0867,-0.24533 0.21233,-0.445 0.375,-0.625 0.16267,-0.18 0.35908,-0.33484 0.59375,-0.4375 0.23466,-0.10267 0.51917,-0.125 0.8125,-0.125 z m 9.6875,0 c 0.24267,2e-5 0.48217,0.0125 0.6875,0.0937 0.20533,0.0813 0.38192,0.22167 0.53125,0.375 0.14933,0.15334 0.25975,0.33717 0.34375,0.5625 0.084,0.22534 0.125,0.49326 0.125,0.78125 0,0.11201 -0.007,0.18142 -0.0312,0.21875 -0.024,0.0373 -0.0896,0.0312 -0.15625,0.0312 l -2.6875,0 c 0.005,0.256 0.0297,0.49817 0.0937,0.6875 0.064,0.18933 0.16925,0.34208 0.28125,0.46875 0.112,0.12667 0.25158,0.21858 0.40625,0.28125 0.15466,0.0627 0.308,0.0937 0.5,0.0937 0.17866,0 0.33942,-0.0212 0.46875,-0.0625 0.12933,-0.0413 0.25042,-0.077 0.34375,-0.125 0.0933,-0.048 0.15608,-0.0837 0.21875,-0.125 0.0627,-0.0413 0.11092,-0.0625 0.15625,-0.0625 0.0587,0 0.12425,0.0172 0.15625,0.0625 l 0.1875,0.25 c -0.088,0.10667 -0.18984,0.20258 -0.3125,0.28125 -0.12267,0.0787 -0.23501,0.13683 -0.375,0.1875 -0.14,0.0507 -0.28817,0.0997 -0.4375,0.125 -0.14933,0.0253 -0.32209,0.0312 -0.46875,0.0312 -0.28,0 -0.514,-0.0616 -0.75,-0.15625 -0.236,-0.0947 -0.453,-0.22358 -0.625,-0.40625 -0.172,-0.18266 -0.31025,-0.41817 -0.40625,-0.6875 -0.096,-0.26933 -0.125,-0.55692 -0.125,-0.90625 0,-0.28266 0.0383,-0.56717 0.125,-0.8125 0.0867,-0.24533 0.21233,-0.445 0.375,-0.625 0.16267,-0.18 0.35908,-0.33484 0.59375,-0.4375 0.23466,-0.10267 0.48792,-0.125 0.78125,-0.125 z m -4.125,0.0625 1.28125,0 0,3.46875 0.21875,0.0312 c 0.11965,0.0238 0.20035,0.0213 0.25,0.0312 0.0358,0.008 0.0714,0.0353 0.0937,0.0625 0.0224,0.0272 0.0306,0.0575 0.0312,0.0937 l 0,0.34375 -1.875,0 0,-0.34375 c 6.9e-4,-0.0363 0.009,-0.0665 0.0312,-0.0937 0.0224,-0.0272 0.058,-0.0547 0.0937,-0.0625 0.0497,-0.01 0.13034,-0.007 0.25,-0.0312 l 0.21875,-0.0312 0,-2.90625 -0.21875,-0.0312 c -0.11966,-0.0238 -0.20035,-0.0526 -0.25,-0.0625 -0.0358,-0.008 -0.0714,-0.004 -0.0937,-0.0312 -0.0224,-0.0272 -0.0306,-0.0575 -0.0312,-0.0937 l 0,-0.34375 z m -5.5625,0.4375 c -0.344,0 -0.61517,0.11384 -0.8125,0.3125 -0.19733,0.19867 -0.327,0.46051 -0.375,0.8125 l 2.21875,0 c -2e-5,-0.16533 -0.0172,-0.30017 -0.0625,-0.4375 -0.0453,-0.13733 -0.13076,-0.275 -0.21875,-0.375 -0.088,-0.1 -0.18584,-0.16409 -0.3125,-0.21875 -0.12667,-0.0547 -0.27484,-0.0938 -0.4375,-0.0937 z m 9.71875,0 c -0.344,0 -0.61517,0.11384 -0.8125,0.3125 -0.19733,0.19867 -0.327,0.46051 -0.375,0.8125 l 2.1875,0 c -2e-5,-0.16533 -0.0172,-0.30017 -0.0625,-0.4375 -0.0453,-0.13733 -0.0995,-0.275 -0.1875,-0.375 -0.088,-0.1 -0.18584,-0.16409 -0.3125,-0.21875 -0.12667,-0.0547 -0.27484,-0.0938 -0.4375,-0.0937 z m -25.15625,1 0,2 1.25,0 c 0.63732,0 1.03283,-0.21167 1.1875,-0.625 0.048,-0.12533 0.0625,-0.2855 0.0625,-0.4375 0,-0.29599 -0.10317,-0.5155 -0.3125,-0.6875 -0.20934,-0.172 -0.51351,-0.25 -0.9375,-0.25 l -1.25,0 z m 6.125,0.78135 c -0.328,-10e-6 -0.61441,0.0209 -0.84375,0.0625 -0.22934,0.0416 -0.41853,0.0892 -0.5625,0.15625 -0.14401,0.0671 -0.24719,0.15884 -0.3125,0.25 -0.0654,0.0912 -0.0938,0.16868 -0.0937,0.28125 1e-5,0.1073 0.0278,0.20342 0.0625,0.28125 0.0346,0.0778 0.0663,0.13789 0.125,0.1875 0.0586,0.0496 0.13871,0.10217 0.21875,0.125 0.08,0.0228 0.15665,0.0313 0.25,0.0312 0.1253,10e-6 0.23972,-0.006 0.34375,-0.0312 0.10397,-0.0253 0.2205,-0.0783 0.3125,-0.125 0.092,-0.0466 0.16601,-0.0896 0.25,-0.15625 0.084,-0.0666 0.17001,-0.13341 0.25,-0.21875 l 0,-0.84375 z"
       id="rect4622"
       inkscape:connector-curvature="0" />
    <path
       d="m 677.00106,449.9905 c 5.11771,10.7111 14.74157,19.1783 27.13354,22.3842 12.39197,3.2058 24.91757,0.4662 34.58461,-6.4177 l 13.39942,-51.79479 c -5.11594,-10.70821 -14.74156,-19.17837 -27.13353,-22.3842 -12.39043,-3.20543 -24.90728,-0.49631 -34.57679,6.38739 l -13.40725,51.8251 z"
       id="path3176"
       inkscape:connector-curvature="0"
       style="fill:#000000;fill-opacity:0.39215686;display:inline;filter:url(#filter4654);enable-background:new" />
    <path
       inkscape:connector-curvature="0"
       style="fill:#cc0000;fill-opacity:0.39215686;display:inline;filter:url(#filter4654);enable-background:new"
       d="m 697.40975,427.6234 c -2.4506,9.4727 3.24353,19.1412 12.71624,21.5918 9.47271,2.4506 19.14118,-3.2435 21.59179,-12.7162 2.45061,-9.4727 -3.24352,-19.1412 -12.71624,-21.59181 -9.47272,-2.45061 -19.14118,3.24352 -21.59179,12.71621 z m 4.97458,30.3056 c -0.73519,2.8418 0.97081,5.7385 3.81263,6.4737 2.84181,0.7352 5.73854,-0.9708 6.47373,-3.8126 0.73518,-2.8418 -0.97082,-5.7386 -3.81263,-6.4737 -2.84182,-0.7352 -5.73855,0.9708 -6.47373,3.8126 z m 14.06469,-54.36644 c -0.73518,2.84182 0.97082,5.73855 3.81263,6.47373 2.84181,0.73519 5.73855,-0.97081 6.47373,-3.81263 0.73518,-2.84181 -0.97082,-5.73854 -3.81263,-6.47373 -2.84182,-0.73518 -5.73855,0.97082 -6.47373,3.81263 z"
       id="path3178" />
  </g>
  <g
     inkscape:groupmode="layer"
     id="layer3"
     inkscape:label="stuff"
     style="display:inline"
     transform="translate(390.77735,87.879556)">
    <path
       style="opacity:0.75739644;color:#000000;fill:#000000;fill-opacity:0.29804131;fill-rule:nonzero;stroke:none;stroke-width:0.99921262;marker:none;visibility:visible;display:inline;overflow:visible;enable-background:accumulate"
       d="m -157.90235,250.52669 0,10.625 0,10.625 0,4.875 c -3.23039,-1.44 -8.37717,-0.77055 -9.40625,-3.15625 -1.345,-3.1181 5.13521,-3.9096 4.71875,-4.875 -0.41647,-0.9655 -12.34157,0.4877 -9.34375,7.4375 1.76989,4.10305 8.01476,6.40396 12.3125,6.34375 0.61396,-0.009 1.20373,-0.0817 1.71875,-0.1875 l 0,0.1875 0,10.625 0,6.1875 0,0.0312 0,10.59375 0,35.4375 0,10.625 -10.28125,0 -85.03125,0.0312 0,-10.625 0,-35.4375 0,-10.625 0,-6.21875 -30.5625,0 9.25,35.6875 c -0.37338,3.1216 -3.88926,13.3085 -9.71875,14.875 -5.82949,1.5665 -10.12424,2.64875 -15.1875,3.96875 5.37847,-4.0592 9.63728,-9.35215 12.5,-15.34375 l -13.40625,-51.84375 c -9.66951,-6.8837 -22.20332,-9.5805 -34.59375,-6.375 -12.39197,3.2058 -22.00906,11.6667 -27.125,22.375 l -2.78125,0.6875 0.84375,3.4375 2.8125,-0.6875 11.65625,44.9375 -3.40625,0.84375 0.84375,3.4375 3.4375,-0.84375 c 5.18252,3.6904 11.19789,6.1567 17.5625,7.1875 l -27.5,0 c -4.02352,-3.2701 -7.54587,-7.12455 -10.46875,-11.40625 l -0.0312,0 c -10.02919,0 -18.15625,-8.12715 -18.15625,-18.15625 0,-6.7648 3.70285,-12.65755 9.1875,-15.78125 1.25182,-15.6543 9.3749,-29.3659 21.375,-38.25 l -19.9375,0 0,10.625 -10.625,0 0,-10.625 0,-10.625 0,-10.625 10.625,0 0,10.625 10.625,0 0,-10.625 21.25,0 0,10.625 10.625,0 0,-10.625 21.25,0 0,10.625 10.625,0 0,-10.625 27.46875,0 0,10.625 4.21875,0 c 0.72623,1.5445 1.72714,4.8621 3.03125,5.6875 6.39537,4.0478 9.7009,-7.5002 8.8125,-8.0625 -0.64593,-0.4088 -3.39105,5.7584 -5.4375,3.875 l 0,-12.125 21.25,0 0,10.625 10.625,0 0,-10.625 21.25,0 0,10.625 10.625,0 0,-10.625 21.25,0 0,10.625 10.625,0 0,-10.625 10.625,0 z m -77.25,19.625 -2.84375,0 0,0.71875 c 0,0.1718 0.0837,0.2795 0.25,0.3125 0.0998,0.0222 0.48202,0.0822 1.125,0.1875 l 0,9.8125 -0.96875,0.1875 c -0.1663,0.0333 -0.25,0.1407 -0.25,0.3125 l 0,0.71875 3.875,0 0,-0.71875 c 0,-0.1718 -0.0837,-0.2795 -0.25,-0.3125 -0.061,-0.0166 -0.2864,-0.0732 -0.71875,-0.15625 l -0.21875,-0.0312 0,-4.96875 c 0.69841,-0.7815 1.46088,-1.1875 2.28125,-1.1875 1.18065,0 1.78124,0.6586 1.78125,2 l 0,5.375 2.65625,0 0,-0.71875 c -10e-6,-0.1719 -0.0837,-0.2795 -0.25,-0.3125 -0.0998,-0.0222 -0.40538,-0.0822 -0.9375,-0.1875 l 0,-4.15625 c -10e-6,-0.9755 -0.23652,-1.7416 -0.71875,-2.3125 -0.48779,-0.582 -1.18471,-0.875 -2.09375,-0.875 -1.01437,0 -1.92611,0.43865 -2.71875,1.28125 l 0,-4.96875 z m 39.03125,0.1875 c -0.50996,0 -0.99684,0.1031 -1.4375,0.25 -0.44067,0.1469 -0.84661,0.3423 -1.1875,0.625 -0.34089,0.2827 -0.62203,0.644 -0.84375,1.0625 -0.22172,0.4185 -0.3599,0.8943 -0.4375,1.4375 l 0.78125,0.125 c 0.0387,0.005 0.0633,0.0312 0.0937,0.0312 0.0303,0 0.0661,-2e-4 0.0937,0 0.13857,1e-4 0.25505,-0.053 0.34375,-0.125 0.0887,-0.072 0.1432,-0.18305 0.1875,-0.34375 0.0665,-0.255 0.17947,-0.49975 0.3125,-0.71875 0.13303,-0.2189 0.30322,-0.4045 0.5,-0.5625 0.19677,-0.1579 0.40127,-0.286 0.65625,-0.375 0.25497,-0.089 0.54443,-0.1249 0.84375,-0.125 0.29932,0 0.586,0.042 0.84375,0.125 0.25774,0.0832 0.46778,0.2087 0.65625,0.375 0.18846,0.1663 0.32941,0.37 0.4375,0.625 0.10805,0.255 0.15624,0.56255 0.15625,0.90625 -10e-6,0.3104 -0.0225,0.58875 -0.125,0.84375 -0.10255,0.255 -0.27275,0.47325 -0.5,0.65625 -0.22727,0.1829 -0.51748,0.3321 -0.875,0.4375 -0.35753,0.10515 -0.80809,0.14625 -1.3125,0.15625 l 0,1.09375 c 0.62081,0 1.13492,0.0455 1.53125,0.15625 0.39632,0.1109 0.713,0.27475 0.9375,0.46875 0.22447,0.194 0.38285,0.4214 0.46875,0.6875 0.0858,0.266 0.12493,0.5535 0.125,0.875 2e-5,0.2605 -0.0509,0.51515 -0.15625,0.78125 -0.10531,0.2661 -0.26088,0.50255 -0.46875,0.71875 -0.20786,0.2161 -0.46807,0.39545 -0.78125,0.53125 -0.31318,0.13585 -0.67803,0.21875 -1.09375,0.21875 -0.41573,0 -0.78258,-0.0656 -1.0625,-0.1875 -0.27993,-0.122 -0.49904,-0.2602 -0.6875,-0.4375 -0.18847,-0.1774 -0.32665,-0.39145 -0.4375,-0.59375 -0.11086,-0.2023 -0.20365,-0.37055 -0.28125,-0.53125 -0.011,-0.028 -0.0514,-0.0687 -0.0625,-0.0937 -0.0109,-0.024 -0.0202,-0.0405 -0.0312,-0.0625 -0.0443,-0.0998 -0.1016,-0.17175 -0.1875,-0.21875 -0.0859,-0.047 -0.17039,-0.0625 -0.28125,-0.0625 -0.1164,0 -0.22735,0.0125 -0.34375,0.0625 l -0.65625,0.28125 c 0.13857,0.4434 0.3317,0.83905 0.53125,1.21875 0.19955,0.3797 0.43959,0.7229 0.75,1 0.3104,0.2772 0.67602,0.49825 1.125,0.65625 0.11225,0.0394 0.25098,0.066 0.375,0.0937 l 2.3125,0 c 0.17051,-0.037 0.34018,-0.0705 0.5,-0.125 0.47946,-0.1635 0.8897,-0.3799 1.25,-0.6875 0.36028,-0.3076 0.63587,-0.6871 0.84375,-1.125 0.20785,-0.4379 0.31249,-0.92005 0.3125,-1.46875 -10e-6,-0.7262 -0.20298,-1.3303 -0.59375,-1.8125 -0.39079,-0.4823 -0.97399,-0.82615 -1.75,-1.03125 0.31594,-0.0942 0.62002,-0.2198 0.875,-0.375 0.25497,-0.1552 0.47609,-0.36925 0.65625,-0.59375 0.18014,-0.2245 0.30925,-0.48465 0.40625,-0.78125 0.0969,-0.2965 0.15618,-0.6231 0.15625,-1 -10e-6,-0.46 -0.10942,-0.8731 -0.28125,-1.25 -0.17183,-0.3769 -0.41111,-0.70275 -0.71875,-0.96875 -0.30764,-0.2661 -0.66695,-0.4809 -1.09375,-0.625 -0.42683,-0.14385 -0.87057,-0.21875 -1.375,-0.21875 z m -13.03125,0 c -0.60973,-10e-5 -1.16369,0.1311 -1.6875,0.375 -0.52381,0.2439 -0.98699,0.6234 -1.375,1.125 -0.38801,0.5016 -0.68453,1.14125 -0.90625,1.90625 -0.22172,0.7649 -0.34375,1.6454 -0.34375,2.6875 0,1.042 0.12203,1.95655 0.34375,2.71875 0.22172,0.7622 0.51824,1.40735 0.90625,1.90625 0.38801,0.4988 0.85119,0.84985 1.375,1.09375 0.2318,0.10793 0.47292,0.1878 0.71875,0.25 l 1.96875,0 c 0.25294,-0.0622 0.48449,-0.14207 0.71875,-0.25 0.52935,-0.2439 0.98698,-0.59495 1.375,-1.09375 0.388,-0.4989 0.68175,-1.14405 0.90625,-1.90625 0.22447,-0.7621 0.34375,-1.67675 0.34375,-2.71875 -10e-6,-1.0421 -0.11927,-1.9226 -0.34375,-2.6875 -0.22448,-0.765 -0.51824,-1.40455 -0.90625,-1.90625 -0.38801,-0.5016 -0.84565,-0.8811 -1.375,-1.125 -0.52936,-0.2439 -1.11457,-0.375 -1.71875,-0.375 z m -38.28125,0.15625 -4.15625,0 0,0.71875 c 0,0.1718 0.0837,0.24825 0.25,0.28125 0.0998,0.0222 0.4563,0.11335 1.09375,0.21875 l 0,6.59375 c 0,1.9123 -0.74585,2.875 -2.28125,2.875 -0.27715,0 -0.52121,-0.0125 -0.6875,-0.0625 -0.16629,-0.05 -0.29816,-0.0937 -0.40625,-0.0937 -0.10809,0 -0.1807,0.056 -0.25,0.125 -0.0693,0.0693 -0.1376,0.45225 -0.1875,1.15625 0.1455,0.0385 0.29369,0.0661 0.4375,0.0937 l 2.3125,0 c 0.17949,-0.0428 0.36624,-0.0874 0.53125,-0.15625 1.43008,-0.5931 2.15624,-1.92335 2.15625,-3.96875 l 0,-6.5625 0.9375,-0.21875 c 0.1663,-0.0333 0.24999,-0.10935 0.25,-0.28125 l 0,-0.71875 z m 38.28125,1.125 c 0.36583,0 0.72437,0.0864 1.0625,0.25 0.33812,0.1635 0.6485,0.40435 0.90625,0.78125 0.25773,0.3769 0.4413,0.882 0.59375,1.5 0.1524,0.618 0.24995,1.37215 0.25,2.28125 -10e-6,0.909 -0.0976,1.6972 -0.25,2.3125 -0.15244,0.6152 -0.33601,1.09185 -0.59375,1.46875 -0.25775,0.3769 -0.56813,0.649 -0.90625,0.8125 -0.33812,0.163 -0.69666,0.25 -1.0625,0.25 -0.36584,0 -0.72438,-0.0865 -1.0625,-0.25 -0.33813,-0.1635 -0.62002,-0.4356 -0.875,-0.8125 -0.25498,-0.3769 -0.47257,-0.85355 -0.625,-1.46875 -0.15245,-0.6153 -0.21875,-1.4035 -0.21875,-2.3125 0,-0.9091 0.0663,-1.66315 0.21875,-2.28125 0.15243,-0.618 0.37002,-1.1231 0.625,-1.5 0.25498,-0.3769 0.53687,-0.61775 0.875,-0.78125 0.33811,-0.163 0.69666,-0.2499 1.0625,-0.25 z m -12.90625,2.21875 c -1.04208,0 -1.99214,0.4715 -2.8125,1.375 l -0.0937,-0.9375 c -0.0554,-0.2051 -0.19562,-0.3125 -0.40625,-0.3125 l -0.875,0 -1.21875,0 0,0.71875 c 0,0.1718 0.0837,0.2795 0.25,0.3125 0.0998,0.0221 0.43662,0.0821 0.96875,0.1875 l 0,6 -0.96875,0.1875 c -0.1663,0.0332 -0.25,0.1406 -0.25,0.3125 l 0,0.71875 3.90625,0 0,-0.71875 c 1e-5,-0.1719 -0.1094,-0.2795 -0.28125,-0.3125 -0.5931,-0.1215 -0.8987,-0.1775 -0.9375,-0.1875 l 0,-4.96875 c 0.69841,-0.7815 1.46088,-1.1875 2.28125,-1.1875 1.18065,0 1.78124,0.6586 1.78125,2 l 0,5.375 2.6875,0 0,-0.71875 c -10e-6,-0.1719 -0.10943,-0.2795 -0.28125,-0.3125 -0.0942,-0.0222 -0.39984,-0.0822 -0.9375,-0.1875 l 0,-4.15625 c 1e-5,-0.9756 -0.24205,-1.7471 -0.71875,-2.3125 -0.49333,-0.5875 -1.18471,-0.875 -2.09375,-0.875 z m -20.71875,0 c -0.61527,0 -1.16016,0.1074 -1.65625,0.3125 -0.4961,0.2051 -0.93205,0.4981 -1.28125,0.875 -0.34921,0.3769 -0.62404,0.8401 -0.8125,1.375 -0.18845,0.5349 -0.28125,1.12155 -0.28125,1.78125 0,0.6651 0.0928,1.2803 0.28125,1.8125 0.18846,0.5321 0.46329,0.96685 0.8125,1.34375 0.3492,0.3769 0.78515,0.6727 1.28125,0.875 0.18828,0.0768 0.39023,0.1382 0.59375,0.1875 l 2.125,0 c 0.20352,-0.0493 0.40546,-0.1107 0.59375,-0.1875 0.49609,-0.2023 0.9348,-0.4981 1.28125,-0.875 0.34643,-0.3769 0.59555,-0.81165 0.78125,-1.34375 0.18565,-0.5322 0.28124,-1.1474 0.28125,-1.8125 2e-5,-0.6596 -0.0955,-1.24635 -0.28125,-1.78125 -0.1857,-0.5349 -0.43482,-0.9981 -0.78125,-1.375 -0.34644,-0.3769 -0.78516,-0.6699 -1.28125,-0.875 -0.4961,-0.2051 -1.04098,-0.3125 -1.65625,-0.3125 z m 0,1.15625 c 0.83144,0 1.46481,0.28395 1.875,0.84375 0.41017,0.5598 0.59373,1.34045 0.59375,2.34375 -10e-6,0.9977 -0.18358,1.78665 -0.59375,2.34375 -0.41018,0.5571 -1.04356,0.84375 -1.875,0.84375 -0.42127,0 -0.78335,-0.0746 -1.09375,-0.21875 -0.31041,-0.1441 -0.57339,-0.3562 -0.78125,-0.625 -0.20786,-0.2688 -0.3662,-0.6064 -0.46875,-1 -0.10255,-0.3935 -0.15624,-0.84495 -0.15625,-1.34375 0,-0.4989 0.0537,-0.94745 0.15625,-1.34375 0.10254,-0.3963 0.26088,-0.7284 0.46875,-1 0.20786,-0.2716 0.47084,-0.4809 0.78125,-0.625 0.3104,-0.14375 0.67248,-0.21875 1.09375,-0.21875 z m 40.3125,5.4375 c -0.14412,0 -0.27877,0.0389 -0.40625,0.0937 -0.12749,0.0554 -0.221,0.12475 -0.3125,0.21875 -0.0915,0.0942 -0.16605,0.21625 -0.21875,0.34375 -0.0524,0.1274 -0.0938,0.26215 -0.0937,0.40625 0,0.1497 0.0411,0.28145 0.0937,0.40625 0.0527,0.1247 0.12725,0.2185 0.21875,0.3125 0.081,0.0835 0.1748,0.1368 0.28125,0.1875 l 0.90625,0 c 0.10366,-0.0492 0.20315,-0.1095 0.28125,-0.1875 0.0942,-0.0943 0.16605,-0.1878 0.21875,-0.3125 0.0525,-0.1248 0.0625,-0.25655 0.0625,-0.40625 0,-0.1441 -0.01,-0.27885 -0.0625,-0.40625 -0.0527,-0.1275 -0.12455,-0.24975 -0.21875,-0.34375 -0.0942,-0.0942 -0.21626,-0.16375 -0.34375,-0.21875 -0.12749,-0.0559 -0.26214,-0.0937 -0.40625,-0.0937 z m 34.28125,29.4375 -63.78125,0 -10.625,0 0,35.4375 74.40625,0 0,-35.4375 z m -200.90625,8.40625 c -4.15845,0 -7.53125,3.37275 -7.53125,7.53125 0,4.1584 3.3728,7.53125 7.53125,7.53125 4.15844,0 7.53125,-3.37285 7.53125,-7.53125 0,-4.1585 -3.37281,-7.53125 -7.53125,-7.53125 z"
       id="path4536"
       inkscape:connector-curvature="0" />
    <path
       style="opacity:0.75739643999999995;color:#000000;fill:#000000;fill-opacity:0.29804131;fill-rule:nonzero;stroke:none;stroke-width:0.99921262000000000;marker:none;visibility:visible;display:inline;overflow:visible;enable-background:accumulate"
       d="M 184.625 553.71875 L 184.625 564.34375 L 205.90625 564.34375 L 205.90625 574.96875 L 216.53125 574.96875 L 216.53125 564.34375 L 227.15625 564.34375 L 227.15625 574.96875 L 237.78125 574.96875 L 237.78125 564.34375 L 237.78125 553.71875 L 184.625 553.71875 z "
       transform="translate(-390.77735,-87.879556)"
       id="rect4516" />
    <path
       style="opacity:0.75739643999999995;color:#000000;fill:#000000;fill-opacity:0.29804131;fill-rule:nonzero;stroke:none;stroke-width:0.99921262000000000;marker:none;visibility:visible;display:inline;overflow:visible;enable-background:accumulate"
       d="M 184.96875 577.3125 L 184.96875 587.9375 L 184.96875 598.5625 L 238.125 598.5625 L 238.125 587.9375 L 216.84375 587.9375 L 216.84375 577.3125 L 206.21875 577.3125 L 206.21875 587.9375 L 195.59375 587.9375 L 195.59375 577.3125 L 184.96875 577.3125 z "
       transform="translate(-390.77735,-87.879556)"
       id="rect4514" />
    <g
       id="g4496"
       transform="translate(-120.22324,-1.672404)"
       style="fill:#000000;fill-opacity:0.29804131">
      <path
         style="opacity:0.75739643999999995;color:#000000;fill:#000000;fill-opacity:0.29804131;fill-rule:nonzero;stroke:none;stroke-width:0.99921262000000000;marker:none;visibility:visible;display:inline;overflow:visible;enable-background:accumulate"
         d="m 181.625,261.875 0,17.71875 10.625,0 0,-17.71875 -10.625,0 z"
         transform="translate(-390.77735,-87.879556)"
         id="path4498"
         inkscape:connector-curvature="0" />
      <path
         style="opacity:0.75739643999999995;color:#000000;fill:#000000;fill-opacity:0.29804131;fill-rule:nonzero;stroke:none;stroke-width:0.99921262000000000;marker:none;visibility:visible;display:inline;overflow:visible;enable-background:accumulate"
         d="m 186.9375,231.75 c -21.52606,0 -39,17.44269 -39,38.96875 0,21.52606 17.47394,38.96875 39,38.96875 21.52606,0 38.96875,-17.44269 38.96875,-38.96875 0,-21.52606 -17.44269,-38.96875 -38.96875,-38.96875 z m 0,21.25 c 9.78457,0 17.71875,7.93418 17.71875,17.71875 0,9.78457 -7.93418,17.71875 -17.71875,17.71875 -9.78457,0 -17.71875,-7.93418 -17.71875,-17.71875 0,-9.78457 7.93418,-17.71875 17.71875,-17.71875 z"
         transform="translate(-390.77735,-87.879556)"
         id="path4500"
         inkscape:connector-curvature="0" />
    </g>
    <path
       style="opacity:0.75739643999999995;color:#000000;fill:#000000;fill-opacity:0.29804131;fill-rule:nonzero;stroke:none;stroke-width:0.99921262000000000;marker:none;visibility:visible;display:inline;overflow:visible;enable-background:accumulate"
       d="M 10.8125 552.09375 L 10.8125 562.71875 L 10.8125 594.625 L 10.8125 605.25 L 21.4375 605.25 L 21.4375 594.625 L 32.0625 594.625 L 82.8125 594.625 L 85.21875 594.625 L 106.46875 594.625 L 108.875 594.625 L 159.625 594.625 L 170.25 594.625 L 170.25 605.25 L 180.875 605.25 L 180.875 594.625 L 180.875 562.71875 L 180.875 552.09375 L 170.25 552.09375 L 170.25 562.71875 L 149.3125 562.71875 L 146.21875 568.0625 L 140.90625 577.25 L 131.65625 571.9375 L 136.96875 562.75 L 137 562.71875 L 108.875 562.71875 L 108.875 562.75 L 106.5 562.75 L 106.5 573.375 L 95.84375 573.375 L 95.84375 562.75 L 85.21875 562.75 L 82.8125 562.75 L 82.8125 562.71875 L 21.4375 562.71875 L 21.4375 552.09375 L 10.8125 552.09375 z M 48 571.15625 C 52.15844 571.15625 55.53125 574.4978 55.53125 578.65625 C 55.53125 582.81469 52.15844 586.1875 48 586.1875 C 43.84156 586.1875 40.46875 582.81469 40.46875 578.65625 C 40.46875 574.4978 43.84156 571.15625 48 571.15625 z M 21.4375 573.34375 L 32.0625 573.34375 L 32.0625 584 L 21.4375 584 L 21.4375 573.34375 z M 159.625 573.34375 L 170.25 573.34375 L 170.25 584 L 159.625 584 L 159.625 573.34375 z "
       transform="translate(-390.77735,-87.879556)"
       id="rect4420" />
    <path
       style="opacity:0.75739644;color:#000000;fill:#000000;fill-opacity:0.29804131;fill-rule:nonzero;stroke:none;stroke-width:0.99921262;marker:none;visibility:visible;display:inline;overflow:visible;enable-background:accumulate"
       d="m -263.0586,304.77669 0,23.03125 2.65625,0 0,-2.46875 2.65625,0 0,2.46875 1.79193,0 0,7.09375 -1.79193,0 0,2.46875 -2.65625,0 0,-2.46875 -2.65625,0 0,23 -10.65625,0 0,-53.125 z"
       id="rect4426"
       inkscape:connector-curvature="0"
       sodipodi:nodetypes="ccccccccccccccccc" />
    <path
       style="opacity:0.75739644;color:#000000;fill:#000000;fill-opacity:0.29804131;fill-rule:nonzero;stroke:none;stroke-width:0.99921262;marker:none;visibility:visible;display:inline;overflow:visible;enable-background:accumulate"
       d="m -174.1836,312.30794 0,10.65625 5.59375,0 0,10.625 -5.59375,0 0,10.625 -10.65625,0 0,-10.625 -10.625,0 0,3.53125 -11.34159,0 0,-5.3125 2.65625,0 0,2.46875 0.875,0 1.78125,0 0,-2.46875 1.8125,0 0,-7.09375 -1.8125,0 0,-2.46875 -1.78125,0 -0.875,0 0,2.46875 -2.65625,0 0,-5.3125 11.34159,0 0,3.5625 10.625,0 0,-10.65625 z"
       id="rect4428"
       inkscape:connector-curvature="0"
       sodipodi:nodetypes="ccccccccccccccccccccccccccccccc" />
    <path
       style="opacity:0.75739644;color:#000000;fill:#000000;fill-opacity:0.29804131;fill-rule:nonzero;stroke:none;stroke-width:0.99921262;marker:none;visibility:visible;display:inline;overflow:visible;enable-background:accumulate"
       d="m 136.1875,466.84375 0,5.59375 -10.65625,0 0,10.65625 10.65625,0 0,10.625 -3.5625,0 -1.2e-4,11.31149 5.3125,0 0,-2.65625 -2.46875,0 0,-0.875 0,-1.78125 2.46875,0 0,-1.78125 7.09375,0 0,1.78125 2.46875,0 0,1.78125 0,0.875 -2.46875,0 0,2.65625 5.3125,0 1.2e-4,-11.31149 -3.53125,0 0,-10.625 10.625,0 0,-10.65625 -10.625,0 0,-5.59375 z"
       transform="translate(-390.77735,-87.879556)"
       id="rect4430"
       inkscape:connector-curvature="0"
       sodipodi:nodetypes="ccccccccccccccccccccccccccccccc" />
    <path
       style="opacity:0.75739644;color:#000000;fill:#000000;fill-opacity:0.29804131;fill-rule:nonzero;stroke:none;stroke-width:0.99921262;marker:none;visibility:visible;display:inline;overflow:visible;enable-background:accumulate"
       d="m 166.09375,445.25 0,46.03125 -10.625,0 0,10.625 0,6.21875 -41.1875,0 9.25,-35.6875 c -0.37338,-3.1216 -3.88926,-13.3085 -9.71875,-14.875 -5.82949,-1.5665 -10.12423,-2.64875 -15.1875,-3.96875 5.37847,4.0592 9.63728,9.35215 12.5,15.34375 l -13.40625,51.84375 c -9.66951,6.8837 -22.20332,9.5805 -34.59375,6.375 -12.39197,-3.2058 -22.00905,-11.6667 -27.125,-22.375 l -2.78125,-0.6875 0.84375,-3.4375 2.8125,0.6875 11.65625,-44.9375 -3.40625,-0.84375 0.84375,-3.4375 3.4375,0.84375 c 5.18252,-3.6904 11.19789,-6.1567 17.5625,-7.1875 l -27.5,0 C 35.44523,449.05135 31.92289,452.9058 29,457.1875 l -0.03125,0 c -10.02918,0 -18.15625,8.12715 -18.15625,18.15625 0,6.7648 3.70285,12.65755 9.1875,15.78125 1.25182,15.6543 9.37491,29.3659 21.375,38.25 l -19.9375,0 0,-10.625 -10.625,0 0,10.625 0,10.625 0,10.625 10.625,0 0,-10.625 10.625,0 0,10.625 21.25,0 0,-10.625 10.625,0 0,10.625 21.25,0 0,-10.625 10.625,0 0,10.625 27.46875,0 0,-10.625 4.21875,0 c 0.72623,-1.5445 1.72714,-4.8621 3.03125,-5.6875 6.39537,-4.0478 9.7009,7.5002 8.8125,8.0625 -0.64593,0.4088 -3.39105,-5.7584 -5.4375,-3.875 0,4.04167 0,8.08333 0,12.125 l 21.25,0 0,-10.625 10.625,0 0,10.625 21.25,0 0,-10.625 10.625,0 0,10.625 21.25,0 0,-10.625 10.625,0 0,10.625 10.625,0 0,-10.625 0,-10.625 0,-4.875 c -3.23038,1.44 -8.37716,0.77055 -9.40625,3.15625 -1.34499,3.1181 5.13522,3.9096 4.71875,4.875 -0.41647,0.9655 -12.34156,-0.4877 -9.34375,-7.4375 2.02274,-4.6892 9.91107,-7.00285 14.03125,-6.15625 l 0,-0.1875 0,-10.625 -52.8125,0 0,-6.21875 0,-10.625 -10.625,0 0,-46.03125 z m -137.125,22.5625 c 4.15844,0 7.53125,3.37285 7.53125,7.53125 0,4.1585 -3.37281,7.53125 -7.53125,7.53125 -4.15845,0 -7.53125,-3.37275 -7.53125,-7.53125 0,-4.1584 3.3728,-7.53125 7.53125,-7.53125 z m 119,50.8125 c 0.63191,0 1.17602,0.0611 1.625,0.21875 0.44898,0.158 0.81461,0.37905 1.125,0.65625 0.31042,0.2771 0.55046,0.6203 0.75,1 0.19956,0.3797 0.39269,0.77535 0.53125,1.21875 L 151.34375,522 c -0.1164,0.05 -0.22735,0.0625 -0.34375,0.0625 -0.11086,0 -0.19533,-0.0155 -0.28125,-0.0625 -0.0859,-0.047 -0.14315,-0.11895 -0.1875,-0.21875 -0.0111,-0.022 -0.0204,-0.0385 -0.0312,-0.0625 -0.0111,-0.025 -0.0515,-0.0657 -0.0625,-0.0937 -0.0776,-0.1607 -0.17039,-0.32895 -0.28125,-0.53125 -0.11084,-0.2023 -0.24902,-0.41635 -0.4375,-0.59375 -0.18845,-0.1773 -0.40756,-0.3155 -0.6875,-0.4375 -0.27991,-0.1219 -0.64676,-0.1875 -1.0625,-0.1875 -0.41571,0 -0.78057,0.0829 -1.09375,0.21875 -0.31318,0.1358 -0.57338,0.31515 -0.78125,0.53125 -0.20786,0.2162 -0.36343,0.45265 -0.46875,0.71875 -0.10533,0.2661 -0.15626,0.52075 -0.15625,0.78125 8e-5,0.3215 0.0392,0.609 0.125,0.875 0.0859,0.2661 0.24428,0.4935 0.46875,0.6875 0.22451,0.194 0.54119,0.35785 0.9375,0.46875 0.39634,0.1108 0.91044,0.15625 1.53125,0.15625 l 0,1.09375 c -0.50441,0.01 -0.95497,0.0511 -1.3125,0.15625 -0.35751,0.10539 -0.64772,0.2546 -0.875,0.4375 -0.22724,0.183 -0.39744,0.40125 -0.5,0.65625 -0.10254,0.255 -0.12498,0.53335 -0.125,0.84375 2e-5,0.3437 0.0482,0.65125 0.15625,0.90625 0.1081,0.255 0.24905,0.4587 0.4375,0.625 0.18848,0.1663 0.39851,0.2918 0.65625,0.375 0.25775,0.083 0.54444,0.125 0.84375,0.125 0.29932,-10e-5 0.58879,-0.036 0.84375,-0.125 0.25499,-0.089 0.45949,-0.2171 0.65625,-0.375 0.19678,-0.158 0.36698,-0.3436 0.5,-0.5625 0.13303,-0.219 0.24599,-0.46375 0.3125,-0.71875 0.0443,-0.1607 0.0988,-0.27175 0.1875,-0.34375 0.0887,-0.072 0.20519,-0.1251 0.34375,-0.125 0.0277,2e-4 0.0634,0 0.0937,0 0.0305,0 0.055,0.0263 0.0937,0.0312 l 0.78125,0.125 c -0.0776,0.5432 -0.21578,1.019 -0.4375,1.4375 -0.22173,0.4185 -0.50286,0.7798 -0.84375,1.0625 -0.34089,0.2827 -0.74683,0.4781 -1.1875,0.625 -0.44066,0.1469 -0.92754,0.25 -1.4375,0.25 -0.50442,0 -0.94817,-0.0749 -1.375,-0.21875 -0.42679,-0.1441 -0.78611,-0.3589 -1.09375,-0.625 -0.30764,-0.266 -0.54692,-0.59185 -0.71875,-0.96875 -0.17183,-0.3769 -0.28123,-0.79 -0.28125,-1.25 8e-5,-0.3769 0.0593,-0.7035 0.15625,-1 0.097,-0.2966 0.22612,-0.55675 0.40625,-0.78125 0.18016,-0.2245 0.40129,-0.43855 0.65625,-0.59375 0.25499,-0.1552 0.55907,-0.2808 0.875,-0.375 -0.776,-0.2051 -1.3592,-0.54895 -1.75,-1.03125 -0.39076,-0.4822 -0.59373,-1.0863 -0.59375,-1.8125 2e-5,-0.5487 0.10465,-1.03085 0.3125,-1.46875 0.20789,-0.4379 0.48347,-0.8174 0.84375,-1.125 0.36031,-0.3076 0.77055,-0.524 1.25,-0.6875 0.47947,-0.1635 1.01376,-0.25 1.5625,-0.25 z m 6.09375,0 c 0.14413,0 0.27877,0.0408 0.40625,0.0937 0.1275,0.053 0.22105,0.12455 0.3125,0.21875 0.0915,0.094 0.1661,0.1878 0.21875,0.3125 0.0527,0.1248 0.0937,0.25655 0.0937,0.40625 1e-5,0.1441 -0.0412,0.27885 -0.0937,0.40625 -0.0527,0.1275 -0.12728,0.24955 -0.21875,0.34375 -0.0915,0.094 -0.185,0.16335 -0.3125,0.21875 -0.12748,0.055 -0.26212,0.0937 -0.40625,0.0937 -0.1441,0 -0.27875,-0.0377 -0.40625,-0.0937 -0.12748,-0.055 -0.24951,-0.12455 -0.34375,-0.21875 -0.0942,-0.094 -0.16608,-0.21625 -0.21875,-0.34375 -0.0527,-0.1274 -0.0625,-0.26215 -0.0625,-0.40625 0,-0.1497 0.01,-0.28145 0.0625,-0.40625 0.0527,-0.1247 0.12454,-0.21821 0.21875,-0.3125 0.0942,-0.094 0.21627,-0.16605 0.34375,-0.21875 0.1275,-0.053 0.26215,-0.0937 0.40625,-0.0937 z m 40.3125,0 c 0.61527,0 1.16017,0.1102 1.65625,0.3125 0.49611,0.2023 0.93205,0.4981 1.28125,0.875 0.34922,0.3769 0.62405,0.81165 0.8125,1.34375 0.18847,0.5322 0.28125,1.1474 0.28125,1.8125 0,0.6597 -0.0928,1.24635 -0.28125,1.78125 -0.18845,0.5349 -0.46328,0.9981 -0.8125,1.375 -0.3492,0.3769 -0.78514,0.6699 -1.28125,0.875 -0.49608,0.2051 -1.04098,0.3125 -1.65625,0.3125 -0.61527,0 -1.16014,-0.1074 -1.65625,-0.3125 -0.49608,-0.2051 -0.9348,-0.4981 -1.28125,-0.875 -0.34642,-0.3769 -0.59555,-0.8401 -0.78125,-1.375 -0.1857,-0.5349 -0.28126,-1.12165 -0.28125,-1.78125 2e-5,-0.6651 0.0956,-1.2803 0.28125,-1.8125 0.1857,-0.5321 0.43483,-0.96685 0.78125,-1.34375 0.34645,-0.3769 0.78517,-0.6727 1.28125,-0.875 0.49611,-0.2023 1.041,-0.3125 1.65625,-0.3125 z m 9.5625,0 c 0.57094,0 1.13675,0.0641 1.71875,0.21875 -0.0499,0.704 -0.1182,1.08695 -0.1875,1.15625 -0.0693,0.069 -0.1419,0.125 -0.25,0.125 -0.10808,0 -0.23996,-0.0438 -0.40625,-0.0937 -0.16629,-0.05 -0.41035,-0.0625 -0.6875,-0.0625 -1.53539,0 -2.28125,0.9627 -2.28125,2.875 l 0,6.59375 c 0.63746,0.10539 0.99399,0.19655 1.09375,0.21875 0.16629,0.033 0.25,0.10945 0.25,0.28125 l 0,0.71875 -4.15625,0 0,-0.71875 c 2e-5,-0.1719 0.0837,-0.24795 0.25,-0.28125 l 0.9375,-0.21875 0,-6.5625 c 2e-5,-2.0454 0.72618,-3.37565 2.15625,-3.96875 0.46562,-0.194 0.99158,-0.28125 1.5625,-0.28125 z m -44.1875,0.125 1.96875,0 c 0.24584,0.0622 0.48696,0.14207 0.71875,0.25 0.52382,0.2439 0.98699,0.59495 1.375,1.09375 0.38801,0.4989 0.68453,1.14405 0.90625,1.90625 0.22172,0.7622 0.34375,1.67675 0.34375,2.71875 0,1.0421 -0.12203,1.9226 -0.34375,2.6875 -0.22172,0.765 -0.51824,1.40465 -0.90625,1.90625 -0.38801,0.5016 -0.85118,0.8811 -1.375,1.125 -0.5238,0.2439 -1.07776,0.3751 -1.6875,0.375 -0.60417,0 -1.18939,-0.1311 -1.71875,-0.375 -0.52934,-0.2439 -0.98699,-0.6234 -1.375,-1.125 -0.38801,-0.5017 -0.68176,-1.14125 -0.90625,-1.90625 -0.22447,-0.7649 -0.34373,-1.6454 -0.34375,-2.6875 0,-1.042 0.11928,-1.95665 0.34375,-2.71875 0.22451,-0.7622 0.51826,-1.40735 0.90625,-1.90625 0.38803,-0.4988 0.84566,-0.84985 1.375,-1.09375 0.23427,-0.10793 0.46582,-0.18783 0.71875,-0.25 z m 9.875,0 2.6875,0 0,5.375 c 2e-5,1.3414 0.60061,2 1.78125,2 0.82038,0 1.58285,-0.406 2.28125,-1.1875 l 0,-4.96875 c -0.0388,-0.01 -0.34439,-0.066 -0.9375,-0.1875 -0.17184,-0.033 -0.28125,-0.1406 -0.28125,-0.3125 l 0,-0.71875 3.90625,0 0,0.71875 c 0,0.1719 -0.0837,0.2793 -0.25,0.3125 l -0.96875,0.1875 0,6 c 0.53214,0.1054 0.86899,0.1654 0.96875,0.1875 0.16629,0.033 0.25,0.1407 0.25,0.3125 l 0,0.71875 -1.21875,0 -0.875,0 c -0.21062,0 -0.3508,-0.1074 -0.40625,-0.3125 l -0.0937,-0.9375 c -0.82035,0.9035 -1.77041,1.375 -2.8125,1.375 -0.90904,0 -1.60041,-0.2875 -2.09375,-0.875 -0.47669,-0.5654 -0.71875,-1.3369 -0.71875,-2.3125 l 0,-4.15625 c -0.53765,-0.1053 -0.84325,-0.1653 -0.9375,-0.1875 -0.17181,-0.033 -0.28123,-0.1406 -0.28125,-0.3125 z m 10.40625,0 2.65625,0 0,5.375 c 2e-5,1.3414 0.60061,2 1.78125,2 0.82038,0 1.58285,-0.406 2.28125,-1.1875 l 0,-4.96875 -0.21875,-0.0312 c -0.43234,-0.083 -0.65776,-0.13965 -0.71875,-0.15625 -0.16627,-0.033 -0.25,-0.1407 -0.25,-0.3125 l 0,-0.71875 1.78125,0 2.09375,0 0,0.71875 c 0,0.1718 -0.0837,0.2792 -0.25,0.3125 l -0.96875,0.1875 0,9.8125 c 0.64299,0.1053 1.02524,0.1653 1.125,0.1875 0.16629,0.033 0.25,0.1407 0.25,0.3125 l 0,0.71875 -2.84375,0 0,-4.96875 c -0.79264,0.8426 -1.70437,1.28125 -2.71875,1.28125 -0.90904,0 -1.60595,-0.293 -2.09375,-0.875 -0.48222,-0.5709 -0.71873,-1.337 -0.71875,-2.3125 l 0,-4.15625 c -0.53211,-0.1053 -0.83772,-0.1653 -0.9375,-0.1875 -0.16627,-0.033 -0.24998,-0.1406 -0.25,-0.3125 z m 14.34375,1.03125 c -0.83143,0 -1.46481,0.28665 -1.875,0.84375 -0.41017,0.5571 -0.59373,1.34605 -0.59375,2.34375 3e-5,1.0033 0.18358,1.78395 0.59375,2.34375 0.4102,0.5598 1.04357,0.84375 1.875,0.84375 0.42128,0 0.78336,-0.075 1.09375,-0.21875 0.31042,-0.1441 0.5734,-0.3534 0.78125,-0.625 0.20788,-0.2716 0.36622,-0.6037 0.46875,-1 0.10256,-0.3963 0.15625,-0.84485 0.15625,-1.34375 0,-0.4988 -0.0537,-0.95025 -0.15625,-1.34375 -0.10254,-0.3936 -0.26088,-0.7312 -0.46875,-1 -0.20785,-0.2688 -0.47083,-0.4809 -0.78125,-0.625 -0.31039,-0.1441 -0.67247,-0.21875 -1.09375,-0.21875 z m -33.625,0.0937 c -0.36583,0 -0.72438,0.087 -1.0625,0.25 -0.33812,0.1635 -0.6485,0.4356 -0.90625,0.8125 -0.25774,0.3769 -0.4413,0.85355 -0.59375,1.46875 -0.15242,0.6153 -0.24998,1.4035 -0.25,2.3125 5e-5,0.9091 0.0976,1.66325 0.25,2.28125 0.15246,0.618 0.33603,1.1231 0.59375,1.5 0.25775,0.3769 0.56813,0.61775 0.90625,0.78125 0.33814,0.1636 0.69668,0.25 1.0625,0.25 0.36585,-10e-5 0.7244,-0.087 1.0625,-0.25 0.33814,-0.1635 0.62003,-0.40435 0.875,-0.78125 0.25499,-0.3769 0.47258,-0.882 0.625,-1.5 0.15245,-0.6181 0.21875,-1.37215 0.21875,-2.28125 0,-0.909 -0.0663,-1.6972 -0.21875,-2.3125 -0.15242,-0.6152 -0.37001,-1.09185 -0.625,-1.46875 -0.25497,-0.3769 -0.53686,-0.649 -0.875,-0.8125 -0.33812,-0.1635 -0.69665,-0.25 -1.0625,-0.25 z"
       transform="translate(-390.77735,-87.879556)"
       id="rect4432"
       inkscape:connector-curvature="0"
       sodipodi:nodetypes="cccccccscccscccccccccccsscccccccccccccccccccccccscccccccccccccccccccscscccccccccsssssscccccscccccccscccccccccccccccccccccscscccsssccsccccccccccsscccccccscccscccsscccssccsccsccccssccssssccscccccscsccccsscscccccccccccccscccsccsccccsccsccscscccccccsccccscccsccccscccsccccccscccscccscccssccccccccccsssccs" />
    <path
       style="opacity:0.75739643999999995;color:#000000;fill:#000000;fill-opacity:0.29804131;fill-rule:nonzero;stroke:none;stroke-width:0.99921262000000000;marker:none;visibility:visible;display:inline;overflow:visible;enable-background:accumulate"
       d="M 188.03125 486.0625 L 188.03125 496.6875 L 188.03125 507.3125 L 241.1875 507.3125 L 241.1875 496.6875 L 219.90625 496.6875 L 219.90625 486.0625 L 209.28125 486.0625 L 209.28125 496.6875 L 198.65625 496.6875 L 198.65625 486.0625 L 188.03125 486.0625 z "
       transform="translate(-390.77735,-87.879556)"
       id="rect4434" />
    <path
       style="opacity:0.75739644;color:#000000;fill:#000000;fill-opacity:0.29804131;fill-rule:nonzero;stroke:none;stroke-width:0.99921262;marker:none;visibility:visible;display:inline;overflow:visible;enable-background:accumulate"
       d="m 202.9375,445.36446 0,1.79179 -2.46875,0 0,2.6875 2.46875,0 0,2.625 -23.03125,0 0,10.65625 53.125,0 0,-10.65625 -23,0 0,-2.625 2.46875,0 0,-2.6875 -2.46875,0 0,-1.79179 z"
       transform="translate(-390.77735,-87.879556)"
       id="rect4436"
       inkscape:connector-curvature="0"
       sodipodi:nodetypes="ccccccccccccccccc" />
    <path
       style="opacity:0.75739643999999995;color:#000000;fill:#000000;fill-opacity:0.29804131;fill-rule:nonzero;stroke:none;stroke-width:0.99921262000000000;marker:none;visibility:visible;display:inline;overflow:visible;enable-background:accumulate"
       d="M 179.65625 463.9375 L 179.65625 474.5625 L 200.9375 474.5625 L 200.9375 485.1875 L 211.5625 485.1875 L 211.5625 474.5625 L 222.1875 474.5625 L 222.1875 485.1875 L 232.8125 485.1875 L 232.8125 474.5625 L 232.8125 463.9375 L 179.65625 463.9375 z "
       transform="translate(-390.77735,-87.879556)"
       id="rect4438" />
    <path
       style="opacity:0.75739643999999995;color:#000000;fill:#000000;fill-opacity:0.29804131;fill-rule:nonzero;stroke:none;stroke-width:0.99921262000000000;marker:none;visibility:visible;display:inline;overflow:visible;enable-background:accumulate"
       d="M 242.09375 321.78125 L 242.09375 439.59375 L 235.03125 439.59375 L 235 450.21875 C 235.0197 450.21175 235.0428 450.22475 235.0625 450.21875 C 242.97785 450.21875 243.37585 476.67564 235.0625 476.8125 C 235.0409 476.81286 235.0217 476.8125 235 476.8125 L 235.03125 487.4375 L 242.09375 487.4375 L 242.09375 605.25 L 252.75 605.25 L 252.75 487.4375 L 259.8125 487.4375 L 259.84375 476.8125 C 259.82205 476.8125 259.80285 476.81286 259.78125 476.8125 C 251.4679 476.67566 251.86591 450.21875 259.78125 450.21875 C 259.80095 450.22475 259.82405 450.21175 259.84375 450.21875 L 259.8125 439.59375 L 252.75 439.59375 L 252.75 321.78125 L 242.09375 321.78125 z "
       transform="translate(-390.77735,-87.879556)"
       id="rect4440" />
    <path
       style="opacity:0.75739644;color:#000000;fill:#000000;fill-opacity:0.29804131;fill-rule:nonzero;stroke:none;stroke-width:0.99921262;marker:none;visibility:visible;display:inline;overflow:visible;enable-background:accumulate"
       d="m -323.7461,289.46419 0,53.15625 -10.625,0 -10.625,0 0,-10.625 10.625,0 0,-10.625 -10.625,0 0,-10.625 10.625,0 0,-10.65625 -10.625,0 0,-10.625 10.625,0 10.625,0 z"
       id="rect4442"
       inkscape:connector-curvature="0" />
    <path
       style="opacity:0.75739644;color:#000000;fill:#000000;fill-opacity:0.29804131;fill-rule:nonzero;stroke:none;stroke-width:0.99921262;marker:none;visibility:visible;display:inline;overflow:visible;enable-background:accumulate"
       d="m -300.4961,289.46419 0,53.15625 -10.625,0 -10.625,0 0,-10.625 10.625,0 0,-10.625 -10.625,0 0,-10.625 10.625,0 0,-10.65625 -10.625,0 0,-10.625 10.625,0 10.625,0 z"
       id="rect4444"
       inkscape:connector-curvature="0" />
    <g
       id="g4492"
       style="fill:#000000;fill-opacity:0.29804131">
      <path
         id="rect4448"
         transform="translate(-390.77735,-87.879556)"
         d="M 181.625 261.875 L 181.625 279.59375 L 192.25 279.59375 L 192.25 261.875 L 181.625 261.875 z "
         style="opacity:0.75739643999999995;color:#000000;fill:#000000;fill-opacity:0.29804131;fill-rule:nonzero;stroke:none;stroke-width:0.99921262000000000;marker:none;visibility:visible;display:inline;overflow:visible;enable-background:accumulate" />
      <path
         id="rect4450"
         transform="translate(-390.77735,-87.879556)"
         d="M 186.9375 231.75 C 165.41144 231.75 147.9375 249.19269 147.9375 270.71875 C 147.9375 292.24481 165.41144 309.6875 186.9375 309.6875 C 208.46356 309.6875 225.90625 292.24481 225.90625 270.71875 C 225.90625 249.19269 208.46356 231.75 186.9375 231.75 z M 186.9375 253 C 196.72207 253 204.65625 260.93418 204.65625 270.71875 C 204.65625 280.50332 196.72207 288.4375 186.9375 288.4375 C 177.15293 288.4375 169.21875 280.50332 169.21875 270.71875 C 169.21875 260.93418 177.15293 253 186.9375 253 z "
         style="opacity:0.75739643999999995;color:#000000;fill:#000000;fill-opacity:0.29804131;fill-rule:nonzero;stroke:none;stroke-width:0.99921262000000000;marker:none;visibility:visible;display:inline;overflow:visible;enable-background:accumulate" />
    </g>
    <path
       style="opacity:0.75739643999999995;color:#000000;fill:#000000;fill-opacity:0.29804131;fill-rule:nonzero;stroke:none;stroke-width:0.99921262000000000;marker:none;visibility:visible;display:inline;overflow:visible;enable-background:accumulate"
       d="M 14.15625 195.3125 L 14.15625 205.9375 L 14.15625 216.5625 C 10.61057 216.5625 7.07292 215.6639 3.53125 214.5625 L 3.53125 229.1875 C 7.17443 227.92924 10.84639 227.1875 14.15625 227.1875 L 14.15625 294.53125 C 10.68252 294.53125 7.16625 294.17792 3.53125 292.53125 L 3.53125 307.15625 C 6.9475 305.92522 10.50237 305.15625 14.15625 305.15625 L 14.15625 315.78125 L 14.15625 326.40625 L 24.78125 326.40625 C 31.77621 326.40625 77.90625 326.64837 77.90625 337.03125 L 77.96875 337.03125 L 88.53125 337.03125 L 88.59375 337.03125 L 88.59375 326.40625 L 99.15625 326.40625 L 99.15625 337.03125 L 99.21875 337.03125 L 109.78125 337.03125 L 109.84375 337.03125 L 141.6875 337.03125 L 141.75 337.03125 L 152.3125 337.03125 L 152.375 337.03125 L 152.375 326.40625 L 162.9375 326.40625 L 162.9375 337.03125 L 163 337.03125 L 173.5625 337.03125 L 173.625 337.03125 C 173.625 326.64837 219.75504 326.40625 226.75 326.40625 L 237.375 326.40625 L 237.375 315.78125 L 237.375 305.15625 C 240.11541 305.15625 242.79394 305.57689 245.40625 306.3125 C 246.27702 306.5577 247.14594 306.84849 248 307.15625 L 248 292.53125 C 244.365 294.17792 240.84873 294.53125 237.375 294.53125 L 237.375 227.1875 C 239.85739 227.1875 242.55639 227.60431 245.28125 228.34375 C 246.18953 228.59023 247.0892 228.87293 248 229.1875 L 248 214.5625 C 244.45833 215.6639 240.92068 216.5625 237.375 216.5625 L 237.375 205.9375 L 237.375 195.3125 L 226.75 195.3125 L 226.75 205.9375 L 226.75 216.5625 L 216.125 216.5625 L 205.5 216.5625 L 194.875 216.5625 L 194.875 227.1875 L 205.5 227.1875 L 216.125 227.1875 L 226.75 227.1875 L 226.75 315.78125 L 24.78125 315.78125 L 24.78125 227.1875 L 35.40625 227.1875 L 46.03125 227.1875 L 56.65625 227.1875 L 56.65625 216.5625 L 46.03125 216.5625 L 35.40625 216.5625 L 24.78125 216.5625 L 24.78125 205.9375 L 24.78125 195.3125 L 14.15625 195.3125 z "
       transform="translate(-390.77735,-87.879556)"
       id="rect4452" />
    <path
       style="opacity:0.75739643999999995;color:#000000;fill:#000000;fill-opacity:0.29804131;fill-rule:nonzero;stroke:none;stroke-width:0.99921262000000000;marker:none;visibility:visible;display:inline;overflow:visible;enable-background:accumulate"
       d="M 65.0625 136.3125 C 43.53644 136.3125 26.09375 153.75519 26.09375 175.28125 C 26.09375 196.80731 43.53644 214.25 65.0625 214.25 C 86.58857 214.25 104.0625 196.80731 104.0625 175.28125 C 104.0625 153.75519 86.58856 136.3125 65.0625 136.3125 z M 59.75 169.96875 L 70.40625 169.96875 L 70.40625 180.59375 L 59.75 180.59375 L 59.75 169.96875 z "
       transform="translate(-390.77735,-87.879556)"
       id="rect4454" />
    <path
       style="opacity:0.75739643999999995;color:#000000;fill:#000000;fill-opacity:0.29804131;fill-rule:nonzero;stroke:none;stroke-width:0.99921262000000000;marker:none;visibility:visible;display:inline;overflow:visible;enable-background:accumulate"
       d="M 99.84375 142.59375 L 99.84375 153.21875 L 110.46875 153.21875 L 110.46875 174.15625 L 115.8125 177.25 L 125 182.5625 L 119.6875 191.8125 L 110.5 186.5 L 110.46875 186.46875 L 110.46875 214.59375 L 110.5 214.59375 L 110.5 216.96875 L 121.125 216.96875 L 121.125 227.625 L 110.5 227.625 L 110.5 238.25 L 110.5 240.65625 L 110.46875 240.65625 L 110.46875 302.03125 L 99.84375 302.03125 L 99.84375 312.65625 L 110.46875 312.65625 L 142.375 312.65625 L 153 312.65625 L 153 302.03125 L 142.375 302.03125 L 142.375 291.40625 L 142.375 240.65625 L 142.375 238.25 L 142.375 217 L 142.375 214.59375 L 142.375 163.84375 L 142.375 153.21875 L 153 153.21875 L 153 142.59375 L 142.375 142.59375 L 110.46875 142.59375 L 99.84375 142.59375 z M 121.09375 153.21875 L 131.75 153.21875 L 131.75 163.84375 L 121.09375 163.84375 L 121.09375 153.21875 z M 126.40625 267.9375 C 130.56469 267.9375 133.9375 271.31031 133.9375 275.46875 C 133.9375 279.62719 130.56469 283 126.40625 283 C 122.24781 283 118.90625 279.62719 118.90625 275.46875 C 118.90625 271.31031 122.24781 267.9375 126.40625 267.9375 z M 121.09375 291.40625 L 131.75 291.40625 L 131.75 302.03125 L 121.09375 302.03125 L 121.09375 291.40625 z "
       transform="translate(-390.77735,-87.879556)"
       id="rect4456" />
    <path
       style="opacity:0.75739643999999995;color:#000000;fill:#000000;fill-opacity:0.29804131;fill-rule:nonzero;stroke:none;stroke-width:0.99921262000000000;marker:none;visibility:visible;display:inline;overflow:visible;enable-background:accumulate"
       d="M 185.15625 138.875 C 163.63019 138.875 146.1875 156.31769 146.1875 177.84375 C 146.1875 199.36982 163.63019 216.8125 185.15625 216.8125 C 206.68231 216.8125 224.15625 199.36982 224.15625 177.84375 C 224.15625 156.31769 206.68231 138.875 185.15625 138.875 z M 179.84375 172.53125 L 190.5 172.53125 L 190.5 183.15625 L 179.84375 183.15625 L 179.84375 172.53125 z "
       transform="translate(-390.77735,-87.879556)"
       id="rect4458" />
    <path
       style="opacity:0.75739643999999995;color:#000000;fill:#000000;fill-opacity:0.29804131;fill-rule:nonzero;stroke:none;stroke-width:0.99921262000000000;marker:none;visibility:visible;display:inline;overflow:visible;enable-background:accumulate"
       d="M 215.4375 48.9375 L 215.4375 80.84375 C 207.9926 80.84375 204.8125 85.550905 204.8125 91.46875 L 215.4375 91.46875 L 215.4375 102.09375 L 204.8125 102.09375 L 204.8125 112.71875 L 215.4375 112.71875 L 226.0625 112.71875 L 226.0625 48.9375 L 215.4375 48.9375 z "
       transform="translate(-390.77735,-87.879556)"
       id="rect4460" />
    <path
       style="opacity:0.75739643999999995;color:#000000;fill:#000000;fill-opacity:0.29804131;fill-rule:nonzero;stroke:none;stroke-width:0.99921262000000000;marker:none;visibility:visible;display:inline;overflow:visible;enable-background:accumulate"
       d="M 88.3125 71.5 L 86.59375 75.46875 L 86.34375 77.34375 L 86.5625 79.3125 L 82.21875 80.15625 L 81.65625 78.28125 L 80.71875 76.625 L 77.625 73.65625 L 75.25 74.625 L 75.1875 78.90625 L 75.6875 80.75 L 76.625 82.46875 L 72.9375 84.9375 L 71.6875 83.40625 L 70.1875 82.25 L 66.1875 80.6875 L 64.40625 82.46875 L 65.96875 86.46875 L 67.125 87.96875 L 68.65625 89.21875 L 66.1875 92.90625 L 64.46875 91.96875 L 62.625 91.46875 L 58.34375 91.53125 L 57.375 93.90625 L 60.34375 97 L 62 97.9375 L 63.875 98.5 L 63.03125 102.84375 L 61.0625 102.625 L 59.1875 102.875 L 55.21875 104.59375 L 55.21875 107.125 L 59.1875 108.875 L 61.0625 109.09375 L 63.03125 108.875 L 63.875 113.25 L 62 113.78125 L 60.34375 114.75 L 57.375 117.84375 L 58.34375 120.1875 L 62.625 120.28125 L 64.46875 119.78125 L 66.1875 118.8125 L 68.65625 122.53125 L 67.125 123.75 L 65.96875 125.25 L 64.40625 129.25 L 66.1875 131.0625 L 70.1875 129.5 L 71.6875 128.34375 L 72.9375 126.78125 L 76.625 129.25 L 75.6875 131 L 75.1875 132.8125 L 75.25 137.125 L 77.625 138.09375 L 80.71875 135.09375 L 81.65625 133.46875 L 82.21875 131.5625 L 86.5625 132.4375 L 86.34375 134.40625 L 86.59375 136.28125 L 88.3125 140.21875 L 90.84375 140.21875 L 92.59375 136.28125 L 92.8125 134.40625 L 92.59375 132.4375 L 96.96875 131.5625 L 97.5 133.46875 L 98.46875 135.09375 L 101.5625 138.09375 L 103.90625 137.125 L 104 132.8125 L 103.5 131 L 102.53125 129.25 L 106.25 126.78125 L 107.46875 128.34375 L 108.96875 129.5 L 112.96875 131.0625 L 114.78125 129.25 L 113.21875 125.25 L 112.0625 123.75 L 110.5 122.53125 L 112.96875 118.8125 L 114.71875 119.78125 L 116.53125 120.28125 L 120.84375 120.1875 L 121.8125 117.84375 L 118.8125 114.75 L 117.1875 113.78125 L 115.28125 113.25 L 116.15625 108.875 L 118.125 109.09375 L 120 108.875 L 123.9375 107.125 L 123.9375 104.59375 L 120 102.875 L 118.125 102.625 L 116.15625 102.84375 L 115.28125 98.5 L 117.1875 97.9375 L 118.8125 97 L 121.8125 93.90625 L 120.84375 91.53125 L 116.53125 91.46875 L 114.71875 91.96875 L 112.96875 92.90625 L 110.5 89.21875 L 112.0625 87.96875 L 113.21875 86.46875 L 114.78125 82.46875 L 112.96875 80.6875 L 108.96875 82.25 L 107.46875 83.40625 L 106.25 84.9375 L 102.53125 82.46875 L 103.5 80.75 L 104 78.90625 L 103.90625 74.625 L 101.5625 73.65625 L 98.46875 76.625 L 97.5 78.28125 L 96.96875 80.15625 L 92.59375 79.3125 L 92.8125 77.34375 L 92.59375 75.46875 L 90.84375 71.5 L 88.3125 71.5 z M 84.28125 100.5625 L 94.90625 100.5625 L 94.90625 111.1875 L 84.28125 111.1875 L 84.28125 100.5625 z "
       transform="translate(-390.77735,-87.879556)"
       id="rect4462" />
    <path
       style="opacity:0.75739643999999995;color:#000000;fill:#000000;fill-opacity:0.29804131;fill-rule:nonzero;stroke:none;stroke-width:0.99921262000000000;marker:none;visibility:visible;display:inline;overflow:visible;enable-background:accumulate"
       d="M 160.34375 72.78125 L 158.625 76.75 L 158.375 78.625 L 158.59375 80.59375 L 154.25 81.4375 L 153.6875 79.5625 L 152.75 77.90625 L 149.65625 74.9375 L 147.28125 75.90625 L 147.21875 80.1875 L 147.71875 82.03125 L 148.65625 83.75 L 144.96875 86.21875 L 143.71875 84.6875 L 142.21875 83.53125 L 138.21875 81.96875 L 136.4375 83.75 L 138 87.75 L 139.15625 89.25 L 140.6875 90.5 L 138.21875 94.1875 L 136.5 93.25 L 134.65625 92.75 L 130.375 92.8125 L 129.40625 95.1875 L 132.375 98.28125 L 134.03125 99.21875 L 135.90625 99.78125 L 135.0625 104.125 L 133.09375 103.90625 L 131.21875 104.15625 L 127.25 105.875 L 127.25 108.40625 L 131.21875 110.15625 L 133.09375 110.375 L 135.0625 110.15625 L 135.90625 114.53125 L 134.03125 115.0625 L 132.375 116.03125 L 129.40625 119.125 L 130.375 121.46875 L 134.65625 121.5625 L 136.5 121.0625 L 138.21875 120.09375 L 140.6875 123.8125 L 139.15625 125.03125 L 138 126.53125 L 136.4375 130.53125 L 138.21875 132.34375 L 142.21875 130.78125 L 143.71875 129.625 L 144.96875 128.0625 L 148.65625 130.53125 L 147.71875 132.28125 L 147.21875 134.09375 L 147.28125 138.40625 L 149.65625 139.375 L 152.75 136.375 L 153.6875 134.75 L 154.25 132.84375 L 158.59375 133.71875 L 158.375 135.6875 L 158.625 137.5625 L 160.34375 141.5 L 162.875 141.5 L 164.625 137.5625 L 164.84375 135.6875 L 164.625 133.71875 L 169 132.84375 L 169.53125 134.75 L 170.5 136.375 L 173.59375 139.375 L 175.9375 138.40625 L 176.03125 134.09375 L 175.53125 132.28125 L 174.5625 130.53125 L 178.28125 128.0625 L 179.5 129.625 L 181 130.78125 L 185 132.34375 L 186.8125 130.53125 L 185.25 126.53125 L 184.09375 125.03125 L 182.53125 123.8125 L 185 120.09375 L 186.75 121.0625 L 188.5625 121.5625 L 192.875 121.46875 L 193.84375 119.125 L 190.84375 116.03125 L 189.21875 115.0625 L 187.3125 114.53125 L 188.1875 110.15625 L 190.15625 110.375 L 192.03125 110.15625 L 195.96875 108.40625 L 195.96875 105.875 L 192.03125 104.15625 L 190.15625 103.90625 L 188.1875 104.125 L 187.3125 99.78125 L 189.21875 99.21875 L 190.84375 98.28125 L 193.84375 95.1875 L 192.875 92.8125 L 188.5625 92.75 L 186.75 93.25 L 185 94.1875 L 182.53125 90.5 L 184.09375 89.25 L 185.25 87.75 L 186.8125 83.75 L 185 81.96875 L 181 83.53125 L 179.5 84.6875 L 178.28125 86.21875 L 174.5625 83.75 L 175.53125 82.03125 L 176.03125 80.1875 L 175.9375 75.90625 L 173.59375 74.9375 L 170.5 77.90625 L 169.53125 79.5625 L 169 81.4375 L 164.625 80.59375 L 164.84375 78.625 L 164.625 76.75 L 162.875 72.78125 L 160.34375 72.78125 z M 156.3125 101.84375 L 166.9375 101.84375 L 166.9375 112.46875 L 156.3125 112.46875 L 156.3125 101.84375 z "
       transform="translate(-390.77735,-87.879556)"
       id="rect4464" />
    <path
       style="opacity:0.75739643999999995;color:#000000;fill:#000000;fill-opacity:0.29804131;fill-rule:nonzero;stroke:none;stroke-width:0.99921262000000000;marker:none;visibility:visible;display:inline;overflow:visible;enable-background:accumulate"
       d="M 69.34375 49.09375 C 69.34375 59.70166 26.8125 60.45407 26.8125 70.34375 L 26.8125 81 L 37.4375 81 L 37.4375 70.34375 L 196.90625 70.34375 L 196.90625 81 L 207.53125 81 L 207.53125 70.34375 C 207.53125 60.45407 165 59.70166 165 49.09375 L 154.375 49.09375 L 154.375 59.71875 L 143.75 59.71875 L 143.75 49.09375 L 90.59375 49.09375 L 90.59375 59.71875 L 79.96875 59.71875 L 79.96875 49.09375 L 69.34375 49.09375 z "
       transform="translate(-390.77735,-87.879556)"
       id="rect4466" />
    <path
       style="opacity:0.75739643999999995;color:#000000;fill:#000000;fill-opacity:0.29804131;fill-rule:nonzero;stroke:none;stroke-width:0.99921262000000000;marker:none;visibility:visible;display:inline;overflow:visible;enable-background:accumulate"
       d="M 27.03125 37.28125 L 27.03125 47.90625 L 221.90625 47.90625 L 221.90625 37.28125 L 27.03125 37.28125 z "
       transform="translate(-390.77735,-87.879556)"
       id="rect4468" />
    <path
       style="opacity:0.75739643999999995;color:#000000;fill:#000000;fill-opacity:0.29804131;fill-rule:nonzero;stroke:none;stroke-width:0.99921262000000000;marker:none;visibility:visible;display:inline;overflow:visible;enable-background:accumulate"
       d="M 27.46875 25.75 L 27.46875 36.40625 L 222.34375 36.40625 L 222.34375 25.75 L 27.46875 25.75 z "
       transform="translate(-390.77735,-87.879556)"
       id="rect4470" />
    <path
       style="opacity:0.75739643999999995;color:#000000;fill:#000000;fill-opacity:0.29804131;fill-rule:nonzero;stroke:none;stroke-width:0.99921262000000000;marker:none;visibility:visible;display:inline;overflow:visible;enable-background:accumulate"
       d="M 248.84375 20.875 L 248.84375 90.53125 L 248.84375 126.46875 C 241.39885 126.46875 238.21875 127.1759 238.21875 133.09375 L 248.84375 133.09375 L 248.84375 143.71875 L 238.21875 143.71875 L 238.21875 154.34375 L 238.21875 186.25 L 238.21875 196.875 L 248.84375 196.875 L 248.84375 207.5 L 238.21875 207.5 C 238.21875 213.41785 241.39885 214.125 248.84375 214.125 L 248.84375 250.03125 L 248.84375 319.75 L 259.46875 319.75 L 259.46875 250.03125 L 259.46875 186.25 L 259.46875 154.34375 L 259.46875 90.53125 L 259.46875 20.875 L 248.84375 20.875 z "
       transform="translate(-390.77735,-87.879556)"
       id="rect4472" />
    <path
       style="opacity:0.75739643999999995;color:#000000;fill:#000000;fill-opacity:0.29804131;fill-rule:nonzero;stroke:none;stroke-width:0.99921262000000000;marker:none;visibility:visible;display:inline;overflow:visible;enable-background:accumulate"
       d="M 77.90625 3.53125 C 77.90625 13.91413 31.77621 14.15625 24.78125 14.15625 L 14.15625 14.15625 L 14.15625 24.78125 L 14.15625 35.40625 C 10.50237 35.40625 6.9475 34.63728 3.53125 33.40625 L 3.53125 48.03125 C 7.16625 46.38458 10.68252 46.03125 14.15625 46.03125 L 14.15625 113.375 C 10.84639 113.375 7.17443 112.63326 3.53125 111.375 L 3.53125 126 C 7.07292 124.8986 10.61057 124 14.15625 124 L 14.15625 134.625 L 14.15625 145.25 L 24.78125 145.25 L 24.78125 134.625 L 24.78125 124 L 35.40625 124 L 46.03125 124 L 56.65625 124 L 56.65625 113.375 L 46.03125 113.375 L 35.40625 113.375 L 24.78125 113.375 L 24.78125 24.78125 L 226.75 24.78125 L 226.75 113.375 L 216.125 113.375 L 205.5 113.375 L 194.875 113.375 L 194.875 124 L 205.5 124 L 216.125 124 L 226.75 124 L 226.75 134.625 L 226.75 145.25 L 237.375 145.25 L 237.375 134.625 L 237.375 124 C 240.92068 124 244.45833 124.8986 248 126 L 248 111.375 C 247.0892 111.68957 246.18953 111.97227 245.28125 112.21875 C 242.55639 112.95819 239.85739 113.375 237.375 113.375 L 237.375 46.03125 C 240.84873 46.03125 244.365 46.38458 248 48.03125 L 248 33.40625 C 247.14594 33.71401 246.27702 34.0048 245.40625 34.25 C 242.79394 34.98561 240.11541 35.40625 237.375 35.40625 L 237.375 24.78125 L 237.375 14.15625 L 226.75 14.15625 C 219.75504 14.15625 173.625 13.91413 173.625 3.53125 L 173.5625 3.53125 L 163 3.53125 L 162.9375 3.53125 L 162.9375 14.15625 L 152.375 14.15625 L 152.375 3.53125 L 152.3125 3.53125 L 141.75 3.53125 L 141.6875 3.53125 L 109.84375 3.53125 L 109.78125 3.53125 L 99.21875 3.53125 L 99.15625 3.53125 L 99.15625 14.15625 L 88.59375 14.15625 L 88.59375 3.53125 L 88.53125 3.53125 L 77.96875 3.53125 L 77.90625 3.53125 z "
       transform="translate(-390.77735,-87.879556)"
       id="rect4474" />
    <g
       inkscape:label="Gear8"
       transform="matrix(-0.92387953,-0.38268343,0.38268343,-0.92387953,-214.86166,290.5098)"
       id="g3400"
       style="fill:#000000;fill-opacity:0.29804131;stroke:none;display:inline;filter:url(#filter3277);enable-background:new">
      <path
         style="fill:#000000;fill-opacity:0.29804131;stroke:none"
         d="m 59.425533,-136.86687 -1.48015,-1.45022 -4.25313,1.49111 -0.70571,0.66439 -1.5604,2.43905 -3.83803,-1.58976 0.62131,-2.82804 -0.0173,-0.93994 -1.965,-4.09066 -2.06012,0.008 -1.958084,4.09207 -0.02357,0.92303 0.597445,2.83058 -3.811003,1.57857 -1.579067,-2.42398 -0.669344,-0.63602 -4.278103,-1.50895 -1.462174,1.45127 1.503065,4.282 0.652431,0.67685 2.439049,1.56039 -1.589764,3.83803 -2.828033,-0.6213 -0.939942,0.0173 -4.090658,1.965 0.0077,2.06012 4.092066,1.95808 0.92303,0.0236 2.830583,-0.59744 1.578569,3.811 -2.423982,1.57907 -0.636017,0.66934 -1.508953,4.2781 1.451271,1.46218 4.282,-1.50307 0.676847,-0.65243 1.560395,-2.43905 3.838029,1.58977 -0.621303,2.82803 0.02922,0.96881 1.953045,4.06179 2.072075,0.0212 1.95808,-4.09207 0.0116,-0.9519 -0.59744,-2.83058 3.811,-1.57857 1.57907,2.42398 0.6813,0.66489 4.2781,1.50895 1.45022,-1.48014 -1.49111,-4.25313 -0.66439,-0.70572 -2.43905,-1.56039 1.58977,-3.83803 2.82803,0.6213 0.96881,-0.0292 4.06179,-1.95304 0.0212,-2.07208 -4.08011,-1.92921 -0.96386,-0.0405 -2.83058,0.59744 -1.57857,-3.811 2.42398,-1.57907 0.66489,-0.6813 1.50896,-4.2781 z m -13.74541,9.27896 2.32002,5.60102 c -0.36842,0.49202 -0.8333,0.92018 -1.44236,1.17246 -1.807949,0.74888 -3.876882,-0.13202 -4.625759,-1.93997 -0.748877,-1.80795 0.10315,-3.86492 1.911099,-4.6138 0.607386,-0.25159 1.23009,-0.30602 1.837,-0.21971 z"
         id="path3402"
         inkscape:connector-curvature="0" />
    </g>
    <g
       style="fill:#000000;fill-opacity:0.29804131;stroke:none;display:inline;filter:url(#filter3277);enable-background:new"
       id="g3157"
       transform="matrix(-0.92387953,-0.38268343,0.38268343,-0.92387953,-311.39291,420.05668)"
       inkscape:label="Gear8">
      <path
         inkscape:connector-curvature="0"
         id="path3159"
         transform="matrix(0.38268343,0.92387954,-0.92387954,0.38268343,49.305539,-762.64395)"
         d="m 679.375,319.375 -1.90625,0.8125 -0.25,4.5 0.34375,0.90625 1.65625,2.375 -2.9375,2.9375 -2.375,-1.65625 -0.875,-0.34375 -4.53125,0.25 -0.78125,1.90625 3.03125,3.375 0.84375,0.375 2.84375,0.53125 0,4.125 -2.84375,0.53125 -0.84375,0.375 -3.03125,3.375 0.78125,1.90625 4.53125,0.25 0.875,-0.34375 2.375,-1.65625 2.9375,2.9375 -1.65625,2.375 -0.34375,0.875 0.25,4.53125 1.90625,0.78125 3.375,-3.03125 0.375,-0.84375 0.53125,-2.84375 4.125,0 0.53125,2.84375 0.375,0.84375 3.375,3.03125 1.90625,-0.78125 0.25,-4.53125 -0.34375,-0.875 -1.65625,-2.375 2.9375,-2.9375 2.375,1.65625 0.90625,0.34375 4.5,-0.25 0.8125,-1.90625 -3.03125,-3.375 -0.875,-0.375 -2.84375,-0.53125 0,-4.125 2.84375,-0.53125 0.875,-0.375 3.03125,-3.375 -0.8125,-1.90625 -4.5,-0.25 -0.90625,0.34375 -2.375,1.65625 -2.9375,-2.9375 1.65625,-2.375 0.34375,-0.90625 -0.25,-4.5 -1.90625,-0.8125 -3.34375,3.03125 -0.40625,0.875 -0.53125,2.84375 -4.125,0 -0.53125,-2.84375 -0.375,-0.875 -3.375,-3.03125 z m 3.3125,16.25 6.0625,0 c 0.31358,0.52866 0.53125,1.12201 0.53125,1.78125 0,1.95691 -1.60559,3.53125 -3.5625,3.53125 -1.95691,0 -3.53125,-1.57434 -3.53125,-3.53125 0,-0.65743 0.18801,-1.25356 0.5,-1.78125 z"
         style="fill:#000000;fill-opacity:0.29804131;stroke:none" />
    </g>
  </g>
</svg>
