<?xml version="1.0" encoding="UTF-8" standalone="no"?>
<!-- Created with Inkscape (http://www.inkscape.org/) -->

<svg
   xmlns:dc="http://purl.org/dc/elements/1.1/"
   xmlns:cc="http://creativecommons.org/ns#"
   xmlns:rdf="http://www.w3.org/1999/02/22-rdf-syntax-ns#"
   xmlns:svg="http://www.w3.org/2000/svg"
   xmlns="http://www.w3.org/2000/svg"
   xmlns:sodipodi="http://sodipodi.sourceforge.net/DTD/sodipodi-0.dtd"
   xmlns:inkscape="http://www.inkscape.org/namespaces/inkscape"
   sodipodi:docname="john.svg"
   inkscape:version="0.48.5 r10040"
   version="1.1"
   id="svg3091"
   height="252.62367"
   width="483.03125"
   style="enable-background:new">
  <sodipodi:namedview
     id="base"
     pagecolor="#ffffff"
     bordercolor="#666666"
     borderopacity="1.0"
     inkscape:pageopacity="0.0"
     inkscape:pageshadow="2"
     inkscape:zoom="1.4142136"
     inkscape:cx="355.823"
     inkscape:cy="136.35377"
     inkscape:document-units="mm"
     inkscape:current-layer="layer3"
     showgrid="false"
     inkscape:window-width="1920"
     inkscape:window-height="1005"
     inkscape:window-x="-9"
     inkscape:window-y="-9"
     inkscape:window-maximized="1"
     inkscape:object-paths="false"
     inkscape:object-nodes="true"
     inkscape:snap-object-midpoints="true"
     inkscape:snap-nodes="true"
     inkscape:snap-midpoints="true"
     inkscape:snap-intersection-paths="true"
     inkscape:snap-smooth-nodes="true"
     units="mm"
     fit-margin-top="0"
     fit-margin-right="0"
     fit-margin-bottom="0"
     fit-margin-left="0" />
  <defs
     id="defs3093">
    <filter
       inkscape:collect="always"
       id="filter3277"
       color-interpolation-filters="sRGB">
      <feBlend
         inkscape:collect="always"
         mode="screen"
         in2="BackgroundImage"
         id="feBlend3279" />
    </filter>
  </defs>
  <metadata
     id="metadata3096">
    <rdf:RDF>
      <cc:Work
         rdf:about="">
        <dc:format>image/svg+xml</dc:format>
        <dc:type
           rdf:resource="http://purl.org/dc/dcmitype/StillImage" />
        <dc:title />
      </cc:Work>
    </rdf:RDF>
  </metadata>
  <g
     inkscape:groupmode="layer"
     id="layer2"
     inkscape:label="Purgatory"
     style="display:none"
     transform="translate(435.3086,-638.33918)">
    <path
       style="opacity:0.75739644;color:#000000;fill:#000000;fill-opacity:0.22745098;fill-rule:nonzero;stroke:none;stroke-width:0.99921262;marker:none;visibility:visible;display:inline;overflow:visible;enable-background:accumulate"
       d="m 652.98337,208.11457 0,10.625 0,31.90625 0,10.625 10.625,0 0,-10.625 10.625,0 50.75,0 2.40625,0 21.25,0 2.40625,0 50.75,0 10.625,0 0,10.625 10.625,0 0,-10.625 0,-31.90625 0,-10.625 -10.625,0 0,10.625 -20.9375,0 -3.09375,5.34375 -5.3125,9.1875 -9.25,-5.3125 5.3125,-9.1875 0.0312,-0.0312 -28.125,0 0,0.0312 -2.375,0 0,10.625 -10.65625,0 0,-10.625 -10.625,0 -2.40625,0 0,-0.0312 -61.375,0 0,-10.625 -10.625,0 z m 37.1875,19.0625 c 4.15844,0 7.53125,3.34156 7.53125,7.5 0,4.15844 -3.37281,7.53125 -7.53125,7.53125 -4.15844,0 -7.53125,-3.37281 -7.53125,-7.53125 0,-4.15844 3.37281,-7.5 7.53125,-7.5 z m -26.5625,2.1875 10.625,0 0,10.65625 -10.625,0 0,-10.65625 z m 138.1875,0 10.625,0 0,10.65625 -10.625,0 0,-10.65625 z"
       id="rect4386"
       inkscape:connector-curvature="0"
       inkscape:transform-center-x="-47.843752" />
    <rect
       style="opacity:0.75739644;color:#000000;fill:#000000;fill-opacity:0.22745098;fill-rule:nonzero;stroke:none;stroke-width:0.99921262;marker:none;visibility:visible;display:inline;overflow:visible;enable-background:accumulate"
       id="rect4388"
       width="10.629921"
       height="10.629921"
       x="666.87024"
       y="139.92952" />
    <rect
       style="opacity:0.75739644;color:#000000;fill:#000000;fill-opacity:0.22745098;fill-rule:nonzero;stroke:none;stroke-width:0.99921262;marker:none;visibility:visible;display:inline;overflow:visible;enable-background:accumulate"
       id="rect4415"
       width="10.625"
       height="10.65625"
       x="698.9834"
       y="254.36456" />
    <rect
       y="229.36456"
       x="684.8584"
       height="10.65625"
       width="10.625"
       id="rect4417"
       style="opacity:0.75739644;color:#000000;fill:#000000;fill-opacity:0.22745098;fill-rule:nonzero;stroke:none;stroke-width:0.99921262;marker:none;visibility:visible;display:inline;overflow:visible;enable-background:accumulate" />
    <rect
       y="240.02081"
       x="695.4834"
       height="10.65625"
       width="10.625"
       id="rect4419"
       style="opacity:0.75739644;color:#000000;fill:#000000;fill-opacity:0.22745098;fill-rule:nonzero;stroke:none;stroke-width:0.99921262;marker:none;visibility:visible;display:inline;overflow:visible;enable-background:accumulate" />
    <rect
       style="opacity:0.75739644;color:#000000;fill:#000000;fill-opacity:0.22745098;fill-rule:nonzero;stroke:none;stroke-width:0.99921262;marker:none;visibility:visible;display:inline;overflow:visible;enable-background:accumulate"
       id="rect4421"
       width="10.629921"
       height="157.40944"
       x="-720.36652"
       y="-220.5403"
       transform="matrix(-0.8660254,-0.5,-0.5,0.8660254,0,0)" />
    <rect
       transform="scale(-1,1)"
       y="155.98796"
       x="-695.48584"
       height="157.40944"
       width="10.629921"
       id="rect4423"
       style="opacity:0.75739644;color:#000000;fill:#000000;fill-opacity:0.22745098;fill-rule:nonzero;stroke:none;stroke-width:0.99921262;marker:none;visibility:visible;display:inline;overflow:visible;enable-background:accumulate" />
    <rect
       style="opacity:0.75739644;color:#000000;fill:#000000;fill-opacity:0.22745098;fill-rule:nonzero;stroke:none;stroke-width:0.99921262;marker:none;visibility:visible;display:inline;overflow:visible;enable-background:accumulate"
       id="rect4425"
       width="10.625"
       height="10.65625"
       x="-730.99152"
       y="-163.32521"
       transform="matrix(-0.8660254,-0.5,-0.5,0.8660254,0,0)" />
    <rect
       transform="matrix(-0.8660254,-0.5,-0.5,0.8660254,0,0)"
       y="-173.98145"
       x="-730.99152"
       height="10.65625"
       width="10.625"
       id="rect4427"
       style="opacity:0.75739644;color:#000000;fill:#000000;fill-opacity:0.22745098;fill-rule:nonzero;stroke:none;stroke-width:0.99921262;marker:none;visibility:visible;display:inline;overflow:visible;enable-background:accumulate" />
    <rect
       style="opacity:0.75739644;color:#000000;fill:#000000;fill-opacity:0.22745098;fill-rule:nonzero;stroke:none;stroke-width:0.99921262;marker:none;visibility:visible;display:inline;overflow:visible;enable-background:accumulate"
       id="rect4431"
       width="10.629921"
       height="157.40944"
       x="-759.26294"
       y="155.9962"
       transform="scale(-1,1)" />
    <rect
       style="opacity:0.75739644;color:#000000;fill:#000000;fill-opacity:0.22745098;fill-rule:nonzero;stroke:none;stroke-width:0.99921262;marker:none;visibility:visible;display:inline;overflow:visible;enable-background:accumulate"
       id="rect4511"
       width="10.629921"
       height="74.409447"
       x="748.633"
       y="176.23636" />
    <path
       inkscape:transform-center-x="-41.433922"
       inkscape:connector-curvature="0"
       id="path4515"
       d="m 644.67648,230.2691 5.3125,9.20152 15.95313,27.63162 5.3125,9.20152 9.20152,-5.3125 -5.3125,-9.20152 9.20152,-5.3125 43.95079,-25.375 2.08387,-1.20312 18.40304,-10.625 2.08388,-1.20313 43.95078,-25.375 9.20152,-5.3125 5.3125,9.20152 9.20152,-5.3125 -5.3125,-9.20152 -15.95312,-27.63162 -5.3125,-9.20152 -9.20152,5.3125 5.3125,9.20152 -18.13241,10.46875 -0.007,6.1747 -0.007,10.61286 -10.66698,0.0242 0.007,-10.61286 0.0114,-0.0426 -24.35697,14.0625 0.0156,0.027 -2.05681,1.1875 5.3125,9.20152 -9.22858,5.32812 -5.3125,-9.20152 -9.20152,5.3125 -2.08388,1.20313 -0.0156,-0.027 -53.1523,30.6875 -5.3125,-9.20152 -9.20152,5.3125 z m 41.73657,-2.08514 c 3.60132,-2.07922 8.19304,-0.87175 10.27226,2.72956 2.07922,3.60132 0.84468,8.20866 -2.75663,10.28788 -3.60132,2.07922 -8.20866,0.84469 -10.28788,-2.75663 -2.07922,-3.60131 -0.82906,-8.18159 2.77225,-10.26081 z m -21.91005,15.17568 9.20152,-5.3125 5.32813,9.22858 -9.20152,5.3125 -5.32813,-9.22858 z m 119.67389,-69.09375 9.20152,-5.3125 5.32812,9.22858 -9.20152,5.3125 -5.32812,-9.22858 z"
       style="opacity:0.75739644;color:#000000;fill:#000000;fill-opacity:0.22745098;fill-rule:nonzero;stroke:none;stroke-width:0.99921262;marker:none;visibility:visible;display:inline;overflow:visible;enable-background:accumulate"
       inkscape:transform-center-y="-23.92189" />
    <rect
       transform="matrix(-0.5,-0.8660254,0.8660254,-0.5,0,0)"
       y="432.54175"
       x="-587.3114"
       height="10.629921"
       width="77.952759"
       id="rect4517"
       style="opacity:0.75739644;color:#000000;fill:#000000;fill-opacity:0.22745098;fill-rule:nonzero;stroke:none;stroke-width:0.99921262;marker:none;visibility:visible;display:inline;overflow:visible;enable-background:accumulate" />
    <rect
       style="opacity:0.75739644;color:#000000;fill:#000000;fill-opacity:0.22745098;fill-rule:nonzero;stroke:none;stroke-width:0.99921262;marker:none;visibility:visible;display:inline;overflow:visible;enable-background:accumulate"
       id="rect4519"
       width="27.226597"
       height="52.335129"
       x="668.24799"
       y="240.02081" />
    <rect
       style="opacity:0.75739644;color:#000000;fill:#000000;fill-opacity:0.22745098;fill-rule:nonzero;stroke:none;stroke-width:0.99921262;marker:none;visibility:visible;display:inline;overflow:visible;enable-background:accumulate"
       id="rect4523"
       width="10.629921"
       height="10.629921"
       x="810.28271"
       y="299.00818" />
    <rect
       y="288.37827"
       x="810.28271"
       height="10.629921"
       width="10.629921"
       id="rect4525"
       style="opacity:0.75739644;color:#000000;fill:#000000;fill-opacity:0.22745098;fill-rule:nonzero;stroke:none;stroke-width:0.99921262;marker:none;visibility:visible;display:inline;overflow:visible;enable-background:accumulate" />
    <path
       style="opacity:0.75739644;color:#000000;fill:#000000;fill-opacity:0.22745098;fill-rule:nonzero;stroke:none;stroke-width:0.99921262;marker:none;visibility:visible;display:inline;overflow:visible;enable-background:accumulate"
       d="m 866.64374,280.44547 0,63.75 99.21875,0 0,-63.75 -99.21875,0 z m 44.75,35.4375 c 0.0694,-2e-5 0.12617,0.005 0.1875,0.0312 0.0613,0.0266 0.1408,0.0471 0.1875,0.0937 0.0466,0.0467 0.0657,0.12488 0.0937,0.1875 0.0281,0.0627 0.0625,0.11823 0.0625,0.1875 3e-5,0.0694 -0.0344,0.12754 -0.0625,0.1875 -0.028,0.0601 -0.0471,0.10967 -0.0937,0.15625 -0.0467,0.0468 -0.12619,0.0985 -0.1875,0.125 -0.0613,0.0267 -0.11814,0.0312 -0.1875,0.0312 -0.0693,-2e-5 -0.12752,-0.005 -0.1875,-0.0312 -0.06,-0.0266 -0.10958,-0.0782 -0.15625,-0.125 -0.0466,-0.0466 -0.0983,-0.0962 -0.125,-0.15625 -0.0267,-0.0599 -0.0313,-0.1181 -0.0312,-0.1875 -2e-5,-0.0693 0.005,-0.12477 0.0312,-0.1875 0.0267,-0.0626 0.0784,-0.14082 0.125,-0.1875 0.0467,-0.0467 0.0962,-0.0671 0.15625,-0.0937 0.06,-0.0267 0.11818,-0.0313 0.1875,-0.0312 z m -23.28125,0.0937 2.40625,0 c 1.02132,10e-6 1.65825,0.29635 1.90625,0.875 0.0774,0.18668 0.12503,0.37585 0.125,0.5625 0,0.18667 -0.0185,0.33809 -0.0625,0.46875 -0.044,0.13067 -0.13076,0.23176 -0.21875,0.34375 -0.18933,0.23467 -0.46051,0.42192 -0.8125,0.53125 0.84532,0.168 1.28125,0.60318 1.28125,1.3125 -10e-6,0.49333 -0.18193,0.89417 -0.53125,1.1875 -0.36,0.30133 -0.83676,0.4375 -1.46875,0.4375 l -2.625,0 0,-0.34375 c 0,-0.0827 0.045,-0.109 0.125,-0.125 l 0.46875,-0.0937 0,-4.5625 c -0.256,-0.0507 -0.42075,-0.0831 -0.46875,-0.0937 -0.08,-0.016 -0.125,-0.0736 -0.125,-0.15625 l 0,-0.34375 z m 10,0.34375 0.34375,0 0,1.40625 1.15625,0 0,0.53125 -1.15625,0 0,2.40625 c 0,0.17067 0.0423,0.32358 0.125,0.40625 0.0827,0.0827 0.18183,0.125 0.3125,0.125 0.0747,0 0.13283,-0.0113 0.1875,-0.0312 0.0547,-0.02 0.11625,-0.0385 0.15625,-0.0625 0.04,-0.024 0.0657,-0.0738 0.0937,-0.0937 0.028,-0.02 0.0724,-0.0312 0.0937,-0.0312 0.0373,0 0.0644,0.0484 0.0937,0.0937 l 0.21875,0.34375 c -0.12267,0.11467 -0.29542,0.18467 -0.46875,0.25 -0.17334,0.0653 -0.34725,0.0937 -0.53125,0.0937 -0.32,0 -0.54675,-0.0713 -0.71875,-0.25 -0.172,-0.17866 -0.28125,-0.44525 -0.28125,-0.78125 l 0,-2.46875 -0.46875,0 c -0.0427,0 -0.0957,-0.0372 -0.125,-0.0625 -0.0293,-0.0253 -0.0312,-0.0404 -0.0312,-0.0937 l 0,-0.28125 0.65625,-0.0937 0.15625,-1.25 c 0.005,-0.04 0.0332,-0.0684 0.0625,-0.0937 0.0293,-0.0254 0.0797,-0.0626 0.125,-0.0625 z m 2.90625,0 0.34375,0 0,1.40625 1.15625,0 0,0.53125 -1.15625,0 0,2.40625 c 0,0.17067 0.0423,0.32358 0.125,0.40625 0.0827,0.0827 0.18183,0.125 0.3125,0.125 0.0747,0 0.13283,-0.0113 0.1875,-0.0312 0.0547,-0.02 0.11625,-0.0385 0.15625,-0.0625 0.04,-0.024 0.0657,-0.0738 0.0937,-0.0937 0.028,-0.02 0.0724,-0.0312 0.0937,-0.0312 0.0373,0 0.0644,0.0484 0.0937,0.0937 l 0.21875,0.34375 c -0.12267,0.11467 -0.29542,0.18467 -0.46875,0.25 -0.17334,0.0653 -0.34725,0.0937 -0.53125,0.0937 -0.32,0 -0.54675,-0.0713 -0.71875,-0.25 -0.172,-0.17866 -0.28125,-0.44525 -0.28125,-0.78125 l 0,-2.46875 -0.46875,0 c -0.0427,0 -0.0957,-0.0372 -0.125,-0.0625 -0.0293,-0.0253 -0.0312,-0.0404 -0.0312,-0.0937 l 0,-0.28125 0.65625,-0.0937 0.15625,-1.25 c 0.005,-0.04 0.0332,-0.0684 0.0625,-0.0937 0.0293,-0.0254 0.0797,-0.0626 0.125,-0.0625 z m -11.5625,0.25 0,1.96875 1.03125,0 c 0.63732,0 1.05608,-0.20709 1.21875,-0.59375 0.0507,-0.12267 0.0625,-0.231 0.0625,-0.375 0,-0.336 -0.10984,-0.59267 -0.3125,-0.75 -0.20267,-0.15735 -0.51084,-0.25001 -0.9375,-0.25 l -1.0625,0 z m 5.40625,1 c 0.22663,4e-5 0.41774,0.0503 0.59375,0.125 0.17598,0.0746 0.34876,0.17914 0.46875,0.3125 0.12004,0.13336 0.18869,0.27944 0.25,0.46875 0.0613,0.18941 0.0937,0.39842 0.0937,0.625 l 0,2.03125 0.21875,0.0312 c 0.0846,0.0168 0.15484,0.0247 0.1875,0.0312 0.0358,0.008 0.0713,0.0353 0.0937,0.0625 0.0224,0.0272 0.0306,0.0575 0.0312,0.0937 l 0,0.34375 -0.53125,0 -0.0625,0 -0.25,0 c -0.0694,1e-5 -0.11362,-0.01 -0.15625,-0.0312 -0.0427,-0.0213 -0.0804,-0.0556 -0.0937,-0.125 l -0.0937,-0.375 c -0.10668,0.096 -0.17991,0.17407 -0.28125,0.25 -0.10137,0.0761 -0.2318,0.13553 -0.34375,0.1875 -0.112,0.052 -0.21708,0.0984 -0.34375,0.125 -0.12671,0.0267 -0.28288,0.0312 -0.4375,0.0312 -0.15736,-3e-5 -0.30023,-0.0184 -0.4375,-0.0625 -0.13735,-0.0442 -0.24242,-0.0992 -0.34375,-0.1875 -0.10132,-0.0883 -0.19004,-0.20861 -0.25,-0.34375 -0.06,-0.1351 -0.0938,-0.31538 -0.0937,-0.5 0,-0.16051 0.037,-0.28892 0.125,-0.4375 0.088,-0.14853 0.24153,-0.29121 0.4375,-0.40625 0.196,-0.11502 0.46389,-0.20762 0.78125,-0.28125 0.3173,-0.0736 0.69759,-0.12499 1.15625,-0.125 l 0,-0.3125 c -2e-5,-0.31658 -0.0841,-0.55639 -0.21875,-0.71875 -0.13464,-0.1624 -0.32976,-0.24998 -0.59375,-0.25 -0.17339,2e-5 -0.31891,0.0497 -0.4375,0.0937 -0.11871,0.044 -0.22587,0.0704 -0.3125,0.125 -0.0867,0.0547 -0.15613,0.11227 -0.21875,0.15625 -0.0627,0.044 -0.12624,0.0625 -0.1875,0.0625 -0.048,-2e-5 -0.089,-0.006 -0.125,-0.0312 -0.036,-0.0253 -0.0724,-0.0564 -0.0937,-0.0937 l -0.125,-0.21875 c 0.22397,-0.21603 0.49134,-0.39336 0.75,-0.5 0.25865,-0.10667 0.52906,-0.15622 0.84375,-0.15625 z m 14.65625,0 c 0.20799,0 0.36858,0.0603 0.53125,0.15625 l -0.0625,0.53125 c -0.0187,0.0667 -0.0743,0.0937 -0.125,0.0937 -0.0507,0 -0.11017,-0.006 -0.1875,-0.0312 -0.0773,-0.0253 -0.17384,-0.0312 -0.3125,-0.0312 -0.464,0 -0.83317,0.28109 -1.0625,0.84375 l 0,2 c 0.0667,0.0133 0.23142,0.0457 0.46875,0.0937 0.08,0.016 0.125,0.0423 0.125,0.125 l 0,0.34375 -1.875,0 0,-0.34375 c 0,-0.0827 0.045,-0.109 0.125,-0.125 l 0.46875,-0.0937 0,-2.90625 c -0.256,-0.0507 -0.42075,-0.0831 -0.46875,-0.0937 -0.08,-0.016 -0.125,-0.0423 -0.125,-0.125 l 0,-0.34375 0.59375,0 0.40625,0 c 0.0773,4e-5 0.12692,0.002 0.15625,0.0312 0.0293,0.0293 0.0518,0.0843 0.0625,0.15625 l 0.0312,0.625 c 0.296,-0.59999 0.72467,-0.90625 1.25,-0.90625 z m -4.625,0.0312 c 0.24267,2e-5 0.45092,0.0125 0.65625,0.0937 0.20533,0.0813 0.38192,0.22167 0.53125,0.375 0.14933,0.15334 0.25975,0.33717 0.34375,0.5625 0.084,0.22534 0.125,0.49326 0.125,0.78125 0,0.11201 -0.007,0.18142 -0.0312,0.21875 -0.024,0.0373 -0.0583,0.0312 -0.125,0.0312 l -2.6875,0 c 0.005,0.256 0.0297,0.49817 0.0937,0.6875 0.064,0.18933 0.138,0.34208 0.25,0.46875 0.112,0.12667 0.25158,0.21858 0.40625,0.28125 0.15466,0.0627 0.33925,0.0937 0.53125,0.0937 0.17866,0 0.33942,-0.0212 0.46875,-0.0625 0.12933,-0.0413 0.21917,-0.077 0.3125,-0.125 0.0933,-0.048 0.18733,-0.0837 0.25,-0.125 0.0627,-0.0413 0.11092,-0.0625 0.15625,-0.0625 0.0587,0 0.093,0.0172 0.125,0.0625 l 0.21875,0.25 c -0.088,0.10667 -0.18984,0.20258 -0.3125,0.28125 -0.12267,0.0787 -0.26626,0.13683 -0.40625,0.1875 -0.14,0.0507 -0.28817,0.0997 -0.4375,0.125 -0.14933,0.0253 -0.29084,0.0312 -0.4375,0.0312 -0.28,0 -0.54525,-0.0616 -0.78125,-0.15625 -0.236,-0.0947 -0.42175,-0.22358 -0.59375,-0.40625 -0.172,-0.18266 -0.31025,-0.41817 -0.40625,-0.6875 -0.096,-0.26933 -0.15625,-0.55692 -0.15625,-0.90625 0,-0.28266 0.0383,-0.56717 0.125,-0.8125 0.0867,-0.24533 0.21233,-0.445 0.375,-0.625 0.16267,-0.18 0.35908,-0.33484 0.59375,-0.4375 0.23466,-0.10267 0.51917,-0.125 0.8125,-0.125 z m 9.6875,0 c 0.24267,2e-5 0.48217,0.0125 0.6875,0.0937 0.20533,0.0813 0.38192,0.22167 0.53125,0.375 0.14933,0.15334 0.25975,0.33717 0.34375,0.5625 0.084,0.22534 0.125,0.49326 0.125,0.78125 0,0.11201 -0.007,0.18142 -0.0312,0.21875 -0.024,0.0373 -0.0896,0.0312 -0.15625,0.0312 l -2.6875,0 c 0.005,0.256 0.0297,0.49817 0.0937,0.6875 0.064,0.18933 0.16925,0.34208 0.28125,0.46875 0.112,0.12667 0.25158,0.21858 0.40625,0.28125 0.15466,0.0627 0.308,0.0937 0.5,0.0937 0.17866,0 0.33942,-0.0212 0.46875,-0.0625 0.12933,-0.0413 0.25042,-0.077 0.34375,-0.125 0.0933,-0.048 0.15608,-0.0837 0.21875,-0.125 0.0627,-0.0413 0.11092,-0.0625 0.15625,-0.0625 0.0587,0 0.12425,0.0172 0.15625,0.0625 l 0.1875,0.25 c -0.088,0.10667 -0.18984,0.20258 -0.3125,0.28125 -0.12267,0.0787 -0.23501,0.13683 -0.375,0.1875 -0.14,0.0507 -0.28817,0.0997 -0.4375,0.125 -0.14933,0.0253 -0.32209,0.0312 -0.46875,0.0312 -0.28,0 -0.514,-0.0616 -0.75,-0.15625 -0.236,-0.0947 -0.453,-0.22358 -0.625,-0.40625 -0.172,-0.18266 -0.31025,-0.41817 -0.40625,-0.6875 -0.096,-0.26933 -0.125,-0.55692 -0.125,-0.90625 0,-0.28266 0.0383,-0.56717 0.125,-0.8125 0.0867,-0.24533 0.21233,-0.445 0.375,-0.625 0.16267,-0.18 0.35908,-0.33484 0.59375,-0.4375 0.23466,-0.10267 0.48792,-0.125 0.78125,-0.125 z m -4.125,0.0625 1.28125,0 0,3.46875 0.21875,0.0312 c 0.11965,0.0238 0.20035,0.0213 0.25,0.0312 0.0358,0.008 0.0714,0.0353 0.0937,0.0625 0.0224,0.0272 0.0306,0.0575 0.0312,0.0937 l 0,0.34375 -1.875,0 0,-0.34375 c 6.9e-4,-0.0363 0.009,-0.0665 0.0312,-0.0937 0.0224,-0.0272 0.058,-0.0547 0.0937,-0.0625 0.0497,-0.01 0.13034,-0.007 0.25,-0.0312 l 0.21875,-0.0312 0,-2.90625 -0.21875,-0.0312 c -0.11966,-0.0238 -0.20035,-0.0526 -0.25,-0.0625 -0.0358,-0.008 -0.0714,-0.004 -0.0937,-0.0312 -0.0224,-0.0272 -0.0306,-0.0575 -0.0312,-0.0937 l 0,-0.34375 z m -5.5625,0.4375 c -0.344,0 -0.61517,0.11384 -0.8125,0.3125 -0.19733,0.19867 -0.327,0.46051 -0.375,0.8125 l 2.21875,0 c -2e-5,-0.16533 -0.0172,-0.30017 -0.0625,-0.4375 -0.0453,-0.13733 -0.13076,-0.275 -0.21875,-0.375 -0.088,-0.1 -0.18584,-0.16409 -0.3125,-0.21875 -0.12667,-0.0547 -0.27484,-0.0938 -0.4375,-0.0937 z m 9.71875,0 c -0.344,0 -0.61517,0.11384 -0.8125,0.3125 -0.19733,0.19867 -0.327,0.46051 -0.375,0.8125 l 2.1875,0 c -2e-5,-0.16533 -0.0172,-0.30017 -0.0625,-0.4375 -0.0453,-0.13733 -0.0995,-0.275 -0.1875,-0.375 -0.088,-0.1 -0.18584,-0.16409 -0.3125,-0.21875 -0.12667,-0.0547 -0.27484,-0.0938 -0.4375,-0.0937 z m -25.15625,1 0,2 1.25,0 c 0.63732,0 1.03283,-0.21167 1.1875,-0.625 0.048,-0.12533 0.0625,-0.2855 0.0625,-0.4375 0,-0.29599 -0.10317,-0.5155 -0.3125,-0.6875 -0.20934,-0.172 -0.51351,-0.25 -0.9375,-0.25 l -1.25,0 z m 6.125,0.78135 c -0.328,-10e-6 -0.61441,0.0209 -0.84375,0.0625 -0.22934,0.0416 -0.41853,0.0892 -0.5625,0.15625 -0.14401,0.0671 -0.24719,0.15884 -0.3125,0.25 -0.0654,0.0912 -0.0938,0.16868 -0.0937,0.28125 1e-5,0.1073 0.0278,0.20342 0.0625,0.28125 0.0346,0.0778 0.0663,0.13789 0.125,0.1875 0.0586,0.0496 0.13871,0.10217 0.21875,0.125 0.08,0.0228 0.15665,0.0313 0.25,0.0312 0.1253,10e-6 0.23972,-0.006 0.34375,-0.0312 0.10397,-0.0253 0.2205,-0.0783 0.3125,-0.125 0.092,-0.0466 0.16601,-0.0896 0.25,-0.15625 0.084,-0.0666 0.17001,-0.13341 0.25,-0.21875 l 0,-0.84375 z"
       id="rect4622"
       inkscape:connector-curvature="0" />
    <path
       d="m 677.00106,449.9905 c 5.11771,10.7111 14.74157,19.1783 27.13354,22.3842 12.39197,3.2058 24.91757,0.4662 34.58461,-6.4177 l 13.39942,-51.79479 c -5.11594,-10.70821 -14.74156,-19.17837 -27.13353,-22.3842 -12.39043,-3.20543 -24.90728,-0.49631 -34.57679,6.38739 l -13.40725,51.8251 z"
       id="path3176"
       inkscape:connector-curvature="0"
       style="fill:#000000;fill-opacity:0.39215686;display:inline;filter:url(#filter4654);enable-background:new" />
    <path
       inkscape:connector-curvature="0"
       style="fill:#cc0000;fill-opacity:0.39215686;display:inline;filter:url(#filter4654);enable-background:new"
       d="m 697.40975,427.6234 c -2.4506,9.4727 3.24353,19.1412 12.71624,21.5918 9.47271,2.4506 19.14118,-3.2435 21.59179,-12.7162 2.45061,-9.4727 -3.24352,-19.1412 -12.71624,-21.59181 -9.47272,-2.45061 -19.14118,3.24352 -21.59179,12.71621 z m 4.97458,30.3056 c -0.73519,2.8418 0.97081,5.7385 3.81263,6.4737 2.84181,0.7352 5.73854,-0.9708 6.47373,-3.8126 0.73518,-2.8418 -0.97082,-5.7386 -3.81263,-6.4737 -2.84182,-0.7352 -5.73855,0.9708 -6.47373,3.8126 z m 14.06469,-54.36644 c -0.73518,2.84182 0.97082,5.73855 3.81263,6.47373 2.84181,0.73519 5.73855,-0.97081 6.47373,-3.81263 0.73518,-2.84181 -0.97082,-5.73854 -3.81263,-6.47373 -2.84182,-0.73518 -5.73855,0.97082 -6.47373,3.81263 z"
       id="path3178" />
  </g>
  <g
     inkscape:groupmode="layer"
     id="layer1"
     inkscape:label="optional"
     style="display:none"
     transform="translate(44.531247,-726.21874)">
    <path
       transform="translate(390.77735,87.879556)"
       style="opacity:0.75739644;color:#000000;fill:#000000;fill-opacity:0.29804131;fill-rule:nonzero;stroke:none;stroke-width:0.99921262;marker:none;visibility:visible;display:inline;overflow:visible;enable-background:accumulate"
       d="m -66.852313,411.74552 0,10.625 21.28125,0 0,10.625 10.625,0 0,-10.625 10.625,0 0,10.625 10.625,0 0,-10.625 0,-10.625 -53.15625,0 z"
       id="rect4516"
       inkscape:connector-curvature="0" />
    <path
       transform="translate(390.77735,87.879556)"
       style="opacity:0.75739644;color:#000000;fill:#000000;fill-opacity:0.29804131;fill-rule:nonzero;stroke:none;stroke-width:0.99921262;marker:none;visibility:visible;display:inline;overflow:visible;enable-background:accumulate"
       d="m 285.2539,262.18294 0,10.625 0,10.625 53.15625,0 0,-10.625 -21.28125,0 0,-10.625 -10.625,0 0,10.625 -10.625,0 0,-10.625 -10.625,0 z"
       id="rect4434"
       inkscape:connector-curvature="0" />
    <path
       transform="translate(390.77735,87.879556)"
       style="opacity:0.75739644;color:#000000;fill:#000000;fill-opacity:0.29804131;fill-rule:nonzero;stroke:none;stroke-width:0.99921262;marker:none;visibility:visible;display:inline;overflow:visible;enable-background:accumulate"
       d="m 193.9414,164.76107 0,10.625 21.28125,0 0,10.625 10.625,0 0,-10.625 10.625,0 0,10.625 10.625,0 0,-10.625 0,-10.625 -53.15625,0 z"
       id="rect4438"
       inkscape:connector-curvature="0" />
    <path
       transform="translate(390.77735,87.879556)"
       style="opacity:0.75739644;color:#000000;fill:#000000;fill-opacity:0.29804131;fill-rule:nonzero;stroke:none;stroke-width:0.99921262;marker:none;visibility:visible;display:inline;overflow:visible;enable-background:accumulate"
       d="m 273.5039,346.46419 0,53.15625 -10.625,0 -10.625,0 0,-10.625 10.625,0 0,-10.625 -10.625,0 0,-10.625 10.625,0 0,-10.65625 -10.625,0 0,-10.625 10.625,0 10.625,0 z"
       id="rect4444"
       inkscape:connector-curvature="0" />
    <path
       transform="translate(390.77735,87.879556)"
       style="opacity:0.75739644;color:#000000;fill:#000000;fill-opacity:0.29804131;fill-rule:nonzero;stroke:none;stroke-width:0.99921262;marker:none;visibility:visible;display:inline;overflow:visible;enable-background:accumulate"
       d="m 266.66015,67.057945 0,31.90625 c -7.4449,0 -10.625,4.707155 -10.625,10.624995 l 10.625,0 0,10.625 -10.625,0 0,10.625 10.625,0 10.625,0 0,-63.781245 -10.625,0 z"
       id="rect4460"
       inkscape:connector-curvature="0" />
    <path
       transform="translate(390.77735,87.879556)"
       style="opacity:0.75739644;color:#000000;fill:#000000;fill-opacity:0.29804131;fill-rule:nonzero;stroke:none;stroke-width:0.99921262;marker:none;visibility:visible;display:inline;overflow:visible;enable-background:accumulate"
       d="m 199.5664,-1.7858057 c 0,10.60791 -42.53125,11.36032 -42.53125,21.2499997 l 0,10.65625 10.625,0 0,-10.65625 159.46875,0 0,10.65625 10.625,0 0,-10.65625 c 0,-9.8896797 -42.53125,-10.6420897 -42.53125,-21.2499997 l -10.625,0 0,10.625 -10.625,0 0,-10.625 -53.15625,0 0,10.625 -10.625,0 0,-10.625 -10.625,0 z"
       id="rect4466"
       inkscape:connector-curvature="0" />
    <path
       transform="translate(390.77735,87.879556)"
       style="opacity:0.75739644;color:#000000;fill:#000000;fill-opacity:0.29804131;fill-rule:nonzero;stroke:none;stroke-width:0.99921262;marker:none;visibility:visible;display:inline;overflow:visible;enable-background:accumulate"
       d="m 157.2539,-13.598306 0,10.6250003 194.875,0 0,-10.6250003 -194.875,0 z"
       id="rect4468"
       inkscape:connector-curvature="0" />
    <path
       transform="translate(390.77735,87.879556)"
       style="opacity:0.75739644;color:#000000;fill:#000000;fill-opacity:0.29804131;fill-rule:nonzero;stroke:none;stroke-width:0.99921262;marker:none;visibility:visible;display:inline;overflow:visible;enable-background:accumulate"
       d="m 157.6914,-25.129556 0,10.65625 194.875,0 0,-10.65625 -194.875,0 z"
       id="rect4470"
       inkscape:connector-curvature="0" />
    <path
       transform="translate(390.77735,87.879556)"
       style="opacity:0.75739644;color:#000000;fill:#000000;fill-opacity:0.29804131;fill-rule:nonzero;stroke:none;stroke-width:0.99921262;marker:none;visibility:visible;display:inline;overflow:visible;enable-background:accumulate"
       d="m 121.0664,-148.00456 0,69.656253 0,35.9375 c -7.4449,0 -10.625,0.70715 -10.625,6.625 l 10.625,0 0,10.625 -10.625,0 0,10.625 0,31.90625 0,10.625 10.625,0 0,10.625 -10.625,0 c 0,5.91785 3.1801,6.625 10.625,6.625 l 0,35.90625 0,69.718747 10.625,0 0,-69.718747 0,-63.78125 0,-31.90625 0,-63.8125 0,-69.656253 -10.625,0 z"
       id="rect4472"
       inkscape:connector-curvature="0" />
    <path
       transform="translate(390.77735,87.879556)"
       style="opacity:0.75739644;color:#000000;fill:#000000;fill-opacity:0.29804131;fill-rule:nonzero;stroke:none;stroke-width:0.99921262;marker:none;visibility:visible;display:inline;overflow:visible;enable-background:accumulate"
       d="m -1.0236712,236.4487 c -2.88752,-2.8875 -6.55541,-5.0066 -10.6562498,-6 l 0,9.9688 -10.65625,0 0,-9.9688 c -4.08601,0.9898 -7.74233,3.0973 -10.625,5.9688 l 0,4 0.0312,0 0,28.06249 c 2.88634,2.864 6.53913,4.9862 10.625,5.9687 l 0,-10 10.65625,0 0,9.9688 c 4.0888698,-0.9964 7.7444298,-3.1194 10.6249998,-6 l 0,-31.96879 z m -8.46875,15.9688 c 0,4.1584 -3.3415598,7.5312 -7.4999998,7.5312 -4.15844,0 -7.53125,-3.3728 -7.53125,-7.5312 0,-4.1584 3.37281,-7.5 7.53125,-7.5 4.15844,0 7.4999998,3.3416 7.4999998,7.5 z"
       id="rect3396"
       inkscape:connector-curvature="0" />
    <path
       transform="translate(390.77735,87.879556)"
       inkscape:connector-curvature="0"
       id="path3433"
       d="m 106.06998,383.90186 c 2.88752,2.8875 6.55541,5.0066 10.65625,6 l 0,-9.96879 10.65625,0 0,9.96879 c 4.08601,-0.9898 7.74233,-3.0973 10.625,-5.96879 l 0,-4 -0.0312,0 0,-28.0625 c -2.88634,-2.864 -6.53913,-4.9862 -10.625,-5.96871 l 0,10 -10.65625,0 0,-9.96879 c -4.08887,0.99639 -7.74443,3.11939 -10.625,6 l 0,31.96879 z m 8.46875,-15.96879 c 0,-4.1584 3.34156,-7.53121 7.5,-7.53121 4.15844,0 7.53125,3.3728 7.53125,7.53121 0,4.15839 -3.37281,7.5 -7.53125,7.5 -4.15844,0 -7.5,-3.34161 -7.5,-7.5 z"
       style="opacity:0.75739644;color:#000000;fill:#000000;fill-opacity:0.29804131;fill-rule:nonzero;stroke:none;stroke-width:0.99921262;marker:none;visibility:visible;display:inline;overflow:visible;enable-background:accumulate" />
    <path
       transform="translate(390.77735,87.879556)"
       inkscape:connector-curvature="0"
       id="path3439"
       d="m 1.2088585,385.57378 c 2.88752,2.8876 6.55541,5.0066 10.6562495,6 l 0,-9.9688 10.65625,0 0,9.9688 c 4.08601,-0.9898 7.74233,-3.0972 10.625,-5.9688 l 0,-4 -0.0312,0 0,-28.0625 c -2.88634,-2.864 -6.53913,-4.9862 -10.625,-5.9687 l 0,10 -10.65625,0 0,-9.9688 c -4.0888695,0.9964 -7.7444295,3.1194 -10.6249995,6 l 0,31.9688 z m 8.46875,-15.9688 c 0,-4.1584 3.3415595,-7.5312 7.4999995,-7.5312 4.15844,0 7.53125,3.3729 7.53125,7.5312 0,4.1584 -3.37281,7.5 -7.53125,7.5 -4.15844,0 -7.4999995,-3.3416 -7.4999995,-7.5 z"
       style="opacity:0.75739644;color:#000000;fill:#000000;fill-opacity:0.29804131;fill-rule:nonzero;stroke:none;stroke-width:0.99921262;marker:none;visibility:visible;display:inline;overflow:visible;enable-background:accumulate" />
  </g>
  <g
     inkscape:groupmode="layer"
     id="layer3"
     inkscape:label="stuff"
     style="display:inline"
     transform="translate(435.3086,-638.33918)">
    <path
       style="opacity:0.75739644;color:#000000;fill:#000000;fill-opacity:0.29804131;fill-rule:nonzero;stroke:none;stroke-width:0.99921262;marker:none;visibility:visible;display:inline;overflow:visible;enable-background:accumulate"
       d="m 79.78125,726.21875 c -10.0291,0 -18.15625,8.12706 -18.15625,18.15625 l 0,0.0312 c -4.2817,2.92288 -8.13616,6.44523 -11.40625,10.46875 l 0,27.5 c 1.0308,-6.36461 3.4971,-12.37998 7.1875,-17.5625 L 56.5625,761.375 60,760.53125 l 0.84375,3.40625 44.9375,-11.65625 -0.6875,-2.8125 3.4375,-0.84375 0.6875,2.78125 c 10.7083,5.11594 19.1692,14.73303 22.375,27.125 3.2055,12.39043 0.5087,24.92424 -6.375,34.59375 L 73.375,826.53125 c -5.9916,-2.86272 -11.28455,-7.12153 -15.34375,-12.5 1.32,5.06326 2.40225,9.35801 3.96875,15.1875 1.5665,5.82949 11.7534,9.34537 14.875,9.71875 l 35.6875,-9.25 0,30.5625 -6.21875,0 -10.625,0 -24.8125,0 -10.625,0 0.03125,69.15625 0,10.28125 10.625,0 24.8125,0 c 14.43221,0 14.63308,13.875 27.4375,13.875 l 0.1875,0 c -0.1058,-0.51502 -0.1785,-1.10479 -0.1875,-1.71875 -0.0602,-4.29774 2.24069,-8.54261 6.34375,-10.3125 6.9498,-2.99782 8.403,8.92728 7.4375,9.34375 -0.9654,0.41646 -1.7569,-6.06375 -4.875,-4.71875 -2.3857,1.02908 -1.71625,4.17586 -3.15625,7.40625 l 4.875,0 10.625,0 10.625,0 0,-8.625 -10.625,0 0,-10.625 10.625,0 0,-21.25 -10.625,0 0,-10.625 10.625,0 0,-21.25 -10.625,0 0,-10.625 10.625,0 0,-21.25 -12.125,0 c -1.88341,2.04645 4.2838,4.79157 3.875,5.4375 -0.5623,0.8884 -12.11031,-2.41713 -8.0625,-8.8125 0.82539,-1.30411 4.143,-2.30502 5.6875,-3.03125 l 0,-4.21875 10.625,0 0,-27.46875 -10.625,0 0,-10.625 10.625,0 0,-21.25 -10.625,0 0,-10.625 10.625,0 0,-21.25 -10.625,0 0,-10.625 10.625,0 0,-10.625 -10.625,0 -10.625,0 -10.625,0 0,10.625 10.625,0 0,19.9375 c -8.8841,-12.0001 -22.5957,-20.12318 -38.25,-21.375 -3.1237,-5.48465 -9.01645,-9.1875 -15.78125,-9.1875 z m 0,10.8125 c 4.0606,0 7.34375,3.28315 7.34375,7.34375 0,4.0606 -3.28315,7.34375 -7.34375,7.34375 -4.0606,0 -7.34375,-3.28315 -7.34375,-7.34375 0,-4.0606 3.28315,-7.34375 7.34375,-7.34375 z M 123.4375,859.6875 c 0.70009,0.0496 1.08735,0.0873 1.15625,0.15625 0.0689,0.0689 0.0937,0.17374 0.0937,0.28125 0,0.10751 -0.0129,0.24085 -0.0625,0.40625 -0.0496,0.1654 -0.0937,0.38058 -0.0937,0.65625 0,1.52718 0.9732,2.28125 2.875,2.28125 l 6.5625,0 c 0.10473,-0.63404 0.16544,-0.99452 0.1875,-1.09375 0.0331,-0.1654 0.1416,-0.25 0.3125,-0.25 l 0.71875,0 0,4.15625 -0.71875,0 c -0.17094,-10e-6 -0.27948,-0.0846 -0.3125,-0.25 l -0.1875,-0.96875 -6.53125,0 c -2.0341,-10e-6 -3.34767,-0.70257 -3.9375,-2.125 -0.19294,-0.46312 -0.3125,-0.96339 -0.3125,-1.53125 0,-0.56787 0.0957,-1.13985 0.25,-1.71875 z m 4.09375,7.21875 c 0.65598,0 1.24929,0.0938 1.78125,0.28125 0.53194,0.18745 0.9689,0.43391 1.34375,0.78125 0.37484,0.34734 0.67103,0.7878 0.875,1.28125 0.20397,0.49344 0.31251,1.04427 0.3125,1.65625 0,0.61198 -0.10855,1.1628 -0.3125,1.65625 -0.20397,0.49344 -0.50016,0.90541 -0.875,1.25 -0.37486,0.34458 -0.81181,0.59655 -1.34375,0.78125 -0.53196,0.18472 -1.12528,0.28127 -1.78125,0.28125 -0.6615,-10e-6 -1.25206,-0.0966 -1.78125,-0.28125 -0.5292,-0.1847 -1.00015,-0.43667 -1.375,-0.78125 -0.37485,-0.34459 -0.64255,-0.75656 -0.84375,-1.25 -0.2012,-0.49345 -0.3125,-1.04428 -0.3125,-1.65625 0,-0.61198 0.1113,-1.16281 0.3125,-1.65625 0.2012,-0.49345 0.4689,-0.93391 0.84375,-1.28125 0.37485,-0.34734 0.8458,-0.5938 1.375,-0.78125 0.52919,-0.18745 1.11975,-0.28125 1.78125,-0.28125 z m 0,1.5 c -0.49613,10e-6 -0.95237,0.0543 -1.34375,0.15625 -0.39138,0.102 -0.73265,0.262 -1,0.46875 -0.26735,0.20675 -0.45043,0.4725 -0.59375,0.78125 -0.14333,0.30874 -0.21875,0.67473 -0.21875,1.09375 0,0.82699 0.2585,1.43576 0.8125,1.84375 0.554,0.40798 1.3515,0.62499 2.34375,0.625 0.99775,-2e-5 1.75574,-0.21702 2.3125,-0.625 0.55675,-0.408 0.84374,-1.01676 0.84375,-1.84375 -3e-5,-0.41902 -0.0755,-0.78501 -0.21875,-1.09375 -0.14333,-0.30875 -0.35489,-0.5745 -0.625,-0.78125 -0.27012,-0.20675 -0.60586,-0.36676 -1,-0.46875 -0.39415,-0.102 -0.81638,-0.15625 -1.3125,-0.15625 z m -56.625,2.46875 14.1875,0 0,10.625 0,47.90625 -14.1875,0 0,-58.53125 z m 63.90625,4.78125 0.6875,0 0,2.84375 -4.90625,0 c 0.83789,0.7884 1.24999,1.67856 1.25,2.6875 -1e-5,0.90417 -0.2962,1.60857 -0.875,2.09375 -0.56779,0.47965 -1.34231,0.71874 -2.3125,0.71875 l -4.125,0 c -0.10474,0.52927 -0.16545,0.83825 -0.1875,0.9375 -0.0331,0.16539 -0.14161,0.24999 -0.3125,0.25 l -0.6875,0 0,-2.6875 5.3125,0 c 1.33401,-10e-6 1.99999,-0.57567 2,-1.75 -1e-5,-0.81598 -0.379,-1.55533 -1.15625,-2.25 l -4.96875,0 -0.0312,0.1875 c -0.0827,0.43004 -0.13971,0.68935 -0.15625,0.75 -0.0331,0.16539 -0.14161,0.25 -0.3125,0.25 l -0.6875,0 0,-3.875 0.6875,0 c 0.17089,0 0.27943,0.0846 0.3125,0.25 l 0.1875,0.9375 9.78125,0 c 0.10473,-0.63955 0.16544,-0.99451 0.1875,-1.09375 0.0331,-0.1654 0.1416,-0.25 0.3125,-0.25 z m -11.46875,10.5 0.6875,0 c 0.17089,0 0.27943,0.0846 0.3125,0.25 l 0.1875,0.9375 5.96875,0 c 0.10474,-0.52928 0.16546,-0.83826 0.1875,-0.9375 0.0331,-0.1654 0.14162,-0.25 0.3125,-0.25 l 0.71875,0 0,1.1875 0,0.875 c -1e-5,0.2095 -0.10855,0.31986 -0.3125,0.375 l -0.90625,0.125 c 0.89853,0.81597 1.34374,1.74474 1.34375,2.78125 -1e-5,0.90417 -0.29069,1.60306 -0.875,2.09375 -0.56228,0.47415 -1.34231,0.71876 -2.3125,0.71875 l -4.125,0 c -0.10474,0.53479 -0.16545,0.84377 -0.1875,0.9375 -0.0331,0.1709 -0.14161,0.24999 -0.3125,0.25 l -0.6875,0 0,-2.65625 5.3125,0 c 1.33401,-10e-6 1.99999,-0.60692 2,-1.78125 -1e-5,-0.81598 -0.379,-1.55533 -1.15625,-2.25 l -4.96875,0 c -0.006,0.0386 -0.0662,0.34757 -0.1875,0.9375 -0.0331,0.17093 -0.14161,0.25001 -0.3125,0.25 l -0.6875,0 0,-3.84375 z M 129.25,900.0625 c 1.03634,0 1.92677,0.12322 2.6875,0.34375 0.76073,0.22053 1.40737,0.52031 1.90625,0.90625 0.49889,0.38593 0.85121,0.82274 1.09375,1.34375 0.24261,0.52101 0.37506,1.08103 0.375,1.6875 -1e-5,0.60095 -0.13246,1.16098 -0.375,1.6875 -0.24256,0.52652 -0.59489,0.98906 -1.09375,1.375 -0.49889,0.38593 -1.14554,0.68297 -1.90625,0.90625 -0.76073,0.22328 -1.65116,0.34374 -2.6875,0.34375 -1.03636,0 -1.92954,-0.12048 -2.6875,-0.34375 -0.75797,-0.2233 -1.37888,-0.52032 -1.875,-0.90625 -0.49612,-0.38594 -0.88245,-0.84848 -1.125,-1.375 -0.24255,-0.52653 -0.34375,-1.08655 -0.34375,-1.6875 0,-0.60647 0.1012,-1.16649 0.34375,-1.6875 0.24255,-0.52101 0.62888,-0.95782 1.125,-1.34375 0.49612,-0.38594 1.11703,-0.68572 1.875,-0.90625 0.75796,-0.22053 1.65115,-0.34375 2.6875,-0.34375 z m 0,1.53125 c -0.90405,0 -1.66937,0.0671 -2.28125,0.21875 -0.61189,0.15161 -1.09391,0.34013 -1.46875,0.59375 -0.37485,0.25361 -0.64988,0.56993 -0.8125,0.90625 -0.16262,0.33631 -0.25,0.66737 -0.25,1.03125 0,0.36388 0.0874,0.72619 0.25,1.0625 0.16262,0.33632 0.43765,0.61863 0.8125,0.875 0.37484,0.25636 0.85686,0.47338 1.46875,0.625 0.61188,0.15161 1.3772,0.21874 2.28125,0.21875 0.90403,-5e-5 1.66661,-0.0672 2.28125,-0.21875 0.61464,-0.15163 1.12516,-0.36865 1.5,-0.625 0.37484,-0.25638 0.61862,-0.53869 0.78125,-0.875 0.16261,-0.33632 0.24999,-0.69863 0.25,-1.0625 -1.3e-4,-0.36388 -0.0875,-0.69495 -0.25,-1.03125 -0.16263,-0.33632 -0.40641,-0.65264 -0.78125,-0.90625 -0.37485,-0.25362 -0.88537,-0.44214 -1.5,-0.59375 -0.61465,-0.15162 -1.37722,-0.21875 -2.28125,-0.21875 z m -5,8.375 c 0.14332,-10e-6 0.27947,0.0414 0.40625,0.0937 0.12678,0.0524 0.21879,0.12778 0.3125,0.21875 0.0937,0.091 0.16362,0.18569 0.21875,0.3125 0.0551,0.1268 0.0937,0.2629 0.0937,0.40625 0,0.14334 -0.0386,0.27944 -0.0937,0.40625 -0.0551,0.12681 -0.12504,0.25003 -0.21875,0.34375 -0.0937,0.0937 -0.18572,0.16637 -0.3125,0.21875 -0.12679,0.0524 -0.26293,0.0625 -0.40625,0.0625 -0.14884,0 -0.28222,-0.0101 -0.40625,-0.0625 -0.12403,-0.0524 -0.25004,-0.12503 -0.34375,-0.21875 -0.0937,-0.0937 -0.16638,-0.21695 -0.21875,-0.34375 -0.0524,-0.12681 -0.0625,-0.26291 -0.0625,-0.40625 0,-0.14335 0.0101,-0.27945 0.0625,-0.40625 0.0524,-0.12681 0.12504,-0.22153 0.21875,-0.3125 0.0937,-0.091 0.21972,-0.16638 0.34375,-0.21875 0.12403,-0.0524 0.25741,-0.0937 0.40625,-0.0937 z m 3.28125,3.15625 7.65625,5.75 0,1.375 -7.59375,0 0,1.8125 -0.84375,0 c -0.0882,-10e-6 -0.15812,-0.0414 -0.21875,-0.0937 -0.0606,-0.0524 -0.0937,-0.13975 -0.0937,-0.25 l 0,-1.46875 -3.09375,0 0,-1.28125 3.09375,0 0,-5.28125 c 0,-0.11026 0.0303,-0.2013 0.0937,-0.28125 0.0634,-0.08 0.15629,-0.13419 0.25,-0.15625 l 0.75,-0.125 z m 0.0625,1.59375 0,4.25 4.90625,0 c 0.14335,-10e-6 0.3034,-0.008 0.46875,0 0.1654,0.008 0.32363,0.0349 0.5,0.0625 l -5.875,-4.3125 z"
       transform="translate(-390.77735,-87.879556)"
       id="path4536"
       inkscape:connector-curvature="0" />
    <path
       style="opacity:0.75739644;color:#000000;fill:#000000;fill-opacity:0.29804131;fill-rule:nonzero;stroke:none;stroke-width:0.99921262;marker:none;visibility:visible;display:inline;overflow:visible;enable-background:accumulate"
       d="m -150.69557,744.62196 0,10.625 -49.60673,0 0,10.65625 49.60673,0 0,10.625 127.562493,0 0,-10.625 49.606068,0 0,-10.65625 -49.606068,0 0,-10.625 c -42.58042,0.0337 -85.010353,0 -127.562493,0 z m 15.9375,8.4375 c 4.15844,0 7.53125,3.34155 7.53125,7.5 0,4.15844 -3.37281,7.53125 -7.53125,7.53125 -4.15844,0 -7.53125,-3.37281 -7.53125,-7.53125 0,-4.15845 3.37281,-7.5 7.53125,-7.5 z m -62.01298,5.75 10.65625,0 0,3.53125 -10.65625,0 z m 209.056541,0 10.65625,0 0,3.53125 -10.65625,0 z"
       id="rect4420"
       inkscape:connector-curvature="0"
       sodipodi:nodetypes="cccccccccccccssssscccccccccc" />
    <path
       style="opacity:0.75739644;color:#000000;fill:#000000;fill-opacity:0.29804131;fill-rule:nonzero;stroke:none;stroke-width:0.99921262;marker:none;visibility:visible;display:inline;overflow:visible;enable-background:accumulate"
       d="M 0 0 L 0 10.625 L 10.625 10.625 L 10.625 21.25 L 0 21.25 L 0 42.5 L 10.625 42.5 L 10.625 53.125 L 0 53.125 L 0 74.375 L 10.625 74.375 L 10.625 85 L 0 85 L 0 106.25 L 12.125 106.25 C 14.0084 104.20355 7.8412 101.45844 8.25 100.8125 C 8.81231 99.9241 20.36031 103.22963 16.3125 109.625 C 15.48711 110.9291 12.1695 111.93002 10.625 112.65625 L 10.625 116.875 L 0 116.875 L 0 144.34375 L 10.625 144.34375 L 10.625 154.96875 L 0 154.96875 L 0 176.21875 L 10.625 176.21875 L 10.625 186.84375 L 0 186.84375 L 0 208.09375 L 10.625 208.09375 L 10.625 218.71875 L 0 218.71875 L 0 229.34375 L 10.625 229.34375 L 21.25 229.34375 L 31.875 229.34375 L 31.875 218.71875 L 21.25 218.71875 L 21.25 198.78125 C 30.1341 210.78134 43.8457 218.90442 59.5 220.15625 C 62.6237 225.6409 68.51645 229.34375 75.28125 229.34375 C 85.31035 229.34375 93.4375 221.21668 93.4375 211.1875 L 93.4375 211.15625 C 97.7192 208.23335 101.57365 204.71102 104.84375 200.6875 L 104.84375 173.1875 C 103.81295 179.55211 101.34665 185.56747 97.65625 190.75 L 98.5 194.1875 L 95.0625 195.03125 L 94.21875 191.625 L 49.28125 203.28125 L 49.96875 206.09375 L 46.53125 206.9375 L 45.84375 204.15625 C 35.13545 199.0403 26.67455 189.42322 23.46875 177.03125 C 20.26325 164.64082 22.96005 152.107 29.84375 142.4375 L 81.6875 129.03125 C 87.6791 131.89397 92.97205 136.15278 97.03125 141.53125 C 95.71125 136.46798 94.629 132.17324 93.0625 126.34375 C 91.496 120.51425 81.3091 116.99838 78.1875 116.625 L 42.5 125.875 L 42.5 84.6875 L 69.96875 84.6875 L 69.96875 74.0625 L 84.15625 74.0625 L 98.3125 74.0625 L 98.3125 63.4375 L 84.15625 63.4375 L 69.96875 63.4375 L 69.96875 52.8125 L 42.5 52.8125 L 42.5 0 L 31.875 0 L 31.6875 0 C 32.5341 4.12018 30.22046 12.00851 25.53125 14.03125 C 18.58145 17.02906 17.12825 5.10397 18.09375 4.6875 C 19.05916 4.27103 19.85065 10.75124 22.96875 9.40625 C 25.35446 8.37716 24.685 3.23038 26.125 0 L 21.25 0 L 10.625 0 L 0 0 z M 31.6875 34.9375 C 31.84185 35.5164 31.906251 36.08838 31.90625 36.65625 C 31.906249 37.22411 31.81794 37.75563 31.625 38.21875 C 31.035168 39.64118 29.721604 40.34374 27.6875 40.34375 L 21.125 40.34375 L 20.9375 41.28125 C 20.90448 41.44664 20.827189 41.53124 20.65625 41.53125 L 19.9375 41.53125 L 19.9375 37.40625 L 20.65625 37.40625 C 20.827148 37.40625 20.904437 37.49085 20.9375 37.65625 C 20.95956 37.75545 21.02027 38.11596 21.125 38.75 L 27.71875 38.75 C 29.620551 38.75 30.562504 37.99593 30.5625 36.46875 C 30.562501 36.19308 30.54961 35.9779 30.5 35.8125 C 30.45039 35.6471 30.4375 35.48251 30.4375 35.375 C 30.437503 35.26749 30.46235 35.19391 30.53125 35.125 C 30.60016 35.0561 30.987415 34.98712 31.6875 34.9375 z M 27.59375 42.15625 C 28.25525 42.15625 28.845806 42.25005 29.375 42.4375 C 29.9042 42.62495 30.343905 42.90266 30.71875 43.25 C 31.093596 43.59734 31.392548 44.00655 31.59375 44.5 C 31.794954 44.99344 31.906248 45.54427 31.90625 46.15625 C 31.906249 46.76822 31.794954 47.31905 31.59375 47.8125 C 31.392548 48.30594 31.093596 48.74916 30.71875 49.09375 C 30.343905 49.43833 29.9042 49.6903 29.375 49.875 C 28.845806 50.05969 28.25525 50.15624 27.59375 50.15625 C 26.937775 50.15627 26.344462 50.05975 25.8125 49.875 C 25.280557 49.6903 24.812358 49.43833 24.4375 49.09375 C 24.062663 48.74916 23.797722 48.30594 23.59375 47.8125 C 23.389801 47.31905 23.281251 46.76823 23.28125 46.15625 C 23.281241 45.54427 23.389779 44.99344 23.59375 44.5 C 23.797722 44.00655 24.062662 43.59734 24.4375 43.25 C 24.812352 42.90266 25.280556 42.62495 25.8125 42.4375 C 26.344456 42.25005 26.937774 42.15625 27.59375 42.15625 z M 27.59375 43.6875 C 27.097634 43.6875 26.644148 43.7418 26.25 43.84375 C 25.855862 43.94574 25.52012 44.10575 25.25 44.3125 C 24.979893 44.51925 24.799578 44.75375 24.65625 45.0625 C 24.512959 45.37124 24.437533 45.73723 24.4375 46.15625 C 24.437509 46.98324 24.693249 47.62325 25.25 48.03125 C 25.806762 48.43923 26.595996 48.62498 27.59375 48.625 C 28.585997 48.62499 29.352249 48.43923 29.90625 48.03125 C 30.460254 47.62326 30.750001 46.98324 30.75 46.15625 C 30.750001 45.73723 30.67458 45.37124 30.53125 45.0625 C 30.38793 44.75375 30.173604 44.51925 29.90625 44.3125 C 29.6389 44.10575 29.328884 43.94575 28.9375 43.84375 C 28.546119 43.74175 28.089877 43.68751 27.59375 43.6875 z M 19.59375 50.9375 L 20.3125 50.9375 C 20.483399 50.9375 20.591937 51.0221 20.625 51.1875 C 20.64706 51.2867 20.70777 51.6417 20.8125 52.28125 L 30.5625 52.28125 L 30.75 51.34375 C 30.78307 51.17835 30.891613 51.09375 31.0625 51.09375 L 31.78125 51.09375 L 31.78125 54.9375 L 31.0625 54.9375 C 30.891613 54.9375 30.783074 54.8529 30.75 54.6875 C 30.73346 54.6268 30.70769 54.39879 30.625 53.96875 L 30.5625 53.75 L 25.625 53.75 C 24.847749 54.44467 24.437507 55.21527 24.4375 56.03125 C 24.437509 57.20558 25.103491 57.78124 26.4375 57.78125 L 31.78125 57.78125 L 31.78125 60.4375 L 31.0625 60.4375 C 30.891613 60.43749 30.783074 60.3529 30.75 60.1875 C 30.72795 60.0883 30.66724 59.77927 30.5625 59.25 L 26.4375 59.25 C 25.467315 59.24999 24.724044 59.0109 24.15625 58.53125 C 23.577449 58.04607 23.281258 57.34167 23.28125 56.4375 C 23.281259 55.42856 23.693364 54.5384 24.53125 53.75 L 19.59375 53.75 L 19.59375 50.9375 z M 23.40625 61.40625 L 24.125 61.40625 C 24.295879 61.40625 24.404417 61.49085 24.4375 61.65625 C 24.45954 61.75545 24.52026 62.06447 24.625 62.59375 L 30.5625 62.59375 L 30.75 61.65625 C 30.78307 61.49085 30.891613 61.40625 31.0625 61.40625 L 31.78125 61.40625 L 31.78125 65.28125 L 31.0625 65.28125 C 30.891613 65.28126 30.783074 65.20215 30.75 65.03125 C 30.628724 64.44132 30.568016 64.10109 30.5625 64.0625 L 25.625 64.0625 C 24.847749 64.75717 24.437507 65.52777 24.4375 66.34375 C 24.437508 67.51808 25.10349 68.09374 26.4375 68.09375 L 31.78125 68.09375 L 31.78125 70.78125 L 31.0625 70.78125 C 30.891612 70.78124 30.783074 70.70215 30.75 70.53125 C 30.72795 70.43755 30.66724 70.09729 30.5625 69.5625 L 26.4375 69.5625 C 25.467313 69.56251 24.71853 69.34915 24.15625 68.875 C 23.571935 68.38431 23.281257 67.68542 23.28125 66.78125 C 23.281263 65.74474 23.726469 64.81597 24.625 64 L 23.71875 63.875 C 23.514795 63.8199 23.406257 63.67825 23.40625 63.46875 L 23.40625 62.59375 L 23.40625 61.40625 z M 84.15625 66.96875 L 94.78125 66.96875 L 94.78125 70.53125 L 84.15625 70.53125 L 84.15625 66.96875 z M 25.875 75.34375 C 26.911346 75.34375 27.804537 75.43575 28.5625 75.65625 C 29.320468 75.87678 29.941381 76.17656 30.4375 76.5625 C 30.933624 76.94843 31.288703 77.41649 31.53125 77.9375 C 31.773797 78.45851 31.906249 79.01853 31.90625 79.625 C 31.906249 80.22595 31.773797 80.78597 31.53125 81.3125 C 31.288703 81.83902 30.933624 82.30156 30.4375 82.6875 C 29.941381 83.07343 29.320468 83.37045 28.5625 83.59375 C 27.80454 83.81702 26.91136 83.9375 25.875 83.9375 C 24.838664 83.93749 23.91698 83.81703 23.15625 83.59375 C 22.395538 83.37047 21.780137 83.07343 21.28125 82.6875 C 20.782385 82.30156 20.398807 81.83902 20.15625 81.3125 C 19.913714 80.78598 19.812513 80.22595 19.8125 79.625 C 19.81244 79.01853 19.913642 78.45851 20.15625 77.9375 C 20.39879 77.41649 20.782362 76.94843 21.28125 76.5625 C 21.780127 76.17656 22.395522 75.87678 23.15625 75.65625 C 23.916979 75.43572 24.838664 75.34375 25.875 75.34375 z M 25.875 76.84375 C 24.970966 76.84375 24.208402 76.94215 23.59375 77.09375 C 22.979121 77.24536 22.468604 77.43388 22.09375 77.6875 C 21.718915 77.94111 21.443881 78.22618 21.28125 78.5625 C 21.118769 78.8988 21.062631 79.26112 21.0625 79.625 C 21.062509 79.98887 21.11864 80.35118 21.28125 80.6875 C 21.44388 81.02381 21.718914 81.30612 22.09375 81.5625 C 22.468595 81.81885 22.979106 82.03587 23.59375 82.1875 C 24.208392 82.33907 24.970967 82.4062 25.875 82.40625 C 26.779048 82.40624 27.513119 82.33915 28.125 82.1875 C 28.736888 82.03588 29.250156 81.81886 29.625 81.5625 C 29.999847 81.30613 30.243631 81.02382 30.40625 80.6875 C 30.56887 80.35119 30.656252 79.98888 30.65625 79.625 C 30.656252 79.26112 30.56887 78.89881 30.40625 78.5625 C 30.243631 78.22618 29.999847 77.94111 29.625 77.6875 C 29.250156 77.43388 28.736888 77.24536 28.125 77.09375 C 27.513119 76.94213 26.779048 76.84375 25.875 76.84375 z M 30.875 85.25 C 31.023837 85.25 31.15722 85.2601 31.28125 85.3125 C 31.405282 85.3649 31.500039 85.44028 31.59375 85.53125 C 31.68746 85.62225 31.760134 85.74819 31.8125 85.875 C 31.86487 86.0018 31.90625 86.1379 31.90625 86.28125 C 31.906248 86.42459 31.86487 86.56069 31.8125 86.6875 C 31.76013 86.8143 31.687459 86.90627 31.59375 87 C 31.50004 87.0937 31.405282 87.16637 31.28125 87.21875 C 31.15722 87.27115 31.023837 87.3125 30.875 87.3125 C 30.73168 87.31251 30.595535 87.27105 30.46875 87.21875 C 30.341968 87.16635 30.218711 87.09373 30.125 87 C 30.03129 86.9063 29.961379 86.81431 29.90625 86.6875 C 29.85113 86.56069 29.84375 86.42459 29.84375 86.28125 C 29.84375 86.1379 29.85115 86.0018 29.90625 85.875 C 29.96138 85.74819 30.031292 85.62222 30.125 85.53125 C 30.21871 85.44025 30.341968 85.36487 30.46875 85.3125 C 30.595535 85.2601 30.731679 85.25 30.875 85.25 z M 27.59375 88.375 L 28.34375 88.53125 C 28.43746 88.55335 28.499107 88.60755 28.5625 88.6875 C 28.6259 88.7675 28.65625 88.85849 28.65625 88.96875 L 28.65625 94.21875 L 31.78125 94.21875 L 31.78125 95.53125 L 28.65625 95.53125 L 28.65625 97 C 28.656252 97.11025 28.62314 97.19762 28.5625 97.25 C 28.50187 97.3024 28.431955 97.3125 28.34375 97.3125 L 27.5 97.3125 L 27.5 95.53125 L 19.9375 95.53125 L 19.9375 94.15625 L 27.59375 88.375 z M 27.5 89.96875 L 21.65625 94.28125 C 21.832624 94.25365 21.990845 94.2582 22.15625 94.25 C 22.321596 94.242 22.481653 94.21865 22.625 94.21875 L 27.5 94.21875 L 27.5 89.96875 z M 75.28125 203.84375 C 79.34185 203.84375 82.625 207.1269 82.625 211.1875 C 82.625 215.2481 79.34185 218.53125 75.28125 218.53125 C 71.22065 218.53125 67.9375 215.2481 67.9375 211.1875 C 67.9375 207.1269 71.22065 203.84375 75.28125 203.84375 z "
       transform="translate(-435.3086,638.33918)"
       id="rect4432" />
    <path
       style="opacity:0.75739644;color:#000000;fill:#000000;fill-opacity:0.29804131;fill-rule:nonzero;stroke:none;stroke-width:0.99921262;marker:none;visibility:visible;display:inline;overflow:visible;enable-background:accumulate"
       d="m -411.3711,884.19598 117.8125,0 0,6.73568 10.625,0.0312 c -0.007,-0.0197 0.006,-0.0428 0,-0.0625 0,-7.91535 26.45689,-8.31335 26.59375,0 3.6e-4,0.0216 0,0.0408 0,0.0625 l 10.625,-0.0312 0,-6.73568 117.8125,0 0,-11.33858 -117.8125,0 0,-6.70699 -10.625,-0.0312 c 0,0.0217 3.6e-4,0.0409 0,0.0625 -0.13684,8.31335 -26.59375,7.91534 -26.59375,0 0.006,-0.0197 -0.007,-0.0428 0,-0.0625 l -10.625,0.0312 0,6.70699 -117.8125,0 z"
       id="rect4440"
       inkscape:connector-curvature="0"
       sodipodi:nodetypes="ccccccccccccccccccccc" />
    <path
       style="opacity:0.75739644;color:#000000;fill:#000000;fill-opacity:0.29804131;fill-rule:nonzero;stroke:none;stroke-width:0.99921262;marker:none;visibility:visible;display:inline;overflow:visible;enable-background:accumulate"
       d="m -363.33985,670.84608 0,10.02954 10.625,0 0,10.05903 -10.625,0 0,10.02954 10.625,0 10.625,0 0,-30.11811 -10.625,0 -10.625,0 z"
       id="rect4442"
       inkscape:connector-curvature="0" />
    <path
       style="opacity:0.75739644;color:#000000;fill:#000000;fill-opacity:0.29804131;fill-rule:nonzero;stroke:none;stroke-width:0.99921262;marker:none;visibility:visible;display:inline;overflow:visible;enable-background:accumulate"
       d="m -174.43356,660.55793 c -21.52606,0 -38.96875,17.44269 -38.96875,38.96875 0,21.52606 17.44269,38.96875 38.96875,38.96875 21.52607,0 39,-17.44269 39,-38.96875 0,-21.52606 -17.47394,-38.96875 -39,-38.96875 z m -5.3125,33.65625 10.65625,0 0,10.625 -10.65625,0 0,-10.625 z"
       id="rect4454"
       inkscape:connector-curvature="0" />
    <path
       style="opacity:0.75739644;color:#000000;fill:#000000;fill-opacity:0.29804131;fill-rule:nonzero;stroke:none;stroke-width:0.99921262;marker:none;visibility:visible;display:inline;overflow:visible;enable-background:accumulate"
       d="m -14.465434,660.82662 c -21.52606,0 -38.96875,17.44269 -38.96875,38.96875 0,21.52607 17.44269,38.96875 38.96875,38.96875 21.5260603,0 39,-17.44268 39,-38.96875 0,-21.52606 -17.4739397,-38.96875 -39,-38.96875 z m -5.3125,33.65625 10.6562502,0 0,10.625 -10.6562502,0 0,-10.625 z"
       id="rect4458"
       inkscape:connector-curvature="0" />
    <path
       style="opacity:0.75739644;color:#000000;fill:#000000;fill-opacity:0.29804131;fill-rule:nonzero;stroke:none;stroke-width:0.99921262;marker:none;visibility:visible;display:inline;overflow:visible;enable-background:accumulate"
       d="m -95.24605,778.21424 -1.71875,3.96875 -0.25,1.875 0.21875,1.96875 -4.34376,0.84375 -0.5625,-1.875 -0.9375,-1.65625 -3.09375,-2.96875 -2.375,0.96875 -0.0625,4.28125 0.5,1.84375 0.9375,1.71875 -3.6875,2.46875 -1.25,-1.53125 -1.5,-1.15625 -4,-1.5625 -1.78125,1.78125 1.5625,4 1.15625,1.5 1.53125,1.25 -2.46875,3.6875 -1.71875,-0.9375 -1.84375,-0.5 -4.28125,0.0625 -0.96875,2.375 2.96875,3.09375 1.65625,0.9375 1.875,0.5625 -0.84375,4.34375 -1.96875,-0.21875 -1.875,0.25 -3.96874,1.71875 0,2.53125 3.96874,1.75 1.875,0.21875 1.96875,-0.21875 0.84375,4.375 -1.875,0.53125 -1.65625,0.96875 -2.96875,3.09375 0.96875,2.34375 4.28125,0.0937 1.84375,-0.5 1.71875,-0.96875 2.46875,3.71875 -1.53125,1.21875 -1.15625,1.5 -1.5625,4 1.78125,1.8125 4,-1.5625 1.5,-1.15625 1.25,-1.5625 3.6875,2.46875 -0.9375,1.75 -0.5,1.8125 0.0625,4.3125 2.375,0.96875 3.09375,-3 0.9375,-1.625 0.5625,-1.90625 4.34376,0.875 -0.21875,1.96875 0.25,1.875 1.71875,3.9375 2.53125,0 1.75,-3.9375 0.21875,-1.875 -0.21875,-1.96875 4.375,-0.875 0.53125,1.90625 0.96875,1.625 3.09375,3 2.34375,-0.96875 0.0937,-4.3125 -0.5,-1.8125 -0.96875,-1.75 3.71875,-2.46875 1.21875,1.5625 1.5,1.15625 4,1.5625 1.8125,-1.8125 -1.5625,-4 -1.15625,-1.5 -1.5625,-1.21875 2.46875,-3.71875 1.75,0.96875 1.8125,0.5 4.3125,-0.0937 0.96875,-2.34375 -3,-3.09375 -1.625,-0.96875 -1.90625,-0.53125 0.875,-4.375 1.96875,0.21875 1.875,-0.21875 3.9375,-1.75 0,-2.53125 -3.9375,-1.71875 -1.875,-0.25 -1.96875,0.21875 -0.875,-4.34375 1.90625,-0.5625 1.625,-0.9375 3,-3.09375 -0.96875,-2.375 -4.3125,-0.0625 -1.8125,0.5 -1.75,0.9375 -2.46875,-3.6875 1.5625,-1.25 1.15625,-1.5 1.5625,-4 -1.8125,-1.78125 -4,1.5625 -1.5,1.15625 -1.21875,1.53125 -3.71875,-2.46875 0.96875,-1.71875 0.5,-1.84375 -0.0937,-4.28125 -2.34375,-0.96875 -3.09375,2.96875 -0.96875,1.65625 -0.53125,1.875 -4.375,-0.84375 0.21875,-1.96875 -0.21875,-1.875 -1.75,-3.96875 -2.53125,0 z m -4.03125,29.0625 10.625,0 0,10.625 -10.625,0 0,-10.625 z"
       id="rect4464"
       inkscape:connector-curvature="0" />
    <g
       inkscape:label="Gear8"
       transform="matrix(-0.92387953,-0.38268343,0.38268343,-0.92387953,-302.62375,700.27277)"
       id="g3400"
       style="fill:#000000;fill-opacity:0.29804131;stroke:none;display:inline;filter:url(#filter3277);enable-background:new">
      <path
         style="fill:#000000;fill-opacity:0.29804131;stroke:none"
         d="m 59.425533,-136.86687 -1.48015,-1.45022 -4.25313,1.49111 -0.70571,0.66439 -1.5604,2.43905 -3.83803,-1.58976 0.62131,-2.82804 -0.0173,-0.93994 -1.965,-4.09066 -2.06012,0.008 -1.958084,4.09207 -0.02357,0.92303 0.597445,2.83058 -3.811003,1.57857 -1.579067,-2.42398 -0.669344,-0.63602 -4.278103,-1.50895 -1.462174,1.45127 1.503065,4.282 0.652431,0.67685 2.439049,1.56039 -1.589764,3.83803 -2.828033,-0.6213 -0.939942,0.0173 -4.090658,1.965 0.0077,2.06012 4.092066,1.95808 0.92303,0.0236 2.830583,-0.59744 1.578569,3.811 -2.423982,1.57907 -0.636017,0.66934 -1.508953,4.2781 1.451271,1.46218 4.282,-1.50307 0.676847,-0.65243 1.560395,-2.43905 3.838029,1.58977 -0.621303,2.82803 0.02922,0.96881 1.953045,4.06179 2.072075,0.0212 1.95808,-4.09207 0.0116,-0.9519 -0.59744,-2.83058 3.811,-1.57857 1.57907,2.42398 0.6813,0.66489 4.2781,1.50895 1.45022,-1.48014 -1.49111,-4.25313 -0.66439,-0.70572 -2.43905,-1.56039 1.58977,-3.83803 2.82803,0.6213 0.96881,-0.0292 4.06179,-1.95304 0.0212,-2.07208 -4.08011,-1.92921 -0.96386,-0.0405 -2.83058,0.59744 -1.57857,-3.811 2.42398,-1.57907 0.66489,-0.6813 1.50896,-4.2781 z m -13.74541,9.27896 2.32002,5.60102 c -0.36842,0.49202 -0.8333,0.92018 -1.44236,1.17246 -1.807949,0.74888 -3.876882,-0.13202 -4.625759,-1.93997 -0.748877,-1.80795 0.10315,-3.86492 1.911099,-4.6138 0.607386,-0.25159 1.23009,-0.30602 1.837,-0.21971 z"
         id="path3402"
         inkscape:connector-curvature="0" />
    </g>
    <g
       style="fill:#000000;fill-opacity:0.29804131;stroke:none;display:inline;filter:url(#filter3277);enable-background:new"
       id="g3157"
       transform="matrix(-0.92387953,-0.38268343,0.38268343,-0.92387953,-357.23312,788.24151)"
       inkscape:label="Gear8">
      <path
         inkscape:connector-curvature="0"
         id="path3159"
         transform="matrix(0.38268343,0.92387954,-0.92387954,0.38268343,49.305539,-762.64395)"
         d="m 679.375,319.375 -1.90625,0.8125 -0.25,4.5 0.34375,0.90625 1.65625,2.375 -2.9375,2.9375 -2.375,-1.65625 -0.875,-0.34375 -4.53125,0.25 -0.78125,1.90625 3.03125,3.375 0.84375,0.375 2.84375,0.53125 0,4.125 -2.84375,0.53125 -0.84375,0.375 -3.03125,3.375 0.78125,1.90625 4.53125,0.25 0.875,-0.34375 2.375,-1.65625 2.9375,2.9375 -1.65625,2.375 -0.34375,0.875 0.25,4.53125 1.90625,0.78125 3.375,-3.03125 0.375,-0.84375 0.53125,-2.84375 4.125,0 0.53125,2.84375 0.375,0.84375 3.375,3.03125 1.90625,-0.78125 0.25,-4.53125 -0.34375,-0.875 -1.65625,-2.375 2.9375,-2.9375 2.375,1.65625 0.90625,0.34375 4.5,-0.25 0.8125,-1.90625 -3.03125,-3.375 -0.875,-0.375 -2.84375,-0.53125 0,-4.125 2.84375,-0.53125 0.875,-0.375 3.03125,-3.375 -0.8125,-1.90625 -4.5,-0.25 -0.90625,0.34375 -2.375,1.65625 -2.9375,-2.9375 1.65625,-2.375 0.34375,-0.90625 -0.25,-4.5 -1.90625,-0.8125 -3.34375,3.03125 -0.40625,0.875 -0.53125,2.84375 -4.125,0 -0.53125,-2.84375 -0.375,-0.875 -3.375,-3.03125 z m 3.3125,16.25 6.0625,0 c 0.31358,0.52866 0.53125,1.12201 0.53125,1.78125 0,1.95691 -1.60559,3.53125 -3.5625,3.53125 -1.95691,0 -3.53125,-1.57434 -3.53125,-3.53125 0,-0.65743 0.18801,-1.25356 0.5,-1.78125 z"
         style="fill:#000000;fill-opacity:0.29804131;stroke:none" />
    </g>
    <path
       style="opacity:0.75739644;color:#000000;fill:#00ff00;fill-opacity:0.20392157;fill-rule:nonzero;stroke:none;stroke-width:0.77952754;marker:none;visibility:visible;display:inline;overflow:visible;enable-background:accumulate"
       d="m -59.74613,720.52664 0,10.625 2.84375,0 0,10.625 4.9375,0 0,-10.625 2.84375,0 0,-10.625 -10.625,0 z"
       id="rect3612"
       inkscape:connector-curvature="0" />
    <path
       style="opacity:0.75739644;color:#000000;fill:#000000;fill-opacity:0.29804131;fill-rule:nonzero;stroke:none;stroke-width:0.99921262;marker:none;visibility:visible;display:inline;overflow:visible;enable-background:accumulate"
       d="m -386.80407,728.95264 c -2.07259,3.51857 -3.20569,7.60021 -3.14062,11.81914 l 9.65124,-2.49609 2.66823,10.31679 -9.65124,2.4961 c 1.98136,3.70801 4.93715,6.72019 8.43907,8.792 l 3.87257,-1.00156 -0.007,-0.0301 27.16857,-7.0266 c 2.05005,-3.51153 3.19002,-7.57934 3.11815,-11.78106 l -9.68144,2.50391 -2.66824,-10.31678 9.65124,-2.49611 c -1.98847,-3.70913 -4.95916,-6.71666 -8.46927,-8.78418 l -30.95043,8.00471 z m 17.58063,4.20052 c 4.02591,-1.04122 8.12797,1.34938 9.16922,5.37535 1.04124,4.02597 -1.3797,8.13589 -5.40554,9.17709 -4.02593,1.04123 -8.1056,-1.38744 -9.14683,-5.41341 -1.04125,-4.02597 1.35721,-8.09779 5.38315,-9.13903 z"
       id="path3435"
       inkscape:connector-curvature="0" />
    <path
       style="opacity:0.75739644;color:#000000;fill:#000000;fill-opacity:0.39215686;fill-rule:nonzero;stroke:none;stroke-width:0.99921262;marker:none;visibility:visible;display:inline;overflow:visible;enable-background:accumulate"
       d="m -174.54294,782.95788 c -21.52601,0 -38.9687,17.44267 -38.9687,38.96877 0,21.52607 17.4427,39 38.9687,39 21.5261,0 38.9688,-17.47393 38.9688,-39 0,-21.5261 -17.4427,-38.96877 -38.9688,-38.96877 z m 0,31.46874 c 2.0635,0 3.9525,0.84307 5.3125,2.18751 1.3808,1.36495 2.2188,3.24881 2.2188,5.34377 0,2.08732 -0.84681,3.94868 -2.2188,5.3125 -1.3613,1.35322 -3.2413,2.21875 -5.3125,2.21875 -2.0792,0 -3.94991,-0.85617 -5.3125,-2.21875 -1.36251,-1.36259 -2.21871,-3.23328 -2.21871,-5.3125 0,-2.07922 0.8562,-3.94992 2.21871,-5.31252 l 0,-0.0312 0.031,0 c 1.3601,-1.34445 3.2178,-2.18752 5.2813,-2.18752 z m -22.625,2.18751 10.625,0 0,10.65627 -10.625,0 0,-10.65627 z m 34.625,0 10.6563,0 0,10.65627 -10.6563,0 0,-10.65627 z"
       id="path5317"
       inkscape:connector-curvature="0" />
    <path
       inkscape:connector-curvature="0"
       id="path3321"
       d="m -13.589816,782.52668 c -21.526,0 -38.9687,17.44267 -38.9687,38.96874 0,21.52606 17.4427,38.99998 38.9687,38.99998 21.5261,0 38.9688,-17.47392 38.9688,-38.99998 0,-21.52607 -17.4427,-38.96874 -38.9688,-38.96874 z m 0,31.46874 c 2.0635,0 3.9525,0.84306 5.3125,2.1875 1.3808,1.36493 2.2188,3.24879 2.2188,5.34375 0,2.08732 -0.8468,3.94868 -2.2188,5.3125 -1.3613,1.35322 -3.2413,2.21873 -5.3125,2.21873 -2.0792,0 -3.9499,-0.85616 -5.3125,-2.21873 -1.3625,-1.36259 -2.2187,-3.23328 -2.2187,-5.3125 0,-2.07922 0.8562,-3.94992 2.2187,-5.3125 l 0,-0.0312 0.031,0 c 1.3601,-1.34445 3.2178,-2.1875 5.2813,-2.1875 z m -22.625,2.1875 10.625,0 0,10.65625 -10.625,0 0,-10.65625 z m 34.625,0 10.6563,0 0,10.65625 -10.6563,0 0,-10.65625 z"
       style="opacity:0.75739644;color:#000000;fill:#000000;fill-opacity:0.39215686;fill-rule:nonzero;stroke:none;stroke-width:0.99921262;marker:none;visibility:visible;display:inline;overflow:visible;enable-background:accumulate" />
    <path
       inkscape:connector-curvature="0"
       id="path3655"
       d="m -296.02727,685.77664 c -2.88752,-2.88761 -6.55541,-5.0066 -10.65625,-6 l 0,9.96879 -10.65625,0 0,-9.96879 c -4.08601,0.9898 -7.74233,3.09719 -10.625,5.96879 l 0,4 0.0312,0 0,28.0625 c 2.88634,2.86401 6.53913,4.9862 10.625,5.96871 l 0,-10 10.65625,0 0,9.96879 c 4.08887,-0.99639 7.74443,-3.1194 10.625,-6 l 0,-31.96879 z m -8.46875,15.96879 c 0,4.1584 -3.34156,7.53121 -7.5,7.53121 -4.15844,0 -7.53125,-3.37291 -7.53125,-7.53121 0,-4.15839 3.37281,-7.5 7.53125,-7.5 4.15844,0 7.5,3.34161 7.5,7.5 z"
       style="opacity:0.75739644;color:#000000;fill:#000000;fill-opacity:0.29804131;fill-rule:nonzero;stroke:none;stroke-width:0.99921262;marker:none;visibility:visible;display:inline;overflow:visible;enable-background:accumulate" />
    <path
       style="opacity:0.75739644;color:#000000;fill:#000000;fill-opacity:0.29804131;fill-rule:nonzero;stroke:none;stroke-width:0.99921262;marker:none;visibility:visible;display:inline;overflow:visible;enable-background:accumulate"
       d="m -262.08977,685.80785 c -2.88752,-2.88761 -6.55541,-5.0066 -10.65625,-6 l 0,9.96879 -10.65625,0 0,-9.96879 c -4.08601,0.9898 -7.74233,3.09719 -10.625,5.96879 l 0,4 0.0312,0 0,28.0625 c 2.88634,2.86401 6.53913,4.9862 10.625,5.96871 l 0,-10 10.65625,0 0,9.96879 c 4.08887,-0.99639 7.74443,-3.1194 10.625,-6 l 0,-31.96879 z m -8.46875,15.96879 c 0,4.1584 -3.34156,7.53121 -7.5,7.53121 -4.15844,0 -7.53125,-3.37291 -7.53125,-7.53121 0,-4.15839 3.37281,-7.5 7.53125,-7.5 4.15844,0 7.5,3.34161 7.5,7.5 z"
       id="path3657"
       inkscape:connector-curvature="0" />
    <path
       inkscape:connector-curvature="0"
       id="path3659"
       d="m -384.55852,638.33918 c -2.88761,2.88752 -5.0066,6.55541 -6,10.65625 l 9.96879,0 0,10.65625 -9.96879,0 c 0.9898,4.08601 3.09719,7.74233 5.96879,10.625 l 4,0 0,-0.0312 28.0625,0 c 2.86401,-2.88634 4.9862,-6.53913 5.96871,-10.625 l -10,0 0,-10.65625 9.96879,0 c -0.99639,-4.08887 -3.1194,-7.74443 -6,-10.625 l -31.96879,0 z m 15.96879,8.46875 c 4.1584,0 7.53121,3.34156 7.53121,7.5 0,4.15844 -3.37291,7.53125 -7.53121,7.53125 -4.15839,0 -7.5,-3.37281 -7.5,-7.53125 0,-4.15844 3.34161,-7.5 7.5,-7.5 z"
       style="opacity:0.75739644;color:#000000;fill:#000000;fill-opacity:0.29804131;fill-rule:nonzero;stroke:none;stroke-width:0.99921262;marker:none;visibility:visible;display:inline;overflow:visible;enable-background:accumulate" />
    <rect
       style="opacity:0.75739644;color:#000000;fill:#00ff00;fill-opacity:0.29804131;fill-rule:nonzero;stroke:none;stroke-width:0.99921262;marker:none;visibility:visible;display:inline;overflow:visible;enable-background:accumulate"
       id="rect3609"
       width="11.338583"
       height="30.118111"
       x="807.46423"
       y="335.36234"
       transform="matrix(0,1,-1,0,0,0)" />
    <rect
       y="542.24658"
       x="705.57867"
       height="30.118111"
       width="11.338583"
       id="rect3688"
       style="opacity:0.75739644;color:#000000;fill:#00ff00;fill-opacity:0.29804131;fill-rule:nonzero;stroke:none;stroke-width:0.99921262;marker:none;visibility:visible;display:inline;overflow:visible;enable-background:accumulate"
       transform="matrix(0.25153151,0.96784911,-0.96784911,0.25153151,0,0)" />
    <rect
       style="opacity:0.75739644;color:#000000;fill:#00ff00;fill-opacity:0.29804131;fill-rule:nonzero;stroke:none;stroke-width:0.99921262;marker:none;visibility:visible;display:inline;overflow:visible;enable-background:accumulate"
       id="rect3690"
       width="11.338583"
       height="30.118111"
       x="614.43958"
       y="649.18237"
       transform="matrix(0.37289077,0.92787525,-0.92787525,0.37289077,0,0)" />
    <rect
       y="-829.92688"
       x="306.76422"
       height="30.118111"
       width="11.338583"
       id="rect3692"
       style="opacity:0.75739644;color:#000000;fill:#00ff00;fill-opacity:0.29804131;fill-rule:nonzero;stroke:none;stroke-width:0.99921262;marker:none;visibility:visible;display:inline;overflow:visible;enable-background:accumulate"
       transform="scale(-1,-1)" />
    <path
       style="opacity:0.75739644;color:#000000;fill:#000000;fill-opacity:0.29804131;fill-rule:nonzero;stroke:none;stroke-width:0.99921262;marker:none;visibility:visible;display:inline;overflow:visible;enable-background:accumulate"
       d="m 184.9375,726.21875 c 0.30776,0.85406 0.59856,1.72298 0.84375,2.59375 0.73562,2.61231 1.15625,5.29084 1.15625,8.03125 l -10.625,0 -10.625,0 0,10.625 c 0,6.99496 -0.24212,53.125 -10.625,53.125 l 0,0.0625 0,10.5625 0,0.0625 10.625,0 0,10.5625 -10.625,0 0,0.0625 0,10.5625 0,0.0625 0,31.84375 0,0.0625 0,10.5625 0,0.0625 10.625,0 0,10.5625 -10.625,0 0,0.0625 0,10.5625 0,0.0625 c 10.38288,0 10.625,46.13004 10.625,53.125 l 0,10.625 21.25,0 10.625,0 67.34375,0 0,10.625 12.625,0 c -1.1014,-3.54167 -2,-7.07932 -2,-10.625 l 10.625,0 10.625,0 0,-10.625 -10.625,0 -10.625,0 0,-10.625 0,-10.625 0,-3.375 -2.125,0.84375 -1.78125,-1.8125 1.5625,-4 1.15625,-1.5 0.96875,-0.78125 -10.40625,0 0,10.625 0,10.625 0,10.625 -88.59375,0 0,-201.96875 88.59375,0 0,10.625 0,10.625 0,10.625 10.40625,0 -0.96875,-0.78125 -1.15625,-1.5 -1.5625,-4 1.78125,-1.8125 2.125,0.84375 0,-3.375 0,-10.625 0,-10.625 10.625,0 10.625,0 0,-10.625 -10.625,0 -10.625,0 c 0,-3.54568 0.8986,-7.08333 2,-10.625 l -14.625,0 c 0.31457,0.9108 0.59727,1.81047 0.84375,2.71875 0.73943,2.72486 1.15625,5.42386 1.15625,7.90625 l -67.34375,0 c 0,-3.47373 0.35333,-6.99 2,-10.625 l -14.625,0 z"
       transform="translate(-390.77735,-87.879556)"
       id="rect4452"
       inkscape:connector-curvature="0" />
    <path
       style="opacity:0.75739644;color:#000000;fill:#000000;fill-opacity:0.29804131;fill-rule:nonzero;stroke:none;stroke-width:0.99921262;marker:none;visibility:visible;display:inline;overflow:visible;enable-background:accumulate"
       d="m 316.03125,726.21875 c 1.1014,3.54167 2,7.07932 2,10.625 l -10.625,0 -10.625,0 0,10.625 10.625,0 10.625,0 0,10.625 0,10.625 0,3.375 2.15625,-0.84375 1.8125,1.8125 -1.5625,4 -1.15625,1.5 -1,0.78125 10.375,0 0,-10.625 0,-10.625 0,-10.625 88.59375,0 0,201.96875 -88.59375,0 0,-10.625 0,-10.625 0,-10.625 -10.375,0 1,0.78125 1.15625,1.5 1.5625,4 -1.8125,1.8125 -2.15625,-0.84375 0,3.375 0,10.625 0,10.625 -10.625,0 -10.625,0 0,10.625 10.625,0 10.625,0 c 0,3.54568 -0.8986,7.08333 -2,10.625 l 14.625,0 c -1.25825,-3.64318 -2,-7.31514 -2,-10.625 l 67.34375,0 c 0,3.47373 -0.35333,6.99 -2,10.625 l 14.625,0 c -1.23103,-3.41625 -2,-6.97112 -2,-10.625 l 10.625,0 10.625,0 0,-10.625 c 0,-6.99496 0.24212,-53.125 10.625,-53.125 l 0,-0.0625 0,-10.5625 0,-0.0625 -10.625,0 0,-10.5625 10.625,0 0,-0.0625 0,-10.5625 0,-0.0625 0,-31.84375 0,-0.0625 0,-10.5625 0,-0.0625 -10.625,0 0,-10.5625 10.625,0 0,-0.0625 0,-10.5625 0,-0.0625 c -10.38288,0 -10.625,-46.13004 -10.625,-53.125 l 0,-10.625 -10.625,0 -10.625,0 c 0,-2.74041 0.42063,-5.41894 1.15625,-8.03125 0.24519,-0.87077 0.53599,-1.73969 0.84375,-2.59375 l -14.625,0 c 1.64667,3.635 2,7.15127 2,10.625 l -67.34375,0 c 0,-2.48239 0.41682,-5.18139 1.15625,-7.90625 0.24648,-0.90828 0.52918,-1.80795 0.84375,-2.71875 l -14.625,0 z"
       transform="translate(-390.77735,-87.879556)"
       id="path3694"
       inkscape:connector-curvature="0" />
    <path
       inkscape:connector-curvature="0"
       id="path3717"
       d="m -95.24608,742.93289 -1.71875,-3.96875 -0.25,-1.875 0.21875,-1.96875 -4.34377,-0.84375 -0.5625,1.875 -0.9375,1.65625 -3.09375,2.96875 -2.375,-0.96875 -0.0625,-4.28125 0.5,-1.84375 0.9375,-1.71875 -3.6875,-2.46875 -1.25,1.53125 -1.5,1.15625 -4,1.5625 -1.78125,-1.78125 1.5625,-4 1.15625,-1.5 1.53125,-1.25 -2.46875,-3.6875 -1.71875,0.9375 -1.84375,0.5 -4.28125,-0.0625 -0.96875,-2.375 2.96875,-3.09375 1.65625,-0.9375 1.875,-0.5625 -0.84375,-4.34375 -1.96875,0.21875 -1.875,-0.25 -3.96873,-1.71875 0,-2.53125 3.96873,-1.75 1.875,-0.21875 1.96875,0.21875 0.84375,-4.375 -1.875,-0.53125 -1.65625,-0.96875 -2.96875,-3.09375 0.96875,-2.34375 4.28125,-0.0937 1.84375,0.5 1.71875,0.96875 2.46875,-3.71875 -1.53125,-1.21875 -1.15625,-1.5 -1.5625,-4 1.78125,-1.8125 4,1.5625 1.5,1.15625 1.25,1.5625 3.6875,-2.46875 -0.9375,-1.75 -0.5,-1.8125 0.0625,-4.3125 2.375,-0.96875 3.09375,3 0.9375,1.625 0.5625,1.90625 4.34377,-0.875 -0.21875,-1.96875 0.25,-1.875 1.71875,-3.9375 2.53125,0 1.75,3.9375 0.21875,1.875 -0.21875,1.96875 4.375,0.875 0.53125,-1.90625 0.96875,-1.625 3.09375,-3 2.34375,0.96875 0.0937,4.3125 -0.5,1.8125 -0.96875,1.75 3.71875,2.46875 1.21875,-1.5625 1.5,-1.15625 4,-1.5625 1.8125,1.8125 -1.5625,4 -1.15625,1.5 -1.5625,1.21875 2.46875,3.71875 1.75,-0.96875 1.8125,-0.5 4.3125,0.0937 0.96875,2.34375 -3,3.09375 -1.625,0.96875 -1.90625,0.53125 0.875,4.375 1.96875,-0.21875 1.875,0.21875 3.9375,1.75 0,2.53125 -3.9375,1.71875 -1.875,0.25 -1.96875,-0.21875 -0.875,4.34375 1.90625,0.5625 1.625,0.9375 3,3.09375 -0.96875,2.375 -4.3125,0.0625 -1.8125,-0.5 -1.75,-0.9375 -2.46875,3.6875 1.5625,1.25 1.15625,1.5 1.5625,4 -1.8125,1.78125 -4,-1.5625 -1.5,-1.15625 -1.21875,-1.53125 -3.71875,2.46875 0.96875,1.71875 0.5,1.84375 -0.0937,4.28125 -2.34375,0.96875 -3.09375,-2.96875 -0.96875,-1.65625 -0.53125,-1.875 -4.375,0.84375 0.21875,1.96875 -0.21875,1.875 -1.75,3.96875 -2.53125,0 z m -4.03125,-29.0625 10.625,0 0,-10.625 -10.625,0 0,10.625 z"
       style="opacity:0.75739644;color:#000000;fill:#000000;fill-opacity:0.29804131;fill-rule:nonzero;stroke:none;stroke-width:0.99921262;marker:none;visibility:visible;display:inline;overflow:visible;enable-background:accumulate" />
    <rect
       transform="matrix(0,1,-1,0,0,0)"
       y="280.21478"
       x="751.41986"
       height="30.118111"
       width="11.338583"
       id="rect3719"
       style="opacity:0.75739644;color:#000000;fill:#00ff00;fill-opacity:0.29804131;fill-rule:nonzero;stroke:none;stroke-width:0.99921262;marker:none;visibility:visible;display:inline;overflow:visible;enable-background:accumulate" />
    <rect
       style="opacity:0.75739644;color:#000000;fill:#00ff00;fill-opacity:0.29804131;fill-rule:nonzero;stroke:none;stroke-width:0.99921262;marker:none;visibility:visible;display:inline;overflow:visible;enable-background:accumulate"
       id="rect3721"
       width="11.338583"
       height="30.118111"
       x="770.76251"
       y="-293.64642"
       transform="matrix(-0.68661799,0.72701838,-0.72701838,-0.68661799,0,0)" />
    <path
       inkscape:connector-curvature="0"
       id="path3728"
       d="m 26.472684,787.15168 0,-10.625 0,-10.625 -49.605761,0.002 0,10.625 17.730761,-0.002 c 6.9920929,6.99209 4.5371131,4.53711 10.625,10.625 l 0,-10.625 10.625,0 0,10.625 z"
       style="opacity:0.75739644;color:#000000;fill:#000000;fill-opacity:0.29804131;fill-rule:nonzero;stroke:none;stroke-width:0.99921262;marker:none;visibility:visible;display:inline;overflow:visible;enable-background:accumulate"
       sodipodi:nodetypes="ccccccccccc" />
    <path
       sodipodi:nodetypes="ccccccccccc"
       style="opacity:0.75739644;color:#000000;fill:#000000;fill-opacity:0.29804131;fill-rule:nonzero;stroke:none;stroke-width:0.99921262;marker:none;visibility:visible;display:inline;overflow:visible;enable-background:accumulate"
       d="m 26.472684,733.99543 0,10.625 0,10.625 -49.605761,0.002 0,-10.625 17.730761,-0.002 c 6.9920929,-6.99209 4.5371131,-4.53711 10.625,-10.625 l 0,10.625 10.625,0 0,-10.625 z"
       id="path3730"
       inkscape:connector-curvature="0" />
    <path
       inkscape:connector-curvature="0"
       id="path3732"
       d="m -150.69557,735.99696 0,8.625 0,10.625 -63.375,0 0,-10.625 31.5,0 c 0,-5.74719 4.32213,-6.0625 10.625,-6.0625 l 0,6.0625 10.625,0 0,-8.625 z"
       style="opacity:0.75739644;color:#000000;fill:#000000;fill-opacity:0.29804131;fill-rule:nonzero;stroke:none;stroke-width:0.99921262;marker:none;visibility:visible;display:inline;overflow:visible;enable-background:accumulate"
       sodipodi:nodetypes="ccccccccccc" />
    <path
       sodipodi:nodetypes="ccccccccccc"
       style="opacity:0.75739644;color:#000000;fill:#000000;fill-opacity:0.29804131;fill-rule:nonzero;stroke:none;stroke-width:0.99921262;marker:none;visibility:visible;display:inline;overflow:visible;enable-background:accumulate"
       d="m -150.69557,785.15321 0,-8.625 0,-10.625 -63.375,0 0,10.625 31.5,0 c 0,5.74719 4.32213,6.0625 10.625,6.0625 l 0,-6.0625 10.625,0 0,8.625 z"
       id="path3734"
       inkscape:connector-curvature="0" />
    <path
       inkscape:connector-curvature="0"
       id="path3760"
       d="m -138.99613,718.90164 0,10.625 2.84375,0 0,10.625 4.9375,0 0,-10.625 2.84375,0 0,-10.625 -10.625,0 z"
       style="opacity:0.75739644;color:#000000;fill:#00ff00;fill-opacity:0.20392157;fill-rule:nonzero;stroke:none;stroke-width:0.77952754;marker:none;visibility:visible;display:inline;overflow:visible;enable-background:accumulate" />
    <path
       style="opacity:0.75739644;color:#000000;fill:#00ff00;fill-opacity:0.20392157;fill-rule:nonzero;stroke:none;stroke-width:0.77952754;marker:none;visibility:visible;display:inline;overflow:visible;enable-background:accumulate"
       d="m -138.37113,779.02664 0,10.625 2.84375,0 0,10.625 4.9375,0 0,-10.625 2.84375,0 0,-10.625 -10.625,0 z"
       id="path3762"
       inkscape:connector-curvature="0" />
    <path
       inkscape:connector-curvature="0"
       id="path3764"
       d="m -60.621129,778.90164 0,10.625 2.84375,0 0,10.625 4.9375,0 0,-10.625 2.84375,0 0,-10.625 -10.625,0 z"
       style="opacity:0.75739644;color:#000000;fill:#00ff00;fill-opacity:0.20392157;fill-rule:nonzero;stroke:none;stroke-width:0.77952754;marker:none;visibility:visible;display:inline;overflow:visible;enable-background:accumulate" />
    <path
       style="opacity:0.75739644;color:#000000;fill:#00ff00;fill-opacity:0.20392157;fill-rule:nonzero;stroke:none;stroke-width:0.77952754;marker:none;visibility:visible;display:inline;overflow:visible;enable-background:accumulate"
       d="m -345.9961,715.08919 0,10.625 2.84375,0 0,10.625 4.9375,0 0,-10.625 2.84375,0 0,-10.625 -10.625,0 z"
       id="path3789"
       inkscape:connector-curvature="0" />
    <path
       inkscape:connector-curvature="0"
       id="path3791"
       d="m -389.90223,686.21418 10.625,0 0,-2.84375 10.625,0 0,-4.9375 -10.625,0 0,-2.84375 -10.625,0 0,10.625 z"
       style="opacity:0.75739644;color:#000000;fill:#00ff00;fill-opacity:0.20392157;fill-rule:nonzero;stroke:none;stroke-width:0.77952754;marker:none;visibility:visible;display:inline;overflow:visible;enable-background:accumulate" />
  </g>
</svg>
