<?xml version="1.0" encoding="UTF-8" standalone="no"?>
<!-- Created with Inkscape (http://www.inkscape.org/) -->

<svg
   xmlns:dc="http://purl.org/dc/elements/1.1/"
   xmlns:cc="http://creativecommons.org/ns#"
   xmlns:rdf="http://www.w3.org/1999/02/22-rdf-syntax-ns#"
   xmlns:svg="http://www.w3.org/2000/svg"
   xmlns="http://www.w3.org/2000/svg"
   xmlns:sodipodi="http://sodipodi.sourceforge.net/DTD/sodipodi-0.dtd"
   xmlns:inkscape="http://www.inkscape.org/namespaces/inkscape"
   sodipodi:docname="john.svg"
   inkscape:version="0.48.5 r10040"
   version="1.1"
   id="svg3091"
   height="270.92227"
   width="489.38965"
   enable-background="new">
  <sodipodi:namedview
     id="base"
     pagecolor="#ffffff"
     bordercolor="#666666"
     borderopacity="1.0"
     inkscape:pageopacity="0.0"
     inkscape:pageshadow="2"
     inkscape:zoom="0.70710678"
     inkscape:cx="867.65898"
     inkscape:cy="-174.93755"
     inkscape:document-units="mm"
     inkscape:current-layer="layer1"
     showgrid="false"
     inkscape:window-width="1920"
     inkscape:window-height="1005"
     inkscape:window-x="-9"
     inkscape:window-y="-9"
     inkscape:window-maximized="1"
     inkscape:object-paths="true"
     inkscape:object-nodes="true"
     inkscape:snap-object-midpoints="true"
     inkscape:snap-nodes="true"
     inkscape:snap-midpoints="true"
     inkscape:snap-intersection-paths="true"
     inkscape:snap-smooth-nodes="true"
     units="mm"
     fit-margin-top="1"
     fit-margin-right="1"
     fit-margin-bottom="1"
     fit-margin-left="1" />
  <defs
     id="defs3093">
    <filter
       inkscape:collect="always"
       id="filter3277">
      <feBlend
         inkscape:collect="always"
         mode="screen"
         in2="BackgroundImage"
         id="feBlend3279" />
    </filter>
  </defs>
  <metadata
     id="metadata3096">
    <rdf:RDF>
      <cc:Work
         rdf:about="">
        <dc:format>image/svg+xml</dc:format>
        <dc:type
           rdf:resource="http://purl.org/dc/dcmitype/StillImage" />
        <dc:title />
      </cc:Work>
    </rdf:RDF>
  </metadata>
  <g
     inkscape:groupmode="layer"
     id="layer2"
     inkscape:label="Purgatory"
     style="display:inline"
     transform="translate(-47.769143,-190.33973)">
    <path
       style="opacity:0.75739644;color:#000000;fill:#000000;fill-opacity:0.39215686;fill-rule:nonzero;stroke:none;stroke-width:0.99921262;marker:none;visibility:visible;display:inline;overflow:visible;enable-background:accumulate"
       d="m 364.96875,673.15625 0,10.625 0,10.625 0,4.875 c 3.23039,-1.43997 8.37717,-0.77054 9.40625,-3.15625 1.345,-3.11809 -5.13521,-3.90952 -4.71875,-4.875 0.41647,-0.96548 12.34157,0.48771 9.34375,7.4375 -2.02273,4.68926 -9.91106,7.00283 -14.03125,6.15625 l 0,0.1875 0,10.625 125.875,0 -9.25,35.6875 c 0.37338,3.12156 3.88926,13.30849 9.71875,14.875 5.82949,1.56651 10.12424,2.64875 15.1875,3.96875 -5.37847,-4.05916 -9.63728,-9.35219 -12.5,-15.34375 L 507.40625,703 c 9.66951,-6.8837 22.20332,-9.58043 34.59375,-6.375 12.39197,3.20583 22.00906,11.66679 27.125,22.375 l 2.78125,0.6875 -0.84375,3.4375 -2.8125,-0.6875 -11.65625,44.9375 3.40625,0.84375 -0.84375,3.4375 -3.4375,-0.84375 c -5.18252,3.69043 -11.19789,6.15674 -17.5625,7.1875 l 27.5,0 c 4.02352,-3.27002 7.54587,-7.12454 10.46875,-11.40625 0.0104,2e-5 0.0208,0 0.0312,0 10.02919,0 18.15625,-8.12706 18.15625,-18.15625 0,-6.76472 -3.70285,-12.65753 -9.1875,-15.78125 -1.25182,-15.65427 -9.3749,-29.3659 -21.375,-38.25 l 19.9375,0 0,10.625 10.625,0 0,-10.625 0,-10.625 0,-10.625 -10.625,0 0,10.625 -10.625,0 0,-10.625 -21.25,0 0,10.625 -10.625,0 0,-10.625 -21.25,0 0,10.625 -10.625,0 0,-10.625 -27.46875,0 0,10.625 -2.21875,8e-5 c -0.72623,1.54453 -1.72714,4.86202 -3.03125,5.68742 -6.39537,4.04778 -9.7009,-7.5002 -8.8125,-8.0625 0.64593,-0.40883 3.39105,5.75842 5.4375,3.875 l 0,-1.49992 -2,0 0,-10.62508 -21.25,0 0,10.625 -10.625,0 0,-10.625 -21.25,0 0,10.625 -10.625,0 0,-10.625 -21.25,0 0,10.625 -10.625,0 0,-10.625 z m 50.5625,19.625 2.84375,0 0,4.96875 c 0.79264,-0.84252 1.70438,-1.28124 2.71875,-1.28125 0.90904,10e-6 1.60596,0.293 2.09375,0.875 0.48223,0.57094 0.71874,1.33695 0.71875,2.3125 l 0,4.15625 c 0.53212,0.10532 0.83772,0.16533 0.9375,0.1875 0.16628,0.0333 0.24999,0.14067 0.25,0.3125 l 0,0.71875 -2.65625,0 0,-5.375 c -10e-6,-1.34139 -0.6006,-1.99999 -1.78125,-2 -0.82037,10e-6 -1.58284,0.40595 -2.28125,1.1875 l 0,4.96875 0.21875,0.0312 c 0.43235,0.0832 0.65777,0.13962 0.71875,0.15625 0.16628,0.0333 0.25,0.14067 0.25,0.3125 l 0,0.71875 -3.875,0 0,-0.71875 c 0,-0.17183 0.0837,-0.27924 0.25,-0.3125 l 0.96875,-0.1875 0,-9.8125 c -0.64298,-0.10531 -1.02523,-0.16531 -1.125,-0.1875 -0.16629,-0.0332 -0.25,-0.14066 -0.25,-0.3125 z m 28.84375,0.1875 c 0.60418,10e-6 1.18939,0.13112 1.71875,0.375 0.52935,0.2439 0.98699,0.62337 1.375,1.125 0.38801,0.50165 0.68177,1.14133 0.90625,1.90625 0.22448,0.76494 0.34374,1.64543 0.34375,2.6875 0,1.04209 -0.11928,1.9566 -0.34375,2.71875 -0.2245,0.76216 -0.51825,1.40739 -0.90625,1.90625 -0.38802,0.49887 -0.84565,0.84986 -1.375,1.09375 -0.52936,0.24389 -1.11457,0.375 -1.71875,0.375 -0.60973,0 -1.16369,-0.13111 -1.6875,-0.375 -0.52381,-0.24389 -0.98699,-0.59488 -1.375,-1.09375 -0.38801,-0.49886 -0.68453,-1.14409 -0.90625,-1.90625 -0.22172,-0.76216 -0.34375,-1.67667 -0.34375,-2.71875 0,-1.04207 0.12203,-1.92256 0.34375,-2.6875 0.22172,-0.76494 0.51824,-1.40461 0.90625,-1.90625 0.38801,-0.50165 0.85119,-0.88112 1.375,-1.125 0.52381,-0.24395 1.07777,-0.37506 1.6875,-0.375 z m 13.03125,0 c 0.50443,2e-5 0.94817,0.0746 1.375,0.21875 0.4268,0.14413 0.78611,0.35895 1.09375,0.625 0.30764,0.26607 0.54692,0.59184 0.71875,0.96875 0.17183,0.37693 0.28124,0.78995 0.28125,1.25 -7e-5,0.37693 -0.0593,0.70346 -0.15625,1 -0.097,0.29656 -0.22611,0.55677 -0.40625,0.78125 -0.18016,0.2245 -0.40128,0.43855 -0.65625,0.59375 -0.25498,0.15521 -0.55906,0.28078 -0.875,0.375 0.77601,0.2051 1.35921,0.54902 1.75,1.03125 0.39077,0.48224 0.59374,1.08638 0.59375,1.8125 -10e-6,0.54876 -0.10465,1.03086 -0.3125,1.46875 -0.20788,0.4379 -0.48347,0.81737 -0.84375,1.125 -0.3603,0.30763 -0.77054,0.52398 -1.25,0.6875 -0.47947,0.16352 -1.01375,0.25 -1.5625,0.25 -0.6319,0 -1.17602,-0.0608 -1.625,-0.21875 -0.44898,-0.15798 -0.8146,-0.3791 -1.125,-0.65625 -0.31041,-0.27715 -0.55045,-0.6203 -0.75,-1 -0.19955,-0.37969 -0.39268,-0.77531 -0.53125,-1.21875 l 0.65625,-0.28125 c 0.1164,-0.0499 0.22735,-0.0625 0.34375,-0.0625 0.11086,2e-5 0.19533,0.0154 0.28125,0.0625 0.0859,0.0471 0.14316,0.11899 0.1875,0.21875 0.0111,0.0222 0.0202,0.0376 0.0312,0.0625 0.0111,0.0249 0.0515,0.0661 0.0625,0.0937 0.0776,0.16075 0.17039,0.32894 0.28125,0.53125 0.11085,0.20232 0.24903,0.41638 0.4375,0.59375 0.18846,0.17737 0.40757,0.31555 0.6875,0.4375 0.27992,0.12195 0.64677,0.1875 1.0625,0.1875 0.41572,0 0.78057,-0.0829 1.09375,-0.21875 0.31318,-0.1358 0.57339,-0.31507 0.78125,-0.53125 0.20787,-0.21617 0.36344,-0.45269 0.46875,-0.71875 0.10534,-0.26606 0.15627,-0.52073 0.15625,-0.78125 -7e-5,-0.32149 -0.0392,-0.60893 -0.125,-0.875 -0.0859,-0.26606 -0.24428,-0.49349 -0.46875,-0.6875 -0.2245,-0.194 -0.54118,-0.35789 -0.9375,-0.46875 -0.39633,-0.11085 -0.91044,-0.15624 -1.53125,-0.15625 l 0,-1.09375 c 0.50441,-0.006 0.95497,-0.0509 1.3125,-0.15625 0.35752,-0.10532 0.64773,-0.25459 0.875,-0.4375 0.22725,-0.18292 0.39745,-0.40127 0.5,-0.65625 0.10254,-0.25497 0.12499,-0.53334 0.125,-0.84375 -10e-6,-0.34365 -0.0482,-0.65126 -0.15625,-0.90625 -0.10809,-0.25497 -0.24904,-0.4587 -0.4375,-0.625 -0.18847,-0.16628 -0.39851,-0.29185 -0.65625,-0.375 -0.25775,-0.0831 -0.54443,-0.12499 -0.84375,-0.125 -0.29932,9e-5 -0.58878,0.0364 -0.84375,0.125 -0.25498,0.0887 -0.45948,0.21708 -0.65625,0.375 -0.19678,0.15799 -0.36697,0.34356 -0.5,0.5625 -0.13303,0.21895 -0.24599,0.46378 -0.3125,0.71875 -0.0443,0.16075 -0.0988,0.2717 -0.1875,0.34375 -0.0887,0.0722 -0.20518,0.12514 -0.34375,0.125 -0.0277,-2.5e-4 -0.0634,0.003 -0.0937,0 -0.0305,-0.003 -0.055,-0.0258 -0.0937,-0.0312 l -0.78125,-0.125 c 0.0776,-0.54321 0.21578,-1.019 0.4375,-1.4375 0.22172,-0.41852 0.50286,-0.77983 0.84375,-1.0625 0.34089,-0.28268 0.74683,-0.4781 1.1875,-0.625 0.44066,-0.14688 0.92754,-0.24999 1.4375,-0.25 z m -55.46875,0.15625 4.15625,0 0,0.71875 c -10e-6,0.17188 -0.0837,0.24804 -0.25,0.28125 l -0.9375,0.21875 0,6.5625 c -10e-6,2.04536 -0.72617,3.37565 -2.15625,3.96875 -0.46561,0.194 -0.99158,0.28125 -1.5625,0.28125 -0.57093,0 -1.13674,-0.0635 -1.71875,-0.21875 0.0499,-0.70396 0.11821,-1.08696 0.1875,-1.15625 0.0693,-0.0693 0.14191,-0.125 0.25,-0.125 0.10809,0 0.23996,0.0439 0.40625,0.0937 0.16629,0.0499 0.41035,0.0625 0.6875,0.0625 1.5354,0 2.28125,-0.96268 2.28125,-2.875 l 0,-6.59375 c -0.63745,-0.10531 -0.99398,-0.19656 -1.09375,-0.21875 -0.16629,-0.0332 -0.25,-0.10941 -0.25,-0.28125 z m 42.4375,1.125 c -0.36584,1.3e-4 -0.72439,0.0866 -1.0625,0.25 -0.33813,0.16353 -0.62002,0.40434 -0.875,0.78125 -0.25498,0.37693 -0.47257,0.88197 -0.625,1.5 -0.15244,0.61805 -0.21875,1.37221 -0.21875,2.28125 0,0.90905 0.0663,1.69723 0.21875,2.3125 0.15243,0.61527 0.37002,1.09183 0.625,1.46875 0.25498,0.37692 0.53687,0.64898 0.875,0.8125 0.33812,0.16352 0.69666,0.25 1.0625,0.25 0.36584,0 0.72438,-0.0865 1.0625,-0.25 0.33812,-0.16352 0.6485,-0.43558 0.90625,-0.8125 0.25774,-0.37692 0.44131,-0.85348 0.59375,-1.46875 0.15242,-0.61527 0.24999,-1.40345 0.25,-2.3125 -5e-5,-0.90904 -0.0976,-1.66321 -0.25,-2.28125 -0.15245,-0.61804 -0.33602,-1.12308 -0.59375,-1.5 -0.25775,-0.37691 -0.56813,-0.61772 -0.90625,-0.78125 -0.33813,-0.16351 -0.69667,-0.24999 -1.0625,-0.25 z m -33.625,2.21875 c 0.61527,0 1.16015,0.10742 1.65625,0.3125 0.49609,0.2051 0.93481,0.49809 1.28125,0.875 0.34643,0.37693 0.59555,0.84011 0.78125,1.375 0.18571,0.53491 0.28127,1.12165 0.28125,1.78125 -10e-6,0.66516 -0.0956,1.28038 -0.28125,1.8125 -0.1857,0.53213 -0.43482,0.96683 -0.78125,1.34375 -0.34645,0.37692 -0.78516,0.67268 -1.28125,0.875 -0.4961,0.20232 -1.04099,0.3125 -1.65625,0.3125 -0.61527,0 -1.16016,-0.11018 -1.65625,-0.3125 -0.4961,-0.20232 -0.93205,-0.49808 -1.28125,-0.875 -0.34921,-0.37692 -0.62404,-0.81162 -0.8125,-1.34375 -0.18846,-0.53212 -0.28125,-1.14734 -0.28125,-1.8125 0,-0.65961 0.0928,-1.24635 0.28125,-1.78125 0.18846,-0.53489 0.46329,-0.99807 0.8125,-1.375 0.3492,-0.37691 0.78515,-0.6699 1.28125,-0.875 0.49609,-0.2051 1.04098,-0.31251 1.65625,-0.3125 z m 20.71875,0 c 0.90904,10e-6 1.60042,0.28745 2.09375,0.875 0.4767,0.56539 0.71876,1.33694 0.71875,2.3125 l 0,4.15625 c 0.53766,0.10532 0.84326,0.16533 0.9375,0.1875 0.17182,0.0333 0.28124,0.14067 0.28125,0.3125 l 0,0.71875 -2.6875,0 0,-5.375 c -10e-6,-1.34139 -0.6006,-1.99999 -1.78125,-2 -0.82037,10e-6 -1.58284,0.40595 -2.28125,1.1875 l 0,4.96875 c 0.0388,0.006 0.3444,0.0656 0.9375,0.1875 0.17185,0.0333 0.28126,0.14067 0.28125,0.3125 l 0,0.71875 -3.90625,0 0,-0.71875 c 0,-0.17183 0.0837,-0.27924 0.25,-0.3125 l 0.96875,-0.1875 0,-6 c -0.53213,-0.10532 -0.86898,-0.16533 -0.96875,-0.1875 -0.16629,-0.0333 -0.25,-0.14068 -0.25,-0.3125 l 0,-0.71875 1.21875,0 0.875,0 c 0.21063,10e-6 0.35081,0.10742 0.40625,0.3125 l 0.0937,0.9375 c 0.82036,-0.9035 1.77042,-1.37499 2.8125,-1.375 z M 410.75,697.625 c -0.42127,3e-5 -0.78335,0.0747 -1.09375,0.21875 -0.31041,0.14412 -0.57339,0.3534 -0.78125,0.625 -0.20787,0.27161 -0.36621,0.60368 -0.46875,1 -0.10255,0.39633 -0.15625,0.84489 -0.15625,1.34375 10e-6,0.49887 0.0537,0.9502 0.15625,1.34375 0.10255,0.39355 0.26089,0.73117 0.46875,1 0.20786,0.26883 0.47084,0.48089 0.78125,0.625 0.3104,0.14412 0.67248,0.21875 1.09375,0.21875 0.83144,0 1.46482,-0.28668 1.875,-0.84375 0.41017,-0.55707 0.59374,-1.34601 0.59375,-2.34375 -2e-5,-1.00328 -0.18358,-1.78391 -0.59375,-2.34375 -0.41019,-0.55983 -1.04356,-0.84374 -1.875,-0.84375 z m 40.3125,5.4375 c 0.14411,0 0.27876,0.0384 0.40625,0.0937 0.12749,0.0554 0.24952,0.12452 0.34375,0.21875 0.0942,0.0942 0.16609,0.21627 0.21875,0.34375 0.0527,0.12749 0.0625,0.26214 0.0625,0.40625 0,0.14966 -0.01,0.28153 -0.0625,0.40625 -0.0527,0.12472 -0.12453,0.21827 -0.21875,0.3125 -0.0942,0.0942 -0.21627,0.16609 -0.34375,0.21875 -0.12749,0.0527 -0.26214,0.0937 -0.40625,0.0937 -0.14412,0 -0.27877,-0.0412 -0.40625,-0.0937 -0.12749,-0.0527 -0.22104,-0.12452 -0.3125,-0.21875 -0.0915,-0.0942 -0.16609,-0.18778 -0.21875,-0.3125 -0.0527,-0.12472 -0.0937,-0.25659 -0.0937,-0.40625 -10e-6,-0.14411 0.0412,-0.27876 0.0937,-0.40625 0.0527,-0.12748 0.12729,-0.24952 0.21875,-0.34375 0.0915,-0.0942 0.18501,-0.16332 0.3125,-0.21875 0.12748,-0.0554 0.26213,-0.0937 0.40625,-0.0937 z m 125.09375,37.84375 c 4.15845,0 7.53125,3.37281 7.53125,7.53125 0,4.15844 -3.3728,7.53125 -7.53125,7.53125 -4.15844,0 -7.53125,-3.37281 -7.53125,-7.53125 0,-4.15844 3.37281,-7.53125 7.53125,-7.53125 z"
       transform="translate(47.769143,190.33973)"
       id="path3116"
       inkscape:connector-curvature="0"
       sodipodi:nodetypes="ccccssscccccscccscccccccccccsscccccccccccccccccccccccssccccccccccccccccccccccccccccscccccsccsccccsccccssccssssssssccccccccsscccccssccsccccccccccscccccccccccccccccccccccccccccccccccscscsscssccsccccsscscscccccccccccscccssscsscsscccccccccscccccccsccccsccccccccsccsscsscccssscscccscccccccssssss" />
    <path
       style="opacity:0.75739644;color:#000000;fill:#000000;fill-opacity:0.22745098;fill-rule:nonzero;stroke:none;stroke-width:0.99921262;marker:none;visibility:visible;display:inline;overflow:visible;enable-background:accumulate"
       d="m 652.98337,208.11457 0,10.625 0,31.90625 0,10.625 10.625,0 0,-10.625 10.625,0 50.75,0 2.40625,0 21.25,0 2.40625,0 50.75,0 10.625,0 0,10.625 10.625,0 0,-10.625 0,-31.90625 0,-10.625 -10.625,0 0,10.625 -20.9375,0 -3.09375,5.34375 -5.3125,9.1875 -9.25,-5.3125 5.3125,-9.1875 0.0312,-0.0312 -28.125,0 0,0.0312 -2.375,0 0,10.625 -10.65625,0 0,-10.625 -10.625,0 -2.40625,0 0,-0.0312 -61.375,0 0,-10.625 -10.625,0 z m 37.1875,19.0625 c 4.15844,0 7.53125,3.34156 7.53125,7.5 0,4.15844 -3.37281,7.53125 -7.53125,7.53125 -4.15844,0 -7.53125,-3.37281 -7.53125,-7.53125 0,-4.15844 3.37281,-7.5 7.53125,-7.5 z m -26.5625,2.1875 10.625,0 0,10.65625 -10.625,0 0,-10.65625 z m 138.1875,0 10.625,0 0,10.65625 -10.625,0 0,-10.65625 z"
       id="rect4386"
       inkscape:connector-curvature="0"
       inkscape:transform-center-x="-47.843752" />
    <rect
       style="opacity:0.75739644;color:#000000;fill:#000000;fill-opacity:0.22745098;fill-rule:nonzero;stroke:none;stroke-width:0.99921262;marker:none;visibility:visible;display:inline;overflow:visible;enable-background:accumulate"
       id="rect4388"
       width="10.629921"
       height="10.629921"
       x="666.87024"
       y="139.92952" />
    <rect
       style="opacity:0.75739644;color:#000000;fill:#000000;fill-opacity:0.22745098;fill-rule:nonzero;stroke:none;stroke-width:0.99921262;marker:none;visibility:visible;display:inline;overflow:visible;enable-background:accumulate"
       id="rect4415"
       width="10.625"
       height="10.65625"
       x="698.9834"
       y="254.36456" />
    <rect
       y="229.36456"
       x="684.8584"
       height="10.65625"
       width="10.625"
       id="rect4417"
       style="opacity:0.75739644;color:#000000;fill:#000000;fill-opacity:0.22745098;fill-rule:nonzero;stroke:none;stroke-width:0.99921262;marker:none;visibility:visible;display:inline;overflow:visible;enable-background:accumulate" />
    <rect
       y="240.02081"
       x="695.4834"
       height="10.65625"
       width="10.625"
       id="rect4419"
       style="opacity:0.75739644;color:#000000;fill:#000000;fill-opacity:0.22745098;fill-rule:nonzero;stroke:none;stroke-width:0.99921262;marker:none;visibility:visible;display:inline;overflow:visible;enable-background:accumulate" />
    <rect
       style="opacity:0.75739644;color:#000000;fill:#000000;fill-opacity:0.22745098;fill-rule:nonzero;stroke:none;stroke-width:0.99921262;marker:none;visibility:visible;display:inline;overflow:visible;enable-background:accumulate"
       id="rect4421"
       width="10.629921"
       height="157.40944"
       x="-720.36652"
       y="-220.5403"
       transform="matrix(-0.8660254,-0.5,-0.5,0.8660254,0,0)" />
    <rect
       transform="scale(-1,1)"
       y="155.98796"
       x="-695.48584"
       height="157.40944"
       width="10.629921"
       id="rect4423"
       style="opacity:0.75739644;color:#000000;fill:#000000;fill-opacity:0.22745098;fill-rule:nonzero;stroke:none;stroke-width:0.99921262;marker:none;visibility:visible;display:inline;overflow:visible;enable-background:accumulate" />
    <rect
       style="opacity:0.75739644;color:#000000;fill:#000000;fill-opacity:0.22745098;fill-rule:nonzero;stroke:none;stroke-width:0.99921262;marker:none;visibility:visible;display:inline;overflow:visible;enable-background:accumulate"
       id="rect4425"
       width="10.625"
       height="10.65625"
       x="-730.99152"
       y="-163.32521"
       transform="matrix(-0.8660254,-0.5,-0.5,0.8660254,0,0)" />
    <rect
       transform="matrix(-0.8660254,-0.5,-0.5,0.8660254,0,0)"
       y="-173.98145"
       x="-730.99152"
       height="10.65625"
       width="10.625"
       id="rect4427"
       style="opacity:0.75739644;color:#000000;fill:#000000;fill-opacity:0.22745098;fill-rule:nonzero;stroke:none;stroke-width:0.99921262;marker:none;visibility:visible;display:inline;overflow:visible;enable-background:accumulate" />
    <rect
       style="opacity:0.75739644;color:#000000;fill:#000000;fill-opacity:0.22745098;fill-rule:nonzero;stroke:none;stroke-width:0.99921262;marker:none;visibility:visible;display:inline;overflow:visible;enable-background:accumulate"
       id="rect4431"
       width="10.629921"
       height="157.40944"
       x="-759.26294"
       y="155.9962"
       transform="scale(-1,1)" />
    <rect
       style="opacity:0.75739644;color:#000000;fill:#000000;fill-opacity:0.22745098;fill-rule:nonzero;stroke:none;stroke-width:0.99921262;marker:none;visibility:visible;display:inline;overflow:visible;enable-background:accumulate"
       id="rect4511"
       width="10.629921"
       height="74.409447"
       x="748.633"
       y="176.23636" />
    <path
       inkscape:transform-center-x="-41.433922"
       inkscape:connector-curvature="0"
       id="path4515"
       d="m 644.67648,230.2691 5.3125,9.20152 15.95313,27.63162 5.3125,9.20152 9.20152,-5.3125 -5.3125,-9.20152 9.20152,-5.3125 43.95079,-25.375 2.08387,-1.20312 18.40304,-10.625 2.08388,-1.20313 43.95078,-25.375 9.20152,-5.3125 5.3125,9.20152 9.20152,-5.3125 -5.3125,-9.20152 -15.95312,-27.63162 -5.3125,-9.20152 -9.20152,5.3125 5.3125,9.20152 -18.13241,10.46875 -0.007,6.1747 -0.007,10.61286 -10.66698,0.0242 0.007,-10.61286 0.0114,-0.0426 -24.35697,14.0625 0.0156,0.027 -2.05681,1.1875 5.3125,9.20152 -9.22858,5.32812 -5.3125,-9.20152 -9.20152,5.3125 -2.08388,1.20313 -0.0156,-0.027 -53.1523,30.6875 -5.3125,-9.20152 -9.20152,5.3125 z m 41.73657,-2.08514 c 3.60132,-2.07922 8.19304,-0.87175 10.27226,2.72956 2.07922,3.60132 0.84468,8.20866 -2.75663,10.28788 -3.60132,2.07922 -8.20866,0.84469 -10.28788,-2.75663 -2.07922,-3.60131 -0.82906,-8.18159 2.77225,-10.26081 z m -21.91005,15.17568 9.20152,-5.3125 5.32813,9.22858 -9.20152,5.3125 -5.32813,-9.22858 z m 119.67389,-69.09375 9.20152,-5.3125 5.32812,9.22858 -9.20152,5.3125 -5.32812,-9.22858 z"
       style="opacity:0.75739644;color:#000000;fill:#000000;fill-opacity:0.22745098;fill-rule:nonzero;stroke:none;stroke-width:0.99921262;marker:none;visibility:visible;display:inline;overflow:visible;enable-background:accumulate"
       inkscape:transform-center-y="-23.92189" />
    <rect
       transform="matrix(-0.5,-0.8660254,0.8660254,-0.5,0,0)"
       y="432.54175"
       x="-587.3114"
       height="10.629921"
       width="77.952759"
       id="rect4517"
       style="opacity:0.75739644;color:#000000;fill:#000000;fill-opacity:0.22745098;fill-rule:nonzero;stroke:none;stroke-width:0.99921262;marker:none;visibility:visible;display:inline;overflow:visible;enable-background:accumulate" />
    <rect
       style="opacity:0.75739644;color:#000000;fill:#000000;fill-opacity:0.22745098;fill-rule:nonzero;stroke:none;stroke-width:0.99921262;marker:none;visibility:visible;display:inline;overflow:visible;enable-background:accumulate"
       id="rect4519"
       width="27.226597"
       height="52.335129"
       x="668.24799"
       y="240.02081" />
    <rect
       style="opacity:0.75739644;color:#000000;fill:#000000;fill-opacity:0.22745098;fill-rule:nonzero;stroke:none;stroke-width:0.99921262;marker:none;visibility:visible;display:inline;overflow:visible;enable-background:accumulate"
       id="rect4523"
       width="10.629921"
       height="10.629921"
       x="810.28271"
       y="299.00818" />
    <rect
       y="288.37827"
       x="810.28271"
       height="10.629921"
       width="10.629921"
       id="rect4525"
       style="opacity:0.75739644;color:#000000;fill:#000000;fill-opacity:0.22745098;fill-rule:nonzero;stroke:none;stroke-width:0.99921262;marker:none;visibility:visible;display:inline;overflow:visible;enable-background:accumulate" />
    <path
       style="opacity:0.75739644;color:#000000;fill:#000000;fill-opacity:0.22745098;fill-rule:nonzero;stroke:none;stroke-width:0.99921262;marker:none;visibility:visible;display:inline;overflow:visible;enable-background:accumulate"
       d="m 866.64374,280.44547 0,63.75 99.21875,0 0,-63.75 -99.21875,0 z m 44.75,35.4375 c 0.0694,-2e-5 0.12617,0.005 0.1875,0.0312 0.0613,0.0266 0.1408,0.0471 0.1875,0.0937 0.0466,0.0467 0.0657,0.12488 0.0937,0.1875 0.0281,0.0627 0.0625,0.11823 0.0625,0.1875 3e-5,0.0694 -0.0344,0.12754 -0.0625,0.1875 -0.028,0.0601 -0.0471,0.10967 -0.0937,0.15625 -0.0467,0.0468 -0.12619,0.0985 -0.1875,0.125 -0.0613,0.0267 -0.11814,0.0312 -0.1875,0.0312 -0.0693,-2e-5 -0.12752,-0.005 -0.1875,-0.0312 -0.06,-0.0266 -0.10958,-0.0782 -0.15625,-0.125 -0.0466,-0.0466 -0.0983,-0.0962 -0.125,-0.15625 -0.0267,-0.0599 -0.0313,-0.1181 -0.0312,-0.1875 -2e-5,-0.0693 0.005,-0.12477 0.0312,-0.1875 0.0267,-0.0626 0.0784,-0.14082 0.125,-0.1875 0.0467,-0.0467 0.0962,-0.0671 0.15625,-0.0937 0.06,-0.0267 0.11818,-0.0313 0.1875,-0.0312 z m -23.28125,0.0937 2.40625,0 c 1.02132,10e-6 1.65825,0.29635 1.90625,0.875 0.0774,0.18668 0.12503,0.37585 0.125,0.5625 0,0.18667 -0.0185,0.33809 -0.0625,0.46875 -0.044,0.13067 -0.13076,0.23176 -0.21875,0.34375 -0.18933,0.23467 -0.46051,0.42192 -0.8125,0.53125 0.84532,0.168 1.28125,0.60318 1.28125,1.3125 -10e-6,0.49333 -0.18193,0.89417 -0.53125,1.1875 -0.36,0.30133 -0.83676,0.4375 -1.46875,0.4375 l -2.625,0 0,-0.34375 c 0,-0.0827 0.045,-0.109 0.125,-0.125 l 0.46875,-0.0937 0,-4.5625 c -0.256,-0.0507 -0.42075,-0.0831 -0.46875,-0.0937 -0.08,-0.016 -0.125,-0.0736 -0.125,-0.15625 l 0,-0.34375 z m 10,0.34375 0.34375,0 0,1.40625 1.15625,0 0,0.53125 -1.15625,0 0,2.40625 c 0,0.17067 0.0423,0.32358 0.125,0.40625 0.0827,0.0827 0.18183,0.125 0.3125,0.125 0.0747,0 0.13283,-0.0113 0.1875,-0.0312 0.0547,-0.02 0.11625,-0.0385 0.15625,-0.0625 0.04,-0.024 0.0657,-0.0738 0.0937,-0.0937 0.028,-0.02 0.0724,-0.0312 0.0937,-0.0312 0.0373,0 0.0644,0.0484 0.0937,0.0937 l 0.21875,0.34375 c -0.12267,0.11467 -0.29542,0.18467 -0.46875,0.25 -0.17334,0.0653 -0.34725,0.0937 -0.53125,0.0937 -0.32,0 -0.54675,-0.0713 -0.71875,-0.25 -0.172,-0.17866 -0.28125,-0.44525 -0.28125,-0.78125 l 0,-2.46875 -0.46875,0 c -0.0427,0 -0.0957,-0.0372 -0.125,-0.0625 -0.0293,-0.0253 -0.0312,-0.0404 -0.0312,-0.0937 l 0,-0.28125 0.65625,-0.0937 0.15625,-1.25 c 0.005,-0.04 0.0332,-0.0684 0.0625,-0.0937 0.0293,-0.0254 0.0797,-0.0626 0.125,-0.0625 z m 2.90625,0 0.34375,0 0,1.40625 1.15625,0 0,0.53125 -1.15625,0 0,2.40625 c 0,0.17067 0.0423,0.32358 0.125,0.40625 0.0827,0.0827 0.18183,0.125 0.3125,0.125 0.0747,0 0.13283,-0.0113 0.1875,-0.0312 0.0547,-0.02 0.11625,-0.0385 0.15625,-0.0625 0.04,-0.024 0.0657,-0.0738 0.0937,-0.0937 0.028,-0.02 0.0724,-0.0312 0.0937,-0.0312 0.0373,0 0.0644,0.0484 0.0937,0.0937 l 0.21875,0.34375 c -0.12267,0.11467 -0.29542,0.18467 -0.46875,0.25 -0.17334,0.0653 -0.34725,0.0937 -0.53125,0.0937 -0.32,0 -0.54675,-0.0713 -0.71875,-0.25 -0.172,-0.17866 -0.28125,-0.44525 -0.28125,-0.78125 l 0,-2.46875 -0.46875,0 c -0.0427,0 -0.0957,-0.0372 -0.125,-0.0625 -0.0293,-0.0253 -0.0312,-0.0404 -0.0312,-0.0937 l 0,-0.28125 0.65625,-0.0937 0.15625,-1.25 c 0.005,-0.04 0.0332,-0.0684 0.0625,-0.0937 0.0293,-0.0254 0.0797,-0.0626 0.125,-0.0625 z m -11.5625,0.25 0,1.96875 1.03125,0 c 0.63732,0 1.05608,-0.20709 1.21875,-0.59375 0.0507,-0.12267 0.0625,-0.231 0.0625,-0.375 0,-0.336 -0.10984,-0.59267 -0.3125,-0.75 -0.20267,-0.15735 -0.51084,-0.25001 -0.9375,-0.25 l -1.0625,0 z m 5.40625,1 c 0.22663,4e-5 0.41774,0.0503 0.59375,0.125 0.17598,0.0746 0.34876,0.17914 0.46875,0.3125 0.12004,0.13336 0.18869,0.27944 0.25,0.46875 0.0613,0.18941 0.0937,0.39842 0.0937,0.625 l 0,2.03125 0.21875,0.0312 c 0.0846,0.0168 0.15484,0.0247 0.1875,0.0312 0.0358,0.008 0.0713,0.0353 0.0937,0.0625 0.0224,0.0272 0.0306,0.0575 0.0312,0.0937 l 0,0.34375 -0.53125,0 -0.0625,0 -0.25,0 c -0.0694,1e-5 -0.11362,-0.01 -0.15625,-0.0312 -0.0427,-0.0213 -0.0804,-0.0556 -0.0937,-0.125 l -0.0937,-0.375 c -0.10668,0.096 -0.17991,0.17407 -0.28125,0.25 -0.10137,0.0761 -0.2318,0.13553 -0.34375,0.1875 -0.112,0.052 -0.21708,0.0984 -0.34375,0.125 -0.12671,0.0267 -0.28288,0.0312 -0.4375,0.0312 -0.15736,-3e-5 -0.30023,-0.0184 -0.4375,-0.0625 -0.13735,-0.0442 -0.24242,-0.0992 -0.34375,-0.1875 -0.10132,-0.0883 -0.19004,-0.20861 -0.25,-0.34375 -0.06,-0.1351 -0.0938,-0.31538 -0.0937,-0.5 0,-0.16051 0.037,-0.28892 0.125,-0.4375 0.088,-0.14853 0.24153,-0.29121 0.4375,-0.40625 0.196,-0.11502 0.46389,-0.20762 0.78125,-0.28125 0.3173,-0.0736 0.69759,-0.12499 1.15625,-0.125 l 0,-0.3125 c -2e-5,-0.31658 -0.0841,-0.55639 -0.21875,-0.71875 -0.13464,-0.1624 -0.32976,-0.24998 -0.59375,-0.25 -0.17339,2e-5 -0.31891,0.0497 -0.4375,0.0937 -0.11871,0.044 -0.22587,0.0704 -0.3125,0.125 -0.0867,0.0547 -0.15613,0.11227 -0.21875,0.15625 -0.0627,0.044 -0.12624,0.0625 -0.1875,0.0625 -0.048,-2e-5 -0.089,-0.006 -0.125,-0.0312 -0.036,-0.0253 -0.0724,-0.0564 -0.0937,-0.0937 l -0.125,-0.21875 c 0.22397,-0.21603 0.49134,-0.39336 0.75,-0.5 0.25865,-0.10667 0.52906,-0.15622 0.84375,-0.15625 z m 14.65625,0 c 0.20799,0 0.36858,0.0603 0.53125,0.15625 l -0.0625,0.53125 c -0.0187,0.0667 -0.0743,0.0937 -0.125,0.0937 -0.0507,0 -0.11017,-0.006 -0.1875,-0.0312 -0.0773,-0.0253 -0.17384,-0.0312 -0.3125,-0.0312 -0.464,0 -0.83317,0.28109 -1.0625,0.84375 l 0,2 c 0.0667,0.0133 0.23142,0.0457 0.46875,0.0937 0.08,0.016 0.125,0.0423 0.125,0.125 l 0,0.34375 -1.875,0 0,-0.34375 c 0,-0.0827 0.045,-0.109 0.125,-0.125 l 0.46875,-0.0937 0,-2.90625 c -0.256,-0.0507 -0.42075,-0.0831 -0.46875,-0.0937 -0.08,-0.016 -0.125,-0.0423 -0.125,-0.125 l 0,-0.34375 0.59375,0 0.40625,0 c 0.0773,4e-5 0.12692,0.002 0.15625,0.0312 0.0293,0.0293 0.0518,0.0843 0.0625,0.15625 l 0.0312,0.625 c 0.296,-0.59999 0.72467,-0.90625 1.25,-0.90625 z m -4.625,0.0312 c 0.24267,2e-5 0.45092,0.0125 0.65625,0.0937 0.20533,0.0813 0.38192,0.22167 0.53125,0.375 0.14933,0.15334 0.25975,0.33717 0.34375,0.5625 0.084,0.22534 0.125,0.49326 0.125,0.78125 0,0.11201 -0.007,0.18142 -0.0312,0.21875 -0.024,0.0373 -0.0583,0.0312 -0.125,0.0312 l -2.6875,0 c 0.005,0.256 0.0297,0.49817 0.0937,0.6875 0.064,0.18933 0.138,0.34208 0.25,0.46875 0.112,0.12667 0.25158,0.21858 0.40625,0.28125 0.15466,0.0627 0.33925,0.0937 0.53125,0.0937 0.17866,0 0.33942,-0.0212 0.46875,-0.0625 0.12933,-0.0413 0.21917,-0.077 0.3125,-0.125 0.0933,-0.048 0.18733,-0.0837 0.25,-0.125 0.0627,-0.0413 0.11092,-0.0625 0.15625,-0.0625 0.0587,0 0.093,0.0172 0.125,0.0625 l 0.21875,0.25 c -0.088,0.10667 -0.18984,0.20258 -0.3125,0.28125 -0.12267,0.0787 -0.26626,0.13683 -0.40625,0.1875 -0.14,0.0507 -0.28817,0.0997 -0.4375,0.125 -0.14933,0.0253 -0.29084,0.0312 -0.4375,0.0312 -0.28,0 -0.54525,-0.0616 -0.78125,-0.15625 -0.236,-0.0947 -0.42175,-0.22358 -0.59375,-0.40625 -0.172,-0.18266 -0.31025,-0.41817 -0.40625,-0.6875 -0.096,-0.26933 -0.15625,-0.55692 -0.15625,-0.90625 0,-0.28266 0.0383,-0.56717 0.125,-0.8125 0.0867,-0.24533 0.21233,-0.445 0.375,-0.625 0.16267,-0.18 0.35908,-0.33484 0.59375,-0.4375 0.23466,-0.10267 0.51917,-0.125 0.8125,-0.125 z m 9.6875,0 c 0.24267,2e-5 0.48217,0.0125 0.6875,0.0937 0.20533,0.0813 0.38192,0.22167 0.53125,0.375 0.14933,0.15334 0.25975,0.33717 0.34375,0.5625 0.084,0.22534 0.125,0.49326 0.125,0.78125 0,0.11201 -0.007,0.18142 -0.0312,0.21875 -0.024,0.0373 -0.0896,0.0312 -0.15625,0.0312 l -2.6875,0 c 0.005,0.256 0.0297,0.49817 0.0937,0.6875 0.064,0.18933 0.16925,0.34208 0.28125,0.46875 0.112,0.12667 0.25158,0.21858 0.40625,0.28125 0.15466,0.0627 0.308,0.0937 0.5,0.0937 0.17866,0 0.33942,-0.0212 0.46875,-0.0625 0.12933,-0.0413 0.25042,-0.077 0.34375,-0.125 0.0933,-0.048 0.15608,-0.0837 0.21875,-0.125 0.0627,-0.0413 0.11092,-0.0625 0.15625,-0.0625 0.0587,0 0.12425,0.0172 0.15625,0.0625 l 0.1875,0.25 c -0.088,0.10667 -0.18984,0.20258 -0.3125,0.28125 -0.12267,0.0787 -0.23501,0.13683 -0.375,0.1875 -0.14,0.0507 -0.28817,0.0997 -0.4375,0.125 -0.14933,0.0253 -0.32209,0.0312 -0.46875,0.0312 -0.28,0 -0.514,-0.0616 -0.75,-0.15625 -0.236,-0.0947 -0.453,-0.22358 -0.625,-0.40625 -0.172,-0.18266 -0.31025,-0.41817 -0.40625,-0.6875 -0.096,-0.26933 -0.125,-0.55692 -0.125,-0.90625 0,-0.28266 0.0383,-0.56717 0.125,-0.8125 0.0867,-0.24533 0.21233,-0.445 0.375,-0.625 0.16267,-0.18 0.35908,-0.33484 0.59375,-0.4375 0.23466,-0.10267 0.48792,-0.125 0.78125,-0.125 z m -4.125,0.0625 1.28125,0 0,3.46875 0.21875,0.0312 c 0.11965,0.0238 0.20035,0.0213 0.25,0.0312 0.0358,0.008 0.0714,0.0353 0.0937,0.0625 0.0224,0.0272 0.0306,0.0575 0.0312,0.0937 l 0,0.34375 -1.875,0 0,-0.34375 c 6.9e-4,-0.0363 0.009,-0.0665 0.0312,-0.0937 0.0224,-0.0272 0.058,-0.0547 0.0937,-0.0625 0.0497,-0.01 0.13034,-0.007 0.25,-0.0312 l 0.21875,-0.0312 0,-2.90625 -0.21875,-0.0312 c -0.11966,-0.0238 -0.20035,-0.0526 -0.25,-0.0625 -0.0358,-0.008 -0.0714,-0.004 -0.0937,-0.0312 -0.0224,-0.0272 -0.0306,-0.0575 -0.0312,-0.0937 l 0,-0.34375 z m -5.5625,0.4375 c -0.344,0 -0.61517,0.11384 -0.8125,0.3125 -0.19733,0.19867 -0.327,0.46051 -0.375,0.8125 l 2.21875,0 c -2e-5,-0.16533 -0.0172,-0.30017 -0.0625,-0.4375 -0.0453,-0.13733 -0.13076,-0.275 -0.21875,-0.375 -0.088,-0.1 -0.18584,-0.16409 -0.3125,-0.21875 -0.12667,-0.0547 -0.27484,-0.0938 -0.4375,-0.0937 z m 9.71875,0 c -0.344,0 -0.61517,0.11384 -0.8125,0.3125 -0.19733,0.19867 -0.327,0.46051 -0.375,0.8125 l 2.1875,0 c -2e-5,-0.16533 -0.0172,-0.30017 -0.0625,-0.4375 -0.0453,-0.13733 -0.0995,-0.275 -0.1875,-0.375 -0.088,-0.1 -0.18584,-0.16409 -0.3125,-0.21875 -0.12667,-0.0547 -0.27484,-0.0938 -0.4375,-0.0937 z m -25.15625,1 0,2 1.25,0 c 0.63732,0 1.03283,-0.21167 1.1875,-0.625 0.048,-0.12533 0.0625,-0.2855 0.0625,-0.4375 0,-0.29599 -0.10317,-0.5155 -0.3125,-0.6875 -0.20934,-0.172 -0.51351,-0.25 -0.9375,-0.25 l -1.25,0 z m 6.125,0.78135 c -0.328,-10e-6 -0.61441,0.0209 -0.84375,0.0625 -0.22934,0.0416 -0.41853,0.0892 -0.5625,0.15625 -0.14401,0.0671 -0.24719,0.15884 -0.3125,0.25 -0.0654,0.0912 -0.0938,0.16868 -0.0937,0.28125 1e-5,0.1073 0.0278,0.20342 0.0625,0.28125 0.0346,0.0778 0.0663,0.13789 0.125,0.1875 0.0586,0.0496 0.13871,0.10217 0.21875,0.125 0.08,0.0228 0.15665,0.0313 0.25,0.0312 0.1253,10e-6 0.23972,-0.006 0.34375,-0.0312 0.10397,-0.0253 0.2205,-0.0783 0.3125,-0.125 0.092,-0.0466 0.16601,-0.0896 0.25,-0.15625 0.084,-0.0666 0.17001,-0.13341 0.25,-0.21875 l 0,-0.84375 z"
       id="rect4622"
       inkscape:connector-curvature="0" />
    <path
       style="opacity:0.75739644;color:#000000;fill:#000000;fill-opacity:0.22745098;fill-rule:nonzero;stroke:none;stroke-width:0.99921262;marker:none;visibility:visible;display:inline;overflow:visible;enable-background:accumulate"
       d="m 838.28227,301.66422 0,10.65625 c 0,9.88968 42.53125,10.64209 42.53125,21.25 l 10.625,0 0,-10.625 10.625,0 0,10.625 53.15625,0 0,-10.625 10.625,0 0,10.625 10.625,0 c 0,-10.60791 42.53123,-11.36032 42.53123,-21.25 l 0,-10.65625 -10.625,0 0,10.65625 -159.46873,0 0,-10.65625 -10.625,0 z"
       id="rect4589"
       inkscape:connector-curvature="0" />
    <path
       style="opacity:0.75739644;color:#000000;fill:#000000;fill-opacity:0.39215686;fill-rule:nonzero;stroke:none;stroke-width:0.99921262;marker:none;visibility:visible;display:inline;overflow:visible;enable-background:accumulate"
       d="M 364.96875 705.03125 L 364.96875 721.84375 L 364.96875 721.875 L 364.96875 732.46875 L 364.96875 767.90625 L 364.96875 778.53125 L 375.25 778.53125 L 460.28125 778.5625 L 460.28125 767.9375 L 460.28125 732.5 L 460.28125 721.875 L 460.28125 705.03125 L 364.96875 705.03125 z M 375.25 732.5 L 439.03125 732.5 L 449.65625 732.5 L 449.65625 767.9375 L 375.25 767.9375 L 375.25 732.5 z "
       id="rect3110"
       transform="translate(47.769143,190.33973)" />
    <path
       d="m 781.00106,1023.9905 c 5.11771,10.7111 14.74157,19.1783 27.13354,22.3842 12.39197,3.2058 24.91757,0.4662 34.58461,-6.4177 l 13.39942,-51.79479 c -5.11594,-10.70821 -14.74156,-19.17837 -27.13353,-22.3842 -12.39043,-3.20543 -24.90728,-0.49631 -34.57679,6.38739 l -13.40725,51.8251 z"
       id="path3176"
       inkscape:connector-curvature="0"
       style="fill:#000000;fill-opacity:0.39215686;display:inline;filter:url(#filter4654);enable-background:new" />
    <path
       inkscape:connector-curvature="0"
       style="fill:#cc0000;fill-opacity:0.39215686;display:inline;filter:url(#filter4654);enable-background:new"
       d="m 801.40975,1001.6234 c -2.4506,9.4727 3.24353,19.1412 12.71624,21.5918 9.47271,2.4506 19.14118,-3.2435 21.59179,-12.7162 2.45061,-9.4727 -3.24352,-19.1412 -12.71624,-21.59181 -9.47272,-2.45061 -19.14118,3.24352 -21.59179,12.71621 z m 4.97458,30.3056 c -0.73519,2.8418 0.97081,5.7385 3.81263,6.4737 2.84181,0.7352 5.73854,-0.9708 6.47373,-3.8126 0.73518,-2.8418 -0.97082,-5.7386 -3.81263,-6.4737 -2.84182,-0.7352 -5.73855,0.9708 -6.47373,3.8126 z m 14.06469,-54.36644 c -0.73518,2.84182 0.97082,5.73855 3.81263,6.47373 2.84181,0.73519 5.73855,-0.97081 6.47373,-3.81263 0.73518,-2.84181 -0.97082,-5.73854 -3.81263,-6.47373 -2.84182,-0.73518 -5.73855,0.97082 -6.47373,3.81263 z"
       id="path3178" />
    <rect
       y="674.46661"
       x="281.06204"
       height="144.5"
       width="437"
       id="rect3192"
       style="opacity:0.75739644;color:#000000;fill:#000000;fill-opacity:0.39215686;fill-rule:nonzero;stroke:none;stroke-width:0.99921262;marker:none;visibility:visible;display:inline;overflow:visible;enable-background:accumulate" />
    <path
       style="opacity:0.75739644;color:#000000;fill:#000000;fill-opacity:0.39215686;fill-rule:nonzero;stroke:none;stroke-width:0.99921262;marker:none;visibility:visible;display:inline;overflow:visible;enable-background:accumulate"
       d="M 417.78125 705.03125 L 417.78125 721.875 L 417.78125 732.5 L 428.40625 732.5 L 428.40625 778.53125 L 439.03125 778.53125 L 439.03125 732.5 L 449.65625 732.5 L 449.65625 721.875 L 449.65625 705.03125 L 417.78125 705.03125 z "
       transform="translate(47.769143,190.33973)"
       id="rect3194" />
    <rect
       style="opacity:0.75739644;color:#000000;fill:#000000;fill-opacity:0.39215686;fill-rule:nonzero;stroke:none;stroke-width:0.99921262;marker:none;visibility:visible;display:inline;overflow:visible;enable-background:accumulate"
       id="rect3247"
       width="10.625"
       height="10.629921"
       x="476.17538"
       y="922.83972" />
    <rect
       y="933.46967"
       x="476.17538"
       height="10.629921"
       width="10.625"
       id="rect3249"
       style="opacity:0.75739644;color:#000000;fill:#000000;fill-opacity:0.39215686;fill-rule:nonzero;stroke:none;stroke-width:0.99921262;marker:none;visibility:visible;display:inline;overflow:visible;enable-background:accumulate" />
  </g>
  <g
     inkscape:label="links"
     inkscape:groupmode="layer"
     id="layer1"
     style="display:inline;filter:url(#filter3277)"
     transform="translate(-47.769143,-190.33973)">
    <path
       style="opacity:0.75739644;color:#000000;fill:#000000;fill-opacity:0.39215686;fill-rule:nonzero;stroke:none;stroke-width:0.99921262;marker:none;visibility:visible;display:inline;overflow:visible;enable-background:accumulate"
       d="M 433.6875 709.46875 C 412.16144 709.46875 394.71875 726.9115 394.71875 748.4375 C 394.71875 769.9636 412.16144 787.40625 433.6875 787.40625 C 455.21356 787.40625 472.6875 769.9636 472.6875 748.4375 C 472.6875 726.91149 455.21356 709.46875 433.6875 709.46875 z M 428.375 743.125 L 439.03125 743.125 L 439.03125 753.75 L 428.375 753.75 L 428.375 743.125 z "
       transform="translate(47.769143,190.33973)"
       id="rect3303" />
    <path
       inkscape:transform-center-x="-47.843752"
       inkscape:connector-curvature="0"
       id="path3047"
       d="m 322.63107,404.56245 0,10.625 0,31.90625 0,10.625 10.625,0 0,-10.625 10.625,0 50.75,0 2.40625,0 21.25,0 2.40625,0 50.75,0 10.625,0 0,10.625 10.625,0 0,-10.625 0,-31.90625 0,-10.625 -10.625,0 0,10.625 -20.9375,0 -3.09375,5.34375 -5.3125,9.1875 -9.25,-5.3125 5.3125,-9.1875 0.0312,-0.0312 -28.125,0 0,0.0312 -2.375,0 0,10.625 -10.65625,0 0,-10.625 -10.625,0 -2.40625,0 0,-0.0312 -61.375,0 0,-10.625 -10.625,0 z m 37.1875,19.0625 c 4.15844,0 7.53125,3.34156 7.53125,7.5 0,4.15844 -3.37281,7.53125 -7.53125,7.53125 -4.15844,0 -7.53125,-3.37281 -7.53125,-7.53125 0,-4.15844 3.37281,-7.5 7.53125,-7.5 z m -26.5625,2.1875 10.625,0 0,10.65625 -10.625,0 0,-10.65625 z m 138.1875,0 10.625,0 0,10.65625 -10.625,0 0,-10.65625 z"
       style="opacity:0.75739644;color:#000000;fill:#000000;fill-opacity:0.22745098;fill-rule:nonzero;stroke:none;stroke-width:0.99921262;marker:none;visibility:visible;display:inline;overflow:visible;enable-background:accumulate" />
    <path
       id="path4506"
       d="m 398.08424,336.65626 0,53.15624 10.625,0 10.625,0 0,-10.625 -10.625,0 0,-10.625 10.625,0 0,-10.625 -10.625,0 0,-10.65625 10.625,0 0,-10.62499 -10.625,0 -10.625,0 z"
       style="opacity:0.75739644;color:#000000;fill:#000000;fill-opacity:0.22745098;fill-rule:nonzero;stroke:none;stroke-width:0.99921262;marker:none;visibility:visible;display:inline;overflow:visible;enable-background:accumulate"
       inkscape:connector-curvature="0" />
    <g
       id="g3335">
      <path
         id="path4340"
         transform="translate(47.769143,190.33973)"
         d="m 415.75,132.5 c -21.52606,0 -39,17.44269 -39,38.96875 0,21.52606 17.47394,38.96875 39,38.96875 21.52606,0 38.96875,-17.44269 38.96875,-38.96875 C 454.71875,149.94269 437.27606,132.5 415.75,132.5 z m -0.0312,21.25 c 9.78457,0 17.71875,7.93418 17.71875,17.71875 0,9.78457 -7.93418,17.71875 -17.71875,17.71875 -9.78462,0 -17.7188,-7.93418 -17.7188,-17.71875 0,-9.78457 7.93418,-17.71875 17.71875,-17.71875 z"
         style="opacity:0.75739644;color:#000000;fill:#000000;fill-opacity:0.29803922;fill-rule:nonzero;stroke:none;stroke-width:0.99921262;marker:none;visibility:visible;display:inline;overflow:visible;enable-background:accumulate"
         inkscape:connector-curvature="0" />
      <rect
         transform="scale(-1,-1)"
         y="-370.67404"
         x="-468.80203"
         height="17.71875"
         width="10.625"
         id="rect4405"
         style="opacity:0.75739644;color:#000000;fill:#000000;fill-opacity:0.22745098;fill-rule:nonzero;stroke:none;stroke-width:0.99921262;marker:none;visibility:visible;display:inline;overflow:visible;enable-background:accumulate" />
    </g>
    <path
       inkscape:connector-curvature="0"
       style="opacity:0.75739644;color:#000000;fill:#000000;fill-opacity:0.29803922;fill-rule:nonzero;stroke:none;stroke-width:0.99921262;marker:none;visibility:visible;display:inline;overflow:visible;enable-background:accumulate"
       d="m 354.01914,322.83973 c -21.52606,0 -39,17.44269 -39,38.96875 0,21.52606 17.47394,38.96875 39,38.96875 21.52606,0 38.96875,-17.44269 38.96875,-38.96875 0,-21.52606 -17.44269,-38.96875 -38.96875,-38.96875 z m 0,21.25 c 9.78457,0 17.71875,7.93418 17.71875,17.71875 0,9.78457 -7.93418,17.71875 -17.71875,17.71875 -9.78457,0 -17.71875,-7.93418 -17.71875,-17.71875 0,-9.78457 7.93418,-17.71875 17.71875,-17.71875 z"
       id="path3086" />
    <rect
       y="-370.67404"
       x="-359.32632"
       height="17.71875"
       width="10.625"
       id="rect3088"
       style="opacity:0.75739644;color:#000000;fill:#000000;fill-opacity:0.22745098;fill-rule:nonzero;stroke:none;stroke-width:0.99921262;marker:none;visibility:visible;display:inline;overflow:visible;enable-background:accumulate"
       transform="scale(-1,-1)" />
    <path
       style="opacity:0.75739644;color:#000000;fill:#000000;fill-opacity:0.22745098;fill-rule:nonzero;stroke:none;stroke-width:0.99921262;marker:none;visibility:visible;display:inline;overflow:visible;enable-background:accumulate"
       d="m 302.75,118.5625 c -48.47649,0.11479 -48.96875,1.65451 -48.96875,21.25 l 0,43.625 -0.0312,0 c -5e-5,26.49014 -7.68402,35.40625 -17.71875,35.40625 l 0,39.03125 10.625,0 0,-28.34375 7.09375,0 0,28.34375 10.625,0 0,-43.65625 19.9375,0 0,-9.53125 -19.90625,0 0,-64.875 17.71875,0 c 6.69741,-5.09201 15.06713,-8.125 24.125,-8.125 9.05787,0 17.40882,3.03299 24.09375,8.125 l 61.28125,0 c 6.69117,-5.09201 15.03588,-8.125 24.09375,-8.125 9.05788,0 17.40882,3.03299 24.09375,8.125 l 17.6875,0 0,64.875 -19.875,0 0,9.53125 19.875,0 0,43.65625 10.625,0 0,-28.34375 7.09375,0 0,28.34375 10.625,0 0,-39.03125 c -10.03473,0 -17.71875,-8.91611 -17.71875,-35.40625 l 0,-43.625 c 0,-21.13561 -0.0476,-21.25 -59.34375,-21.25 l -10.625,0 0,10.625 -10.625,0 0,-10.625 -53.15625,0 0,10.625 -10.625,0 0,-10.625 -10.65625,0 c -3.67242,0 -7.11198,-0.008 -10.34375,0 z"
       transform="translate(47.769143,190.33973)"
       id="path3117"
       inkscape:connector-curvature="0" />
    <path
       inkscape:connector-curvature="0"
       id="path4390"
       d="m 213.57843,267.06831 -1.71875,3.96875 -0.25,1.875 0.21875,1.96875 -4.34375,0.84375 -0.5625,-1.875 -0.9375,-1.65625 -3.09375,-2.96875 -2.375,0.96875 -0.0625,4.28125 0.5,1.84375 0.9375,1.71875 -3.6875,2.46875 -1.25,-1.53125 -1.5,-1.15625 -4,-1.5625 -1.78125,1.78125 1.5625,4 1.15625,1.5 1.53125,1.25 -2.46875,3.6875 -1.71875,-0.9375 -1.84375,-0.5 -4.28125,0.0625 -0.96875,2.375 2.96875,3.09375 1.65625,0.9375 1.875,0.5625 -0.84375,4.34375 -1.96875,-0.21875 -1.875,0.25 -3.96875,1.71875 0,2.53125 3.96875,1.75 1.875,0.21875 1.96875,-0.21875 0.84375,4.375 -1.875,0.53125 -1.65625,0.96875 -2.96875,3.09375 0.96875,2.34375 4.28125,0.0937 1.84375,-0.5 1.71875,-0.96875 2.46875,3.71875 -1.53125,1.21875 -1.15625,1.5 -1.5625,4 1.78125,1.8125 4,-1.5625 1.5,-1.15625 1.25,-1.5625 3.6875,2.46875 -0.9375,1.75 -0.5,1.8125 0.0625,4.3125 2.375,0.96875 3.09375,-3 0.9375,-1.625 0.5625,-1.90625 4.34375,0.875 -0.21875,1.96875 0.25,1.875 1.71875,3.9375 2.53125,0 1.75,-3.9375 0.21875,-1.875 -0.21875,-1.96875 4.375,-0.875 0.53125,1.90625 0.96875,1.625 3.09375,3 2.34375,-0.96875 0.0937,-4.3125 -0.5,-1.8125 -0.96875,-1.75 3.71875,-2.46875 1.21875,1.5625 1.5,1.15625 4,1.5625 1.8125,-1.8125 -1.5625,-4 -1.15625,-1.5 -1.5625,-1.21875 2.46875,-3.71875 1.75,0.96875 1.8125,0.5 4.3125,-0.0937 0.96875,-2.34375 -3,-3.09375 -1.625,-0.96875 -1.90625,-0.53125 0.875,-4.375 1.96875,0.21875 1.875,-0.21875 3.9375,-1.75 0,-2.53125 -3.9375,-1.71875 -1.875,-0.25 -1.96875,0.21875 -0.875,-4.34375 1.90625,-0.5625 1.625,-0.9375 3,-3.09375 -0.96875,-2.375 -4.3125,-0.0625 -1.8125,0.5 -1.75,0.9375 -2.46875,-3.6875 1.5625,-1.25 1.15625,-1.5 1.5625,-4 -1.8125,-1.78125 -4,1.5625 -1.5,1.15625 -1.21875,1.53125 -3.71875,-2.46875 0.96875,-1.71875 0.5,-1.84375 -0.0937,-4.28125 -2.34375,-0.96875 -3.09375,2.96875 -0.96875,1.65625 -0.53125,1.875 -4.375,-0.84375 0.21875,-1.96875 -0.21875,-1.875 -1.75,-3.96875 -2.53125,0 z m -4.03125,29.0625 10.625,0 0,10.625 -10.625,0 0,-10.625 z"
       style="fill:#000000;fill-opacity:0.29803922;stroke:none" />
    <path
       style="opacity:0.75739644;color:#000000;fill:#000000;fill-opacity:0.22745098;fill-rule:nonzero;stroke:none;stroke-width:0.99921262;marker:none;visibility:visible;display:inline;overflow:visible;enable-background:accumulate"
       d="m 202.76544,193.88304 -10.625,0.0312 0,7.0625 -117.812487,0 0,10.65625 117.812487,0 0,7.0625 10.625,0.0312 c 0,-0.0217 -3.6e-4,-0.0409 0,-0.0625 0.13684,-8.31335 26.59375,-7.91534 26.59375,0 -0.006,0.0197 0.007,0.0428 0,0.0625 l 10.625,-0.0312 0,-7.0625 117.8125,0 0,-10.65625 -117.8125,0 0,-7.0625 -10.625,-0.0312 c 0.007,0.0197 -0.006,0.0428 0,0.0625 0,7.91535 -26.4569,8.31335 -26.59375,0 -3.6e-4,-0.0216 0,-0.0408 0,-0.0625 z"
       id="rect4554"
       inkscape:connector-curvature="0" />
    <path
       style="fill:#000000;fill-opacity:0.29803922;stroke:none"
       d="m 460.1393,208.20743 -1.71875,3.96875 -0.25,1.875 0.21875,1.96875 -4.34375,0.84375 -0.5625,-1.875 -0.9375,-1.65625 -3.09375,-2.96875 -2.375,0.96875 -0.0625,4.28125 0.5,1.84375 0.9375,1.71875 -3.6875,2.46875 -1.25,-1.53125 -1.5,-1.15625 -4,-1.5625 -1.78125,1.78125 1.5625,4 1.15625,1.5 1.53125,1.25 -2.46875,3.6875 -1.71875,-0.9375 -1.84375,-0.5 -4.28125,0.0625 -0.96875,2.375 2.96875,3.09375 1.65625,0.9375 1.875,0.5625 -0.84375,4.34375 -1.96875,-0.21875 -1.875,0.25 -3.96875,1.71875 0,2.53125 3.96875,1.75 1.875,0.21875 1.96875,-0.21875 0.84375,4.375 -1.875,0.53125 -1.65625,0.96875 -2.96875,3.09375 0.96875,2.34375 4.28125,0.0937 1.84375,-0.5 1.71875,-0.96875 2.46875,3.71875 -1.53125,1.21875 -1.15625,1.5 -1.5625,4 1.78125,1.8125 4,-1.5625 1.5,-1.15625 1.25,-1.5625 3.6875,2.46875 -0.9375,1.75 -0.5,1.8125 0.0625,4.3125 2.375,0.96875 3.09375,-3 0.9375,-1.625 0.5625,-1.90625 4.34375,0.875 -0.21875,1.96875 0.25,1.875 1.71875,3.9375 2.53125,0 1.75,-3.9375 0.21875,-1.875 -0.21875,-1.96875 4.375,-0.875 0.53125,1.90625 0.96875,1.625 3.09375,3 2.34375,-0.96875 0.0937,-4.3125 -0.5,-1.8125 -0.96875,-1.75 3.71875,-2.46875 1.21875,1.5625 1.5,1.15625 4,1.5625 1.8125,-1.8125 -1.5625,-4 -1.15625,-1.5 -1.5625,-1.21875 2.46875,-3.71875 1.75,0.96875 1.8125,0.5 4.3125,-0.0937 0.96875,-2.34375 -3,-3.09375 -1.625,-0.96875 -1.90625,-0.53125 0.875,-4.375 1.96875,0.21875 1.875,-0.21875 3.9375,-1.75 0,-2.53125 -3.9375,-1.71875 -1.875,-0.25 -1.96875,0.21875 -0.875,-4.34375 1.90625,-0.5625 1.625,-0.9375 3,-3.09375 -0.96875,-2.375 -4.3125,-0.0625 -1.8125,0.5 -1.75,0.9375 -2.46875,-3.6875 1.5625,-1.25 1.15625,-1.5 1.5625,-4 -1.8125,-1.78125 -4,1.5625 -1.5,1.15625 -1.21875,1.53125 -3.71875,-2.46875 0.96875,-1.71875 0.5,-1.84375 -0.0937,-4.28125 -2.34375,-0.96875 -3.09375,2.96875 -0.96875,1.65625 -0.53125,1.875 -4.375,-0.84375 0.21875,-1.96875 -0.21875,-1.875 -1.75,-3.96875 -2.53125,0 z m -4.03125,29.0625 10.625,0 0,10.625 -10.625,0 0,-10.625 z"
       id="path3493"
       inkscape:connector-curvature="0" />
    <path
       style="opacity:0.75739644;color:#000000;fill:#000000;fill-opacity:0.22745098;fill-rule:nonzero;stroke:none;stroke-width:0.99921262;marker:none;visibility:visible;display:inline;overflow:visible;enable-background:accumulate"
       d="m 81.5312,342.7812 10.65625,0 0,-10.625 -3.5625,0 0,-14.15625 5.3125,0 0,2.65625 -2.46875,0 0,0.875 0,1.78125 2.46875,0 0,3.5625 7.09375,0 0,-3.5625 2.46875,0 0,-1.78125 0,-0.875 -2.46875,0 0,-2.65625 5.3125,0 0,14.15625 -3.53125,0 0,10.625 10.625,0 0,10.65625 -10.625,0 0,5.59375 c -2.927906,0 -7.108314,0 -10.625,0 l 0,-5.59375 -10.65625,0 z"
       id="rect4353"
       inkscape:connector-curvature="0"
       sodipodi:nodetypes="ccccccccccccccccccccccccccccccc" />
    <g
       inkscape:label="Gear8"
       transform="matrix(-0.92387953,-0.38268343,0.38268343,-0.92387953,266.74297,231.66027)"
       id="g3400"
       style="fill:#000000;fill-opacity:0.29803922;stroke:none">
      <path
         style="fill:#000000;fill-opacity:0.29803922;stroke:none"
         d="m 679.375,319.375 -1.90625,0.8125 -0.25,4.5 0.34375,0.90625 1.65625,2.375 -2.9375,2.9375 -2.375,-1.65625 -0.875,-0.34375 -4.53125,0.25 -0.78125,1.90625 3.03125,3.375 0.84375,0.375 2.84375,0.53125 0,4.125 -2.84375,0.53125 -0.84375,0.375 -3.03125,3.375 0.78125,1.90625 4.53125,0.25 0.875,-0.34375 2.375,-1.65625 2.9375,2.9375 -1.65625,2.375 -0.34375,0.875 0.25,4.53125 1.90625,0.78125 3.375,-3.03125 0.375,-0.84375 0.53125,-2.84375 4.125,0 0.53125,2.84375 0.375,0.84375 3.375,3.03125 1.90625,-0.78125 0.25,-4.53125 -0.34375,-0.875 -1.65625,-2.375 2.9375,-2.9375 2.375,1.65625 0.90625,0.34375 4.5,-0.25 0.8125,-1.90625 -3.03125,-3.375 -0.875,-0.375 -2.84375,-0.53125 0,-4.125 2.84375,-0.53125 0.875,-0.375 3.03125,-3.375 -0.8125,-1.90625 -4.5,-0.25 -0.90625,0.34375 -2.375,1.65625 -2.9375,-2.9375 1.65625,-2.375 0.34375,-0.90625 -0.25,-4.5 -1.90625,-0.8125 -3.34375,3.03125 -0.40625,0.875 -0.53125,2.84375 -4.125,0 -0.53125,-2.84375 -0.375,-0.875 -3.375,-3.03125 z m 3.3125,16.25 6.0625,0 c 0.31358,0.52866 0.53125,1.12201 0.53125,1.78125 0,1.95691 -1.60559,3.53125 -3.5625,3.53125 -1.95691,0 -3.53125,-1.57434 -3.53125,-3.53125 0,-0.65743 0.18801,-1.25356 0.5,-1.78125 z"
         transform="matrix(0.38268343,0.92387954,-0.92387954,0.38268343,49.305539,-762.64395)"
         id="path3402"
         inkscape:connector-curvature="0" />
    </g>
    <path
       style="opacity:0.75739644;color:#000000;fill:#000000;fill-opacity:0.29803922;fill-rule:nonzero;stroke:none;stroke-width:0.99921262;marker:none;visibility:visible;display:inline;overflow:visible;enable-background:accumulate"
       d="m 426.02992,193.87098 -53.125,0 0,10.65625 23.03125,0 0,2.64586 -2.46875,0 0,2.66664 2.46875,0 0,3.5625 7.09375,0 0,-3.5625 2.46875,0 9e-4,-2.66664 -2.46875,0 -9e-4,-2.64586 23,0 z"
       id="rect4347"
       inkscape:connector-curvature="0"
       sodipodi:nodetypes="ccccccccccccccccc" />
    <path
       inkscape:connector-curvature="0"
       id="path3076"
       d="m 353.30294,264.10194 0,10.65625 -10.625,0 0,-3.5625 -14.15625,0 0,5.3125 2.65625,0 0,-2.46875 0.875,0 1.78125,0 0,2.46875 3.5625,0 0,7.09375 -3.5625,0 0,2.46875 -1.78125,0 -0.875,0 0,-2.46875 -2.65625,0 0,5.3125 14.15625,0 0,-3.53125 10.625,0 0,10.625 10.65625,0 0,-10.625 5.59375,0 c 0,-4.2378 0,-5.44502 0,-10.625 l -5.59375,0 0,-10.65625 z"
       style="opacity:0.75739644;color:#000000;fill:#000000;fill-opacity:0.22745098;fill-rule:nonzero;stroke:none;stroke-width:0.99921262;marker:none;visibility:visible;display:inline;overflow:visible;enable-background:accumulate"
       sodipodi:nodetypes="ccccccccccccccccccccccccccccccc" />
    <path
       sodipodi:nodetypes="ccccccccccccccccc"
       inkscape:connector-curvature="0"
       id="path3078"
       d="m 533.61549,327.41429 0,-53.125 -10.65625,0 0,23.03125 -2.64586,0 0,-2.46875 -2.66664,0 0,2.46875 -3.5625,0 0,7.09375 3.5625,0 0,2.46875 2.66664,9e-4 0,-2.46875 2.64586,-9e-4 0,23 z"
       style="opacity:0.75739644;color:#000000;fill:#000000;fill-opacity:0.29803922;fill-rule:nonzero;stroke:none;stroke-width:0.99921262;marker:none;visibility:visible;display:inline;overflow:visible;enable-background:accumulate" />
    <g
       style="fill:#000000;fill-opacity:0.29803922;stroke:none"
       id="g3157"
       transform="matrix(-0.92387953,-0.38268343,0.38268343,-0.92387953,149.30266,336.02693)"
       inkscape:label="Gear8">
      <path
         inkscape:connector-curvature="0"
         id="path3159"
         transform="matrix(0.38268343,0.92387954,-0.92387954,0.38268343,49.305539,-762.64395)"
         d="m 679.375,319.375 -1.90625,0.8125 -0.25,4.5 0.34375,0.90625 1.65625,2.375 -2.9375,2.9375 -2.375,-1.65625 -0.875,-0.34375 -4.53125,0.25 -0.78125,1.90625 3.03125,3.375 0.84375,0.375 2.84375,0.53125 0,4.125 -2.84375,0.53125 -0.84375,0.375 -3.03125,3.375 0.78125,1.90625 4.53125,0.25 0.875,-0.34375 2.375,-1.65625 2.9375,2.9375 -1.65625,2.375 -0.34375,0.875 0.25,4.53125 1.90625,0.78125 3.375,-3.03125 0.375,-0.84375 0.53125,-2.84375 4.125,0 0.53125,2.84375 0.375,0.84375 3.375,3.03125 1.90625,-0.78125 0.25,-4.53125 -0.34375,-0.875 -1.65625,-2.375 2.9375,-2.9375 2.375,1.65625 0.90625,0.34375 4.5,-0.25 0.8125,-1.90625 -3.03125,-3.375 -0.875,-0.375 -2.84375,-0.53125 0,-4.125 2.84375,-0.53125 0.875,-0.375 3.03125,-3.375 -0.8125,-1.90625 -4.5,-0.25 -0.90625,0.34375 -2.375,1.65625 -2.9375,-2.9375 1.65625,-2.375 0.34375,-0.90625 -0.25,-4.5 -1.90625,-0.8125 -3.34375,3.03125 -0.40625,0.875 -0.53125,2.84375 -4.125,0 -0.53125,-2.84375 -0.375,-0.875 -3.375,-3.03125 z m 3.3125,16.25 6.0625,0 c 0.31358,0.52866 0.53125,1.12201 0.53125,1.78125 0,1.95691 -1.60559,3.53125 -3.5625,3.53125 -1.95691,0 -3.53125,-1.57434 -3.53125,-3.53125 0,-0.65743 0.18801,-1.25356 0.5,-1.78125 z"
         style="fill:#000000;fill-opacity:0.29803922;stroke:none" />
    </g>
    <g
       id="g3162">
      <path
         inkscape:connector-curvature="0"
         id="rect4497"
         d="m 164.28125,376.7812 0,53.15625 10.625,0 10.625,0 0,-10.625 -10.625,0 0,-10.625 10.625,0 0,-10.625 -10.625,0 0,-10.65625 10.625,0 0,-10.625 -10.625,0 -10.625,0 z"
         style="opacity:0.75739644;color:#000000;fill:#000000;fill-opacity:0.22745098;fill-rule:nonzero;stroke:none;stroke-width:0.99921262;marker:none;visibility:visible;display:inline;overflow:visible;enable-background:accumulate" />
      <path
         inkscape:connector-curvature="0"
         id="path4308"
         d="m 121.43842,365.84152 c -21.526055,0 -38.968745,17.44269 -38.968745,38.96875 0,21.52606 17.44269,38.96875 38.968745,38.96875 21.52607,0 39,-17.44269 39,-38.96875 0,-21.52606 -17.47394,-38.96875 -39,-38.96875 z m -5.3125,33.65625 10.65625,0 0,10.625 -10.65625,0 0,-10.625 z"
         style="opacity:0.75739644;color:#000000;fill:#000000;fill-opacity:0.29803922;fill-rule:nonzero;stroke:none;stroke-width:0.99921262;marker:none;visibility:visible;display:inline;overflow:visible;enable-background:accumulate" />
      <path
         style="opacity:0.75739644;color:#000000;fill:#000000;fill-opacity:0.29803922;fill-rule:nonzero;stroke:none;stroke-width:0.99921262;marker:none;visibility:visible;display:inline;overflow:visible;enable-background:accumulate"
         d="m 230.91411,365.84152 c -21.52606,0 -38.96875,17.44269 -38.96875,38.96875 0,21.52607 17.44269,38.96875 38.96875,38.96875 21.52606,0 39,-17.44268 39,-38.96875 0,-21.52606 -17.47394,-38.96875 -39,-38.96875 z m -5.3125,33.65625 10.65625,0 0,10.625 -10.65625,0 0,-10.625 z"
         id="path3080"
         inkscape:connector-curvature="0" />
      <path
         inkscape:connector-curvature="0"
         id="path3082"
         d="m 51.300393,318.40223 0,39.03125 c 10.03473,0 17.71875,8.91611 17.71875,35.40625 l 0,43.625 c 0,20.86479 0.09374,21.25 59.343747,21.25 l 10.625,0 0,-10.625 10.625,0 0,10.625 53.15625,0 0,-10.625 10.625,0 0,10.625 10.65625,0 c 58.01337,0 59.3125,-0.20474 59.3125,-21.25 l 0,-43.625 0.0312,0 c 5e-5,-26.49014 7.68402,-35.40625 17.71875,-35.40625 l 0,-39.03125 -10.625,0 0,28.34375 -7.09375,0 0,-28.34375 -8,0 -2.625,12.6875 0,30.96875 -19.9375,0 0,9.53125 19.90625,0 0,64.875 -17.71875,0 c -6.69741,5.09201 -15.06713,8.125 -24.125,8.125 -9.05787,0 -17.40882,-3.03299 -24.09375,-8.125 l -61.28125,0 c -6.69117,5.09201 -15.03588,8.125 -24.09375,8.125 -9.05788,0 -17.40882,-3.03299 -24.093747,-8.125 l -17.6875,0 0,-64.875 19.875,0 0,-9.53125 -19.875,0 0,-43.65625 -10.625,0 0,28.34375 -7.09375,0 0,-28.34375 -10.625,0 z"
         style="opacity:0.75739644;color:#000000;fill:#000000;fill-opacity:0.22745098;fill-rule:nonzero;stroke:none;stroke-width:0.99921262;marker:none;visibility:visible;display:inline;overflow:visible;enable-background:accumulate" />
    </g>
    <path
       style="opacity:0.75739644;color:#000000;fill:#000000;fill-opacity:0.22745098;fill-rule:nonzero;stroke:none;stroke-width:0.99921262;marker:none;visibility:visible;display:inline;overflow:visible;enable-background:accumulate"
       d="m 51.3125,213.20495 0,10.625 0,31.90625 0,10.625 10.625,0 0,-10.625 10.625,0 50.75,0 2.40625,0 21.25,0 2.40625,0 50.75,0 10.625,0 0,10.625 10.625,0 0,-10.625 0,-31.90625 0,-10.625 -10.625,0 0,10.625 -20.9375,0 -3.09375,5.34375 -5.3125,9.1875 -9.25,-5.3125 5.3125,-9.1875 0.0312,-0.0312 -28.125,0 0,0.0312 -2.375,0 0,10.625 -10.65625,0 0,-10.625 -10.625,0 -2.40625,0 0,-0.0312 -61.375,0 0,-10.625 -10.625,0 z M 88.5,232.26745 c 4.15844,0 7.53125,3.34156 7.53125,7.5 0,4.15844 -3.37281,7.53125 -7.53125,7.53125 -4.15844,0 -7.53125,-3.37281 -7.53125,-7.53125 0,-4.15844 3.37281,-7.5 7.53125,-7.5 z m -26.5625,2.1875 10.625,0 0,10.65625 -10.625,0 0,-10.65625 z m 138.1875,0 10.625,0 0,10.65625 -10.625,0 0,-10.65625 z"
       id="path3180"
       inkscape:connector-curvature="0"
       inkscape:transform-center-x="-47.843752" />
    <rect
       style="opacity:0.75739644;color:#000000;fill:#000000;fill-opacity:0.50588229;fill-rule:nonzero;stroke:none;stroke-width:0.99921262;marker:none;visibility:visible;display:inline;overflow:visible;enable-background:accumulate"
       id="rect3257"
       width="106.29921"
       height="10.629921"
       x="95.76915"
       y="257.63208" />
    <rect
       transform="matrix(0,1,-1,0,0,0)"
       style="opacity:0.75739644;color:#000000;fill:#000000;fill-opacity:0.50588229;fill-rule:nonzero;stroke:none;stroke-width:0.99921262;marker:none;visibility:visible;display:inline;overflow:visible;enable-background:accumulate"
       id="rect3261"
       width="88.58268"
       height="10.629921"
       x="367.53439"
       y="-63.942368" />
    <rect
       y="-225.08611"
       x="-429.72446"
       height="10.629921"
       width="88.58268"
       id="rect3265"
       style="opacity:0.75739644;color:#000000;fill:#000000;fill-opacity:0.50588229;fill-rule:nonzero;stroke:none;stroke-width:0.99921262;marker:none;visibility:visible;display:inline;overflow:visible;enable-background:accumulate"
       transform="scale(-1,-1)" />
    <rect
       transform="scale(-1,-1)"
       style="opacity:0.75739644;color:#000000;fill:#000000;fill-opacity:0.50588229;fill-rule:nonzero;stroke:none;stroke-width:0.99921262;marker:none;visibility:visible;display:inline;overflow:visible;enable-background:accumulate"
       id="rect3267"
       width="88.58268"
       height="10.629921"
       x="-184.33328"
       y="-280.19754" />
    <rect
       transform="scale(-1,-1)"
       style="opacity:0.75739644;color:#000000;fill:#000000;fill-opacity:0.50588229;fill-rule:nonzero;stroke:none;stroke-width:0.99921262;marker:none;visibility:visible;display:inline;overflow:visible;enable-background:accumulate"
       id="rect3351"
       width="88.58268"
       height="10.629921"
       x="-451.75909"
       y="-412.17603" />
    <rect
       y="-365.5112"
       x="-215.47412"
       height="10.629921"
       width="88.58268"
       id="rect3353"
       style="opacity:0.75739644;color:#000000;fill:#000000;fill-opacity:0.50588229;fill-rule:nonzero;stroke:none;stroke-width:0.99921262;marker:none;visibility:visible;display:inline;overflow:visible;enable-background:accumulate"
       transform="scale(-1,-1)" />
    <path
       style="opacity:0.75739644;color:#000000;fill:#000000;fill-opacity:0.39215686;fill-rule:nonzero;stroke:none;stroke-width:0.99921262;marker:none;visibility:visible;display:inline;overflow:visible;enable-background:accumulate"
       d="M 703.78125 534 L 703.78125 544.625 L 703.78125 555.25 C 700.23557 555.25 696.69792 554.3514 693.15625 553.25 L 693.15625 567.875 C 696.79943 566.61674 700.47139 565.875 703.78125 565.875 L 703.78125 633.21875 C 700.30752 633.21875 696.79125 632.86542 693.15625 631.21875 L 693.15625 645.84375 C 696.5725 644.61272 700.12737 643.84375 703.78125 643.84375 L 703.78125 654.46875 L 703.78125 665.09375 L 714.40625 665.09375 L 767.53125 665.09375 L 767.53125 675.71875 L 767.59375 675.71875 L 778.15625 675.71875 L 778.21875 675.71875 L 778.21875 665.09375 L 788.78125 665.09375 L 788.78125 675.71875 L 788.84375 675.71875 L 799.40625 675.71875 L 799.46875 675.71875 L 799.46875 665.09375 L 831.3125 665.09375 L 831.3125 675.71875 L 831.375 675.71875 L 841.9375 675.71875 L 842 675.71875 L 842 665.09375 L 852.5625 665.09375 L 852.5625 675.71875 L 852.625 675.71875 L 863.1875 675.71875 L 863.25 675.71875 L 863.25 665.09375 L 916.375 665.09375 L 927 665.09375 L 927 654.46875 L 927 643.84375 C 930.65388 643.84375 934.20875 644.61272 937.625 645.84375 L 937.625 631.21875 C 933.99 632.86542 930.47373 633.21875 927 633.21875 L 927 565.875 C 930.30986 565.875 933.98182 566.61674 937.625 567.875 L 937.625 553.25 C 934.08333 554.3514 930.54568 555.25 927 555.25 L 927 544.625 L 927 534 L 916.375 534 L 916.375 544.625 L 916.375 555.25 L 905.75 555.25 L 895.125 555.25 L 884.5 555.25 L 884.5 565.875 L 895.125 565.875 L 905.75 565.875 L 916.375 565.875 L 916.375 654.46875 L 714.40625 654.46875 L 714.40625 565.875 L 725.03125 565.875 L 735.65625 565.875 L 746.28125 565.875 L 746.28125 555.25 L 735.65625 555.25 L 725.03125 555.25 L 714.40625 555.25 L 714.40625 544.625 L 714.40625 534 L 703.78125 534 z "
       transform="translate(47.769143,190.33973)"
       id="rect3269" />
  </g>
  <g
     inkscape:groupmode="layer"
     id="layer3"
     inkscape:label="rechts"
     style="display:inline"
     transform="translate(-47.769143,-190.33973)" />
</svg>
