<?xml version="1.0" encoding="UTF-8" standalone="no"?>
<!-- Created with Inkscape (http://www.inkscape.org/) -->

<svg
   xmlns:dc="http://purl.org/dc/elements/1.1/"
   xmlns:cc="http://creativecommons.org/ns#"
   xmlns:rdf="http://www.w3.org/1999/02/22-rdf-syntax-ns#"
   xmlns:svg="http://www.w3.org/2000/svg"
   xmlns="http://www.w3.org/2000/svg"
   xmlns:sodipodi="http://sodipodi.sourceforge.net/DTD/sodipodi-0.dtd"
   xmlns:inkscape="http://www.inkscape.org/namespaces/inkscape"
   sodipodi:docname="john.svg"
   inkscape:version="0.48.5 r10040"
   version="1.1"
   id="svg3091"
   height="297mm"
   width="210mm">
  <sodipodi:namedview
     id="base"
     pagecolor="#ffffff"
     bordercolor="#666666"
     borderopacity="1.0"
     inkscape:pageopacity="0.0"
     inkscape:pageshadow="2"
     inkscape:zoom="5.6568543"
     inkscape:cx="519.22191"
     inkscape:cy="682.44002"
     inkscape:document-units="mm"
     inkscape:current-layer="layer1"
     showgrid="false"
     inkscape:window-width="1920"
     inkscape:window-height="1005"
     inkscape:window-x="-9"
     inkscape:window-y="-9"
     inkscape:window-maximized="1"
     inkscape:object-paths="true"
     inkscape:object-nodes="true"
     inkscape:snap-object-midpoints="true"
     inkscape:snap-nodes="true"
     inkscape:snap-midpoints="true"
     inkscape:snap-intersection-paths="true" />
  <defs
     id="defs3093" />
  <metadata
     id="metadata3096">
    <rdf:RDF>
      <cc:Work
         rdf:about="">
        <dc:format>image/svg+xml</dc:format>
        <dc:type
           rdf:resource="http://purl.org/dc/dcmitype/StillImage" />
        <dc:title />
      </cc:Work>
    </rdf:RDF>
  </metadata>
  <g
     inkscape:groupmode="layer"
     id="layer2"
     inkscape:label="Purgatory" />
  <g
     inkscape:label="Ebene 1"
     inkscape:groupmode="layer"
     id="layer1">
    <path
       style="opacity:0.75739644;color:#000000;fill:#000000;fill-opacity:0.22745098;fill-rule:nonzero;stroke:none;stroke-width:0.99921262;marker:none;visibility:visible;display:inline;overflow:visible;enable-background:accumulate"
       d="m 295,298.09375 0,10.625 0,31.90625 0,10.625 10.625,0 0,-10.625 10.625,0 50.75,0 2.40625,0 21.25,0 2.40625,0 50.75,0 10.625,0 0,10.625 10.625,0 0,-10.625 0,-31.90625 0,-10.625 -10.625,0 0,10.625 -20.9375,0 -3.09375,5.34375 -5.3125,9.1875 -9.25,-5.3125 5.3125,-9.1875 0.0312,-0.0312 -28.125,0 0,0.0312 -2.375,0 0,10.625 -10.65625,0 0,-10.625 -10.625,0 -2.40625,0 0,-0.0312 -61.375,0 0,-10.625 -10.625,0 z m 37.1875,19.0625 c 4.15844,0 7.53125,3.34156 7.53125,7.5 0,4.15844 -3.37281,7.53125 -7.53125,7.53125 -4.15844,0 -7.53125,-3.37281 -7.53125,-7.53125 0,-4.15844 3.37281,-7.5 7.53125,-7.5 z m -26.5625,2.1875 10.625,0 0,10.65625 -10.625,0 0,-10.65625 z m 138.1875,0 10.625,0 0,10.65625 -10.625,0 0,-10.65625 z"
       id="rect4386"
       inkscape:connector-curvature="0"
       inkscape:transform-center-x="-47.843752" />
    <path
       style="opacity:0.75739644;color:#000000;fill:#000000;fill-opacity:0.22745098;fill-rule:nonzero;stroke:none;stroke-width:0.99921262;marker:none;visibility:visible;display:inline;overflow:visible;enable-background:accumulate"
       d="M 200.25 303.40625 L 200.25 314.0625 L 189.625 314.0625 L 189.625 310.5 L 175.46875 310.5 L 175.46875 315.8125 L 178.125 315.8125 L 178.125 313.34375 L 179 313.34375 L 180.78125 313.34375 L 180.78125 315.8125 L 184.34375 315.8125 L 184.34375 322.90625 L 180.78125 322.90625 L 180.78125 325.375 L 179 325.375 L 178.125 325.375 L 178.125 322.90625 L 175.46875 322.90625 L 175.46875 328.21875 L 189.625 328.21875 L 189.625 324.6875 L 200.25 324.6875 L 200.25 335.3125 L 210.90625 335.3125 L 210.90625 324.6875 L 216.5 324.6875 L 221.53125 324.6875 L 221.53125 314.0625 L 216.5 314.0625 L 210.90625 314.0625 L 210.90625 303.40625 L 200.25 303.40625 z "
       id="rect4353" />
    <path
       style="opacity:0.75739644;color:#000000;fill:#000000;fill-opacity:0.39215686;fill-rule:nonzero;stroke:none;stroke-width:0.99921262;marker:none;visibility:visible;display:inline;overflow:visible;enable-background:accumulate"
       d="M 583.90625 320.53125 L 573.5625 330.875 C 574.3015 330.81153 575.0405 330.77409 575.78125 330.75 C 577.26162 330.70204 578.74155 330.73406 580.21875 330.84375 C 580.95811 330.89787 581.67017 330.969 582.40625 331.0625 C 582.41651 331.06381 582.42724 331.06119 582.4375 331.0625 C 586.84354 331.62543 591.17259 332.90169 595.25 334.875 C 596.61226 335.53428 597.95129 336.27712 599.25 337.09375 C 600.54871 337.91038 601.80956 338.8073 603.03125 339.78125 C 604.25294 340.7552 605.43128 341.80628 606.5625 342.9375 C 607.69386 344.06887 608.74529 345.24632 609.71875 346.46875 C 610.20548 347.07996 610.67772 347.68108 611.125 348.3125 C 611.12978 348.31923 611.12023 348.33701 611.125 348.34375 C 611.56682 348.9683 612.00299 349.60737 612.40625 350.25 C 613.22193 351.54985 613.96697 352.88637 614.625 354.25 C 615.61205 356.29544 616.42979 358.41193 617.0625 360.5625 C 617.48431 361.99622 617.82926 363.44286 618.09375 364.90625 C 618.49049 367.10133 618.70686 369.30777 618.75 371.53125 C 618.75021 371.54166 618.7498 371.55209 618.75 371.5625 C 618.77748 373.03455 618.72109 374.53237 618.59375 376 L 608.1875 386.40625 L 591.15625 403.4375 L 580.78125 413.8125 C 579.31376 413.93983 577.81565 413.99621 576.34375 413.96875 C 576.33334 413.96855 576.32291 413.96896 576.3125 413.96875 C 574.08902 413.92561 571.88258 413.70924 569.6875 413.3125 C 568.22411 413.04801 566.77747 412.70306 565.34375 412.28125 C 563.19318 411.64854 561.07669 410.8308 559.03125 409.84375 C 557.66762 409.18572 556.3311 408.44068 555.03125 407.625 C 554.38862 407.22174 553.74955 406.78557 553.125 406.34375 C 553.11826 406.33898 553.10048 406.34853 553.09375 406.34375 C 552.46233 405.89647 551.86121 405.42423 551.25 404.9375 C 550.02757 403.96404 548.85011 402.91262 547.71875 401.78125 C 546.58739 400.64988 545.53596 399.47234 544.5625 398.25 C 544.07031 397.63197 543.6081 397.01367 543.15625 396.375 C 542.70878 395.74413 542.28308 395.118 541.875 394.46875 C 541.05932 393.16904 540.31428 391.83224 539.65625 390.46875 C 538.75106 388.59314 538.01342 386.65321 537.40625 384.6875 C 537.35081 384.50811 537.2717 384.33623 537.21875 384.15625 C 536.79982 382.7324 536.45125 381.29701 536.1875 379.84375 C 536.18567 379.83365 536.18932 379.8226 536.1875 379.8125 C 535.52627 376.15398 535.36693 372.4458 535.6875 368.75 L 525.3125 379.125 C 528.63627 404.7868 550.58915 424.625 577.15625 424.625 C 584.86068 424.625 592.16678 422.93244 598.75 419.9375 C 601.82547 422.18651 605.61684 423.53125 609.71875 423.53125 C 619.99255 423.53125 628.3125 415.2113 628.3125 404.9375 C 628.3125 400.83559 626.96776 397.04422 624.71875 393.96875 C 627.71937 387.37415 629.40625 380.06039 629.40625 372.34375 C 629.40625 345.77239 609.57404 323.84958 583.90625 320.53125 z M 609.71875 397.40625 C 613.87719 397.40625 617.25 400.77906 617.25 404.9375 C 617.25 409.09594 613.87719 412.46875 609.71875 412.46875 C 605.56031 412.46875 602.1875 409.09594 602.1875 404.9375 C 602.1875 400.77906 605.56031 397.40625 609.71875 397.40625 z "
       id="path3235" />
    <path
       style="fill:#000000;fill-opacity:0.39215686;display:inline;filter:url(#filter4654);enable-background:new"
       inkscape:connector-curvature="0"
       id="path2985"
       d="m 535.68871,368.73826 c -1.02582,11.82655 2.9699,24.00632 12.02082,33.05724 9.05092,9.05092 21.23411,13.04666 33.05724,12.02081 l 37.83021,-37.83021 c 1.02585,-11.82313 -2.96989,-24.00632 -12.02081,-33.05724 -9.04979,-9.04979 -21.20998,-13.06736 -33.03517,-12.04288 l -37.85229,37.85228 z" />
    <path
       id="path3798"
       d="m 564.62485,359.82208 c -6.91873,6.91874 -6.91873,18.13936 0,25.0581 6.91874,6.91873 18.13936,6.91873 25.0581,0 6.91874,-6.91874 6.91874,-18.13936 0,-25.0581 -6.91874,-6.91874 -18.13936,-6.91874 -25.0581,0 z m -11.09273,28.63782 c -2.07562,2.07562 -2.07562,5.43739 0,7.51301 2.07562,2.07562 5.43739,2.07562 7.51301,0 2.07562,-2.07562 2.07562,-5.43739 0,-7.51301 -2.07562,-2.07562 -5.43739,-2.07562 -7.51301,0 z m 39.70846,-39.70846 c -2.07562,2.07562 -2.07562,5.43739 0,7.51301 2.07562,2.07562 5.43739,2.07562 7.51301,0 2.07562,-2.07562 2.07562,-5.43739 0,-7.51301 -2.07562,-2.07562 -5.43739,-2.07562 -7.51301,0 z"
       style="fill:#cc0000;fill-opacity:0.39215686;display:inline;filter:url(#filter4654);enable-background:new"
       inkscape:connector-curvature="0" />
    <path
       sodipodi:type="arc"
       style="opacity:0.75739644;color:#000000;fill:#000000;fill-opacity:0.39215686;fill-rule:nonzero;stroke:none;stroke-width:0.99921262;marker:none;visibility:visible;display:inline;overflow:visible;enable-background:accumulate"
       id="path3116"
       sodipodi:cx="672.50903"
       sodipodi:cy="396.01556"
       sodipodi:rx="2.7779195"
       sodipodi:ry="2.7779195"
       d="m 675.28695,396.01556 a 2.7779195,2.7779195 0 1 1 -5.55584,0 2.7779195,2.7779195 0 1 1 5.55584,0 z"
       transform="matrix(1.2755255,0,0,1.2755255,-280.65957,-132.76577)" />
    <path
       transform="matrix(1.1411875,0,0,1.1411875,15.376815,-54.071029)"
       d="m 589.46427,372.24179 a 12.419719,12.419719 0 1 1 -24.83943,0 12.419719,12.419719 0 1 1 24.83943,0 z"
       sodipodi:ry="12.419719"
       sodipodi:rx="12.419719"
       sodipodi:cy="372.24179"
       sodipodi:cx="577.04456"
       id="path3249"
       style="opacity:0.75739644;color:#000000;fill:#000000;fill-opacity:0.39215686;fill-rule:nonzero;stroke:none;stroke-width:0.99921262;marker:none;visibility:visible;display:inline;overflow:visible;enable-background:accumulate"
       sodipodi:type="arc" />
    <path
       transform="matrix(2.8220474,0,0,2.8220474,-1126.4862,-739.107)"
       d="m 659.55355,404.81754 a 10.044642,10.044642 0 1 1 -20.08928,0 10.044642,10.044642 0 1 1 20.08928,0 z"
       sodipodi:ry="10.044642"
       sodipodi:rx="10.044642"
       sodipodi:cy="404.81754"
       sodipodi:cx="649.50891"
       id="path3253"
       style="opacity:0.75739644;color:#000000;fill:#000000;fill-opacity:0.39215686;fill-rule:nonzero;stroke:none;stroke-width:0.99921262;marker:none;visibility:visible;display:inline;overflow:visible;enable-background:accumulate"
       sodipodi:type="arc" />
    <g
       inkscape:label="Gear8"
       transform="matrix(0.38268343,-0.92387953,0.92387953,0.38268343,675.87892,283.07823)"
       id="g3400"
       style="fill:#000000;fill-opacity:0.29803922;stroke:none">
      <path
         style="fill:#000000;fill-opacity:0.29803922;stroke:none"
         d="m 679.375,319.375 -1.90625,0.8125 -0.25,4.5 0.34375,0.90625 1.65625,2.375 -2.9375,2.9375 -2.375,-1.65625 -0.875,-0.34375 -4.53125,0.25 -0.78125,1.90625 3.03125,3.375 0.84375,0.375 2.84375,0.53125 0,4.125 -2.84375,0.53125 -0.84375,0.375 -3.03125,3.375 0.78125,1.90625 4.53125,0.25 0.875,-0.34375 2.375,-1.65625 2.9375,2.9375 -1.65625,2.375 -0.34375,0.875 0.25,4.53125 1.90625,0.78125 3.375,-3.03125 0.375,-0.84375 0.53125,-2.84375 4.125,0 0.53125,2.84375 0.375,0.84375 3.375,3.03125 1.90625,-0.78125 0.25,-4.53125 -0.34375,-0.875 -1.65625,-2.375 2.9375,-2.9375 2.375,1.65625 0.90625,0.34375 4.5,-0.25 0.8125,-1.90625 -3.03125,-3.375 -0.875,-0.375 -2.84375,-0.53125 0,-4.125 2.84375,-0.53125 0.875,-0.375 3.03125,-3.375 -0.8125,-1.90625 -4.5,-0.25 -0.90625,0.34375 -2.375,1.65625 -2.9375,-2.9375 1.65625,-2.375 0.34375,-0.90625 -0.25,-4.5 -1.90625,-0.8125 -3.34375,3.03125 -0.40625,0.875 -0.53125,2.84375 -4.125,0 -0.53125,-2.84375 -0.375,-0.875 -3.375,-3.03125 z m 3.3125,16.25 6.0625,0 c 0.31358,0.52866 0.53125,1.12201 0.53125,1.78125 0,1.95691 -1.60559,3.53125 -3.5625,3.53125 -1.95691,0 -3.53125,-1.57434 -3.53125,-3.53125 0,-0.65743 0.18801,-1.25356 0.5,-1.78125 z"
         transform="matrix(0.38268343,0.92387954,-0.92387954,0.38268343,49.305539,-762.64395)"
         id="path3402"
         inkscape:connector-curvature="0" />
    </g>
    <path
       style="fill:#000000;fill-opacity:0.29803922;stroke:none"
       d="m 627.8125,248.70593 -1.71875,3.96875 -0.25,1.875 0.21875,1.96875 -4.34375,0.84375 -0.5625,-1.875 -0.9375,-1.65625 -3.09375,-2.96875 -2.375,0.96875 -0.0625,4.28125 0.5,1.84375 0.9375,1.71875 -3.6875,2.46875 -1.25,-1.53125 -1.5,-1.15625 -4,-1.5625 -1.78125,1.78125 1.5625,4 1.15625,1.5 1.53125,1.25 -2.46875,3.6875 -1.71875,-0.9375 -1.84375,-0.5 -4.28125,0.0625 -0.96875,2.375 2.96875,3.09375 1.65625,0.9375 1.875,0.5625 -0.84375,4.34375 -1.96875,-0.21875 -1.875,0.25 -3.96875,1.71875 0,2.53125 3.96875,1.75 1.875,0.21875 1.96875,-0.21875 0.84375,4.375 -1.875,0.53125 -1.65625,0.96875 -2.96875,3.09375 0.96875,2.34375 4.28125,0.0937 1.84375,-0.5 1.71875,-0.96875 2.46875,3.71875 -1.53125,1.21875 -1.15625,1.5 -1.5625,4 1.78125,1.8125 4,-1.5625 1.5,-1.15625 1.25,-1.5625 3.6875,2.46875 -0.9375,1.75 -0.5,1.8125 0.0625,4.3125 2.375,0.96875 3.09375,-3 0.9375,-1.625 0.5625,-1.90625 4.34375,0.875 -0.21875,1.96875 0.25,1.875 1.71875,3.9375 2.53125,0 1.75,-3.9375 0.21875,-1.875 -0.21875,-1.96875 4.375,-0.875 0.53125,1.90625 0.96875,1.625 3.09375,3 2.34375,-0.96875 0.0937,-4.3125 -0.5,-1.8125 -0.96875,-1.75 3.71875,-2.46875 1.21875,1.5625 1.5,1.15625 4,1.5625 1.8125,-1.8125 -1.5625,-4 -1.15625,-1.5 -1.5625,-1.21875 2.46875,-3.71875 1.75,0.96875 1.8125,0.5 4.3125,-0.0937 0.96875,-2.34375 -3,-3.09375 -1.625,-0.96875 -1.90625,-0.53125 0.875,-4.375 1.96875,0.21875 1.875,-0.21875 3.9375,-1.75 0,-2.53125 -3.9375,-1.71875 -1.875,-0.25 -1.96875,0.21875 -0.875,-4.34375 1.90625,-0.5625 1.625,-0.9375 3,-3.09375 -0.96875,-2.375 -4.3125,-0.0625 -1.8125,0.5 -1.75,0.9375 -2.46875,-3.6875 1.5625,-1.25 1.15625,-1.5 1.5625,-4 -1.8125,-1.78125 -4,1.5625 -1.5,1.15625 -1.21875,1.53125 -3.71875,-2.46875 0.96875,-1.71875 0.5,-1.84375 -0.0937,-4.28125 -2.34375,-0.96875 -3.09375,2.96875 -0.96875,1.65625 -0.53125,1.875 -4.375,-0.84375 0.21875,-1.96875 -0.21875,-1.875 -1.75,-3.96875 -2.53125,0 z m -4.03125,29.0625 10.625,0 0,10.625 -10.625,0 0,-10.625 z"
       id="path3493"
       inkscape:connector-curvature="0" />
    <rect
       style="opacity:0.75739644;color:#000000;fill:#000000;fill-opacity:0.39215686;fill-rule:nonzero;stroke:none;stroke-width:0.99921262;marker:none;visibility:visible;display:inline;overflow:visible;enable-background:accumulate"
       id="rect4282"
       width="10.629921"
       height="10.629921"
       x="604.3938"
       y="399.61731" />
    <path
       style="opacity:0.75739644;color:#000000;fill:#000000;fill-opacity:0.29803922;fill-rule:nonzero;stroke:none;stroke-width:0.99921262;marker:none;visibility:visible;display:inline;overflow:visible;enable-background:accumulate"
       d="m 609.67997,365.96352 c -21.52606,0 -38.96875,17.44269 -38.96875,38.96875 0,21.52606 17.44269,38.96875 38.96875,38.96875 21.52606,0 39,-17.44269 39,-38.96875 0,-21.52606 -17.47394,-38.96875 -39,-38.96875 z m -5.3125,33.65625 10.65625,0 0,10.625 -10.65625,0 0,-10.625 z"
       id="path4308"
       inkscape:connector-curvature="0" />
    <path
       style="opacity:0.75739644;color:#000000;fill:#000000;fill-opacity:0.29803922;fill-rule:nonzero;stroke:none;stroke-width:0.99921262;marker:none;visibility:visible;display:inline;overflow:visible;enable-background:accumulate"
       d="m 164.81994,292.82422 0,53.125 10.65625,0 0,-23.03125 2.64586,0 0,2.46875 2.66664,0 0,-2.46875 3.5625,0 0,-7.09375 -3.5625,0 0,-2.46875 -2.66664,-8.9e-4 0,2.46875 -2.64586,8.9e-4 0,-23 z"
       id="rect4347"
       inkscape:connector-curvature="0"
       sodipodi:nodetypes="ccccccccccccccccc" />
    <rect
       style="opacity:0.75739644;color:#000000;fill:#000000;fill-opacity:0.22745098;fill-rule:nonzero;stroke:none;stroke-width:0.99921262;marker:none;visibility:visible;display:inline;overflow:visible;enable-background:accumulate"
       id="rect4388"
       width="10.629921"
       height="10.629921"
       x="308.88687"
       y="229.90871" />
    <path
       inkscape:connector-curvature="0"
       id="path4390"
       d="m 668.93745,195.78408 -1.71875,3.96875 -0.25,1.875 0.21875,1.96875 -4.34375,0.84375 -0.5625,-1.875 -0.9375,-1.65625 -3.09375,-2.96875 -2.375,0.96875 -0.0625,4.28125 0.5,1.84375 0.9375,1.71875 -3.6875,2.46875 -1.25,-1.53125 -1.5,-1.15625 -4,-1.5625 -1.78125,1.78125 1.5625,4 1.15625,1.5 1.53125,1.25 -2.46875,3.6875 -1.71875,-0.9375 -1.84375,-0.5 -4.28125,0.0625 -0.96875,2.375 2.96875,3.09375 1.65625,0.9375 1.875,0.5625 -0.84375,4.34375 -1.96875,-0.21875 -1.875,0.25 -3.96875,1.71875 0,2.53125 3.96875,1.75 1.875,0.21875 1.96875,-0.21875 0.84375,4.375 -1.875,0.53125 -1.65625,0.96875 -2.96875,3.09375 0.96875,2.34375 4.28125,0.0937 1.84375,-0.5 1.71875,-0.96875 2.46875,3.71875 -1.53125,1.21875 -1.15625,1.5 -1.5625,4 1.78125,1.8125 4,-1.5625 1.5,-1.15625 1.25,-1.5625 3.6875,2.46875 -0.9375,1.75 -0.5,1.8125 0.0625,4.3125 2.375,0.96875 3.09375,-3 0.9375,-1.625 0.5625,-1.90625 4.34375,0.875 -0.21875,1.96875 0.25,1.875 1.71875,3.9375 2.53125,0 1.75,-3.9375 0.21875,-1.875 -0.21875,-1.96875 4.375,-0.875 0.53125,1.90625 0.96875,1.625 3.09375,3 2.34375,-0.96875 0.0937,-4.3125 -0.5,-1.8125 -0.96875,-1.75 3.71875,-2.46875 1.21875,1.5625 1.5,1.15625 4,1.5625 1.8125,-1.8125 -1.5625,-4 -1.15625,-1.5 -1.5625,-1.21875 2.46875,-3.71875 1.75,0.96875 1.8125,0.5 4.3125,-0.0937 0.96875,-2.34375 -3,-3.09375 -1.625,-0.96875 -1.90625,-0.53125 0.875,-4.375 1.96875,0.21875 1.875,-0.21875 3.9375,-1.75 0,-2.53125 -3.9375,-1.71875 -1.875,-0.25 -1.96875,0.21875 -0.875,-4.34375 1.90625,-0.5625 1.625,-0.9375 3,-3.09375 -0.96875,-2.375 -4.3125,-0.0625 -1.8125,0.5 -1.75,0.9375 -2.46875,-3.6875 1.5625,-1.25 1.15625,-1.5 1.5625,-4 -1.8125,-1.78125 -4,1.5625 -1.5,1.15625 -1.21875,1.53125 -3.71875,-2.46875 0.96875,-1.71875 0.5,-1.84375 -0.0937,-4.28125 -2.34375,-0.96875 -3.09375,2.96875 -0.96875,1.65625 -0.53125,1.875 -4.375,-0.84375 0.21875,-1.96875 -0.21875,-1.875 -1.75,-3.96875 -2.53125,0 z m -4.03125,29.0625 10.625,0 0,10.625 -10.625,0 0,-10.625 z"
       style="fill:#000000;fill-opacity:0.29803922;stroke:none" />
    <g
       id="g4407"
       transform="translate(219.60593,144.18586)">
      <path
         inkscape:connector-curvature="0"
         id="path4340"
         d="m 237.99275,221.77765 c -21.52606,0 -38.96875,17.44269 -38.96875,38.96875 0,21.52606 17.44269,38.96875 38.96875,38.96875 21.52606,0 39,-17.44269 39,-38.96875 0,-21.52606 -17.47394,-38.96875 -39,-38.96875 z m 0,26.5625 c 6.8492,0 12.40625,5.55705 12.40625,12.40625 0,6.8492 -5.55705,12.375 -12.40625,12.375 -6.8492,0 -12.375,-5.5258 -12.375,-12.375 0,-6.8492 5.5258,-12.40625 12.375,-12.40625 z"
         style="opacity:0.75739644;color:#000000;fill:#000000;fill-opacity:0.29803922;fill-rule:nonzero;stroke:none;stroke-width:0.99921262;marker:none;visibility:visible;display:inline;overflow:visible;enable-background:accumulate" />
      <rect
         y="251.88702"
         x="232.69588"
         height="17.71875"
         width="10.625"
         id="rect4405"
         style="opacity:0.75739644;color:#000000;fill:#000000;fill-opacity:0.22745098;fill-rule:nonzero;stroke:none;stroke-width:0.99921262;marker:none;visibility:visible;display:inline;overflow:visible;enable-background:accumulate" />
    </g>
    <rect
       style="opacity:0.75739644;color:#000000;fill:#000000;fill-opacity:0.22745098;fill-rule:nonzero;stroke:none;stroke-width:0.99921262;marker:none;visibility:visible;display:inline;overflow:visible;enable-background:accumulate"
       id="rect4415"
       width="10.625"
       height="10.65625"
       x="341"
       y="344.34375" />
    <rect
       y="319.34375"
       x="326.875"
       height="10.65625"
       width="10.625"
       id="rect4417"
       style="opacity:0.75739644;color:#000000;fill:#000000;fill-opacity:0.22745098;fill-rule:nonzero;stroke:none;stroke-width:0.99921262;marker:none;visibility:visible;display:inline;overflow:visible;enable-background:accumulate" />
    <rect
       y="330"
       x="337.5"
       height="10.65625"
       width="10.625"
       id="rect4419"
       style="opacity:0.75739644;color:#000000;fill:#000000;fill-opacity:0.22745098;fill-rule:nonzero;stroke:none;stroke-width:0.99921262;marker:none;visibility:visible;display:inline;overflow:visible;enable-background:accumulate" />
    <rect
       style="opacity:0.75739644;color:#000000;fill:#000000;fill-opacity:0.22745098;fill-rule:nonzero;stroke:none;stroke-width:0.99921262;marker:none;visibility:visible;display:inline;overflow:visible;enable-background:accumulate"
       id="rect4421"
       width="10.629921"
       height="157.40944"
       x="-455.33371"
       y="36.375622"
       transform="matrix(-0.8660254,-0.5,-0.5,0.8660254,0,0)" />
    <rect
       transform="scale(-1,1)"
       y="245.96715"
       x="-337.50247"
       height="157.40944"
       width="10.629921"
       id="rect4423"
       style="opacity:0.75739644;color:#000000;fill:#000000;fill-opacity:0.22745098;fill-rule:nonzero;stroke:none;stroke-width:0.99921262;marker:none;visibility:visible;display:inline;overflow:visible;enable-background:accumulate" />
    <rect
       style="opacity:0.75739644;color:#000000;fill:#000000;fill-opacity:0.22745098;fill-rule:nonzero;stroke:none;stroke-width:0.99921262;marker:none;visibility:visible;display:inline;overflow:visible;enable-background:accumulate"
       id="rect4425"
       width="10.625"
       height="10.65625"
       x="-465.95871"
       y="93.590668"
       transform="matrix(-0.8660254,-0.5,-0.5,0.8660254,0,0)" />
    <rect
       transform="matrix(-0.8660254,-0.5,-0.5,0.8660254,0,0)"
       y="82.934418"
       x="-465.95871"
       height="10.65625"
       width="10.625"
       id="rect4427"
       style="opacity:0.75739644;color:#000000;fill:#000000;fill-opacity:0.22745098;fill-rule:nonzero;stroke:none;stroke-width:0.99921262;marker:none;visibility:visible;display:inline;overflow:visible;enable-background:accumulate" />
    <rect
       style="opacity:0.75739644;color:#000000;fill:#000000;fill-opacity:0.22745098;fill-rule:nonzero;stroke:none;stroke-width:0.99921262;marker:none;visibility:visible;display:inline;overflow:visible;enable-background:accumulate"
       id="rect4431"
       width="10.629921"
       height="157.40944"
       x="-401.27954"
       y="245.97539"
       transform="scale(-1,1)" />
    <rect
       style="opacity:0.75739644;color:#000000;fill:#000000;fill-opacity:0.22745098;fill-rule:nonzero;stroke:none;stroke-width:0.99921262;marker:none;visibility:visible;display:inline;overflow:visible;enable-background:accumulate"
       id="rect4454"
       width="77.952759"
       height="10.629921"
       x="-309.91638"
       y="481.62939"
       transform="matrix(0,-1,1,0,0,0)" />
    <path
       style="opacity:0.75739644;color:#000000;fill:#000000;fill-opacity:0.22745098;fill-rule:nonzero;stroke:none;stroke-width:0.99921262;marker:none;visibility:visible;display:inline;overflow:visible;enable-background:accumulate"
       d="M 386.5 117.84375 L 386.5 171 L 397.125 171 L 407.75 171 L 407.75 160.375 L 397.125 160.375 L 397.125 149.75 L 407.75 149.75 L 407.75 139.125 L 397.125 139.125 L 397.125 128.46875 L 407.75 128.46875 L 407.75 117.84375 L 397.125 117.84375 L 386.5 117.84375 z "
       id="rect4497" />
    <path
       id="path4506"
       d="m 365.25,117.82813 0,53.15624 10.625,0 10.625,0 0,-10.625 -10.625,0 0,-10.625 10.625,0 0,-10.625 -10.625,0 0,-10.65625 10.625,0 0,-10.62499 -10.625,0 -10.625,0 z"
       style="opacity:0.75739644;color:#000000;fill:#000000;fill-opacity:0.22745098;fill-rule:nonzero;stroke:none;stroke-width:0.99921262;marker:none;visibility:visible;display:inline;overflow:visible;enable-background:accumulate"
       inkscape:connector-curvature="0" />
    <rect
       style="opacity:0.75739644;color:#000000;fill:#000000;fill-opacity:0.22745098;fill-rule:nonzero;stroke:none;stroke-width:0.99921262;marker:none;visibility:visible;display:inline;overflow:visible;enable-background:accumulate"
       id="rect4511"
       width="10.629921"
       height="74.409447"
       x="390.64963"
       y="266.21555" />
    <rect
       transform="matrix(0,-1,-1,0,0,0)"
       y="-615.02374"
       x="-410.24722"
       height="157.40944"
       width="10.629921"
       id="rect4513"
       style="opacity:0.75739644;color:#000000;fill:#000000;fill-opacity:0.22745098;fill-rule:nonzero;stroke:none;stroke-width:0.99921262;marker:none;visibility:visible;display:inline;overflow:visible;enable-background:accumulate" />
    <path
       inkscape:transform-center-x="-41.433922"
       inkscape:connector-curvature="0"
       id="path4515"
       d="m 286.69311,320.24828 5.3125,9.20152 15.95313,27.63162 5.3125,9.20152 9.20152,-5.3125 -5.3125,-9.20152 9.20152,-5.3125 43.95079,-25.375 2.08387,-1.20312 18.40304,-10.625 2.08388,-1.20313 43.95078,-25.375 9.20152,-5.3125 5.3125,9.20152 9.20152,-5.3125 -5.3125,-9.20152 -15.95312,-27.63162 -5.3125,-9.20152 -9.20152,5.3125 5.3125,9.20152 -18.13241,10.46875 -0.007,6.1747 -0.007,10.61286 -10.66698,0.0242 0.007,-10.61286 0.0114,-0.0426 -24.35697,14.0625 0.0156,0.027 -2.05681,1.1875 5.3125,9.20152 -9.22858,5.32812 -5.3125,-9.20152 -9.20152,5.3125 -2.08388,1.20313 -0.0156,-0.027 -53.1523,30.6875 -5.3125,-9.20152 -9.20152,5.3125 z m 41.73657,-2.08514 c 3.60132,-2.07922 8.19304,-0.87175 10.27226,2.72956 2.07922,3.60132 0.84468,8.20866 -2.75663,10.28788 -3.60132,2.07922 -8.20866,0.84469 -10.28788,-2.75663 -2.07922,-3.60131 -0.82906,-8.18159 2.77225,-10.26081 z m -21.91005,15.17568 9.20152,-5.3125 5.32813,9.22858 -9.20152,5.3125 -5.32813,-9.22858 z m 119.67389,-69.09375 9.20152,-5.3125 5.32812,9.22858 -9.20152,5.3125 -5.32812,-9.22858 z"
       style="opacity:0.75739644;color:#000000;fill:#000000;fill-opacity:0.22745098;fill-rule:nonzero;stroke:none;stroke-width:0.99921262;marker:none;visibility:visible;display:inline;overflow:visible;enable-background:accumulate"
       inkscape:transform-center-y="-23.92189" />
    <rect
       transform="matrix(-0.5,-0.8660254,0.8660254,-0.5,0,0)"
       y="77.529457"
       x="-486.2442"
       height="10.629921"
       width="77.952759"
       id="rect4517"
       style="opacity:0.75739644;color:#000000;fill:#000000;fill-opacity:0.22745098;fill-rule:nonzero;stroke:none;stroke-width:0.99921262;marker:none;visibility:visible;display:inline;overflow:visible;enable-background:accumulate" />
    <rect
       style="opacity:0.75739644;color:#000000;fill:#000000;fill-opacity:0.22745098;fill-rule:nonzero;stroke:none;stroke-width:0.99921262;marker:none;visibility:visible;display:inline;overflow:visible;enable-background:accumulate"
       id="rect4519"
       width="27.226597"
       height="52.335129"
       x="310.26459"
       y="330" />
    <rect
       style="opacity:0.75739644;color:#000000;fill:#000000;fill-opacity:0.22745098;fill-rule:nonzero;stroke:none;stroke-width:0.99921262;marker:none;visibility:visible;display:inline;overflow:visible;enable-background:accumulate"
       id="rect4521"
       width="53.149605"
       height="10.629921"
       x="462.92926"
       y="378.35745" />
    <rect
       style="opacity:0.75739644;color:#000000;fill:#000000;fill-opacity:0.22745098;fill-rule:nonzero;stroke:none;stroke-width:0.99921262;marker:none;visibility:visible;display:inline;overflow:visible;enable-background:accumulate"
       id="rect4523"
       width="10.629921"
       height="10.629921"
       x="452.29935"
       y="388.98737" />
    <rect
       y="378.35745"
       x="452.29935"
       height="10.629921"
       width="10.629921"
       id="rect4525"
       style="opacity:0.75739644;color:#000000;fill:#000000;fill-opacity:0.22745098;fill-rule:nonzero;stroke:none;stroke-width:0.99921262;marker:none;visibility:visible;display:inline;overflow:visible;enable-background:accumulate" />
    <rect
       y="378.35745"
       x="479.92926"
       height="10.629921"
       width="53.149605"
       id="rect4527"
       style="opacity:0.75739644;color:#000000;fill:#000000;fill-opacity:0.22745098;fill-rule:nonzero;stroke:none;stroke-width:0.99921262;marker:none;visibility:visible;display:inline;overflow:visible;enable-background:accumulate" />
  </g>
</svg>
