<?xml version="1.0" encoding="UTF-8" standalone="no"?>
<!-- Created with Inkscape (http://www.inkscape.org/) -->

<svg
   xmlns:dc="http://purl.org/dc/elements/1.1/"
   xmlns:cc="http://creativecommons.org/ns#"
   xmlns:rdf="http://www.w3.org/1999/02/22-rdf-syntax-ns#"
   xmlns:svg="http://www.w3.org/2000/svg"
   xmlns="http://www.w3.org/2000/svg"
   xmlns:sodipodi="http://sodipodi.sourceforge.net/DTD/sodipodi-0.dtd"
   xmlns:inkscape="http://www.inkscape.org/namespaces/inkscape"
   width="361.43036"
   height="285.96091"
   id="svg2"
   version="1.1"
   inkscape:version="0.48.5 r10040"
   sodipodi:docname="john.svg"
   style="enable-background:new">
  <defs
     id="defs4">
    <marker
       inkscape:stockid="Arrow1Lend"
       orient="auto"
       refY="0"
       refX="0"
       id="Arrow1Lend"
       style="overflow:visible">
      <path
         id="path4161"
         d="M 0,0 5,-5 -12.5,0 5,5 0,0 z"
         style="fill-rule:evenodd;stroke:#000000;stroke-width:1pt"
         transform="matrix(-0.8,0,0,-0.8,-10,0)"
         inkscape:connector-curvature="0" />
    </marker>
    <filter
       inkscape:collect="always"
       id="filter4654"
       color-interpolation-filters="sRGB">
      <feBlend
         inkscape:collect="always"
         mode="screen"
         in2="BackgroundImage"
         id="feBlend4656" />
    </filter>
  </defs>
  <sodipodi:namedview
     id="base"
     pagecolor="#ffffff"
     bordercolor="#666666"
     borderopacity="1.0"
     inkscape:pageopacity="0.0"
     inkscape:pageshadow="2"
     inkscape:zoom="2"
     inkscape:cx="404.46546"
     inkscape:cy="361.34459"
     inkscape:document-units="mm"
     inkscape:current-layer="layer1"
     showgrid="false"
     inkscape:window-width="1920"
     inkscape:window-height="1005"
     inkscape:window-x="-9"
     inkscape:window-y="-9"
     inkscape:window-maximized="1"
     inkscape:object-nodes="true"
     inkscape:snap-smooth-nodes="true"
     inkscape:object-paths="true"
     inkscape:snap-object-midpoints="true"
     inkscape:snap-intersection-paths="false"
     inkscape:snap-midpoints="true"
     fit-margin-top="1"
     fit-margin-left="1"
     fit-margin-right="1"
     fit-margin-bottom="1"
     units="mm" />
  <metadata
     id="metadata7">
    <rdf:RDF>
      <cc:Work
         rdf:about="">
        <dc:format>image/svg+xml</dc:format>
        <dc:type
           rdf:resource="http://purl.org/dc/dcmitype/StillImage" />
        <dc:title></dc:title>
      </cc:Work>
    </rdf:RDF>
  </metadata>
  <g
     inkscape:groupmode="layer"
     id="layer2"
     inkscape:label="Motor"
     style="display:none"
     transform="translate(-19.550443,-409.30044)">
    <g
       style="display:inline;filter:url(#filter4654)"
       id="g5029"
       transform="translate(332.38687,52.992769)">
      <path
         style="fill:#000000;fill-opacity:0.39215686;display:inline"
         inkscape:connector-curvature="0"
         id="path2985"
         d="m 258.96429,541.91575 c -9.088,7.63727 -14.875,19.07507 -14.875,31.875 0,12.79993 5.7894,24.24017 14.875,31.875 l 53.5,0 c 9.0856,-7.63483 14.875,-19.07507 14.875,-31.875 0,-12.79833 -5.7577,-24.23774 -14.84379,-31.875 l -53.53121,0 z" />
      <path
         id="path3798"
         d="m 285.72992,556.072 c -9.78457,0 -17.71875,7.93418 -17.71875,17.71875 0,9.78457 7.93418,17.71875 17.71875,17.71875 9.78457,0 17.71875,-7.93418 17.71875,-17.71875 0,-9.78457 -7.93418,-17.71875 -17.71875,-17.71875 z m -28.09375,12.40625 c -2.93537,0 -5.3125,2.37713 -5.3125,5.3125 0,2.93537 2.37713,5.3125 5.3125,5.3125 2.93537,0 5.3125,-2.37713 5.3125,-5.3125 0,-2.93537 -2.37713,-5.3125 -5.3125,-5.3125 z m 56.15625,0 c -2.93537,0 -5.3125,2.37713 -5.3125,5.3125 0,2.93537 2.37713,5.3125 5.3125,5.3125 2.93537,0 5.3125,-2.37713 5.3125,-5.3125 0,-2.93537 -2.37713,-5.3125 -5.3125,-5.3125 z"
         style="fill:#cc0000;fill-opacity:0.39215686;display:inline"
         inkscape:connector-curvature="0" />
    </g>
    <g
       style="display:inline;filter:url(#filter4654)"
       transform="translate(668.47761,169.38306)"
       id="g4107">
      <rect
         y="388.55872"
         x="3.8643427"
         height="178.19795"
         width="14.173228"
         id="rect4006"
         style="fill:#000000;fill-opacity:0.39215686" />
      <path
         inkscape:connector-curvature="0"
         id="path4004"
         d="m 7.9040819,390.28699 c -0.300292,0.52042 -0.5,1.10598 -0.5,1.75 0,1.95691 1.6055859,3.5625 3.5625001,3.5625 1.956914,0 3.53125,-1.60559 3.53125,-3.5625 0,-0.64205 -0.17016,-1.23066 -0.46875,-1.75 l -6.1250001,0 z"
         style="fill:#000000;fill-opacity:0.39215686" />
      <path
         style="fill:#000000;fill-opacity:0.39215686"
         d="m 7.9223655,398.65224 c -0.29849,0.5173 -0.4969996,1.09934 -0.4969996,1.7395 0,1.94516 1.595951,3.54112 3.5411221,3.54112 1.945171,0 3.51006,-1.59596 3.51006,-3.54112 0,-0.6382 -0.169139,-1.22328 -0.465938,-1.7395 l -6.0882445,0 z"
         id="path4019"
         inkscape:connector-curvature="0" />
      <path
         inkscape:connector-curvature="0"
         id="path4021"
         d="m 7.937585,406.98566 c -0.2969901,0.5147 -0.4945021,1.09381 -0.4945021,1.73075 0,1.93539 1.587931,3.52333 3.5233271,3.52333 1.935396,0 3.492421,-1.58794 3.492421,-3.52333 0,-0.63499 -0.168289,-1.21713 -0.463596,-1.73075 l -6.05765,0 z"
         style="fill:#000000;fill-opacity:0.39215686" />
      <path
         style="fill:#000000;fill-opacity:0.39215686"
         d="m 7.9528042,415.29253 c -0.29549,0.5121 -0.4920045,1.0883 -0.4920045,1.72202 0,1.92561 1.5799113,3.50553 3.5055323,3.50553 1.925621,0 3.474782,-1.57992 3.474782,-3.50553 0,-0.63179 -0.167439,-1.21098 -0.461254,-1.72202 l -6.0270557,0 z"
         id="path4023"
         inkscape:connector-curvature="0" />
      <path
         inkscape:connector-curvature="0"
         id="path4025"
         d="m 7.968023,423.57285 c -0.2939901,0.5095 -0.4895071,1.08277 -0.4895071,1.71327 0,1.91584 1.5718915,3.48774 3.4877381,3.48774 1.915847,0 3.457144,-1.5719 3.457144,-3.48774 0,-0.62858 -0.166589,-1.20483 -0.458913,-1.71327 l -5.9964621,0 z"
         style="fill:#000000;fill-opacity:0.39215686" />
      <path
         style="fill:#000000;fill-opacity:0.39215686"
         d="m 7.9832415,431.82663 c -0.2924901,0.5069 -0.4870096,1.07724 -0.4870096,1.70452 0,1.90607 1.5638716,3.46995 3.4699441,3.46995 1.906073,0 3.439506,-1.56388 3.439506,-3.46995 0,-0.62537 -0.165739,-1.19868 -0.456572,-1.70452 l -5.9658685,0 z"
         id="path4027"
         inkscape:connector-curvature="0" />
      <path
         style="fill:#000000;fill-opacity:0.39215686"
         d="m 8.1963087,544.5935 c -0.271491,0.47051 -0.4520448,0.99991 -0.4520448,1.58216 0,1.76922 1.4515941,3.22082 3.2208191,3.22082 1.769226,0 3.192567,-1.4516 3.192567,-3.22082 0,-0.58047 -0.15384,-1.11263 -0.423792,-1.58216 l -5.5375493,0 z"
         id="path4029"
         inkscape:connector-curvature="0" />
      <path
         inkscape:connector-curvature="0"
         id="path4031"
         d="m 8.150652,528.77587 c -0.2759908,0.4783 -0.4595373,1.01647 -0.4595373,1.60838 0,1.79854 1.4756536,3.2742 3.2742023,3.2742 1.79855,0 3.245482,-1.47566 3.245482,-3.2742 0,-0.5901 -0.156389,-1.13107 -0.430816,-1.60838 l -5.629331,0 z"
         style="fill:#000000;fill-opacity:0.39215686" />
      <path
         style="fill:#000000;fill-opacity:0.39215686"
         d="m 8.120214,504.91669 c -0.2789908,0.48351 -0.4645323,1.02753 -0.4645323,1.62587 0,1.81809 1.4916934,3.30979 3.3097913,3.30979 1.8181,0 3.280759,-1.4917 3.280759,-3.30979 0,-0.59651 -0.158089,-1.14336 -0.435499,-1.62587 l -5.690519,0 z"
         id="path4033"
         inkscape:connector-curvature="0" />
      <path
         inkscape:connector-curvature="0"
         id="path4035"
         d="m 8.1810899,536.7112 c -0.2729909,0.4731 -0.4545423,1.00543 -0.4545423,1.5909 0,1.77899 1.4596139,3.23861 3.2386134,3.23861 1.779001,0 3.210205,-1.45962 3.210205,-3.23861 0,-0.58368 -0.15469,-1.11878 -0.426133,-1.5909 l -5.5681431,0 z"
         style="fill:#000000;fill-opacity:0.39215686" />
      <path
         style="fill:#000000;fill-opacity:0.39215686"
         d="m 8.2115279,552.44927 c -0.269991,0.46791 -0.4495473,0.99438 -0.4495473,1.57342 0,1.75944 1.4435742,3.20302 3.2030244,3.20302 1.759451,0 3.174928,-1.44358 3.174928,-3.20302 0,-0.57727 -0.15299,-1.10648 -0.421451,-1.57342 l -5.5069541,0 z"
         id="path4037"
         inkscape:connector-curvature="0" />
      <path
         inkscape:connector-curvature="0"
         id="path4039"
         d="m 8.1658707,520.86703 c -0.2744909,0.47571 -0.4570398,1.01096 -0.4570398,1.59964 0,1.78877 1.4676338,3.25641 3.2564091,3.25641 1.788775,0 3.227843,-1.46764 3.227843,-3.25641 0,-0.58688 -0.15554,-1.12492 -0.428475,-1.59964 l -5.5987373,0 z"
         style="fill:#000000;fill-opacity:0.39215686" />
      <path
         style="fill:#000000;fill-opacity:0.39215686"
         d="m 8.1354327,512.90515 c -0.2774908,0.4809 -0.4620348,1.022 -0.4620348,1.61712 0,1.80832 1.4836735,3.292 3.2919981,3.292 1.808324,0 3.26312,-1.48368 3.26312,-3.292 0,-0.5933 -0.157239,-1.13721 -0.433157,-1.61712 l -5.6599263,0 z"
         id="path4041"
         inkscape:connector-curvature="0" />
      <path
         inkscape:connector-curvature="0"
         id="path4043"
         d="m 8.1049944,496.9017 c -0.2804906,0.4861 -0.4670297,1.03305 -0.4670297,1.6346 0,1.82787 1.4997132,3.32759 3.3275863,3.32759 1.827874,0 3.298398,-1.49972 3.298398,-3.32759 0,-0.59971 -0.15894,-1.14951 -0.437841,-1.6346 l -5.7211136,0 z"
         style="fill:#000000;fill-opacity:0.39215686" />
      <path
         style="fill:#000000;fill-opacity:0.39215686"
         d="m 8.0745564,480.79217 c -0.2834906,0.4913 -0.4720247,1.0441 -0.4720247,1.65208 0,1.84742 1.5157529,3.36318 3.3631753,3.36318 1.847424,0 3.333675,-1.51576 3.333675,-3.36318 0,-0.60612 -0.16064,-1.1618 -0.442523,-1.65208 l -5.7823026,0 z"
         id="path4045"
         inkscape:connector-curvature="0" />
      <path
         inkscape:connector-curvature="0"
         id="path4047"
         d="m 8.0593371,472.69758 c -0.2849905,0.4939 -0.4745222,1.04963 -0.4745222,1.66083 0,1.85719 1.5237728,3.38097 3.3809711,3.38097 1.857198,0 3.351313,-1.52378 3.351313,-3.38097 0,-0.60933 -0.16149,-1.16795 -0.444865,-1.66083 l -5.8128969,0 z"
         style="fill:#000000;fill-opacity:0.39215686" />
      <path
         style="fill:#000000;fill-opacity:0.39215686"
         d="m 8.0897751,488.86021 c -0.2819906,0.48871 -0.4695272,1.03858 -0.4695272,1.64335 0,1.83764 1.5077331,3.34538 3.3453821,3.34538 1.837648,0 3.316036,-1.50774 3.316036,-3.34538 0,-0.60292 -0.15979,-1.15566 -0.440182,-1.64335 l -5.7517089,0 z"
         id="path4049"
         inkscape:connector-curvature="0" />
      <path
         inkscape:connector-curvature="0"
         id="path4051"
         d="m 8.0441184,464.57644 c -0.2864905,0.4965 -0.4770197,1.05514 -0.4770197,1.66956 0,1.86697 1.5317926,3.39877 3.3987643,3.39877 1.866973,0 3.368952,-1.5318 3.368952,-3.39877 0,-0.61254 -0.16234,-1.17409 -0.447206,-1.66956 l -5.8434906,0 z"
         style="fill:#000000;fill-opacity:0.39215686" />
      <path
         style="fill:#000000;fill-opacity:0.39215686"
         d="m 8.0288991,456.42881 c -0.2879905,0.4991 -0.4795172,1.06067 -0.4795172,1.67831 0,1.87674 1.5398125,3.41656 3.4165601,3.41656 1.876748,0 3.38659,-1.53982 3.38659,-3.41656 0,-0.61575 -0.163189,-1.18025 -0.449547,-1.67831 l -5.8740859,0 z"
         id="path4053"
         inkscape:connector-curvature="0" />
      <path
         inkscape:connector-curvature="0"
         id="path4055"
         d="m 8.0136804,448.25463 c -0.2894904,0.5017 -0.4820147,1.0662 -0.4820147,1.68706 0,1.88651 1.5478324,3.43435 3.4343533,3.43435 1.886523,0 3.404229,-1.54784 3.404229,-3.43435 0,-0.61896 -0.164039,-1.1864 -0.451889,-1.68706 l -5.9046786,0 z"
         style="fill:#000000;fill-opacity:0.39215686" />
      <path
         style="fill:#000000;fill-opacity:0.39215686"
         d="m 7.998461,440.0539 c -0.2909903,0.5043 -0.4845121,1.07172 -0.4845121,1.69579 0,1.89629 1.5558522,3.45215 3.4521491,3.45215 1.896297,0 3.421867,-1.55586 3.421867,-3.45215 0,-0.62216 -0.164889,-1.19254 -0.45423,-1.69579 l -5.935274,0 z"
         id="path4057"
         inkscape:connector-curvature="0" />
      <path
         inkscape:connector-curvature="0"
         id="path4059"
         d="m 8.2267465,560.27849 c -0.268491,0.4653 -0.4470497,0.98885 -0.4470497,1.56467 0,1.74967 1.4355546,3.18523 3.1852302,3.18523 1.749676,0 3.15729,-1.43556 3.15729,-3.18523 0,-0.57406 -0.15214,-1.10033 -0.41911,-1.56467 l -5.4763605,0 z"
         style="fill:#000000;fill-opacity:0.39215686" />
    </g>
    <g
       style="display:inline;filter:url(#filter4654)"
       id="g5039"
       transform="translate(438.5,142.5)">
      <path
         transform="matrix(3.2151725,0,0,3.2151725,-560.36812,-1055.4882)"
         d="m 239.64285,509.95148 c 0,7.15011 -5.79631,12.94643 -12.94642,12.94643 -7.15012,0 -12.94643,-5.79632 -12.94643,-12.94643 0,-7.15012 5.79631,-12.94643 12.94643,-12.94643 7.15011,0 12.94642,5.79631 12.94642,12.94643 z"
         sodipodi:ry="12.946428"
         sodipodi:rx="12.946428"
         sodipodi:cy="509.95148"
         sodipodi:cx="226.69643"
         id="path5041"
         style="opacity:0.75739644;color:#000000;fill:#000000;fill-opacity:0.39215686;fill-rule:nonzero;stroke:none;stroke-width:1;marker:none;visibility:visible;display:inline;overflow:visible;enable-background:accumulate"
         sodipodi:type="arc" />
      <path
         inkscape:transform-center-y="0.89629421"
         inkscape:connector-curvature="0"
         id="path5043"
         d="m 165.48662,582.35527 c -0.29699,0.5147 -0.4945,1.09381 -0.4945,1.73075 0,1.93539 1.58793,3.52333 3.52333,3.52333 1.93539,0 3.49242,-1.58794 3.49242,-3.52333 0,-0.63499 -0.16829,-1.21713 -0.4636,-1.73075 l -6.05765,0 z"
         style="fill:#000000;fill-opacity:0.39215686" />
    </g>
  </g>
  <g
     inkscape:label="Zeichnung"
     inkscape:groupmode="layer"
     id="layer1"
     style="display:inline;filter:url(#filter4654)"
     transform="translate(-19.550443,-409.30044)">
    <g
       id="g4647" />
    <path
       style="opacity:0.75739644;color:#000000;fill:#000000;fill-opacity:0.39215686;fill-rule:nonzero;stroke:none;stroke-width:1;marker:none;visibility:visible;display:inline;overflow:visible;enable-background:accumulate"
       d="m 80.71875,431.84375 c -22.98885,0 -41.625,18.63615 -41.625,41.625 0,22.98885 18.63615,41.625 41.625,41.625 22.98886,0 41.625,-18.63615 41.625,-41.625 0,-22.98885 -18.63614,-41.625 -41.625,-41.625 z m 0,29.21875 c 6.84921,0 12.40626,5.55705 12.40626,12.40625 0,6.8492 -5.55705,12.40625 -12.40626,12.40625 -6.8492,0 -12.40625,-5.55705 -12.40625,-12.40625 0,-6.8492 5.55705,-12.40625 12.40625,-12.40625 z"
       id="path4828"
       inkscape:connector-curvature="0" />
    <path
       inkscape:connector-curvature="0"
       id="path5015"
       d="m 109.25,544.46875 c -22.98885,0 -41.625,18.63615 -41.625,41.625 0,22.98885 18.63615,41.625 41.625,41.625 22.98886,0 41.625,-18.63615 41.625,-41.625 0,-22.98885 -18.63614,-41.625 -41.625,-41.625 z m 0,29.21875 c 6.84921,0 12.40626,5.55705 12.40626,12.40625 0,6.8492 -5.55705,12.40625 -12.40626,12.40625 -6.8492,0 -12.40625,-5.55705 -12.40625,-12.40625 0,-6.8492 5.55705,-12.40625 12.40625,-12.40625 z"
       style="opacity:0.75739644;color:#000000;fill:#000000;fill-opacity:0.39215686;fill-rule:nonzero;stroke:none;stroke-width:1;marker:none;visibility:visible;display:inline;overflow:visible;enable-background:accumulate" />
    <path
       style="opacity:0.75739644;color:#000000;fill:#000000;fill-opacity:0.39215686;fill-rule:nonzero;stroke:none;stroke-width:0.99921262;marker:none;visibility:visible;display:inline;overflow:visible;enable-background:accumulate"
       d="m 23.09375,517.09375 0,79 42.53125,0 0,-54.1875 62.8125,0 c 0.6512,5.98672 5.70942,10.625 11.875,10.625 l 11.5625,0 c 6.16558,0 11.2238,-4.63828 11.875,-10.625 l 71,0 c 0.65151,5.98638 5.67841,10.625 11.84375,10.625 l 0.3125,0 0,44.78125 c 0,0.1942 18.77455,8.34375 18.96875,8.34375 l 19.09375,0 c -9.0856,-7.63483 -14.875,-19.07507 -14.875,-31.875 0,-12.79993 5.787,-24.23773 14.875,-31.875 l 21.4375,0 0,-7.09375 10.65625,0 0,7.09375 21.4375,0 c 9.08609,7.63726 14.84375,19.07667 14.84375,31.875 0,12.79993 -5.7894,24.24017 -14.875,31.875 l 20.625,0 c 0.1942,0 18.34375,-8.14955 18.34375,-8.34375 0,-18.58119 -0.005,-35.7807 0,-54.46875 l -10.09375,5.84375 -5.3125,-9.1875 15.40625,-8.90625 0,-13.5 -13.4375,0 0,10.625 -10.625,0 0,-10.625 -95.65625,0 0,10.625 -10.65625,0 0,-10.625 -95.65625,0 0,10.625 -10.625,0 0,-10.625 -95.6875,0 0,10.625 -10.625,0 0,-10.625 -11.375,0 z m 348.25,42.5625 0.3125,0 0,3.0625 -0.25,0 -0.0625,0 c -0.0773,0 -0.14025,-0.0191 -0.15625,-0.0937 l -0.0937,-1.125 -3.90625,0 c -0.11734,0 -0.22376,0.008 -0.34375,0 l 0.875,1 c 0.04,0.0507 0.0625,0.11092 0.0625,0.15625 -10e-6,0.088 -0.0351,0.1475 -0.0937,0.1875 l -0.3125,0.21875 -1.46875,-1.6875 0,-0.59375 5.1875,0 c 0.048,-0.63199 0.0858,-0.95466 0.0937,-1 0.016,-0.0747 0.0789,-0.12502 0.15625,-0.125 z m -338.15625,3.5 22.34375,0 0,22.3125 -22.34375,0 0,-22.3125 z m 338.03125,0.40625 c 0.072,0 0.1275,0.006 0.1875,0.0312 0.06,0.0253 0.11092,0.0797 0.15625,0.125 0.0453,0.0453 0.0684,0.0949 0.0937,0.15625 0.0253,0.0613 0.0625,0.11817 0.0625,0.1875 0,0.0693 -0.0372,0.12617 -0.0625,0.1875 -0.0253,0.0613 -0.0484,0.11225 -0.0937,0.15625 -0.0453,0.044 -0.0962,0.0997 -0.15625,0.125 -0.06,0.0253 -0.1155,0.0312 -0.1875,0.0312 -0.0693,0 -0.15742,-0.006 -0.21875,-0.0312 -0.0613,-0.0253 -0.11092,-0.081 -0.15625,-0.125 -0.0453,-0.044 -0.0671,-0.0949 -0.0937,-0.15625 -0.0267,-0.0613 -0.0312,-0.11817 -0.0312,-0.1875 0,-0.0693 0.005,-0.12617 0.0312,-0.1875 0.0267,-0.0613 0.0484,-0.11092 0.0937,-0.15625 0.0453,-0.0453 0.0949,-0.0997 0.15625,-0.125 0.0613,-0.0253 0.14942,-0.0312 0.21875,-0.0312 z m -2.4375,1.625 c 0.50133,0 0.94584,0.0483 1.3125,0.15625 0.36666,0.108 0.66625,0.25084 0.90625,0.4375 0.24,0.18667 0.41392,0.43284 0.53125,0.6875 0.11733,0.25467 0.1875,0.52184 0.1875,0.8125 0,0.29333 -0.0702,0.5605 -0.1875,0.8125 -0.11733,0.252 -0.29125,0.46959 -0.53125,0.65625 -0.24,0.18667 -0.53959,0.33083 -0.90625,0.4375 -0.36666,0.10667 -0.81117,0.15625 -1.3125,0.15625 -0.50132,0 -0.9445,-0.0496 -1.3125,-0.15625 -0.368,-0.10667 -0.66492,-0.25083 -0.90625,-0.4375 -0.24133,-0.18666 -0.41392,-0.40425 -0.53125,-0.65625 -0.11736,-0.252 -0.18753,-0.51917 -0.1875,-0.8125 10e-6,-0.29066 0.0702,-0.55784 0.1875,-0.8125 0.11734,-0.25466 0.28993,-0.50083 0.53125,-0.6875 0.24133,-0.18667 0.53826,-0.3295 0.90625,-0.4375 0.368,-0.10799 0.81118,-0.15625 1.3125,-0.15625 z m 0,0.75 c -0.43732,2e-5 -0.79642,0.0204 -1.09375,0.0937 -0.29733,0.0733 -0.53742,0.18851 -0.71875,0.3125 -0.18133,0.124 -0.32758,0.27484 -0.40625,0.4375 -0.0787,0.16267 -0.0937,0.32401 -0.0937,0.5 6e-5,0.176 0.0152,0.33734 0.0937,0.5 0.0787,0.16267 0.22493,0.31484 0.40625,0.4375 0.18133,0.12267 0.42143,0.20792 0.71875,0.28125 0.29734,0.0733 0.65643,0.125 1.09375,0.125 0.43733,0 0.79776,-0.0517 1.09375,-0.125 0.296,-0.0733 0.53742,-0.15858 0.71875,-0.28125 0.18133,-0.12266 0.32758,-0.27483 0.40625,-0.4375 0.0787,-0.16266 0.0937,-0.324 0.0937,-0.5 0,-0.176 -0.0151,-0.33734 -0.0937,-0.5 -0.0787,-0.16267 -0.22492,-0.3135 -0.40625,-0.4375 -0.18133,-0.124 -0.42275,-0.23916 -0.71875,-0.3125 -0.29599,-0.0733 -0.65642,-0.0937 -1.09375,-0.0937 z m 2.53125,5.625 0.34375,0 0,1.28125 -2.59375,0 c -0.64532,0 -0.96875,0.27576 -0.96875,0.84375 0,0.39466 0.18651,0.75776 0.5625,1.09375 l 2.40625,0 c 0.003,-0.0187 0.0351,-0.15217 0.0937,-0.4375 0.016,-0.0827 0.0736,-0.12501 0.15625,-0.125 l 0.34375,0 0,1.875 -0.34375,0 c -0.0827,0 -0.14025,-0.045 -0.15625,-0.125 l -0.0937,-0.46875 -2.875,0 c -0.0507,0.256 -0.0831,0.42075 -0.0937,0.46875 -0.016,0.08 -0.0736,0.125 -0.15625,0.125 l -0.34375,0 0,-0.59375 0,-0.40625 c 0,-0.10133 0.0576,-0.19208 0.15625,-0.21875 l 0.4375,-0.0312 c -0.43466,-0.39466 -0.65624,-0.84242 -0.65625,-1.34375 0,-0.43732 0.15484,-0.79392 0.4375,-1.03125 0.272,-0.22933 0.62443,-0.34375 1.09375,-0.34375 l 2,0 c 0.0507,-0.25866 0.0831,-0.39216 0.0937,-0.4375 0.016,-0.0827 0.0736,-0.125 0.15625,-0.125 z m 0,5 0.34375,0 0,1.28125 -2.59375,0 c -0.64532,0 -0.96875,0.27576 -0.96875,0.84375 0,0.39466 0.18651,0.75776 0.5625,1.09375 l 2.40625,0 0.0312,-0.0937 c 0.04,-0.208 0.0545,-0.31442 0.0625,-0.34375 0.016,-0.08 0.0736,-0.125 0.15625,-0.125 l 0.34375,0 0,1.84375 -0.34375,0 c -0.0827,0 -0.14025,-0.0137 -0.15625,-0.0937 l -0.0937,-0.46875 -4.71875,0 c -0.0507,0.30933 -0.0831,0.48325 -0.0937,0.53125 -0.016,0.08 -0.0736,0.125 -0.15625,0.125 l -0.34375,0 0,-1.375 2.375,0 c -0.40532,-0.38133 -0.59375,-0.8245 -0.59375,-1.3125 0,-0.43732 0.12626,-0.76533 0.40625,-1 0.27467,-0.23199 0.65568,-0.34375 1.125,-0.34375 l 2,0 c 0.0507,-0.25599 0.0831,-0.42075 0.0937,-0.46875 0.016,-0.08 0.0736,-0.0937 0.15625,-0.0937 z m -1.6875,4.96875 c 0.32,0 0.619,0.0357 0.875,0.125 0.256,0.0893 0.44367,0.20834 0.625,0.375 0.18133,0.16667 0.34017,0.38634 0.4375,0.625 0.0973,0.23867 0.15625,0.51651 0.15625,0.8125 0,0.296 -0.0589,0.54259 -0.15625,0.78125 -0.0973,0.23867 -0.25617,0.457 -0.4375,0.625 -0.18133,0.168 -0.369,0.28433 -0.625,0.375 -0.256,0.0907 -0.555,0.15625 -0.875,0.15625 -0.31733,0 -0.61767,-0.0656 -0.875,-0.15625 -0.25733,-0.0907 -0.47492,-0.207 -0.65625,-0.375 -0.18133,-0.168 -0.30758,-0.38633 -0.40625,-0.625 -0.0987,-0.23866 -0.15625,-0.48525 -0.15625,-0.78125 0,-0.296 0.0576,-0.57383 0.15625,-0.8125 0.0987,-0.23866 0.22492,-0.45833 0.40625,-0.625 0.18134,-0.16666 0.39892,-0.28567 0.65625,-0.375 0.25733,-0.0893 0.55768,-0.12501 0.875,-0.125 z m 0,0.71875 c -0.48266,10e-6 -0.85567,0.11517 -1.125,0.3125 -0.26933,0.19734 -0.40625,0.50626 -0.40625,0.90625 2e-5,0.20267 0.0244,0.38192 0.0937,0.53125 0.0693,0.14933 0.18184,0.24375 0.3125,0.34375 0.13067,0.1 0.27809,0.20067 0.46875,0.25 0.19067,0.0493 0.41626,0.0625 0.65625,0.0625 0.24,0 0.46692,-0.0132 0.65625,-0.0625 0.18933,-0.0493 0.33942,-0.15 0.46875,-0.25 0.12933,-0.1 0.21192,-0.19442 0.28125,-0.34375 0.0693,-0.14933 0.125,-0.32858 0.125,-0.53125 0,-0.39999 -0.13825,-0.70892 -0.40625,-0.90625 -0.268,-0.19733 -0.645,-0.3125 -1.125,-0.3125 z m -3.71875,3.4375 0.34375,0 c 0.0827,0 0.14028,0.045 0.15625,0.125 l 0.0937,0.46875 3.15625,0 c 0.98399,0 1.62092,0.34326 1.90625,1.03125 0.0933,0.224 0.15625,0.47534 0.15625,0.75 0,0.27466 -0.0503,0.5325 -0.125,0.8125 -0.33866,-0.024 -0.52917,-0.0292 -0.5625,-0.0625 -0.0333,-0.0333 -0.0312,-0.10425 -0.0312,-0.15625 0,-0.052 0.007,-0.1075 0.0312,-0.1875 0.024,-0.08 0.0312,-0.17917 0.0312,-0.3125 0,-0.73865 -0.45501,-1.125 -1.375,-1.125 l -3.1875,0 c -0.0507,0.30667 -0.0831,0.48325 -0.0937,0.53125 -0.016,0.08 -0.0736,0.125 -0.15625,0.125 l -0.34375,0 0,-2 z"
       id="rect4824"
       inkscape:connector-curvature="0" />
    <path
       style="opacity:0.75739644;color:#000000;fill:#000000;fill-opacity:0.39215686;fill-rule:nonzero;stroke:none;stroke-width:0.99921262;marker:none;visibility:visible;display:inline;overflow:visible;enable-background:accumulate"
       d="m 90.334557,625.90553 c -11.74149,0 -21.28125,9.53976 -21.28125,21.28125 0,9.90688 6.79832,18.2343 15.96875,20.59375 l 0,-20.59375 10.625,0 0,20.59375 c 9.170433,-2.35945 15.937503,-10.68687 15.937503,-20.59375 0,-11.74149 -9.50851,-21.28125 -21.250003,-21.28125 z"
       id="path4812"
       inkscape:connector-curvature="0" />
    <path
       style="opacity:0.75739644;color:#000000;fill:#000000;fill-opacity:0.39215686;fill-rule:nonzero;stroke:none;stroke-width:0.99921262;marker:none;visibility:visible;display:inline;overflow:visible;enable-background:accumulate"
       d="m 163.51594,463.3436 10.53125,-0.0312 0,-10.625 88.65625,0 0,-18.5625 10.59375,0 -0.0312,18.5625 10.625,0 0,10.625 10.5625,0 0,-10.625 10.625,0 0,10.625 10.625,0 0,-10.625 14.21875,0 0,10.625 10.625,0 c -0.2437,-26.68988 17.875,-19.97363 17.875,-50.4375 l -10.625,0 0,10.625 c -36.49624,-0.0251 -74.48469,-0.0324 -106.37499,-0.0312 l 0,18.625 -10.625,-0.0312 0,-18.59375 -10.5625,0 0,-10.59375 -10.625,0 0,10.59375 -31.90625,0.0312 0,-10.625 -10.625,0 0,10.625 -14.1875,0 0,-10.625 -10.65625,-0.0312 c 0,34.71171 21.28125,19.87038 21.28125,50.5 z m 145.15624,-20.21875 c -0.432,0 -0.75734,-0.1575 -1,-0.4375 -0.22933,-0.26666 -0.34375,-0.61909 -0.34375,-1.09375 l 0,-2 c -0.256,-0.0507 -0.42075,-0.0831 -0.46875,-0.0937 -0.08,-0.016 -0.0937,-0.0736 -0.0937,-0.15625 l 0,-0.34375 1.28125,0 0,2.59375 c 0,0.30666 0.0774,0.5195 0.21875,0.6875 0.14133,0.168 0.33967,0.28125 0.625,0.28125 0.40266,0 0.76575,-0.18917 1.09375,-0.5625 l 0,-2.40625 c -0.0453,-0.0107 -0.18151,-0.0431 -0.4375,-0.0937 -0.0827,-0.016 -0.125,-0.0736 -0.125,-0.15625 l 0,-0.34375 0.5625,0 0.71875,0 0,3.46875 c 0.25866,0.0507 0.39216,0.0831 0.4375,0.0937 0.0827,0.016 0.125,0.0736 0.125,0.15625 l 0,0.34375 -1,0 c -0.10133,0 -0.16084,-0.0576 -0.1875,-0.15625 l -0.0625,-0.4375 c -0.38933,0.43199 -0.83709,0.65625 -1.34375,0.65625 z m 4.78125,-0.0312 c -0.51999,0 -0.92201,-0.16592 -1.25,-0.53125 -0.344,-0.37866 -0.53125,-0.88592 -0.53125,-1.53125 0,-0.62132 0.172,-1.12133 0.5,-1.5 0.34399,-0.39199 0.80626,-0.59375 1.40625,-0.59375 0.30933,10e-6 0.72809,0.0839 1.21875,0.28125 l 0,1.0625 -0.34375,0 c -0.0773,-1e-5 -0.11168,-0.0191 -0.125,-0.0937 -0.008,-0.0293 -0.0179,-0.14183 -0.0312,-0.3125 -0.0134,-0.17066 -0.0313,-0.27325 -0.0312,-0.28125 -0.128,-0.04 -0.21192,-0.0518 -0.28125,-0.0625 -0.15467,-0.024 -0.32342,-0.0339 -0.46875,-0.0312 -0.14533,0.003 -0.29084,0.0258 -0.4375,0.0937 -0.14667,0.068 -0.271,0.17918 -0.375,0.3125 -0.20533,0.26933 -0.3125,0.64768 -0.3125,1.125 0,0.48266 0.13042,0.85034 0.34375,1.125 0.208,0.264 0.47842,0.40625 0.84375,0.40625 0.33333,0 0.64492,-0.11975 0.90625,-0.34375 0.048,-0.0427 0.10159,-0.0625 0.15625,-0.0625 0.0547,0 0.0957,0.0172 0.125,0.0625 l 0.1875,0.25 c -0.33866,0.41599 -0.84135,0.625 -1.5,0.625 z m -8.78125,0 c -0.24942,-0.003 -0.50767,0.005 -0.78125,-0.0312 -0.27358,-0.0358 -0.52541,-0.0892 -0.71875,-0.125 -0.19334,-0.0358 -0.27255,-0.0598 -0.28125,-0.0625 l 0,-0.0625 0,-0.5625 0,-4.5 c -0.0588,-0.01 -0.16142,-0.0424 -0.28125,-0.0625 -0.11983,-0.0201 -0.20807,-0.0233 -0.25,-0.0312 -0.0358,-0.008 -0.0401,-0.0353 -0.0625,-0.0625 -0.0224,-0.0272 -0.0306,-0.0574 -0.0312,-0.0937 l 0,-0.34375 0.625,0 0.0312,0 0.6875,0 0,2.4375 c 0.16804,-0.19467 0.34519,-0.3501 0.5625,-0.46875 0.21731,-0.11867 0.47001,-0.18748 0.75,-0.1875 0.23466,4e-5 0.43562,0.037 0.625,0.125 0.1893,0.088 0.3666,0.23159 0.5,0.40625 0.13328,0.17473 0.24044,0.36777 0.3125,0.625 0.072,0.25736 0.0938,0.57024 0.0937,0.90625 1e-4,0.004 -3e-5,0.0273 0,0.0312 -2e-5,0.33069 -0.0331,0.61637 -0.125,0.875 -0.092,0.25863 -0.21501,0.4789 -0.375,0.65625 -0.16001,0.17735 -0.34519,0.31292 -0.5625,0.40625 -0.21735,0.0933 -0.46542,0.12497 -0.71875,0.125 z m -5.34375,0 c -0.15736,-3e-5 -0.30023,-0.0184 -0.4375,-0.0625 -0.13735,-0.0442 -0.24242,-0.0992 -0.34375,-0.1875 -0.10132,-0.0883 -0.19004,-0.20861 -0.25,-0.34375 -0.06,-0.1351 -0.0938,-0.28413 -0.0937,-0.46875 0,-0.16051 0.037,-0.32017 0.125,-0.46875 0.088,-0.14853 0.24153,-0.29121 0.4375,-0.40625 0.196,-0.11502 0.43264,-0.20762 0.75,-0.28125 0.3173,-0.0736 0.72884,-0.0937 1.1875,-0.0937 l 0,-0.3125 c -2e-5,-0.31658 -0.0841,-0.55639 -0.21875,-0.71875 -0.13464,-0.1624 -0.32976,-0.24998 -0.59375,-0.25 -0.17339,2e-5 -0.31891,0.0185 -0.4375,0.0625 -0.11871,0.044 -0.22587,0.10161 -0.3125,0.15625 -0.0867,0.0547 -0.15613,0.081 -0.21875,0.125 -0.0627,0.044 -0.12624,0.0938 -0.1875,0.0937 -0.048,-2e-5 -0.089,-0.0372 -0.125,-0.0625 -0.036,-0.0253 -0.0724,-0.0564 -0.0937,-0.0937 l -0.125,-0.21875 c 0.22397,-0.21603 0.46009,-0.36211 0.71875,-0.46875 0.25865,-0.10667 0.56031,-0.18747 0.875,-0.1875 0.22663,4e-5 0.41774,0.0503 0.59375,0.125 0.17598,0.0746 0.31751,0.17914 0.4375,0.3125 0.12004,0.13336 0.21994,0.27944 0.28125,0.46875 0.0613,0.18941 0.0937,0.39842 0.0937,0.625 l 0,2.03125 0.21875,0.0625 c 0.0846,0.0168 0.15484,0.0247 0.1875,0.0312 0.0358,0.008 0.0401,0.004 0.0625,0.0312 0.0224,0.0272 0.0618,0.0575 0.0625,0.0937 l 0,0.34375 -0.53125,0 -0.0625,0 -0.25,0 c -0.0694,1e-5 -0.11362,-0.01 -0.15625,-0.0312 -0.0427,-0.0213 -0.0804,-0.0556 -0.0937,-0.125 l -0.0937,-0.375 c -0.10668,0.096 -0.21116,0.17407 -0.3125,0.25 -0.10137,0.0761 -0.20055,0.13553 -0.3125,0.1875 -0.112,0.052 -0.21708,0.0984 -0.34375,0.125 -0.12671,0.0267 -0.28288,0.0312 -0.4375,0.0312 z m 22.90625,-0.0312 -1.875,0 0,-0.34375 c 6.9e-4,-0.0363 0.0401,-0.0665 0.0625,-0.0937 0.0224,-0.0272 0.0267,-0.0547 0.0625,-0.0625 0.0497,-0.01 0.16159,-0.0387 0.28125,-0.0625 l 0.1875,-0.0312 0,-2.875 -0.1875,-0.0625 c -0.11966,-0.0238 -0.2316,-0.0213 -0.28125,-0.0312 -0.0358,-0.008 -0.0401,-0.0353 -0.0625,-0.0625 -0.0224,-0.0272 -0.0618,-0.0575 -0.0625,-0.0937 l 0,-0.34375 1.3125,0 0,3.46875 0.1875,0.0312 c 0.11965,0.0238 0.20035,0.0526 0.25,0.0625 0.0358,0.008 0.0714,0.0353 0.0937,0.0625 0.0224,0.0272 0.0306,0.0575 0.0312,0.0937 l 0,0.34375 z m -2.3125,0 -1.28125,0 0,-2.59375 c 0,-0.64532 -0.27576,-0.96875 -0.84375,-0.96875 -0.39466,0 -0.78901,0.18651 -1.125,0.5625 l 0,2.40625 0.125,0.0312 c 0.208,0.04 0.31442,0.0545 0.34375,0.0625 0.08,0.016 0.125,0.0736 0.125,0.15625 l 0,0.34375 -1.875,0 0,-0.34375 c 0,-0.0827 0.045,-0.14025 0.125,-0.15625 l 0.46875,-0.0937 0,-4.71875 c -0.30933,-0.0507 -0.48325,-0.0831 -0.53125,-0.0937 -0.08,-0.016 -0.125,-0.0736 -0.125,-0.15625 l 0,-0.34375 1.34375,0 0,2.375 c 0.38133,-0.40532 0.8245,-0.59375 1.3125,-0.59375 0.43732,0 0.76533,0.12626 1,0.40625 0.23199,0.27467 0.375,0.65568 0.375,1.125 l 0,2 c 0.25599,0.0507 0.3895,0.0831 0.4375,0.0937 0.08,0.016 0.125,0.0736 0.125,0.15625 l 0,0.34375 z m -22.15625,0 -1.90625,0 0,-0.34375 c 4e-5,-0.0827 0.0477,-0.14025 0.125,-0.15625 0.0773,-0.016 0.25125,-0.0484 0.53125,-0.0937 l 0,-3.625 c -1e-5,-0.11733 0.0206,-0.24167 0.0312,-0.375 l -1.96875,3.59375 c -0.0667,0.12 -0.16126,0.15625 -0.28125,0.15625 l -0.125,0 c -0.12,0 -0.21459,-0.0362 -0.28125,-0.15625 l -2,-3.625 c 0.016,0.13868 0.0312,0.28627 0.0312,0.40625 l 0,3.625 c 0.28799,0.048 0.45792,0.0791 0.53125,0.0937 0.0733,0.0147 0.125,0.0736 0.125,0.15625 l 0,0.34375 -1.90625,0 0,-0.34375 c 0,-0.0827 0.0138,-0.14025 0.0937,-0.15625 l 0.46875,-0.0937 0,-4.5625 c -0.256,-0.0507 -0.42075,-0.0831 -0.46875,-0.0937 -0.08,-0.016 -0.0937,-0.0736 -0.0937,-0.15625 l 0,-0.34375 1.125,0 c 0.0693,1e-5 0.11892,0.0179 0.15625,0.0312 0.0373,0.0133 0.0903,0.0324 0.125,0.0937 l 1.96875,3.53125 c 0.048,0.08 0.1155,0.24017 0.1875,0.4375 0.056,-0.15466 0.12083,-0.31217 0.1875,-0.4375 l 1.9375,-3.53125 c 0.0347,-0.0614 0.0564,-0.0805 0.0937,-0.0937 0.0374,-0.0135 0.0869,-0.0314 0.15625,-0.0312 l 1.15625,0 0,0.34375 c -7e-5,0.0827 -0.0424,0.14028 -0.125,0.15625 -0.30134,0.0613 -0.43484,0.0937 -0.4375,0.0937 l 0,4.5625 c 0.25866,0.0507 0.39216,0.0831 0.4375,0.0937 0.0827,0.016 0.12499,0.0736 0.125,0.15625 l 0,0.34375 z m 1.78125,-0.46875 c 0.1253,10e-6 0.23972,-0.006 0.34375,-0.0312 0.10397,-0.0253 0.18925,-0.0471 0.28125,-0.0937 0.092,-0.0466 0.19726,-0.12081 0.28125,-0.1875 0.084,-0.0666 0.17001,-0.13341 0.25,-0.21875 l 0,-0.84375 c -0.328,-10e-6 -0.61441,0.0209 -0.84375,0.0625 -0.22934,0.0416 -0.41853,0.12049 -0.5625,0.1875 -0.14401,0.0671 -0.24719,0.12759 -0.3125,0.21875 -0.0654,0.0912 -0.0938,0.19993 -0.0937,0.3125 10e-6,0.1073 -0.003,0.20342 0.0312,0.28125 0.0346,0.0778 0.0975,0.13789 0.15625,0.1875 0.0586,0.0496 0.13871,0.0709 0.21875,0.0937 0.08,0.0228 0.15665,0.0313 0.25,0.0312 z m 5.0625,-0.0312 c 0.15999,-0.006 0.30673,-0.064 0.4375,-0.125 0.14529,-0.0681 0.27364,-0.15192 0.375,-0.28125 0.10131,-0.12933 0.16264,-0.27815 0.21875,-0.46875 0.0515,-0.1806 0.0924,-0.3953 0.0937,-0.625 4.9e-4,-0.0206 -9e-5,-0.0414 0,-0.0625 -2e-5,-0.26408 -0.0471,-0.49822 -0.0937,-0.6875 -0.0467,-0.18925 -0.0995,-0.34733 -0.1875,-0.46875 -0.0881,-0.12135 -0.18455,-0.1941 -0.3125,-0.25 -0.12802,-0.0561 -0.27485,-0.0937 -0.4375,-0.0937 -0.23202,4e-5 -0.45032,0.0496 -0.625,0.15625 -0.17466,0.10668 -0.32208,0.27407 -0.46875,0.46875 l 0,0.9375 0,1 0,0.34375 c 0.0577,0.0156 0.16488,0.0653 0.3125,0.0937 0.14761,0.0284 0.28936,0.05 0.46875,0.0625 0.0512,0.003 0.10554,-10e-5 0.15625,0 l 0.0625,0 z m -18.96875,-0.4375 -3.09374,-1.625 0,-0.28125 3.09374,-1.625 0,0.53125 c -3e-5,0.0454 -0.01,0.0605 -0.0312,0.0937 -0.0214,0.0333 -0.0717,0.0671 -0.125,0.0937 l -1.78125,0.9375 c -0.0533,0.0294 -0.12749,0.0425 -0.1875,0.0625 -0.06,0.02 -0.12083,0.0465 -0.1875,0.0625 0.0667,0.0134 0.1275,0.01 0.1875,0.0312 0.06,0.0213 0.13417,0.0671 0.1875,0.0937 l 1.78125,0.90625 c 0.0533,0.0267 0.10367,0.0591 0.125,0.0937 0.0213,0.0347 0.0312,0.0511 0.0312,0.0937 l 0,0.53125 z m 2.65625,-1.15625 -1.96875,0 0,-0.625 1.96875,0 0,0.625 z m -82.12499,-2.09375 -1.375,0 0,-2.375 c -0.38134,0.40532 -0.8245,0.59375 -1.3125,0.59375 -0.43732,0 -0.76533,-0.12626 -1,-0.40625 -0.23199,-0.27467 -0.34375,-0.65568 -0.34375,-1.125 l 0,-2 c -0.25599,-0.0507 -0.42075,-0.0831 -0.46875,-0.0937 -0.08,-0.016 -0.125,-0.0736 -0.125,-0.15625 l 0,-0.34375 1.3125,0 0,2.59375 c 0,0.64532 0.27576,0.96875 0.84375,0.96875 0.39466,0 0.75775,-0.18651 1.09375,-0.5625 l 0,-2.40625 -0.0937,-0.0312 c -0.208,-0.04 -0.34568,-0.0545 -0.375,-0.0625 -0.08,-0.016 -0.0937,-0.0736 -0.0937,-0.15625 l 0,-0.34375 1.84375,0 0,0.34375 c 0,0.0827 -0.045,0.14025 -0.125,0.15625 l -0.4375,0.0937 0,4.71875 c 0.30933,0.0507 0.48324,0.0831 0.53125,0.0937 0.08,0.016 0.125,0.0736 0.125,0.15625 l 0,0.34375 z m 6.53125,-0.15625 -2,0 0,-0.34375 c 0,-0.0827 0.045,-0.14028 0.125,-0.15625 l 0.46875,-0.0937 0,-3.15625 c 0,-0.98399 0.34326,-1.62092 1.03125,-1.90625 0.224,-0.0933 0.44408,-0.15625 0.71875,-0.15625 0.27466,0 0.56375,0.0503 0.84375,0.125 -0.024,0.33866 -0.0604,0.52917 -0.0937,0.5625 -0.0333,0.0333 -0.073,0.0312 -0.125,0.0312 -0.052,0 -0.1075,-0.007 -0.1875,-0.0312 -0.08,-0.024 -0.17917,-0.0312 -0.3125,-0.0312 -0.73865,0 -1.125,0.45501 -1.125,1.375 l 0,3.1875 c 0.30667,0.0507 0.48325,0.0831 0.53125,0.0937 0.08,0.016 0.125,0.0736 0.125,0.15625 l 0,0.34375 z m 108.59374,-0.5 c -0.0693,-2e-5 -0.12752,-0.005 -0.1875,-0.0312 -0.06,-0.0266 -0.10958,-0.047 -0.15625,-0.0937 -0.0466,-0.0466 -0.0671,-0.0962 -0.0937,-0.15625 -0.0267,-0.0599 -0.0625,-0.14935 -0.0625,-0.21875 -2e-5,-0.0693 0.0358,-0.12477 0.0625,-0.1875 0.0267,-0.0626 0.0471,-0.10957 0.0937,-0.15625 0.0467,-0.0467 0.0962,-0.0984 0.15625,-0.125 0.06,-0.0267 0.11818,-0.0313 0.1875,-0.0312 0.0694,-2e-5 0.15742,0.005 0.21875,0.0312 0.0613,0.0266 0.10955,0.0783 0.15625,0.125 0.0466,0.0467 0.097,0.0936 0.125,0.15625 0.0281,0.0627 0.0313,0.11823 0.0312,0.1875 3e-5,0.0694 -0.003,0.15879 -0.0312,0.21875 -0.028,0.0601 -0.0784,0.10967 -0.125,0.15625 -0.0467,0.0468 -0.0949,0.0672 -0.15625,0.0937 -0.0613,0.0267 -0.14939,0.0312 -0.21875,0.0312 z m -104.15624,-0.78125 0,-0.53125 c 3e-5,-0.0454 0.01,-0.0604 0.0312,-0.0937 0.0214,-0.0333 0.0717,-0.0671 0.125,-0.0937 l 1.78125,-0.9375 c 0.0533,-0.0293 0.1275,-0.0425 0.1875,-0.0625 0.06,-0.02 0.12084,-0.0465 0.1875,-0.0625 -0.0667,-0.0134 -0.12751,-0.01 -0.1875,-0.0312 -0.06,-0.0213 -0.13418,-0.0671 -0.1875,-0.0937 l -1.78125,-0.90625 c -0.0533,-0.0267 -0.10366,-0.0591 -0.125,-0.0937 -0.0213,-0.0347 -0.0312,-0.0511 -0.0312,-0.0937 l 0,-0.53125 3.09375,1.625 0,0.28125 -3.09375,1.625 z m -8.6875,-0.34375 c -0.29601,0 -0.54259,-0.0576 -0.78125,-0.15625 -0.23866,-0.0987 -0.45834,-0.22492 -0.625,-0.40625 -0.16666,-0.18134 -0.28567,-0.39892 -0.375,-0.65625 -0.0893,-0.25733 -0.12501,-0.55768 -0.125,-0.875 0,-0.32 0.0357,-0.58775 0.125,-0.84375 0.0893,-0.256 0.20834,-0.47492 0.375,-0.65625 0.16666,-0.18133 0.38634,-0.34017 0.625,-0.4375 0.23866,-0.0973 0.48526,-0.125 0.78125,-0.125 0.296,0 0.57384,0.0277 0.8125,0.125 0.23866,0.0973 0.457,0.25617 0.625,0.4375 0.168,0.18133 0.28432,0.40025 0.375,0.65625 0.0907,0.256 0.125,0.52375 0.125,0.84375 0,0.31733 -0.0343,0.61767 -0.125,0.875 -0.0907,0.25733 -0.207,0.47492 -0.375,0.65625 -0.168,0.18133 -0.38634,0.30758 -0.625,0.40625 -0.23866,0.0987 -0.5165,0.15625 -0.8125,0.15625 z m -9.96875,0 c -0.43732,0 -0.76267,-0.12359 -1,-0.40625 -0.22933,-0.272 -0.34375,-0.65568 -0.34375,-1.125 l 0,-2 c -0.25866,-0.0507 -0.39216,-0.0831 -0.4375,-0.0937 -0.0827,-0.016 -0.125,-0.0736 -0.125,-0.15625 l 0,-0.34375 1.28125,0 0,2.59375 c 0,0.64532 0.27576,0.96875 0.84375,0.96875 0.39466,0 0.75775,-0.18651 1.09375,-0.5625 l 0,-2.40625 c -0.0187,-0.003 -0.15217,-0.0351 -0.4375,-0.0937 -0.0827,-0.016 -0.12501,-0.0736 -0.125,-0.15625 l 0,-0.34375 1.84375,0 0,0.34375 c 0,0.0827 -0.0137,0.14025 -0.0937,0.15625 l -0.46875,0.0937 0,2.875 c 0.25599,0.0507 0.42075,0.0831 0.46875,0.0937 0.08,0.016 0.0937,0.0736 0.0937,0.15625 l 0,0.34375 -0.5625,0 -0.4375,0 c -0.10133,0 -0.16084,-0.0576 -0.1875,-0.15625 l -0.0312,-0.4375 c -0.39467,0.43466 -0.87367,0.65624 -1.375,0.65625 z m -3.96875,0 c -0.27999,-10e-6 -0.6385,-0.0774 -1.0625,-0.21875 l 0,-0.28125 0,-0.75 0.3125,0 c 0.0773,10e-6 0.11168,0.0504 0.125,0.125 0.003,0.0107 0.0332,0.16134 0.0625,0.5 0.24267,0.056 0.45167,0.0937 0.625,0.0937 0.22667,-0.003 0.42116,-0.0443 0.5625,-0.15625 0.14133,-0.10934 0.21875,-0.23901 0.21875,-0.375 0,-0.136 -0.0324,-0.24317 -0.0937,-0.3125 -0.10667,-0.12534 -0.26875,-0.21993 -0.46875,-0.28125 -0.20001,-0.0613 -0.36801,-0.11226 -0.5,-0.15625 -0.132,-0.044 -0.24968,-0.10292 -0.375,-0.15625 -0.12533,-0.0533 -0.24509,-0.10751 -0.34375,-0.1875 -0.21866,-0.17867 -0.34375,-0.42276 -0.34375,-0.71875 0,-0.38666 0.14225,-0.7055 0.40625,-0.9375 0.27467,-0.24533 0.62518,-0.37233 1.0625,-0.375 0.43732,-0.003 0.87784,0.0694 1.3125,0.21875 l 0,1.0625 -0.28125,0 c -0.0667,0 -0.11167,-0.0271 -0.125,-0.0937 -0.005,-0.024 -0.005,-0.18267 -0.0312,-0.5 -0.22934,-0.10667 -0.52375,-0.15625 -0.84375,-0.15625 -0.264,0 -0.473,0.0542 -0.625,0.1875 -0.136,0.12 -0.1875,0.25425 -0.1875,0.40625 0,0.152 0.0338,0.27042 0.0937,0.34375 0.06,0.0733 0.12009,0.1355 0.21875,0.1875 0.0987,0.052 0.21574,0.0877 0.34375,0.125 0.35199,0.10933 0.60467,0.21858 0.75,0.28125 0.14532,0.0627 0.27633,0.13608 0.375,0.21875 0.21866,0.184 0.3125,0.40409 0.3125,0.71875 0,0.32799 -0.12434,0.62509 -0.375,0.84375 -0.26666,0.23733 -0.63167,0.34375 -1.125,0.34375 z m -3.5625,0 c -0.29601,0 -0.54259,-0.0576 -0.78125,-0.15625 -0.23866,-0.0987 -0.45834,-0.22492 -0.625,-0.40625 -0.16666,-0.18134 -0.28567,-0.39892 -0.375,-0.65625 -0.0893,-0.25733 -0.12501,-0.55768 -0.125,-0.875 0,-0.32 0.0357,-0.58775 0.125,-0.84375 0.0893,-0.256 0.20834,-0.47492 0.375,-0.65625 0.16666,-0.18133 0.38634,-0.34017 0.625,-0.4375 0.23866,-0.0973 0.48526,-0.125 0.78125,-0.125 0.296,0 0.57384,0.0277 0.8125,0.125 0.23866,0.0973 0.457,0.25617 0.625,0.4375 0.168,0.18133 0.28432,0.40025 0.375,0.65625 0.0907,0.256 0.125,0.52375 0.125,0.84375 0,0.31733 -0.0343,0.61767 -0.125,0.875 -0.0907,0.25733 -0.207,0.47492 -0.375,0.65625 -0.168,0.18133 -0.38634,0.30758 -0.625,0.40625 -0.23866,0.0987 -0.5165,0.15625 -0.8125,0.15625 z m -4.96875,0 c -0.43732,0 -0.76267,-0.12359 -1,-0.40625 -0.22933,-0.272 -0.34375,-0.65568 -0.34375,-1.125 l 0,-2 c -0.25866,-0.0507 -0.39216,-0.0831 -0.4375,-0.0937 -0.0827,-0.016 -0.125,-0.0736 -0.125,-0.15625 l 0,-0.34375 1.28125,0 0,2.59375 c 0,0.64532 0.27576,0.96875 0.84375,0.96875 0.39466,0 0.75775,-0.18651 1.09375,-0.5625 l 0,-2.40625 c -0.0187,-0.003 -0.15217,-0.0351 -0.4375,-0.0937 -0.0827,-0.016 -0.12501,-0.0736 -0.125,-0.15625 l 0,-0.34375 1.84375,0 0,0.34375 c 0,0.0827 -0.0137,0.14025 -0.0937,0.15625 l -0.46875,0.0937 0,2.875 c 0.25599,0.0507 0.42075,0.0831 0.46875,0.0937 0.08,0.016 0.0937,0.0736 0.0937,0.15625 l 0,0.34375 -0.5625,0 -0.4375,0 c -0.10133,0 -0.16084,-0.0576 -0.1875,-0.15625 l -0.0312,-0.4375 c -0.39467,0.43466 -0.87367,0.65624 -1.375,0.65625 z m 22.46875,-0.5625 c 0.20267,-2e-5 0.38192,-0.0244 0.53125,-0.0937 0.14932,-0.0693 0.275,-0.18184 0.375,-0.3125 0.1,-0.13067 0.16941,-0.27809 0.21875,-0.46875 0.0493,-0.19067 0.0937,-0.41626 0.0937,-0.65625 0,-0.24 -0.0444,-0.43567 -0.0937,-0.625 -0.0493,-0.18933 -0.11875,-0.37067 -0.21875,-0.5 -0.1,-0.12933 -0.22568,-0.21192 -0.375,-0.28125 -0.14933,-0.0693 -0.32858,-0.125 -0.53125,-0.125 -0.39999,0 -0.67768,0.13825 -0.875,0.40625 -0.19733,0.268 -0.3125,0.645 -0.3125,1.125 0,0.48266 0.11517,0.85567 0.3125,1.125 0.19734,0.26933 0.47501,0.40625 0.875,0.40625 z m -17.5,0 c 0.20267,-2e-5 0.38192,-0.0244 0.53125,-0.0937 0.14932,-0.0693 0.275,-0.18184 0.375,-0.3125 0.1,-0.13067 0.16941,-0.27809 0.21875,-0.46875 0.0493,-0.19067 0.0937,-0.41626 0.0937,-0.65625 0,-0.24 -0.0444,-0.43567 -0.0937,-0.625 -0.0493,-0.18933 -0.11875,-0.37067 -0.21875,-0.5 -0.1,-0.12933 -0.22568,-0.21192 -0.375,-0.28125 -0.14933,-0.0693 -0.32858,-0.125 -0.53125,-0.125 -0.39999,0 -0.67768,0.13825 -0.875,0.40625 -0.19733,0.268 -0.3125,0.645 -0.3125,1.125 0,0.48266 0.11517,0.85567 0.3125,1.125 0.19734,0.26933 0.47501,0.40625 0.875,0.40625 z m 25.5,-0.84375 -1.96875,0 0,-0.625 1.96875,0 0,0.625 z"
       id="rect4700"
       inkscape:connector-curvature="0" />
    <path
       style="opacity:0.75739644;color:#000000;fill:#000000;fill-opacity:0.39215686;fill-rule:nonzero;stroke:none;stroke-width:1;marker:none;visibility:visible;display:inline;overflow:visible;enable-background:accumulate"
       d="m 194.5,542.46875 c -22.98885,0 -41.625,18.63615 -41.625,41.625 0,22.98885 18.63615,41.625 41.625,41.625 22.98885,0 41.625,-18.63615 41.625,-41.625 0,-22.98885 -18.63615,-41.625 -41.625,-41.625 z m -3,39.875 6.03125,0 c 0.29531,0.51362 0.46875,1.11501 0.46875,1.75 0,1.93539 -1.56461,3.5 -3.5,3.5 -1.9354,0 -3.5,-1.56461 -3.5,-3.5 0,-0.63694 0.20301,-1.2353 0.5,-1.75 z"
       id="path3061"
       inkscape:connector-curvature="0" />
    <rect
       style="opacity:0.75739644;color:#000000;fill:#ff0000;fill-opacity:0.14117647;fill-rule:nonzero;stroke:none;stroke-width:1;marker:none;visibility:visible;display:inline;overflow:visible;enable-background:accumulate"
       id="rect2994"
       width="0.75761443"
       height="1.2626907"
       x="202.52415"
       y="553.59937"
       ry="0.37880722" />
    <path
       style="opacity:0.75739644;color:#000000;fill:#000000;fill-opacity:0.39215686;fill-rule:nonzero;stroke:none;stroke-width:1;marker:none;visibility:visible;display:inline;overflow:visible;enable-background:accumulate"
       d="m 205.76599,453.3125 0,10.625 21.25,0 0,10.625 10.625,0 0,-10.625 57.40625,0 0,10.625 10.625,0 0,-10.625 12.0625,0 0,10.625 10.625,0 0,-10.625 10.375,0 c 0.14228,0 0.25,0.10771 0.25,0.25 l 0,10.375 c 0,5.87074 -4.75426,10.625 -10.625,10.625 l -122.59375,0 0,10.625 -10.625,0 0,-10.625 -22.6875,0 c -5.87074,0 -10.625,-4.75426 -10.625,-10.625 l 0,-10.375 c 0,-0.14229 0.10771,-0.25 0.25,-0.25 l 10.375,0 0,10.625 10.625,0 0,-10.625 12.0625,0 0,-10.625 10.625,0 z"
       id="rect3148"
       inkscape:connector-curvature="0" />
    <path
       style="opacity:0.75739644;color:#000000;fill:#000000;fill-opacity:0.39215686;fill-rule:nonzero;stroke:none;stroke-width:0.99921262;marker:none;visibility:visible;display:inline;overflow:visible;enable-background:accumulate"
       d="m 25.09375,606.65553 0,39.03125 c 10.03473,0 17.71875,8.91611 17.71875,35.40625 l 0,10.625 10.625,0 0,-10.625 10.625,0 0,10.625 10.625,0 0.0312,0 0,-10.625 10.625,0 0,10.625 10.625,0 0,-10.625 10.625,0 0,10.625 10.625,0 0,-10.625 10.62499,0 0,10.625 10.625,0 0.0312,0 7.03125,0 0.0312,0 0,-10.625 10.625,0 0,10.625 0.0312,0 1.71875,0 5.34375,0 10.625,0 0,-10.625 10.625,0 0,10.625 10.625,0 0,-10.625 10.625,0 0,10.625 10.625,0 0,-10.625 10.625,0 0,10.625 0.0312,0 10.625,0 0,-10.625 10.625,0 0,10.625 10.625,0 0,-10.625 c 0,-26.49014 7.68401,-35.40625 17.71875,-35.40625 l 0,-39.03125 -10.625,0 0,28.34375 -7.09375,0 0,-28.34375 -10.625,0 c 0,21.26042 0,43.77083 0,63.78125 l -194.875,0 c 0,-23.64177 0,-42.25403 0,-63.78125 l -10.625,0 0,28.34375 -7.09375,0 0,-28.34375 z"
       id="rect4801"
       inkscape:connector-curvature="0"
       sodipodi:nodetypes="ccsccccccccccccccccccccccccccccccccccccccccccccccsccccccccccccccc" />
    <path
       inkscape:connector-curvature="0"
       id="path4979"
       d="m 132.86581,625.90553 c -11.74149,0 -21.28125,9.53976 -21.28125,21.28125 0,9.90688 6.79832,18.2343 15.96875,20.59375 l 0,-20.59375 10.625,0 0,20.59375 c 9.17043,-2.35945 15.9375,-10.68687 15.9375,-20.59375 0,-11.74149 -9.50851,-21.28125 -21.25,-21.28125 z"
       style="opacity:0.75739644;color:#000000;fill:#000000;fill-opacity:0.39215686;fill-rule:nonzero;stroke:none;stroke-width:0.99921262;marker:none;visibility:visible;display:inline;overflow:visible;enable-background:accumulate" />
    <path
       style="opacity:0.75739644;color:#000000;fill:#000000;fill-opacity:0.39215686;fill-rule:nonzero;stroke:none;stroke-width:0.99921262;marker:none;visibility:visible;display:inline;overflow:visible;enable-background:accumulate"
       d="m 175.39706,623.90553 c -11.74149,0 -21.28125,9.53976 -21.28125,21.28125 0,9.90688 6.79832,18.2343 15.96875,20.59375 l 0,-20.59375 10.625,0 0,20.59375 c 9.17043,-2.35945 15.9375,-10.68687 15.9375,-20.59375 0,-11.74149 -9.50851,-21.28125 -21.25,-21.28125 z"
       id="path4996"
       inkscape:connector-curvature="0" />
    <path
       inkscape:connector-curvature="0"
       id="path4998"
       d="m 217.92831,623.90553 c -11.74149,0 -21.28125,9.53976 -21.28125,21.28125 0,9.90688 6.79832,18.2343 15.96875,20.59375 l 0,-20.59375 10.625,0 0,20.59375 c 9.17043,-2.35945 15.9375,-10.68687 15.9375,-20.59375 0,-11.74149 -9.50851,-21.28125 -21.25,-21.28125 z"
       style="opacity:0.75739644;color:#000000;fill:#000000;fill-opacity:0.39215686;fill-rule:nonzero;stroke:none;stroke-width:0.99921262;marker:none;visibility:visible;display:inline;overflow:visible;enable-background:accumulate" />
    <path
       sodipodi:nodetypes="ccsccccccccccccccccccccccccccccccccccccccccccccccsccccccccccccccc"
       inkscape:connector-curvature="0"
       id="path5019"
       d="m 125.30273,430.84375 0,39.03125 c 10.03473,0 17.71875,8.91611 17.71875,35.40625 l 0,10.625 10.625,0 0,-10.625 10.625,0 0,10.625 10.625,0 0.0312,0 0,-10.625 10.625,0 0,10.625 10.625,0 0,-10.625 10.625,0 0,10.625 10.625,0 0,-10.625 10.62499,0 0,10.625 10.625,0 0.0312,0 7.03125,0 0.0312,0 0,-10.625 10.625,0 0,10.625 0.0312,0 1.71875,0 5.34375,0 10.625,0 0,-10.625 10.625,0 0,10.625 10.625,0 0,-10.625 10.625,0 0,10.625 10.625,0 0,-10.625 10.625,0 0,10.625 0.0312,0 10.625,0 0,-10.625 10.625,0 0,10.625 10.625,0 0,-10.625 c 0,-26.49014 7.68401,-35.40625 17.71875,-35.40625 l 0,-39.03125 -10.625,0 0,28.34375 -7.09375,0 0,-28.34375 c -3.85772,0 -6.51826,10 -10.625,10 0,21.26042 0,33.77083 0,53.78125 l -194.875,0 c 0,-23.64177 0,-32.25403 0,-53.78125 -4.4213,0 -7.70659,-10 -10.625,-10 l 0,28.34375 -7.09375,0 0,-28.34375 z"
       style="opacity:0.75739644;color:#000000;fill:#000000;fill-opacity:0.39215686;fill-rule:nonzero;stroke:none;stroke-width:0.99921262;marker:none;visibility:visible;display:inline;overflow:visible;enable-background:accumulate" />
    <path
       style="opacity:0.75739644;color:#000000;fill:#000000;fill-opacity:0.39215686;fill-rule:nonzero;stroke:none;stroke-width:0.99921262;marker:none;visibility:visible;display:inline;overflow:visible;enable-background:accumulate"
       d="m 284.35003,545.08823 0,17.71875 c 17.71875,0 35.4375,0 53.15625,0 l 0,-7.09375 c -16.08678,0 -21.25,-2.74439 -21.25,-10.625 l -10.625,0 0,10.625 -10.65625,0 0,-10.625 z"
       id="rect5259"
       inkscape:connector-curvature="0"
       sodipodi:nodetypes="cccccccccc" />
  </g>
</svg>
