<?xml version="1.0" encoding="UTF-8" standalone="no"?>
<!-- Created with Inkscape (http://www.inkscape.org/) -->

<svg
   xmlns:dc="http://purl.org/dc/elements/1.1/"
   xmlns:cc="http://creativecommons.org/ns#"
   xmlns:rdf="http://www.w3.org/1999/02/22-rdf-syntax-ns#"
   xmlns:svg="http://www.w3.org/2000/svg"
   xmlns="http://www.w3.org/2000/svg"
   xmlns:sodipodi="http://sodipodi.sourceforge.net/DTD/sodipodi-0.dtd"
   xmlns:inkscape="http://www.inkscape.org/namespaces/inkscape"
   sodipodi:docname="john.svg"
   inkscape:version="0.48.5 r10040"
   version="1.1"
   id="svg3091"
   height="270.92227"
   width="489.38965">
  <sodipodi:namedview
     id="base"
     pagecolor="#ffffff"
     bordercolor="#666666"
     borderopacity="1.0"
     inkscape:pageopacity="0.0"
     inkscape:pageshadow="2"
     inkscape:zoom="1.4142136"
     inkscape:cx="211.78818"
     inkscape:cy="203.10819"
     inkscape:document-units="mm"
     inkscape:current-layer="layer1"
     showgrid="false"
     inkscape:window-width="1920"
     inkscape:window-height="1005"
     inkscape:window-x="-9"
     inkscape:window-y="-9"
     inkscape:window-maximized="1"
     inkscape:object-paths="true"
     inkscape:object-nodes="true"
     inkscape:snap-object-midpoints="true"
     inkscape:snap-nodes="false"
     inkscape:snap-midpoints="true"
     inkscape:snap-intersection-paths="true"
     inkscape:snap-smooth-nodes="false"
     units="mm"
     fit-margin-top="1"
     fit-margin-right="1"
     fit-margin-bottom="1"
     fit-margin-left="1" />
  <defs
     id="defs3093" />
  <metadata
     id="metadata3096">
    <rdf:RDF>
      <cc:Work
         rdf:about="">
        <dc:format>image/svg+xml</dc:format>
        <dc:type
           rdf:resource="http://purl.org/dc/dcmitype/StillImage" />
        <dc:title></dc:title>
      </cc:Work>
    </rdf:RDF>
  </metadata>
  <g
     inkscape:groupmode="layer"
     id="layer2"
     inkscape:label="Purgatory"
     style="display:none"
     transform="translate(-47.769143,-190.33973)">
    <path
       style="opacity:0.75739644;color:#000000;fill:#000000;fill-opacity:0.22745098;fill-rule:nonzero;stroke:none;stroke-width:0.99921262;marker:none;visibility:visible;display:inline;overflow:visible;enable-background:accumulate"
       d="m 187,196.09375 0,10.625 0,31.90625 0,10.625 10.625,0 0,-10.625 10.625,0 50.75,0 2.40625,0 21.25,0 2.40625,0 50.75,0 10.625,0 0,10.625 10.625,0 0,-10.625 0,-31.90625 0,-10.625 -10.625,0 0,10.625 -20.9375,0 -3.09375,5.34375 -5.3125,9.1875 -9.25,-5.3125 5.3125,-9.1875 0.0312,-0.0312 -28.125,0 0,0.0312 -2.375,0 0,10.625 -10.65625,0 0,-10.625 -10.625,0 -2.40625,0 0,-0.0312 -61.375,0 0,-10.625 -10.625,0 z m 37.1875,19.0625 c 4.15844,0 7.53125,3.34156 7.53125,7.5 0,4.15844 -3.37281,7.53125 -7.53125,7.53125 -4.15844,0 -7.53125,-3.37281 -7.53125,-7.53125 0,-4.15844 3.37281,-7.5 7.53125,-7.5 z m -26.5625,2.1875 10.625,0 0,10.65625 -10.625,0 0,-10.65625 z m 138.1875,0 10.625,0 0,10.65625 -10.625,0 0,-10.65625 z"
       id="rect4386"
       inkscape:connector-curvature="0"
       inkscape:transform-center-x="-47.843752" />
    <rect
       style="opacity:0.75739644;color:#000000;fill:#000000;fill-opacity:0.22745098;fill-rule:nonzero;stroke:none;stroke-width:0.99921262;marker:none;visibility:visible;display:inline;overflow:visible;enable-background:accumulate"
       id="rect4388"
       width="10.629921"
       height="10.629921"
       x="200.88687"
       y="127.90871" />
    <rect
       style="opacity:0.75739644;color:#000000;fill:#000000;fill-opacity:0.22745098;fill-rule:nonzero;stroke:none;stroke-width:0.99921262;marker:none;visibility:visible;display:inline;overflow:visible;enable-background:accumulate"
       id="rect4415"
       width="10.625"
       height="10.65625"
       x="233"
       y="242.34375" />
    <rect
       y="217.34375"
       x="218.875"
       height="10.65625"
       width="10.625"
       id="rect4417"
       style="opacity:0.75739644;color:#000000;fill:#000000;fill-opacity:0.22745098;fill-rule:nonzero;stroke:none;stroke-width:0.99921262;marker:none;visibility:visible;display:inline;overflow:visible;enable-background:accumulate" />
    <rect
       y="228"
       x="229.5"
       height="10.65625"
       width="10.625"
       id="rect4419"
       style="opacity:0.75739644;color:#000000;fill:#000000;fill-opacity:0.22745098;fill-rule:nonzero;stroke:none;stroke-width:0.99921262;marker:none;visibility:visible;display:inline;overflow:visible;enable-background:accumulate" />
    <rect
       style="opacity:0.75739644;color:#000000;fill:#000000;fill-opacity:0.22745098;fill-rule:nonzero;stroke:none;stroke-width:0.99921262;marker:none;visibility:visible;display:inline;overflow:visible;enable-background:accumulate"
       id="rect4421"
       width="10.629921"
       height="157.40944"
       x="-310.8027"
       y="2.0410495"
       transform="matrix(-0.8660254,-0.5,-0.5,0.8660254,0,0)" />
    <rect
       transform="scale(-1,1)"
       y="143.96715"
       x="-229.50247"
       height="157.40944"
       width="10.629921"
       id="rect4423"
       style="opacity:0.75739644;color:#000000;fill:#000000;fill-opacity:0.22745098;fill-rule:nonzero;stroke:none;stroke-width:0.99921262;marker:none;visibility:visible;display:inline;overflow:visible;enable-background:accumulate" />
    <rect
       style="opacity:0.75739644;color:#000000;fill:#000000;fill-opacity:0.22745098;fill-rule:nonzero;stroke:none;stroke-width:0.99921262;marker:none;visibility:visible;display:inline;overflow:visible;enable-background:accumulate"
       id="rect4425"
       width="10.625"
       height="10.65625"
       x="-321.4277"
       y="59.256149"
       transform="matrix(-0.8660254,-0.5,-0.5,0.8660254,0,0)" />
    <rect
       transform="matrix(-0.8660254,-0.5,-0.5,0.8660254,0,0)"
       y="48.599915"
       x="-321.4277"
       height="10.65625"
       width="10.625"
       id="rect4427"
       style="opacity:0.75739644;color:#000000;fill:#000000;fill-opacity:0.22745098;fill-rule:nonzero;stroke:none;stroke-width:0.99921262;marker:none;visibility:visible;display:inline;overflow:visible;enable-background:accumulate" />
    <rect
       style="opacity:0.75739644;color:#000000;fill:#000000;fill-opacity:0.22745098;fill-rule:nonzero;stroke:none;stroke-width:0.99921262;marker:none;visibility:visible;display:inline;overflow:visible;enable-background:accumulate"
       id="rect4431"
       width="10.629921"
       height="157.40944"
       x="-293.27954"
       y="143.97539"
       transform="scale(-1,1)" />
    <rect
       style="opacity:0.75739644;color:#000000;fill:#000000;fill-opacity:0.22745098;fill-rule:nonzero;stroke:none;stroke-width:0.99921262;marker:none;visibility:visible;display:inline;overflow:visible;enable-background:accumulate"
       id="rect4511"
       width="10.629921"
       height="74.409447"
       x="282.64963"
       y="164.21555" />
    <path
       inkscape:transform-center-x="-41.433922"
       inkscape:connector-curvature="0"
       id="path4515"
       d="m 178.69311,218.24828 5.3125,9.20152 15.95313,27.63162 5.3125,9.20152 9.20152,-5.3125 -5.3125,-9.20152 9.20152,-5.3125 43.95079,-25.375 2.08387,-1.20312 18.40304,-10.625 2.08388,-1.20313 43.95078,-25.375 9.20152,-5.3125 5.3125,9.20152 9.20152,-5.3125 -5.3125,-9.20152 -15.95312,-27.63162 -5.3125,-9.20152 -9.20152,5.3125 5.3125,9.20152 -18.13241,10.46875 -0.007,6.1747 -0.007,10.61286 -10.66698,0.0242 0.007,-10.61286 0.0114,-0.0426 -24.35697,14.0625 0.0156,0.027 -2.05681,1.1875 5.3125,9.20152 -9.22858,5.32812 -5.3125,-9.20152 -9.20152,5.3125 -2.08388,1.20313 -0.0156,-0.027 -53.1523,30.6875 -5.3125,-9.20152 -9.20152,5.3125 z m 41.73657,-2.08514 c 3.60132,-2.07922 8.19304,-0.87175 10.27226,2.72956 2.07922,3.60132 0.84468,8.20866 -2.75663,10.28788 -3.60132,2.07922 -8.20866,0.84469 -10.28788,-2.75663 -2.07922,-3.60131 -0.82906,-8.18159 2.77225,-10.26081 z m -21.91005,15.17568 9.20152,-5.3125 5.32813,9.22858 -9.20152,5.3125 -5.32813,-9.22858 z m 119.67389,-69.09375 9.20152,-5.3125 5.32812,9.22858 -9.20152,5.3125 -5.32812,-9.22858 z"
       style="opacity:0.75739644;color:#000000;fill:#000000;fill-opacity:0.22745098;fill-rule:nonzero;stroke:none;stroke-width:0.99921262;marker:none;visibility:visible;display:inline;overflow:visible;enable-background:accumulate"
       inkscape:transform-center-y="-23.92189" />
    <rect
       transform="matrix(-0.5,-0.8660254,0.8660254,-0.5,0,0)"
       y="34.998714"
       x="-343.90936"
       height="10.629921"
       width="77.952759"
       id="rect4517"
       style="opacity:0.75739644;color:#000000;fill:#000000;fill-opacity:0.22745098;fill-rule:nonzero;stroke:none;stroke-width:0.99921262;marker:none;visibility:visible;display:inline;overflow:visible;enable-background:accumulate" />
    <rect
       style="opacity:0.75739644;color:#000000;fill:#000000;fill-opacity:0.22745098;fill-rule:nonzero;stroke:none;stroke-width:0.99921262;marker:none;visibility:visible;display:inline;overflow:visible;enable-background:accumulate"
       id="rect4519"
       width="27.226597"
       height="52.335129"
       x="202.26459"
       y="228" />
    <rect
       style="opacity:0.75739644;color:#000000;fill:#000000;fill-opacity:0.22745098;fill-rule:nonzero;stroke:none;stroke-width:0.99921262;marker:none;visibility:visible;display:inline;overflow:visible;enable-background:accumulate"
       id="rect4523"
       width="10.629921"
       height="10.629921"
       x="344.29935"
       y="286.98737" />
    <rect
       y="276.35745"
       x="344.29935"
       height="10.629921"
       width="10.629921"
       id="rect4525"
       style="opacity:0.75739644;color:#000000;fill:#000000;fill-opacity:0.22745098;fill-rule:nonzero;stroke:none;stroke-width:0.99921262;marker:none;visibility:visible;display:inline;overflow:visible;enable-background:accumulate" />
    <path
       style="opacity:0.75739644;color:#000000;fill:#000000;fill-opacity:0.22745098;fill-rule:nonzero;stroke:none;stroke-width:0.99921262;marker:none;visibility:visible;display:inline;overflow:visible;enable-background:accumulate"
       d="m 400.66037,268.42465 0,63.75 99.21875,0 0,-63.75 -99.21875,0 z m 44.75,35.4375 c 0.0694,-2e-5 0.12617,0.005 0.1875,0.0312 0.0613,0.0266 0.1408,0.0471 0.1875,0.0937 0.0466,0.0467 0.0657,0.12488 0.0937,0.1875 0.0281,0.0627 0.0625,0.11823 0.0625,0.1875 3e-5,0.0694 -0.0344,0.12754 -0.0625,0.1875 -0.028,0.0601 -0.0471,0.10967 -0.0937,0.15625 -0.0467,0.0468 -0.12619,0.0985 -0.1875,0.125 -0.0613,0.0267 -0.11814,0.0312 -0.1875,0.0312 -0.0693,-2e-5 -0.12752,-0.005 -0.1875,-0.0312 -0.06,-0.0266 -0.10958,-0.0782 -0.15625,-0.125 -0.0466,-0.0466 -0.0983,-0.0962 -0.125,-0.15625 -0.0267,-0.0599 -0.0313,-0.1181 -0.0312,-0.1875 -2e-5,-0.0693 0.005,-0.12477 0.0312,-0.1875 0.0267,-0.0626 0.0784,-0.14082 0.125,-0.1875 0.0467,-0.0467 0.0962,-0.0671 0.15625,-0.0937 0.06,-0.0267 0.11818,-0.0313 0.1875,-0.0312 z m -23.28125,0.0937 2.40625,0 c 1.02132,10e-6 1.65825,0.29635 1.90625,0.875 0.0774,0.18668 0.12503,0.37585 0.125,0.5625 0,0.18667 -0.0185,0.33809 -0.0625,0.46875 -0.044,0.13067 -0.13076,0.23176 -0.21875,0.34375 -0.18933,0.23467 -0.46051,0.42192 -0.8125,0.53125 0.84532,0.168 1.28125,0.60318 1.28125,1.3125 -10e-6,0.49333 -0.18193,0.89417 -0.53125,1.1875 -0.36,0.30133 -0.83676,0.4375 -1.46875,0.4375 l -2.625,0 0,-0.34375 c 0,-0.0827 0.045,-0.109 0.125,-0.125 l 0.46875,-0.0937 0,-4.5625 c -0.256,-0.0507 -0.42075,-0.0831 -0.46875,-0.0937 -0.08,-0.016 -0.125,-0.0736 -0.125,-0.15625 l 0,-0.34375 z m 10,0.34375 0.34375,0 0,1.40625 1.15625,0 0,0.53125 -1.15625,0 0,2.40625 c 0,0.17067 0.0423,0.32358 0.125,0.40625 0.0827,0.0827 0.18183,0.125 0.3125,0.125 0.0747,0 0.13283,-0.0113 0.1875,-0.0312 0.0547,-0.02 0.11625,-0.0385 0.15625,-0.0625 0.04,-0.024 0.0657,-0.0738 0.0937,-0.0937 0.028,-0.02 0.0724,-0.0312 0.0937,-0.0312 0.0373,0 0.0644,0.0484 0.0937,0.0937 l 0.21875,0.34375 c -0.12267,0.11467 -0.29542,0.18467 -0.46875,0.25 -0.17334,0.0653 -0.34725,0.0937 -0.53125,0.0937 -0.32,0 -0.54675,-0.0713 -0.71875,-0.25 -0.172,-0.17866 -0.28125,-0.44525 -0.28125,-0.78125 l 0,-2.46875 -0.46875,0 c -0.0427,0 -0.0957,-0.0372 -0.125,-0.0625 -0.0293,-0.0253 -0.0312,-0.0404 -0.0312,-0.0937 l 0,-0.28125 0.65625,-0.0937 0.15625,-1.25 c 0.005,-0.04 0.0332,-0.0684 0.0625,-0.0937 0.0293,-0.0254 0.0797,-0.0626 0.125,-0.0625 z m 2.90625,0 0.34375,0 0,1.40625 1.15625,0 0,0.53125 -1.15625,0 0,2.40625 c 0,0.17067 0.0423,0.32358 0.125,0.40625 0.0827,0.0827 0.18183,0.125 0.3125,0.125 0.0747,0 0.13283,-0.0113 0.1875,-0.0312 0.0547,-0.02 0.11625,-0.0385 0.15625,-0.0625 0.04,-0.024 0.0657,-0.0738 0.0937,-0.0937 0.028,-0.02 0.0724,-0.0312 0.0937,-0.0312 0.0373,0 0.0644,0.0484 0.0937,0.0937 l 0.21875,0.34375 c -0.12267,0.11467 -0.29542,0.18467 -0.46875,0.25 -0.17334,0.0653 -0.34725,0.0937 -0.53125,0.0937 -0.32,0 -0.54675,-0.0713 -0.71875,-0.25 -0.172,-0.17866 -0.28125,-0.44525 -0.28125,-0.78125 l 0,-2.46875 -0.46875,0 c -0.0427,0 -0.0957,-0.0372 -0.125,-0.0625 -0.0293,-0.0253 -0.0312,-0.0404 -0.0312,-0.0937 l 0,-0.28125 0.65625,-0.0937 0.15625,-1.25 c 0.005,-0.04 0.0332,-0.0684 0.0625,-0.0937 0.0293,-0.0254 0.0797,-0.0626 0.125,-0.0625 z m -11.5625,0.25 0,1.96875 1.03125,0 c 0.63732,0 1.05608,-0.20709 1.21875,-0.59375 0.0507,-0.12267 0.0625,-0.231 0.0625,-0.375 0,-0.336 -0.10984,-0.59267 -0.3125,-0.75 -0.20267,-0.15735 -0.51084,-0.25001 -0.9375,-0.25 l -1.0625,0 z m 5.40625,1 c 0.22663,4e-5 0.41774,0.0503 0.59375,0.125 0.17598,0.0746 0.34876,0.17914 0.46875,0.3125 0.12004,0.13336 0.18869,0.27944 0.25,0.46875 0.0613,0.18941 0.0937,0.39842 0.0937,0.625 l 0,2.03125 0.21875,0.0312 c 0.0846,0.0168 0.15484,0.0247 0.1875,0.0312 0.0358,0.008 0.0713,0.0353 0.0937,0.0625 0.0224,0.0272 0.0306,0.0575 0.0312,0.0937 l 0,0.34375 -0.53125,0 -0.0625,0 -0.25,0 c -0.0694,1e-5 -0.11362,-0.01 -0.15625,-0.0312 -0.0427,-0.0213 -0.0804,-0.0556 -0.0937,-0.125 l -0.0937,-0.375 c -0.10668,0.096 -0.17991,0.17407 -0.28125,0.25 -0.10137,0.0761 -0.2318,0.13553 -0.34375,0.1875 -0.112,0.052 -0.21708,0.0984 -0.34375,0.125 -0.12671,0.0267 -0.28288,0.0312 -0.4375,0.0312 -0.15736,-3e-5 -0.30023,-0.0184 -0.4375,-0.0625 -0.13735,-0.0442 -0.24242,-0.0992 -0.34375,-0.1875 -0.10132,-0.0883 -0.19004,-0.20861 -0.25,-0.34375 -0.06,-0.1351 -0.0938,-0.31538 -0.0937,-0.5 0,-0.16051 0.037,-0.28892 0.125,-0.4375 0.088,-0.14853 0.24153,-0.29121 0.4375,-0.40625 0.196,-0.11502 0.46389,-0.20762 0.78125,-0.28125 0.3173,-0.0736 0.69759,-0.12499 1.15625,-0.125 l 0,-0.3125 c -2e-5,-0.31658 -0.0841,-0.55639 -0.21875,-0.71875 -0.13464,-0.1624 -0.32976,-0.24998 -0.59375,-0.25 -0.17339,2e-5 -0.31891,0.0497 -0.4375,0.0937 -0.11871,0.044 -0.22587,0.0704 -0.3125,0.125 -0.0867,0.0547 -0.15613,0.11227 -0.21875,0.15625 -0.0627,0.044 -0.12624,0.0625 -0.1875,0.0625 -0.048,-2e-5 -0.089,-0.006 -0.125,-0.0312 -0.036,-0.0253 -0.0724,-0.0564 -0.0937,-0.0937 l -0.125,-0.21875 c 0.22397,-0.21603 0.49134,-0.39336 0.75,-0.5 0.25865,-0.10667 0.52906,-0.15622 0.84375,-0.15625 z m 14.65625,0 c 0.20799,0 0.36858,0.0603 0.53125,0.15625 l -0.0625,0.53125 c -0.0187,0.0667 -0.0743,0.0937 -0.125,0.0937 -0.0507,0 -0.11017,-0.006 -0.1875,-0.0312 -0.0773,-0.0253 -0.17384,-0.0312 -0.3125,-0.0312 -0.464,0 -0.83317,0.28109 -1.0625,0.84375 l 0,2 c 0.0667,0.0133 0.23142,0.0457 0.46875,0.0937 0.08,0.016 0.125,0.0423 0.125,0.125 l 0,0.34375 -1.875,0 0,-0.34375 c 0,-0.0827 0.045,-0.109 0.125,-0.125 l 0.46875,-0.0937 0,-2.90625 c -0.256,-0.0507 -0.42075,-0.0831 -0.46875,-0.0937 -0.08,-0.016 -0.125,-0.0423 -0.125,-0.125 l 0,-0.34375 0.59375,0 0.40625,0 c 0.0773,4e-5 0.12692,0.002 0.15625,0.0312 0.0293,0.0293 0.0518,0.0843 0.0625,0.15625 l 0.0312,0.625 c 0.296,-0.59999 0.72467,-0.90625 1.25,-0.90625 z m -4.625,0.0312 c 0.24267,2e-5 0.45092,0.0125 0.65625,0.0937 0.20533,0.0813 0.38192,0.22167 0.53125,0.375 0.14933,0.15334 0.25975,0.33717 0.34375,0.5625 0.084,0.22534 0.125,0.49326 0.125,0.78125 0,0.11201 -0.007,0.18142 -0.0312,0.21875 -0.024,0.0373 -0.0583,0.0312 -0.125,0.0312 l -2.6875,0 c 0.005,0.256 0.0297,0.49817 0.0937,0.6875 0.064,0.18933 0.138,0.34208 0.25,0.46875 0.112,0.12667 0.25158,0.21858 0.40625,0.28125 0.15466,0.0627 0.33925,0.0937 0.53125,0.0937 0.17866,0 0.33942,-0.0212 0.46875,-0.0625 0.12933,-0.0413 0.21917,-0.077 0.3125,-0.125 0.0933,-0.048 0.18733,-0.0837 0.25,-0.125 0.0627,-0.0413 0.11092,-0.0625 0.15625,-0.0625 0.0587,0 0.093,0.0172 0.125,0.0625 l 0.21875,0.25 c -0.088,0.10667 -0.18984,0.20258 -0.3125,0.28125 -0.12267,0.0787 -0.26626,0.13683 -0.40625,0.1875 -0.14,0.0507 -0.28817,0.0997 -0.4375,0.125 -0.14933,0.0253 -0.29084,0.0312 -0.4375,0.0312 -0.28,0 -0.54525,-0.0616 -0.78125,-0.15625 -0.236,-0.0947 -0.42175,-0.22358 -0.59375,-0.40625 -0.172,-0.18266 -0.31025,-0.41817 -0.40625,-0.6875 -0.096,-0.26933 -0.15625,-0.55692 -0.15625,-0.90625 0,-0.28266 0.0383,-0.56717 0.125,-0.8125 0.0867,-0.24533 0.21233,-0.445 0.375,-0.625 0.16267,-0.18 0.35908,-0.33484 0.59375,-0.4375 0.23466,-0.10267 0.51917,-0.125 0.8125,-0.125 z m 9.6875,0 c 0.24267,2e-5 0.48217,0.0125 0.6875,0.0937 0.20533,0.0813 0.38192,0.22167 0.53125,0.375 0.14933,0.15334 0.25975,0.33717 0.34375,0.5625 0.084,0.22534 0.125,0.49326 0.125,0.78125 0,0.11201 -0.007,0.18142 -0.0312,0.21875 -0.024,0.0373 -0.0896,0.0312 -0.15625,0.0312 l -2.6875,0 c 0.005,0.256 0.0297,0.49817 0.0937,0.6875 0.064,0.18933 0.16925,0.34208 0.28125,0.46875 0.112,0.12667 0.25158,0.21858 0.40625,0.28125 0.15466,0.0627 0.308,0.0937 0.5,0.0937 0.17866,0 0.33942,-0.0212 0.46875,-0.0625 0.12933,-0.0413 0.25042,-0.077 0.34375,-0.125 0.0933,-0.048 0.15608,-0.0837 0.21875,-0.125 0.0627,-0.0413 0.11092,-0.0625 0.15625,-0.0625 0.0587,0 0.12425,0.0172 0.15625,0.0625 l 0.1875,0.25 c -0.088,0.10667 -0.18984,0.20258 -0.3125,0.28125 -0.12267,0.0787 -0.23501,0.13683 -0.375,0.1875 -0.14,0.0507 -0.28817,0.0997 -0.4375,0.125 -0.14933,0.0253 -0.32209,0.0312 -0.46875,0.0312 -0.28,0 -0.514,-0.0616 -0.75,-0.15625 -0.236,-0.0947 -0.453,-0.22358 -0.625,-0.40625 -0.172,-0.18266 -0.31025,-0.41817 -0.40625,-0.6875 -0.096,-0.26933 -0.125,-0.55692 -0.125,-0.90625 0,-0.28266 0.0383,-0.56717 0.125,-0.8125 0.0867,-0.24533 0.21233,-0.445 0.375,-0.625 0.16267,-0.18 0.35908,-0.33484 0.59375,-0.4375 0.23466,-0.10267 0.48792,-0.125 0.78125,-0.125 z m -4.125,0.0625 1.28125,0 0,3.46875 0.21875,0.0312 c 0.11965,0.0238 0.20035,0.0213 0.25,0.0312 0.0358,0.008 0.0714,0.0353 0.0937,0.0625 0.0224,0.0272 0.0306,0.0575 0.0312,0.0937 l 0,0.34375 -1.875,0 0,-0.34375 c 6.9e-4,-0.0363 0.009,-0.0665 0.0312,-0.0937 0.0224,-0.0272 0.058,-0.0547 0.0937,-0.0625 0.0497,-0.01 0.13034,-0.007 0.25,-0.0312 l 0.21875,-0.0312 0,-2.90625 -0.21875,-0.0312 c -0.11966,-0.0238 -0.20035,-0.0526 -0.25,-0.0625 -0.0358,-0.008 -0.0714,-0.004 -0.0937,-0.0312 -0.0224,-0.0272 -0.0306,-0.0575 -0.0312,-0.0937 l 0,-0.34375 z m -5.5625,0.4375 c -0.344,0 -0.61517,0.11384 -0.8125,0.3125 -0.19733,0.19867 -0.327,0.46051 -0.375,0.8125 l 2.21875,0 c -2e-5,-0.16533 -0.0172,-0.30017 -0.0625,-0.4375 -0.0453,-0.13733 -0.13076,-0.275 -0.21875,-0.375 -0.088,-0.1 -0.18584,-0.16409 -0.3125,-0.21875 -0.12667,-0.0547 -0.27484,-0.0938 -0.4375,-0.0937 z m 9.71875,0 c -0.344,0 -0.61517,0.11384 -0.8125,0.3125 -0.19733,0.19867 -0.327,0.46051 -0.375,0.8125 l 2.1875,0 c -2e-5,-0.16533 -0.0172,-0.30017 -0.0625,-0.4375 -0.0453,-0.13733 -0.0995,-0.275 -0.1875,-0.375 -0.088,-0.1 -0.18584,-0.16409 -0.3125,-0.21875 -0.12667,-0.0547 -0.27484,-0.0938 -0.4375,-0.0937 z m -25.15625,1 0,2 1.25,0 c 0.63732,0 1.03283,-0.21167 1.1875,-0.625 0.048,-0.12533 0.0625,-0.2855 0.0625,-0.4375 0,-0.29599 -0.10317,-0.5155 -0.3125,-0.6875 -0.20934,-0.172 -0.51351,-0.25 -0.9375,-0.25 l -1.25,0 z m 6.125,0.78135 c -0.328,-10e-6 -0.61441,0.0209 -0.84375,0.0625 -0.22934,0.0416 -0.41853,0.0892 -0.5625,0.15625 -0.14401,0.0671 -0.24719,0.15884 -0.3125,0.25 -0.0654,0.0912 -0.0938,0.16868 -0.0937,0.28125 1e-5,0.1073 0.0278,0.20342 0.0625,0.28125 0.0346,0.0778 0.0663,0.13789 0.125,0.1875 0.0586,0.0496 0.13871,0.10217 0.21875,0.125 0.08,0.0228 0.15665,0.0313 0.25,0.0312 0.1253,10e-6 0.23972,-0.006 0.34375,-0.0312 0.10397,-0.0253 0.2205,-0.0783 0.3125,-0.125 0.092,-0.0466 0.16601,-0.0896 0.25,-0.15625 0.084,-0.0666 0.17001,-0.13341 0.25,-0.21875 l 0,-0.84375 z"
       id="rect4622"
       inkscape:connector-curvature="0" />
    <path
       style="opacity:0.75739644;color:#000000;fill:#000000;fill-opacity:0.22745098;fill-rule:nonzero;stroke:none;stroke-width:0.99921262;marker:none;visibility:visible;display:inline;overflow:visible;enable-background:accumulate"
       d="m 372.2989,289.6434 0,10.65625 c 0,9.88968 42.53125,10.64209 42.53125,21.25 l 10.625,0 0,-10.625 10.625,0 0,10.625 53.15625,0 0,-10.625 10.625,0 0,10.625 10.625,0 c 0,-10.60791 42.53125,-11.36032 42.53125,-21.25 l 0,-10.65625 -10.625,0 0,10.65625 -159.46875,0 0,-10.65625 -10.625,0 z"
       id="rect4589"
       inkscape:connector-curvature="0" />
    <path
       style="fill:#000000;fill-opacity:0.39215686;display:inline;filter:url(#filter4654);enable-background:new"
       inkscape:connector-curvature="0"
       id="path2985"
       d="m 535.68871,368.73826 c -1.02582,11.82655 2.9699,24.00632 12.02082,33.05724 9.05092,9.05092 21.23411,13.04666 33.05724,12.02081 l 37.83021,-37.83021 c 1.02585,-11.82313 -2.96989,-24.00632 -12.02081,-33.05724 -9.04979,-9.04979 -21.20998,-13.06736 -33.03517,-12.04288 l -37.85229,37.85228 z" />
    <path
       id="path3798"
       d="m 564.62485,359.82208 c -6.91873,6.91874 -6.91873,18.13936 0,25.0581 6.91874,6.91873 18.13936,6.91873 25.0581,0 6.91874,-6.91874 6.91874,-18.13936 0,-25.0581 -6.91874,-6.91874 -18.13936,-6.91874 -25.0581,0 z m -11.09273,28.63782 c -2.07562,2.07562 -2.07562,5.43739 0,7.51301 2.07562,2.07562 5.43739,2.07562 7.51301,0 2.07562,-2.07562 2.07562,-5.43739 0,-7.51301 -2.07562,-2.07562 -5.43739,-2.07562 -7.51301,0 z m 39.70846,-39.70846 c -2.07562,2.07562 -2.07562,5.43739 0,7.51301 2.07562,2.07562 5.43739,2.07562 7.51301,0 2.07562,-2.07562 2.07562,-5.43739 0,-7.51301 -2.07562,-2.07562 -5.43739,-2.07562 -7.51301,0 z"
       style="fill:#cc0000;fill-opacity:0.39215686;display:inline;filter:url(#filter4654);enable-background:new"
       inkscape:connector-curvature="0" />
  </g>
  <g
     inkscape:label="links"
     inkscape:groupmode="layer"
     id="layer1"
     style="display:inline"
     transform="translate(-47.769143,-190.33973)">
    <g
       id="g3191">
      <path
         style="opacity:0.75739644;color:#000000;fill:#000000;fill-opacity:0.22745098;fill-rule:nonzero;stroke:none;stroke-width:0.99921262;marker:none;visibility:visible;display:inline;overflow:visible;enable-background:accumulate"
         d="m 322.63107,404.56245 0,10.625 0,31.90625 0,10.625 10.625,0 0,-10.625 10.625,0 50.75,0 2.40625,0 21.25,0 2.40625,0 50.75,0 10.625,0 0,10.625 10.625,0 0,-10.625 0,-31.90625 0,-10.625 -10.625,0 0,10.625 -20.9375,0 -3.09375,5.34375 -5.3125,9.1875 -9.25,-5.3125 5.3125,-9.1875 0.0312,-0.0312 -28.125,0 0,0.0312 -2.375,0 0,10.625 -10.65625,0 0,-10.625 -10.625,0 -2.40625,0 0,-0.0312 -61.375,0 0,-10.625 -10.625,0 z m 37.1875,19.0625 c 4.15844,0 7.53125,3.34156 7.53125,7.5 0,4.15844 -3.37281,7.53125 -7.53125,7.53125 -4.15844,0 -7.53125,-3.37281 -7.53125,-7.53125 0,-4.15844 3.37281,-7.5 7.53125,-7.5 z m -26.5625,2.1875 10.625,0 0,10.65625 -10.625,0 0,-10.65625 z m 138.1875,0 10.625,0 0,10.65625 -10.625,0 0,-10.65625 z"
         id="path3047"
         inkscape:connector-curvature="0"
         inkscape:transform-center-x="-47.843752" />
      <g
         transform="translate(12.72047,-29.07617)"
         id="g3146">
        <path
           id="path4506"
           d="m 385.36377,365.73243 0,53.15624 10.625,0 10.625,0 0,-10.625 -10.625,0 0,-10.625 10.625,0 0,-10.625 -10.625,0 0,-10.65625 10.625,0 0,-10.62499 -10.625,0 -10.625,0 z"
           style="opacity:0.75739644;color:#000000;fill:#000000;fill-opacity:0.22745098;fill-rule:nonzero;stroke:none;stroke-width:0.99921262;marker:none;visibility:visible;display:inline;overflow:visible;enable-background:accumulate"
           inkscape:connector-curvature="0" />
        <g
           id="g3130"
           transform="matrix(-1,0,0,-1,707.75169,976.78472)">
          <g
             transform="translate(18.974258,325.14747)"
             id="g4407">
            <path
               style="opacity:0.75739644;color:#000000;fill:#000000;fill-opacity:0.29803922;fill-rule:nonzero;stroke:none;stroke-width:0.99921262;marker:none;visibility:visible;display:inline;overflow:visible;enable-background:accumulate"
               d="m 237.99275,221.77765 c -21.52606,0 -38.96875,17.44269 -38.96875,38.96875 0,21.52606 17.44269,38.96875 38.96875,38.96875 21.52606,0 39,-17.44269 39,-38.96875 0,-21.52606 -17.47394,-38.96875 -39,-38.96875 z m 0,26.5625 c 6.8492,0 12.40625,5.55705 12.40625,12.40625 0,6.8492 -5.55705,12.375 -12.40625,12.375 -6.8492,0 -12.375,-5.5258 -12.375,-12.375 0,-6.8492 5.5258,-12.40625 12.375,-12.40625 z"
               id="path4340"
               inkscape:connector-curvature="0" />
            <rect
               style="opacity:0.75739644;color:#000000;fill:#000000;fill-opacity:0.22745098;fill-rule:nonzero;stroke:none;stroke-width:0.99921262;marker:none;visibility:visible;display:inline;overflow:visible;enable-background:accumulate"
               id="rect4405"
               width="10.625"
               height="17.71875"
               x="232.69588"
               y="251.88702" />
          </g>
          <g
             id="g3084"
             transform="translate(128.44995,325.14747)">
            <path
               inkscape:connector-curvature="0"
               id="path3086"
               d="m 237.99275,221.77765 c -21.52606,0 -38.96875,17.44269 -38.96875,38.96875 0,21.52606 17.44269,38.96875 38.96875,38.96875 21.52606,0 39,-17.44269 39,-38.96875 0,-21.52606 -17.47394,-38.96875 -39,-38.96875 z m 0,26.5625 c 6.8492,0 12.40625,5.55705 12.40625,12.40625 0,6.8492 -5.55705,12.375 -12.40625,12.375 -6.8492,0 -12.375,-5.5258 -12.375,-12.375 0,-6.8492 5.5258,-12.40625 12.375,-12.40625 z"
               style="opacity:0.75739644;color:#000000;fill:#000000;fill-opacity:0.29803922;fill-rule:nonzero;stroke:none;stroke-width:0.99921262;marker:none;visibility:visible;display:inline;overflow:visible;enable-background:accumulate" />
            <rect
               y="251.88702"
               x="232.69588"
               height="17.71875"
               width="10.625"
               id="rect3088"
               style="opacity:0.75739644;color:#000000;fill:#000000;fill-opacity:0.22745098;fill-rule:nonzero;stroke:none;stroke-width:0.99921262;marker:none;visibility:visible;display:inline;overflow:visible;enable-background:accumulate" />
          </g>
          <path
             style="opacity:0.75739644;color:#000000;fill:#000000;fill-opacity:0.22745098;fill-rule:nonzero;stroke:none;stroke-width:0.99921262;marker:none;visibility:visible;display:inline;overflow:visible;enable-background:accumulate"
             d="m 186.85672,499.4898 0,39.03125 c 10.03473,0 17.71875,8.91611 17.71875,35.40625 l 0,43.625 c 0,9.11479 59.34375,10.47129 59.34375,21.25 l 10.625,0 0,-10.625 10.625,0 0,10.625 53.15625,0 0,-10.625 10.625,0 0,10.625 10.65625,0 c 0,-11.50457 59.3125,-10.95474 59.3125,-21.25 l 0,-43.625 0.0312,0 c 5e-5,-26.49014 7.68402,-35.40625 17.71875,-35.40625 l 0,-39.03125 -10.625,0 0,28.34375 -7.09375,0 0,-28.34375 -10.625,0 0,43.65625 -193.125,0 0,-43.65625 -10.625,0 0,28.34375 -7.09375,0 0,-28.34375 -10.625,0 z m 70.125,46.625 c 8.09559,0 15.61998,2.41408 21.90625,6.5625 l 65.65625,0 c 6.28186,-4.15031 13.80865,-6.5625 21.90625,-6.5625 8.0976,0 15.64493,2.41219 21.9375,6.5625 l 19.90625,0 0,64.875 -17.71875,0 c -6.69741,5.09201 -15.06713,8.125 -24.125,8.125 -9.05787,0 -17.40882,-3.03299 -24.09375,-8.125 l -61.28125,0 c -6.69117,5.09201 -15.03588,8.125 -24.09375,8.125 -9.05788,0 -17.40882,-3.03299 -24.09375,-8.125 l -17.6875,0 0,-64.875 19.875,0 c 6.28186,-4.15031 13.80864,-6.5625 21.90625,-6.5625 z"
             id="path3117"
             inkscape:connector-curvature="0" />
        </g>
      </g>
    </g>
    <path
       style="opacity:0.75739644;color:#000000;fill:#000000;fill-opacity:0.39215686;fill-rule:nonzero;stroke:none;stroke-width:0.99921262;marker:none;visibility:visible;display:inline;overflow:visible;enable-background:accumulate"
       d="m 228.0625,247.25 -6.6875,6.6875 0,1.8125 0,1.6875 c 1.00041,0.002 2.00138,0.0509 3,0.125 0.73936,0.0541 1.45142,0.12525 2.1875,0.21875 0.0103,10e-4 0.0211,-10e-4 0.0312,0 4.40604,0.56293 8.73509,1.83919 12.8125,3.8125 1.36226,0.65928 2.70129,1.40212 4,2.21875 1.29871,0.81663 2.55956,1.71355 3.78125,2.6875 1.22169,0.97395 2.40003,2.02503 3.53125,3.15625 1.13136,1.13137 2.18279,2.30882 3.15625,3.53125 0.48673,0.61121 0.95897,1.21233 1.40625,1.84375 0.005,0.007 -0.005,0.0245 0,0.0312 0.44182,0.62455 0.87799,1.26362 1.28125,1.90625 0.81568,1.29985 1.56072,2.63637 2.21875,4 0.98705,2.04544 1.80479,4.16193 2.4375,6.3125 0.42181,1.43372 0.76676,2.88036 1.03125,4.34375 0.39674,2.19508 0.61311,4.40152 0.65625,6.625 2.1e-4,0.0104 -2e-4,0.0208 0,0.0312 0.0275,1.47205 -0.0289,2.96987 -0.15625,4.4375 l -10.40625,10.40625 -17.03125,17.03125 -10.375,10.375 c -1.46749,0.12733 -2.9656,0.18371 -4.4375,0.15625 -0.0104,-2e-4 -0.0208,2.1e-4 -0.0312,0 -2.22348,-0.0431 -4.42992,-0.25951 -6.625,-0.65625 -1.46339,-0.26449 -2.91003,-0.60944 -4.34375,-1.03125 -2.15057,-0.63271 -4.26706,-1.45045 -6.3125,-2.4375 -1.36363,-0.65803 -2.70015,-1.40307 -4,-2.21875 -0.64263,-0.40326 -1.2817,-0.83943 -1.90625,-1.28125 -0.007,-0.005 -0.0246,0.005 -0.0312,0 -0.63142,-0.44728 -1.23254,-0.91952 -1.84375,-1.40625 -1.22243,-0.97346 -2.39989,-2.02488 -3.53125,-3.15625 -1.13136,-1.13137 -2.18279,-2.30891 -3.15625,-3.53125 -0.49219,-0.61803 -0.9544,-1.23633 -1.40625,-1.875 -0.44747,-0.63087 -0.87317,-1.257 -1.28125,-1.90625 -0.81568,-1.29971 -1.56072,-2.63651 -2.21875,-4 -0.90519,-1.87561 -1.64283,-3.81554 -2.25,-5.78125 -0.0554,-0.17939 -0.13455,-0.35127 -0.1875,-0.53125 -0.41893,-1.42385 -0.7675,-2.85924 -1.03125,-4.3125 -0.002,-0.0101 0.002,-0.0211 0,-0.0312 -0.66123,-3.65852 -0.82057,-7.3667 -0.5,-11.0625 l -9.59375,-14.4375 -22.84375,0 0,10.65625 -10.625,0 0,-10.65625 -12.03125,0 -32.28125,0 0,-10.625 0,-10.65625 -10.625,0 0,10.65625 0,10.625 -10.625,0 0,-10.625 0,-10.65625 c -5.15622,0 -5.741874,10.625 -10.625,10.625 l 0,0.0312 0,10.625 c 0,15.28084 39.34375,19.47499 39.34375,34.6875 l 14.1875,0 0,46.03125 10.625,0 0,-46.03125 47,0 c 6.9584,20.69902 26.52295,35.625 49.5625,35.625 7.70443,0 15.01053,-1.69256 21.59375,-4.6875 3.07547,2.24901 6.86684,3.59375 10.96875,3.59375 10.2738,0 18.59375,-8.31995 18.59375,-18.59375 0,-4.10191 -1.34474,-7.89328 -3.59375,-10.96875 2.58425,-5.67953 4.1655,-11.89316 4.5625,-18.4375 0.57452,-8.3361 18.1875,-2.04387 18.1875,-21.1875 l 0,-10.625 0,-10.625 -10.625,0 0,10.625 0,10.625 -10.625,0 0,-10.625 0,-10.625 -14.5625,0 c -7.60947,-6.69002 -17.19124,-11.19746 -27.75,-12.5625 z m 25.8125,76.875 c 4.15844,0 7.53125,3.37281 7.53125,7.53125 0,4.15844 -3.37281,7.53125 -7.53125,7.53125 -4.15844,0 -7.53125,-3.37281 -7.53125,-7.53125 0,-4.15844 3.37281,-7.53125 7.53125,-7.53125 z"
       id="path3235"
       inkscape:connector-curvature="0"
       sodipodi:nodetypes="cccccccsssssccssssccccccccssssccsssccsccccccccccccccccccccccsccccccscssccsccccccccccsssss" />
    <path
       inkscape:connector-curvature="0"
       id="path4390"
       d="m 213.57843,267.06831 -1.71875,3.96875 -0.25,1.875 0.21875,1.96875 -4.34375,0.84375 -0.5625,-1.875 -0.9375,-1.65625 -3.09375,-2.96875 -2.375,0.96875 -0.0625,4.28125 0.5,1.84375 0.9375,1.71875 -3.6875,2.46875 -1.25,-1.53125 -1.5,-1.15625 -4,-1.5625 -1.78125,1.78125 1.5625,4 1.15625,1.5 1.53125,1.25 -2.46875,3.6875 -1.71875,-0.9375 -1.84375,-0.5 -4.28125,0.0625 -0.96875,2.375 2.96875,3.09375 1.65625,0.9375 1.875,0.5625 -0.84375,4.34375 -1.96875,-0.21875 -1.875,0.25 -3.96875,1.71875 0,2.53125 3.96875,1.75 1.875,0.21875 1.96875,-0.21875 0.84375,4.375 -1.875,0.53125 -1.65625,0.96875 -2.96875,3.09375 0.96875,2.34375 4.28125,0.0937 1.84375,-0.5 1.71875,-0.96875 2.46875,3.71875 -1.53125,1.21875 -1.15625,1.5 -1.5625,4 1.78125,1.8125 4,-1.5625 1.5,-1.15625 1.25,-1.5625 3.6875,2.46875 -0.9375,1.75 -0.5,1.8125 0.0625,4.3125 2.375,0.96875 3.09375,-3 0.9375,-1.625 0.5625,-1.90625 4.34375,0.875 -0.21875,1.96875 0.25,1.875 1.71875,3.9375 2.53125,0 1.75,-3.9375 0.21875,-1.875 -0.21875,-1.96875 4.375,-0.875 0.53125,1.90625 0.96875,1.625 3.09375,3 2.34375,-0.96875 0.0937,-4.3125 -0.5,-1.8125 -0.96875,-1.75 3.71875,-2.46875 1.21875,1.5625 1.5,1.15625 4,1.5625 1.8125,-1.8125 -1.5625,-4 -1.15625,-1.5 -1.5625,-1.21875 2.46875,-3.71875 1.75,0.96875 1.8125,0.5 4.3125,-0.0937 0.96875,-2.34375 -3,-3.09375 -1.625,-0.96875 -1.90625,-0.53125 0.875,-4.375 1.96875,0.21875 1.875,-0.21875 3.9375,-1.75 0,-2.53125 -3.9375,-1.71875 -1.875,-0.25 -1.96875,0.21875 -0.875,-4.34375 1.90625,-0.5625 1.625,-0.9375 3,-3.09375 -0.96875,-2.375 -4.3125,-0.0625 -1.8125,0.5 -1.75,0.9375 -2.46875,-3.6875 1.5625,-1.25 1.15625,-1.5 1.5625,-4 -1.8125,-1.78125 -4,1.5625 -1.5,1.15625 -1.21875,1.53125 -3.71875,-2.46875 0.96875,-1.71875 0.5,-1.84375 -0.0937,-4.28125 -2.34375,-0.96875 -3.09375,2.96875 -0.96875,1.65625 -0.53125,1.875 -4.375,-0.84375 0.21875,-1.96875 -0.21875,-1.875 -1.75,-3.96875 -2.53125,0 z m -4.03125,29.0625 10.625,0 0,10.625 -10.625,0 0,-10.625 z"
       style="fill:#000000;fill-opacity:0.29803922;stroke:none" />
    <path
       style="opacity:0.75739644;color:#000000;fill:#000000;fill-opacity:0.22745098;fill-rule:nonzero;stroke:none;stroke-width:0.99921262;marker:none;visibility:visible;display:inline;overflow:visible;enable-background:accumulate"
       d="m 202.76544,193.88304 -10.625,0.0312 0,7.0625 -117.812487,0 0,10.65625 117.812487,0 0,7.0625 10.625,0.0312 c 0,-0.0217 -3.6e-4,-0.0409 0,-0.0625 0.13684,-8.31335 26.59375,-7.91534 26.59375,0 -0.006,0.0197 0.007,0.0428 0,0.0625 l 10.625,-0.0312 0,-7.0625 117.8125,0 0,-10.65625 -117.8125,0 0,-7.0625 -10.625,-0.0312 c 0.007,0.0197 -0.006,0.0428 0,0.0625 0,7.91535 -26.4569,8.31335 -26.59375,0 -3.6e-4,-0.0216 0,-0.0408 0,-0.0625 z"
       id="rect4554"
       inkscape:connector-curvature="0" />
    <g
       id="g3161"
       transform="translate(-40.62158,90.246321)">
      <path
         inkscape:connector-curvature="0"
         id="path3493"
         d="m 500.76088,117.96111 -1.71875,3.96875 -0.25,1.875 0.21875,1.96875 -4.34375,0.84375 -0.5625,-1.875 -0.9375,-1.65625 -3.09375,-2.96875 -2.375,0.96875 -0.0625,4.28125 0.5,1.84375 0.9375,1.71875 -3.6875,2.46875 -1.25,-1.53125 -1.5,-1.15625 -4,-1.5625 -1.78125,1.78125 1.5625,4 1.15625,1.5 1.53125,1.25 -2.46875,3.6875 -1.71875,-0.9375 -1.84375,-0.5 -4.28125,0.0625 -0.96875,2.375 2.96875,3.09375 1.65625,0.9375 1.875,0.5625 -0.84375,4.34375 -1.96875,-0.21875 -1.875,0.25 -3.96875,1.71875 0,2.53125 3.96875,1.75 1.875,0.21875 1.96875,-0.21875 0.84375,4.375 -1.875,0.53125 -1.65625,0.96875 -2.96875,3.09375 0.96875,2.34375 4.28125,0.0937 1.84375,-0.5 1.71875,-0.96875 2.46875,3.71875 -1.53125,1.21875 -1.15625,1.5 -1.5625,4 1.78125,1.8125 4,-1.5625 1.5,-1.15625 1.25,-1.5625 3.6875,2.46875 -0.9375,1.75 -0.5,1.8125 0.0625,4.3125 2.375,0.96875 3.09375,-3 0.9375,-1.625 0.5625,-1.90625 4.34375,0.875 -0.21875,1.96875 0.25,1.875 1.71875,3.9375 2.53125,0 1.75,-3.9375 0.21875,-1.875 -0.21875,-1.96875 4.375,-0.875 0.53125,1.90625 0.96875,1.625 3.09375,3 2.34375,-0.96875 0.0937,-4.3125 -0.5,-1.8125 -0.96875,-1.75 3.71875,-2.46875 1.21875,1.5625 1.5,1.15625 4,1.5625 1.8125,-1.8125 -1.5625,-4 -1.15625,-1.5 -1.5625,-1.21875 2.46875,-3.71875 1.75,0.96875 1.8125,0.5 4.3125,-0.0937 0.96875,-2.34375 -3,-3.09375 -1.625,-0.96875 -1.90625,-0.53125 0.875,-4.375 1.96875,0.21875 1.875,-0.21875 3.9375,-1.75 0,-2.53125 -3.9375,-1.71875 -1.875,-0.25 -1.96875,0.21875 -0.875,-4.34375 1.90625,-0.5625 1.625,-0.9375 3,-3.09375 -0.96875,-2.375 -4.3125,-0.0625 -1.8125,0.5 -1.75,0.9375 -2.46875,-3.6875 1.5625,-1.25 1.15625,-1.5 1.5625,-4 -1.8125,-1.78125 -4,1.5625 -1.5,1.15625 -1.21875,1.53125 -3.71875,-2.46875 0.96875,-1.71875 0.5,-1.84375 -0.0937,-4.28125 -2.34375,-0.96875 -3.09375,2.96875 -0.96875,1.65625 -0.53125,1.875 -4.375,-0.84375 0.21875,-1.96875 -0.21875,-1.875 -1.75,-3.96875 -2.53125,0 z m -4.03125,29.0625 10.625,0 0,10.625 -10.625,0 0,-10.625 z"
         style="fill:#000000;fill-opacity:0.29803922;stroke:none" />
      <path
         sodipodi:nodetypes="ccccccsssssccssssccccccccssssccsssccscccccccccccccccccccccccccccccscsscccscccccccccccsccccssssss"
         inkscape:connector-curvature="0"
         id="rect4649"
         d="m 510.67452,103.63687 -10.34375,10.34375 c 0.73901,-0.0635 1.478,-0.10091 2.21875,-0.125 1.48037,-0.048 2.9603,-0.0159 4.4375,0.0937 0.73937,0.0541 1.45142,0.12525 2.1875,0.21875 0.0103,0.001 0.021,-9.9e-4 0.0312,0 4.40604,0.56293 8.7351,1.83919 12.8125,3.8125 1.36226,0.65929 2.70129,1.40213 4,2.21875 1.29872,0.81663 2.55957,1.71355 3.78125,2.6875 1.22169,0.97395 2.40004,2.02504 3.53125,3.15625 1.13136,1.13137 2.18279,2.30883 3.15625,3.53125 0.48673,0.61122 0.95898,1.21233 1.40625,1.84375 0.005,0.007 -0.005,0.0245 0,0.0312 0.44182,0.62455 0.87799,1.26363 1.28125,1.90625 0.81569,1.29985 1.56072,2.63637 2.21875,4 0.98705,2.04544 1.8048,4.16193 2.4375,6.3125 0.42182,1.43372 0.76676,2.88036 1.03125,4.34375 0.39675,2.19509 0.61311,4.40153 0.65625,6.625 2.2e-4,0.0104 -1.9e-4,0.0208 0,0.0312 0.0275,1.47205 -0.0289,2.96987 -0.15625,4.4375 l -10.40625,10.40625 -17.03125,17.03125 -10.375,10.375 c -1.46749,0.12732 -2.9656,0.18371 -4.4375,0.15625 -0.0104,-2e-4 -0.0208,2e-4 -0.0312,0 -2.22348,-0.0431 -4.42992,-0.25951 -6.625,-0.65625 -1.46339,-0.2645 -2.91003,-0.60944 -4.34375,-1.03125 -2.15057,-0.63271 -4.26706,-1.45045 -6.3125,-2.4375 -1.36362,-0.65803 -2.70015,-1.40308 -4,-2.21875 -0.64263,-0.40326 -1.2817,-0.83943 -1.90625,-1.28125 -0.007,-0.005 -0.0245,0.005 -0.0312,0 -0.63142,-0.44728 -1.23254,-0.91952 -1.84375,-1.40625 -1.22243,-0.97346 -2.39989,-2.02488 -3.53125,-3.15625 -1.13136,-1.13137 -2.18278,-2.30892 -3.15625,-3.53125 -0.49219,-0.61803 -0.9544,-1.23633 -1.40625,-1.875 -0.44746,-0.63088 -0.87316,-1.257 -1.28125,-1.90625 -0.81568,-1.29971 -1.56071,-2.63651 -2.21875,-4 -0.90518,-1.87561 -1.64283,-3.81554 -2.25,-5.78125 -0.0554,-0.17939 -0.13455,-0.35127 -0.1875,-0.53125 -0.41893,-1.42386 -0.7675,-2.85924 -1.03125,-4.3125 -0.002,-0.0101 0.002,-0.0211 0,-0.0312 -0.66123,-3.65852 -0.82057,-7.36669 -0.5,-11.0625 l -9.59375,-14.4375 -22.84375,0 0,10.65625 -10.625,0 0,-10.65625 -12.03125,0 0,0.0312 -32.28125,0 0,-10.65625 0,-0.0259 -10.625,0 0,0.0259 0,10.65625 -10.625,0 0,-10.65625 0,-0.0259 -10.625,0 0,0.0259 0,10.65625 -10.25,0 0,80.71875 95.65625,0 0,-46.0625 25.75,0 c 6.9584,20.69902 26.52295,35.625 49.5625,35.625 7.70443,0 15.01053,-1.69256 21.59375,-4.6875 3.07547,2.24901 6.86684,3.59375 10.96875,3.59375 10.27381,0 18.59375,-8.31995 18.59375,-18.59375 0,-4.10191 -1.34474,-7.89328 -3.59375,-10.96875 2.58425,-5.67953 4.16496,-11.89317 4.56196,-18.4375 l 0,0 c 0.57452,-8.3361 18.18804,-2.04388 18.18804,-21.1875 l 0,-10.625 0,-10.625 -10.625,0 0,10.625 0,10.625 -10.625,0 0,-10.625 0,-10.625 -14.5625,0 c -7.60947,-6.69002 -17.19124,-11.19746 -27.75,-12.5625 z m -167.09375,68.46875 63.78125,0 10.625,0 0,35.4375 -74.40625,0 z m 192.90625,8.40625 c 4.15845,0 7.53125,3.37281 7.53125,7.53125 0,4.15844 -3.3728,7.53125 -7.53125,7.53125 -4.15844,0 -7.53125,-3.37281 -7.53125,-7.53125 0,-4.15844 3.37281,-7.53125 7.53125,-7.53125 z"
         style="opacity:0.75739644;color:#000000;fill:#000000;fill-opacity:0.22745098;fill-rule:nonzero;stroke:none;stroke-width:0.99921262;marker:none;visibility:visible;display:inline;overflow:visible;enable-background:accumulate" />
    </g>
    <path
       style="opacity:0.75739644;color:#000000;fill:#000000;fill-opacity:0.22745098;fill-rule:nonzero;stroke:none;stroke-width:0.99921262;marker:none;visibility:visible;display:inline;overflow:visible;enable-background:accumulate"
       d="m 259.30533,214.64028 0,10.65625 10.625,0 0,-3.5625 14.15625,0 0,5.3125 -2.65625,0 0,-2.46875 -0.875,0 -1.78125,0 0,2.46875 -3.5625,0 0,7.09375 3.5625,0 0,2.46875 1.78125,0 0.875,0 0,-2.46875 2.65625,0 0,5.3125 -14.15625,0 0,-3.53125 -10.625,0 0,10.625 -10.65625,0 0,-10.625 -5.59375,0 -5.03125,0 0,-10.625 5.03125,0 5.59375,0 0,-10.65625 10.65625,0 z"
       id="rect4353"
       inkscape:connector-curvature="0" />
    <g
       inkscape:label="Gear8"
       transform="matrix(-0.92387953,-0.38268343,0.38268343,-0.92387953,406.04301,289.62103)"
       id="g3400"
       style="fill:#000000;fill-opacity:0.29803922;stroke:none">
      <path
         style="fill:#000000;fill-opacity:0.29803922;stroke:none"
         d="m 679.375,319.375 -1.90625,0.8125 -0.25,4.5 0.34375,0.90625 1.65625,2.375 -2.9375,2.9375 -2.375,-1.65625 -0.875,-0.34375 -4.53125,0.25 -0.78125,1.90625 3.03125,3.375 0.84375,0.375 2.84375,0.53125 0,4.125 -2.84375,0.53125 -0.84375,0.375 -3.03125,3.375 0.78125,1.90625 4.53125,0.25 0.875,-0.34375 2.375,-1.65625 2.9375,2.9375 -1.65625,2.375 -0.34375,0.875 0.25,4.53125 1.90625,0.78125 3.375,-3.03125 0.375,-0.84375 0.53125,-2.84375 4.125,0 0.53125,2.84375 0.375,0.84375 3.375,3.03125 1.90625,-0.78125 0.25,-4.53125 -0.34375,-0.875 -1.65625,-2.375 2.9375,-2.9375 2.375,1.65625 0.90625,0.34375 4.5,-0.25 0.8125,-1.90625 -3.03125,-3.375 -0.875,-0.375 -2.84375,-0.53125 0,-4.125 2.84375,-0.53125 0.875,-0.375 3.03125,-3.375 -0.8125,-1.90625 -4.5,-0.25 -0.90625,0.34375 -2.375,1.65625 -2.9375,-2.9375 1.65625,-2.375 0.34375,-0.90625 -0.25,-4.5 -1.90625,-0.8125 -3.34375,3.03125 -0.40625,0.875 -0.53125,2.84375 -4.125,0 -0.53125,-2.84375 -0.375,-0.875 -3.375,-3.03125 z m 3.3125,16.25 6.0625,0 c 0.31358,0.52866 0.53125,1.12201 0.53125,1.78125 0,1.95691 -1.60559,3.53125 -3.5625,3.53125 -1.95691,0 -3.53125,-1.57434 -3.53125,-3.53125 0,-0.65743 0.18801,-1.25356 0.5,-1.78125 z"
         transform="matrix(0.38268343,0.92387954,-0.92387954,0.38268343,49.305539,-762.64395)"
         id="path3402"
         inkscape:connector-curvature="0" />
    </g>
    <path
       style="opacity:0.75739644;color:#000000;fill:#000000;fill-opacity:0.29803922;fill-rule:nonzero;stroke:none;stroke-width:0.99921262;marker:none;visibility:visible;display:inline;overflow:visible;enable-background:accumulate"
       d="m 518.56131,299.26421 -53.125,0 0,10.65625 23.03125,0 0,2.64587 -2.46875,0 0,2.66663 2.46875,0 0,3.5625 7.09375,0 0,-3.5625 2.46875,0 9e-4,-2.66663 -2.46875,0 -9e-4,-2.64587 23,0 z"
       id="rect4347"
       inkscape:connector-curvature="0"
       sodipodi:nodetypes="ccccccccccccccccc" />
    <path
       inkscape:connector-curvature="0"
       id="path3076"
       d="m 353.30294,264.10194 0,10.65625 -10.625,0 0,-3.5625 -14.15625,0 0,5.3125 2.65625,0 0,-2.46875 0.875,0 1.78125,0 0,2.46875 3.5625,0 0,7.09375 -3.5625,0 0,2.46875 -1.78125,0 -0.875,0 0,-2.46875 -2.65625,0 0,5.3125 14.15625,0 0,-3.53125 10.625,0 0,10.625 10.65625,0 0,-10.625 5.59375,0 5.03125,0 0,-10.625 -5.03125,0 -5.59375,0 0,-10.65625 -10.65625,0 z"
       style="opacity:0.75739644;color:#000000;fill:#000000;fill-opacity:0.22745098;fill-rule:nonzero;stroke:none;stroke-width:0.99921262;marker:none;visibility:visible;display:inline;overflow:visible;enable-background:accumulate" />
    <path
       sodipodi:nodetypes="ccccccccccccccccc"
       inkscape:connector-curvature="0"
       id="path3078"
       d="m 533.61549,297.41429 0,-53.125 -10.65625,0 0,23.03125 -2.64586,0 0,-2.46875 -2.66664,0 0,2.46875 -3.5625,0 0,7.09375 3.5625,0 0,2.46875 2.66664,9e-4 0,-2.46875 2.64586,-9e-4 0,23 z"
       style="opacity:0.75739644;color:#000000;fill:#000000;fill-opacity:0.29803922;fill-rule:nonzero;stroke:none;stroke-width:0.99921262;marker:none;visibility:visible;display:inline;overflow:visible;enable-background:accumulate" />
    <g
       style="fill:#000000;fill-opacity:0.29803922;stroke:none"
       id="g3157"
       transform="matrix(-0.92387953,-0.38268343,0.38268343,-0.92387953,149.30266,337.08943)"
       inkscape:label="Gear8">
      <path
         inkscape:connector-curvature="0"
         id="path3159"
         transform="matrix(0.38268343,0.92387954,-0.92387954,0.38268343,49.305539,-762.64395)"
         d="m 679.375,319.375 -1.90625,0.8125 -0.25,4.5 0.34375,0.90625 1.65625,2.375 -2.9375,2.9375 -2.375,-1.65625 -0.875,-0.34375 -4.53125,0.25 -0.78125,1.90625 3.03125,3.375 0.84375,0.375 2.84375,0.53125 0,4.125 -2.84375,0.53125 -0.84375,0.375 -3.03125,3.375 0.78125,1.90625 4.53125,0.25 0.875,-0.34375 2.375,-1.65625 2.9375,2.9375 -1.65625,2.375 -0.34375,0.875 0.25,4.53125 1.90625,0.78125 3.375,-3.03125 0.375,-0.84375 0.53125,-2.84375 4.125,0 0.53125,2.84375 0.375,0.84375 3.375,3.03125 1.90625,-0.78125 0.25,-4.53125 -0.34375,-0.875 -1.65625,-2.375 2.9375,-2.9375 2.375,1.65625 0.90625,0.34375 4.5,-0.25 0.8125,-1.90625 -3.03125,-3.375 -0.875,-0.375 -2.84375,-0.53125 0,-4.125 2.84375,-0.53125 0.875,-0.375 3.03125,-3.375 -0.8125,-1.90625 -4.5,-0.25 -0.90625,0.34375 -2.375,1.65625 -2.9375,-2.9375 1.65625,-2.375 0.34375,-0.90625 -0.25,-4.5 -1.90625,-0.8125 -3.34375,3.03125 -0.40625,0.875 -0.53125,2.84375 -4.125,0 -0.53125,-2.84375 -0.375,-0.875 -3.375,-3.03125 z m 3.3125,16.25 6.0625,0 c 0.31358,0.52866 0.53125,1.12201 0.53125,1.78125 0,1.95691 -1.60559,3.53125 -3.5625,3.53125 -1.95691,0 -3.53125,-1.57434 -3.53125,-3.53125 0,-0.65743 0.18801,-1.25356 0.5,-1.78125 z"
         style="fill:#000000;fill-opacity:0.29803922;stroke:none" />
    </g>
    <g
       id="g3139"
       transform="translate(0,9.49995)">
      <path
         inkscape:connector-curvature="0"
         id="rect4497"
         d="m 164.28125,367.28125 0,53.15625 10.625,0 10.625,0 0,-10.625 -10.625,0 0,-10.625 10.625,0 0,-10.625 -10.625,0 0,-10.65625 10.625,0 0,-10.625 -10.625,0 -10.625,0 z"
         style="opacity:0.75739644;color:#000000;fill:#000000;fill-opacity:0.22745098;fill-rule:nonzero;stroke:none;stroke-width:0.99921262;marker:none;visibility:visible;display:inline;overflow:visible;enable-background:accumulate" />
      <g
         id="g3106">
        <path
           style="opacity:0.75739644;color:#000000;fill:#000000;fill-opacity:0.29803922;fill-rule:nonzero;stroke:none;stroke-width:0.99921262;marker:none;visibility:visible;display:inline;overflow:visible;enable-background:accumulate"
           d="m 121.43842,356.34157 c -21.526055,0 -38.968745,17.44269 -38.968745,38.96875 0,21.52606 17.44269,38.96875 38.968745,38.96875 21.52607,0 39,-17.44269 39,-38.96875 0,-21.52606 -17.47394,-38.96875 -39,-38.96875 z m -5.3125,33.65625 10.65625,0 0,10.625 -10.65625,0 0,-10.625 z"
           id="path4308"
           inkscape:connector-curvature="0" />
        <path
           inkscape:connector-curvature="0"
           id="path3080"
           d="m 230.91411,356.34157 c -21.52606,0 -38.96875,17.44269 -38.96875,38.96875 0,21.52607 17.44269,38.96875 38.96875,38.96875 21.52606,0 39,-17.44268 39,-38.96875 0,-21.52606 -17.47394,-38.96875 -39,-38.96875 z m -5.3125,33.65625 10.65625,0 0,10.625 -10.65625,0 0,-10.625 z"
           style="opacity:0.75739644;color:#000000;fill:#000000;fill-opacity:0.29803922;fill-rule:nonzero;stroke:none;stroke-width:0.99921262;marker:none;visibility:visible;display:inline;overflow:visible;enable-background:accumulate" />
        <path
           inkscape:connector-curvature="0"
           style="opacity:0.75739644;color:#000000;fill:#000000;fill-opacity:0.22745098;fill-rule:nonzero;stroke:none;stroke-width:0.99921262;marker:none;visibility:visible;display:inline;overflow:visible;enable-background:accumulate"
           d="m 51.3125,308.90625 0,39.03125 c 10.03473,0 17.71875,8.91611 17.71875,35.40625 l 0,43.625 c 0,9.11479 59.34375,10.47129 59.34375,21.25 l 10.625,0 0,-10.625 10.625,0 0,10.625 53.15625,0 0,-10.625 10.625,0 0,10.625 10.65625,0 c 0,-11.50457 59.3125,-10.95474 59.3125,-21.25 l 0,-43.625 0.0312,0 c 5e-5,-26.49014 7.68402,-35.40625 17.71875,-35.40625 l 0,-39.03125 -10.625,0 0,28.34375 -7.09375,0 0,-28.34375 -10.625,0 0,43.65625 -193.125,0 0,-43.65625 -10.625,0 0,28.34375 -7.09375,0 0,-28.34375 -10.625,0 z m 70.125,46.625 c 8.09559,0 15.61998,2.41408 21.90625,6.5625 l 65.65625,0 c 6.28186,-4.15031 13.80865,-6.5625 21.90625,-6.5625 8.0976,0 15.64493,2.41219 21.9375,6.5625 l 19.90625,0 0,64.875 -17.71875,0 c -6.69741,5.09201 -15.06713,8.125 -24.125,8.125 -9.05787,0 -17.40882,-3.03299 -24.09375,-8.125 l -61.28125,0 c -6.69117,5.09201 -15.03588,8.125 -24.09375,8.125 -9.05788,0 -17.40882,-3.03299 -24.09375,-8.125 l -17.6875,0 0,-64.875 19.875,0 c 6.28186,-4.15031 13.80864,-6.5625 21.90625,-6.5625 z"
           id="path3082" />
      </g>
    </g>
    <path
       style="opacity:0.75739644;color:#000000;fill:#000000;fill-opacity:0.22745098;fill-rule:nonzero;stroke:none;stroke-width:0.99921262;marker:none;visibility:visible;display:inline;overflow:visible;enable-background:accumulate"
       d="m 51.3125,213.20495 0,10.625 0,31.90625 0,10.625 10.625,0 0,-10.625 10.625,0 50.75,0 2.40625,0 21.25,0 2.40625,0 50.75,0 10.625,0 0,10.625 10.625,0 0,-10.625 0,-31.90625 0,-10.625 -10.625,0 0,10.625 -20.9375,0 -3.09375,5.34375 -5.3125,9.1875 -9.25,-5.3125 5.3125,-9.1875 0.0312,-0.0312 -28.125,0 0,0.0312 -2.375,0 0,10.625 -10.65625,0 0,-10.625 -10.625,0 -2.40625,0 0,-0.0312 -61.375,0 0,-10.625 -10.625,0 z M 88.5,232.26745 c 4.15844,0 7.53125,3.34156 7.53125,7.5 0,4.15844 -3.37281,7.53125 -7.53125,7.53125 -4.15844,0 -7.53125,-3.37281 -7.53125,-7.53125 0,-4.15844 3.37281,-7.5 7.53125,-7.5 z m -26.5625,2.1875 10.625,0 0,10.65625 -10.625,0 0,-10.65625 z m 138.1875,0 10.625,0 0,10.65625 -10.625,0 0,-10.65625 z"
       id="path3180"
       inkscape:connector-curvature="0"
       inkscape:transform-center-x="-47.843752" />
    <rect
       style="opacity:0.75739644;color:#000000;fill:#000000;fill-opacity:0.50588229;fill-rule:nonzero;stroke:none;stroke-width:0.99921262;marker:none;visibility:visible;display:inline;overflow:visible;enable-background:accumulate"
       id="rect3257"
       width="106.29921"
       height="10.629921"
       x="95.76915"
       y="257.63208" />
    <rect
       y="-531.37549"
       x="302.1557"
       height="10.629921"
       width="88.58268"
       id="rect3259"
       style="opacity:0.75739644;color:#000000;fill:#000000;fill-opacity:0.50588229;fill-rule:nonzero;stroke:none;stroke-width:0.99921262;marker:none;visibility:visible;display:inline;overflow:visible;enable-background:accumulate"
       transform="matrix(0,1,-1,0,0,0)" />
    <rect
       transform="matrix(0,1,-1,0,0,0)"
       style="opacity:0.75739644;color:#000000;fill:#000000;fill-opacity:0.50588229;fill-rule:nonzero;stroke:none;stroke-width:0.99921262;marker:none;visibility:visible;display:inline;overflow:visible;enable-background:accumulate"
       id="rect3261"
       width="88.58268"
       height="10.629921"
       x="367.53439"
       y="-63.942368" />
    <rect
       transform="scale(-1,-1)"
       style="opacity:0.75739644;color:#000000;fill:#000000;fill-opacity:0.50588229;fill-rule:nonzero;stroke:none;stroke-width:0.99921262;marker:none;visibility:visible;display:inline;overflow:visible;enable-background:accumulate"
       id="rect3263"
       width="88.58268"
       height="10.629921"
       x="-452.35187"
       y="-207.76199" />
    <rect
       y="-225.08611"
       x="-429.72446"
       height="10.629921"
       width="88.58268"
       id="rect3265"
       style="opacity:0.75739644;color:#000000;fill:#000000;fill-opacity:0.50588229;fill-rule:nonzero;stroke:none;stroke-width:0.99921262;marker:none;visibility:visible;display:inline;overflow:visible;enable-background:accumulate"
       transform="scale(-1,-1)" />
    <rect
       transform="scale(-1,-1)"
       style="opacity:0.75739644;color:#000000;fill:#000000;fill-opacity:0.50588229;fill-rule:nonzero;stroke:none;stroke-width:0.99921262;marker:none;visibility:visible;display:inline;overflow:visible;enable-background:accumulate"
       id="rect3267"
       width="88.58268"
       height="10.629921"
       x="-184.33328"
       y="-280.19754" />
  </g>
  <g
     inkscape:groupmode="layer"
     id="layer3"
     inkscape:label="rechts"
     style="display:inline"
     transform="translate(-47.769143,-190.33973)" />
</svg>
