<?xml version="1.0" encoding="UTF-8" standalone="no"?>
<!-- Created with Inkscape (http://www.inkscape.org/) -->

<svg
   xmlns:dc="http://purl.org/dc/elements/1.1/"
   xmlns:cc="http://creativecommons.org/ns#"
   xmlns:rdf="http://www.w3.org/1999/02/22-rdf-syntax-ns#"
   xmlns:svg="http://www.w3.org/2000/svg"
   xmlns="http://www.w3.org/2000/svg"
   xmlns:sodipodi="http://sodipodi.sourceforge.net/DTD/sodipodi-0.dtd"
   xmlns:inkscape="http://www.inkscape.org/namespaces/inkscape"
   sodipodi:docname="john.svg"
   inkscape:version="0.48.5 r10040"
   version="1.1"
   id="svg3091"
   height="608.79596"
   width="263.39478"
   style="enable-background:new">
  <sodipodi:namedview
     id="base"
     pagecolor="#ffffff"
     bordercolor="#666666"
     borderopacity="1.0"
     inkscape:pageopacity="0.0"
     inkscape:pageshadow="2"
     inkscape:zoom="1.4142136"
     inkscape:cx="269.65584"
     inkscape:cy="252.26332"
     inkscape:document-units="mm"
     inkscape:current-layer="layer3"
     showgrid="false"
     inkscape:window-width="1920"
     inkscape:window-height="1005"
     inkscape:window-x="-9"
     inkscape:window-y="-9"
     inkscape:window-maximized="1"
     inkscape:object-paths="false"
     inkscape:object-nodes="true"
     inkscape:snap-object-midpoints="true"
     inkscape:snap-nodes="true"
     inkscape:snap-midpoints="true"
     inkscape:snap-intersection-paths="true"
     inkscape:snap-smooth-nodes="true"
     units="mm"
     fit-margin-top="1"
     fit-margin-right="1"
     fit-margin-bottom="1"
     fit-margin-left="1" />
  <defs
     id="defs3093">
    <filter
       inkscape:collect="always"
       id="filter3277"
       color-interpolation-filters="sRGB">
      <feBlend
         inkscape:collect="always"
         mode="screen"
         in2="BackgroundImage"
         id="feBlend3279" />
    </filter>
  </defs>
  <metadata
     id="metadata3096">
    <rdf:RDF>
      <cc:Work
         rdf:about="">
        <dc:format>image/svg+xml</dc:format>
        <dc:type
           rdf:resource="http://purl.org/dc/dcmitype/StillImage" />
        <dc:title />
      </cc:Work>
    </rdf:RDF>
  </metadata>
  <g
     inkscape:groupmode="layer"
     id="layer2"
     inkscape:label="Purgatory"
     style="display:inline"
     transform="translate(390.77735,87.879556)">
    <path
       style="opacity:0.75739644;color:#000000;fill:#000000;fill-opacity:0.22745098;fill-rule:nonzero;stroke:none;stroke-width:0.99921262;marker:none;visibility:visible;display:inline;overflow:visible;enable-background:accumulate"
       d="m 652.98337,208.11457 0,10.625 0,31.90625 0,10.625 10.625,0 0,-10.625 10.625,0 50.75,0 2.40625,0 21.25,0 2.40625,0 50.75,0 10.625,0 0,10.625 10.625,0 0,-10.625 0,-31.90625 0,-10.625 -10.625,0 0,10.625 -20.9375,0 -3.09375,5.34375 -5.3125,9.1875 -9.25,-5.3125 5.3125,-9.1875 0.0312,-0.0312 -28.125,0 0,0.0312 -2.375,0 0,10.625 -10.65625,0 0,-10.625 -10.625,0 -2.40625,0 0,-0.0312 -61.375,0 0,-10.625 -10.625,0 z m 37.1875,19.0625 c 4.15844,0 7.53125,3.34156 7.53125,7.5 0,4.15844 -3.37281,7.53125 -7.53125,7.53125 -4.15844,0 -7.53125,-3.37281 -7.53125,-7.53125 0,-4.15844 3.37281,-7.5 7.53125,-7.5 z m -26.5625,2.1875 10.625,0 0,10.65625 -10.625,0 0,-10.65625 z m 138.1875,0 10.625,0 0,10.65625 -10.625,0 0,-10.65625 z"
       id="rect4386"
       inkscape:connector-curvature="0"
       inkscape:transform-center-x="-47.843752" />
    <rect
       style="opacity:0.75739644;color:#000000;fill:#000000;fill-opacity:0.22745098;fill-rule:nonzero;stroke:none;stroke-width:0.99921262;marker:none;visibility:visible;display:inline;overflow:visible;enable-background:accumulate"
       id="rect4388"
       width="10.629921"
       height="10.629921"
       x="666.87024"
       y="139.92952" />
    <rect
       style="opacity:0.75739644;color:#000000;fill:#000000;fill-opacity:0.22745098;fill-rule:nonzero;stroke:none;stroke-width:0.99921262;marker:none;visibility:visible;display:inline;overflow:visible;enable-background:accumulate"
       id="rect4415"
       width="10.625"
       height="10.65625"
       x="698.9834"
       y="254.36456" />
    <rect
       y="229.36456"
       x="684.8584"
       height="10.65625"
       width="10.625"
       id="rect4417"
       style="opacity:0.75739644;color:#000000;fill:#000000;fill-opacity:0.22745098;fill-rule:nonzero;stroke:none;stroke-width:0.99921262;marker:none;visibility:visible;display:inline;overflow:visible;enable-background:accumulate" />
    <rect
       y="240.02081"
       x="695.4834"
       height="10.65625"
       width="10.625"
       id="rect4419"
       style="opacity:0.75739644;color:#000000;fill:#000000;fill-opacity:0.22745098;fill-rule:nonzero;stroke:none;stroke-width:0.99921262;marker:none;visibility:visible;display:inline;overflow:visible;enable-background:accumulate" />
    <rect
       style="opacity:0.75739644;color:#000000;fill:#000000;fill-opacity:0.22745098;fill-rule:nonzero;stroke:none;stroke-width:0.99921262;marker:none;visibility:visible;display:inline;overflow:visible;enable-background:accumulate"
       id="rect4421"
       width="10.629921"
       height="157.40944"
       x="-720.36652"
       y="-220.5403"
       transform="matrix(-0.8660254,-0.5,-0.5,0.8660254,0,0)" />
    <rect
       transform="scale(-1,1)"
       y="155.98796"
       x="-695.48584"
       height="157.40944"
       width="10.629921"
       id="rect4423"
       style="opacity:0.75739644;color:#000000;fill:#000000;fill-opacity:0.22745098;fill-rule:nonzero;stroke:none;stroke-width:0.99921262;marker:none;visibility:visible;display:inline;overflow:visible;enable-background:accumulate" />
    <rect
       style="opacity:0.75739644;color:#000000;fill:#000000;fill-opacity:0.22745098;fill-rule:nonzero;stroke:none;stroke-width:0.99921262;marker:none;visibility:visible;display:inline;overflow:visible;enable-background:accumulate"
       id="rect4425"
       width="10.625"
       height="10.65625"
       x="-730.99152"
       y="-163.32521"
       transform="matrix(-0.8660254,-0.5,-0.5,0.8660254,0,0)" />
    <rect
       transform="matrix(-0.8660254,-0.5,-0.5,0.8660254,0,0)"
       y="-173.98145"
       x="-730.99152"
       height="10.65625"
       width="10.625"
       id="rect4427"
       style="opacity:0.75739644;color:#000000;fill:#000000;fill-opacity:0.22745098;fill-rule:nonzero;stroke:none;stroke-width:0.99921262;marker:none;visibility:visible;display:inline;overflow:visible;enable-background:accumulate" />
    <rect
       style="opacity:0.75739644;color:#000000;fill:#000000;fill-opacity:0.22745098;fill-rule:nonzero;stroke:none;stroke-width:0.99921262;marker:none;visibility:visible;display:inline;overflow:visible;enable-background:accumulate"
       id="rect4431"
       width="10.629921"
       height="157.40944"
       x="-759.26294"
       y="155.9962"
       transform="scale(-1,1)" />
    <rect
       style="opacity:0.75739644;color:#000000;fill:#000000;fill-opacity:0.22745098;fill-rule:nonzero;stroke:none;stroke-width:0.99921262;marker:none;visibility:visible;display:inline;overflow:visible;enable-background:accumulate"
       id="rect4511"
       width="10.629921"
       height="74.409447"
       x="748.633"
       y="176.23636" />
    <path
       inkscape:transform-center-x="-41.433922"
       inkscape:connector-curvature="0"
       id="path4515"
       d="m 644.67648,230.2691 5.3125,9.20152 15.95313,27.63162 5.3125,9.20152 9.20152,-5.3125 -5.3125,-9.20152 9.20152,-5.3125 43.95079,-25.375 2.08387,-1.20312 18.40304,-10.625 2.08388,-1.20313 43.95078,-25.375 9.20152,-5.3125 5.3125,9.20152 9.20152,-5.3125 -5.3125,-9.20152 -15.95312,-27.63162 -5.3125,-9.20152 -9.20152,5.3125 5.3125,9.20152 -18.13241,10.46875 -0.007,6.1747 -0.007,10.61286 -10.66698,0.0242 0.007,-10.61286 0.0114,-0.0426 -24.35697,14.0625 0.0156,0.027 -2.05681,1.1875 5.3125,9.20152 -9.22858,5.32812 -5.3125,-9.20152 -9.20152,5.3125 -2.08388,1.20313 -0.0156,-0.027 -53.1523,30.6875 -5.3125,-9.20152 -9.20152,5.3125 z m 41.73657,-2.08514 c 3.60132,-2.07922 8.19304,-0.87175 10.27226,2.72956 2.07922,3.60132 0.84468,8.20866 -2.75663,10.28788 -3.60132,2.07922 -8.20866,0.84469 -10.28788,-2.75663 -2.07922,-3.60131 -0.82906,-8.18159 2.77225,-10.26081 z m -21.91005,15.17568 9.20152,-5.3125 5.32813,9.22858 -9.20152,5.3125 -5.32813,-9.22858 z m 119.67389,-69.09375 9.20152,-5.3125 5.32812,9.22858 -9.20152,5.3125 -5.32812,-9.22858 z"
       style="opacity:0.75739644;color:#000000;fill:#000000;fill-opacity:0.22745098;fill-rule:nonzero;stroke:none;stroke-width:0.99921262;marker:none;visibility:visible;display:inline;overflow:visible;enable-background:accumulate"
       inkscape:transform-center-y="-23.92189" />
    <rect
       transform="matrix(-0.5,-0.8660254,0.8660254,-0.5,0,0)"
       y="432.54175"
       x="-587.3114"
       height="10.629921"
       width="77.952759"
       id="rect4517"
       style="opacity:0.75739644;color:#000000;fill:#000000;fill-opacity:0.22745098;fill-rule:nonzero;stroke:none;stroke-width:0.99921262;marker:none;visibility:visible;display:inline;overflow:visible;enable-background:accumulate" />
    <rect
       style="opacity:0.75739644;color:#000000;fill:#000000;fill-opacity:0.22745098;fill-rule:nonzero;stroke:none;stroke-width:0.99921262;marker:none;visibility:visible;display:inline;overflow:visible;enable-background:accumulate"
       id="rect4519"
       width="27.226597"
       height="52.335129"
       x="668.24799"
       y="240.02081" />
    <rect
       style="opacity:0.75739644;color:#000000;fill:#000000;fill-opacity:0.22745098;fill-rule:nonzero;stroke:none;stroke-width:0.99921262;marker:none;visibility:visible;display:inline;overflow:visible;enable-background:accumulate"
       id="rect4523"
       width="10.629921"
       height="10.629921"
       x="810.28271"
       y="299.00818" />
    <rect
       y="288.37827"
       x="810.28271"
       height="10.629921"
       width="10.629921"
       id="rect4525"
       style="opacity:0.75739644;color:#000000;fill:#000000;fill-opacity:0.22745098;fill-rule:nonzero;stroke:none;stroke-width:0.99921262;marker:none;visibility:visible;display:inline;overflow:visible;enable-background:accumulate" />
    <path
       style="opacity:0.75739644;color:#000000;fill:#000000;fill-opacity:0.22745098;fill-rule:nonzero;stroke:none;stroke-width:0.99921262;marker:none;visibility:visible;display:inline;overflow:visible;enable-background:accumulate"
       d="m 866.64374,280.44547 0,63.75 99.21875,0 0,-63.75 -99.21875,0 z m 44.75,35.4375 c 0.0694,-2e-5 0.12617,0.005 0.1875,0.0312 0.0613,0.0266 0.1408,0.0471 0.1875,0.0937 0.0466,0.0467 0.0657,0.12488 0.0937,0.1875 0.0281,0.0627 0.0625,0.11823 0.0625,0.1875 3e-5,0.0694 -0.0344,0.12754 -0.0625,0.1875 -0.028,0.0601 -0.0471,0.10967 -0.0937,0.15625 -0.0467,0.0468 -0.12619,0.0985 -0.1875,0.125 -0.0613,0.0267 -0.11814,0.0312 -0.1875,0.0312 -0.0693,-2e-5 -0.12752,-0.005 -0.1875,-0.0312 -0.06,-0.0266 -0.10958,-0.0782 -0.15625,-0.125 -0.0466,-0.0466 -0.0983,-0.0962 -0.125,-0.15625 -0.0267,-0.0599 -0.0313,-0.1181 -0.0312,-0.1875 -2e-5,-0.0693 0.005,-0.12477 0.0312,-0.1875 0.0267,-0.0626 0.0784,-0.14082 0.125,-0.1875 0.0467,-0.0467 0.0962,-0.0671 0.15625,-0.0937 0.06,-0.0267 0.11818,-0.0313 0.1875,-0.0312 z m -23.28125,0.0937 2.40625,0 c 1.02132,10e-6 1.65825,0.29635 1.90625,0.875 0.0774,0.18668 0.12503,0.37585 0.125,0.5625 0,0.18667 -0.0185,0.33809 -0.0625,0.46875 -0.044,0.13067 -0.13076,0.23176 -0.21875,0.34375 -0.18933,0.23467 -0.46051,0.42192 -0.8125,0.53125 0.84532,0.168 1.28125,0.60318 1.28125,1.3125 -10e-6,0.49333 -0.18193,0.89417 -0.53125,1.1875 -0.36,0.30133 -0.83676,0.4375 -1.46875,0.4375 l -2.625,0 0,-0.34375 c 0,-0.0827 0.045,-0.109 0.125,-0.125 l 0.46875,-0.0937 0,-4.5625 c -0.256,-0.0507 -0.42075,-0.0831 -0.46875,-0.0937 -0.08,-0.016 -0.125,-0.0736 -0.125,-0.15625 l 0,-0.34375 z m 10,0.34375 0.34375,0 0,1.40625 1.15625,0 0,0.53125 -1.15625,0 0,2.40625 c 0,0.17067 0.0423,0.32358 0.125,0.40625 0.0827,0.0827 0.18183,0.125 0.3125,0.125 0.0747,0 0.13283,-0.0113 0.1875,-0.0312 0.0547,-0.02 0.11625,-0.0385 0.15625,-0.0625 0.04,-0.024 0.0657,-0.0738 0.0937,-0.0937 0.028,-0.02 0.0724,-0.0312 0.0937,-0.0312 0.0373,0 0.0644,0.0484 0.0937,0.0937 l 0.21875,0.34375 c -0.12267,0.11467 -0.29542,0.18467 -0.46875,0.25 -0.17334,0.0653 -0.34725,0.0937 -0.53125,0.0937 -0.32,0 -0.54675,-0.0713 -0.71875,-0.25 -0.172,-0.17866 -0.28125,-0.44525 -0.28125,-0.78125 l 0,-2.46875 -0.46875,0 c -0.0427,0 -0.0957,-0.0372 -0.125,-0.0625 -0.0293,-0.0253 -0.0312,-0.0404 -0.0312,-0.0937 l 0,-0.28125 0.65625,-0.0937 0.15625,-1.25 c 0.005,-0.04 0.0332,-0.0684 0.0625,-0.0937 0.0293,-0.0254 0.0797,-0.0626 0.125,-0.0625 z m 2.90625,0 0.34375,0 0,1.40625 1.15625,0 0,0.53125 -1.15625,0 0,2.40625 c 0,0.17067 0.0423,0.32358 0.125,0.40625 0.0827,0.0827 0.18183,0.125 0.3125,0.125 0.0747,0 0.13283,-0.0113 0.1875,-0.0312 0.0547,-0.02 0.11625,-0.0385 0.15625,-0.0625 0.04,-0.024 0.0657,-0.0738 0.0937,-0.0937 0.028,-0.02 0.0724,-0.0312 0.0937,-0.0312 0.0373,0 0.0644,0.0484 0.0937,0.0937 l 0.21875,0.34375 c -0.12267,0.11467 -0.29542,0.18467 -0.46875,0.25 -0.17334,0.0653 -0.34725,0.0937 -0.53125,0.0937 -0.32,0 -0.54675,-0.0713 -0.71875,-0.25 -0.172,-0.17866 -0.28125,-0.44525 -0.28125,-0.78125 l 0,-2.46875 -0.46875,0 c -0.0427,0 -0.0957,-0.0372 -0.125,-0.0625 -0.0293,-0.0253 -0.0312,-0.0404 -0.0312,-0.0937 l 0,-0.28125 0.65625,-0.0937 0.15625,-1.25 c 0.005,-0.04 0.0332,-0.0684 0.0625,-0.0937 0.0293,-0.0254 0.0797,-0.0626 0.125,-0.0625 z m -11.5625,0.25 0,1.96875 1.03125,0 c 0.63732,0 1.05608,-0.20709 1.21875,-0.59375 0.0507,-0.12267 0.0625,-0.231 0.0625,-0.375 0,-0.336 -0.10984,-0.59267 -0.3125,-0.75 -0.20267,-0.15735 -0.51084,-0.25001 -0.9375,-0.25 l -1.0625,0 z m 5.40625,1 c 0.22663,4e-5 0.41774,0.0503 0.59375,0.125 0.17598,0.0746 0.34876,0.17914 0.46875,0.3125 0.12004,0.13336 0.18869,0.27944 0.25,0.46875 0.0613,0.18941 0.0937,0.39842 0.0937,0.625 l 0,2.03125 0.21875,0.0312 c 0.0846,0.0168 0.15484,0.0247 0.1875,0.0312 0.0358,0.008 0.0713,0.0353 0.0937,0.0625 0.0224,0.0272 0.0306,0.0575 0.0312,0.0937 l 0,0.34375 -0.53125,0 -0.0625,0 -0.25,0 c -0.0694,1e-5 -0.11362,-0.01 -0.15625,-0.0312 -0.0427,-0.0213 -0.0804,-0.0556 -0.0937,-0.125 l -0.0937,-0.375 c -0.10668,0.096 -0.17991,0.17407 -0.28125,0.25 -0.10137,0.0761 -0.2318,0.13553 -0.34375,0.1875 -0.112,0.052 -0.21708,0.0984 -0.34375,0.125 -0.12671,0.0267 -0.28288,0.0312 -0.4375,0.0312 -0.15736,-3e-5 -0.30023,-0.0184 -0.4375,-0.0625 -0.13735,-0.0442 -0.24242,-0.0992 -0.34375,-0.1875 -0.10132,-0.0883 -0.19004,-0.20861 -0.25,-0.34375 -0.06,-0.1351 -0.0938,-0.31538 -0.0937,-0.5 0,-0.16051 0.037,-0.28892 0.125,-0.4375 0.088,-0.14853 0.24153,-0.29121 0.4375,-0.40625 0.196,-0.11502 0.46389,-0.20762 0.78125,-0.28125 0.3173,-0.0736 0.69759,-0.12499 1.15625,-0.125 l 0,-0.3125 c -2e-5,-0.31658 -0.0841,-0.55639 -0.21875,-0.71875 -0.13464,-0.1624 -0.32976,-0.24998 -0.59375,-0.25 -0.17339,2e-5 -0.31891,0.0497 -0.4375,0.0937 -0.11871,0.044 -0.22587,0.0704 -0.3125,0.125 -0.0867,0.0547 -0.15613,0.11227 -0.21875,0.15625 -0.0627,0.044 -0.12624,0.0625 -0.1875,0.0625 -0.048,-2e-5 -0.089,-0.006 -0.125,-0.0312 -0.036,-0.0253 -0.0724,-0.0564 -0.0937,-0.0937 l -0.125,-0.21875 c 0.22397,-0.21603 0.49134,-0.39336 0.75,-0.5 0.25865,-0.10667 0.52906,-0.15622 0.84375,-0.15625 z m 14.65625,0 c 0.20799,0 0.36858,0.0603 0.53125,0.15625 l -0.0625,0.53125 c -0.0187,0.0667 -0.0743,0.0937 -0.125,0.0937 -0.0507,0 -0.11017,-0.006 -0.1875,-0.0312 -0.0773,-0.0253 -0.17384,-0.0312 -0.3125,-0.0312 -0.464,0 -0.83317,0.28109 -1.0625,0.84375 l 0,2 c 0.0667,0.0133 0.23142,0.0457 0.46875,0.0937 0.08,0.016 0.125,0.0423 0.125,0.125 l 0,0.34375 -1.875,0 0,-0.34375 c 0,-0.0827 0.045,-0.109 0.125,-0.125 l 0.46875,-0.0937 0,-2.90625 c -0.256,-0.0507 -0.42075,-0.0831 -0.46875,-0.0937 -0.08,-0.016 -0.125,-0.0423 -0.125,-0.125 l 0,-0.34375 0.59375,0 0.40625,0 c 0.0773,4e-5 0.12692,0.002 0.15625,0.0312 0.0293,0.0293 0.0518,0.0843 0.0625,0.15625 l 0.0312,0.625 c 0.296,-0.59999 0.72467,-0.90625 1.25,-0.90625 z m -4.625,0.0312 c 0.24267,2e-5 0.45092,0.0125 0.65625,0.0937 0.20533,0.0813 0.38192,0.22167 0.53125,0.375 0.14933,0.15334 0.25975,0.33717 0.34375,0.5625 0.084,0.22534 0.125,0.49326 0.125,0.78125 0,0.11201 -0.007,0.18142 -0.0312,0.21875 -0.024,0.0373 -0.0583,0.0312 -0.125,0.0312 l -2.6875,0 c 0.005,0.256 0.0297,0.49817 0.0937,0.6875 0.064,0.18933 0.138,0.34208 0.25,0.46875 0.112,0.12667 0.25158,0.21858 0.40625,0.28125 0.15466,0.0627 0.33925,0.0937 0.53125,0.0937 0.17866,0 0.33942,-0.0212 0.46875,-0.0625 0.12933,-0.0413 0.21917,-0.077 0.3125,-0.125 0.0933,-0.048 0.18733,-0.0837 0.25,-0.125 0.0627,-0.0413 0.11092,-0.0625 0.15625,-0.0625 0.0587,0 0.093,0.0172 0.125,0.0625 l 0.21875,0.25 c -0.088,0.10667 -0.18984,0.20258 -0.3125,0.28125 -0.12267,0.0787 -0.26626,0.13683 -0.40625,0.1875 -0.14,0.0507 -0.28817,0.0997 -0.4375,0.125 -0.14933,0.0253 -0.29084,0.0312 -0.4375,0.0312 -0.28,0 -0.54525,-0.0616 -0.78125,-0.15625 -0.236,-0.0947 -0.42175,-0.22358 -0.59375,-0.40625 -0.172,-0.18266 -0.31025,-0.41817 -0.40625,-0.6875 -0.096,-0.26933 -0.15625,-0.55692 -0.15625,-0.90625 0,-0.28266 0.0383,-0.56717 0.125,-0.8125 0.0867,-0.24533 0.21233,-0.445 0.375,-0.625 0.16267,-0.18 0.35908,-0.33484 0.59375,-0.4375 0.23466,-0.10267 0.51917,-0.125 0.8125,-0.125 z m 9.6875,0 c 0.24267,2e-5 0.48217,0.0125 0.6875,0.0937 0.20533,0.0813 0.38192,0.22167 0.53125,0.375 0.14933,0.15334 0.25975,0.33717 0.34375,0.5625 0.084,0.22534 0.125,0.49326 0.125,0.78125 0,0.11201 -0.007,0.18142 -0.0312,0.21875 -0.024,0.0373 -0.0896,0.0312 -0.15625,0.0312 l -2.6875,0 c 0.005,0.256 0.0297,0.49817 0.0937,0.6875 0.064,0.18933 0.16925,0.34208 0.28125,0.46875 0.112,0.12667 0.25158,0.21858 0.40625,0.28125 0.15466,0.0627 0.308,0.0937 0.5,0.0937 0.17866,0 0.33942,-0.0212 0.46875,-0.0625 0.12933,-0.0413 0.25042,-0.077 0.34375,-0.125 0.0933,-0.048 0.15608,-0.0837 0.21875,-0.125 0.0627,-0.0413 0.11092,-0.0625 0.15625,-0.0625 0.0587,0 0.12425,0.0172 0.15625,0.0625 l 0.1875,0.25 c -0.088,0.10667 -0.18984,0.20258 -0.3125,0.28125 -0.12267,0.0787 -0.23501,0.13683 -0.375,0.1875 -0.14,0.0507 -0.28817,0.0997 -0.4375,0.125 -0.14933,0.0253 -0.32209,0.0312 -0.46875,0.0312 -0.28,0 -0.514,-0.0616 -0.75,-0.15625 -0.236,-0.0947 -0.453,-0.22358 -0.625,-0.40625 -0.172,-0.18266 -0.31025,-0.41817 -0.40625,-0.6875 -0.096,-0.26933 -0.125,-0.55692 -0.125,-0.90625 0,-0.28266 0.0383,-0.56717 0.125,-0.8125 0.0867,-0.24533 0.21233,-0.445 0.375,-0.625 0.16267,-0.18 0.35908,-0.33484 0.59375,-0.4375 0.23466,-0.10267 0.48792,-0.125 0.78125,-0.125 z m -4.125,0.0625 1.28125,0 0,3.46875 0.21875,0.0312 c 0.11965,0.0238 0.20035,0.0213 0.25,0.0312 0.0358,0.008 0.0714,0.0353 0.0937,0.0625 0.0224,0.0272 0.0306,0.0575 0.0312,0.0937 l 0,0.34375 -1.875,0 0,-0.34375 c 6.9e-4,-0.0363 0.009,-0.0665 0.0312,-0.0937 0.0224,-0.0272 0.058,-0.0547 0.0937,-0.0625 0.0497,-0.01 0.13034,-0.007 0.25,-0.0312 l 0.21875,-0.0312 0,-2.90625 -0.21875,-0.0312 c -0.11966,-0.0238 -0.20035,-0.0526 -0.25,-0.0625 -0.0358,-0.008 -0.0714,-0.004 -0.0937,-0.0312 -0.0224,-0.0272 -0.0306,-0.0575 -0.0312,-0.0937 l 0,-0.34375 z m -5.5625,0.4375 c -0.344,0 -0.61517,0.11384 -0.8125,0.3125 -0.19733,0.19867 -0.327,0.46051 -0.375,0.8125 l 2.21875,0 c -2e-5,-0.16533 -0.0172,-0.30017 -0.0625,-0.4375 -0.0453,-0.13733 -0.13076,-0.275 -0.21875,-0.375 -0.088,-0.1 -0.18584,-0.16409 -0.3125,-0.21875 -0.12667,-0.0547 -0.27484,-0.0938 -0.4375,-0.0937 z m 9.71875,0 c -0.344,0 -0.61517,0.11384 -0.8125,0.3125 -0.19733,0.19867 -0.327,0.46051 -0.375,0.8125 l 2.1875,0 c -2e-5,-0.16533 -0.0172,-0.30017 -0.0625,-0.4375 -0.0453,-0.13733 -0.0995,-0.275 -0.1875,-0.375 -0.088,-0.1 -0.18584,-0.16409 -0.3125,-0.21875 -0.12667,-0.0547 -0.27484,-0.0938 -0.4375,-0.0937 z m -25.15625,1 0,2 1.25,0 c 0.63732,0 1.03283,-0.21167 1.1875,-0.625 0.048,-0.12533 0.0625,-0.2855 0.0625,-0.4375 0,-0.29599 -0.10317,-0.5155 -0.3125,-0.6875 -0.20934,-0.172 -0.51351,-0.25 -0.9375,-0.25 l -1.25,0 z m 6.125,0.78135 c -0.328,-10e-6 -0.61441,0.0209 -0.84375,0.0625 -0.22934,0.0416 -0.41853,0.0892 -0.5625,0.15625 -0.14401,0.0671 -0.24719,0.15884 -0.3125,0.25 -0.0654,0.0912 -0.0938,0.16868 -0.0937,0.28125 1e-5,0.1073 0.0278,0.20342 0.0625,0.28125 0.0346,0.0778 0.0663,0.13789 0.125,0.1875 0.0586,0.0496 0.13871,0.10217 0.21875,0.125 0.08,0.0228 0.15665,0.0313 0.25,0.0312 0.1253,10e-6 0.23972,-0.006 0.34375,-0.0312 0.10397,-0.0253 0.2205,-0.0783 0.3125,-0.125 0.092,-0.0466 0.16601,-0.0896 0.25,-0.15625 0.084,-0.0666 0.17001,-0.13341 0.25,-0.21875 l 0,-0.84375 z"
       id="rect4622"
       inkscape:connector-curvature="0" />
    <path
       d="m 677.00106,449.9905 c 5.11771,10.7111 14.74157,19.1783 27.13354,22.3842 12.39197,3.2058 24.91757,0.4662 34.58461,-6.4177 l 13.39942,-51.79479 c -5.11594,-10.70821 -14.74156,-19.17837 -27.13353,-22.3842 -12.39043,-3.20543 -24.90728,-0.49631 -34.57679,6.38739 l -13.40725,51.8251 z"
       id="path3176"
       inkscape:connector-curvature="0"
       style="fill:#000000;fill-opacity:0.39215686;display:inline;filter:url(#filter4654);enable-background:new" />
    <path
       inkscape:connector-curvature="0"
       style="fill:#cc0000;fill-opacity:0.39215686;display:inline;filter:url(#filter4654);enable-background:new"
       d="m 697.40975,427.6234 c -2.4506,9.4727 3.24353,19.1412 12.71624,21.5918 9.47271,2.4506 19.14118,-3.2435 21.59179,-12.7162 2.45061,-9.4727 -3.24352,-19.1412 -12.71624,-21.59181 -9.47272,-2.45061 -19.14118,3.24352 -21.59179,12.71621 z m 4.97458,30.3056 c -0.73519,2.8418 0.97081,5.7385 3.81263,6.4737 2.84181,0.7352 5.73854,-0.9708 6.47373,-3.8126 0.73518,-2.8418 -0.97082,-5.7386 -3.81263,-6.4737 -2.84182,-0.7352 -5.73855,0.9708 -6.47373,3.8126 z m 14.06469,-54.36644 c -0.73518,2.84182 0.97082,5.73855 3.81263,6.47373 2.84181,0.73519 5.73855,-0.97081 6.47373,-3.81263 0.73518,-2.84181 -0.97082,-5.73854 -3.81263,-6.47373 -2.84182,-0.73518 -5.73855,0.97082 -6.47373,3.81263 z"
       id="path3178" />
  </g>
  <g
     inkscape:groupmode="layer"
     id="layer3"
     inkscape:label="stuff"
     style="display:inline"
     transform="translate(390.77735,87.879556)">
    <path
       style="opacity:0.75739643999999995;color:#000000;fill:#000000;fill-opacity:0.29804131;fill-rule:nonzero;stroke:none;stroke-width:0.99921262000000000;marker:none;visibility:visible;display:inline;overflow:visible;enable-background:accumulate"
       d="M 184.625 553.71875 L 184.625 564.34375 L 205.90625 564.34375 L 205.90625 574.96875 L 216.53125 574.96875 L 216.53125 564.34375 L 227.15625 564.34375 L 227.15625 574.96875 L 237.78125 574.96875 L 237.78125 564.34375 L 237.78125 553.71875 L 184.625 553.71875 z "
       transform="translate(-390.77735,-87.879556)"
       id="rect4516" />
    <path
       style="opacity:0.75739643999999995;color:#000000;fill:#000000;fill-opacity:0.29804131;fill-rule:nonzero;stroke:none;stroke-width:0.99921262000000000;marker:none;visibility:visible;display:inline;overflow:visible;enable-background:accumulate"
       d="M 184.96875 577.3125 L 184.96875 587.9375 L 184.96875 598.5625 L 238.125 598.5625 L 238.125 587.9375 L 216.84375 587.9375 L 216.84375 577.3125 L 206.21875 577.3125 L 206.21875 587.9375 L 195.59375 587.9375 L 195.59375 577.3125 L 184.96875 577.3125 z "
       transform="translate(-390.77735,-87.879556)"
       id="rect4514" />
    <g
       id="g4496"
       transform="translate(-120.22324,-1.672404)"
       style="fill:#000000;fill-opacity:0.29804131">
      <path
         style="opacity:0.75739643999999995;color:#000000;fill:#000000;fill-opacity:0.29804131;fill-rule:nonzero;stroke:none;stroke-width:0.99921262000000000;marker:none;visibility:visible;display:inline;overflow:visible;enable-background:accumulate"
         d="m 181.625,261.875 0,17.71875 10.625,0 0,-17.71875 -10.625,0 z"
         transform="translate(-390.77735,-87.879556)"
         id="path4498"
         inkscape:connector-curvature="0" />
      <path
         style="opacity:0.75739643999999995;color:#000000;fill:#000000;fill-opacity:0.29804131;fill-rule:nonzero;stroke:none;stroke-width:0.99921262000000000;marker:none;visibility:visible;display:inline;overflow:visible;enable-background:accumulate"
         d="m 186.9375,231.75 c -21.52606,0 -39,17.44269 -39,38.96875 0,21.52606 17.47394,38.96875 39,38.96875 21.52606,0 38.96875,-17.44269 38.96875,-38.96875 0,-21.52606 -17.44269,-38.96875 -38.96875,-38.96875 z m 0,21.25 c 9.78457,0 17.71875,7.93418 17.71875,17.71875 0,9.78457 -7.93418,17.71875 -17.71875,17.71875 -9.78457,0 -17.71875,-7.93418 -17.71875,-17.71875 0,-9.78457 7.93418,-17.71875 17.71875,-17.71875 z"
         transform="translate(-390.77735,-87.879556)"
         id="path4500"
         inkscape:connector-curvature="0" />
    </g>
    <path
       style="opacity:0.75739643999999995;color:#000000;fill:#000000;fill-opacity:0.29804131;fill-rule:nonzero;stroke:none;stroke-width:0.99921262000000000;marker:none;visibility:visible;display:inline;overflow:visible;enable-background:accumulate"
       d="M 10.8125 552.09375 L 10.8125 562.71875 L 10.8125 594.625 L 10.8125 605.25 L 21.4375 605.25 L 21.4375 594.625 L 32.0625 594.625 L 82.8125 594.625 L 85.21875 594.625 L 106.46875 594.625 L 108.875 594.625 L 159.625 594.625 L 170.25 594.625 L 170.25 605.25 L 180.875 605.25 L 180.875 594.625 L 180.875 562.71875 L 180.875 552.09375 L 170.25 552.09375 L 170.25 562.71875 L 149.3125 562.71875 L 146.21875 568.0625 L 140.90625 577.25 L 131.65625 571.9375 L 136.96875 562.75 L 137 562.71875 L 108.875 562.71875 L 108.875 562.75 L 106.5 562.75 L 106.5 573.375 L 95.84375 573.375 L 95.84375 562.75 L 85.21875 562.75 L 82.8125 562.75 L 82.8125 562.71875 L 21.4375 562.71875 L 21.4375 552.09375 L 10.8125 552.09375 z M 48 571.15625 C 52.15844 571.15625 55.53125 574.4978 55.53125 578.65625 C 55.53125 582.81469 52.15844 586.1875 48 586.1875 C 43.84156 586.1875 40.46875 582.81469 40.46875 578.65625 C 40.46875 574.4978 43.84156 571.15625 48 571.15625 z M 21.4375 573.34375 L 32.0625 573.34375 L 32.0625 584 L 21.4375 584 L 21.4375 573.34375 z M 159.625 573.34375 L 170.25 573.34375 L 170.25 584 L 159.625 584 L 159.625 573.34375 z "
       transform="translate(-390.77735,-87.879556)"
       id="rect4420" />
    <path
       style="opacity:0.75739643999999995;color:#000000;fill:#000000;fill-opacity:0.29804131;fill-rule:nonzero;stroke:none;stroke-width:0.99921262000000000;marker:none;visibility:visible;display:inline;overflow:visible;enable-background:accumulate"
       d="M 108.6875 392.65625 L 108.6875 415.6875 L 106.03125 415.6875 L 106.03125 413.21875 L 103.375 413.21875 L 103.375 415.6875 L 99.8125 415.6875 L 99.8125 422.78125 L 103.375 422.78125 L 103.375 425.25 L 106.03125 425.25 L 106.03125 422.78125 L 108.6875 422.78125 L 108.6875 445.78125 L 119.34375 445.78125 L 119.34375 392.65625 L 108.6875 392.65625 z "
       transform="translate(-390.77735,-87.879556)"
       id="rect4426" />
    <path
       style="opacity:0.75739643999999995;color:#000000;fill:#000000;fill-opacity:0.29804131;fill-rule:nonzero;stroke:none;stroke-width:0.99921262000000000;marker:none;visibility:visible;display:inline;overflow:visible;enable-background:accumulate"
       d="M 19.8125 400.1875 L 19.8125 410.84375 L 14.21875 410.84375 L 14.21875 421.46875 L 19.8125 421.46875 L 19.8125 432.09375 L 30.46875 432.09375 L 30.46875 421.46875 L 41.09375 421.46875 L 41.09375 425 L 53.5 425 L 53.5 419.6875 L 50.84375 419.6875 L 50.84375 422.15625 L 49.96875 422.15625 L 48.1875 422.15625 L 48.1875 419.6875 L 46.375 419.6875 L 46.375 412.59375 L 48.1875 412.59375 L 48.1875 410.125 L 49.96875 410.125 L 50.84375 410.125 L 50.84375 412.59375 L 53.5 412.59375 L 53.5 407.28125 L 41.09375 407.28125 L 41.09375 410.84375 L 30.46875 410.84375 L 30.46875 400.1875 L 19.8125 400.1875 z "
       transform="translate(-390.77735,-87.879556)"
       id="rect4428" />
    <path
       style="opacity:0.75739643999999995;color:#000000;fill:#000000;fill-opacity:0.29804131;fill-rule:nonzero;stroke:none;stroke-width:0.99921262000000000;marker:none;visibility:visible;display:inline;overflow:visible;enable-background:accumulate"
       d="M 136.1875 466.84375 L 136.1875 472.4375 L 125.53125 472.4375 L 125.53125 483.09375 L 136.1875 483.09375 L 136.1875 493.71875 L 132.625 493.71875 L 132.625 506.09375 L 137.9375 506.09375 L 137.9375 503.4375 L 135.46875 503.4375 L 135.46875 502.5625 L 135.46875 500.78125 L 137.9375 500.78125 L 137.9375 499 L 145.03125 499 L 145.03125 500.78125 L 147.5 500.78125 L 147.5 502.5625 L 147.5 503.4375 L 145.03125 503.4375 L 145.03125 506.09375 L 150.34375 506.09375 L 150.34375 493.71875 L 146.8125 493.71875 L 146.8125 483.09375 L 157.4375 483.09375 L 157.4375 472.4375 L 146.8125 472.4375 L 146.8125 466.84375 L 136.1875 466.84375 z "
       transform="translate(-390.77735,-87.879556)"
       id="rect4430" />
    <path
       style="opacity:0.75739643999999995;color:#000000;fill:#000000;fill-opacity:0.29804131;fill-rule:nonzero;stroke:none;stroke-width:0.99921262000000000;marker:none;visibility:visible;display:inline;overflow:visible;enable-background:accumulate"
       d="M 166.09375 445.25 L 166.09375 491.28125 L 155.46875 491.28125 L 155.46875 501.90625 L 155.46875 508.125 L 114.28125 508.125 L 123.53125 472.4375 C 123.15787 469.3159 119.64199 459.129 113.8125 457.5625 C 107.98301 455.996 103.68827 454.91375 98.625 453.59375 C 104.00347 457.65295 108.26228 462.9459 111.125 468.9375 L 97.71875 520.78125 C 88.04924 527.66495 75.51543 530.36175 63.125 527.15625 C 50.73303 523.95045 41.11595 515.48955 36 504.78125 L 33.21875 504.09375 L 34.0625 500.65625 L 36.875 501.34375 L 48.53125 456.40625 L 45.125 455.5625 L 45.96875 452.125 L 49.40625 452.96875 C 54.58877 449.27835 60.60414 446.81205 66.96875 445.78125 L 39.46875 445.78125 C 35.44523 449.05135 31.92289 452.9058 29 457.1875 L 28.96875 457.1875 C 18.93957 457.1875 10.8125 465.31465 10.8125 475.34375 C 10.8125 482.10855 14.51535 488.0013 20 491.125 C 21.25182 506.7793 29.37491 520.4909 41.375 529.375 L 21.4375 529.375 L 21.4375 518.75 L 10.8125 518.75 L 10.8125 529.375 L 10.8125 540 L 10.8125 550.625 L 21.4375 550.625 L 21.4375 540 L 32.0625 540 L 32.0625 550.625 L 53.3125 550.625 L 53.3125 540 L 63.9375 540 L 63.9375 550.625 L 85.1875 550.625 L 85.1875 540 L 95.8125 540 L 95.8125 550.625 L 123.28125 550.625 L 123.28125 540 L 125.5 540 C 126.22623 538.4555 127.22714 535.1379 128.53125 534.3125 C 134.92662 530.2647 138.23215 541.8127 137.34375 542.375 C 136.69782 542.7838 133.9527 536.6166 131.90625 538.5 L 131.90625 540 L 133.90625 540 L 133.90625 550.625 L 155.15625 550.625 L 155.15625 540 L 165.78125 540 L 165.78125 550.625 L 187.03125 550.625 L 187.03125 540 L 197.65625 540 L 197.65625 550.625 L 218.90625 550.625 L 218.90625 540 L 229.53125 540 L 229.53125 550.625 L 240.15625 550.625 L 240.15625 540 L 240.15625 529.375 L 240.15625 524.5 C 236.92587 525.94 231.77909 525.27055 230.75 527.65625 C 229.40501 530.77435 235.88522 531.56585 235.46875 532.53125 C 235.05228 533.49675 223.12719 532.04355 226.125 525.09375 C 228.14774 520.40455 236.03607 518.0909 240.15625 518.9375 L 240.15625 518.75 L 240.15625 508.125 L 187.34375 508.125 L 187.34375 501.90625 L 187.34375 491.28125 L 176.71875 491.28125 L 176.71875 445.25 L 166.09375 445.25 z M 28.96875 467.8125 C 33.12719 467.8125 36.5 471.18535 36.5 475.34375 C 36.5 479.50225 33.12719 482.875 28.96875 482.875 C 24.8103 482.875 21.4375 479.50225 21.4375 475.34375 C 21.4375 471.18535 24.8103 467.8125 28.96875 467.8125 z M 147.96875 518.625 C 148.60066 518.625 149.14477 518.6861 149.59375 518.84375 C 150.04273 519.00175 150.40836 519.2228 150.71875 519.5 C 151.02917 519.7771 151.26921 520.1203 151.46875 520.5 C 151.66831 520.8797 151.86144 521.27535 152 521.71875 L 151.34375 522 C 151.22735 522.05 151.1164 522.0625 151 522.0625 C 150.88914 522.0625 150.80467 522.047 150.71875 522 C 150.63285 521.953 150.5756 521.88105 150.53125 521.78125 C 150.52015 521.75925 150.5109 521.74275 150.5 521.71875 C 150.4889 521.69375 150.4485 521.653 150.4375 521.625 C 150.3599 521.4643 150.26711 521.29605 150.15625 521.09375 C 150.04541 520.89145 149.90723 520.6774 149.71875 520.5 C 149.5303 520.3227 149.31119 520.1845 149.03125 520.0625 C 148.75134 519.9406 148.38449 519.875 147.96875 519.875 C 147.55304 519.875 147.18818 519.9579 146.875 520.09375 C 146.56182 520.22955 146.30162 520.4089 146.09375 520.625 C 145.88589 520.8412 145.73032 521.07765 145.625 521.34375 C 145.51967 521.60985 145.46874 521.8645 145.46875 522.125 C 145.46883 522.4465 145.50795 522.734 145.59375 523 C 145.67965 523.2661 145.83803 523.4935 146.0625 523.6875 C 146.28701 523.8815 146.60369 524.04535 147 524.15625 C 147.39634 524.26705 147.91044 524.3125 148.53125 524.3125 L 148.53125 525.40625 C 148.02684 525.41625 147.57628 525.45735 147.21875 525.5625 C 146.86124 525.66789 146.57103 525.8171 146.34375 526 C 146.11651 526.183 145.94631 526.40125 145.84375 526.65625 C 145.74121 526.91125 145.71877 527.1896 145.71875 527.5 C 145.71877 527.8437 145.76695 528.15125 145.875 528.40625 C 145.9831 528.66125 146.12405 528.86495 146.3125 529.03125 C 146.50098 529.19755 146.71101 529.32305 146.96875 529.40625 C 147.2265 529.48925 147.51319 529.53125 147.8125 529.53125 C 148.11182 529.53115 148.40129 529.49525 148.65625 529.40625 C 148.91124 529.31725 149.11574 529.18915 149.3125 529.03125 C 149.50928 528.87325 149.67948 528.68765 149.8125 528.46875 C 149.94553 528.24975 150.05849 528.005 150.125 527.75 C 150.1693 527.5893 150.2238 527.47825 150.3125 527.40625 C 150.4012 527.33425 150.51769 527.28115 150.65625 527.28125 C 150.68395 527.28145 150.7197 527.28125 150.75 527.28125 C 150.7805 527.28125 150.80505 527.3076 150.84375 527.3125 L 151.625 527.4375 C 151.5474 527.9807 151.40922 528.4565 151.1875 528.875 C 150.96577 529.2935 150.68464 529.6548 150.34375 529.9375 C 150.00286 530.2202 149.59692 530.4156 149.15625 530.5625 C 148.71559 530.7094 148.22871 530.8125 147.71875 530.8125 C 147.21433 530.8125 146.77058 530.7376 146.34375 530.59375 C 145.91696 530.44965 145.55764 530.23485 145.25 529.96875 C 144.94236 529.70275 144.70308 529.3769 144.53125 529 C 144.35942 528.6231 144.25002 528.21 144.25 527.75 C 144.25008 527.3731 144.3093 527.0465 144.40625 526.75 C 144.50325 526.4534 144.63237 526.19325 144.8125 525.96875 C 144.99266 525.74425 145.21379 525.5302 145.46875 525.375 C 145.72374 525.2198 146.02782 525.0942 146.34375 525 C 145.56775 524.7949 144.98455 524.45105 144.59375 523.96875 C 144.20299 523.48655 144.00002 522.88245 144 522.15625 C 144.00002 521.60755 144.10465 521.1254 144.3125 520.6875 C 144.52039 520.2496 144.79597 519.8701 145.15625 519.5625 C 145.51656 519.2549 145.9268 519.0385 146.40625 518.875 C 146.88572 518.7115 147.42001 518.625 147.96875 518.625 z M 154.0625 518.625 C 154.20663 518.625 154.34127 518.66585 154.46875 518.71875 C 154.59625 518.77175 154.6898 518.8433 154.78125 518.9375 C 154.87275 519.0315 154.94735 519.1253 155 519.25 C 155.0527 519.3748 155.09375 519.50655 155.09375 519.65625 C 155.09376 519.80035 155.0525 519.9351 155 520.0625 C 154.9473 520.19 154.87272 520.31205 154.78125 520.40625 C 154.68975 520.50025 154.59625 520.5696 154.46875 520.625 C 154.34127 520.68 154.20663 520.71875 154.0625 520.71875 C 153.9184 520.71875 153.78375 520.681 153.65625 520.625 C 153.52877 520.57 153.40674 520.50045 153.3125 520.40625 C 153.2183 520.31225 153.14642 520.19 153.09375 520.0625 C 153.04105 519.9351 153.03125 519.80035 153.03125 519.65625 C 153.03125 519.50655 153.04125 519.3748 153.09375 519.25 C 153.14645 519.1253 153.21829 519.03179 153.3125 518.9375 C 153.4067 518.8435 153.52877 518.77145 153.65625 518.71875 C 153.78375 518.66575 153.9184 518.625 154.0625 518.625 z M 194.375 518.625 C 194.99027 518.625 195.53517 518.7352 196.03125 518.9375 C 196.52736 519.1398 196.9633 519.4356 197.3125 519.8125 C 197.66172 520.1894 197.93655 520.62415 198.125 521.15625 C 198.31347 521.68845 198.40625 522.30365 198.40625 522.96875 C 198.40625 523.62845 198.31345 524.2151 198.125 524.75 C 197.93655 525.2849 197.66172 525.7481 197.3125 526.125 C 196.9633 526.5019 196.52736 526.7949 196.03125 527 C 195.53517 527.2051 194.99027 527.3125 194.375 527.3125 C 193.75973 527.3125 193.21486 527.2051 192.71875 527 C 192.22267 526.7949 191.78395 526.5019 191.4375 526.125 C 191.09108 525.7481 190.84195 525.2849 190.65625 524.75 C 190.47055 524.2151 190.37499 523.62835 190.375 522.96875 C 190.37502 522.30365 190.4706 521.68845 190.65625 521.15625 C 190.84195 520.62415 191.09108 520.1894 191.4375 519.8125 C 191.78395 519.4356 192.22267 519.1398 192.71875 518.9375 C 193.21486 518.7352 193.75975 518.625 194.375 518.625 z M 203.9375 518.625 C 204.50844 518.625 205.07425 518.6891 205.65625 518.84375 C 205.60635 519.54775 205.53805 519.9307 205.46875 520 C 205.39945 520.069 205.32685 520.125 205.21875 520.125 C 205.11067 520.125 204.97879 520.08125 204.8125 520.03125 C 204.64621 519.98125 204.40215 519.96875 204.125 519.96875 C 202.58961 519.96875 201.84375 520.93145 201.84375 522.84375 L 201.84375 529.4375 C 202.48121 529.54289 202.83774 529.63405 202.9375 529.65625 C 203.10379 529.68925 203.1875 529.7657 203.1875 529.9375 L 203.1875 530.65625 L 199.03125 530.65625 L 199.03125 529.9375 C 199.03127 529.7656 199.11495 529.68955 199.28125 529.65625 L 200.21875 529.4375 L 200.21875 522.875 C 200.21877 520.8296 200.94493 519.49935 202.375 518.90625 C 202.84062 518.71225 203.36658 518.625 203.9375 518.625 z M 159.75 518.75 L 161.71875 518.75 C 161.96459 518.8122 162.20571 518.89207 162.4375 519 C 162.96132 519.2439 163.42449 519.59495 163.8125 520.09375 C 164.20051 520.59265 164.49703 521.2378 164.71875 522 C 164.94047 522.7622 165.0625 523.67675 165.0625 524.71875 C 165.0625 525.76085 164.94047 526.64135 164.71875 527.40625 C 164.49703 528.17125 164.20051 528.8109 163.8125 529.3125 C 163.42449 529.8141 162.96132 530.1936 162.4375 530.4375 C 161.9137 530.6814 161.35974 530.8126 160.75 530.8125 C 160.14583 530.8125 159.56061 530.6814 159.03125 530.4375 C 158.50191 530.1936 158.04426 529.8141 157.65625 529.3125 C 157.26824 528.8108 156.97449 528.17125 156.75 527.40625 C 156.52553 526.64135 156.40627 525.76085 156.40625 524.71875 C 156.40625 523.67675 156.52553 522.7621 156.75 522 C 156.97451 521.2378 157.26826 520.59265 157.65625 520.09375 C 158.04428 519.59495 158.50191 519.2439 159.03125 519 C 159.26552 518.89207 159.49707 518.81217 159.75 518.75 z M 169.625 518.75 L 172.3125 518.75 L 172.3125 524.125 C 172.31252 525.4664 172.91311 526.125 174.09375 526.125 C 174.91413 526.125 175.6766 525.719 176.375 524.9375 L 176.375 519.96875 C 176.3362 519.95875 176.03061 519.90275 175.4375 519.78125 C 175.26566 519.74825 175.15625 519.64065 175.15625 519.46875 L 175.15625 518.75 L 179.0625 518.75 L 179.0625 519.46875 C 179.0625 519.64065 178.9788 519.74805 178.8125 519.78125 L 177.84375 519.96875 L 177.84375 525.96875 C 178.37589 526.07415 178.71274 526.13415 178.8125 526.15625 C 178.97879 526.18925 179.0625 526.29695 179.0625 526.46875 L 179.0625 527.1875 L 177.84375 527.1875 L 176.96875 527.1875 C 176.75813 527.1875 176.61795 527.0801 176.5625 526.875 L 176.46875 525.9375 C 175.6484 526.841 174.69834 527.3125 173.65625 527.3125 C 172.74721 527.3125 172.05584 527.025 171.5625 526.4375 C 171.08581 525.8721 170.84375 525.1006 170.84375 524.125 L 170.84375 519.96875 C 170.3061 519.86345 170.0005 519.80345 169.90625 519.78125 C 169.73444 519.74825 169.62502 519.64065 169.625 519.46875 L 169.625 518.75 z M 180.03125 518.75 L 182.6875 518.75 L 182.6875 524.125 C 182.68752 525.4664 183.28811 526.125 184.46875 526.125 C 185.28913 526.125 186.0516 525.719 186.75 524.9375 L 186.75 519.96875 L 186.53125 519.9375 C 186.09891 519.8545 185.87349 519.79785 185.8125 519.78125 C 185.64623 519.74825 185.5625 519.64055 185.5625 519.46875 L 185.5625 518.75 L 187.34375 518.75 L 189.4375 518.75 L 189.4375 519.46875 C 189.4375 519.64055 189.3538 519.74795 189.1875 519.78125 L 188.21875 519.96875 L 188.21875 529.78125 C 188.86174 529.88655 189.24399 529.94655 189.34375 529.96875 C 189.51004 530.00175 189.59375 530.10945 189.59375 530.28125 L 189.59375 531 L 186.75 531 L 186.75 526.03125 C 185.95736 526.87385 185.04563 527.3125 184.03125 527.3125 C 183.12221 527.3125 182.4253 527.0195 181.9375 526.4375 C 181.45528 525.8666 181.21877 525.1005 181.21875 524.125 L 181.21875 519.96875 C 180.68664 519.86345 180.38103 519.80345 180.28125 519.78125 C 180.11498 519.74825 180.03127 519.64065 180.03125 519.46875 L 180.03125 518.75 z M 194.375 519.78125 C 193.54357 519.78125 192.91019 520.0679 192.5 520.625 C 192.08983 521.1821 191.90627 521.97105 191.90625 522.96875 C 191.90628 523.97205 192.08983 524.7527 192.5 525.3125 C 192.9102 525.8723 193.54357 526.15625 194.375 526.15625 C 194.79628 526.15625 195.15836 526.08125 195.46875 525.9375 C 195.77917 525.7934 196.04215 525.5841 196.25 525.3125 C 196.45788 525.0409 196.61622 524.7088 196.71875 524.3125 C 196.82131 523.9162 196.875 523.46765 196.875 522.96875 C 196.875 522.46995 196.8213 522.0185 196.71875 521.625 C 196.61621 521.2314 196.45787 520.8938 196.25 520.625 C 196.04215 520.3562 195.77917 520.1441 195.46875 520 C 195.15836 519.8559 194.79628 519.78125 194.375 519.78125 z M 160.75 519.875 C 160.38417 519.875 160.02562 519.962 159.6875 520.125 C 159.34938 520.2885 159.039 520.5606 158.78125 520.9375 C 158.52351 521.3144 158.33995 521.79105 158.1875 522.40625 C 158.03508 523.02155 157.93752 523.80975 157.9375 524.71875 C 157.93755 525.62785 158.0351 526.382 158.1875 527 C 158.33996 527.618 158.52353 528.1231 158.78125 528.5 C 159.039 528.8769 159.34938 529.11775 159.6875 529.28125 C 160.02564 529.44485 160.38418 529.53125 160.75 529.53125 C 161.11585 529.53115 161.4744 529.44425 161.8125 529.28125 C 162.15064 529.11775 162.43253 528.8769 162.6875 528.5 C 162.94249 528.1231 163.16008 527.618 163.3125 527 C 163.46495 526.3819 163.53125 525.62785 163.53125 524.71875 C 163.53125 523.80975 163.46495 523.02155 163.3125 522.40625 C 163.16008 521.79105 162.94249 521.3144 162.6875 520.9375 C 162.43253 520.5606 162.15064 520.2885 161.8125 520.125 C 161.47438 519.9615 161.11585 519.875 160.75 519.875 z "
       transform="translate(-390.77735,-87.879556)"
       id="rect4432" />
    <path
       style="opacity:0.75739643999999995;color:#000000;fill:#000000;fill-opacity:0.29804131;fill-rule:nonzero;stroke:none;stroke-width:0.99921262000000000;marker:none;visibility:visible;display:inline;overflow:visible;enable-background:accumulate"
       d="M 188.03125 486.0625 L 188.03125 496.6875 L 188.03125 507.3125 L 241.1875 507.3125 L 241.1875 496.6875 L 219.90625 496.6875 L 219.90625 486.0625 L 209.28125 486.0625 L 209.28125 496.6875 L 198.65625 496.6875 L 198.65625 486.0625 L 188.03125 486.0625 z "
       transform="translate(-390.77735,-87.879556)"
       id="rect4434" />
    <path
       style="opacity:0.75739643999999995;color:#000000;fill:#000000;fill-opacity:0.29804131;fill-rule:nonzero;stroke:none;stroke-width:0.99921262000000000;marker:none;visibility:visible;display:inline;overflow:visible;enable-background:accumulate"
       d="M 202.9375 443.59375 L 202.9375 447.15625 L 200.46875 447.15625 L 200.46875 449.84375 L 202.9375 449.84375 L 202.9375 452.46875 L 179.90625 452.46875 L 179.90625 463.125 L 233.03125 463.125 L 233.03125 452.46875 L 210.03125 452.46875 L 210.03125 449.84375 L 212.5 449.84375 L 212.5 447.15625 L 210.03125 447.15625 L 210.03125 443.59375 L 202.9375 443.59375 z "
       transform="translate(-390.77735,-87.879556)"
       id="rect4436" />
    <path
       style="opacity:0.75739643999999995;color:#000000;fill:#000000;fill-opacity:0.29804131;fill-rule:nonzero;stroke:none;stroke-width:0.99921262000000000;marker:none;visibility:visible;display:inline;overflow:visible;enable-background:accumulate"
       d="M 179.65625 463.9375 L 179.65625 474.5625 L 200.9375 474.5625 L 200.9375 485.1875 L 211.5625 485.1875 L 211.5625 474.5625 L 222.1875 474.5625 L 222.1875 485.1875 L 232.8125 485.1875 L 232.8125 474.5625 L 232.8125 463.9375 L 179.65625 463.9375 z "
       transform="translate(-390.77735,-87.879556)"
       id="rect4438" />
    <path
       style="opacity:0.75739643999999995;color:#000000;fill:#000000;fill-opacity:0.29804131;fill-rule:nonzero;stroke:none;stroke-width:0.99921262000000000;marker:none;visibility:visible;display:inline;overflow:visible;enable-background:accumulate"
       d="M 242.09375 321.78125 L 242.09375 439.59375 L 235.03125 439.59375 L 235 450.21875 C 235.0197 450.21175 235.0428 450.22475 235.0625 450.21875 C 242.97785 450.21875 243.37585 476.67564 235.0625 476.8125 C 235.0409 476.81286 235.0217 476.8125 235 476.8125 L 235.03125 487.4375 L 242.09375 487.4375 L 242.09375 605.25 L 252.75 605.25 L 252.75 487.4375 L 259.8125 487.4375 L 259.84375 476.8125 C 259.82205 476.8125 259.80285 476.81286 259.78125 476.8125 C 251.4679 476.67566 251.86591 450.21875 259.78125 450.21875 C 259.80095 450.22475 259.82405 450.21175 259.84375 450.21875 L 259.8125 439.59375 L 252.75 439.59375 L 252.75 321.78125 L 242.09375 321.78125 z "
       transform="translate(-390.77735,-87.879556)"
       id="rect4440" />
    <path
       style="opacity:0.75739644;color:#000000;fill:#000000;fill-opacity:0.29804131;fill-rule:nonzero;stroke:none;stroke-width:0.99921262;marker:none;visibility:visible;display:inline;overflow:visible;enable-background:accumulate"
       d="m -221.40235,289.46419 0,53.15625 10.625,0 10.625,0 0,-10.625 -10.625,0 0,-10.625 10.625,0 0,-10.625 -10.625,0 0,-10.65625 10.625,0 0,-10.625 -10.625,0 -10.625,0 z"
       id="rect4442"
       inkscape:connector-curvature="0" />
    <path
       style="opacity:0.75739643999999995;color:#000000;fill:#000000;fill-opacity:0.29804131;fill-rule:nonzero;stroke:none;stroke-width:0.99921262000000000;marker:none;visibility:visible;display:inline;overflow:visible;enable-background:accumulate"
       d="M 146.125 377.34375 L 146.125 430.5 L 156.75 430.5 L 167.375 430.5 L 167.375 419.875 L 156.75 419.875 L 156.75 409.25 L 167.375 409.25 L 167.375 398.625 L 156.75 398.625 L 156.75 387.96875 L 167.375 387.96875 L 167.375 377.34375 L 156.75 377.34375 L 146.125 377.34375 z "
       transform="translate(-390.77735,-87.879556)"
       id="rect4444" />
    <path
       style="opacity:0.75739643999999995;color:#000000;fill:#000000;fill-opacity:0.29804131;fill-rule:nonzero;stroke:none;stroke-width:0.99921262000000000;marker:none;visibility:visible;display:inline;overflow:visible;enable-background:accumulate"
       d="M 3.53125 338.40625 L 3.53125 349.03125 L 3.53125 359.65625 L 3.53125 364.53125 C 6.76164 363.09125 11.90842 363.7607 12.9375 361.375 C 14.2825 358.2569 7.80229 357.4654 8.21875 356.5 C 8.63522 355.5345 20.56032 356.9877 17.5625 363.9375 C 15.79261 368.04055 9.54774 370.34146 5.25 370.28125 C 4.63604 370.27225 4.04627 370.19955 3.53125 370.09375 L 3.53125 370.28125 L 3.53125 380.90625 L 3.53125 387.09375 L 3.53125 387.125 L 3.53125 397.71875 L 3.53125 433.15625 L 3.53125 443.78125 L 13.8125 443.78125 L 98.84375 443.8125 L 98.84375 433.1875 L 98.84375 397.75 L 98.84375 387.125 L 98.84375 380.90625 L 129.40625 380.90625 L 120.15625 416.59375 C 120.52963 419.71535 124.04551 429.90225 129.875 431.46875 C 135.70449 433.03525 139.99924 434.1175 145.0625 435.4375 C 139.68403 431.3783 135.42522 426.08535 132.5625 420.09375 L 145.96875 368.25 C 155.63826 361.3663 168.17207 358.6695 180.5625 361.875 C 192.95447 365.0808 202.57156 373.5417 207.6875 384.25 L 210.46875 384.9375 L 209.625 388.375 L 206.8125 387.6875 L 195.15625 432.625 L 198.5625 433.46875 L 197.71875 436.90625 L 194.28125 436.0625 C 189.09873 439.7529 183.08336 442.2192 176.71875 443.25 L 204.21875 443.25 C 208.24227 439.9799 211.76462 436.12545 214.6875 431.84375 L 214.71875 431.84375 C 224.74794 431.84375 232.875 423.7166 232.875 413.6875 C 232.875 406.9227 229.17215 401.02995 223.6875 397.90625 C 222.43568 382.25195 214.3126 368.54035 202.3125 359.65625 L 222.25 359.65625 L 222.25 370.28125 L 232.875 370.28125 L 232.875 359.65625 L 232.875 349.03125 L 232.875 338.40625 L 222.25 338.40625 L 222.25 349.03125 L 211.625 349.03125 L 211.625 338.40625 L 190.375 338.40625 L 190.375 349.03125 L 179.75 349.03125 L 179.75 338.40625 L 158.5 338.40625 L 158.5 349.03125 L 147.875 349.03125 L 147.875 338.40625 L 120.40625 338.40625 L 120.40625 349.03125 L 118.1875 349.03125 C 117.46127 350.57575 116.46036 353.89335 115.15625 354.71875 C 108.76088 358.76655 105.45535 347.21855 106.34375 346.65625 C 106.98968 346.24745 109.7348 352.41465 111.78125 350.53125 L 111.78125 349.03125 L 109.78125 349.03125 L 109.78125 338.40625 L 88.53125 338.40625 L 88.53125 349.03125 L 77.90625 349.03125 L 77.90625 338.40625 L 56.65625 338.40625 L 56.65625 349.03125 L 46.03125 349.03125 L 46.03125 338.40625 L 24.78125 338.40625 L 24.78125 349.03125 L 14.15625 349.03125 L 14.15625 338.40625 L 3.53125 338.40625 z M 54.09375 358.03125 L 56.9375 358.03125 L 56.9375 363 C 57.73014 362.1574 58.64188 361.71875 59.65625 361.71875 C 60.56529 361.71875 61.26221 362.01175 61.75 362.59375 C 62.23223 363.16465 62.46874 363.93075 62.46875 364.90625 L 62.46875 369.0625 C 63.00087 369.1678 63.30647 369.2278 63.40625 369.25 C 63.57253 369.283 63.65624 369.3906 63.65625 369.5625 L 63.65625 370.28125 L 61 370.28125 L 61 364.90625 C 60.99999 363.56485 60.3994 362.90625 59.21875 362.90625 C 58.39838 362.90625 57.63591 363.31225 56.9375 364.09375 L 56.9375 369.0625 L 57.15625 369.09375 C 57.5886 369.17675 57.81402 369.2334 57.875 369.25 C 58.04128 369.283 58.125 369.3907 58.125 369.5625 L 58.125 370.28125 L 54.25 370.28125 L 54.25 369.5625 C 54.25 369.3907 54.3337 369.2833 54.5 369.25 L 55.46875 369.0625 L 55.46875 359.25 C 54.82577 359.1447 54.44352 359.0847 54.34375 359.0625 C 54.17746 359.0295 54.09375 358.9218 54.09375 358.75 L 54.09375 358.03125 z M 82.9375 358.21875 C 83.54168 358.21875 84.12689 358.34985 84.65625 358.59375 C 85.1856 358.83765 85.64324 359.21715 86.03125 359.71875 C 86.41926 360.22045 86.71302 360.86 86.9375 361.625 C 87.16198 362.3899 87.28124 363.2704 87.28125 364.3125 C 87.28125 365.3545 87.16197 366.26915 86.9375 367.03125 C 86.713 367.79345 86.41925 368.4386 86.03125 368.9375 C 85.64323 369.4363 85.1856 369.78735 84.65625 370.03125 C 84.42199 370.13918 84.19044 370.21908 83.9375 370.28125 L 81.96875 370.28125 C 81.72292 370.21905 81.4818 370.13918 81.25 370.03125 C 80.72619 369.78735 80.26301 369.4363 79.875 368.9375 C 79.48699 368.4386 79.19047 367.79345 78.96875 367.03125 C 78.74703 366.26905 78.625 365.3545 78.625 364.3125 C 78.625 363.2704 78.74703 362.3899 78.96875 361.625 C 79.19047 360.86 79.48699 360.22035 79.875 359.71875 C 80.26301 359.21715 80.72619 358.83765 81.25 358.59375 C 81.77381 358.34985 82.32777 358.21865 82.9375 358.21875 z M 95.96875 358.21875 C 96.47318 358.21875 96.91692 358.29365 97.34375 358.4375 C 97.77055 358.5816 98.12986 358.7964 98.4375 359.0625 C 98.74514 359.3285 98.98442 359.65435 99.15625 360.03125 C 99.32808 360.40815 99.43749 360.82125 99.4375 361.28125 C 99.43743 361.65815 99.3782 361.98475 99.28125 362.28125 C 99.18425 362.57785 99.05514 362.838 98.875 363.0625 C 98.69484 363.287 98.47372 363.50105 98.21875 363.65625 C 97.96377 363.81145 97.65969 363.93705 97.34375 364.03125 C 98.11976 364.23635 98.70296 364.5802 99.09375 365.0625 C 99.48452 365.5447 99.68749 366.1488 99.6875 366.875 C 99.68749 367.4237 99.58285 367.90585 99.375 368.34375 C 99.16712 368.78165 98.89153 369.16115 98.53125 369.46875 C 98.17095 369.77635 97.76071 369.99275 97.28125 370.15625 C 97.12143 370.21075 96.95176 370.24425 96.78125 370.28125 L 94.46875 370.28125 C 94.34473 370.25335 94.206 370.2269 94.09375 370.1875 C 93.64477 370.0295 93.27915 369.80845 92.96875 369.53125 C 92.65834 369.25415 92.4183 368.91095 92.21875 368.53125 C 92.0192 368.15155 91.82607 367.7559 91.6875 367.3125 L 92.34375 367.03125 C 92.46015 366.98125 92.5711 366.96875 92.6875 366.96875 C 92.79836 366.96875 92.88283 366.98425 92.96875 367.03125 C 93.05465 367.07825 93.11191 367.1502 93.15625 367.25 C 93.16735 367.272 93.1766 367.2885 93.1875 367.3125 C 93.1986 367.3375 93.239 367.37825 93.25 367.40625 C 93.3276 367.56695 93.42039 367.7352 93.53125 367.9375 C 93.6421 368.1398 93.78028 368.35385 93.96875 368.53125 C 94.15721 368.70855 94.37632 368.84675 94.65625 368.96875 C 94.93617 369.09065 95.30302 369.15625 95.71875 369.15625 C 96.13447 369.15625 96.49932 369.07335 96.8125 368.9375 C 97.12568 368.8017 97.38589 368.62235 97.59375 368.40625 C 97.80162 368.19005 97.95719 367.9536 98.0625 367.6875 C 98.16784 367.4214 98.21877 367.16675 98.21875 366.90625 C 98.21868 366.58475 98.17955 366.29725 98.09375 366.03125 C 98.00785 365.76515 97.84947 365.53775 97.625 365.34375 C 97.4005 365.14975 97.08382 364.9859 96.6875 364.875 C 96.29117 364.7642 95.77706 364.71875 95.15625 364.71875 L 95.15625 363.625 C 95.66066 363.615 96.11122 363.5739 96.46875 363.46875 C 96.82627 363.36335 97.11648 363.21415 97.34375 363.03125 C 97.571 362.84825 97.7412 362.63 97.84375 362.375 C 97.94629 362.12 97.96874 361.84165 97.96875 361.53125 C 97.96874 361.18755 97.92055 360.88 97.8125 360.625 C 97.70441 360.37 97.56346 360.1663 97.375 360 C 97.18653 359.8337 96.97649 359.7082 96.71875 359.625 C 96.461 359.542 96.17432 359.5 95.875 359.5 C 95.57568 359.5001 95.28622 359.536 95.03125 359.625 C 94.77627 359.714 94.57177 359.8421 94.375 360 C 94.17822 360.158 94.00803 360.3436 93.875 360.5625 C 93.74197 360.7815 93.62901 361.02625 93.5625 361.28125 C 93.5182 361.44195 93.4637 361.553 93.375 361.625 C 93.2863 361.697 93.16982 361.7501 93.03125 361.75 C 93.00355 361.7498 92.9678 361.75 92.9375 361.75 C 92.907 361.75 92.88245 361.72365 92.84375 361.71875 L 92.0625 361.59375 C 92.1401 361.05055 92.27828 360.57475 92.5 360.15625 C 92.72172 359.73775 93.00286 359.37645 93.34375 359.09375 C 93.68464 358.81105 94.09058 358.61565 94.53125 358.46875 C 94.97191 358.32185 95.45879 358.21875 95.96875 358.21875 z M 40.5 358.375 L 44.65625 358.375 L 44.65625 359.09375 C 44.65624 359.26565 44.57255 359.3417 44.40625 359.375 L 43.46875 359.59375 L 43.46875 366.15625 C 43.46874 368.20165 42.74258 369.5319 41.3125 370.125 C 41.14749 370.1938 40.96074 370.23845 40.78125 370.28125 L 38.46875 370.28125 C 38.32494 370.25345 38.17675 370.2261 38.03125 370.1875 C 38.08115 369.4835 38.14946 369.10055 38.21875 369.03125 C 38.28805 368.96225 38.36066 368.90625 38.46875 368.90625 C 38.57684 368.90625 38.70871 368.95 38.875 369 C 39.04129 369.05 39.28535 369.0625 39.5625 369.0625 C 41.0979 369.0625 41.84375 368.0998 41.84375 366.1875 L 41.84375 359.59375 C 41.2063 359.48835 40.84977 359.3972 40.75 359.375 C 40.58371 359.342 40.5 359.26555 40.5 359.09375 L 40.5 358.375 z M 82.9375 359.5 C 82.57166 359.5001 82.21311 359.587 81.875 359.75 C 81.53687 359.9135 81.25498 360.15435 81 360.53125 C 80.74502 360.90815 80.52743 361.41325 80.375 362.03125 C 80.22256 362.64935 80.15625 363.4034 80.15625 364.3125 C 80.15625 365.2215 80.22255 366.0097 80.375 366.625 C 80.52743 367.2402 80.74502 367.71685 81 368.09375 C 81.25498 368.47065 81.53687 368.74275 81.875 368.90625 C 82.21312 369.06975 82.57166 369.15625 82.9375 369.15625 C 83.30334 369.15625 83.66188 369.06925 84 368.90625 C 84.33812 368.74275 84.6485 368.47065 84.90625 368.09375 C 85.16399 367.71685 85.34756 367.2402 85.5 366.625 C 85.65242 366.0097 85.74999 365.2215 85.75 364.3125 C 85.74995 363.4034 85.6524 362.64925 85.5 362.03125 C 85.34755 361.41325 85.16398 360.90815 84.90625 360.53125 C 84.6485 360.15435 84.33812 359.9135 84 359.75 C 83.66187 359.5864 83.30333 359.5 82.9375 359.5 z M 49.3125 361.71875 C 49.92777 361.71875 50.47265 361.82615 50.96875 362.03125 C 51.46484 362.23635 51.90356 362.52935 52.25 362.90625 C 52.59643 363.28315 52.84555 363.74635 53.03125 364.28125 C 53.21696 364.81615 53.31252 365.4029 53.3125 366.0625 C 53.31249 366.7276 53.2169 367.3428 53.03125 367.875 C 52.84555 368.4071 52.59643 368.84185 52.25 369.21875 C 51.90355 369.59565 51.46484 369.89145 50.96875 370.09375 C 50.78046 370.17055 50.57852 370.23199 50.375 370.28125 L 48.25 370.28125 C 48.04648 370.23195 47.84453 370.17053 47.65625 370.09375 C 47.16015 369.89145 46.7242 369.59565 46.375 369.21875 C 46.02579 368.84185 45.75096 368.4071 45.5625 367.875 C 45.37404 367.3428 45.28125 366.7276 45.28125 366.0625 C 45.28125 365.4028 45.37405 364.81615 45.5625 364.28125 C 45.75096 363.74635 46.02579 363.28315 46.375 362.90625 C 46.7242 362.52935 47.16015 362.23635 47.65625 362.03125 C 48.15234 361.82615 48.69723 361.71875 49.3125 361.71875 z M 70.03125 361.71875 C 70.94029 361.71875 71.63167 362.00625 72.125 362.59375 C 72.6017 363.15915 72.84376 363.93065 72.84375 364.90625 L 72.84375 369.0625 C 73.38141 369.1678 73.68701 369.2278 73.78125 369.25 C 73.95307 369.283 74.06249 369.3906 74.0625 369.5625 L 74.0625 370.28125 L 71.375 370.28125 L 71.375 364.90625 C 71.37499 363.56485 70.7744 362.90625 69.59375 362.90625 C 68.77338 362.90625 68.01091 363.31225 67.3125 364.09375 L 67.3125 369.0625 C 67.3513 369.0725 67.6569 369.1285 68.25 369.25 C 68.42185 369.283 68.53126 369.3906 68.53125 369.5625 L 68.53125 370.28125 L 64.625 370.28125 L 64.625 369.5625 C 64.625 369.3906 64.7087 369.2832 64.875 369.25 L 65.84375 369.0625 L 65.84375 363.0625 C 65.31162 362.9571 64.97477 362.8971 64.875 362.875 C 64.70871 362.842 64.625 362.7343 64.625 362.5625 L 64.625 361.84375 L 65.84375 361.84375 L 66.71875 361.84375 C 66.92938 361.84375 67.06956 361.95115 67.125 362.15625 L 67.21875 363.09375 C 68.03911 362.19025 68.98917 361.71875 70.03125 361.71875 z M 49.3125 362.875 C 48.89123 362.875 48.52915 362.95 48.21875 363.09375 C 47.90834 363.23785 47.64536 363.44715 47.4375 363.71875 C 47.22963 363.99035 47.07129 364.32245 46.96875 364.71875 C 46.8662 365.11505 46.8125 365.5636 46.8125 366.0625 C 46.81251 366.5613 46.8662 367.01275 46.96875 367.40625 C 47.0713 367.79985 47.22964 368.13745 47.4375 368.40625 C 47.64536 368.67505 47.90834 368.88715 48.21875 369.03125 C 48.52915 369.17535 48.89123 369.25 49.3125 369.25 C 50.14394 369.25 50.77732 368.96335 51.1875 368.40625 C 51.59767 367.84915 51.78124 367.0602 51.78125 366.0625 C 51.78123 365.0592 51.59767 364.27855 51.1875 363.71875 C 50.77731 363.15895 50.14394 362.875 49.3125 362.875 z M 89.625 368.3125 C 89.76911 368.3125 89.90376 368.35025 90.03125 368.40625 C 90.15874 368.46125 90.28077 368.5308 90.375 368.625 C 90.4692 368.719 90.54109 368.84125 90.59375 368.96875 C 90.64645 369.09615 90.65625 369.2309 90.65625 369.375 C 90.65625 369.5247 90.64625 369.65645 90.59375 369.78125 C 90.54105 369.90595 90.46922 369.99945 90.375 370.09375 C 90.2969 370.17175 90.19741 370.23201 90.09375 370.28125 L 89.1875 370.28125 C 89.08105 370.23055 88.98727 370.1772 88.90625 370.09375 C 88.81475 369.99975 88.74016 369.90595 88.6875 369.78125 C 88.6348 369.65645 88.59375 369.5247 88.59375 369.375 C 88.59374 369.2309 88.6351 369.09615 88.6875 368.96875 C 88.7402 368.84125 88.81479 368.7192 88.90625 368.625 C 88.99775 368.531 89.09126 368.46165 89.21875 368.40625 C 89.34623 368.35125 89.48088 368.3125 89.625 368.3125 z M 13.8125 397.75 L 77.59375 397.75 L 88.21875 397.75 L 88.21875 433.1875 L 13.8125 433.1875 L 13.8125 397.75 z M 214.71875 406.15625 C 218.8772 406.15625 222.25 409.529 222.25 413.6875 C 222.25 417.8459 218.8772 421.21875 214.71875 421.21875 C 210.56031 421.21875 207.1875 417.8459 207.1875 413.6875 C 207.1875 409.529 210.56031 406.15625 214.71875 406.15625 z "
       transform="translate(-390.77735,-87.879556)"
       id="rect4446" />
    <g
       id="g4492"
       style="fill:#000000;fill-opacity:0.29804131">
      <path
         id="rect4448"
         transform="translate(-390.77735,-87.879556)"
         d="M 181.625 261.875 L 181.625 279.59375 L 192.25 279.59375 L 192.25 261.875 L 181.625 261.875 z "
         style="opacity:0.75739643999999995;color:#000000;fill:#000000;fill-opacity:0.29804131;fill-rule:nonzero;stroke:none;stroke-width:0.99921262000000000;marker:none;visibility:visible;display:inline;overflow:visible;enable-background:accumulate" />
      <path
         id="rect4450"
         transform="translate(-390.77735,-87.879556)"
         d="M 186.9375 231.75 C 165.41144 231.75 147.9375 249.19269 147.9375 270.71875 C 147.9375 292.24481 165.41144 309.6875 186.9375 309.6875 C 208.46356 309.6875 225.90625 292.24481 225.90625 270.71875 C 225.90625 249.19269 208.46356 231.75 186.9375 231.75 z M 186.9375 253 C 196.72207 253 204.65625 260.93418 204.65625 270.71875 C 204.65625 280.50332 196.72207 288.4375 186.9375 288.4375 C 177.15293 288.4375 169.21875 280.50332 169.21875 270.71875 C 169.21875 260.93418 177.15293 253 186.9375 253 z "
         style="opacity:0.75739643999999995;color:#000000;fill:#000000;fill-opacity:0.29804131;fill-rule:nonzero;stroke:none;stroke-width:0.99921262000000000;marker:none;visibility:visible;display:inline;overflow:visible;enable-background:accumulate" />
    </g>
    <path
       style="opacity:0.75739643999999995;color:#000000;fill:#000000;fill-opacity:0.29804131;fill-rule:nonzero;stroke:none;stroke-width:0.99921262000000000;marker:none;visibility:visible;display:inline;overflow:visible;enable-background:accumulate"
       d="M 14.15625 195.3125 L 14.15625 205.9375 L 14.15625 216.5625 C 10.61057 216.5625 7.07292 215.6639 3.53125 214.5625 L 3.53125 229.1875 C 7.17443 227.92924 10.84639 227.1875 14.15625 227.1875 L 14.15625 294.53125 C 10.68252 294.53125 7.16625 294.17792 3.53125 292.53125 L 3.53125 307.15625 C 6.9475 305.92522 10.50237 305.15625 14.15625 305.15625 L 14.15625 315.78125 L 14.15625 326.40625 L 24.78125 326.40625 C 31.77621 326.40625 77.90625 326.64837 77.90625 337.03125 L 77.96875 337.03125 L 88.53125 337.03125 L 88.59375 337.03125 L 88.59375 326.40625 L 99.15625 326.40625 L 99.15625 337.03125 L 99.21875 337.03125 L 109.78125 337.03125 L 109.84375 337.03125 L 141.6875 337.03125 L 141.75 337.03125 L 152.3125 337.03125 L 152.375 337.03125 L 152.375 326.40625 L 162.9375 326.40625 L 162.9375 337.03125 L 163 337.03125 L 173.5625 337.03125 L 173.625 337.03125 C 173.625 326.64837 219.75504 326.40625 226.75 326.40625 L 237.375 326.40625 L 237.375 315.78125 L 237.375 305.15625 C 240.11541 305.15625 242.79394 305.57689 245.40625 306.3125 C 246.27702 306.5577 247.14594 306.84849 248 307.15625 L 248 292.53125 C 244.365 294.17792 240.84873 294.53125 237.375 294.53125 L 237.375 227.1875 C 239.85739 227.1875 242.55639 227.60431 245.28125 228.34375 C 246.18953 228.59023 247.0892 228.87293 248 229.1875 L 248 214.5625 C 244.45833 215.6639 240.92068 216.5625 237.375 216.5625 L 237.375 205.9375 L 237.375 195.3125 L 226.75 195.3125 L 226.75 205.9375 L 226.75 216.5625 L 216.125 216.5625 L 205.5 216.5625 L 194.875 216.5625 L 194.875 227.1875 L 205.5 227.1875 L 216.125 227.1875 L 226.75 227.1875 L 226.75 315.78125 L 24.78125 315.78125 L 24.78125 227.1875 L 35.40625 227.1875 L 46.03125 227.1875 L 56.65625 227.1875 L 56.65625 216.5625 L 46.03125 216.5625 L 35.40625 216.5625 L 24.78125 216.5625 L 24.78125 205.9375 L 24.78125 195.3125 L 14.15625 195.3125 z "
       transform="translate(-390.77735,-87.879556)"
       id="rect4452" />
    <path
       style="opacity:0.75739643999999995;color:#000000;fill:#000000;fill-opacity:0.29804131;fill-rule:nonzero;stroke:none;stroke-width:0.99921262000000000;marker:none;visibility:visible;display:inline;overflow:visible;enable-background:accumulate"
       d="M 65.0625 136.3125 C 43.53644 136.3125 26.09375 153.75519 26.09375 175.28125 C 26.09375 196.80731 43.53644 214.25 65.0625 214.25 C 86.58857 214.25 104.0625 196.80731 104.0625 175.28125 C 104.0625 153.75519 86.58856 136.3125 65.0625 136.3125 z M 59.75 169.96875 L 70.40625 169.96875 L 70.40625 180.59375 L 59.75 180.59375 L 59.75 169.96875 z "
       transform="translate(-390.77735,-87.879556)"
       id="rect4454" />
    <path
       style="opacity:0.75739643999999995;color:#000000;fill:#000000;fill-opacity:0.29804131;fill-rule:nonzero;stroke:none;stroke-width:0.99921262000000000;marker:none;visibility:visible;display:inline;overflow:visible;enable-background:accumulate"
       d="M 99.84375 142.59375 L 99.84375 153.21875 L 110.46875 153.21875 L 110.46875 174.15625 L 115.8125 177.25 L 125 182.5625 L 119.6875 191.8125 L 110.5 186.5 L 110.46875 186.46875 L 110.46875 214.59375 L 110.5 214.59375 L 110.5 216.96875 L 121.125 216.96875 L 121.125 227.625 L 110.5 227.625 L 110.5 238.25 L 110.5 240.65625 L 110.46875 240.65625 L 110.46875 302.03125 L 99.84375 302.03125 L 99.84375 312.65625 L 110.46875 312.65625 L 142.375 312.65625 L 153 312.65625 L 153 302.03125 L 142.375 302.03125 L 142.375 291.40625 L 142.375 240.65625 L 142.375 238.25 L 142.375 217 L 142.375 214.59375 L 142.375 163.84375 L 142.375 153.21875 L 153 153.21875 L 153 142.59375 L 142.375 142.59375 L 110.46875 142.59375 L 99.84375 142.59375 z M 121.09375 153.21875 L 131.75 153.21875 L 131.75 163.84375 L 121.09375 163.84375 L 121.09375 153.21875 z M 126.40625 267.9375 C 130.56469 267.9375 133.9375 271.31031 133.9375 275.46875 C 133.9375 279.62719 130.56469 283 126.40625 283 C 122.24781 283 118.90625 279.62719 118.90625 275.46875 C 118.90625 271.31031 122.24781 267.9375 126.40625 267.9375 z M 121.09375 291.40625 L 131.75 291.40625 L 131.75 302.03125 L 121.09375 302.03125 L 121.09375 291.40625 z "
       transform="translate(-390.77735,-87.879556)"
       id="rect4456" />
    <path
       style="opacity:0.75739643999999995;color:#000000;fill:#000000;fill-opacity:0.29804131;fill-rule:nonzero;stroke:none;stroke-width:0.99921262000000000;marker:none;visibility:visible;display:inline;overflow:visible;enable-background:accumulate"
       d="M 185.15625 138.875 C 163.63019 138.875 146.1875 156.31769 146.1875 177.84375 C 146.1875 199.36982 163.63019 216.8125 185.15625 216.8125 C 206.68231 216.8125 224.15625 199.36982 224.15625 177.84375 C 224.15625 156.31769 206.68231 138.875 185.15625 138.875 z M 179.84375 172.53125 L 190.5 172.53125 L 190.5 183.15625 L 179.84375 183.15625 L 179.84375 172.53125 z "
       transform="translate(-390.77735,-87.879556)"
       id="rect4458" />
    <path
       style="opacity:0.75739643999999995;color:#000000;fill:#000000;fill-opacity:0.29804131;fill-rule:nonzero;stroke:none;stroke-width:0.99921262000000000;marker:none;visibility:visible;display:inline;overflow:visible;enable-background:accumulate"
       d="M 215.4375 48.9375 L 215.4375 80.84375 C 207.9926 80.84375 204.8125 85.550905 204.8125 91.46875 L 215.4375 91.46875 L 215.4375 102.09375 L 204.8125 102.09375 L 204.8125 112.71875 L 215.4375 112.71875 L 226.0625 112.71875 L 226.0625 48.9375 L 215.4375 48.9375 z "
       transform="translate(-390.77735,-87.879556)"
       id="rect4460" />
    <path
       style="opacity:0.75739643999999995;color:#000000;fill:#000000;fill-opacity:0.29804131;fill-rule:nonzero;stroke:none;stroke-width:0.99921262000000000;marker:none;visibility:visible;display:inline;overflow:visible;enable-background:accumulate"
       d="M 88.3125 71.5 L 86.59375 75.46875 L 86.34375 77.34375 L 86.5625 79.3125 L 82.21875 80.15625 L 81.65625 78.28125 L 80.71875 76.625 L 77.625 73.65625 L 75.25 74.625 L 75.1875 78.90625 L 75.6875 80.75 L 76.625 82.46875 L 72.9375 84.9375 L 71.6875 83.40625 L 70.1875 82.25 L 66.1875 80.6875 L 64.40625 82.46875 L 65.96875 86.46875 L 67.125 87.96875 L 68.65625 89.21875 L 66.1875 92.90625 L 64.46875 91.96875 L 62.625 91.46875 L 58.34375 91.53125 L 57.375 93.90625 L 60.34375 97 L 62 97.9375 L 63.875 98.5 L 63.03125 102.84375 L 61.0625 102.625 L 59.1875 102.875 L 55.21875 104.59375 L 55.21875 107.125 L 59.1875 108.875 L 61.0625 109.09375 L 63.03125 108.875 L 63.875 113.25 L 62 113.78125 L 60.34375 114.75 L 57.375 117.84375 L 58.34375 120.1875 L 62.625 120.28125 L 64.46875 119.78125 L 66.1875 118.8125 L 68.65625 122.53125 L 67.125 123.75 L 65.96875 125.25 L 64.40625 129.25 L 66.1875 131.0625 L 70.1875 129.5 L 71.6875 128.34375 L 72.9375 126.78125 L 76.625 129.25 L 75.6875 131 L 75.1875 132.8125 L 75.25 137.125 L 77.625 138.09375 L 80.71875 135.09375 L 81.65625 133.46875 L 82.21875 131.5625 L 86.5625 132.4375 L 86.34375 134.40625 L 86.59375 136.28125 L 88.3125 140.21875 L 90.84375 140.21875 L 92.59375 136.28125 L 92.8125 134.40625 L 92.59375 132.4375 L 96.96875 131.5625 L 97.5 133.46875 L 98.46875 135.09375 L 101.5625 138.09375 L 103.90625 137.125 L 104 132.8125 L 103.5 131 L 102.53125 129.25 L 106.25 126.78125 L 107.46875 128.34375 L 108.96875 129.5 L 112.96875 131.0625 L 114.78125 129.25 L 113.21875 125.25 L 112.0625 123.75 L 110.5 122.53125 L 112.96875 118.8125 L 114.71875 119.78125 L 116.53125 120.28125 L 120.84375 120.1875 L 121.8125 117.84375 L 118.8125 114.75 L 117.1875 113.78125 L 115.28125 113.25 L 116.15625 108.875 L 118.125 109.09375 L 120 108.875 L 123.9375 107.125 L 123.9375 104.59375 L 120 102.875 L 118.125 102.625 L 116.15625 102.84375 L 115.28125 98.5 L 117.1875 97.9375 L 118.8125 97 L 121.8125 93.90625 L 120.84375 91.53125 L 116.53125 91.46875 L 114.71875 91.96875 L 112.96875 92.90625 L 110.5 89.21875 L 112.0625 87.96875 L 113.21875 86.46875 L 114.78125 82.46875 L 112.96875 80.6875 L 108.96875 82.25 L 107.46875 83.40625 L 106.25 84.9375 L 102.53125 82.46875 L 103.5 80.75 L 104 78.90625 L 103.90625 74.625 L 101.5625 73.65625 L 98.46875 76.625 L 97.5 78.28125 L 96.96875 80.15625 L 92.59375 79.3125 L 92.8125 77.34375 L 92.59375 75.46875 L 90.84375 71.5 L 88.3125 71.5 z M 84.28125 100.5625 L 94.90625 100.5625 L 94.90625 111.1875 L 84.28125 111.1875 L 84.28125 100.5625 z "
       transform="translate(-390.77735,-87.879556)"
       id="rect4462" />
    <path
       style="opacity:0.75739643999999995;color:#000000;fill:#000000;fill-opacity:0.29804131;fill-rule:nonzero;stroke:none;stroke-width:0.99921262000000000;marker:none;visibility:visible;display:inline;overflow:visible;enable-background:accumulate"
       d="M 160.34375 72.78125 L 158.625 76.75 L 158.375 78.625 L 158.59375 80.59375 L 154.25 81.4375 L 153.6875 79.5625 L 152.75 77.90625 L 149.65625 74.9375 L 147.28125 75.90625 L 147.21875 80.1875 L 147.71875 82.03125 L 148.65625 83.75 L 144.96875 86.21875 L 143.71875 84.6875 L 142.21875 83.53125 L 138.21875 81.96875 L 136.4375 83.75 L 138 87.75 L 139.15625 89.25 L 140.6875 90.5 L 138.21875 94.1875 L 136.5 93.25 L 134.65625 92.75 L 130.375 92.8125 L 129.40625 95.1875 L 132.375 98.28125 L 134.03125 99.21875 L 135.90625 99.78125 L 135.0625 104.125 L 133.09375 103.90625 L 131.21875 104.15625 L 127.25 105.875 L 127.25 108.40625 L 131.21875 110.15625 L 133.09375 110.375 L 135.0625 110.15625 L 135.90625 114.53125 L 134.03125 115.0625 L 132.375 116.03125 L 129.40625 119.125 L 130.375 121.46875 L 134.65625 121.5625 L 136.5 121.0625 L 138.21875 120.09375 L 140.6875 123.8125 L 139.15625 125.03125 L 138 126.53125 L 136.4375 130.53125 L 138.21875 132.34375 L 142.21875 130.78125 L 143.71875 129.625 L 144.96875 128.0625 L 148.65625 130.53125 L 147.71875 132.28125 L 147.21875 134.09375 L 147.28125 138.40625 L 149.65625 139.375 L 152.75 136.375 L 153.6875 134.75 L 154.25 132.84375 L 158.59375 133.71875 L 158.375 135.6875 L 158.625 137.5625 L 160.34375 141.5 L 162.875 141.5 L 164.625 137.5625 L 164.84375 135.6875 L 164.625 133.71875 L 169 132.84375 L 169.53125 134.75 L 170.5 136.375 L 173.59375 139.375 L 175.9375 138.40625 L 176.03125 134.09375 L 175.53125 132.28125 L 174.5625 130.53125 L 178.28125 128.0625 L 179.5 129.625 L 181 130.78125 L 185 132.34375 L 186.8125 130.53125 L 185.25 126.53125 L 184.09375 125.03125 L 182.53125 123.8125 L 185 120.09375 L 186.75 121.0625 L 188.5625 121.5625 L 192.875 121.46875 L 193.84375 119.125 L 190.84375 116.03125 L 189.21875 115.0625 L 187.3125 114.53125 L 188.1875 110.15625 L 190.15625 110.375 L 192.03125 110.15625 L 195.96875 108.40625 L 195.96875 105.875 L 192.03125 104.15625 L 190.15625 103.90625 L 188.1875 104.125 L 187.3125 99.78125 L 189.21875 99.21875 L 190.84375 98.28125 L 193.84375 95.1875 L 192.875 92.8125 L 188.5625 92.75 L 186.75 93.25 L 185 94.1875 L 182.53125 90.5 L 184.09375 89.25 L 185.25 87.75 L 186.8125 83.75 L 185 81.96875 L 181 83.53125 L 179.5 84.6875 L 178.28125 86.21875 L 174.5625 83.75 L 175.53125 82.03125 L 176.03125 80.1875 L 175.9375 75.90625 L 173.59375 74.9375 L 170.5 77.90625 L 169.53125 79.5625 L 169 81.4375 L 164.625 80.59375 L 164.84375 78.625 L 164.625 76.75 L 162.875 72.78125 L 160.34375 72.78125 z M 156.3125 101.84375 L 166.9375 101.84375 L 166.9375 112.46875 L 156.3125 112.46875 L 156.3125 101.84375 z "
       transform="translate(-390.77735,-87.879556)"
       id="rect4464" />
    <path
       style="opacity:0.75739643999999995;color:#000000;fill:#000000;fill-opacity:0.29804131;fill-rule:nonzero;stroke:none;stroke-width:0.99921262000000000;marker:none;visibility:visible;display:inline;overflow:visible;enable-background:accumulate"
       d="M 69.34375 49.09375 C 69.34375 59.70166 26.8125 60.45407 26.8125 70.34375 L 26.8125 81 L 37.4375 81 L 37.4375 70.34375 L 196.90625 70.34375 L 196.90625 81 L 207.53125 81 L 207.53125 70.34375 C 207.53125 60.45407 165 59.70166 165 49.09375 L 154.375 49.09375 L 154.375 59.71875 L 143.75 59.71875 L 143.75 49.09375 L 90.59375 49.09375 L 90.59375 59.71875 L 79.96875 59.71875 L 79.96875 49.09375 L 69.34375 49.09375 z "
       transform="translate(-390.77735,-87.879556)"
       id="rect4466" />
    <path
       style="opacity:0.75739643999999995;color:#000000;fill:#000000;fill-opacity:0.29804131;fill-rule:nonzero;stroke:none;stroke-width:0.99921262000000000;marker:none;visibility:visible;display:inline;overflow:visible;enable-background:accumulate"
       d="M 27.03125 37.28125 L 27.03125 47.90625 L 221.90625 47.90625 L 221.90625 37.28125 L 27.03125 37.28125 z "
       transform="translate(-390.77735,-87.879556)"
       id="rect4468" />
    <path
       style="opacity:0.75739643999999995;color:#000000;fill:#000000;fill-opacity:0.29804131;fill-rule:nonzero;stroke:none;stroke-width:0.99921262000000000;marker:none;visibility:visible;display:inline;overflow:visible;enable-background:accumulate"
       d="M 27.46875 25.75 L 27.46875 36.40625 L 222.34375 36.40625 L 222.34375 25.75 L 27.46875 25.75 z "
       transform="translate(-390.77735,-87.879556)"
       id="rect4470" />
    <path
       style="opacity:0.75739643999999995;color:#000000;fill:#000000;fill-opacity:0.29804131;fill-rule:nonzero;stroke:none;stroke-width:0.99921262000000000;marker:none;visibility:visible;display:inline;overflow:visible;enable-background:accumulate"
       d="M 248.84375 20.875 L 248.84375 90.53125 L 248.84375 126.46875 C 241.39885 126.46875 238.21875 127.1759 238.21875 133.09375 L 248.84375 133.09375 L 248.84375 143.71875 L 238.21875 143.71875 L 238.21875 154.34375 L 238.21875 186.25 L 238.21875 196.875 L 248.84375 196.875 L 248.84375 207.5 L 238.21875 207.5 C 238.21875 213.41785 241.39885 214.125 248.84375 214.125 L 248.84375 250.03125 L 248.84375 319.75 L 259.46875 319.75 L 259.46875 250.03125 L 259.46875 186.25 L 259.46875 154.34375 L 259.46875 90.53125 L 259.46875 20.875 L 248.84375 20.875 z "
       transform="translate(-390.77735,-87.879556)"
       id="rect4472" />
    <path
       style="opacity:0.75739643999999995;color:#000000;fill:#000000;fill-opacity:0.29804131;fill-rule:nonzero;stroke:none;stroke-width:0.99921262000000000;marker:none;visibility:visible;display:inline;overflow:visible;enable-background:accumulate"
       d="M 77.90625 3.53125 C 77.90625 13.91413 31.77621 14.15625 24.78125 14.15625 L 14.15625 14.15625 L 14.15625 24.78125 L 14.15625 35.40625 C 10.50237 35.40625 6.9475 34.63728 3.53125 33.40625 L 3.53125 48.03125 C 7.16625 46.38458 10.68252 46.03125 14.15625 46.03125 L 14.15625 113.375 C 10.84639 113.375 7.17443 112.63326 3.53125 111.375 L 3.53125 126 C 7.07292 124.8986 10.61057 124 14.15625 124 L 14.15625 134.625 L 14.15625 145.25 L 24.78125 145.25 L 24.78125 134.625 L 24.78125 124 L 35.40625 124 L 46.03125 124 L 56.65625 124 L 56.65625 113.375 L 46.03125 113.375 L 35.40625 113.375 L 24.78125 113.375 L 24.78125 24.78125 L 226.75 24.78125 L 226.75 113.375 L 216.125 113.375 L 205.5 113.375 L 194.875 113.375 L 194.875 124 L 205.5 124 L 216.125 124 L 226.75 124 L 226.75 134.625 L 226.75 145.25 L 237.375 145.25 L 237.375 134.625 L 237.375 124 C 240.92068 124 244.45833 124.8986 248 126 L 248 111.375 C 247.0892 111.68957 246.18953 111.97227 245.28125 112.21875 C 242.55639 112.95819 239.85739 113.375 237.375 113.375 L 237.375 46.03125 C 240.84873 46.03125 244.365 46.38458 248 48.03125 L 248 33.40625 C 247.14594 33.71401 246.27702 34.0048 245.40625 34.25 C 242.79394 34.98561 240.11541 35.40625 237.375 35.40625 L 237.375 24.78125 L 237.375 14.15625 L 226.75 14.15625 C 219.75504 14.15625 173.625 13.91413 173.625 3.53125 L 173.5625 3.53125 L 163 3.53125 L 162.9375 3.53125 L 162.9375 14.15625 L 152.375 14.15625 L 152.375 3.53125 L 152.3125 3.53125 L 141.75 3.53125 L 141.6875 3.53125 L 109.84375 3.53125 L 109.78125 3.53125 L 99.21875 3.53125 L 99.15625 3.53125 L 99.15625 14.15625 L 88.59375 14.15625 L 88.59375 3.53125 L 88.53125 3.53125 L 77.96875 3.53125 L 77.90625 3.53125 z "
       transform="translate(-390.77735,-87.879556)"
       id="rect4474" />
    <g
       inkscape:label="Gear8"
       transform="matrix(-0.92387953,-0.38268343,0.38268343,-0.92387953,-214.86166,290.5098)"
       id="g3400"
       style="fill:#000000;fill-opacity:0.29804131;stroke:none;display:inline;filter:url(#filter3277);enable-background:new">
      <path
         style="fill:#000000;fill-opacity:0.29804131;stroke:none"
         d="m 59.425533,-136.86687 -1.48015,-1.45022 -4.25313,1.49111 -0.70571,0.66439 -1.5604,2.43905 -3.83803,-1.58976 0.62131,-2.82804 -0.0173,-0.93994 -1.965,-4.09066 -2.06012,0.008 -1.958084,4.09207 -0.02357,0.92303 0.597445,2.83058 -3.811003,1.57857 -1.579067,-2.42398 -0.669344,-0.63602 -4.278103,-1.50895 -1.462174,1.45127 1.503065,4.282 0.652431,0.67685 2.439049,1.56039 -1.589764,3.83803 -2.828033,-0.6213 -0.939942,0.0173 -4.090658,1.965 0.0077,2.06012 4.092066,1.95808 0.92303,0.0236 2.830583,-0.59744 1.578569,3.811 -2.423982,1.57907 -0.636017,0.66934 -1.508953,4.2781 1.451271,1.46218 4.282,-1.50307 0.676847,-0.65243 1.560395,-2.43905 3.838029,1.58977 -0.621303,2.82803 0.02922,0.96881 1.953045,4.06179 2.072075,0.0212 1.95808,-4.09207 0.0116,-0.9519 -0.59744,-2.83058 3.811,-1.57857 1.57907,2.42398 0.6813,0.66489 4.2781,1.50895 1.45022,-1.48014 -1.49111,-4.25313 -0.66439,-0.70572 -2.43905,-1.56039 1.58977,-3.83803 2.82803,0.6213 0.96881,-0.0292 4.06179,-1.95304 0.0212,-2.07208 -4.08011,-1.92921 -0.96386,-0.0405 -2.83058,0.59744 -1.57857,-3.811 2.42398,-1.57907 0.66489,-0.6813 1.50896,-4.2781 z m -13.74541,9.27896 2.32002,5.60102 c -0.36842,0.49202 -0.8333,0.92018 -1.44236,1.17246 -1.807949,0.74888 -3.876882,-0.13202 -4.625759,-1.93997 -0.748877,-1.80795 0.10315,-3.86492 1.911099,-4.6138 0.607386,-0.25159 1.23009,-0.30602 1.837,-0.21971 z"
         id="path3402"
         inkscape:connector-curvature="0" />
    </g>
    <g
       style="fill:#000000;fill-opacity:0.29804131;stroke:none;display:inline;filter:url(#filter3277);enable-background:new"
       id="g3157"
       transform="matrix(-0.92387953,-0.38268343,0.38268343,-0.92387953,-311.39291,420.05668)"
       inkscape:label="Gear8">
      <path
         inkscape:connector-curvature="0"
         id="path3159"
         transform="matrix(0.38268343,0.92387954,-0.92387954,0.38268343,49.305539,-762.64395)"
         d="m 679.375,319.375 -1.90625,0.8125 -0.25,4.5 0.34375,0.90625 1.65625,2.375 -2.9375,2.9375 -2.375,-1.65625 -0.875,-0.34375 -4.53125,0.25 -0.78125,1.90625 3.03125,3.375 0.84375,0.375 2.84375,0.53125 0,4.125 -2.84375,0.53125 -0.84375,0.375 -3.03125,3.375 0.78125,1.90625 4.53125,0.25 0.875,-0.34375 2.375,-1.65625 2.9375,2.9375 -1.65625,2.375 -0.34375,0.875 0.25,4.53125 1.90625,0.78125 3.375,-3.03125 0.375,-0.84375 0.53125,-2.84375 4.125,0 0.53125,2.84375 0.375,0.84375 3.375,3.03125 1.90625,-0.78125 0.25,-4.53125 -0.34375,-0.875 -1.65625,-2.375 2.9375,-2.9375 2.375,1.65625 0.90625,0.34375 4.5,-0.25 0.8125,-1.90625 -3.03125,-3.375 -0.875,-0.375 -2.84375,-0.53125 0,-4.125 2.84375,-0.53125 0.875,-0.375 3.03125,-3.375 -0.8125,-1.90625 -4.5,-0.25 -0.90625,0.34375 -2.375,1.65625 -2.9375,-2.9375 1.65625,-2.375 0.34375,-0.90625 -0.25,-4.5 -1.90625,-0.8125 -3.34375,3.03125 -0.40625,0.875 -0.53125,2.84375 -4.125,0 -0.53125,-2.84375 -0.375,-0.875 -3.375,-3.03125 z m 3.3125,16.25 6.0625,0 c 0.31358,0.52866 0.53125,1.12201 0.53125,1.78125 0,1.95691 -1.60559,3.53125 -3.5625,3.53125 -1.95691,0 -3.53125,-1.57434 -3.53125,-3.53125 0,-0.65743 0.18801,-1.25356 0.5,-1.78125 z"
         style="fill:#000000;fill-opacity:0.29804131;stroke:none" />
    </g>
  </g>
</svg>
