<?xml version="1.0" encoding="UTF-8" standalone="no"?>
<!-- Created with Inkscape (http://www.inkscape.org/) -->

<svg
   xmlns:dc="http://purl.org/dc/elements/1.1/"
   xmlns:cc="http://creativecommons.org/ns#"
   xmlns:rdf="http://www.w3.org/1999/02/22-rdf-syntax-ns#"
   xmlns:svg="http://www.w3.org/2000/svg"
   xmlns="http://www.w3.org/2000/svg"
   xmlns:sodipodi="http://sodipodi.sourceforge.net/DTD/sodipodi-0.dtd"
   xmlns:inkscape="http://www.inkscape.org/namespaces/inkscape"
   sodipodi:docname="john.svg"
   inkscape:version="0.48.5 r10040"
   version="1.1"
   id="svg3091"
   height="297mm"
   width="210mm">
  <sodipodi:namedview
     id="base"
     pagecolor="#ffffff"
     bordercolor="#666666"
     borderopacity="1.0"
     inkscape:pageopacity="0.0"
     inkscape:pageshadow="2"
     inkscape:zoom="8"
     inkscape:cx="605.93946"
     inkscape:cy="661.14028"
     inkscape:document-units="mm"
     inkscape:current-layer="layer1"
     showgrid="false"
     inkscape:window-width="1900"
     inkscape:window-height="985"
     inkscape:window-x="1"
     inkscape:window-y="1"
     inkscape:window-maximized="1"
     inkscape:object-paths="true"
     inkscape:object-nodes="true"
     inkscape:snap-object-midpoints="true"
     inkscape:snap-nodes="true"
     inkscape:snap-midpoints="true"
     inkscape:snap-intersection-paths="true"
     inkscape:snap-smooth-nodes="false" />
  <defs
     id="defs3093" />
  <metadata
     id="metadata3096">
    <rdf:RDF>
      <cc:Work
         rdf:about="">
        <dc:format>image/svg+xml</dc:format>
        <dc:type
           rdf:resource="http://purl.org/dc/dcmitype/StillImage" />
        <dc:title />
      </cc:Work>
    </rdf:RDF>
  </metadata>
  <g
     inkscape:groupmode="layer"
     id="layer2"
     inkscape:label="Purgatory" />
  <g
     inkscape:label="links"
     inkscape:groupmode="layer"
     id="layer1"
     style="display:inline">
    <path
       style="opacity:0.75739644;color:#000000;fill:#000000;fill-opacity:0.29803922;fill-rule:nonzero;stroke:none;stroke-width:0.99921262;marker:none;visibility:visible;display:inline;overflow:visible;enable-background:accumulate"
       d="m 609.67997,365.96352 c -21.52606,0 -38.96875,17.44269 -38.96875,38.96875 0,21.52606 17.44269,38.96875 38.96875,38.96875 21.52606,0 39,-17.44269 39,-38.96875 0,-21.52606 -17.47394,-38.96875 -39,-38.96875 z m -5.3125,33.65625 10.65625,0 0,10.625 -10.65625,0 0,-10.625 z"
       id="path4308"
       inkscape:connector-curvature="0" />
    <rect
       style="opacity:0.75739644;color:#000000;fill:#000000;fill-opacity:0.22745098;fill-rule:nonzero;stroke:none;stroke-width:0.99921262;marker:none;visibility:visible;display:inline;overflow:visible;enable-background:accumulate"
       id="rect4622"
       width="99.212601"
       height="63.779526"
       x="448.32144"
       y="290.54773" />
    <g
       id="g4407"
       transform="translate(219.60593,144.18586)">
      <path
         inkscape:connector-curvature="0"
         id="path4340"
         d="m 237.99275,221.77765 c -21.52606,0 -38.96875,17.44269 -38.96875,38.96875 0,21.52606 17.44269,38.96875 38.96875,38.96875 21.52606,0 39,-17.44269 39,-38.96875 0,-21.52606 -17.47394,-38.96875 -39,-38.96875 z m 0,26.5625 c 6.8492,0 12.40625,5.55705 12.40625,12.40625 0,6.8492 -5.55705,12.375 -12.40625,12.375 -6.8492,0 -12.375,-5.5258 -12.375,-12.375 0,-6.8492 5.5258,-12.40625 12.375,-12.40625 z"
         style="opacity:0.75739644;color:#000000;fill:#000000;fill-opacity:0.29803922;fill-rule:nonzero;stroke:none;stroke-width:0.99921262;marker:none;visibility:visible;display:inline;overflow:visible;enable-background:accumulate" />
      <rect
         y="251.88702"
         x="232.69588"
         height="17.71875"
         width="10.625"
         id="rect4405"
         style="opacity:0.75739644;color:#000000;fill:#000000;fill-opacity:0.22745098;fill-rule:nonzero;stroke:none;stroke-width:0.99921262;marker:none;visibility:visible;display:inline;overflow:visible;enable-background:accumulate" />
    </g>
    <path
       style="opacity:0.75739644;color:#000000;fill:#000000;fill-opacity:0.22745098;fill-rule:nonzero;stroke:none;stroke-width:0.99921262;marker:none;visibility:visible;display:inline;overflow:visible;enable-background:accumulate"
       d="m 187,196.09375 0,10.625 0,31.90625 0,10.625 10.625,0 0,-10.625 10.625,0 50.75,0 2.40625,0 21.25,0 2.40625,0 50.75,0 10.625,0 0,10.625 10.625,0 0,-10.625 0,-31.90625 0,-10.625 -10.625,0 0,10.625 -20.9375,0 -3.09375,5.34375 -5.3125,9.1875 -9.25,-5.3125 5.3125,-9.1875 0.0312,-0.0312 -28.125,0 0,0.0312 -2.375,0 0,10.625 -10.65625,0 0,-10.625 -10.625,0 -2.40625,0 0,-0.0312 -61.375,0 0,-10.625 -10.625,0 z m 37.1875,19.0625 c 4.15844,0 7.53125,3.34156 7.53125,7.5 0,4.15844 -3.37281,7.53125 -7.53125,7.53125 -4.15844,0 -7.53125,-3.37281 -7.53125,-7.53125 0,-4.15844 3.37281,-7.5 7.53125,-7.5 z m -26.5625,2.1875 10.625,0 0,10.65625 -10.625,0 0,-10.65625 z m 138.1875,0 10.625,0 0,10.65625 -10.625,0 0,-10.65625 z"
       id="rect4386"
       inkscape:connector-curvature="0"
       inkscape:transform-center-x="-47.843752" />
    <path
       style="opacity:0.75739644;color:#000000;fill:#000000;fill-opacity:0.22745098;fill-rule:nonzero;stroke:none;stroke-width:0.99921262;marker:none;visibility:visible;display:inline;overflow:visible;enable-background:accumulate"
       d="m 200.25,303.40625 0,10.65625 -10.625,0 0,-3.5625 -14.15625,0 0,5.3125 2.65625,0 0,-2.46875 0.875,0 1.78125,0 0,2.46875 3.5625,0 0,7.09375 -3.5625,0 0,2.46875 -1.78125,0 -0.875,0 0,-2.46875 -2.65625,0 0,5.3125 14.15625,0 0,-3.53125 10.625,0 0,10.625 10.65625,0 0,-10.625 5.59375,0 5.03125,0 0,-10.625 -5.03125,0 -5.59375,0 0,-10.65625 -10.65625,0 z"
       id="rect4353"
       inkscape:connector-curvature="0" />
    <path
       style="opacity:0.75739644;color:#000000;fill:#000000;fill-opacity:0.39215686;fill-rule:nonzero;stroke:none;stroke-width:0.99921262;marker:none;visibility:visible;display:inline;overflow:visible;enable-background:accumulate"
       d="M 583.90625,320.53125 573.5625,330.875 c 0.739,-0.0635 1.478,-0.10091 2.21875,-0.125 1.48037,-0.048 2.9603,-0.0159 4.4375,0.0937 0.73936,0.0541 1.45142,0.12525 2.1875,0.21875 0.0103,10e-4 0.021,-10e-4 0.0312,0 4.40604,0.56293 8.73509,1.83919 12.8125,3.8125 1.36226,0.65928 2.70129,1.40212 4,2.21875 1.29871,0.81663 2.55956,1.71355 3.78125,2.6875 1.22169,0.97395 2.40003,2.02503 3.53125,3.15625 1.13136,1.13137 2.18279,2.30882 3.15625,3.53125 0.48673,0.61121 0.95897,1.21233 1.40625,1.84375 0.005,0.007 -0.005,0.0245 0,0.0312 0.44182,0.62455 0.87799,1.26362 1.28125,1.90625 0.81568,1.29985 1.56072,2.63637 2.21875,4 0.98705,2.04544 1.80479,4.16193 2.4375,6.3125 0.42181,1.43372 0.76676,2.88036 1.03125,4.34375 0.39674,2.19508 0.61311,4.40152 0.65625,6.625 2.1e-4,0.0104 -2e-4,0.0208 0,0.0312 0.0275,1.47205 -0.0289,2.96987 -0.15625,4.4375 l -10.40625,10.40625 -17.03125,17.03125 -10.375,10.375 c -1.46749,0.12733 -2.9656,0.18371 -4.4375,0.15625 -0.0104,-2e-4 -0.0208,2.1e-4 -0.0312,0 -2.22348,-0.0431 -4.42992,-0.25951 -6.625,-0.65625 -1.46339,-0.26449 -2.91003,-0.60944 -4.34375,-1.03125 -2.15057,-0.63271 -4.26706,-1.45045 -6.3125,-2.4375 -1.36363,-0.65803 -2.70015,-1.40307 -4,-2.21875 -0.64263,-0.40326 -1.2817,-0.83943 -1.90625,-1.28125 -0.007,-0.005 -0.0245,0.005 -0.0312,0 -0.63142,-0.44728 -1.23254,-0.91952 -1.84375,-1.40625 -1.22243,-0.97346 -2.39989,-2.02488 -3.53125,-3.15625 -1.13136,-1.13137 -2.18279,-2.30891 -3.15625,-3.53125 -0.49219,-0.61803 -0.9544,-1.23633 -1.40625,-1.875 -0.44747,-0.63087 -0.87317,-1.257 -1.28125,-1.90625 -0.81568,-1.29971 -1.56072,-2.63651 -2.21875,-4 -0.90519,-1.87561 -1.64283,-3.81554 -2.25,-5.78125 -0.0554,-0.17939 -0.13455,-0.35127 -0.1875,-0.53125 -0.41893,-1.42385 -0.7675,-2.85924 -1.03125,-4.3125 -0.002,-0.0101 0.002,-0.0211 0,-0.0312 -0.66123,-3.65852 -0.82057,-7.3667 -0.5,-11.0625 l -9.59375,-14.4375 -22.84375,0 0,10.65625 -10.625,0 0,-10.65625 -12.03125,0 -32.28125,0 0,-10.625 0,-10.65625 -10.625,0 0,10.65625 0,10.625 -10.625,0 0,-10.625 0,-10.65625 -10.625,0 0,10.65625 0,10.625 -10.25,0 c 0,15.28084 49.59375,19.47499 49.59375,34.6875 l 14.1875,0 0,46.03125 10.625,0 0,-46.03125 47,0 c 6.9584,20.69902 26.52295,35.625 49.5625,35.625 7.70443,0 15.01053,-1.69256 21.59375,-4.6875 3.07547,2.24901 6.86684,3.59375 10.96875,3.59375 10.2738,0 18.59375,-8.31995 18.59375,-18.59375 0,-4.10191 -1.34474,-7.89328 -3.59375,-10.96875 2.58425,-5.67953 4.1655,-11.89316 4.5625,-18.4375 l 0,0 c 0.57452,-8.3361 18.1875,-2.04387 18.1875,-21.1875 l 0,-10.625 0,-10.625 -10.625,0 0,10.625 0,10.625 -10.625,0 0,-10.625 0,-10.625 -14.5625,0 c -7.60947,-6.69002 -17.19124,-11.19746 -27.75,-12.5625 z m 25.8125,76.875 c 4.15844,0 7.53125,3.37281 7.53125,7.53125 0,4.15844 -3.37281,7.53125 -7.53125,7.53125 -4.15844,0 -7.53125,-3.37281 -7.53125,-7.53125 0,-4.15844 3.37281,-7.53125 7.53125,-7.53125 z"
       id="path3235"
       inkscape:connector-curvature="0"
       sodipodi:nodetypes="ccccccsssssccssssccccccccssssccsssccsccccccccccccccccccccccccccccccscsscccsccccccccccsssss" />
    <path
       style="fill:#000000;fill-opacity:0.39215686;display:inline;filter:url(#filter4654);enable-background:new"
       inkscape:connector-curvature="0"
       id="path2985"
       d="m 535.68871,368.73826 c -1.02582,11.82655 2.9699,24.00632 12.02082,33.05724 9.05092,9.05092 21.23411,13.04666 33.05724,12.02081 l 37.83021,-37.83021 c 1.02585,-11.82313 -2.96989,-24.00632 -12.02081,-33.05724 -9.04979,-9.04979 -21.20998,-13.06736 -33.03517,-12.04288 l -37.85229,37.85228 z" />
    <path
       id="path3798"
       d="m 564.62485,359.82208 c -6.91873,6.91874 -6.91873,18.13936 0,25.0581 6.91874,6.91873 18.13936,6.91873 25.0581,0 6.91874,-6.91874 6.91874,-18.13936 0,-25.0581 -6.91874,-6.91874 -18.13936,-6.91874 -25.0581,0 z m -11.09273,28.63782 c -2.07562,2.07562 -2.07562,5.43739 0,7.51301 2.07562,2.07562 5.43739,2.07562 7.51301,0 2.07562,-2.07562 2.07562,-5.43739 0,-7.51301 -2.07562,-2.07562 -5.43739,-2.07562 -7.51301,0 z m 39.70846,-39.70846 c -2.07562,2.07562 -2.07562,5.43739 0,7.51301 2.07562,2.07562 5.43739,2.07562 7.51301,0 2.07562,-2.07562 2.07562,-5.43739 0,-7.51301 -2.07562,-2.07562 -5.43739,-2.07562 -7.51301,0 z"
       style="fill:#cc0000;fill-opacity:0.39215686;display:inline;filter:url(#filter4654);enable-background:new"
       inkscape:connector-curvature="0" />
    <path
       sodipodi:type="arc"
       style="opacity:0.75739644;color:#000000;fill:#000000;fill-opacity:0.39215686;fill-rule:nonzero;stroke:none;stroke-width:0.99921262;marker:none;visibility:visible;display:inline;overflow:visible;enable-background:accumulate"
       id="path3116"
       sodipodi:cx="672.50903"
       sodipodi:cy="396.01556"
       sodipodi:rx="2.7779195"
       sodipodi:ry="2.7779195"
       d="m 675.28695,396.01556 a 2.7779195,2.7779195 0 1 1 -5.55584,0 2.7779195,2.7779195 0 1 1 5.55584,0 z"
       transform="matrix(1.2755255,0,0,1.2755255,-280.65957,-132.76577)" />
    <path
       transform="matrix(1.1411875,0,0,1.1411875,15.376815,-54.071029)"
       d="m 589.46427,372.24179 a 12.419719,12.419719 0 1 1 -24.83943,0 12.419719,12.419719 0 1 1 24.83943,0 z"
       sodipodi:ry="12.419719"
       sodipodi:rx="12.419719"
       sodipodi:cy="372.24179"
       sodipodi:cx="577.04456"
       id="path3249"
       style="opacity:0.75739644;color:#000000;fill:#000000;fill-opacity:0.39215686;fill-rule:nonzero;stroke:none;stroke-width:0.99921262;marker:none;visibility:visible;display:inline;overflow:visible;enable-background:accumulate"
       sodipodi:type="arc" />
    <path
       transform="matrix(2.8220474,0,0,2.8220474,-1126.4862,-739.107)"
       d="m 659.55355,404.81754 a 10.044642,10.044642 0 1 1 -20.08928,0 10.044642,10.044642 0 1 1 20.08928,0 z"
       sodipodi:ry="10.044642"
       sodipodi:rx="10.044642"
       sodipodi:cy="404.81754"
       sodipodi:cx="649.50891"
       id="path3253"
       style="opacity:0.75739644;color:#000000;fill:#000000;fill-opacity:0.39215686;fill-rule:nonzero;stroke:none;stroke-width:0.99921262;marker:none;visibility:visible;display:inline;overflow:visible;enable-background:accumulate"
       sodipodi:type="arc" />
    <g
       inkscape:label="Gear8"
       transform="matrix(0.38268343,-0.92387953,0.92387953,0.38268343,675.87892,283.07823)"
       id="g3400"
       style="fill:#000000;fill-opacity:0.29803922;stroke:none">
      <path
         style="fill:#000000;fill-opacity:0.29803922;stroke:none"
         d="m 679.375,319.375 -1.90625,0.8125 -0.25,4.5 0.34375,0.90625 1.65625,2.375 -2.9375,2.9375 -2.375,-1.65625 -0.875,-0.34375 -4.53125,0.25 -0.78125,1.90625 3.03125,3.375 0.84375,0.375 2.84375,0.53125 0,4.125 -2.84375,0.53125 -0.84375,0.375 -3.03125,3.375 0.78125,1.90625 4.53125,0.25 0.875,-0.34375 2.375,-1.65625 2.9375,2.9375 -1.65625,2.375 -0.34375,0.875 0.25,4.53125 1.90625,0.78125 3.375,-3.03125 0.375,-0.84375 0.53125,-2.84375 4.125,0 0.53125,2.84375 0.375,0.84375 3.375,3.03125 1.90625,-0.78125 0.25,-4.53125 -0.34375,-0.875 -1.65625,-2.375 2.9375,-2.9375 2.375,1.65625 0.90625,0.34375 4.5,-0.25 0.8125,-1.90625 -3.03125,-3.375 -0.875,-0.375 -2.84375,-0.53125 0,-4.125 2.84375,-0.53125 0.875,-0.375 3.03125,-3.375 -0.8125,-1.90625 -4.5,-0.25 -0.90625,0.34375 -2.375,1.65625 -2.9375,-2.9375 1.65625,-2.375 0.34375,-0.90625 -0.25,-4.5 -1.90625,-0.8125 -3.34375,3.03125 -0.40625,0.875 -0.53125,2.84375 -4.125,0 -0.53125,-2.84375 -0.375,-0.875 -3.375,-3.03125 z m 3.3125,16.25 6.0625,0 c 0.31358,0.52866 0.53125,1.12201 0.53125,1.78125 0,1.95691 -1.60559,3.53125 -3.5625,3.53125 -1.95691,0 -3.53125,-1.57434 -3.53125,-3.53125 0,-0.65743 0.18801,-1.25356 0.5,-1.78125 z"
         transform="matrix(0.38268343,0.92387954,-0.92387954,0.38268343,49.305539,-762.64395)"
         id="path3402"
         inkscape:connector-curvature="0" />
    </g>
    <path
       style="fill:#000000;fill-opacity:0.29803922;stroke:none"
       d="m 627.8125,248.70593 -1.71875,3.96875 -0.25,1.875 0.21875,1.96875 -4.34375,0.84375 -0.5625,-1.875 -0.9375,-1.65625 -3.09375,-2.96875 -2.375,0.96875 -0.0625,4.28125 0.5,1.84375 0.9375,1.71875 -3.6875,2.46875 -1.25,-1.53125 -1.5,-1.15625 -4,-1.5625 -1.78125,1.78125 1.5625,4 1.15625,1.5 1.53125,1.25 -2.46875,3.6875 -1.71875,-0.9375 -1.84375,-0.5 -4.28125,0.0625 -0.96875,2.375 2.96875,3.09375 1.65625,0.9375 1.875,0.5625 -0.84375,4.34375 -1.96875,-0.21875 -1.875,0.25 -3.96875,1.71875 0,2.53125 3.96875,1.75 1.875,0.21875 1.96875,-0.21875 0.84375,4.375 -1.875,0.53125 -1.65625,0.96875 -2.96875,3.09375 0.96875,2.34375 4.28125,0.0937 1.84375,-0.5 1.71875,-0.96875 2.46875,3.71875 -1.53125,1.21875 -1.15625,1.5 -1.5625,4 1.78125,1.8125 4,-1.5625 1.5,-1.15625 1.25,-1.5625 3.6875,2.46875 -0.9375,1.75 -0.5,1.8125 0.0625,4.3125 2.375,0.96875 3.09375,-3 0.9375,-1.625 0.5625,-1.90625 4.34375,0.875 -0.21875,1.96875 0.25,1.875 1.71875,3.9375 2.53125,0 1.75,-3.9375 0.21875,-1.875 -0.21875,-1.96875 4.375,-0.875 0.53125,1.90625 0.96875,1.625 3.09375,3 2.34375,-0.96875 0.0937,-4.3125 -0.5,-1.8125 -0.96875,-1.75 3.71875,-2.46875 1.21875,1.5625 1.5,1.15625 4,1.5625 1.8125,-1.8125 -1.5625,-4 -1.15625,-1.5 -1.5625,-1.21875 2.46875,-3.71875 1.75,0.96875 1.8125,0.5 4.3125,-0.0937 0.96875,-2.34375 -3,-3.09375 -1.625,-0.96875 -1.90625,-0.53125 0.875,-4.375 1.96875,0.21875 1.875,-0.21875 3.9375,-1.75 0,-2.53125 -3.9375,-1.71875 -1.875,-0.25 -1.96875,0.21875 -0.875,-4.34375 1.90625,-0.5625 1.625,-0.9375 3,-3.09375 -0.96875,-2.375 -4.3125,-0.0625 -1.8125,0.5 -1.75,0.9375 -2.46875,-3.6875 1.5625,-1.25 1.15625,-1.5 1.5625,-4 -1.8125,-1.78125 -4,1.5625 -1.5,1.15625 -1.21875,1.53125 -3.71875,-2.46875 0.96875,-1.71875 0.5,-1.84375 -0.0937,-4.28125 -2.34375,-0.96875 -3.09375,2.96875 -0.96875,1.65625 -0.53125,1.875 -4.375,-0.84375 0.21875,-1.96875 -0.21875,-1.875 -1.75,-3.96875 -2.53125,0 z m -4.03125,29.0625 10.625,0 0,10.625 -10.625,0 0,-10.625 z"
       id="path3493"
       inkscape:connector-curvature="0" />
    <rect
       style="opacity:0.75739644;color:#000000;fill:#000000;fill-opacity:0.39215686;fill-rule:nonzero;stroke:none;stroke-width:0.99921262;marker:none;visibility:visible;display:inline;overflow:visible;enable-background:accumulate"
       id="rect4282"
       width="10.629921"
       height="10.629921"
       x="604.3938"
       y="399.61731" />
    <path
       style="opacity:0.75739644;color:#000000;fill:#000000;fill-opacity:0.29803922;fill-rule:nonzero;stroke:none;stroke-width:0.99921262;marker:none;visibility:visible;display:inline;overflow:visible;enable-background:accumulate"
       d="m 164.81994,292.82422 0,53.125 10.65625,0 0,-23.03125 2.64586,0 0,2.46875 2.66664,0 0,-2.46875 3.5625,0 0,-7.09375 -3.5625,0 0,-2.46875 -2.66664,-8.9e-4 0,2.46875 -2.64586,8.9e-4 0,-23 z"
       id="rect4347"
       inkscape:connector-curvature="0"
       sodipodi:nodetypes="ccccccccccccccccc" />
    <rect
       style="opacity:0.75739644;color:#000000;fill:#000000;fill-opacity:0.22745098;fill-rule:nonzero;stroke:none;stroke-width:0.99921262;marker:none;visibility:visible;display:inline;overflow:visible;enable-background:accumulate"
       id="rect4388"
       width="10.629921"
       height="10.629921"
       x="200.88687"
       y="127.90871" />
    <path
       inkscape:connector-curvature="0"
       id="path4390"
       d="m 668.93745,195.78408 -1.71875,3.96875 -0.25,1.875 0.21875,1.96875 -4.34375,0.84375 -0.5625,-1.875 -0.9375,-1.65625 -3.09375,-2.96875 -2.375,0.96875 -0.0625,4.28125 0.5,1.84375 0.9375,1.71875 -3.6875,2.46875 -1.25,-1.53125 -1.5,-1.15625 -4,-1.5625 -1.78125,1.78125 1.5625,4 1.15625,1.5 1.53125,1.25 -2.46875,3.6875 -1.71875,-0.9375 -1.84375,-0.5 -4.28125,0.0625 -0.96875,2.375 2.96875,3.09375 1.65625,0.9375 1.875,0.5625 -0.84375,4.34375 -1.96875,-0.21875 -1.875,0.25 -3.96875,1.71875 0,2.53125 3.96875,1.75 1.875,0.21875 1.96875,-0.21875 0.84375,4.375 -1.875,0.53125 -1.65625,0.96875 -2.96875,3.09375 0.96875,2.34375 4.28125,0.0937 1.84375,-0.5 1.71875,-0.96875 2.46875,3.71875 -1.53125,1.21875 -1.15625,1.5 -1.5625,4 1.78125,1.8125 4,-1.5625 1.5,-1.15625 1.25,-1.5625 3.6875,2.46875 -0.9375,1.75 -0.5,1.8125 0.0625,4.3125 2.375,0.96875 3.09375,-3 0.9375,-1.625 0.5625,-1.90625 4.34375,0.875 -0.21875,1.96875 0.25,1.875 1.71875,3.9375 2.53125,0 1.75,-3.9375 0.21875,-1.875 -0.21875,-1.96875 4.375,-0.875 0.53125,1.90625 0.96875,1.625 3.09375,3 2.34375,-0.96875 0.0937,-4.3125 -0.5,-1.8125 -0.96875,-1.75 3.71875,-2.46875 1.21875,1.5625 1.5,1.15625 4,1.5625 1.8125,-1.8125 -1.5625,-4 -1.15625,-1.5 -1.5625,-1.21875 2.46875,-3.71875 1.75,0.96875 1.8125,0.5 4.3125,-0.0937 0.96875,-2.34375 -3,-3.09375 -1.625,-0.96875 -1.90625,-0.53125 0.875,-4.375 1.96875,0.21875 1.875,-0.21875 3.9375,-1.75 0,-2.53125 -3.9375,-1.71875 -1.875,-0.25 -1.96875,0.21875 -0.875,-4.34375 1.90625,-0.5625 1.625,-0.9375 3,-3.09375 -0.96875,-2.375 -4.3125,-0.0625 -1.8125,0.5 -1.75,0.9375 -2.46875,-3.6875 1.5625,-1.25 1.15625,-1.5 1.5625,-4 -1.8125,-1.78125 -4,1.5625 -1.5,1.15625 -1.21875,1.53125 -3.71875,-2.46875 0.96875,-1.71875 0.5,-1.84375 -0.0937,-4.28125 -2.34375,-0.96875 -3.09375,2.96875 -0.96875,1.65625 -0.53125,1.875 -4.375,-0.84375 0.21875,-1.96875 -0.21875,-1.875 -1.75,-3.96875 -2.53125,0 z m -4.03125,29.0625 10.625,0 0,10.625 -10.625,0 0,-10.625 z"
       style="fill:#000000;fill-opacity:0.29803922;stroke:none" />
    <rect
       style="opacity:0.75739644;color:#000000;fill:#000000;fill-opacity:0.22745098;fill-rule:nonzero;stroke:none;stroke-width:0.99921262;marker:none;visibility:visible;display:inline;overflow:visible;enable-background:accumulate"
       id="rect4415"
       width="10.625"
       height="10.65625"
       x="233"
       y="242.34375" />
    <rect
       y="217.34375"
       x="218.875"
       height="10.65625"
       width="10.625"
       id="rect4417"
       style="opacity:0.75739644;color:#000000;fill:#000000;fill-opacity:0.22745098;fill-rule:nonzero;stroke:none;stroke-width:0.99921262;marker:none;visibility:visible;display:inline;overflow:visible;enable-background:accumulate" />
    <rect
       y="228"
       x="229.5"
       height="10.65625"
       width="10.625"
       id="rect4419"
       style="opacity:0.75739644;color:#000000;fill:#000000;fill-opacity:0.22745098;fill-rule:nonzero;stroke:none;stroke-width:0.99921262;marker:none;visibility:visible;display:inline;overflow:visible;enable-background:accumulate" />
    <rect
       style="opacity:0.75739644;color:#000000;fill:#000000;fill-opacity:0.22745098;fill-rule:nonzero;stroke:none;stroke-width:0.99921262;marker:none;visibility:visible;display:inline;overflow:visible;enable-background:accumulate"
       id="rect4421"
       width="10.629921"
       height="157.40944"
       x="-310.8027"
       y="2.0410495"
       transform="matrix(-0.8660254,-0.5,-0.5,0.8660254,0,0)" />
    <rect
       transform="scale(-1,1)"
       y="143.96715"
       x="-229.50247"
       height="157.40944"
       width="10.629921"
       id="rect4423"
       style="opacity:0.75739644;color:#000000;fill:#000000;fill-opacity:0.22745098;fill-rule:nonzero;stroke:none;stroke-width:0.99921262;marker:none;visibility:visible;display:inline;overflow:visible;enable-background:accumulate" />
    <rect
       style="opacity:0.75739644;color:#000000;fill:#000000;fill-opacity:0.22745098;fill-rule:nonzero;stroke:none;stroke-width:0.99921262;marker:none;visibility:visible;display:inline;overflow:visible;enable-background:accumulate"
       id="rect4425"
       width="10.625"
       height="10.65625"
       x="-321.4277"
       y="59.256149"
       transform="matrix(-0.8660254,-0.5,-0.5,0.8660254,0,0)" />
    <rect
       transform="matrix(-0.8660254,-0.5,-0.5,0.8660254,0,0)"
       y="48.599915"
       x="-321.4277"
       height="10.65625"
       width="10.625"
       id="rect4427"
       style="opacity:0.75739644;color:#000000;fill:#000000;fill-opacity:0.22745098;fill-rule:nonzero;stroke:none;stroke-width:0.99921262;marker:none;visibility:visible;display:inline;overflow:visible;enable-background:accumulate" />
    <rect
       style="opacity:0.75739644;color:#000000;fill:#000000;fill-opacity:0.22745098;fill-rule:nonzero;stroke:none;stroke-width:0.99921262;marker:none;visibility:visible;display:inline;overflow:visible;enable-background:accumulate"
       id="rect4431"
       width="10.629921"
       height="157.40944"
       x="-293.27954"
       y="143.97539"
       transform="scale(-1,1)" />
    <rect
       style="opacity:0.75739644;color:#000000;fill:#000000;fill-opacity:0.22745098;fill-rule:nonzero;stroke:none;stroke-width:0.99921262;marker:none;visibility:visible;display:inline;overflow:visible;enable-background:accumulate"
       id="rect4454"
       width="77.952759"
       height="10.629921"
       x="-309.91638"
       y="481.62939"
       transform="matrix(0,-1,1,0,0,0)" />
    <path
       style="opacity:0.75739644;color:#000000;fill:#000000;fill-opacity:0.22745098;fill-rule:nonzero;stroke:none;stroke-width:0.99921262;marker:none;visibility:visible;display:inline;overflow:visible;enable-background:accumulate"
       d="m 386.5,117.84375 0,53.15625 10.625,0 10.625,0 0,-10.625 -10.625,0 0,-10.625 10.625,0 0,-10.625 -10.625,0 0,-10.65625 10.625,0 0,-10.625 -10.625,0 -10.625,0 z"
       id="rect4497"
       inkscape:connector-curvature="0" />
    <path
       id="path4506"
       d="m 365.25,117.82813 0,53.15624 10.625,0 10.625,0 0,-10.625 -10.625,0 0,-10.625 10.625,0 0,-10.625 -10.625,0 0,-10.65625 10.625,0 0,-10.62499 -10.625,0 -10.625,0 z"
       style="opacity:0.75739644;color:#000000;fill:#000000;fill-opacity:0.22745098;fill-rule:nonzero;stroke:none;stroke-width:0.99921262;marker:none;visibility:visible;display:inline;overflow:visible;enable-background:accumulate"
       inkscape:connector-curvature="0" />
    <rect
       style="opacity:0.75739644;color:#000000;fill:#000000;fill-opacity:0.22745098;fill-rule:nonzero;stroke:none;stroke-width:0.99921262;marker:none;visibility:visible;display:inline;overflow:visible;enable-background:accumulate"
       id="rect4511"
       width="10.629921"
       height="74.409447"
       x="282.64963"
       y="164.21555" />
    <rect
       transform="matrix(0,-1,-1,0,0,0)"
       y="-615.02374"
       x="-410.24722"
       height="157.40944"
       width="10.629921"
       id="rect4513"
       style="opacity:0.75739644;color:#000000;fill:#000000;fill-opacity:0.22745098;fill-rule:nonzero;stroke:none;stroke-width:0.99921262;marker:none;visibility:visible;display:inline;overflow:visible;enable-background:accumulate" />
    <path
       inkscape:transform-center-x="-41.433922"
       inkscape:connector-curvature="0"
       id="path4515"
       d="m 178.69311,218.24828 5.3125,9.20152 15.95313,27.63162 5.3125,9.20152 9.20152,-5.3125 -5.3125,-9.20152 9.20152,-5.3125 43.95079,-25.375 2.08387,-1.20312 18.40304,-10.625 2.08388,-1.20313 43.95078,-25.375 9.20152,-5.3125 5.3125,9.20152 9.20152,-5.3125 -5.3125,-9.20152 -15.95312,-27.63162 -5.3125,-9.20152 -9.20152,5.3125 5.3125,9.20152 -18.13241,10.46875 -0.007,6.1747 -0.007,10.61286 -10.66698,0.0242 0.007,-10.61286 0.0114,-0.0426 -24.35697,14.0625 0.0156,0.027 -2.05681,1.1875 5.3125,9.20152 -9.22858,5.32812 -5.3125,-9.20152 -9.20152,5.3125 -2.08388,1.20313 -0.0156,-0.027 -53.1523,30.6875 -5.3125,-9.20152 -9.20152,5.3125 z m 41.73657,-2.08514 c 3.60132,-2.07922 8.19304,-0.87175 10.27226,2.72956 2.07922,3.60132 0.84468,8.20866 -2.75663,10.28788 -3.60132,2.07922 -8.20866,0.84469 -10.28788,-2.75663 -2.07922,-3.60131 -0.82906,-8.18159 2.77225,-10.26081 z m -21.91005,15.17568 9.20152,-5.3125 5.32813,9.22858 -9.20152,5.3125 -5.32813,-9.22858 z m 119.67389,-69.09375 9.20152,-5.3125 5.32812,9.22858 -9.20152,5.3125 -5.32812,-9.22858 z"
       style="opacity:0.75739644;color:#000000;fill:#000000;fill-opacity:0.22745098;fill-rule:nonzero;stroke:none;stroke-width:0.99921262;marker:none;visibility:visible;display:inline;overflow:visible;enable-background:accumulate"
       inkscape:transform-center-y="-23.92189" />
    <rect
       transform="matrix(-0.5,-0.8660254,0.8660254,-0.5,0,0)"
       y="34.998714"
       x="-343.90936"
       height="10.629921"
       width="77.952759"
       id="rect4517"
       style="opacity:0.75739644;color:#000000;fill:#000000;fill-opacity:0.22745098;fill-rule:nonzero;stroke:none;stroke-width:0.99921262;marker:none;visibility:visible;display:inline;overflow:visible;enable-background:accumulate" />
    <rect
       style="opacity:0.75739644;color:#000000;fill:#000000;fill-opacity:0.22745098;fill-rule:nonzero;stroke:none;stroke-width:0.99921262;marker:none;visibility:visible;display:inline;overflow:visible;enable-background:accumulate"
       id="rect4519"
       width="27.226597"
       height="52.335129"
       x="202.26459"
       y="228" />
    <rect
       style="opacity:0.75739644;color:#000000;fill:#000000;fill-opacity:0.22745098;fill-rule:nonzero;stroke:none;stroke-width:0.99921262;marker:none;visibility:visible;display:inline;overflow:visible;enable-background:accumulate"
       id="rect4523"
       width="10.629921"
       height="10.629921"
       x="344.29935"
       y="286.98737" />
    <rect
       y="276.35745"
       x="344.29935"
       height="10.629921"
       width="10.629921"
       id="rect4525"
       style="opacity:0.75739644;color:#000000;fill:#000000;fill-opacity:0.22745098;fill-rule:nonzero;stroke:none;stroke-width:0.99921262;marker:none;visibility:visible;display:inline;overflow:visible;enable-background:accumulate" />
    <rect
       style="opacity:0.75739644;color:#000000;fill:#000000;fill-opacity:0.22745098;fill-rule:nonzero;stroke:none;stroke-width:0.99921262;marker:none;visibility:visible;display:inline;overflow:visible;enable-background:accumulate"
       id="rect4534"
       width="10.625"
       height="10.65625"
       x="480.59375"
       y="388.96106" />
    <path
       style="opacity:0.75739644;color:#000000;fill:#000000;fill-opacity:0.22745098;fill-rule:nonzero;stroke:none;stroke-width:0.99921262;marker:none;visibility:visible;display:inline;overflow:visible;enable-background:accumulate"
       d="m 559.77859,488.65993 -10.625,0.0312 0,7.0625 -117.8125,0 0,10.65625 117.8125,0 0,7.0625 10.625,0.0312 c 0,-0.0217 -3.5e-4,-0.0409 0,-0.0625 0.13684,-8.31335 26.59375,-7.91535 26.59375,0 -0.006,0.0197 0.007,0.0428 0,0.0625 l 10.625,-0.0312 0,-7.0625 117.8125,0 0,-10.65625 -117.8125,0 0,-7.0625 -10.625,-0.0312 c 0.007,0.0197 -0.006,0.0428 0,0.0625 0,7.91535 -26.45691,8.31335 -26.59375,0 -3.5e-4,-0.0216 0,-0.0408 0,-0.0625 z"
       id="rect4554"
       inkscape:connector-curvature="0" />
    <rect
       style="opacity:0.75739644;color:#000000;fill:#000000;fill-opacity:0.22745098;fill-rule:nonzero;stroke:none;stroke-width:0.99921262;marker:none;visibility:visible;display:inline;overflow:visible;enable-background:accumulate"
       id="rect4575"
       width="170.0625"
       height="42.531242"
       x="187"
       y="196.09375" />
    <rect
       style="opacity:0.75739644;color:#000000;fill:#000000;fill-opacity:0.22745098;fill-rule:nonzero;stroke:none;stroke-width:0.99921262;marker:none;visibility:visible;display:inline;overflow:visible;enable-background:accumulate"
       id="rect4583"
       width="3.3587573"
       height="53.149605"
       x="532.3288"
       y="315.60028" />
    <rect
       style="opacity:0.75739644;color:#000000;fill:#000000;fill-opacity:0.22745098;fill-rule:nonzero;stroke:none;stroke-width:0.99921262;marker:none;visibility:visible;display:inline;overflow:visible;enable-background:accumulate"
       id="rect4585"
       width="212.59842"
       height="19"
       x="320.22449"
       y="456.99991" />
    <rect
       y="300.29965"
       x="400.66037"
       height="19"
       width="283.46457"
       id="rect4587"
       style="opacity:0.75739644;color:#000000;fill:#000000;fill-opacity:0.22745098;fill-rule:nonzero;stroke:none;stroke-width:0.99921262;marker:none;visibility:visible;display:inline;overflow:visible;enable-background:accumulate" />
    <path
       style="opacity:0.75739644;color:#000000;fill:#000000;fill-opacity:0.22745098;fill-rule:nonzero;stroke:none;stroke-width:0.99921262;marker:none;visibility:visible;display:inline;overflow:visible;enable-background:accumulate"
       d="M 454.9375 572.53125 L 454.9375 583.1875 C 454.9375 593.07718 497.46875 593.82959 497.46875 604.4375 L 508.09375 604.4375 L 508.09375 593.8125 L 518.71875 593.8125 L 518.71875 604.4375 L 571.875 604.4375 L 571.875 593.8125 L 582.5 593.8125 L 582.5 604.4375 L 593.125 604.4375 C 593.125 593.82959 635.65625 593.07718 635.65625 583.1875 L 635.65625 572.53125 L 625.03125 572.53125 L 625.03125 583.1875 L 465.5625 583.1875 L 465.5625 572.53125 L 454.9375 572.53125 z "
       id="rect4589" />
    <rect
       style="opacity:0.75739644;color:#000000;fill:#000000;fill-opacity:0.22745098;fill-rule:nonzero;stroke:none;stroke-width:0.99921262;marker:none;visibility:visible;display:inline;overflow:visible;enable-background:accumulate"
       id="rect4593"
       width="53.149605"
       height="10.629921"
       x="723.5"
       y="554.16669" />
    <rect
       y="545.30646"
       x="493.47986"
       height="10.629921"
       width="53.149605"
       id="rect4595"
       style="opacity:0.75739644;color:#000000;fill:#000000;fill-opacity:0.22745098;fill-rule:nonzero;stroke:none;stroke-width:0.99921262;marker:none;visibility:visible;display:inline;overflow:visible;enable-background:accumulate" />
    <path
       style="opacity:0.75739644;color:#000000;fill:#000000;fill-opacity:0.22745098;fill-rule:nonzero;stroke:none;stroke-width:0.99921262;marker:none;visibility:visible;display:inline;overflow:visible;enable-background:accumulate"
       d="M 583.90625,320.53125 573.5625,330.875 c 0.739,-0.0635 1.478,-0.10091 2.21875,-0.125 1.48037,-0.048 2.9603,-0.0159 4.4375,0.0937 0.73936,0.0541 1.45142,0.12525 2.1875,0.21875 0.0103,10e-4 0.021,-10e-4 0.0312,0 4.40604,0.56293 8.73509,1.83919 12.8125,3.8125 1.36226,0.65928 2.70129,1.40212 4,2.21875 1.29871,0.81663 2.55956,1.71355 3.78125,2.6875 1.22169,0.97395 2.40003,2.02503 3.53125,3.15625 1.13136,1.13137 2.18279,2.30882 3.15625,3.53125 0.48673,0.61121 0.95897,1.21233 1.40625,1.84375 0.005,0.007 -0.005,0.0245 0,0.0312 0.44182,0.62455 0.87799,1.26362 1.28125,1.90625 0.81568,1.29985 1.56072,2.63637 2.21875,4 0.98705,2.04544 1.80479,4.16193 2.4375,6.3125 0.42181,1.43372 0.76676,2.88036 1.03125,4.34375 0.39674,2.19508 0.61311,4.40152 0.65625,6.625 2.1e-4,0.0104 -2e-4,0.0208 0,0.0312 0.0275,1.47205 -0.0289,2.96987 -0.15625,4.4375 l -10.40625,10.40625 -17.03125,17.03125 -10.375,10.375 c -1.46749,0.12733 -2.9656,0.18371 -4.4375,0.15625 -0.0104,-2e-4 -0.0208,2.1e-4 -0.0312,0 -2.22348,-0.0431 -4.42992,-0.25951 -6.625,-0.65625 -1.46339,-0.26449 -2.91003,-0.60944 -4.34375,-1.03125 -2.15057,-0.63271 -4.26706,-1.45045 -6.3125,-2.4375 -1.36363,-0.65803 -2.70015,-1.40307 -4,-2.21875 -0.64263,-0.40326 -1.2817,-0.83943 -1.90625,-1.28125 -0.007,-0.005 -0.0245,0.005 -0.0312,0 -0.63142,-0.44728 -1.23254,-0.91952 -1.84375,-1.40625 -1.22243,-0.97346 -2.39989,-2.02488 -3.53125,-3.15625 -1.13136,-1.13137 -2.18279,-2.30891 -3.15625,-3.53125 -0.49219,-0.61803 -0.9544,-1.23633 -1.40625,-1.875 -0.44747,-0.63087 -0.87317,-1.257 -1.28125,-1.90625 -0.81568,-1.29971 -1.56072,-2.63651 -2.21875,-4 -0.90519,-1.87561 -1.64283,-3.81554 -2.25,-5.78125 -0.0554,-0.17939 -0.13455,-0.35127 -0.1875,-0.53125 -0.41893,-1.42385 -0.7675,-2.85924 -1.03125,-4.3125 -0.002,-0.0101 0.002,-0.0211 0,-0.0312 -0.66123,-3.65852 -0.82057,-7.3667 -0.5,-11.0625 l -9.59375,-14.4375 -22.84375,0 0,10.65625 -10.625,0 0,-10.65625 -12.03125,0 0,0.0312 -32.28125,0 0,-10.65625 0,-10.65625 -10.625,0 0,10.65625 0,10.65625 -10.625,0 0,-10.65625 0,-10.65625 -10.625,0 0,10.65625 0,10.65625 -10.25,0 0,80.71875 95.65625,0 0,-46.0625 25.75,0 c 6.9584,20.69902 26.52295,35.625 49.5625,35.625 7.70443,0 15.01053,-1.69256 21.59375,-4.6875 3.07547,2.24901 6.86684,3.59375 10.96875,3.59375 10.2738,0 18.59375,-8.31995 18.59375,-18.59375 0,-4.10191 -1.34474,-7.89328 -3.59375,-10.96875 2.58425,-5.67953 4.16496,-11.89316 4.56196,-18.4375 l 0,0 c 0.57452,-8.3361 18.18804,-2.04387 18.18804,-21.1875 l 0,-10.625 0,-10.625 -10.625,0 0,10.625 0,10.625 -10.625,0 0,-10.625 0,-10.625 -14.5625,0 c -7.60947,-6.69002 -17.19124,-11.19746 -27.75,-12.5625 z M 416.8125,389 l 63.78125,0 10.625,0 0,35.4375 -74.40625,0 z m 192.90625,8.40625 c 4.15844,0 7.53125,3.37281 7.53125,7.53125 0,4.15844 -3.37281,7.53125 -7.53125,7.53125 -4.15844,0 -7.53125,-3.37281 -7.53125,-7.53125 0,-4.15844 3.37281,-7.53125 7.53125,-7.53125 z"
       id="rect4649"
       inkscape:connector-curvature="0"
       sodipodi:nodetypes="ccccccsssssccssssccccccccssssccsssccscccccccccccccccccccccccccccccscsscccsccccccccccccccccsssss" />
    <rect
       y="343.6875"
       x="405.8125"
       height="10.65625"
       width="10.625"
       id="rect4660"
       style="opacity:0.75739644;color:#000000;fill:#000000;fill-opacity:0.22745098;fill-rule:nonzero;stroke:none;stroke-width:0.99921262;marker:none;visibility:visible;display:inline;overflow:visible;enable-background:accumulate" />
    <rect
       style="opacity:0.75739644;color:#000000;fill:#000000;fill-opacity:0.22745098;fill-rule:nonzero;stroke:none;stroke-width:0.99921262;marker:none;visibility:visible;display:inline;overflow:visible;enable-background:accumulate"
       id="rect4675"
       width="224.79144"
       height="10.625"
       x="427.0625"
       y="354.34375" />
  </g>
  <g
     inkscape:groupmode="layer"
     id="layer3"
     inkscape:label="rechts"
     style="display:inline">
    <rect
       style="opacity:0.75739644;color:#000000;fill:#000000;fill-opacity:0.22745098;fill-rule:nonzero;stroke:none;stroke-width:0.99921262;marker:none;visibility:visible;display:inline;overflow:visible;enable-background:accumulate"
       id="rect4544"
       width="191.33858"
       height="25.102291"
       x="325.97623"
       y="458.39252" />
  </g>
</svg>
